mtllib model_7.mtl
o model_7
v 28.730669021606445 11.558233261108398 -2.1174802780151367 
v 28.722108840942383 11.547218322753906 -2.148390293121338 
v 28.755109786987305 11.547218322753906 -2.106780529022217 
v 28.75511932373047 11.53320026397705 -2.148390293121338 
v 28.805850982666016 11.547218322753906 -2.106780529022217 
v 28.805850982666016 11.53320026397705 -2.148390293121338 
v 28.931232452392578 11.53320026397705 -2.148390293121338 
v 28.931232452392578 11.53320026397705 -2.21793794631958 
v 28.973018646240234 11.53320026397705 -2.21793794631958 
v 28.973018646240234 11.53320026397705 -2.3932929039001465 
v 28.99708366394043 11.547218322753906 -2.3932929039001465 
v 28.99708366394043 11.547218322753906 -2.4765121936798096 
v 28.72210121154785 11.547218322753906 -2.21793794631958 
v 28.755109786987305 11.53320026397705 -2.21793794631958 
v 28.805850982666016 11.53320026397705 -2.21793794631958 
v 28.931232452392578 11.53320026397705 -2.3932929039001465 
v 28.973018646240234 11.53320026397705 -2.4765121936798096 
v 28.99708366394043 11.547218322753906 -21.186601638793945 
v 28.722108840942383 11.547218322753906 -2.3932929039001465 
v 28.75511932373047 11.53320026397705 -2.3932929039001465 
v 28.805850982666016 11.53320026397705 -2.3932929039001465 
v 28.931232452392578 11.53320026397705 -2.4765121936798096 
v 28.931232452392578 11.53320026397705 -21.186601638793945 
v 28.973018646240234 11.53320026397705 -21.186601638793945 
v 28.973018646240234 11.53320026397705 -21.29478645324707 
v 28.99708366394043 11.547218322753906 -21.29478645324707 
v 28.99708366394043 11.547218322753906 -21.442203521728516 
v 28.72210121154785 11.547218322753906 -2.4765121936798096 
v 28.755109786987305 11.53320026397705 -2.4765121936798096 
v 28.805850982666016 11.53320026397705 -2.4765121936798096 
v 28.72210121154785 11.547218322753906 -21.186601638793945 
v 28.755109786987305 11.53320026397705 -21.186601638793945 
v 28.805850982666016 11.53320026397705 -21.186601638793945 
v 28.931232452392578 11.53320026397705 -21.29478645324707 
v 28.973018646240234 11.53320026397705 -21.442203521728516 
v 28.99708366394043 11.547218322753906 -21.513534545898438 
v 28.722108840942383 11.547218322753906 -21.29478645324707 
v 28.75511932373047 11.53320026397705 -21.29478645324707 
v 28.805850982666016 11.53320026397705 -21.29478645324707 
v 28.931232452392578 11.53320026397705 -21.442203521728516 
v 28.973018646240234 11.53320026397705 -21.513534545898438 
v 28.990846633911133 11.558233261108398 -21.545040130615234 
v 28.72210121154785 11.547218322753906 -21.442203521728516 
v 28.755109786987305 11.53320026397705 -21.442203521728516 
v 28.805850982666016 11.53320026397705 -21.442203521728516 
v 28.931232452392578 11.53320026397705 -21.513534545898438 
v 28.973018646240234 11.547218322753906 -21.556333541870117 
v 28.99708366394043 11.589274406433105 -21.556333541870117 
v 28.722108840942383 11.547218322753906 -21.513534545898438 
v 28.75511932373047 11.53320026397705 -21.513534545898438 
v 28.805850982666016 11.53320026397705 -21.513534545898438 
v 28.931232452392578 11.547218322753906 -21.556333541870117 
v 28.973018646240234 11.589274406433105 -21.570600509643555 
v 28.99708366394043 11.659700393676758 -21.556333541870117 
v 28.730669021606445 11.558233261108398 -21.545040130615234 
v 28.755109786987305 11.547218322753906 -21.556333541870117 
v 28.805850982666016 11.547218322753906 -21.556333541870117 
v 28.931232452392578 11.589274406433105 -21.570600509643555 
v 28.973018646240234 11.659700393676758 -21.570600509643555 
v 28.99708366394043 11.800887107849121 -21.556333541870117 
v 28.722108840942383 11.589274406433105 -21.556333541870117 
v 28.75511932373047 11.589274406433105 -21.570600509643555 
v 28.805850982666016 11.589274406433105 -21.570600509643555 
v 28.931232452392578 11.659700393676758 -21.570600509643555 
v 28.973018646240234 11.800887107849121 -21.570600509643555 
v 28.99708366394043 11.918709754943848 -21.556333541870117 
v 28.72210121154785 11.659700393676758 -21.556333541870117 
v 28.75511932373047 11.659700393676758 -21.570600509643555 
v 28.805850982666016 11.659700393676758 -21.570600509643555 
v 28.931232452392578 11.800887107849121 -21.570600509643555 
v 28.973018646240234 11.918709754943848 -21.570600509643555 
v 28.99708366394043 22.084829330444336 -21.556333541870117 
v 28.722108840942383 11.800887107849121 -21.556333541870117 
v 28.75511932373047 11.800887107849121 -21.570600509643555 
v 28.805850982666016 11.800887107849121 -21.570600509643555 
v 28.931232452392578 11.918709754943848 -21.570600509643555 
v 28.931232452392578 22.084829330444336 -21.570600509643555 
v 28.973018646240234 22.084829330444336 -21.570600509643555 
v 28.973018646240234 22.166269302368164 -21.570600509643555 
v 28.99708366394043 22.166269302368164 -21.556333541870117 
v 28.99708366394043 22.34684181213379 -21.556333541870117 
v 28.72210121154785 11.918709754943848 -21.556333541870117 
v 28.75511932373047 11.918709754943848 -21.570600509643555 
v 28.805850982666016 11.918709754943848 -21.570600509643555 
v 28.72210121154785 22.084829330444336 -21.556333541870117 
v 28.755109786987305 22.084829330444336 -21.570600509643555 
v 28.805850982666016 22.084829330444336 -21.570600509643555 
v 28.931232452392578 22.166269302368164 -21.570600509643555 
v 28.973018646240234 22.34684181213379 -21.570600509643555 
v 28.99708366394043 22.41593360900879 -21.556333541870117 
v 28.722108840942383 22.166269302368164 -21.556333541870117 
v 28.75511932373047 22.166269302368164 -21.570600509643555 
v 28.805850982666016 22.166269302368164 -21.570600509643555 
v 28.931232452392578 22.34684181213379 -21.570600509643555 
v 28.973018646240234 22.41593360900879 -21.570600509643555 
v 28.990846633911133 22.445974349975586 -21.545040130615234 
v 28.72210121154785 22.34684181213379 -21.556333541870117 
v 28.755109786987305 22.34684181213379 -21.570600509643555 
v 28.805850982666016 22.34684181213379 -21.570600509643555 
v 28.931232452392578 22.41593360900879 -21.570600509643555 
v 28.973018646240234 22.456653594970703 -21.556333541870117 
v 28.99708366394043 22.456653594970703 -21.513534545898438 
v 28.722108840942383 22.41593360900879 -21.556333541870117 
v 28.75511932373047 22.41593360900879 -21.570600509643555 
v 28.805850982666016 22.41593360900879 -21.570600509643555 
v 28.931232452392578 22.456653594970703 -21.556333541870117 
v 28.973018646240234 22.47000503540039 -21.513534545898438 
v 28.99708366394043 22.456653594970703 -21.442203521728516 
v 28.730669021606445 22.445974349975586 -21.545040130615234 
v 28.755109786987305 22.456653594970703 -21.556333541870117 
v 28.805850982666016 22.456653594970703 -21.556333541870117 
v 28.931232452392578 22.47000503540039 -21.513534545898438 
v 28.973018646240234 22.47000503540039 -21.442203521728516 
v 28.99708366394043 22.456653594970703 -21.29478645324707 
v 28.722108840942383 22.456653594970703 -21.513534545898438 
v 28.75511932373047 22.47000503540039 -21.513534545898438 
v 28.805850982666016 22.47000503540039 -21.513534545898438 
v 28.931232452392578 22.47000503540039 -21.442203521728516 
v 28.973018646240234 22.47000503540039 -21.29478645324707 
v 28.99708366394043 22.456653594970703 -21.186601638793945 
v 28.72210121154785 22.456653594970703 -21.442203521728516 
v 28.75511932373047 22.47000503540039 -21.442203521728516 
v 28.805858612060547 22.47000503540039 -21.442203521728516 
v 28.931232452392578 22.47000503540039 -21.29478645324707 
v 28.973018646240234 22.47000503540039 -21.186601638793945 
v 28.99708366394043 22.456653594970703 -2.4765121936798096 
v 28.722108840942383 22.456653594970703 -21.29478645324707 
v 28.75511932373047 22.47000503540039 -21.29478645324707 
v 28.805850982666016 22.47000503540039 -21.29478645324707 
v 28.931232452392578 22.47000503540039 -21.186601638793945 
v 28.931232452392578 22.47000503540039 -2.4765121936798096 
v 28.973018646240234 22.47000503540039 -2.4765121936798096 
v 28.973018646240234 22.47000503540039 -2.3932929039001465 
v 28.99708366394043 22.456653594970703 -2.3932929039001465 
v 28.99708366394043 22.456653594970703 -2.21793794631958 
v 28.72210121154785 22.456653594970703 -21.186601638793945 
v 28.75511932373047 22.47000503540039 -21.186601638793945 
v 28.805858612060547 22.47000503540039 -21.186601638793945 
v 28.72210121154785 22.456653594970703 -2.4765121936798096 
v 28.75511932373047 22.47000503540039 -2.4765121936798096 
v 28.805850982666016 22.47000503540039 -2.4765121936798096 
v 28.931232452392578 22.47000503540039 -2.3932929039001465 
v 28.973018646240234 22.47000503540039 -2.21793794631958 
v 28.973018646240234 22.47000503540039 -2.148390293121338 
v 28.99708366394043 22.456653594970703 -2.148390293121338 
v 28.973018646240234 22.456653594970703 -2.106780529022217 
v 28.990846633911133 22.445974349975586 -2.1174802780151367 
v 28.99708366394043 22.41593360900879 -2.106780529022217 
v 28.99708366394043 22.456653594970703 -2.148390293121338 
v 29.005104064941406 22.41593360900879 -2.148390293121338 
v 28.99708366394043 22.456653594970703 -2.21793794631958 
v 29.005104064941406 22.41593360900879 -2.21793794631958 
v 29.005104064941406 22.41593360900879 -2.3932929039001465 
v 29.005104064941406 22.34684181213379 -2.3932929039001465 
v 29.005104064941406 22.34684181213379 -2.4765121936798096 
v 29.005104064941406 22.166269302368164 -2.4765121936798096 
v 29.005104064941406 22.166269302368164 -21.186601638793945 
v 29.005104064941406 22.084829330444336 -21.186601638793945 
v 29.005104064941406 22.084829330444336 -21.29478645324707 
v 29.005104064941406 11.918709754943848 -21.186601638793945 
v 29.005104064941406 11.918709754943848 -21.29478645324707 
v 29.005104064941406 11.800887107849121 -21.29478645324707 
v 29.005104064941406 11.800887107849121 -21.442203521728516 
v 29.005104064941406 11.659700393676758 -21.442203521728516 
v 29.005104064941406 11.659700393676758 -21.513534545898438 
v 29.005104064941406 11.589274406433105 -21.442203521728516 
v 29.005104064941406 11.589274406433105 -21.513534545898438 
v 28.99708366394043 11.547218322753906 -21.442203521728516 
v 28.99708366394043 11.547218322753906 -21.513534545898438 
v 28.722108840942383 22.456653594970703 -2.3932929039001465 
v 28.75511932373047 22.47000503540039 -2.3932929039001465 
v 28.805850982666016 22.47000503540039 -2.3932929039001465 
v 28.931232452392578 22.47000503540039 -2.21793794631958 
v 28.931232452392578 22.47000503540039 -2.148390293121338 
v 28.931232452392578 22.456653594970703 -2.106780529022217 
v 28.973018646240234 22.41593360900879 -2.093108892440796 
v 28.99708366394043 22.34684181213379 -2.106780529022217 
v 29.005104064941406 22.34684181213379 -2.148390293121338 
v 29.005104064941406 22.34684181213379 -2.21793794631958 
v 29.005104064941406 22.166269302368164 -2.3932929039001465 
v 29.005104064941406 22.084829330444336 -2.4765121936798096 
v 29.005104064941406 11.918709754943848 -2.4765121936798096 
v 29.005104064941406 11.800887107849121 -21.186601638793945 
v 29.005104064941406 11.659700393676758 -21.29478645324707 
v 29.005104064941406 11.589274406433105 -21.29478645324707 
v 28.99708366394043 11.547218322753906 -21.29478645324707 
v 29.005104064941406 22.084829330444336 -2.3932929039001465 
v 29.005104064941406 22.166269302368164 -2.21793794631958 
v 29.005104064941406 22.166269302368164 -2.148390293121338 
v 28.99708366394043 22.166269302368164 -2.106780529022217 
v 28.973018646240234 22.34684181213379 -2.093108892440796 
v 28.931232452392578 22.41593360900879 -2.093108892440796 
v 28.805850982666016 22.41593360900879 -2.093108892440796 
v 28.805850982666016 22.456653594970703 -2.106780529022217 
v 28.75511932373047 22.41593360900879 -2.093108892440796 
v 28.75511932373047 22.456653594970703 -2.106780529022217 
v 28.722108840942383 22.41593360900879 -2.106780529022217 
v 28.730669021606445 22.445974349975586 -2.1174802780151367 
v 28.71109962463379 22.41593360900879 -2.148390293121338 
v 28.722108840942383 22.456653594970703 -2.148390293121338 
v 28.71109962463379 22.41593360900879 -2.21793794631958 
v 28.72210121154785 22.456653594970703 -2.21793794631958 
v 28.71109962463379 22.41593360900879 -2.3932929039001465 
v 28.722108840942383 22.456653594970703 -2.3932929039001465 
v 28.71109962463379 22.41593360900879 -2.4765121936798096 
v 28.72210121154785 22.456653594970703 -2.4765121936798096 
v 28.71109962463379 22.41593360900879 -21.186601638793945 
v 28.72210121154785 22.456653594970703 -21.186601638793945 
v 28.722108840942383 22.456653594970703 -21.29478645324707 
v 28.71109962463379 22.34684181213379 -2.4765121936798096 
v 28.71109962463379 22.34684181213379 -2.3932929039001465 
v 28.71109962463379 22.34684181213379 -2.21793794631958 
v 28.71109962463379 22.34684181213379 -2.148390293121338 
v 28.722108840942383 22.34684181213379 -2.106780529022217 
v 28.75511932373047 22.34684181213379 -2.093108892440796 
v 28.805858612060547 22.34684181213379 -2.093108892440796 
v 28.931232452392578 22.34684181213379 -2.093108892440796 
v 28.931232452392578 22.166269302368164 -2.093108892440796 
v 28.973018646240234 22.166269302368164 -2.093108892440796 
v 28.973018646240234 22.084829330444336 -2.093108892440796 
v 28.99708366394043 22.084829330444336 -2.106780529022217 
v 28.99708366394043 11.918709754943848 -2.106780529022217 
v 29.005104064941406 22.084829330444336 -2.148390293121338 
v 29.005104064941406 11.918709754943848 -2.148390293121338 
v 29.005104064941406 22.084829330444336 -2.21793794631958 
v 29.005104064941406 11.918709754943848 -2.21793794631958 
v 29.005104064941406 11.918709754943848 -2.3932929039001465 
v 29.005104064941406 11.800887107849121 -2.4765121936798096 
v 29.005104064941406 11.659700393676758 -21.186601638793945 
v 29.005104064941406 11.589274406433105 -21.186601638793945 
v 28.99708366394043 11.547218322753906 -21.186601638793945 
v 28.931232452392578 11.547218322753906 -2.106780529022217 
v 28.973018646240234 11.53320026397705 -2.148390293121338 
v 28.973018646240234 11.547218322753906 -2.106780529022217 
v 28.99708366394043 11.547218322753906 -2.148390293121338 
v 28.990846633911133 11.558233261108398 -2.1174802780151367 
v 28.99708366394043 11.547218322753906 -2.21793794631958 
v 28.99708366394043 22.456653594970703 -2.3932929039001465 
v 29.005104064941406 22.41593360900879 -2.4765121936798096 
v 28.99708366394043 22.456653594970703 -2.4765121936798096 
v 29.005104064941406 22.41593360900879 -21.186601638793945 
v 28.99708366394043 22.456653594970703 -21.186601638793945 
v 29.005104064941406 22.41593360900879 -21.29478645324707 
v 28.99708366394043 22.456653594970703 -21.29478645324707 
v 29.005104064941406 22.41593360900879 -21.442203521728516 
v 28.99708366394043 22.456653594970703 -21.442203521728516 
v 29.005104064941406 22.41593360900879 -21.513534545898438 
v 28.99708366394043 22.456653594970703 -21.513534545898438 
v 28.99708366394043 22.41593360900879 -21.556333541870117 
v 28.990846633911133 22.445974349975586 -21.545040130615234 
v 29.005104064941406 22.34684181213379 -21.186601638793945 
v 29.005104064941406 22.34684181213379 -21.29478645324707 
v 29.005104064941406 22.34684181213379 -21.442203521728516 
v 29.005104064941406 22.34684181213379 -21.513534545898438 
v 28.99708366394043 22.34684181213379 -21.556333541870117 
v 29.005104064941406 22.166269302368164 -21.29478645324707 
v 29.005104064941406 22.166269302368164 -21.442203521728516 
v 29.005104064941406 22.166269302368164 -21.513534545898438 
v 28.99708366394043 22.166269302368164 -21.556333541870117 
v 29.005104064941406 22.084829330444336 -21.442203521728516 
v 29.005104064941406 22.084829330444336 -21.513534545898438 
v 28.99708366394043 22.084829330444336 -21.556333541870117 
v 28.99708366394043 11.918709754943848 -21.556333541870117 
v 29.005104064941406 11.918709754943848 -21.513534545898438 
v 28.99708366394043 11.800887107849121 -21.556333541870117 
v 29.005104064941406 11.800887107849121 -21.513534545898438 
v 28.99708366394043 11.659700393676758 -21.556333541870117 
v 29.005104064941406 11.918709754943848 -21.442203521728516 
v 28.71109962463379 22.084829330444336 -21.186601638793945 
v 28.720458984375 22.084829330444336 -21.186601638793945 
v 28.71109962463379 22.084829330444336 -2.4765121936798096 
v 28.720458984375 22.084829330444336 -2.4765121936798096 
v 28.73267936706543 22.084829330444336 -21.186601638793945 
v 28.73267936706543 22.084829330444336 -2.4765121936798096 
v 28.71109962463379 11.918709754943848 -2.4765121936798096 
v 28.720458984375 11.918709754943848 -2.4765121936798096 
v 28.71109962463379 11.918709754943848 -21.186601638793945 
v 28.72046661376953 11.918709754943848 -21.186601638793945 
v 28.73267936706543 11.918709754943848 -2.4765121936798096 
v 28.73267936706543 11.918709754943848 -21.186601638793945 
v 28.71109962463379 11.918709754943848 -21.186601638793945 
v 28.72046661376953 11.918709754943848 -21.186601638793945 
v 28.71109962463379 22.084829330444336 -21.186601638793945 
v 28.720458984375 22.084829330444336 -21.186601638793945 
v 28.73267936706543 11.918709754943848 -21.186601638793945 
v 28.73267936706543 22.084829330444336 -21.186601638793945 
v 28.73267936706543 11.918709754943848 -2.4765121936798096 
v 28.720458984375 11.918709754943848 -2.4765121936798096 
v 28.73267936706543 22.084829330444336 -2.4765121936798096 
v 28.720458984375 22.084829330444336 -2.4765121936798096 
v 28.71109962463379 11.918709754943848 -2.4765121936798096 
v 28.71109962463379 22.084829330444336 -2.4765121936798096 
v 28.71109962463379 22.34684181213379 -21.186601638793945 
v 28.71109962463379 22.166269302368164 -2.4765121936798096 
v 28.71109962463379 22.166269302368164 -21.186601638793945 
v 28.71109962463379 22.084829330444336 -2.4765121936798096 
v 28.71109962463379 22.084829330444336 -21.186601638793945 
v 28.71109962463379 22.166269302368164 -2.3932929039001465 
v 28.71109962463379 22.166269302368164 -2.21793794631958 
v 28.71109962463379 22.166269302368164 -2.148390293121338 
v 28.722108840942383 22.166269302368164 -2.106780529022217 
v 28.75511932373047 22.166269302368164 -2.093108892440796 
v 28.805850982666016 22.166269302368164 -2.093108892440796 
v 28.931232452392578 22.084829330444336 -2.093108892440796 
v 28.931232452392578 11.918709754943848 -2.093108892440796 
v 28.973018646240234 11.918709754943848 -2.093108892440796 
v 28.973018646240234 11.800887107849121 -2.093108892440796 
v 28.99708366394043 11.800887107849121 -2.106780529022217 
v 28.99708366394043 11.659700393676758 -2.106780529022217 
v 29.005104064941406 11.800887107849121 -2.148390293121338 
v 29.005104064941406 11.659700393676758 -2.148390293121338 
v 29.005104064941406 11.800887107849121 -2.21793794631958 
v 29.005104064941406 11.659700393676758 -2.21793794631958 
v 29.005104064941406 11.659700393676758 -2.3932929039001465 
v 29.005104064941406 11.589274406433105 -2.21793794631958 
v 29.005104064941406 11.589274406433105 -2.3932929039001465 
v 28.99708366394043 11.547218322753906 -2.21793794631958 
v 28.99708366394043 11.547218322753906 -2.3932929039001465 
v 29.005104064941406 11.800887107849121 -2.3932929039001465 
v 29.005104064941406 11.659700393676758 -2.4765121936798096 
v 29.005104064941406 11.589274406433105 -2.4765121936798096 
v 28.99708366394043 11.547218322753906 -2.4765121936798096 
v 28.71109962463379 22.084829330444336 -2.3932929039001465 
v 28.71109962463379 22.084829330444336 -2.21793794631958 
v 28.71109962463379 22.084829330444336 -2.148390293121338 
v 28.722108840942383 22.084829330444336 -2.106780529022217 
v 28.75511932373047 22.084829330444336 -2.093108892440796 
v 28.805850982666016 22.084829330444336 -2.093108892440796 
v 28.75511932373047 11.918709754943848 -2.093108892440796 
v 28.805850982666016 11.918709754943848 -2.093108892440796 
v 28.931232452392578 11.800887107849121 -2.093108892440796 
v 28.973018646240234 11.659700393676758 -2.093108892440796 
v 28.99708366394043 11.589274406433105 -2.106780529022217 
v 29.005104064941406 11.589274406433105 -2.148390293121338 
v 28.75511932373047 11.800887107849121 -2.093108892440796 
v 28.805850982666016 11.800887107849121 -2.093108892440796 
v 28.931232452392578 11.659700393676758 -2.093108892440796 
v 28.973018646240234 11.589274406433105 -2.093108892440796 
v 28.990846633911133 11.558233261108398 -2.1174802780151367 
v 28.99708366394043 11.547218322753906 -2.148390293121338 
v 28.75511932373047 11.659700393676758 -2.093108892440796 
v 28.805850982666016 11.659700393676758 -2.093108892440796 
v 28.931232452392578 11.589274406433105 -2.093108892440796 
v 28.973018646240234 11.547218322753906 -2.106780529022217 
v 28.75511932373047 11.589274406433105 -2.093108892440796 
v 28.805850982666016 11.589274406433105 -2.093108892440796 
v 28.931232452392578 11.547218322753906 -2.106780529022217 
v 28.755109786987305 11.547218322753906 -2.106780529022217 
v 28.805850982666016 11.547218322753906 -2.106780529022217 
v 28.730669021606445 11.558233261108398 -2.1174802780151367 
v 28.722108840942383 11.589274406433105 -2.106780529022217 
v 28.722108840942383 11.547218322753906 -2.148390293121338 
v 28.71109962463379 11.589274406433105 -2.148390293121338 
v 28.72210121154785 11.547218322753906 -2.21793794631958 
v 28.71109962463379 11.589274406433105 -2.21793794631958 
v 28.722108840942383 11.547218322753906 -2.3932929039001465 
v 28.71109962463379 11.589274406433105 -2.3932929039001465 
v 28.72210121154785 11.547218322753906 -2.4765121936798096 
v 28.71109962463379 11.589274406433105 -2.4765121936798096 
v 28.71109962463379 11.589274406433105 -21.186601638793945 
v 28.71109962463379 11.659700393676758 -2.4765121936798096 
v 28.71109962463379 11.659700393676758 -21.186601638793945 
v 28.71109962463379 11.800887107849121 -21.186601638793945 
v 28.71109962463379 11.659700393676758 -21.29478645324707 
v 28.71109962463379 11.800887107849121 -21.29478645324707 
v 28.71109962463379 11.659700393676758 -21.442203521728516 
v 28.71109962463379 11.800887107849121 -21.442203521728516 
v 28.71109962463379 11.659700393676758 -21.513534545898438 
v 28.71109962463379 11.800887107849121 -21.513534545898438 
v 28.72210121154785 11.659700393676758 -21.556333541870117 
v 28.722108840942383 11.800887107849121 -21.556333541870117 
v 28.722108840942383 11.659700393676758 -2.106780529022217 
v 28.71109962463379 11.659700393676758 -2.148390293121338 
v 28.71109962463379 11.659700393676758 -2.21793794631958 
v 28.71109962463379 11.659700393676758 -2.3932929039001465 
v 28.722108840942383 11.800887107849121 -2.106780529022217 
v 28.71109962463379 11.800887107849121 -2.148390293121338 
v 28.71109962463379 11.800887107849121 -2.21793794631958 
v 28.71109962463379 11.800887107849121 -2.3932929039001465 
v 28.71109962463379 11.800887107849121 -2.4765121936798096 
v 28.71109962463379 11.918709754943848 -2.4765121936798096 
v 28.71109962463379 11.918709754943848 -21.186601638793945 
v 28.722108840942383 11.918709754943848 -2.106780529022217 
v 28.71109962463379 11.918709754943848 -2.148390293121338 
v 28.71109962463379 11.918709754943848 -2.21793794631958 
v 28.71109962463379 11.918709754943848 -2.3932929039001465 
v 28.71109962463379 11.918709754943848 -21.29478645324707 
v 28.71109962463379 11.918709754943848 -21.442203521728516 
v 28.71109962463379 11.918709754943848 -21.513534545898438 
v 28.72210121154785 11.918709754943848 -21.556333541870117 
v 28.71109962463379 22.084829330444336 -21.29478645324707 
v 28.71109962463379 22.084829330444336 -21.442203521728516 
v 28.71109962463379 22.084829330444336 -21.513534545898438 
v 28.72210121154785 22.084829330444336 -21.556333541870117 
v 28.71109962463379 22.166269302368164 -21.513534545898438 
v 28.722108840942383 22.166269302368164 -21.556333541870117 
v 28.71109962463379 22.34684181213379 -21.513534545898438 
v 28.72210121154785 22.34684181213379 -21.556333541870117 
v 28.71109962463379 22.41593360900879 -21.513534545898438 
v 28.722108840942383 22.41593360900879 -21.556333541870117 
v 28.722108840942383 22.456653594970703 -21.513534545898438 
v 28.730669021606445 22.445974349975586 -21.545040130615234 
v 28.72210121154785 22.456653594970703 -21.442203521728516 
v 28.71109962463379 22.41593360900879 -21.442203521728516 
v 28.71109962463379 22.41593360900879 -21.29478645324707 
v 28.71109962463379 22.34684181213379 -21.29478645324707 
v 28.71109962463379 22.166269302368164 -21.29478645324707 
v 28.71109962463379 22.34684181213379 -21.442203521728516 
v 28.71109962463379 22.166269302368164 -21.442203521728516 
v 28.990846633911133 11.558233261108398 -21.545040130615234 
v 28.99708366394043 11.589274406433105 -21.556333541870117 
v 28.72210121154785 22.456653594970703 -2.21793794631958 
v 28.75511932373047 22.47000503540039 -2.21793794631958 
v 28.805850982666016 22.47000503540039 -2.21793794631958 
v 28.805850982666016 22.47000503540039 -2.148390293121338 
v 28.722108840942383 22.456653594970703 -2.148390293121338 
v 28.75511932373047 22.47000503540039 -2.148390293121338 
v 28.722108840942383 11.589274406433105 -21.556333541870117 
v 28.71109962463379 11.589274406433105 -21.513534545898438 
v 28.71109962463379 11.589274406433105 -21.442203521728516 
v 28.71109962463379 11.589274406433105 -21.29478645324707 
v 28.730669021606445 11.558233261108398 -21.545040130615234 
v 28.722108840942383 11.547218322753906 -21.513534545898438 
v 28.72210121154785 11.547218322753906 -21.442203521728516 
v 28.722108840942383 11.547218322753906 -21.29478645324707 
v 28.72210121154785 11.547218322753906 -21.186601638793945 
vn -0.6740621328353882 -0.5158394575119019 0.528724730014801 
vn -0.7810637950897217 -0.6159813404083252 0.10250037163496017 
vn -0.1497841626405716 -0.695000946521759 0.7032341957092285 
vn -0.16164332628250122 -0.9795421361923218 0.11986933648586273 
vn 0.0018840922275558114 -0.7016767859458923 0.7124928832054138 
vn 0.003773920238018036 -0.9922492504119873 0.1242060661315918 
vn -0.003773920238018036 -0.9922492504119873 0.1242060661315918 
vn 3.097898456858039e-13 -0.999997615814209 -0.002184694167226553 
vn 0.20988060534000397 -0.9777246117591858 -0.002184694167226553 
vn 0.20988060534000397 -0.9777246117591858 -0.002184694167226553 
vn 0.8672792315483093 -0.49781718850135803 0.002184694167226553 
vn 0.8672792315483093 -0.49781718850135803 0.002184694167226553 
vn -0.7871816158294678 -0.6167173981666565 -0.002184694167226553 
vn -0.16537824273109436 -0.986227810382843 -0.002184694167226553 
vn 3.097898456858039e-13 -0.999997615814209 0.002184694167226553 
vn 3.097898456858039e-13 -0.999997615814209 -0.002184694167226553 
vn 0.20988060534000397 -0.9777246117591858 -0.002184694167226553 
vn 0.8672792315483093 -0.49781718850135803 -0.002184694167226553 
vn -0.7871816158294678 -0.6167173981666565 -0.002184694167226553 
vn -0.16537824273109436 -0.986227810382843 -0.002184694167226553 
vn 3.097898456858039e-13 -0.999997615814209 0.002184694167226553 
vn 3.097898456858039e-13 -0.999997615814209 0.002184694167226553 
vn 3.097898456858039e-13 -0.999997615814209 -0.002184694167226553 
vn 0.20988060534000397 -0.9777246117591858 0.002184694167226553 
vn 0.20988060534000397 -0.9777246117591858 -0.002184694167226553 
vn 0.8672792315483093 -0.49781718850135803 -0.002184694167226553 
vn 0.8672792315483093 -0.49781718850135803 0.002184694167226553 
vn -0.7871816158294678 -0.6167173981666565 0.002184694167226553 
vn -0.16537824273109436 -0.986227810382843 0.002184694167226553 
vn 3.097898456858039e-13 -0.999997615814209 0.002184694167226553 
vn -0.7871816158294678 -0.6167173981666565 -0.002184694167226553 
vn -0.16537824273109436 -0.986227810382843 -0.002184694167226553 
vn 3.097898456858039e-13 -0.999997615814209 -0.002184694167226553 
vn 3.097898456858039e-13 -0.999997615814209 0.002184694167226553 
vn 0.20988060534000397 -0.9777246117591858 -0.002184694167226553 
vn 0.8594018220901489 -0.5041691064834595 -0.08510008454322815 
vn -0.7871816158294678 -0.6167173981666565 -0.002184694167226553 
vn -0.16537824273109436 -0.986227810382843 0.002184694167226553 
vn 3.097898456858039e-13 -0.999997615814209 -0.002184694167226553 
vn 3.097898456858039e-13 -0.999997615814209 -0.002184694167226553 
vn 0.20048712193965912 -0.97286057472229 -0.11553031951189041 
vn 0.7881584167480469 -0.441227525472641 -0.42909738421440125 
vn -0.7871816158294678 -0.6167173981666565 0.002184694167226553 
vn -0.16537824273109436 -0.986227810382843 -0.002184694167226553 
vn 3.097898456858039e-13 -0.999997615814209 0.002184694167226553 
vn -0.003773920238018036 -0.9922492504119873 -0.1242060661315918 
vn 0.18672531843185425 -0.7017326951026917 -0.6875353455543518 
vn 0.8627734184265137 -0.08295969665050507 -0.4987381398677826 
vn -0.7810637950897217 -0.6159813404083252 -0.10250037163496017 
vn -0.15967139601707458 -0.9803865551948547 -0.11553031951189041 
vn 0.003773920238018036 -0.9922492504119873 -0.1242060661315918 
vn 0.003776367986574769 -0.7140141725540161 -0.7001210451126099 
vn 0.20420870184898376 -0.12226039916276932 -0.9712626934051514 
vn 0.8732156157493591 0 -0.48733407258987427 
vn -0.6777383685112 -0.5259943604469299 -0.5138099193572998 
vn -0.15564464032649994 -0.7061911821365356 -0.6907016038894653 
vn -0.003776367986574769 -0.7140141725540161 -0.7001210451126099 
vn 0.001890473417006433 -0.12635940313339233 -0.9919826984405518 
vn 0.2124682515859604 0 -0.9771679639816284 
vn 0.8732156157493591 0 -0.48733407258987427 
vn -0.7844035625457764 -0.1054920181632042 -0.6112139225006104 
vn -0.16226094961166382 -0.12351176142692566 -0.9789873361587524 
vn 0.001890473417006433 -0.12635940313339233 -0.9919826984405518 
vn 2.0682311115474694e-13 4.2775797696334704e-26 -1 
vn 0.2124682515859604 0 -0.9771679639816284 
vn 0.8732156157493591 0 -0.48733407258987427 
vn -0.7941284775733948 -1.6424412014898887e-13 -0.607749879360199 
vn -0.1695406585931778 -0.0037781267892569304 -0.9855159521102905 
vn -2.0682311115474694e-13 0 -1 
vn 2.0682311115474694e-13 4.2775797696334704e-26 -1 
vn 0.2124682515859604 0 -0.9771679639816284 
vn 0.8732156157493591 0 -0.48733407258987427 
vn -0.7941284775733948 -1.6424412014898887e-13 -0.607749879360199 
vn -0.1695406585931778 -0.0037781267892569304 -0.9855159521102905 
vn -2.0682311115474694e-13 0 -1 
vn 2.0682311115474694e-13 4.2775797696334704e-26 -1 
vn 2.0682311115474694e-13 4.2775797696334704e-26 -1 
vn 0.2124682515859604 0 -0.9771679639816284 
vn 0.2124682515859604 0 -0.9771679639816284 
vn 0.8732156157493591 0 -0.48733407258987427 
vn 0.8732156157493591 0 -0.48733407258987427 
vn -0.7941284775733948 -1.6424412014898887e-13 -0.607749879360199 
vn -0.1695406585931778 -0.0037781267892569304 -0.9855159521102905 
vn -2.0682311115474694e-13 0 -1 
vn -0.7941284775733948 -1.6424412014898887e-13 -0.607749879360199 
vn -0.1695406585931778 -0.0037781267892569304 -0.9855159521102905 
vn -2.0682311115474694e-13 0 -1 
vn 2.0682311115474694e-13 4.2775797696334704e-26 -1 
vn 0.2124682515859604 0 -0.9771679639816284 
vn 0.8627734184265137 0.08295969665050507 -0.4987381398677826 
vn -0.7941284775733948 -1.6424412014898887e-13 -0.607749879360199 
vn -0.1695406585931778 0.0037781267892569304 -0.9855159521102905 
vn -2.0682311115474694e-13 0 -1 
vn 2.0682311115474694e-13 4.2775797696334704e-26 -1 
vn 0.20420870184898376 0.12226039916276932 -0.9712626934051514 
vn 0.7829150557518005 0.45419642329216003 -0.42514660954475403 
vn -0.7941284775733948 -1.6424412014898887e-13 -0.607749879360199 
vn -0.1695406585931778 0.0037781267892569304 -0.9855159521102905 
vn -2.0682311115474694e-13 0 -1 
vn -1.3487558881981453e-14 0.13070669770240784 -0.991421103477478 
vn 0.18310806155204773 0.7149810194969177 -0.67473965883255 
vn 0.8519706130027771 0.5173259973526001 -0.08074574917554855 
vn -0.7844035625457764 0.1054920181632042 -0.6112139225006104 
vn -0.16226094961166382 0.12351176142692566 -0.9789873361587524 
vn -1.3487558881981453e-14 0.13070669770240784 -0.991421103477478 
vn -0.0037799933925271034 0.7291382551193237 -0.6843559741973877 
vn 0.19318631291389465 0.9748415350914001 -0.1111890971660614 
vn 0.8596616387367249 0.5108591318130493 0.002184694167226553 
vn -0.6710121035575867 0.5416731834411621 -0.5062933564186096 
vn -0.15197324752807617 0.7192197442054749 -0.677958071231842 
vn 0.0037799933925271034 0.7291382551193237 -0.6843559741973877 
vn -0.0018866714090108871 0.9933021664619446 -0.11553031951189041 
vn 0.20249100029468536 0.9792816638946533 -0.002184694167226553 
vn 0.8596616387367249 0.5108591318130493 -0.002184694167226553 
vn -0.7671776413917542 0.6338804960250854 -0.0981530249118805 
vn -0.1522183120250702 0.9815713763237 -0.11553031951189041 
vn -0.0018866714090108871 0.9933021664619446 -0.11553031951189041 
vn -1.0341130485562108e-13 0.999997615814209 0.002184694167226553 
vn 0.20249100029468536 0.9792816638946533 0.002184694167226553 
vn 0.8596616387367249 0.5108591318130493 0.002184694167226553 
vn -0.7730085849761963 0.6343917846679688 0.002184694167226553 
vn -0.15792569518089294 0.9874485731124878 0.002184694167226553 
vn -1.0341130485562108e-13 0.999997615814209 0.002184694167226553 
vn -1.0341130485562108e-13 0.999997615814209 -0.002184694167226553 
vn 0.20249100029468536 0.9792816638946533 -0.002184694167226553 
vn 0.8596616387367249 0.5108591318130493 -0.002184694167226553 
vn -0.7730085849761963 0.6343917846679688 -0.002184694167226553 
vn -0.15792569518089294 0.9874485731124878 0.002184694167226553 
vn -1.0341130485562108e-13 0.999997615814209 0.002184694167226553 
vn -1.0341130485562108e-13 0.999997615814209 -0.002184694167226553 
vn -1.0341130485562108e-13 0.999997615814209 0.002184694167226553 
vn 0.20249100029468536 0.9792816638946533 0.002184694167226553 
vn 0.20249100029468536 0.9792816638946533 0.002184694167226553 
vn 0.8596616387367249 0.5108591318130493 0.002184694167226553 
vn 0.8596616387367249 0.5108591318130493 0.002184694167226553 
vn -0.7730085849761963 0.6343917846679688 -0.002184694167226553 
vn -0.15792569518089294 0.9874485731124878 -0.002184694167226553 
vn -1.0341130485562108e-13 0.999997615814209 -0.002184694167226553 
vn -0.7730085849761963 0.6343917846679688 0.002184694167226553 
vn -0.15792569518089294 0.9874485731124878 -0.002184694167226553 
vn -1.0341130485562108e-13 0.999997615814209 0.002184694167226553 
vn -1.0341130485562108e-13 0.999997615814209 0.002184694167226553 
vn 0.20249100029468536 0.9792816638946533 0.002184694167226553 
vn 0.1930900365114212 0.9743556976318359 0.11553031951189041 
vn 0.8516609072685242 0.5171379446983337 0.08510008454322815 
vn 0.1809515804052353 0.7032436728477478 0.6875353455543518 
vn 0.7744598388671875 0.4536726772785187 0.4409002661705017 
vn 0.8561366200447083 0.08289998769760132 0.5100564956665039 
vn 0.8516609072685242 0.5171379446983337 0.08510008454322815 
vn 0.9945457577705383 0.07543228566646576 0.07203252613544464 
vn 0.8596616387367249 0.5108591318130493 0.002184694167226553 
vn 0.9971474409103394 0.07544711232185364 0.002184694167226553 
vn 0.9971474409103394 0.07544711232185364 0.002184694167226553 
vn 0.999997615814209 0 -0.002184694167226553 
vn 0.999997615814209 0 0.002184694167226553 
vn 0.999997615814209 0 0.002184694167226553 
vn 0.999997615814209 0 -0.002184694167226553 
vn 0.999997615814209 0 -0.002184694167226553 
vn 0.999997615814209 0 -0.002184694167226553 
vn 0.999997615814209 0 -0.002184694167226553 
vn 0.999997615814209 0 -0.002184694167226553 
vn 0.999997615814209 0 0.002184694167226553 
vn 0.999997615814209 0 -0.002184694167226553 
vn 0.999997615814209 0 0.002184694167226553 
vn 0.9974023103713989 0 -0.07203252613544464 
vn 0.9976887702941895 -0.06791467219591141 -0.002184694167226553 
vn 0.9953927993774414 -0.06792216002941132 -0.06767380982637405 
vn 0.8672792315483093 -0.49781718850135803 0.002184694167226553 
vn 0.8594018220901489 -0.5041691064834595 -0.08510008454322815 
vn -0.7730085849761963 0.6343917846679688 0.002184694167226553 
vn -0.15792569518089294 0.9874485731124878 -0.002184694167226553 
vn -1.0341130485562108e-13 0.999997615814209 -0.002184694167226553 
vn -1.0341130485562108e-13 0.999997615814209 -0.002184694167226553 
vn 0.003775948192924261 0.992782473564148 0.11986933648586273 
vn -0.0018850171472877264 0.7140216827392578 0.7001210451126099 
vn 0.19490332901477814 0.12119867652654648 0.9733054637908936 
vn 0.8645652532577515 0 0.5025205612182617 
vn 0.9974023103713989 0 0.07203252613544464 
vn 0.999997615814209 0 -0.002184694167226553 
vn 0.999997615814209 0 -0.002184694167226553 
vn 0.999997615814209 0 0.002184694167226553 
vn 0.999997615814209 0 0.002184694167226553 
vn 0.999997615814209 0 -0.002184694167226553 
vn 0.999997615814209 0 -0.002184694167226553 
vn 0.9976887702941895 -0.06791467219591141 0.002184694167226553 
vn 0.8672792315483093 -0.49781718850135803 -0.002184694167226553 
vn 0.999997615814209 0 0.002184694167226553 
vn 0.999997615814209 0 -0.002184694167226553 
vn 0.9974023103713989 0 0.07203252613544464 
vn 0.8645652532577515 0 0.5025205612182617 
vn 0.20392099022865295 0 0.9789873361587524 
vn -0.0018551399698480964 0.1263599395751953 0.9919826984405518 
vn -0.0018551399698480964 0.1263599395751953 0.9919826984405518 
vn -0.0018850171472877264 0.7140216827392578 0.7001210451126099 
vn -0.15790870785713196 0.12215383350849152 0.97986900806427 
vn -0.1514545977115631 0.7071016430854797 0.6907016038894653 
vn -0.773524820804596 0.10532499849796295 0.6249527335166931 
vn -0.665686309337616 0.5339675545692444 0.5212872624397278 
vn -0.9903329610824585 0.09801355004310608 0.0981530249118805 
vn -0.7668396830558777 0.6336012482643127 0.10250037163496017 
vn -0.9951823353767395 0.0980169028043747 -0.002184694167226553 
vn -0.7730085849761963 0.6343917846679688 -0.002184694167226553 
vn -0.9951823353767395 0.0980169028043747 0.002184694167226553 
vn -0.7730085849761963 0.6343917846679688 0.002184694167226553 
vn -0.9951823353767395 0.0980169028043747 0.002184694167226553 
vn -0.7730085849761963 0.6343917846679688 0.002184694167226553 
vn -0.9951823353767395 0.0980169028043747 -0.002184694167226553 
vn -0.7730085849761963 0.6343917846679688 -0.002184694167226553 
vn -0.7730085849761963 0.6343917846679688 -0.002184694167226553 
vn -0.999997615814209 -2.0682260971124217e-13 0.002184694167226553 
vn -0.999997615814209 -2.0682260971124217e-13 0.002184694167226553 
vn -0.999997615814209 -2.0682260971124217e-13 0.002184694167226553 
vn -0.995171308517456 -2.0582442542861623e-13 0.0981530249118805 
vn -0.7806625962257385 -1.6145906226588957e-13 0.6249527335166931 
vn -0.16092059016227722 -0.0037454685661941767 0.986960232257843 
vn 0 0 1 
vn 0 0 1 
vn 0 0 1 
vn 0.20392099022865295 0 0.9789873361587524 
vn 0.20392099022865295 0 0.9789873361587524 
vn 0.8645652532577515 0 0.5025205612182617 
vn 0.8645652532577515 0 0.5025205612182617 
vn 0.9974023103713989 0 0.07203252613544464 
vn 0.9974023103713989 0 0.07203252613544464 
vn 0.999997615814209 0 -0.002184694167226553 
vn 0.999997615814209 0 -0.002184694167226553 
vn 0.999997615814209 0 0.002184694167226553 
vn 0.999997615814209 0 0.002184694167226553 
vn 0.999997615814209 0 -0.002184694167226553 
vn 0.9976887702941895 -0.06791467219591141 -0.002184694167226553 
vn 0.8672792315483093 -0.49781718850135803 -0.002184694167226553 
vn 0.0018840922275558114 -0.7016767859458923 0.7124928832054138 
vn 0.19877316057682037 -0.972687304019928 0.11986933648586273 
vn 0.1844995617866516 -0.6897756457328796 0.7001210451126099 
vn 0.8594018220901489 -0.5041691064834595 0.08510008454322815 
vn 0.7836729884147644 -0.43358248472213745 0.44481781125068665 
vn 0.8672792315483093 -0.49781718850135803 -0.002184694167226553 
vn 0.8596616387367249 0.5108591318130493 0.002184694167226553 
vn 0.9971474409103394 0.07544711232185364 0.002184694167226553 
vn 0.8596616387367249 0.5108591318130493 -0.002184694167226553 
vn 0.9971474409103394 0.07544711232185364 -0.002184694167226553 
vn 0.8596616387367249 0.5108591318130493 0.002184694167226553 
vn 0.9971474409103394 0.07544711232185364 -0.002184694167226553 
vn 0.8596616387367249 0.5108591318130493 -0.002184694167226553 
vn 0.9971474409103394 0.07544711232185364 -0.002184694167226553 
vn 0.8596616387367249 0.5108591318130493 0.002184694167226553 
vn 0.9948500990867615 0.07545536756515503 -0.06767380982637405 
vn 0.8519706130027771 0.5173259973526001 -0.08074574917554855 
vn 0.8627734184265137 0.08295969665050507 -0.4987381398677826 
vn 0.7829150557518005 0.45419642329216003 -0.42514660954475403 
vn 0.999997615814209 0 -0.002184694167226553 
vn 0.999997615814209 0 -0.002184694167226553 
vn 0.999997615814209 0 0.002184694167226553 
vn 0.9974023103713989 0 -0.07203252613544464 
vn 0.8732156157493591 0 -0.48733407258987427 
vn 0.999997615814209 0 0.002184694167226553 
vn 0.999997615814209 0 -0.002184694167226553 
vn 0.9974023103713989 0 -0.07203252613544464 
vn 0.8732156157493591 0 -0.48733407258987427 
vn 0.999997615814209 0 0.002184694167226553 
vn 0.9974023103713989 0 -0.07203252613544464 
vn 0.8732156157493591 0 -0.48733407258987427 
vn 0.8732156157493591 0 -0.48733407258987427 
vn 0.9974023103713989 0 -0.07203252613544464 
vn 0.8732156157493591 0 -0.48733407258987427 
vn 0.9974023103713989 0 -0.07203252613544464 
vn 0.8732156157493591 0 -0.48733407258987427 
vn 0.999997615814209 0 0.002184694167226553 
vn 3.097898456858039e-13 -0.999997615814209 0.002184694167226553 
vn 3.097898456858039e-13 -0.999997615814209 0.002184694167226553 
vn 3.097898456858039e-13 -0.999997615814209 0.002184694167226553 
vn 3.097898456858039e-13 -0.999997615814209 0.002184694167226553 
vn 3.097898456858039e-13 -0.999997615814209 0.002184694167226553 
vn 3.097898456858039e-13 -0.999997615814209 0.002184694167226553 
vn -1.0341130485562108e-13 0.999997615814209 0.002184694167226553 
vn -1.0341130485562108e-13 0.999997615814209 0.002184694167226553 
vn -1.0341130485562108e-13 0.999997615814209 0.002184694167226553 
vn -1.0341130485562108e-13 0.999997615814209 0.002184694167226553 
vn -1.0341130485562108e-13 0.999997615814209 0.002184694167226553 
vn -1.0341130485562108e-13 0.999997615814209 0.002184694167226553 
vn 0 0 1 
vn 0 0 1 
vn 0 0 1 
vn 0 0 1 
vn 0 0 1 
vn 0 0 1 
vn 2.0682311115474694e-13 4.2775797696334704e-26 -1 
vn 2.0682311115474694e-13 4.2775797696334704e-26 -1 
vn 2.0682311115474694e-13 4.2775797696334704e-26 -1 
vn -2.0682311115474694e-13 0 -1 
vn -2.0682311115474694e-13 0 -1 
vn -2.0682311115474694e-13 0 -1 
vn -0.999997615814209 -2.0682260971124217e-13 -0.002184694167226553 
vn -0.999997615814209 -2.0682260971124217e-13 0.002184694167226553 
vn -0.999997615814209 -2.0682260971124217e-13 -0.002184694167226553 
vn -0.999997615814209 -2.0682260971124217e-13 0.002184694167226553 
vn -0.999997615814209 -2.0682260971124217e-13 -0.002184694167226553 
vn -0.999997615814209 -2.0682260971124217e-13 0.002184694167226553 
vn -0.999997615814209 -2.0682260971124217e-13 0.002184694167226553 
vn -0.995171308517456 -2.0582442542861623e-13 0.0981530249118805 
vn -0.7806625962257385 -1.6145906226588957e-13 0.6249527335166931 
vn -0.16092059016227722 0.0037454685661941767 0.986960232257843 
vn 0 0 1 
vn 0 0 1 
vn 0 0 1 
vn 0.20392099022865295 0 0.9789873361587524 
vn 0.20392099022865295 0 0.9789873361587524 
vn 0.8645652532577515 0 0.5025205612182617 
vn 0.8645652532577515 0 0.5025205612182617 
vn 0.9974023103713989 0 0.07203252613544464 
vn 0.9974023103713989 0 0.07203252613544464 
vn 0.999997615814209 0 -0.002184694167226553 
vn 0.999997615814209 0 0.002184694167226553 
vn 0.999997615814209 0 0.002184694167226553 
vn 0.9976887702941895 -0.06791467219591141 -0.002184694167226553 
vn 0.9976887702941895 -0.06791467219591141 -0.002184694167226553 
vn 0.8672792315483093 -0.49781718850135803 -0.002184694167226553 
vn 0.8672792315483093 -0.49781718850135803 0.002184694167226553 
vn 0.999997615814209 0 -0.002184694167226553 
vn 0.999997615814209 0 0.002184694167226553 
vn 0.9976887702941895 -0.06791467219591141 0.002184694167226553 
vn 0.8672792315483093 -0.49781718850135803 0.002184694167226553 
vn -0.999997615814209 -2.0682260971124217e-13 0.002184694167226553 
vn -0.999997615814209 -2.0682260971124217e-13 0.002184694167226553 
vn -0.995171308517456 -2.0582442542861623e-13 0.0981530249118805 
vn -0.7806625962257385 -1.6145906226588957e-13 0.6249527335166931 
vn -0.16092059016227722 0.0037454685661941767 0.986960232257843 
vn 0 0 1 
vn -0.16092059016227722 0.0037454685661941767 0.986960232257843 
vn 0 0 1 
vn 0 0 1 
vn 0.20392099022865295 0 0.9789873361587524 
vn 0.8561366200447083 -0.08289998769760132 0.5100564956665039 
vn 0.9950882792472839 -0.0679013803601265 0.07203252613544464 
vn -0.16092059016227722 0.0037454685661941767 0.986960232257843 
vn 0 0 1 
vn 0 0 1 
vn 0.19876447319984436 -0.11475672572851181 0.9733054637908936 
vn 0.7836729884147644 -0.43358248472213745 0.44481781125068665 
vn 0.8594018220901489 -0.5041691064834595 0.08510008454322815 
vn -0.16092059016227722 0.0037454685661941767 0.986960232257843 
vn 0 0 1 
vn -0.0018610621336847544 -0.122023805975914 0.9925254583358765 
vn 0.1844995617866516 -0.6897756457328796 0.7001210451126099 
vn -0.1553669422864914 -0.11843107640743256 0.9807319641113281 
vn -0.0018610621336847544 -0.122023805975914 0.9925254583358765 
vn 0.0018840922275558114 -0.7016767859458923 0.7124928832054138 
vn -0.1497841626405716 -0.695000946521759 0.7032341957092285 
vn 0.0018840922275558114 -0.7016767859458923 0.7124928832054138 
vn -0.6740621328353882 -0.5158394575119019 0.528724730014801 
vn -0.773524820804596 -0.10532499849796295 0.6249527335166931 
vn -0.7810637950897217 -0.6159813404083252 0.10250037163496017 
vn -0.9903329610824585 -0.09801355004310608 0.0981530249118805 
vn -0.7871816158294678 -0.6167173981666565 -0.002184694167226553 
vn -0.9951823353767395 -0.0980169028043747 -0.002184694167226553 
vn -0.7871816158294678 -0.6167173981666565 -0.002184694167226553 
vn -0.9951823353767395 -0.0980169028043747 -0.002184694167226553 
vn -0.7871816158294678 -0.6167173981666565 0.002184694167226553 
vn -0.9951823353767395 -0.0980169028043747 0.002184694167226553 
vn -0.9951823353767395 -0.0980169028043747 -0.002184694167226553 
vn -0.999997615814209 -2.0682260971124217e-13 0.002184694167226553 
vn -0.999997615814209 -2.0682260971124217e-13 -0.002184694167226553 
vn -0.999997615814209 -2.0682260971124217e-13 -0.002184694167226553 
vn -0.999997615814209 -2.0682260971124217e-13 -0.002184694167226553 
vn -0.999997615814209 -2.0682260971124217e-13 0.002184694167226553 
vn -0.999997615814209 -2.0682260971124217e-13 -0.002184694167226553 
vn -0.999997615814209 -2.0682260971124217e-13 0.002184694167226553 
vn -0.995171308517456 -2.0582442542861623e-13 -0.0981530249118805 
vn -0.995171308517456 -2.0582442542861623e-13 -0.0981530249118805 
vn -0.7941284775733948 -1.6424412014898887e-13 -0.607749879360199 
vn -0.7941284775733948 -1.6424412014898887e-13 -0.607749879360199 
vn -0.7806625962257385 -1.6145906226588957e-13 0.6249527335166931 
vn -0.995171308517456 -2.0582442542861623e-13 0.0981530249118805 
vn -0.999997615814209 -2.0682260971124217e-13 0.002184694167226553 
vn -0.999997615814209 -2.0682260971124217e-13 0.002184694167226553 
vn -0.7806625962257385 -1.6145906226588957e-13 0.6249527335166931 
vn -0.995171308517456 -2.0582442542861623e-13 0.0981530249118805 
vn -0.999997615814209 -2.0682260971124217e-13 -0.002184694167226553 
vn -0.999997615814209 -2.0682260971124217e-13 0.002184694167226553 
vn -0.999997615814209 -2.0682260971124217e-13 0.002184694167226553 
vn -0.999997615814209 -2.0682260971124217e-13 0.002184694167226553 
vn -0.999997615814209 -2.0682260971124217e-13 -0.002184694167226553 
vn -0.7806625962257385 -1.6145906226588957e-13 0.6249527335166931 
vn -0.995171308517456 -2.0582442542861623e-13 0.0981530249118805 
vn -0.999997615814209 -2.0682260971124217e-13 0.002184694167226553 
vn -0.999997615814209 -2.0682260971124217e-13 0.002184694167226553 
vn -0.999997615814209 -2.0682260971124217e-13 0.002184694167226553 
vn -0.999997615814209 -2.0682260971124217e-13 -0.002184694167226553 
vn -0.995171308517456 -2.0582442542861623e-13 -0.0981530249118805 
vn -0.7941284775733948 -1.6424412014898887e-13 -0.607749879360199 
vn -0.999997615814209 -2.0682260971124217e-13 -0.002184694167226553 
vn -0.999997615814209 -2.0682260971124217e-13 -0.002184694167226553 
vn -0.995171308517456 -2.0582442542861623e-13 -0.0981530249118805 
vn -0.7941284775733948 -1.6424412014898887e-13 -0.607749879360199 
vn -0.995171308517456 -2.0582442542861623e-13 -0.0981530249118805 
vn -0.7941284775733948 -1.6424412014898887e-13 -0.607749879360199 
vn -0.995171308517456 -2.0582442542861623e-13 -0.0981530249118805 
vn -0.7941284775733948 -1.6424412014898887e-13 -0.607749879360199 
vn -0.9911259412765503 0.09418164938688278 -0.09380380809307098 
vn -0.7844035625457764 0.1054920181632042 -0.6112139225006104 
vn -0.7671776413917542 0.6338804960250854 -0.0981530249118805 
vn -0.6710121035575867 0.5416731834411621 -0.5062933564186096 
vn -0.7730085849761963 0.6343917846679688 0.002184694167226553 
vn -0.9951823353767395 0.0980169028043747 0.002184694167226553 
vn -0.9951823353767395 0.0980169028043747 0.002184694167226553 
vn -0.999997615814209 -2.0682260971124217e-13 0.002184694167226553 
vn -0.999997615814209 -2.0682260971124217e-13 0.002184694167226553 
vn -0.999997615814209 -2.0682260971124217e-13 0.002184694167226553 
vn -0.999997615814209 -2.0682260971124217e-13 -0.002184694167226553 
vn 0.7881584167480469 -0.441227525472641 -0.42909738421440125 
vn 0.8627734184265137 -0.08295969665050507 -0.4987381398677826 
vn -0.7730085849761963 0.6343917846679688 -0.002184694167226553 
vn -0.15792569518089294 0.9874485731124878 -0.002184694167226553 
vn -1.0341130485562108e-13 0.999997615814209 -0.002184694167226553 
vn -0.003775948192924261 0.992782473564148 0.11986933648586273 
vn -0.7668396830558777 0.6336012482643127 0.10250037163496017 
vn -0.1522183120250702 0.9815713763237 0.11553031951189041 
vn -0.7844035625457764 -0.1054920181632042 -0.6112139225006104 
vn -0.9911259412765503 -0.09418164938688278 -0.09380380809307098 
vn -0.9951823353767395 -0.0980169028043747 -0.002184694167226553 
vn -0.9951823353767395 -0.0980169028043747 0.002184694167226553 
vn -0.6777383685112 -0.5259943604469299 -0.5138099193572998 
vn -0.7810637950897217 -0.6159813404083252 -0.10250037163496017 
vn -0.7871816158294678 -0.6167173981666565 0.002184694167226553 
vn -0.7871816158294678 -0.6167173981666565 -0.002184694167226553 
vn -0.7871816158294678 -0.6167173981666565 -0.002184694167226553 
s on 
f 1//1 2//2 3//3 
f 2//2 4//4 3//3 
f 3//3 4//4 5//5 
f 4//4 6//6 5//5 
f 5//5 6//6 7//7 
f 6//6 8//8 7//7 
f 7//7 8//8 9//9 
f 8//8 10//10 9//9 
f 9//9 10//10 11//11 
f 10//10 12//12 11//11 
f 11//11 12//12 12//12 
f 12//12 2//2 12//12 
f 12//12 2//2 2//2 
f 2//2 13//13 2//2 
f 2//2 13//13 4//4 
f 13//13 14//14 4//4 
f 4//4 14//14 6//6 
f 14//14 15//15 6//6 
f 6//6 15//15 8//8 
f 15//15 16//16 8//8 
f 8//8 16//16 10//10 
f 16//16 17//17 10//10 
f 10//10 17//17 12//12 
f 17//17 18//18 12//12 
f 12//12 18//18 18//18 
f 18//18 13//13 18//18 
f 18//18 13//13 13//13 
f 13//13 19//19 13//13 
f 13//13 19//19 14//14 
f 19//19 20//20 14//14 
f 14//14 20//20 15//15 
f 20//20 21//21 15//15 
f 15//15 21//21 16//16 
f 21//21 22//22 16//16 
f 16//16 22//22 17//17 
f 22//22 23//23 17//17 
f 17//17 23//23 24//24 
f 23//23 25//25 24//24 
f 24//24 25//25 26//26 
f 25//25 27//27 26//26 
f 26//26 27//27 27//27 
f 27//27 19//19 27//27 
f 27//27 19//19 19//19 
f 19//19 28//28 19//19 
f 19//19 28//28 20//20 
f 28//28 29//29 20//20 
f 20//20 29//29 21//21 
f 29//29 30//30 21//21 
f 21//21 30//30 22//22 
f 30//30 23//23 22//22 
f 22//22 23//23 23//23 
f 23//23 28//28 23//23 
f 23//23 28//28 28//28 
f 28//28 31//31 28//28 
f 28//28 31//31 29//29 
f 31//31 32//32 29//29 
f 29//29 32//32 30//30 
f 32//32 33//33 30//30 
f 30//30 33//33 23//23 
f 33//33 34//34 23//23 
f 23//23 34//34 25//25 
f 34//34 35//35 25//25 
f 25//25 35//35 27//27 
f 35//35 36//36 27//27 
f 27//27 36//36 36//36 
f 36//36 31//31 36//36 
f 36//36 31//31 31//31 
f 31//31 37//37 31//31 
f 31//31 37//37 32//32 
f 37//37 38//38 32//32 
f 32//32 38//38 33//33 
f 38//38 39//39 33//33 
f 33//33 39//39 34//34 
f 39//39 40//40 34//34 
f 34//34 40//40 35//35 
f 40//40 41//41 35//35 
f 35//35 41//41 36//36 
f 41//41 42//42 36//36 
f 36//36 42//42 42//42 
f 42//42 37//37 42//42 
f 42//42 37//37 37//37 
f 37//37 43//43 37//37 
f 37//37 43//43 38//38 
f 43//43 44//44 38//38 
f 38//38 44//44 39//39 
f 44//44 45//45 39//39 
f 39//39 45//45 40//40 
f 45//45 46//46 40//40 
f 40//40 46//46 41//41 
f 46//46 47//47 41//41 
f 41//41 47//47 42//42 
f 47//47 48//48 42//42 
f 42//42 48//48 48//48 
f 48//48 43//43 48//48 
f 48//48 43//43 43//43 
f 43//43 49//49 43//43 
f 43//43 49//49 44//44 
f 49//49 50//50 44//44 
f 44//44 50//50 45//45 
f 50//50 51//51 45//45 
f 45//45 51//51 46//46 
f 51//51 52//52 46//46 
f 46//46 52//52 47//47 
f 52//52 53//53 47//47 
f 47//47 53//53 48//48 
f 53//53 54//54 48//48 
f 48//48 54//54 54//54 
f 54//54 49//49 54//54 
f 54//54 49//49 49//49 
f 49//49 55//55 49//49 
f 49//49 55//55 50//50 
f 55//55 56//56 50//50 
f 50//50 56//56 51//51 
f 56//56 57//57 51//51 
f 51//51 57//57 52//52 
f 57//57 58//58 52//52 
f 52//52 58//58 53//53 
f 58//58 59//59 53//53 
f 53//53 59//59 54//54 
f 59//59 60//60 54//54 
f 54//54 60//60 60//60 
f 60//60 55//55 60//60 
f 60//60 55//55 55//55 
f 55//55 61//61 55//55 
f 55//55 61//61 56//56 
f 61//61 62//62 56//56 
f 56//56 62//62 57//57 
f 62//62 63//63 57//57 
f 57//57 63//63 58//58 
f 63//63 64//64 58//58 
f 58//58 64//64 59//59 
f 64//64 65//65 59//59 
f 59//59 65//65 60//60 
f 65//65 66//66 60//60 
f 60//60 66//66 66//66 
f 66//66 61//61 66//66 
f 66//66 61//61 61//61 
f 61//61 67//67 61//61 
f 61//61 67//67 62//62 
f 67//67 68//68 62//62 
f 62//62 68//68 63//63 
f 68//68 69//69 63//63 
f 63//63 69//69 64//64 
f 69//69 70//70 64//64 
f 64//64 70//70 65//65 
f 70//70 71//71 65//65 
f 65//65 71//71 66//66 
f 71//71 72//72 66//66 
f 66//66 72//72 72//72 
f 72//72 67//67 72//72 
f 72//72 67//67 67//67 
f 67//67 73//73 67//67 
f 67//67 73//73 68//68 
f 73//73 74//74 68//68 
f 68//68 74//74 69//69 
f 74//74 75//75 69//69 
f 69//69 75//75 70//70 
f 75//75 76//76 70//70 
f 70//70 76//76 71//71 
f 76//76 77//77 71//71 
f 71//71 77//77 78//78 
f 77//77 79//79 78//78 
f 78//78 79//79 80//80 
f 79//79 81//81 80//80 
f 80//80 81//81 81//81 
f 81//81 73//73 81//81 
f 81//81 73//73 73//73 
f 73//73 82//82 73//73 
f 73//73 82//82 74//74 
f 82//82 83//83 74//74 
f 74//74 83//83 75//75 
f 83//83 84//84 75//75 
f 75//75 84//84 76//76 
f 84//84 77//77 76//76 
f 76//76 77//77 77//77 
f 77//77 82//82 77//77 
f 77//77 82//82 82//82 
f 82//82 85//85 82//82 
f 82//82 85//85 83//83 
f 85//85 86//86 83//83 
f 83//83 86//86 84//84 
f 86//86 87//87 84//84 
f 84//84 87//87 77//77 
f 87//87 88//88 77//77 
f 77//77 88//88 79//79 
f 88//88 89//89 79//79 
f 79//79 89//89 81//81 
f 89//89 90//90 81//81 
f 81//81 90//90 90//90 
f 90//90 85//85 90//90 
f 90//90 85//85 85//85 
f 85//85 91//91 85//85 
f 85//85 91//91 86//86 
f 91//91 92//92 86//86 
f 86//86 92//92 87//87 
f 92//92 93//93 87//87 
f 87//87 93//93 88//88 
f 93//93 94//94 88//88 
f 88//88 94//94 89//89 
f 94//94 95//95 89//89 
f 89//89 95//95 90//90 
f 95//95 96//96 90//90 
f 90//90 96//96 96//96 
f 96//96 91//91 96//96 
f 96//96 91//91 91//91 
f 91//91 97//97 91//91 
f 91//91 97//97 92//92 
f 97//97 98//98 92//92 
f 92//92 98//98 93//93 
f 98//98 99//99 93//93 
f 93//93 99//99 94//94 
f 99//99 100//100 94//94 
f 94//94 100//100 95//95 
f 100//100 101//101 95//95 
f 95//95 101//101 96//96 
f 101//101 102//102 96//96 
f 96//96 102//102 102//102 
f 102//102 97//97 102//102 
f 102//102 97//97 97//97 
f 97//97 103//103 97//97 
f 97//97 103//103 98//98 
f 103//103 104//104 98//98 
f 98//98 104//104 99//99 
f 104//104 105//105 99//99 
f 99//99 105//105 100//100 
f 105//105 106//106 100//100 
f 100//100 106//106 101//101 
f 106//106 107//107 101//101 
f 101//101 107//107 102//102 
f 107//107 108//108 102//102 
f 102//102 108//108 108//108 
f 108//108 103//103 108//108 
f 108//108 103//103 103//103 
f 103//103 109//109 103//103 
f 103//103 109//109 104//104 
f 109//109 110//110 104//104 
f 104//104 110//110 105//105 
f 110//110 111//111 105//105 
f 105//105 111//111 106//106 
f 111//111 112//112 106//106 
f 106//106 112//112 107//107 
f 112//112 113//113 107//107 
f 107//107 113//113 108//108 
f 113//113 114//114 108//108 
f 108//108 114//114 114//114 
f 114//114 109//109 114//114 
f 114//114 109//109 109//109 
f 109//109 115//115 109//109 
f 109//109 115//115 110//110 
f 115//115 116//116 110//110 
f 110//110 116//116 111//111 
f 116//116 117//117 111//111 
f 111//111 117//117 112//112 
f 117//117 118//118 112//112 
f 112//112 118//118 113//113 
f 118//118 119//119 113//113 
f 113//113 119//119 114//114 
f 119//119 120//120 114//114 
f 114//114 120//120 120//120 
f 120//120 115//115 120//120 
f 120//120 115//115 115//115 
f 115//115 121//121 115//115 
f 115//115 121//121 116//116 
f 121//121 122//122 116//116 
f 116//116 122//122 117//117 
f 122//122 123//123 117//117 
f 117//117 123//123 118//118 
f 123//123 124//124 118//118 
f 118//118 124//124 119//119 
f 124//124 125//125 119//119 
f 119//119 125//125 120//120 
f 125//125 126//126 120//120 
f 120//120 126//126 126//126 
f 126//126 121//121 126//126 
f 126//126 121//121 121//121 
f 121//121 127//127 121//121 
f 121//121 127//127 122//122 
f 127//127 128//128 122//122 
f 122//122 128//128 123//123 
f 128//128 129//129 123//123 
f 123//123 129//129 124//124 
f 129//129 130//130 124//124 
f 124//124 130//130 125//125 
f 130//130 131//131 125//125 
f 125//125 131//131 132//132 
f 131//131 133//133 132//132 
f 132//132 133//133 134//134 
f 133//133 135//135 134//134 
f 134//134 135//135 135//135 
f 135//135 127//127 135//135 
f 135//135 127//127 127//127 
f 127//127 136//136 127//127 
f 127//127 136//136 128//128 
f 136//136 137//137 128//128 
f 128//128 137//137 129//129 
f 137//137 138//138 129//129 
f 129//129 138//138 130//130 
f 138//138 131//131 130//130 
f 130//130 131//131 131//131 
f 131//131 136//136 131//131 
f 131//131 136//136 136//136 
f 136//136 139//139 136//136 
f 136//136 139//139 137//137 
f 139//139 140//140 137//137 
f 137//137 140//140 138//138 
f 140//140 141//141 138//138 
f 138//138 141//141 131//131 
f 141//141 142//142 131//131 
f 131//131 142//142 133//133 
f 142//142 143//143 133//133 
f 133//133 143//143 135//135 
f 143//143 144//144 135//135 
f 135//135 144//144 145//145 
f 144//144 146//146 145//145 
f 145//145 146//146 147//147 
f 146//146 148//148 147//147 
f 147//147 148//148 149//149 
f 148//148 150//150 149//149 
f 149//149 150//150 151//151 
f 150//150 152//152 151//151 
f 151//151 152//152 153//153 
f 152//152 154//154 153//153 
f 153//153 154//154 155//155 
f 154//154 156//156 155//155 
f 155//155 156//156 157//157 
f 156//156 158//158 157//157 
f 157//157 158//158 159//159 
f 158//158 160//160 159//159 
f 159//159 160//160 161//161 
f 160//160 162//162 161//161 
f 161//161 162//162 163//163 
f 162//162 164//164 163//163 
f 163//163 164//164 165//165 
f 164//164 166//166 165//165 
f 165//165 166//166 167//167 
f 166//166 168//168 167//167 
f 167//167 168//168 169//169 
f 168//168 169//169 169//169 
f 169//169 169//169 139//139 
f 169//169 139//139 139//139 
f 139//139 139//139 139//139 
f 139//139 170//170 139//139 
f 139//139 170//170 140//140 
f 170//170 171//171 140//140 
f 140//140 171//171 141//141 
f 171//171 172//172 141//141 
f 141//141 172//172 142//142 
f 172//172 173//173 142//142 
f 142//142 173//173 143//143 
f 173//173 174//174 143//143 
f 143//143 174//174 144//144 
f 174//174 175//175 144//144 
f 144//144 175//175 146//146 
f 175//175 176//176 146//146 
f 146//146 176//176 148//148 
f 176//176 177//177 148//148 
f 148//148 177//177 150//150 
f 177//177 178//178 150//150 
f 150//150 178//178 152//152 
f 178//178 179//179 152//152 
f 152//152 179//179 154//154 
f 179//179 180//180 154//154 
f 154//154 180//180 156//156 
f 180//180 181//181 156//156 
f 156//156 181//181 158//158 
f 181//181 182//182 158//158 
f 158//158 182//182 160//160 
f 182//182 183//183 160//160 
f 160//160 183//183 162//162 
f 183//183 184//184 162//162 
f 162//162 184//184 164//164 
f 184//184 185//185 164//164 
f 164//164 185//185 166//166 
f 185//185 186//186 166//166 
f 166//166 186//186 168//168 
f 186//186 168//168 168//168 
f 168//168 168//168 182//182 
f 168//168 182//182 182//182 
f 182//182 182//182 182//182 
f 182//182 181//181 182//182 
f 182//182 181//181 187//187 
f 181//181 180//180 187//187 
f 187//187 180//180 188//188 
f 180//180 179//179 188//188 
f 188//188 179//179 189//189 
f 179//179 178//178 189//189 
f 189//189 178//178 190//190 
f 178//178 177//177 190//190 
f 190//190 177//177 191//191 
f 177//177 176//176 191//191 
f 191//191 176//176 192//192 
f 176//176 175//175 192//192 
f 192//192 175//175 193//193 
f 175//175 194//194 193//193 
f 193//193 194//194 195//195 
f 194//194 196//196 195//195 
f 195//195 196//196 197//197 
f 196//196 198//198 197//197 
f 197//197 198//198 199//199 
f 198//198 200//200 199//199 
f 199//199 200//200 201//201 
f 200//200 202//202 201//201 
f 201//201 202//202 203//203 
f 202//202 204//204 203//203 
f 203//203 204//204 205//205 
f 204//204 206//206 205//205 
f 205//205 206//206 207//207 
f 206//206 208//208 207//207 
f 207//207 208//208 209//209 
f 208//208 209//209 209//209 
f 209//209 209//209 205//205 
f 209//209 205//205 205//205 
f 205//205 205//205 205//205 
f 205//205 210//210 205//205 
f 205//205 210//210 203//203 
f 210//210 211//211 203//203 
f 203//203 211//211 201//201 
f 211//211 212//212 201//201 
f 201//201 212//212 199//199 
f 212//212 213//213 199//199 
f 199//199 213//213 197//197 
f 213//213 214//214 197//197 
f 197//197 214//214 195//195 
f 214//214 215//215 195//195 
f 195//195 215//215 193//193 
f 215//215 216//216 193//193 
f 193//193 216//216 217//217 
f 216//216 218//218 217//217 
f 217//217 218//218 219//219 
f 218//218 220//220 219//219 
f 219//219 220//220 221//221 
f 220//220 222//222 221//221 
f 221//221 222//222 223//223 
f 222//222 224//224 223//223 
f 223//223 224//224 225//225 
f 224//224 226//226 225//225 
f 225//225 226//226 187//187 
f 226//226 227//227 187//187 
f 187//187 227//227 182//182 
f 227//227 228//228 182//182 
f 182//182 228//228 183//183 
f 228//228 229//229 183//183 
f 183//183 229//229 184//184 
f 229//229 230//230 184//184 
f 184//184 230//230 185//185 
f 230//230 231//231 185//185 
f 185//185 231//231 186//186 
f 231//231 186//186 186//186 
f 186//186 186//186 225//225 
f 186//186 225//225 225//225 
f 225//225 225//225 225//225 
f 225//225 188//188 225//225 
f 225//225 188//188 223//223 
f 188//188 189//189 223//223 
f 223//223 189//189 221//221 
f 189//189 190//190 221//221 
f 221//221 190//190 219//219 
f 190//190 191//191 219//219 
f 219//219 191//191 217//217 
f 191//191 192//192 217//217 
f 217//217 192//192 193//193 
f 192//192 193//193 193//193 
f 193//193 193//193 5//5 
f 193//193 5//5 5//5 
f 5//5 5//5 5//5 
f 5//5 7//7 5//5 
f 5//5 7//7 232//232 
f 7//7 233//233 232//232 
f 232//232 233//233 234//234 
f 233//233 235//235 234//234 
f 234//234 235//235 236//236 
f 235//235 236//236 236//236 
f 236//236 236//236 235//235 
f 236//236 235//235 235//235 
f 235//235 235//235 235//235 
f 235//235 233//233 235//235 
f 235//235 233//233 237//237 
f 233//233 9//9 237//237 
f 237//237 9//9 11//11 
f 9//9 11//11 11//11 
f 11//11 11//11 151//151 
f 11//11 151//151 151//151 
f 151//151 151//151 151//151 
f 151//151 153//153 151//151 
f 151//151 153//153 238//238 
f 153//153 239//239 238//238 
f 238//238 239//239 240//240 
f 239//239 241//241 240//240 
f 240//240 241//241 242//242 
f 241//241 243//243 242//242 
f 242//242 243//243 244//244 
f 243//243 245//245 244//244 
f 244//244 245//245 246//246 
f 245//245 247//247 246//246 
f 246//246 247//247 248//248 
f 247//247 249//249 248//248 
f 248//248 249//249 250//250 
f 249//249 250//250 250//250 
f 250//250 250//250 153//153 
f 250//250 153//153 153//153 
f 153//153 153//153 153//153 
f 153//153 155//155 153//153 
f 153//153 155//155 239//239 
f 155//155 251//251 239//239 
f 239//239 251//251 241//241 
f 251//251 252//252 241//241 
f 241//241 252//252 243//243 
f 252//252 253//253 243//243 
f 243//243 253//253 245//245 
f 253//253 254//254 245//245 
f 245//245 254//254 247//247 
f 254//254 255//255 247//247 
f 247//247 255//255 249//249 
f 255//255 249//249 249//249 
f 249//249 249//249 155//155 
f 249//249 155//155 155//155 
f 155//155 155//155 155//155 
f 155//155 157//157 155//155 
f 155//155 157//157 251//251 
f 157//157 256//256 251//251 
f 251//251 256//256 252//252 
f 256//256 257//257 252//252 
f 252//252 257//257 253//253 
f 257//257 258//258 253//253 
f 253//253 258//258 254//254 
f 258//258 259//259 254//254 
f 254//254 259//259 255//255 
f 259//259 255//255 255//255 
f 255//255 255//255 157//157 
f 255//255 157//157 157//157 
f 157//157 157//157 157//157 
f 157//157 159//159 157//157 
f 157//157 159//159 256//256 
f 159//159 260//260 256//256 
f 256//256 260//260 257//257 
f 260//260 261//261 257//257 
f 257//257 261//261 258//258 
f 261//261 262//262 258//258 
f 258//258 262//262 259//259 
f 262//262 259//259 259//259 
f 259//259 259//259 262//262 
f 259//259 262//262 262//262 
f 262//262 262//262 262//262 
f 262//262 261//261 262//262 
f 262//262 261//261 263//263 
f 261//261 264//264 263//263 
f 263//263 264//264 265//265 
f 264//264 266//266 265//265 
f 265//265 266//266 267//267 
f 266//266 165//165 267//267 
f 267//267 165//165 167//167 
f 165//165 167//167 167//167 
f 167//167 167//167 165//165 
f 167//167 165//165 165//165 
f 165//165 165//165 165//165 
f 165//165 266//266 165//165 
f 165//165 266//266 163//163 
f 266//266 268//268 163//163 
f 163//163 268//268 161//161 
f 268//268 159//159 161//161 
f 161//161 159//159 159//159 
f 159//159 266//266 159//159 
f 159//159 266//266 266//266 
f 266//266 264//264 266//266 
f 266//266 264//264 268//268 
f 264//264 261//261 268//268 
f 268//268 261//261 260//260 
f 261//261 260//260 260//260 
f 260//260 260//260 17//17 
f 260//260 17//17 17//17 
f 17//17 17//17 17//17 
f 17//17 24//24 17//17 
f 17//17 24//24 18//18 
f 24//24 26//26 18//18 
f 18//18 26//26 26//26 
f 26//26 269//269 26//26 
f 26//26 269//269 269//269 
f 269//269 270//270 269//269 
f 269//269 270//270 271//271 
f 270//270 272//272 271//271 
f 271//271 272//272 272//272 
f 272//272 270//270 272//272 
f 272//272 270//270 270//270 
f 270//270 273//273 270//270 
f 270//270 273//273 272//272 
f 273//273 274//274 272//272 
f 272//272 274//274 274//274 
f 274//274 275//275 274//274 
f 274//274 275//275 275//275 
f 275//275 276//276 275//275 
f 275//275 276//276 277//277 
f 276//276 278//278 277//277 
f 277//277 278//278 278//278 
f 278//278 276//276 278//278 
f 278//278 276//276 276//276 
f 276//276 279//279 276//276 
f 276//276 279//279 278//278 
f 279//279 280//280 278//278 
f 278//278 280//280 280//280 
f 280//280 281//281 280//280 
f 280//280 281//281 281//281 
f 281//281 282//282 281//281 
f 281//281 282//282 283//283 
f 282//282 284//284 283//283 
f 283//283 284//284 284//284 
f 284//284 282//282 284//284 
f 284//284 282//282 282//282 
f 282//282 285//285 282//282 
f 282//282 285//285 284//284 
f 285//285 286//286 284//284 
f 284//284 286//286 286//286 
f 286//286 287//287 286//286 
f 286//286 287//287 287//287 
f 287//287 288//288 287//287 
f 287//287 288//288 289//289 
f 288//288 290//290 289//289 
f 289//289 290//290 290//290 
f 290//290 288//288 290//290 
f 290//290 288//288 288//288 
f 288//288 291//291 288//288 
f 288//288 291//291 290//290 
f 291//291 292//292 290//290 
f 290//290 292//292 292//292 
f 292//292 80//80 292//292 
f 292//292 80//80 80//80 
f 80//80 72//72 80//80 
f 80//80 72//72 78//78 
f 72//72 71//71 78//78 
f 78//78 71//71 71//71 
f 71//71 205//205 71//71 
f 71//71 205//205 205//205 
f 205//205 207//207 205//205 
f 205//205 207//207 210//210 
f 207//207 293//293 210//210 
f 210//210 293//293 294//294 
f 293//293 295//295 294//294 
f 294//294 295//295 296//296 
f 295//295 297//297 296//296 
f 296//296 297//297 297//297 
f 297//297 210//210 297//297 
f 297//297 210//210 210//210 
f 210//210 294//294 210//210 
f 210//210 294//294 211//211 
f 294//294 298//298 211//211 
f 211//211 298//298 212//212 
f 298//298 299//299 212//212 
f 212//212 299//299 213//213 
f 299//299 300//300 213//213 
f 213//213 300//300 214//214 
f 300//300 301//301 214//214 
f 214//214 301//301 215//215 
f 301//301 302//302 215//215 
f 215//215 302//302 216//216 
f 302//302 303//303 216//216 
f 216//216 303//303 218//218 
f 303//303 304//304 218//218 
f 218//218 304//304 220//220 
f 304//304 305//305 220//220 
f 220//220 305//305 306//306 
f 305//305 307//307 306//306 
f 306//306 307//307 308//308 
f 307//307 309//309 308//308 
f 308//308 309//309 310//310 
f 309//309 311//311 310//310 
f 310//310 311//311 312//312 
f 311//311 313//313 312//312 
f 312//312 313//313 314//314 
f 313//313 315//315 314//314 
f 314//314 315//315 316//316 
f 315//315 317//317 316//316 
f 316//316 317//317 318//318 
f 317//317 318//318 318//318 
f 318//318 318//318 220//220 
f 318//318 220//220 220//220 
f 220//220 220//220 220//220 
f 220//220 306//306 220//220 
f 220//220 306//306 222//222 
f 306//306 308//308 222//222 
f 222//222 308//308 224//224 
f 308//308 310//310 224//224 
f 224//224 310//310 226//226 
f 310//310 312//312 226//226 
f 226//226 312//312 319//319 
f 312//312 314//314 319//319 
f 319//319 314//314 320//320 
f 314//314 316//316 320//320 
f 320//320 316//316 321//321 
f 316//316 318//318 321//321 
f 321//321 318//318 322//322 
f 318//318 322//322 322//322 
f 322//322 322//322 320//320 
f 322//322 320//320 320//320 
f 320//320 320//320 320//320 
f 320//320 321//321 320//320 
f 320//320 321//321 230//230 
f 321//321 322//322 230//230 
f 230//230 322//322 231//231 
f 322//322 231//231 231//231 
f 231//231 231//231 230//230 
f 231//231 230//230 230//230 
f 230//230 230//230 230//230 
f 230//230 229//229 230//230 
f 230//230 229//229 320//320 
f 229//229 228//228 320//320 
f 320//320 228//228 319//319 
f 228//228 227//227 319//319 
f 319//319 227//227 226//226 
f 227//227 226//226 226//226 
f 226//226 226//226 294//294 
f 226//226 294//294 294//294 
f 294//294 294//294 294//294 
f 294//294 296//296 294//294 
f 294//294 296//296 298//298 
f 296//296 323//323 298//298 
f 298//298 323//323 299//299 
f 323//323 324//324 299//299 
f 299//299 324//324 300//300 
f 324//324 325//325 300//300 
f 300//300 325//325 301//301 
f 325//325 326//326 301//301 
f 301//301 326//326 302//302 
f 326//326 327//327 302//302 
f 302//302 327//327 303//303 
f 327//327 328//328 303//303 
f 303//303 328//328 304//304 
f 328//328 305//305 304//304 
f 304//304 305//305 305//305 
f 305//305 327//327 305//305 
f 305//305 327//327 327//327 
f 327//327 329//329 327//327 
f 327//327 329//329 328//328 
f 329//329 330//330 328//328 
f 328//328 330//330 305//305 
f 330//330 331//331 305//305 
f 305//305 331//331 307//307 
f 331//331 332//332 307//307 
f 307//307 332//332 309//309 
f 332//332 333//333 309//309 
f 309//309 333//333 311//311 
f 333//333 334//334 311//311 
f 311//311 334//334 313//313 
f 334//334 315//315 313//313 
f 313//313 315//315 315//315 
f 315//315 329//329 315//315 
f 315//315 329//329 329//329 
f 329//329 335//335 329//329 
f 329//329 335//335 330//330 
f 335//335 336//336 330//330 
f 330//330 336//336 331//331 
f 336//336 337//337 331//331 
f 331//331 337//337 332//332 
f 337//337 338//338 332//332 
f 332//332 338//338 333//333 
f 338//338 339//339 333//333 
f 333//333 339//339 334//334 
f 339//339 340//340 334//334 
f 334//334 340//340 315//315 
f 340//340 317//317 315//315 
f 315//315 317//317 317//317 
f 317//317 335//335 317//317 
f 317//317 335//335 335//335 
f 335//335 341//341 335//335 
f 335//335 341//341 336//336 
f 341//341 342//342 336//336 
f 336//336 342//342 337//337 
f 342//342 343//343 337//337 
f 337//337 343//343 338//338 
f 343//343 344//344 338//338 
f 338//338 344//344 339//339 
f 344//344 339//339 339//339 
f 339//339 339//339 341//341 
f 339//339 341//341 341//341 
f 341//341 341//341 341//341 
f 341//341 345//345 341//341 
f 341//341 345//345 342//342 
f 345//345 346//346 342//342 
f 342//342 346//346 343//343 
f 346//346 347//347 343//343 
f 343//343 347//347 344//344 
f 347//347 344//344 344//344 
f 344//344 344//344 345//345 
f 344//344 345//345 345//345 
f 345//345 345//345 345//345 
f 345//345 348//348 345//345 
f 345//345 348//348 346//346 
f 348//348 349//349 346//346 
f 346//346 349//349 347//347 
f 349//349 347//347 347//347 
f 347//347 347//347 348//348 
f 347//347 348//348 348//348 
f 348//348 348//348 348//348 
f 348//348 345//345 348//348 
f 348//348 345//345 350//350 
f 345//345 351//351 350//350 
f 350//350 351//351 352//352 
f 351//351 353//353 352//352 
f 352//352 353//353 354//354 
f 353//353 355//355 354//354 
f 354//354 355//355 356//356 
f 355//355 357//357 356//356 
f 356//356 357//357 358//358 
f 357//357 359//359 358//358 
f 358//358 359//359 360//360 
f 359//359 361//361 360//360 
f 360//360 361//361 362//362 
f 361//361 363//363 362//362 
f 362//362 363//363 364//364 
f 363//363 365//365 364//364 
f 364//364 365//365 366//366 
f 365//365 367//367 366//366 
f 366//366 367//367 368//368 
f 367//367 369//369 368//368 
f 368//368 369//369 370//370 
f 369//369 371//371 370//370 
f 370//370 371//371 371//371 
f 371//371 345//345 371//371 
f 371//371 345//345 345//345 
f 345//345 341//341 345//345 
f 345//345 341//341 351//351 
f 341//341 372//372 351//351 
f 351//351 372//372 353//353 
f 372//372 373//373 353//353 
f 353//353 373//373 355//355 
f 373//373 374//374 355//355 
f 355//355 374//374 357//357 
f 374//374 375//375 357//357 
f 357//357 375//375 359//359 
f 375//375 361//361 359//359 
f 359//359 361//361 361//361 
f 361//361 341//341 361//361 
f 361//361 341//341 341//341 
f 341//341 335//335 341//341 
f 341//341 335//335 372//372 
f 335//335 376//376 372//372 
f 372//372 376//376 373//373 
f 376//376 377//377 373//373 
f 373//373 377//377 374//374 
f 377//377 378//378 374//374 
f 374//374 378//378 375//375 
f 378//378 379//379 375//375 
f 375//375 379//379 361//361 
f 379//379 380//380 361//361 
f 361//361 380//380 363//363 
f 380//380 381//381 363//363 
f 363//363 381//381 382//382 
f 381//381 382//382 382//382 
f 382//382 382//382 335//335 
f 382//382 335//335 335//335 
f 335//335 335//335 335//335 
f 335//335 329//329 335//335 
f 335//335 329//329 376//376 
f 329//329 383//383 376//376 
f 376//376 383//383 377//377 
f 383//383 384//384 377//377 
f 377//377 384//384 378//378 
f 384//384 385//385 378//378 
f 378//378 385//385 379//379 
f 385//385 386//386 379//379 
f 379//379 386//386 380//380 
f 386//386 381//381 380//380 
f 380//380 381//381 381//381 
f 381//381 383//383 381//381 
f 381//381 383//383 383//383 
f 383//383 326//326 383//383 
f 383//383 326//326 384//384 
f 326//326 325//325 384//384 
f 384//384 325//325 385//385 
f 325//325 324//324 385//385 
f 385//385 324//324 386//386 
f 324//324 323//323 386//386 
f 386//386 323//323 296//296 
f 323//323 296//296 296//296 
f 296//296 296//296 383//383 
f 296//296 383//383 383//383 
f 383//383 383//383 383//383 
f 383//383 329//329 383//383 
f 383//383 329//329 326//326 
f 329//329 327//327 326//326 
f 326//326 327//327 327//327 
f 327//327 363//363 327//327 
f 327//327 363//363 363//363 
f 363//363 382//382 363//363 
f 363//363 382//382 365//365 
f 382//382 387//387 365//365 
f 365//365 387//387 367//367 
f 387//387 388//388 367//367 
f 367//367 388//388 369//369 
f 388//388 389//389 369//369 
f 369//369 389//389 371//371 
f 389//389 390//390 371//371 
f 371//371 390//390 390//390 
f 390//390 382//382 390//390 
f 390//390 382//382 382//382 
f 382//382 297//297 382//382 
f 382//382 297//297 387//387 
f 297//297 391//391 387//387 
f 387//387 391//391 388//388 
f 391//391 392//392 388//388 
f 388//388 392//392 389//389 
f 392//392 393//393 389//389 
f 389//389 393//393 394//394 
f 393//393 395//395 394//394 
f 394//394 395//395 396//396 
f 395//395 397//397 396//396 
f 396//396 397//397 398//398 
f 397//397 399//399 398//398 
f 398//398 399//399 400//400 
f 399//399 401//401 400//400 
f 400//400 401//401 402//402 
f 401//401 402//402 402//402 
f 402//402 402//402 401//401 
f 402//402 401//401 401//401 
f 401//401 401//401 401//401 
f 401//401 399//399 401//401 
f 401//401 399//399 403//403 
f 399//399 404//404 403//403 
f 403//403 404//404 405//405 
f 404//404 406//406 405//405 
f 405//405 406//406 293//293 
f 406//406 407//407 293//293 
f 293//293 407//407 295//295 
f 407//407 391//391 295//295 
f 295//295 391//391 297//297 
f 391//391 297//297 297//297 
f 297//297 297//297 399//399 
f 297//297 399//399 399//399 
f 399//399 399//399 399//399 
f 399//399 397//397 399//399 
f 399//399 397//397 404//404 
f 397//397 408//408 404//404 
f 404//404 408//408 406//406 
f 408//408 409//409 406//406 
f 406//406 409//409 407//407 
f 409//409 392//392 407//407 
f 407//407 392//392 391//391 
f 392//392 391//391 391//391 
f 391//391 391//391 408//408 
f 391//391 408//408 408//408 
f 408//408 408//408 408//408 
f 408//408 395//395 408//408 
f 408//408 395//395 409//409 
f 395//395 393//393 409//409 
f 409//409 393//393 392//392 
f 393//393 392//392 392//392 
f 392//392 392//392 403//403 
f 392//392 403//403 403//403 
f 403//403 403//403 403//403 
f 403//403 405//405 403//403 
f 403//403 405//405 209//209 
f 405//405 207//207 209//209 
f 209//209 207//207 207//207 
f 207//207 410//410 207//207 
f 207//207 410//410 410//410 
f 410//410 411//411 410//410 
f 410//410 411//411 169//169 
f 411//411 167//167 169//169 
f 169//169 167//167 167//167 
f 167//167 170//170 167//167 
f 167//167 170//170 170//170 
f 170//170 412//412 170//170 
f 170//170 412//412 171//171 
f 412//412 413//413 171//171 
f 171//171 413//413 172//172 
f 413//413 414//414 172//172 
f 172//172 414//414 173//173 
f 414//414 415//415 173//173 
f 173//173 415//415 174//174 
f 415//415 175//175 174//174 
f 174//174 175//175 175//175 
f 175//175 412//412 175//175 
f 175//175 412//412 412//412 
f 412//412 416//416 412//412 
f 412//412 416//416 413//413 
f 416//416 417//417 413//413 
f 413//413 417//417 414//414 
f 417//417 415//415 414//414 
f 414//414 415//415 415//415 
f 415//415 416//416 415//415 
f 415//415 416//416 416//416 
f 416//416 198//198 416//416 
f 416//416 198//198 417//417 
f 198//198 196//196 417//417 
f 417//417 196//196 415//415 
f 196//196 194//194 415//415 
f 415//415 194//194 175//175 
f 194//194 175//175 175//175 
f 175//175 175//175 370//370 
f 175//175 370//370 370//370 
f 370//370 370//370 370//370 
f 370//370 418//418 370//370 
f 370//370 418//418 368//368 
f 418//418 419//419 368//368 
f 368//368 419//419 366//366 
f 419//419 420//420 366//366 
f 366//366 420//420 364//364 
f 420//420 421//421 364//364 
f 364//364 421//421 362//362 
f 421//421 360//360 362//362 
f 362//362 360//360 360//360 
f 360//360 418//418 360//360 
f 360//360 418//418 418//418 
f 418//418 422//422 418//418 
f 418//418 422//422 419//419 
f 422//422 423//423 419//419 
f 419//419 423//423 420//420 
f 423//423 424//424 420//420 
f 420//420 424//424 421//421 
f 424//424 425//425 421//421 
f 421//421 425//425 360//360 
f 425//425 426//426 360//360 
f 360//360 426//426 358//358 
f 426//426 358//358 358//358 
f 358//358 358//358 134//134 
f 358//358 134//134 134//134 
f 134//134 134//134 134//134 
f 134//134 126//126 134//134 
f 134//134 126//126 132//132 
f 126//126 125//125 132//132 
f 159//159 268//268 260//260 
f 405//405 293//293 207//207 
f 296//296 381//381 386//386 
f 188//188 225//225 187//187 
f 395//395 408//408 397//397 
f 394//394 390//390 389//389 
f 267//267 167//167 411//411 
f 7//7 9//9 233//233 

