mtllib model_53.mtl
o model_53
v 18.274986267089844 31.848617553710938 44.7672004699707 
v 18.274986267089844 12.510199546813965 44.7672004699707 
v -9.104689598083496 31.848617553710938 44.7672004699707 
v -9.104689598083496 12.510199546813965 44.7672004699707 
vn -1.0341130485562108e-13 0.002184694167226553 -0.999997615814209 
vn -1.0341130485562108e-13 0.002184694167226553 -0.999997615814209 
vn -1.0341130485562108e-13 0.002184694167226553 -0.999997615814209 
vn -1.0341130485562108e-13 0.002184694167226553 -0.999997615814209 
s on 
f 1//1 2//2 3//3 
f 2//2 4//4 3//3 

