mtllib model_48.mtl
o model_48
v 28.71109962463379 22.08485221862793 -21.186599731445312 
v 28.71109962463379 11.918733596801758 -21.186599731445312 
v 28.71109962463379 22.08485221862793 -2.4765102863311768 
v 28.71109962463379 11.918733596801758 -2.4765102863311768 
vn -0.999997615814209 -2.0682260971124217e-13 -0.002184694167226553 
vn -0.999997615814209 -2.0682260971124217e-13 -0.002184694167226553 
vn -0.999997615814209 -2.0682260971124217e-13 -0.002184694167226553 
vn -0.999997615814209 -2.0682260971124217e-13 -0.002184694167226553 
s on 
f 1//1 2//2 3//3 
f 2//2 4//4 3//3 

