mtllib model_46.mtl
o model_46
v -30.68625831604004 37.75493621826172 -45.1480712890625 
v -30.68625831604004 37.90739822387695 -45.1480712890625 
v -1.2894515991210938 37.75493621826172 -45.1480712890625 
v -1.2894515991210938 37.90739822387695 -45.1480712890625 
v -30.68625831604004 41.15999984741211 -45.1480712890625 
v -1.2894515991210938 41.15999984741211 -45.1480712890625 
v 0.036199331283569336 37.90739822387695 -45.1480712890625 
v 0.036199331283569336 41.15999984741211 -45.1480712890625 
v 14.977668762207031 37.90739822387695 -45.1480712890625 
v 14.977668762207031 41.15999984741211 -45.1480712890625 
v 16.28546905517578 37.90739822387695 -45.1480712890625 
v 16.28546905517578 41.15999984741211 -45.1480712890625 
v 30.68624496459961 37.90739822387695 -45.1480712890625 
v 30.68624496459961 41.15999984741211 -45.1480712890625 
v 30.68624496459961 37.75493621826172 -45.1480712890625 
v 16.28546905517578 37.75493621826172 -45.1480712890625 
v -30.68625831604004 37.75493621826172 45.14838409423828 
v -30.68625831604004 37.90739822387695 45.14838409423828 
v -30.68625831604004 37.75493621826172 -45.1480712890625 
v -30.68625831604004 37.90739822387695 -45.1480712890625 
v -30.68625831604004 41.15999984741211 45.14838409423828 
v -30.68625831604004 41.15999984741211 -45.1480712890625 
v 30.68624496459961 43.21994400024414 45.14838409423828 
v 30.68624496459961 43.21994400024414 43.944610595703125 
v 29.075244903564453 43.21994400024414 45.14838409423828 
v 29.075244903564453 43.21994400024414 43.944610595703125 
v 16.28546905517578 43.21994400024414 45.14838409423828 
v 16.28546905517578 43.21994400024414 43.944610595703125 
v -1.2894515991210938 43.21994400024414 45.14838409423828 
v -1.2894515991210938 43.21994400024414 43.944610595703125 
v -29.31474494934082 43.21994400024414 45.14838409423828 
v -29.31474494934082 43.21994400024414 43.944610595703125 
v -30.68625831604004 43.21994400024414 45.14838409423828 
v -30.68625831604004 43.21994400024414 43.944610595703125 
v -29.31474494934082 43.219947814941406 -43.88825607299805 
v -30.68625831604004 43.21994400024414 -43.88825607299805 
v -29.31474494934082 43.21994400024414 -45.1480712890625 
v -1.2894515991210938 43.21994400024414 -45.1480712890625 
v -1.2894515991210938 43.21994400024414 -43.88825607299805 
v 16.28546905517578 43.21994400024414 -43.88825607299805 
v 16.28546905517578 43.21994400024414 -45.1480712890625 
v 29.075244903564453 43.219947814941406 -43.88825607299805 
v 29.075244903564453 43.21994400024414 -45.1480712890625 
v 30.68624496459961 43.21994400024414 -43.88825607299805 
v 30.68624496459961 43.21994400024414 -45.1480712890625 
v 0.036199331283569336 37.90739822387695 -45.1480712890625 
v 14.977668762207031 37.90739822387695 -45.1480712890625 
v 0.036198973655700684 37.90739440917969 -82.26477813720703 
v 14.977668762207031 37.90740203857422 -82.26478576660156 
v 30.68624496459961 41.15999984741211 -45.1480712890625 
v 30.68624496459961 43.21994400024414 -45.1480712890625 
v 30.68624496459961 41.15999984741211 -43.88825607299805 
v 30.68624496459961 43.21994400024414 -43.88825607299805 
v 30.68624496459961 41.15999984741211 43.944610595703125 
v 30.68624496459961 43.21994400024414 43.944610595703125 
v 30.68624496459961 41.15999984741211 45.14838409423828 
v 30.68624496459961 43.21994400024414 45.14838409423828 
v 30.68624496459961 43.21994400024414 -45.1480712890625 
v 30.68624496459961 41.15999984741211 -45.1480712890625 
v 29.075244903564453 43.21994400024414 -45.1480712890625 
v 29.075244903564453 41.15999984741211 -45.1480712890625 
v 16.28546905517578 43.21994400024414 -45.1480712890625 
v 16.28546905517578 41.15999984741211 -45.1480712890625 
v -1.2894515991210938 43.21994400024414 -45.1480712890625 
v -1.2894515991210938 41.15999984741211 -45.1480712890625 
v -29.31474494934082 43.21994400024414 -45.1480712890625 
v -29.31474494934082 41.15999984741211 -45.1480712890625 
v -30.68625831604004 43.21994400024414 -45.1480712890625 
v -30.68625831604004 41.15999984741211 -45.1480712890625 
v 30.68624496459961 41.15999984741211 45.14838409423828 
v 30.68624496459961 37.90739822387695 45.14838409423828 
v 30.68624496459961 41.15999984741211 -45.1480712890625 
v 30.68624496459961 37.90739822387695 -45.1480712890625 
v 30.68624496459961 37.75493621826172 45.14838409423828 
v 30.68624496459961 37.75493621826172 -45.1480712890625 
v -29.31474494934082 41.56655502319336 -43.88825607299805 
v -29.31474494934082 43.219947814941406 -43.88825607299805 
v -29.31474494934082 41.566551208496094 43.944610595703125 
v -29.31474494934082 43.21994400024414 43.944610595703125 
v 16.28546905517578 39.967342376708984 -83.52909088134766 
v 16.28546905517578 37.90739822387695 -83.52909088134766 
v 14.977668762207031 39.967342376708984 -83.52909088134766 
v 14.977668762207031 37.90739822387695 -83.52909088134766 
v 0.036199331283569336 39.967342376708984 -83.52909088134766 
v 0.036199331283569336 37.90739822387695 -83.52909088134766 
v -1.2894515991210938 39.967342376708984 -83.52909088134766 
v -1.2894515991210938 37.90739822387695 -83.52909088134766 
v 0.036199331283569336 37.75493621826172 -83.52909088134766 
v 14.977668762207031 37.75493621826172 -83.52909088134766 
v 16.28546905517578 37.75493621826172 -83.52909088134766 
v 16.28546905517578 36.75 -83.52909088134766 
v 14.977668762207031 36.75 -83.52909088134766 
v 0.036199331283569336 36.75 -83.52909088134766 
v -1.2894515991210938 37.75493621826172 -83.52909088134766 
v -30.68625831604004 43.21994400024414 45.14838409423828 
v -30.68625831604004 41.15999984741211 45.14838409423828 
v -29.31474494934082 43.21994400024414 45.14838409423828 
v -29.31474494934082 41.15999984741211 45.14838409423828 
v -1.2894515991210938 43.21994400024414 45.14838409423828 
v -1.2894515991210938 41.15999984741211 45.14838409423828 
v 16.28546905517578 43.21994400024414 45.14838409423828 
v 16.28546905517578 41.15999984741211 45.14838409423828 
v 29.075244903564453 43.21994400024414 45.14838409423828 
v 29.075244903564453 41.15999984741211 45.14838409423828 
v 30.68624496459961 43.21994400024414 45.14838409423828 
v 30.68624496459961 41.15999984741211 45.14838409423828 
v 14.977668762207031 37.90739822387695 -45.1480712890625 
v 14.977668762207031 39.967342376708984 -45.1480712890625 
v 14.977668762207031 37.90740203857422 -82.26478576660156 
v 14.977668762207031 39.96734619140625 -82.26478576660156 
v 16.28546905517578 37.90739822387695 -45.1480712890625 
v 16.28546905517578 39.967342376708984 -45.1480712890625 
v 14.977668762207031 37.90739822387695 -45.1480712890625 
v 14.977668762207031 39.967342376708984 -45.1480712890625 
v 29.075244903564453 41.566551208496094 43.944610595703125 
v 29.075244903564453 43.21994400024414 43.944610595703125 
v 29.075244903564453 41.56655502319336 -43.88825607299805 
v 29.075244903564453 43.219947814941406 -43.88825607299805 
v -1.2894515991210938 39.967342376708984 -83.52909088134766 
v -1.2894515991210938 37.90739822387695 -83.52909088134766 
v -1.2894515991210938 39.967342376708984 -82.26478576660156 
v -1.2894515991210938 37.90739822387695 -82.26478576660156 
v -1.2894515991210938 39.967342376708984 -45.1480712890625 
v -1.2894515991210938 37.90739822387695 -45.1480712890625 
v -1.2894515991210938 37.75493621826172 -82.26478576660156 
v -1.2894515991210938 37.75493621826172 -45.1480712890625 
v -1.2894515991210938 37.75493621826172 -83.52909088134766 
v -1.2894515991210938 36.75 -82.26478576660156 
v -1.2894515991210938 36.75 -45.1480712890625 
v 29.075244903564453 43.21994400024414 43.944610595703125 
v 29.075244903564453 41.566551208496094 43.944610595703125 
v 16.28546905517578 43.21994400024414 43.944610595703125 
v 16.28546905517578 41.566551208496094 43.944610595703125 
v -1.2894515991210938 43.21994400024414 43.944610595703125 
v -1.2894515991210938 41.566551208496094 43.944610595703125 
v -29.31474494934082 43.21994400024414 43.944610595703125 
v -29.31474494934082 41.566551208496094 43.944610595703125 
v -1.2894515991210938 39.967342376708984 -45.1480712890625 
v -1.2894515991210938 37.90739822387695 -45.1480712890625 
v 0.036199331283569336 39.967342376708984 -45.1480712890625 
v 0.036199331283569336 37.90739822387695 -45.1480712890625 
v 0.036199331283569336 39.967342376708984 -45.1480712890625 
v 0.036199331283569336 37.90739822387695 -45.1480712890625 
v 0.036198973655700684 39.96733856201172 -82.26477813720703 
v 0.036198973655700684 37.90739440917969 -82.26477813720703 
v 16.28546905517578 36.75 -83.52909088134766 
v 16.28546905517578 37.75493621826172 -83.52909088134766 
v 16.28546905517578 36.75 -82.26478576660156 
v 16.28546905517578 37.75493621826172 -82.26478576660156 
v 16.28546905517578 37.75493621826172 -45.1480712890625 
v 16.28546905517578 37.90739822387695 -45.1480712890625 
v 16.28546905517578 37.90739822387695 -82.26478576660156 
v 16.28546905517578 37.90739822387695 -83.52909088134766 
v 16.28546905517578 39.967342376708984 -83.52909088134766 
v 16.28546905517578 39.967342376708984 -82.26478576660156 
v 16.28546905517578 39.967342376708984 -45.1480712890625 
v 29.075244903564453 41.566551208496094 43.944610595703125 
v 29.075244903564453 41.56655502319336 -43.88825607299805 
v 16.28546905517578 41.566551208496094 43.944610595703125 
v 16.28546905517578 41.566551208496094 -43.88825607299805 
v -1.2894515991210938 41.566551208496094 43.944610595703125 
v -1.2894515991210938 41.566551208496094 -43.88825607299805 
v -29.31474494934082 41.566551208496094 43.944610595703125 
v -29.31474494934082 41.56655502319336 -43.88825607299805 
v -30.68625831604004 43.21994400024414 -45.1480712890625 
v -30.68625831604004 41.15999984741211 -45.1480712890625 
v -30.68625831604004 43.21994400024414 -43.88825607299805 
v -30.68625831604004 41.15999984741211 -43.88825607299805 
v -30.68625831604004 43.21994400024414 43.944610595703125 
v -30.68625831604004 41.15999984741211 43.944610595703125 
v -30.68625831604004 43.21994400024414 45.14838409423828 
v -30.68625831604004 41.15999984741211 45.14838409423828 
v -30.68625831604004 41.15999984741211 45.14838409423828 
v -30.68625831604004 37.90739822387695 45.14838409423828 
v -1.2894515991210938 41.15999984741211 45.14838409423828 
v -1.2894515991210938 37.90739822387695 45.14838409423828 
v 16.28546905517578 41.15999984741211 45.14838409423828 
v 16.28546905517578 37.90739822387695 45.14838409423828 
v 30.68624496459961 41.15999984741211 45.14838409423828 
v 30.68624496459961 37.90739822387695 45.14838409423828 
v -30.68625831604004 37.75493621826172 45.14838409423828 
v -1.2894515991210938 37.75493621826172 45.14838409423828 
v 16.28546905517578 37.75493621826172 45.14838409423828 
v 30.68624496459961 37.75493621826172 45.14838409423828 
v 14.977668762207031 37.90740203857422 -82.26478576660156 
v 14.977668762207031 39.96734619140625 -82.26478576660156 
v 0.036198973655700684 37.90739440917969 -82.26477813720703 
v 0.036198973655700684 39.96733856201172 -82.26477813720703 
v 0.036199331283569336 39.967342376708984 -45.1480712890625 
v 0.036198973655700684 39.96733856201172 -82.26477813720703 
v -1.2894515991210938 39.967342376708984 -45.1480712890625 
v -1.2894515991210938 39.967342376708984 -82.26478576660156 
v 0.036199331283569336 39.967342376708984 -83.52909088134766 
v 14.977668762207031 39.96734619140625 -82.26478576660156 
v 14.977668762207031 39.967342376708984 -83.52909088134766 
v 16.28546905517578 39.967342376708984 -83.52909088134766 
v 16.28546905517578 39.967342376708984 -82.26478576660156 
v 14.977668762207031 39.967342376708984 -45.1480712890625 
v 16.28546905517578 39.967342376708984 -45.1480712890625 
v -29.31474494934082 43.219947814941406 -43.88825607299805 
v -29.31474494934082 41.56655502319336 -43.88825607299805 
v -1.2894515991210938 43.21994400024414 -43.88825607299805 
v -1.2894515991210938 41.566551208496094 -43.88825607299805 
v 16.28546905517578 43.21994400024414 -43.88825607299805 
v 16.28546905517578 41.566551208496094 -43.88825607299805 
v 29.075244903564453 43.219947814941406 -43.88825607299805 
v 29.075244903564453 41.56655502319336 -43.88825607299805 
v -1.2894515991210938 36.75 -83.52909088134766 
v -1.2894515991210938 36.75 -83.52909088134766 
v -1.2894515991210938 39.967342376708984 -83.52909088134766 
v 16.28546905517578 36.75 -45.1480712890625 
v -30.68625831604004 43.21994400024414 -45.1480712890625 
vn -2.0682311115474694e-13 0 -1 
vn -2.0682311115474694e-13 0 -1 
vn -2.0682311115474694e-13 0 -1 
vn -2.0682311115474694e-13 0 -1 
vn -2.0682311115474694e-13 0 -1 
vn -2.0682311115474694e-13 0 -1 
vn -2.0682311115474694e-13 0 -1 
vn -2.0682311115474694e-13 0 -1 
vn -2.0682311115474694e-13 0 -1 
vn -2.0682311115474694e-13 0 -1 
vn -2.0682311115474694e-13 0 -1 
vn -2.0682311115474694e-13 0 -1 
vn -2.0682311115474694e-13 0 -1 
vn -2.0682311115474694e-13 0 -1 
vn -2.0682311115474694e-13 0 -1 
vn -2.0682311115474694e-13 0 -1 
vn -0.999997615814209 -2.0682260971124217e-13 0.002184694167226553 
vn -0.999997615814209 -2.0682260971124217e-13 0.002184694167226553 
vn -0.999997615814209 -2.0682260971124217e-13 0.002184694167226553 
vn -0.999997615814209 -2.0682260971124217e-13 0.002184694167226553 
vn -0.999997615814209 -2.0682260971124217e-13 0.002184694167226553 
vn -0.999997615814209 -2.0682260971124217e-13 0.002184694167226553 
vn -1.0341130485562108e-13 0.999997615814209 0.002184694167226553 
vn -1.0341130485562108e-13 0.999997615814209 0.002184694167226553 
vn -1.0341130485562108e-13 0.999997615814209 0.002184694167226553 
vn -1.0341130485562108e-13 0.999997615814209 0.002184694167226553 
vn -1.0341130485562108e-13 0.999997615814209 0.002184694167226553 
vn -1.0341130485562108e-13 0.999997615814209 0.002184694167226553 
vn -1.0341130485562108e-13 0.999997615814209 0.002184694167226553 
vn -1.0341130485562108e-13 0.999997615814209 0.002184694167226553 
vn -1.0341130485562108e-13 0.999997615814209 0.002184694167226553 
vn -1.0341130485562108e-13 0.999997615814209 0.002184694167226553 
vn -1.0341130485562108e-13 0.999997615814209 0.002184694167226553 
vn -1.0341130485562108e-13 0.999997615814209 0.002184694167226553 
vn -1.0341130485562108e-13 0.999997615814209 -0.002184694167226553 
vn -1.0341130485562108e-13 0.999997615814209 0.002184694167226553 
vn -1.0341130485562108e-13 0.999997615814209 -0.002184694167226553 
vn -1.0341130485562108e-13 0.999997615814209 -0.002184694167226553 
vn -1.0341130485562108e-13 0.999997615814209 -0.002184694167226553 
vn -1.0341130485562108e-13 0.999997615814209 -0.002184694167226553 
vn -1.0341130485562108e-13 0.999997615814209 -0.002184694167226553 
vn -1.0341130485562108e-13 0.999997615814209 -0.002184694167226553 
vn -1.0341130485562108e-13 0.999997615814209 -0.002184694167226553 
vn -1.0341130485562108e-13 0.999997615814209 0.002184694167226553 
vn -1.0341130485562108e-13 0.999997615814209 -0.002184694167226553 
vn -1.0341130485562108e-13 0.999997615814209 0.002184694167226553 
vn -1.0341130485562108e-13 0.999997615814209 0.002184694167226553 
vn -1.0341130485562108e-13 0.999997615814209 0.002184694167226553 
vn -1.0341130485562108e-13 0.999997615814209 0.002184694167226553 
vn 0.999997615814209 0 0.002184694167226553 
vn 0.999997615814209 0 0.002184694167226553 
vn 0.999997615814209 0 0.002184694167226553 
vn 0.999997615814209 0 0.002184694167226553 
vn 0.999997615814209 0 0.002184694167226553 
vn 0.999997615814209 0 0.002184694167226553 
vn 0.999997615814209 0 0.002184694167226553 
vn 0.999997615814209 0 0.002184694167226553 
vn -2.0682311115474694e-13 0 -1 
vn -2.0682311115474694e-13 0 -1 
vn -2.0682311115474694e-13 0 -1 
vn -2.0682311115474694e-13 0 -1 
vn -2.0682311115474694e-13 0 -1 
vn -2.0682311115474694e-13 0 -1 
vn -2.0682311115474694e-13 0 -1 
vn -2.0682311115474694e-13 0 -1 
vn -2.0682311115474694e-13 0 -1 
vn -2.0682311115474694e-13 0 -1 
vn -2.0682311115474694e-13 0 -1 
vn -2.0682311115474694e-13 0 -1 
vn 0.999997615814209 0 0.002184694167226553 
vn 0.999997615814209 0 0.002184694167226553 
vn 0.999997615814209 0 0.002184694167226553 
vn 0.999997615814209 0 0.002184694167226553 
vn 0.999997615814209 0 0.002184694167226553 
vn 0.999997615814209 0 0.002184694167226553 
vn 0.999997615814209 0 0.002184694167226553 
vn 0.999997615814209 0 0.002184694167226553 
vn 0.999997615814209 0 0.002184694167226553 
vn 0.999997615814209 0 0.002184694167226553 
vn -2.0682311115474694e-13 0 -1 
vn -2.0682311115474694e-13 0 -1 
vn -2.0682311115474694e-13 0 -1 
vn -2.0682311115474694e-13 0 -1 
vn -2.0682311115474694e-13 0 -1 
vn -2.0682311115474694e-13 0 -1 
vn -2.0682311115474694e-13 0 -1 
vn -2.0682311115474694e-13 0 -1 
vn -2.0682311115474694e-13 0 -1 
vn -2.0682311115474694e-13 0 -1 
vn -2.0682311115474694e-13 0 -1 
vn -2.0682311115474694e-13 0 -1 
vn -2.0682311115474694e-13 0 -1 
vn -2.0682311115474694e-13 0 -1 
vn -2.0682311115474694e-13 0 -1 
vn 0 0 1 
vn 0 0 1 
vn 0 0 1 
vn 0 0 1 
vn 0 0 1 
vn 0 0 1 
vn 0 0 1 
vn 0 0 1 
vn 0 0 1 
vn 0 0 1 
vn 0 0 1 
vn 0 0 1 
vn -0.999997615814209 -2.0682260971124217e-13 0.002184694167226553 
vn -0.999997615814209 -2.0682260971124217e-13 0.002184694167226553 
vn -0.999997615814209 -2.0682260971124217e-13 0.002184694167226553 
vn -0.999997615814209 -2.0682260971124217e-13 0.002184694167226553 
vn 0 0 1 
vn 0 0 1 
vn 0 0 1 
vn 0 0 1 
vn -0.999997615814209 -2.0682260971124217e-13 0.002184694167226553 
vn -0.999997615814209 -2.0682260971124217e-13 0.002184694167226553 
vn -0.999997615814209 -2.0682260971124217e-13 0.002184694167226553 
vn -0.999997615814209 -2.0682260971124217e-13 0.002184694167226553 
vn -0.999997615814209 -2.0682260971124217e-13 0.002184694167226553 
vn -0.999997615814209 -2.0682260971124217e-13 0.002184694167226553 
vn -0.999997615814209 -2.0682260971124217e-13 0.002184694167226553 
vn -0.999997615814209 -2.0682260971124217e-13 0.002184694167226553 
vn -0.999997615814209 -2.0682260971124217e-13 0.002184694167226553 
vn -0.999997615814209 -2.0682260971124217e-13 0.002184694167226553 
vn -0.999997615814209 -2.0682260971124217e-13 0.002184694167226553 
vn -0.999997615814209 -2.0682260971124217e-13 0.002184694167226553 
vn -0.999997615814209 -2.0682260971124217e-13 0.002184694167226553 
vn -0.999997615814209 -2.0682260971124217e-13 0.002184694167226553 
vn -0.999997615814209 -2.0682260971124217e-13 0.002184694167226553 
vn -2.0682311115474694e-13 0 -1 
vn -2.0682311115474694e-13 0 -1 
vn -2.0682311115474694e-13 0 -1 
vn -2.0682311115474694e-13 0 -1 
vn -2.0682311115474694e-13 0 -1 
vn -2.0682311115474694e-13 0 -1 
vn -2.0682311115474694e-13 0 -1 
vn -2.0682311115474694e-13 0 -1 
vn 0 0 1 
vn 0 0 1 
vn 0 0 1 
vn 0 0 1 
vn 0.999997615814209 0 -0.002184694167226553 
vn 0.999997615814209 0 -0.002184694167226553 
vn 0.999997615814209 0 -0.002184694167226553 
vn 0.999997615814209 0 -0.002184694167226553 
vn 0.999997615814209 0 0.002184694167226553 
vn 0.999997615814209 0 0.002184694167226553 
vn 0.999997615814209 0 0.002184694167226553 
vn 0.999997615814209 0 0.002184694167226553 
vn 0.999997615814209 0 0.002184694167226553 
vn 0.999997615814209 0 0.002184694167226553 
vn 0.999997615814209 0 0.002184694167226553 
vn 0.999997615814209 0 0.002184694167226553 
vn 0.999997615814209 0 0.002184694167226553 
vn 0.999997615814209 0 0.002184694167226553 
vn 0.999997615814209 0 0.002184694167226553 
vn -1.0341130485562108e-13 0.999997615814209 0.002184694167226553 
vn -1.0341130485562108e-13 0.999997615814209 0.002184694167226553 
vn -1.0341130485562108e-13 0.999997615814209 0.002184694167226553 
vn -1.0341130485562108e-13 0.999997615814209 0.002184694167226553 
vn -1.0341130485562108e-13 0.999997615814209 0.002184694167226553 
vn -1.0341130485562108e-13 0.999997615814209 0.002184694167226553 
vn -1.0341130485562108e-13 0.999997615814209 0.002184694167226553 
vn -1.0341130485562108e-13 0.999997615814209 0.002184694167226553 
vn -0.999997615814209 -2.0682260971124217e-13 0.002184694167226553 
vn -0.999997615814209 -2.0682260971124217e-13 0.002184694167226553 
vn -0.999997615814209 -2.0682260971124217e-13 0.002184694167226553 
vn -0.999997615814209 -2.0682260971124217e-13 0.002184694167226553 
vn -0.999997615814209 -2.0682260971124217e-13 0.002184694167226553 
vn -0.999997615814209 -2.0682260971124217e-13 0.002184694167226553 
vn -0.999997615814209 -2.0682260971124217e-13 0.002184694167226553 
vn -0.999997615814209 -2.0682260971124217e-13 0.002184694167226553 
vn 0 0 1 
vn 0 0 1 
vn 0 0 1 
vn 0 0 1 
vn 0 0 1 
vn 0 0 1 
vn 0 0 1 
vn 0 0 1 
vn 0 0 1 
vn 0 0 1 
vn 0 0 1 
vn 0 0 1 
vn 0 0 1 
vn 0 0 1 
vn 0 0 1 
vn 0 0 1 
vn -1.0341130485562108e-13 0.999997615814209 -0.002184694167226553 
vn -1.0341130485562108e-13 0.999997615814209 -0.002184694167226553 
vn -1.0341130485562108e-13 0.999997615814209 -0.002184694167226553 
vn -1.0341130485562108e-13 0.999997615814209 0.002184694167226553 
vn -1.0341130485562108e-13 0.999997615814209 0.002184694167226553 
vn -1.0341130485562108e-13 0.999997615814209 0.002184694167226553 
vn -1.0341130485562108e-13 0.999997615814209 -0.002184694167226553 
vn -1.0341130485562108e-13 0.999997615814209 -0.002184694167226553 
vn -1.0341130485562108e-13 0.999997615814209 0.002184694167226553 
vn -1.0341130485562108e-13 0.999997615814209 0.002184694167226553 
vn -1.0341130485562108e-13 0.999997615814209 0.002184694167226553 
vn 0 0 1 
vn 0 0 1 
vn 0 0 1 
vn 0 0 1 
vn 0 0 1 
vn 0 0 1 
vn 0 0 1 
vn 0 0 1 
vn -0.999997615814209 -2.0682260971124217e-13 0.002184694167226553 
vn -2.0682311115474694e-13 0 -1 
vn -1.0341130485562108e-13 0.999997615814209 0.002184694167226553 
vn 0.999997615814209 0 0.002184694167226553 
vn -1.0341130485562108e-13 0.999997615814209 -0.002184694167226553 
vt 0.46099719405174255 0.9602996110916138 
vt 0.4607587456703186 0.9602996110916138 
vt 0.46099719405174255 0.913553774356842 
vt 0.4607587456703186 0.913553774356842 
vt 0.45560842752456665 0.9602996110916138 
vt 0.45560842752456665 0.913553774356842 
vt 0.4607587456703186 0.9114505052566528 
vt 0.45560842752456665 0.9114505052566528 
vt 0.4607587456703186 0.8876832127571106 
vt 0.45560842752456665 0.8876832127571106 
vt 0.4607587456703186 0.8856149315834045 
vt 0.45560842752456665 0.8856149315834045 
vt 0.4607587456703186 0.8627065420150757 
vt 0.45560842752456665 0.8627065420150757 
vt 0.46099719405174255 0.8627065420150757 
vt 0.46099719405174255 0.8856149315834045 
vt 0.6280485987663269 0.8550469875335693 
vt 0.6282870173454285 0.8550469875335693 
vt 0.6280485987663269 0.9986147284507751 
vt 0.6282870173454285 0.9986147284507751 
vt 0.6334373354911804 0.8550469875335693 
vt 0.6334373354911804 0.9986147284507751 
vt 0.5798359513282776 0.8550469875335693 
vt 0.5798359513282776 0.8569574952125549 
vt 0.5773084759712219 0.8550469875335693 
vt 0.5773084759712219 0.8569574952125549 
vt 0.5569456219673157 0.8550469875335693 
vt 0.5569456219673157 0.8569574952125549 
vt 0.5290004014968872 0.8550469875335693 
vt 0.5290004014968872 0.8569574952125549 
vt 0.4844597280025482 0.8550469875335693 
vt 0.4844597280025482 0.8569574952125549 
vt 0.4822660982608795 0.8550469875335693 
vt 0.4822660982608795 0.8569574952125549 
vt 0.4844597280025482 0.9966166019439697 
vt 0.4822660982608795 0.9966166019439697 
vt 0.4844597280025482 0.9986147284507751 
vt 0.5290004014968872 0.9986147284507751 
vt 0.5290004014968872 0.9966166019439697 
vt 0.5569456219673157 0.9966166019439697 
vt 0.5569456219673157 0.9986147284507751 
vt 0.5773084759712219 0.9966166019439697 
vt 0.5773084759712219 0.9986147284507751 
vt 0.5798359513282776 0.9966166019439697 
vt 0.5798359513282776 0.9986147284507751 
vt 0.5861307382583618 0.8550469875335693 
vt 0.6098794341087341 0.8550469875335693 
vt 0.5861307382583618 0.9140620827674866 
vt 0.6098794341087341 0.9140620827674866 
vt 0.6494605541229248 0.8550469875335693 
vt 0.6527510285377502 0.8550469875335693 
vt 0.6494605541229248 0.8570451140403748 
vt 0.6527510285377502 0.8570451140403748 
vt 0.6494605541229248 0.9967042803764343 
vt 0.6527510285377502 0.9967042803764343 
vt 0.6494605541229248 0.9986147284507751 
vt 0.6527510285377502 0.9986147284507751 
vt 0.5237070322036743 0.8629518747329712 
vt 0.5269975066184998 0.8629518747329712 
vt 0.5237070322036743 0.8655284643173218 
vt 0.5269975066184998 0.8655284643173218 
vt 0.5237070322036743 0.8858603239059448 
vt 0.5269975066184998 0.8858603239059448 
vt 0.5237070322036743 0.9137991666793823 
vt 0.5269975066184998 0.9137991666793823 
vt 0.5237070322036743 0.9583540558815002 
vt 0.5269975066184998 0.9583540558815002 
vt 0.5237070322036743 0.960545003414154 
vt 0.5269975066184998 0.960545003414154 
vt 0.6215630173683167 0.9986147284507751 
vt 0.6163650155067444 0.9986147284507751 
vt 0.6215630173683167 0.8550469875335693 
vt 0.6163650155067444 0.8550469875335693 
vt 0.6161265969276428 0.9986147284507751 
vt 0.6161265969276428 0.8550469875335693 
vt 0.6589981913566589 0.8550469875335693 
vt 0.6622886657714844 0.8550469875335693 
vt 0.6589981913566589 0.9947060942649841 
vt 0.6622886657714844 0.9947060942649841 
vt 0.42127299308776855 0.9297316670417786 
vt 0.4245634973049164 0.9297316670417786 
vt 0.42127299308776855 0.9318174719810486 
vt 0.4245634973049164 0.9318174719810486 
vt 0.42127299308776855 0.9555672407150269 
vt 0.4245634973049164 0.9555672407150269 
vt 0.42127299308776855 0.9576705098152161 
vt 0.4245634973049164 0.9576705098152161 
vt 0.42480191588401794 0.9555672407150269 
vt 0.42480191588401794 0.9318174719810486 
vt 0.42480191588401794 0.9297316670417786 
vt 0.4264233112335205 0.9297316670417786 
vt 0.4264233112335205 0.9318174719810486 
vt 0.4264233112335205 0.9555672407150269 
vt 0.42480191588401794 0.9576705098152161 
vt 0.5174599289894104 0.960545003414154 
vt 0.5141693949699402 0.960545003414154 
vt 0.5174599289894104 0.9583540558815002 
vt 0.5141693949699402 0.9583540558815002 
vt 0.5174599289894104 0.9137991666793823 
vt 0.5141693949699402 0.9137991666793823 
vt 0.5174599289894104 0.8858603239059448 
vt 0.5141693949699402 0.8858603239059448 
vt 0.5174599289894104 0.8655284643173218 
vt 0.5141693949699402 0.8655284643173218 
vt 0.5174599289894104 0.8629518747329712 
vt 0.5141693949699402 0.8629518747329712 
vt 0.5523198843002319 0.8629518747329712 
vt 0.5555626749992371 0.8629518747329712 
vt 0.5523198843002319 0.9219669699668884 
vt 0.5555626749992371 0.9219669699668884 
vt 0.6063028573989868 0.9200565218925476 
vt 0.6063028573989868 0.9233341217041016 
vt 0.604204535484314 0.9200565218925476 
vt 0.604204535484314 0.9233341217041016 
vt 0.6691557765007019 0.8589556217193604 
vt 0.6724462509155273 0.8589556217193604 
vt 0.6691557765007019 0.9986147284507751 
vt 0.6724462509155273 0.9986147284507751 
vt 0.507874608039856 0.9256477952003479 
vt 0.5045841336250305 0.9256477952003479 
vt 0.507874608039856 0.9236320853233337 
vt 0.5045841336250305 0.9236320853233337 
vt 0.507874608039856 0.8646169900894165 
vt 0.5045841336250305 0.8646169900894165 
vt 0.5043456554412842 0.9236320853233337 
vt 0.5043456554412842 0.8646169900894165 
vt 0.5043456554412842 0.9256477952003479 
vt 0.5027719736099243 0.9236320853233337 
vt 0.5027719736099243 0.8646169900894165 
vt 0.5332446694374084 0.8629518747329712 
vt 0.5365351438522339 0.8629518747329712 
vt 0.5332446694374084 0.883301317691803 
vt 0.5365351438522339 0.883301317691803 
vt 0.5332446694374084 0.9112401604652405 
vt 0.5365351438522339 0.9112401604652405 
vt 0.5332446694374084 0.9557950496673584 
vt 0.5365351438522339 0.9557950496673584 
vt 0.595668375492096 0.9233341217041016 
vt 0.595668375492096 0.9200565218925476 
vt 0.597766637802124 0.9233341217041016 
vt 0.597766637802124 0.9200565218925476 
vt 0.43696239590644836 0.9140620827674866 
vt 0.4336719214916229 0.9140620827674866 
vt 0.43696239590644836 0.8550469875335693 
vt 0.4336719214916229 0.8550469875335693 
vt 0.3955691158771515 0.8706289529800415 
vt 0.39719051122665405 0.8706289529800415 
vt 0.3955691158771515 0.8726446032524109 
vt 0.39719051122665405 0.8726446032524109 
vt 0.39719051122665405 0.9316596984863281 
vt 0.397428959608078 0.9316596984863281 
vt 0.397428959608078 0.8726446032524109 
vt 0.397428959608078 0.8706289529800415 
vt 0.40067175030708313 0.8706289529800415 
vt 0.40067175030708313 0.8726446032524109 
vt 0.40067175030708313 0.9316596984863281 
vt 0.3746817409992218 0.8589556217193604 
vt 0.3746817409992218 0.9986147284507751 
vt 0.35431891679763794 0.8589556217193604 
vt 0.35431891679763794 0.9986147284507751 
vt 0.3263736963272095 0.8589556217193604 
vt 0.3263736963272095 0.9986147284507751 
vt 0.2818329930305481 0.8589556217193604 
vt 0.2818329930305481 0.9986147284507751 
vt 0.6432134509086609 0.9986147284507751 
vt 0.6399706602096558 0.9986147284507751 
vt 0.6432134509086609 0.9966166019439697 
vt 0.6399706602096558 0.9966166019439697 
vt 0.6432134509086609 0.8569574952125549 
vt 0.6399706602096558 0.8569574952125549 
vt 0.6432134509086609 0.8550469875335693 
vt 0.6399706602096558 0.8550469875335693 
vt 0.49623870849609375 0.960545003414154 
vt 0.4910883903503418 0.960545003414154 
vt 0.49623870849609375 0.9137991666793823 
vt 0.4910883903503418 0.9137991666793823 
vt 0.49623870849609375 0.8858603239059448 
vt 0.4910883903503418 0.8858603239059448 
vt 0.49623870849609375 0.8629518747329712 
vt 0.4910883903503418 0.8629518747329712 
vt 0.49084994196891785 0.960545003414154 
vt 0.49084994196891785 0.9137991666793823 
vt 0.49084994196891785 0.8858603239059448 
vt 0.49084994196891785 0.8629518747329712 
vt 0.5618098378181458 0.8629518747329712 
vt 0.5651003122329712 0.8629518747329712 
vt 0.5618098378181458 0.8867191672325134 
vt 0.5651003122329712 0.8867191672325134 
vt 0.42341896891593933 0.8627065420150757 
vt 0.42341896891593933 0.9217216372489929 
vt 0.42127299308776855 0.8627065420150757 
vt 0.42127299308776855 0.9217216372489929 
vt 0.42341896891593933 0.9237372875213623 
vt 0.44716763496398926 0.9217216372489929 
vt 0.44716763496398926 0.9237372875213623 
vt 0.4492182433605194 0.9237372875213623 
vt 0.4492182433605194 0.9217216372489929 
vt 0.44716763496398926 0.8627065420150757 
vt 0.4492182433605194 0.8627065420150757 
vt 0.5460250973701477 0.9557950496673584 
vt 0.5427823066711426 0.9557950496673584 
vt 0.5460250973701477 0.9112401604652405 
vt 0.5427823066711426 0.9112401604652405 
vt 0.5460250973701477 0.883301317691803 
vt 0.5427823066711426 0.883301317691803 
vt 0.5460250973701477 0.8629518747329712 
vt 0.5427823066711426 0.8629518747329712 
vt 0.5027719736099243 0.9256477952003479 
vt 0.4264233112335205 0.9576705098152161 
vt 0.42127299308776855 0.9237372875213623 
vt 0.3955691158771515 0.9316596984863281 
vt 0.4822660982608795 0.9986147284507751 
s on 
f 1/1/1 2/2/2 3/3/3 
f 2/2/2 4/4/4 3/3/3 
f 3/3/3 4/4/4 4/4/4 
f 4/4/4 2/2/2 4/4/4 
f 4/4/4 2/2/2 2/2/2 
f 2/2/2 5/5/5 2/2/2 
f 2/2/2 5/5/5 4/4/4 
f 5/5/5 6/6/6 4/4/4 
f 4/4/4 6/6/6 7/7/7 
f 6/6/6 8/8/8 7/7/7 
f 7/7/7 8/8/8 9/9/9 
f 8/8/8 10/10/10 9/9/9 
f 9/9/9 10/10/10 11/11/11 
f 10/10/10 12/12/12 11/11/11 
f 11/11/11 12/12/12 13/13/13 
f 12/12/12 14/14/14 13/13/13 
f 13/13/13 14/14/14 14/14/14 
f 14/14/14 13/13/13 14/14/14 
f 14/14/14 13/13/13 13/13/13 
f 13/13/13 15/15/15 13/13/13 
f 13/13/13 15/15/15 11/11/11 
f 15/15/15 16/16/16 11/11/11 
f 11/11/11 16/16/16 16/16/16 
f 16/16/16 17/17/17 16/16/16 
f 16/16/16 17/17/17 17/17/17 
f 17/17/17 18/18/18 17/17/17 
f 17/17/17 18/18/18 19/19/19 
f 18/18/18 20/20/20 19/19/19 
f 19/19/19 20/20/20 20/20/20 
f 20/20/20 18/18/18 20/20/20 
f 20/20/20 18/18/18 18/18/18 
f 18/18/18 21/21/21 18/18/18 
f 18/18/18 21/21/21 20/20/20 
f 21/21/21 22/22/22 20/20/20 
f 20/20/20 22/22/22 22/22/22 
f 22/22/22 23/23/23 22/22/22 
f 22/22/22 23/23/23 23/23/23 
f 23/23/23 24/24/24 23/23/23 
f 23/23/23 24/24/24 25/25/25 
f 24/24/24 26/26/26 25/25/25 
f 25/25/25 26/26/26 27/27/27 
f 26/26/26 28/28/28 27/27/27 
f 27/27/27 28/28/28 29/29/29 
f 28/28/28 30/30/30 29/29/29 
f 29/29/29 30/30/30 31/31/31 
f 30/30/30 32/32/32 31/31/31 
f 31/31/31 32/32/32 33/33/33 
f 32/32/32 34/34/34 33/33/33 
f 33/33/33 34/34/34 34/34/34 
f 34/34/34 32/32/32 34/34/34 
f 34/34/34 32/32/32 32/32/32 
f 32/32/32 35/35/35 32/32/32 
f 32/32/32 35/35/35 34/34/34 
f 35/35/35 36/36/36 34/34/34 
f 34/34/34 36/36/36 36/36/36 
f 36/36/36 35/35/35 36/36/36 
f 36/36/36 35/35/35 37/37/37 
f 35/35/35 38/38/38 37/37/37 
f 37/37/37 38/38/38 38/38/38 
f 38/38/38 35/35/35 38/38/38 
f 38/38/38 35/35/35 35/35/35 
f 35/35/35 39/39/39 35/35/35 
f 35/35/35 39/39/39 38/38/38 
f 39/39/39 40/40/40 38/38/38 
f 38/38/38 40/40/40 41/41/41 
f 40/40/40 42/42/42 41/41/41 
f 41/41/41 42/42/42 43/43/43 
f 42/42/42 44/44/44 43/43/43 
f 43/43/43 44/44/44 45/45/45 
f 44/44/44 45/45/45 45/45/45 
f 45/45/45 45/45/45 42/42/42 
f 45/45/45 42/42/42 42/42/42 
f 42/42/42 42/42/42 42/42/42 
f 42/42/42 26/26/26 42/42/42 
f 42/42/42 26/26/26 44/44/44 
f 26/26/26 24/24/24 44/44/44 
f 44/44/44 24/24/24 24/24/24 
f 24/24/24 46/46/46 24/24/24 
f 24/24/24 46/46/46 46/46/46 
f 46/46/46 47/47/47 46/46/46 
f 46/46/46 47/47/47 48/48/48 
f 47/47/47 49/49/49 48/48/48 
f 48/48/48 49/49/49 49/49/49 
f 49/49/49 50/50/50 49/49/49 
f 49/49/49 50/50/50 50/50/50 
f 50/50/50 51/51/51 50/50/50 
f 50/50/50 51/51/51 52/52/52 
f 51/51/51 53/53/53 52/52/52 
f 52/52/52 53/53/53 54/54/54 
f 53/53/53 55/55/55 54/54/54 
f 54/54/54 55/55/55 56/56/56 
f 55/55/55 57/57/57 56/56/56 
f 56/56/56 57/57/57 57/57/57 
f 57/57/57 58/58/58 57/57/57 
f 57/57/57 58/58/58 58/58/58 
f 58/58/58 59/59/59 58/58/58 
f 58/58/58 59/59/59 60/60/60 
f 59/59/59 61/61/61 60/60/60 
f 60/60/60 61/61/61 62/62/62 
f 61/61/61 63/63/63 62/62/62 
f 62/62/62 63/63/63 64/64/64 
f 63/63/63 65/65/65 64/64/64 
f 64/64/64 65/65/65 66/66/66 
f 65/65/65 67/67/67 66/66/66 
f 66/66/66 67/67/67 68/68/68 
f 67/67/67 69/69/69 68/68/68 
f 68/68/68 69/69/69 69/69/69 
f 69/69/69 70/70/70 69/69/69 
f 69/69/69 70/70/70 70/70/70 
f 70/70/70 71/71/71 70/70/70 
f 70/70/70 71/71/71 72/72/72 
f 71/71/71 73/73/73 72/72/72 
f 72/72/72 73/73/73 73/73/73 
f 73/73/73 71/71/71 73/73/73 
f 73/73/73 71/71/71 71/71/71 
f 71/71/71 74/74/74 71/71/71 
f 71/71/71 74/74/74 73/73/73 
f 74/74/74 75/75/75 73/73/73 
f 73/73/73 75/75/75 75/75/75 
f 75/75/75 76/76/76 75/75/75 
f 75/75/75 76/76/76 76/76/76 
f 76/76/76 77/77/77 76/76/76 
f 76/76/76 77/77/77 78/78/78 
f 77/77/77 79/79/79 78/78/78 
f 78/78/78 79/79/79 79/79/79 
f 79/79/79 80/80/80 79/79/79 
f 79/79/79 80/80/80 80/80/80 
f 80/80/80 81/81/81 80/80/80 
f 80/80/80 81/81/81 82/82/82 
f 81/81/81 83/83/83 82/82/82 
f 82/82/82 83/83/83 84/84/84 
f 83/83/83 85/85/85 84/84/84 
f 84/84/84 85/85/85 86/86/86 
f 85/85/85 87/87/87 86/86/86 
f 86/86/86 87/87/87 87/87/87 
f 87/87/87 85/85/85 87/87/87 
f 87/87/87 85/85/85 88/88/88 
f 85/85/85 83/83/83 88/88/88 
f 88/88/88 83/83/83 89/89/89 
f 83/83/83 90/90/90 89/89/89 
f 89/89/89 90/90/90 91/91/91 
f 90/90/90 91/91/91 91/91/91 
f 91/91/91 91/91/91 91/91/91 
f 91/91/91 92/92/92 91/91/91 
f 91/91/91 92/92/92 89/89/89 
f 92/92/92 93/93/93 89/89/89 
f 89/89/89 93/93/93 88/88/88 
f 93/93/93 94/94/94 88/88/88 
f 88/88/88 94/94/94 87/87/87 
f 94/94/94 87/87/87 87/87/87 
f 87/87/87 87/87/87 95/95/95 
f 87/87/87 95/95/95 95/95/95 
f 95/95/95 95/95/95 95/95/95 
f 95/95/95 96/96/96 95/95/95 
f 95/95/95 96/96/96 97/97/97 
f 96/96/96 98/98/98 97/97/97 
f 97/97/97 98/98/98 99/99/99 
f 98/98/98 100/100/100 99/99/99 
f 99/99/99 100/100/100 101/101/101 
f 100/100/100 102/102/102 101/101/101 
f 101/101/101 102/102/102 103/103/103 
f 102/102/102 104/104/104 103/103/103 
f 103/103/103 104/104/104 105/105/105 
f 104/104/104 106/106/106 105/105/105 
f 105/105/105 106/106/106 106/106/106 
f 106/106/106 107/107/107 106/106/106 
f 106/106/106 107/107/107 107/107/107 
f 107/107/107 108/108/108 107/107/107 
f 107/107/107 108/108/108 109/109/109 
f 108/108/108 110/110/110 109/109/109 
f 109/109/109 110/110/110 110/110/110 
f 110/110/110 111/111/111 110/110/110 
f 110/110/110 111/111/111 111/111/111 
f 111/111/111 112/112/112 111/111/111 
f 111/111/111 112/112/112 113/113/113 
f 112/112/112 114/114/114 113/113/113 
f 113/113/113 114/114/114 114/114/114 
f 114/114/114 115/115/115 114/114/114 
f 114/114/114 115/115/115 115/115/115 
f 115/115/115 116/116/116 115/115/115 
f 115/115/115 116/116/116 117/117/117 
f 116/116/116 118/118/118 117/117/117 
f 117/117/117 118/118/118 118/118/118 
f 118/118/118 119/119/119 118/118/118 
f 118/118/118 119/119/119 119/119/119 
f 119/119/119 120/120/120 119/119/119 
f 119/119/119 120/120/120 121/121/121 
f 120/120/120 122/122/122 121/121/121 
f 121/121/121 122/122/122 123/123/123 
f 122/122/122 124/124/124 123/123/123 
f 123/123/123 124/124/124 124/124/124 
f 124/124/124 120/120/120 124/124/124 
f 124/124/124 120/120/120 120/120/120 
f 120/120/120 125/125/125 120/120/120 
f 120/120/120 125/125/125 122/122/122 
f 125/125/125 126/126/126 122/122/122 
f 122/122/122 126/126/126 124/124/124 
f 126/126/126 124/124/124 124/124/124 
f 124/124/124 124/124/124 120/120/120 
f 124/124/124 120/120/120 120/120/120 
f 120/120/120 120/120/120 120/120/120 
f 120/120/120 127/127/127 120/120/120 
f 120/120/120 127/127/127 125/125/125 
f 127/127/127 128/128/128 125/125/125 
f 125/125/125 128/128/128 129/129/129 
f 128/128/128 129/129/129 129/129/129 
f 129/129/129 129/129/129 130/130/130 
f 129/129/129 130/130/130 130/130/130 
f 130/130/130 130/130/130 130/130/130 
f 130/130/130 131/131/131 130/130/130 
f 130/130/130 131/131/131 132/132/132 
f 131/131/131 133/133/133 132/132/132 
f 132/132/132 133/133/133 134/134/134 
f 133/133/133 135/135/135 134/134/134 
f 134/134/134 135/135/135 136/136/136 
f 135/135/135 137/137/137 136/136/136 
f 136/136/136 137/137/137 137/137/137 
f 137/137/137 138/138/138 137/137/137 
f 137/137/137 138/138/138 138/138/138 
f 138/138/138 139/139/139 138/138/138 
f 138/138/138 139/139/139 140/140/140 
f 139/139/139 141/141/141 140/140/140 
f 140/140/140 141/141/141 141/141/141 
f 141/141/141 142/142/142 141/141/141 
f 141/141/141 142/142/142 142/142/142 
f 142/142/142 143/143/143 142/142/142 
f 142/142/142 143/143/143 144/144/144 
f 143/143/143 145/145/145 144/144/144 
f 144/144/144 145/145/145 145/145/145 
f 145/145/145 146/146/146 145/145/145 
f 145/145/145 146/146/146 146/146/146 
f 146/146/146 147/147/147 146/146/146 
f 146/146/146 147/147/147 148/148/148 
f 147/147/147 149/149/149 148/148/148 
f 148/148/148 149/149/149 150/150/150 
f 149/149/149 151/151/151 150/150/150 
f 150/150/150 151/151/151 151/151/151 
f 151/151/151 149/149/149 151/151/151 
f 151/151/151 149/149/149 152/152/152 
f 149/149/149 147/147/147 152/152/152 
f 152/152/152 147/147/147 153/153/153 
f 147/147/147 153/153/153 153/153/153 
f 153/153/153 153/153/153 153/153/153 
f 153/153/153 154/154/154 153/153/153 
f 153/153/153 154/154/154 152/152/152 
f 154/154/154 155/155/155 152/152/152 
f 152/152/152 155/155/155 151/151/151 
f 155/155/155 156/156/156 151/151/151 
f 151/151/151 156/156/156 156/156/156 
f 156/156/156 157/157/157 156/156/156 
f 156/156/156 157/157/157 157/157/157 
f 157/157/157 158/158/158 157/157/157 
f 157/157/157 158/158/158 159/159/159 
f 158/158/158 160/160/160 159/159/159 
f 159/159/159 160/160/160 161/161/161 
f 160/160/160 162/162/162 161/161/161 
f 161/161/161 162/162/162 163/163/163 
f 162/162/162 164/164/164 163/163/163 
f 163/163/163 164/164/164 164/164/164 
f 164/164/164 165/165/165 164/164/164 
f 164/164/164 165/165/165 165/165/165 
f 165/165/165 166/166/166 165/165/165 
f 165/165/165 166/166/166 167/167/167 
f 166/166/166 168/168/168 167/167/167 
f 167/167/167 168/168/168 169/169/169 
f 168/168/168 170/170/170 169/169/169 
f 169/169/169 170/170/170 171/171/171 
f 170/170/170 172/172/172 171/171/171 
f 171/171/171 172/172/172 172/172/172 
f 172/172/172 173/173/173 172/172/172 
f 172/172/172 173/173/173 173/173/173 
f 173/173/173 174/174/174 173/173/173 
f 173/173/173 174/174/174 175/175/175 
f 174/174/174 176/176/176 175/175/175 
f 175/175/175 176/176/176 177/177/177 
f 176/176/176 178/178/178 177/177/177 
f 177/177/177 178/178/178 179/179/179 
f 178/178/178 180/180/180 179/179/179 
f 179/179/179 180/180/180 180/180/180 
f 180/180/180 174/174/174 180/180/180 
f 180/180/180 174/174/174 174/174/174 
f 174/174/174 181/181/181 174/174/174 
f 174/174/174 181/181/181 176/176/176 
f 181/181/181 182/182/182 176/176/176 
f 176/176/176 182/182/182 178/178/178 
f 182/182/182 183/183/183 178/178/178 
f 178/178/178 183/183/183 180/180/180 
f 183/183/183 184/184/184 180/180/180 
f 180/180/180 184/184/184 184/184/184 
f 184/184/184 185/185/185 184/184/184 
f 184/184/184 185/185/185 185/185/185 
f 185/185/185 186/186/186 185/185/185 
f 185/185/185 186/186/186 187/187/187 
f 186/186/186 188/188/188 187/187/187 
f 187/187/187 188/188/188 188/188/188 
f 188/188/188 189/189/189 188/188/188 
f 188/188/188 189/189/189 189/189/189 
f 189/189/189 190/190/190 189/189/189 
f 189/189/189 190/190/190 191/191/191 
f 190/190/190 192/192/192 191/191/191 
f 191/191/191 192/192/192 192/192/192 
f 192/192/192 190/190/190 192/192/192 
f 192/192/192 190/190/190 193/193/193 
f 190/190/190 194/194/194 193/193/193 
f 193/193/193 194/194/194 195/195/195 
f 194/194/194 196/196/196 195/195/195 
f 195/195/195 196/196/196 196/196/196 
f 196/196/196 194/194/194 196/196/196 
f 196/196/196 194/194/194 197/197/197 
f 194/194/194 198/198/198 197/197/197 
f 197/197/197 198/198/198 199/199/199 
f 198/198/198 199/199/199 199/199/199 
f 199/199/199 199/199/199 200/200/200 
f 199/199/199 200/200/200 200/200/200 
f 200/200/200 200/200/200 200/200/200 
f 200/200/200 201/201/201 200/200/200 
f 200/200/200 201/201/201 202/202/202 
f 201/201/201 203/203/203 202/202/202 
f 202/202/202 203/203/203 204/204/204 
f 203/203/203 205/205/205 204/204/204 
f 204/204/204 205/205/205 206/206/206 
f 205/205/205 207/207/207 206/206/206 
f 83/83/83 81/81/81 90/90/90 
f 128/128/128 127/127/127 208/208/208 
f 94/94/94 93/93/93 209/209/209 
f 192/192/192 193/193/193 210/210/210 
f 129/129/129 126/126/126 125/125/125 
f 148/148/148 150/150/150 211/211/211 
f 36/36/36 37/37/37 212/212/212 

