mtllib model_11.mtl
o model_11
v -0.933525025844574 1.521567940711975 -44.099998474121094 
v -0.933525025844574 1.7517714500427246 -44.099998474121094 
v -0.933525025844574 1.521567940711975 -43.97073745727539 
v -0.933525025844574 1.521567940711975 -43.84147644042969 
v -0.933525025844574 1.3991920948028564 -44.099998474121094 
v -0.933525025844574 1.3991920948028564 -43.97073745727539 
v -0.933525025844574 0 -44.099998474121094 
v -0.933525025844574 1.3991920948028564 -43.84147644042969 
v -0.933525025844574 0 -43.84147644042969 
v -29.112749099731445 0 -43.84147644042969 
v -0.933525025844574 0 -43.84147644042969 
v -29.112749099731445 1.3991920948028564 -43.84147644042969 
v -0.933525025844574 1.3991920948028564 -43.84147644042969 
v -29.112749099731445 1.521567940711975 -43.84147644042969 
v -29.112749099731445 1.7517714500427246 -43.84147644042969 
v -29.112749099731445 1.521567940711975 -30.39820671081543 
v -29.112749099731445 1.7517714500427246 -30.39820671081543 
v 29.256450653076172 1.521567940711975 -43.97073745727539 
v 29.256450653076172 1.3991920948028564 -43.97073745727539 
v 29.256450653076172 1.521567940711975 43.970645904541016 
v 29.256450653076172 1.3991920948028564 43.970645904541016 
v -29.25637435913086 1.521567940711975 -43.97073745727539 
v -29.112749099731445 1.521567940711975 -43.84147644042969 
v -29.25637435913086 1.521567940711975 -30.39820671081543 
v -29.112749099731445 1.521567940711975 -30.39820671081543 
v -29.112749099731445 1.3991920948028564 -43.84147644042969 
v -29.25637435913086 1.3991920948028564 -43.97073745727539 
v -29.112749099731445 1.3991920948028564 -30.39820671081543 
v -29.25637435913086 1.3991920948028564 -30.39820671081543 
v -29.25637435913086 1.521567940711975 -30.39820671081543 
v -29.25637435913086 1.3991920948028564 -30.39820671081543 
v -29.25637435913086 1.521567940711975 -43.97073745727539 
v -29.25637435913086 1.3991920948028564 -43.97073745727539 
v -29.112749099731445 1.7517714500427246 -30.39820671081543 
v -29.399999618530273 1.7517714500427246 -30.39820671081543 
v -29.112749099731445 1.521567940711975 -30.39820671081543 
v -29.25637435913086 1.521567940711975 -30.39820671081543 
v -29.399999618530273 1.521567940711975 -30.39820671081543 
v -29.399999618530273 1.3991920948028564 -30.39820671081543 
v -29.25637435913086 1.3991920948028564 -30.39820671081543 
v -29.399999618530273 0 -30.39820671081543 
v -29.112749099731445 1.3991920948028564 -30.39820671081543 
v -29.112749099731445 0 -30.39820671081543 
v 29.112825393676758 0 -43.84147644042969 
v 29.112825393676758 1.3991920948028564 -43.84147644042969 
v 15.640800476074219 0 -43.84147644042969 
v 15.640800476074219 1.3991920948028564 -43.84147644042969 
v -29.399999618530273 1.7517714500427246 -30.39820671081543 
v -29.112749099731445 1.7517714500427246 -30.39820671081543 
v -29.399999618530273 1.7517714500427246 -44.099998474121094 
v -29.112749099731445 1.7517714500427246 -43.84147644042969 
v -29.112749099731445 1.3991920948028564 -30.39820671081543 
v -29.112749099731445 0 -30.39820671081543 
v -29.112749099731445 1.3991920948028564 -43.84147644042969 
v -29.112749099731445 0 -43.84147644042969 
v -29.112749099731445 0 -29.407196044921875 
v -29.399999618530273 0 -29.407196044921875 
v -29.112749099731445 1.3991920948028564 -29.407196044921875 
v -29.25637435913086 1.3991920948028564 -29.407196044921875 
v -29.399999618530273 1.3991920948028564 -29.407196044921875 
v -29.25637435913086 1.521567940711975 -29.407196044921875 
v -29.399999618530273 1.521567940711975 -29.407196044921875 
v -29.399999618530273 1.7517714500427246 -29.407196044921875 
v -29.112749099731445 1.521567940711975 -29.407196044921875 
v -29.112749099731445 1.7517714500427246 -29.407196044921875 
v -0.933525025844574 1.7517714500427246 -44.099998474121094 
v -29.399999618530273 1.7517714500427246 -44.099998474121094 
v -0.933525025844574 1.7517714500427246 -43.84147644042969 
v -29.112749099731445 1.7517714500427246 -43.84147644042969 
v 29.112825393676758 1.3991920948028564 43.84138488769531 
v 29.256450653076172 1.3991920948028564 43.970645904541016 
v 29.112825393676758 1.3991920948028564 -43.84147644042969 
v 29.256450653076172 1.3991920948028564 -43.97073745727539 
v -29.112749099731445 1.3991920948028564 6.355345249176025 
v -29.112749099731445 1.3991920948028564 -29.407196044921875 
v -29.25637435913086 1.3991920948028564 6.355345249176025 
v -29.25637435913086 1.3991920948028564 -29.407196044921875 
v -29.399999618530273 1.7517714500427246 6.355345249176025 
v -29.112749099731445 1.7517714500427246 6.355345249176025 
v -29.399999618530273 1.7517714500427246 -29.407196044921875 
v -29.112749099731445 1.7517714500427246 -29.407196044921875 
v 29.112825393676758 1.7517714500427246 -43.84147644042969 
v 29.400075912475586 1.7517714500427246 -44.099998474121094 
v 15.640800476074219 1.7517714500427246 -43.84147644042969 
v 15.640800476074219 1.7517714500427246 -44.099998474121094 
v 29.256450653076172 1.521567940711975 43.970645904541016 
v -29.25637435913086 1.521567940711975 43.970645904541016 
v 29.112825393676758 1.521567940711975 43.84138488769531 
v -29.112749099731445 1.521567940711975 43.84138488769531 
v 29.112825393676758 1.3991920948028564 43.84138488769531 
v 29.112825393676758 0 43.84138488769531 
v -29.112749099731445 1.3991920948028564 43.84138488769531 
v -29.112749099731445 0 43.84138488769531 
v -29.112749099731445 1.3991920948028564 43.84138488769531 
v -29.112749099731445 1.3991920948028564 7.346355438232422 
v -29.25637435913086 1.3991920948028564 43.970645904541016 
v -29.25637435913086 1.3991920948028564 7.346355438232422 
v -29.25637435913086 1.3991920948028564 43.970645904541016 
v -29.25637435913086 1.3991920948028564 7.346355438232422 
v -29.25637435913086 1.521567940711975 43.970645904541016 
v -29.25637435913086 1.521567940711975 7.346355438232422 
v -29.112749099731445 1.7517714500427246 7.346355438232422 
v -29.112749099731445 1.521567940711975 7.346355438232422 
v -29.399999618530273 1.7517714500427246 7.346355438232422 
v -29.25637435913086 1.521567940711975 7.346355438232422 
v -29.399999618530273 1.521567940711975 7.346355438232422 
v -29.399999618530273 1.3991920948028564 7.346355438232422 
v -29.25637435913086 1.3991920948028564 7.346355438232422 
v -29.399999618530273 0 7.346355438232422 
v -29.112749099731445 1.3991920948028564 7.346355438232422 
v -29.112749099731445 0 7.346355438232422 
v -29.112749099731445 1.7517714500427246 7.346355438232422 
v -29.112749099731445 1.7517714500427246 43.84138488769531 
v -29.112749099731445 1.521567940711975 7.346355438232422 
v -29.112749099731445 1.521567940711975 43.84138488769531 
v -29.112749099731445 1.7517714500427246 43.84138488769531 
v -29.112749099731445 1.7517714500427246 7.346355438232422 
v -29.399999618530273 1.7517714500427246 44.09990692138672 
v -29.399999618530273 1.7517714500427246 7.346355438232422 
v 29.256450653076172 1.521567940711975 43.970645904541016 
v 29.256450653076172 1.3991920948028564 43.970645904541016 
v -29.25637435913086 1.521567940711975 43.970645904541016 
v -29.25637435913086 1.3991920948028564 43.970645904541016 
v 29.112825393676758 1.7517714500427246 43.84138488769531 
v 29.112825393676758 1.521567940711975 43.84138488769531 
v -29.112749099731445 1.7517714500427246 43.84138488769531 
v -29.112749099731445 1.521567940711975 43.84138488769531 
v 29.400075912475586 1.7517714500427246 44.09990692138672 
v 29.112825393676758 1.7517714500427246 43.84138488769531 
v -29.399999618530273 1.7517714500427246 44.09990692138672 
v -29.112749099731445 1.7517714500427246 43.84138488769531 
v 29.256450653076172 1.3991920948028564 43.970645904541016 
v 29.112825393676758 1.3991920948028564 43.84138488769531 
v -29.25637435913086 1.3991920948028564 43.970645904541016 
v -29.112749099731445 1.3991920948028564 43.84138488769531 
v -29.25637435913086 1.521567940711975 43.970645904541016 
v -29.25637435913086 1.521567940711975 7.346355438232422 
v -29.112749099731445 1.521567940711975 43.84138488769531 
v -29.112749099731445 1.521567940711975 7.346355438232422 
v -29.25637435913086 1.521567940711975 -29.407196044921875 
v -29.25637435913086 1.521567940711975 6.355345249176025 
v -29.25637435913086 1.3991920948028564 -29.407196044921875 
v -29.25637435913086 1.3991920948028564 6.355345249176025 
v 29.112825393676758 1.7517714500427246 -43.84147644042969 
v 29.112825393676758 1.521567940711975 -43.84147644042969 
v 29.112825393676758 1.7517714500427246 43.84138488769531 
v 29.112825393676758 1.521567940711975 43.84138488769531 
v 29.400075912475586 1.7517714500427246 -44.099998474121094 
v 29.112825393676758 1.7517714500427246 -43.84147644042969 
v 29.400075912475586 1.7517714500427246 44.09990692138672 
v 29.112825393676758 1.7517714500427246 43.84138488769531 
v 29.112825393676758 1.3991920948028564 -43.84147644042969 
v 29.112825393676758 0 -43.84147644042969 
v 29.112825393676758 1.3991920948028564 43.84138488769531 
v 29.112825393676758 0 43.84138488769531 
v 29.256450653076172 1.3991920948028564 43.970645904541016 
v 29.400075912475586 1.3991920948028564 44.09990692138672 
v 29.256450653076172 1.521567940711975 43.970645904541016 
v 29.400075912475586 1.521567940711975 44.09990692138672 
v 29.112825393676758 1.521567940711975 43.84138488769531 
v 29.112825393676758 1.521567940711975 -43.84147644042969 
v 29.256450653076172 1.521567940711975 43.970645904541016 
v 29.256450653076172 1.521567940711975 -43.97073745727539 
v 29.112825393676758 1.7517714500427246 43.84138488769531 
v 29.112825393676758 1.521567940711975 43.84138488769531 
v 29.400075912475586 1.7517714500427246 44.09990692138672 
v 29.256450653076172 1.521567940711975 43.970645904541016 
v 29.400075912475586 1.521567940711975 44.09990692138672 
v -29.112749099731445 1.521567940711975 6.355345249176025 
v -29.112749099731445 1.521567940711975 -29.407196044921875 
v -29.112749099731445 1.7517714500427246 6.355345249176025 
v -29.112749099731445 1.7517714500427246 -29.407196044921875 
v 15.640800476074219 1.521567940711975 -43.84147644042969 
v 15.640800476074219 1.521567940711975 -43.97073745727539 
v 29.112825393676758 1.521567940711975 -43.84147644042969 
v 29.256450653076172 1.521567940711975 -43.97073745727539 
v 29.112825393676758 1.3991920948028564 -43.84147644042969 
v 29.256450653076172 1.3991920948028564 -43.97073745727539 
v 15.640800476074219 1.3991920948028564 -43.84147644042969 
v 15.640800476074219 1.3991920948028564 -43.97073745727539 
v 29.256450653076172 1.3991920948028564 -43.97073745727539 
v 29.256450653076172 1.521567940711975 -43.97073745727539 
v 15.640800476074219 1.3991920948028564 -43.97073745727539 
v 15.640800476074219 1.521567940711975 -43.97073745727539 
v -29.112749099731445 0 43.84138488769531 
v -29.112749099731445 0 7.346355438232422 
v -29.112749099731445 1.3991920948028564 43.84138488769531 
v -29.112749099731445 1.3991920948028564 7.346355438232422 
v 15.640800476074219 1.7517714500427246 -43.84147644042969 
v 15.640800476074219 1.521567940711975 -43.84147644042969 
v 29.112825393676758 1.7517714500427246 -43.84147644042969 
v 29.112825393676758 1.521567940711975 -43.84147644042969 
v -29.112749099731445 0 6.355345249176025 
v -29.112749099731445 0 -29.407196044921875 
v -29.112749099731445 1.3991920948028564 6.355345249176025 
v -29.112749099731445 1.3991920948028564 -29.407196044921875 
v 15.640800476074219 1.3991920948028564 -44.099998474121094 
v 15.640800476074219 0 -44.099998474121094 
v 15.640800476074219 1.3991920948028564 -43.97073745727539 
v 15.640800476074219 1.3991920948028564 -43.84147644042969 
v -0.933525025844574 1.7517714500427246 -43.84147644042969 
v -29.112749099731445 1.7517714500427246 -43.84147644042969 
v -0.933525025844574 1.521567940711975 -43.84147644042969 
v -29.112749099731445 1.521567940711975 -43.84147644042969 
v -0.933525025844574 1.521567940711975 -43.97073745727539 
v -0.933525025844574 1.3991920948028564 -43.97073745727539 
v -0.933525025844574 1.521567940711975 -43.84147644042969 
v -29.112749099731445 1.521567940711975 -43.84147644042969 
v -0.933525025844574 1.521567940711975 -43.97073745727539 
v -29.25637435913086 1.521567940711975 -43.97073745727539 
v -29.112749099731445 1.3991920948028564 -43.84147644042969 
v -0.933525025844574 1.3991920948028564 -43.84147644042969 
v -29.25637435913086 1.3991920948028564 -43.97073745727539 
v -0.933525025844574 1.3991920948028564 -43.97073745727539 
v 29.112825393676758 0 43.84138488769531 
v 29.400075912475586 0 44.09990692138672 
v 29.112825393676758 1.3991920948028564 43.84138488769531 
v 29.256450653076172 1.3991920948028564 43.970645904541016 
v -29.112749099731445 0 6.355345249176025 
v -29.112749099731445 1.3991920948028564 6.355345249176025 
v -29.399999618530273 0 6.355345249176025 
v -29.25637435913086 1.3991920948028564 6.355345249176025 
v -29.399999618530273 1.3991920948028564 6.355345249176025 
v -29.25637435913086 1.521567940711975 6.355345249176025 
v -29.399999618530273 1.521567940711975 6.355345249176025 
v -29.399999618530273 1.7517714500427246 6.355345249176025 
v -29.112749099731445 1.521567940711975 6.355345249176025 
v -29.112749099731445 1.7517714500427246 6.355345249176025 
v -29.112749099731445 1.521567940711975 6.355345249176025 
v -29.25637435913086 1.521567940711975 6.355345249176025 
v -29.112749099731445 1.521567940711975 -29.407196044921875 
v -29.25637435913086 1.521567940711975 -29.407196044921875 
v -29.25637435913086 1.3991920948028564 -43.97073745727539 
v -0.933525025844574 1.3991920948028564 -43.97073745727539 
v -29.25637435913086 1.521567940711975 -43.97073745727539 
v -0.933525025844574 1.521567940711975 -43.97073745727539 
v 15.640800476074219 1.7517714500427246 -43.84147644042969 
v 15.640800476074219 1.7517714500427246 -44.099998474121094 
v 15.640800476074219 1.521567940711975 -43.84147644042969 
v 15.640800476074219 1.521567940711975 -43.97073745727539 
v 15.640800476074219 1.521567940711975 -44.099998474121094 
v 15.640800476074219 1.3991920948028564 -43.97073745727539 
v 29.400075912475586 1.3991920948028564 44.09990692138672 
v -0.933525025844574 1.7517714500427246 -43.84147644042969 
v 15.640800476074219 0 -43.84147644042969 
vn 0.999997615814209 0 0.002184694167226553 
vn 0.999997615814209 0 0.002184694167226553 
vn 0.999997615814209 0 0.002184694167226553 
vn 0.999997615814209 0 0.002184694167226553 
vn 0.999997615814209 0 0.002184694167226553 
vn 0.999997615814209 0 0.002184694167226553 
vn 0.999997615814209 0 0.002184694167226553 
vn 0.999997615814209 0 0.002184694167226553 
vn 0.999997615814209 0 0.002184694167226553 
vn 0 0 1 
vn 0 0 1 
vn 0 0 1 
vn 0 0 1 
vn 0.999997615814209 0 0.002184694167226553 
vn 0.999997615814209 0 0.002184694167226553 
vn 0.999997615814209 0 0.002184694167226553 
vn 0.999997615814209 0 0.002184694167226553 
vn -0.999997615814209 -2.0682260971124217e-13 0.002184694167226553 
vn -0.999997615814209 -2.0682260971124217e-13 0.002184694167226553 
vn -0.999997615814209 -2.0682260971124217e-13 0.002184694167226553 
vn -0.999997615814209 -2.0682260971124217e-13 0.002184694167226553 
vn 3.097898456858039e-13 -0.999997615814209 0.002184694167226553 
vn 3.097898456858039e-13 -0.999997615814209 0.002184694167226553 
vn 3.097898456858039e-13 -0.999997615814209 0.002184694167226553 
vn 3.097898456858039e-13 -0.999997615814209 0.002184694167226553 
vn -1.0341130485562108e-13 0.999997615814209 0.002184694167226553 
vn -1.0341130485562108e-13 0.999997615814209 0.002184694167226553 
vn -1.0341130485562108e-13 0.999997615814209 0.002184694167226553 
vn -1.0341130485562108e-13 0.999997615814209 0.002184694167226553 
vn 0.999997615814209 0 -0.002184694167226553 
vn 0.999997615814209 0 -0.002184694167226553 
vn 0.999997615814209 0 -0.002184694167226553 
vn 0.999997615814209 0 -0.002184694167226553 
vn 0 0 1 
vn 0 0 1 
vn 0 0 1 
vn 0 0 1 
vn 0 0 1 
vn 0 0 1 
vn 0 0 1 
vn 0 0 1 
vn 0 0 1 
vn 0 0 1 
vn 0 0 1 
vn 0 0 1 
vn 0 0 1 
vn 0 0 1 
vn -1.0341130485562108e-13 0.999997615814209 0.002184694167226553 
vn -1.0341130485562108e-13 0.999997615814209 0.002184694167226553 
vn -1.0341130485562108e-13 0.999997615814209 0.002184694167226553 
vn -1.0341130485562108e-13 0.999997615814209 0.002184694167226553 
vn 0.999997615814209 0 0.002184694167226553 
vn 0.999997615814209 0 0.002184694167226553 
vn 0.999997615814209 0 0.002184694167226553 
vn 0.999997615814209 0 0.002184694167226553 
vn -2.0682311115474694e-13 0 -1 
vn -2.0682311115474694e-13 0 -1 
vn -2.0682311115474694e-13 0 -1 
vn -2.0682311115474694e-13 0 -1 
vn -2.0682311115474694e-13 0 -1 
vn -2.0682311115474694e-13 0 -1 
vn -2.0682311115474694e-13 0 -1 
vn -2.0682311115474694e-13 0 -1 
vn -2.0682311115474694e-13 0 -1 
vn -2.0682311115474694e-13 0 -1 
vn -1.0341130485562108e-13 0.999997615814209 0.002184694167226553 
vn -1.0341130485562108e-13 0.999997615814209 0.002184694167226553 
vn -1.0341130485562108e-13 0.999997615814209 0.002184694167226553 
vn -1.0341130485562108e-13 0.999997615814209 0.002184694167226553 
vn -1.0341130485562108e-13 0.999997615814209 0.002184694167226553 
vn -1.0341130485562108e-13 0.999997615814209 0.002184694167226553 
vn -1.0341130485562108e-13 0.999997615814209 0.002184694167226553 
vn -1.0341130485562108e-13 0.999997615814209 0.002184694167226553 
vn -1.0341130485562108e-13 0.999997615814209 0.002184694167226553 
vn -1.0341130485562108e-13 0.999997615814209 0.002184694167226553 
vn -1.0341130485562108e-13 0.999997615814209 0.002184694167226553 
vn -1.0341130485562108e-13 0.999997615814209 0.002184694167226553 
vn -1.0341130485562108e-13 0.999997615814209 0.002184694167226553 
vn -1.0341130485562108e-13 0.999997615814209 0.002184694167226553 
vn -1.0341130485562108e-13 0.999997615814209 0.002184694167226553 
vn -1.0341130485562108e-13 0.999997615814209 0.002184694167226553 
vn -1.0341130485562108e-13 0.999997615814209 0.002184694167226553 
vn -1.0341130485562108e-13 0.999997615814209 0.002184694167226553 
vn -1.0341130485562108e-13 0.999997615814209 0.002184694167226553 
vn -1.0341130485562108e-13 0.999997615814209 0.002184694167226553 
vn 3.097898456858039e-13 -0.999997615814209 -0.002184694167226553 
vn 3.097898456858039e-13 -0.999997615814209 -0.002184694167226553 
vn 3.097898456858039e-13 -0.999997615814209 -0.002184694167226553 
vn 3.097898456858039e-13 -0.999997615814209 -0.002184694167226553 
vn -2.0682311115474694e-13 0 -1 
vn -2.0682311115474694e-13 0 -1 
vn -2.0682311115474694e-13 0 -1 
vn -2.0682311115474694e-13 0 -1 
vn -1.0341130485562108e-13 0.999997615814209 0.002184694167226553 
vn -1.0341130485562108e-13 0.999997615814209 0.002184694167226553 
vn -1.0341130485562108e-13 0.999997615814209 0.002184694167226553 
vn -1.0341130485562108e-13 0.999997615814209 0.002184694167226553 
vn 0.999997615814209 0 0.002184694167226553 
vn 0.999997615814209 0 0.002184694167226553 
vn 0.999997615814209 0 0.002184694167226553 
vn 0.999997615814209 0 0.002184694167226553 
vn -2.0682311115474694e-13 0 -1 
vn -2.0682311115474694e-13 0 -1 
vn -2.0682311115474694e-13 0 -1 
vn -2.0682311115474694e-13 0 -1 
vn -2.0682311115474694e-13 0 -1 
vn -2.0682311115474694e-13 0 -1 
vn -2.0682311115474694e-13 0 -1 
vn -2.0682311115474694e-13 0 -1 
vn -2.0682311115474694e-13 0 -1 
vn -2.0682311115474694e-13 0 -1 
vn 0.999997615814209 0 -0.002184694167226553 
vn 0.999997615814209 0 -0.002184694167226553 
vn 0.999997615814209 0 -0.002184694167226553 
vn 0.999997615814209 0 -0.002184694167226553 
vn -1.0341130485562108e-13 0.999997615814209 -0.002184694167226553 
vn -1.0341130485562108e-13 0.999997615814209 -0.002184694167226553 
vn -1.0341130485562108e-13 0.999997615814209 -0.002184694167226553 
vn -1.0341130485562108e-13 0.999997615814209 -0.002184694167226553 
vn -2.0682311115474694e-13 0 -1 
vn -2.0682311115474694e-13 0 -1 
vn -2.0682311115474694e-13 0 -1 
vn -2.0682311115474694e-13 0 -1 
vn -2.0682311115474694e-13 0 -1 
vn -2.0682311115474694e-13 0 -1 
vn -2.0682311115474694e-13 0 -1 
vn -2.0682311115474694e-13 0 -1 
vn -1.0341130485562108e-13 0.999997615814209 0.002184694167226553 
vn -1.0341130485562108e-13 0.999997615814209 0.002184694167226553 
vn -1.0341130485562108e-13 0.999997615814209 0.002184694167226553 
vn -1.0341130485562108e-13 0.999997615814209 0.002184694167226553 
vn -1.0341130485562108e-13 0.999997615814209 0.002184694167226553 
vn -1.0341130485562108e-13 0.999997615814209 0.002184694167226553 
vn -1.0341130485562108e-13 0.999997615814209 0.002184694167226553 
vn -1.0341130485562108e-13 0.999997615814209 0.002184694167226553 
vn 3.097898456858039e-13 -0.999997615814209 0.002184694167226553 
vn 3.097898456858039e-13 -0.999997615814209 0.002184694167226553 
vn 3.097898456858039e-13 -0.999997615814209 0.002184694167226553 
vn 3.097898456858039e-13 -0.999997615814209 0.002184694167226553 
vn 0.999997615814209 0 0.002184694167226553 
vn 0.999997615814209 0 0.002184694167226553 
vn 0.999997615814209 0 0.002184694167226553 
vn 0.999997615814209 0 0.002184694167226553 
vn -0.999997615814209 -2.0682260971124217e-13 0.002184694167226553 
vn -0.999997615814209 -2.0682260971124217e-13 0.002184694167226553 
vn -0.999997615814209 -2.0682260971124217e-13 0.002184694167226553 
vn -0.999997615814209 -2.0682260971124217e-13 0.002184694167226553 
vn -1.0341130485562108e-13 0.999997615814209 -0.002184694167226553 
vn -1.0341130485562108e-13 0.999997615814209 -0.002184694167226553 
vn -1.0341130485562108e-13 0.999997615814209 -0.002184694167226553 
vn -1.0341130485562108e-13 0.999997615814209 -0.002184694167226553 
vn -0.999997615814209 -2.0682260971124217e-13 0.002184694167226553 
vn -0.999997615814209 -2.0682260971124217e-13 0.002184694167226553 
vn -0.999997615814209 -2.0682260971124217e-13 0.002184694167226553 
vn -0.999997615814209 -2.0682260971124217e-13 0.002184694167226553 
vn -0.7078787684440613 -1.4640568759497624e-13 0.7063339352607727 
vn -0.7078787684440613 -1.4640568759497624e-13 0.7063339352607727 
vn -0.7078787684440613 -1.4640568759497624e-13 0.7063339352607727 
vn -0.7078787684440613 -1.4640568759497624e-13 0.7063339352607727 
vn 3.097898456858039e-13 -0.999997615814209 0.002184694167226553 
vn 3.097898456858039e-13 -0.999997615814209 0.002184694167226553 
vn 3.097898456858039e-13 -0.999997615814209 0.002184694167226553 
vn 3.097898456858039e-13 -0.999997615814209 0.002184694167226553 
vn -0.7078787684440613 -1.4640568759497624e-13 0.7063339352607727 
vn -0.7078787684440613 -1.4640568759497624e-13 0.7063339352607727 
vn -0.7078787684440613 -1.4640568759497624e-13 0.7063339352607727 
vn -0.7078787684440613 -1.4640568759497624e-13 0.7063339352607727 
vn -0.7078787684440613 -1.4640568759497624e-13 0.7063339352607727 
vn 0.999997615814209 0 0.002184694167226553 
vn 0.999997615814209 0 0.002184694167226553 
vn 0.999997615814209 0 0.002184694167226553 
vn 0.999997615814209 0 0.002184694167226553 
vn 3.097898456858039e-13 -0.999997615814209 0.002184694167226553 
vn 3.097898456858039e-13 -0.999997615814209 0.002184694167226553 
vn 3.097898456858039e-13 -0.999997615814209 0.002184694167226553 
vn 3.097898456858039e-13 -0.999997615814209 0.002184694167226553 
vn -1.0341130485562108e-13 0.999997615814209 0.002184694167226553 
vn -1.0341130485562108e-13 0.999997615814209 0.002184694167226553 
vn -1.0341130485562108e-13 0.999997615814209 0.002184694167226553 
vn -1.0341130485562108e-13 0.999997615814209 0.002184694167226553 
vn 0 0 1 
vn 0 0 1 
vn 0 0 1 
vn 0 0 1 
vn 0.999997615814209 0 -0.002184694167226553 
vn 0.999997615814209 0 -0.002184694167226553 
vn 0.999997615814209 0 -0.002184694167226553 
vn 0.999997615814209 0 -0.002184694167226553 
vn 0 0 1 
vn 0 0 1 
vn 0 0 1 
vn 0 0 1 
vn 0.999997615814209 0 0.002184694167226553 
vn 0.999997615814209 0 0.002184694167226553 
vn 0.999997615814209 0 0.002184694167226553 
vn 0.999997615814209 0 0.002184694167226553 
vn -0.999997615814209 -2.0682260971124217e-13 0.002184694167226553 
vn -0.999997615814209 -2.0682260971124217e-13 0.002184694167226553 
vn -0.999997615814209 -2.0682260971124217e-13 0.002184694167226553 
vn -0.999997615814209 -2.0682260971124217e-13 0.002184694167226553 
vn 0 0 1 
vn 0 0 1 
vn 0 0 1 
vn 0 0 1 
vn 0.999997615814209 0 0.002184694167226553 
vn 0.999997615814209 0 0.002184694167226553 
vn 3.097898456858039e-13 -0.999997615814209 0.002184694167226553 
vn 3.097898456858039e-13 -0.999997615814209 0.002184694167226553 
vn 3.097898456858039e-13 -0.999997615814209 0.002184694167226553 
vn 3.097898456858039e-13 -0.999997615814209 0.002184694167226553 
vn -1.0341130485562108e-13 0.999997615814209 0.002184694167226553 
vn -1.0341130485562108e-13 0.999997615814209 0.002184694167226553 
vn -1.0341130485562108e-13 0.999997615814209 0.002184694167226553 
vn -1.0341130485562108e-13 0.999997615814209 0.002184694167226553 
vn -0.7078787684440613 -1.4640568759497624e-13 0.7063339352607727 
vn -0.7078787684440613 -1.4640568759497624e-13 0.7063339352607727 
vn -0.7078787684440613 -1.4640568759497624e-13 0.7063339352607727 
vn -0.7078787684440613 -1.4640568759497624e-13 0.7063339352607727 
vn 0 0 1 
vn 0 0 1 
vn 0 0 1 
vn 0 0 1 
vn 0 0 1 
vn 0 0 1 
vn 0 0 1 
vn 0 0 1 
vn 0 0 1 
vn 0 0 1 
vn 3.097898456858039e-13 -0.999997615814209 0.002184694167226553 
vn 3.097898456858039e-13 -0.999997615814209 0.002184694167226553 
vn 3.097898456858039e-13 -0.999997615814209 0.002184694167226553 
vn 3.097898456858039e-13 -0.999997615814209 0.002184694167226553 
vn 0 0 1 
vn 0 0 1 
vn 0 0 1 
vn 0 0 1 
vn -0.999997615814209 -2.0682260971124217e-13 0.002184694167226553 
vn -0.999997615814209 -2.0682260971124217e-13 0.002184694167226553 
vn -0.999997615814209 -2.0682260971124217e-13 0.002184694167226553 
vn -0.999997615814209 -2.0682260971124217e-13 0.002184694167226553 
vn -0.999997615814209 -2.0682260971124217e-13 0.002184694167226553 
vn -0.999997615814209 -2.0682260971124217e-13 0.002184694167226553 
vn -0.7078787684440613 -1.4640568759497624e-13 0.7063339352607727 
vn 0.999997615814209 0 0.002184694167226553 
vn -0.999997615814209 -2.0682260971124217e-13 0.002184694167226553 
vt 0.6237550973892212 0.3863671123981476 
vt 0.6249802708625793 0.3863671123981476 
vt 0.6237550973892212 0.38710758090019226 
vt 0.6237550973892212 0.38786613941192627 
vt 0.6231133341789246 0.3863671123981476 
vt 0.6231133341789246 0.38710758090019226 
vt 0.6155291199684143 0.3863671123981476 
vt 0.6231133341789246 0.38786613941192627 
vt 0.6155291199684143 0.38786613941192627 
vt 0.4895142912864685 0.3461100161075592 
vt 0.3368380069732666 0.3461100161075592 
vt 0.4895142912864685 0.33852458000183105 
vt 0.3368380069732666 0.33852458000183105 
vt 0.5408536791801453 0.3907197117805481 
vt 0.5408536791801453 0.3894735276699066 
vt 0.6135455965995789 0.3907197117805481 
vt 0.6135455965995789 0.3894735276699066 
vt 0.8137691617012024 0.4693555533885956 
vt 0.8137691617012024 0.4700238108634949 
vt 0.33759641647338867 0.4693555533885956 
vt 0.33759641647338867 0.4700238108634949 
vt 0.5408536791801453 0.42014041543006897 
vt 0.5416120886802673 0.41938188672065735 
vt 0.6143040060997009 0.42014041543006897 
vt 0.6143040060997009 0.41938188672065735 
vt 0.6135455965995789 0.423698365688324 
vt 0.6143040060997009 0.4244568943977356 
vt 0.5408536791801453 0.423698365688324 
vt 0.5408536791801453 0.4244568943977356 
vt 0.610220193862915 0.364802747964859 
vt 0.610220193862915 0.3654709756374359 
vt 0.5367698669433594 0.364802747964859 
vt 0.5367698669433594 0.3654709756374359 
vt 0.6249802708625793 0.3647485673427582 
vt 0.6249802708625793 0.3662295341491699 
vt 0.6237550973892212 0.3647485673427582 
vt 0.6237550973892212 0.3655070960521698 
vt 0.6237550973892212 0.3662295341491699 
vt 0.6231133341789246 0.3662295341491699 
vt 0.6231133341789246 0.3655070960521698 
vt 0.6155291199684143 0.3662295341491699 
vt 0.6231133341789246 0.3647485673427582 
vt 0.6155291199684143 0.3647485673427582 
vt 0.5408536791801453 0.4158058762550354 
vt 0.5408536791801453 0.4082385003566742 
vt 0.6138955950737 0.4158058762550354 
vt 0.6138955950737 0.4082385003566742 
vt 0.5367698669433594 0.381906121969223 
vt 0.5367698669433594 0.38040709495544434 
vt 0.6109786033630371 0.381906121969223 
vt 0.609461784362793 0.38040709495544434 
vt 0.6135455965995789 0.3935191035270691 
vt 0.6135455965995789 0.40110453963279724 
vt 0.5408536791801453 0.3935191035270691 
vt 0.5408536791801453 0.40110453963279724 
vt 0.6249802708625793 0.3690650463104248 
vt 0.6249802708625793 0.3705640733242035 
vt 0.6174543499946594 0.3690650463104248 
vt 0.6174543499946594 0.3698236048221588 
vt 0.6174543499946594 0.3705640733242035 
vt 0.6167542934417725 0.3698236048221588 
vt 0.6167542934417725 0.3705640733242035 
vt 0.6155291199684143 0.3705640733242035 
vt 0.6167542934417725 0.3690650463104248 
vt 0.6155291199684143 0.3690650463104248 
vt 0.3368380069732666 0.3610461354255676 
vt 0.4909728169441223 0.3610461354255676 
vt 0.3368380069732666 0.3625451624393463 
vt 0.4895142912864685 0.3625451624393463 
vt 0.33759641647338867 0.46030721068382263 
vt 0.3368380069732666 0.4595305919647217 
vt 0.8123106360435486 0.46030721068382263 
vt 0.8130690455436707 0.4595305919647217 
vt 0.3368380069732666 0.3704376518726349 
vt 0.5304107666015625 0.3704376518726349 
vt 0.3368380069732666 0.3711962103843689 
vt 0.5304107666015625 0.3711962103843689 
vt 0.3368380069732666 0.38329678773880005 
vt 0.3368380069732666 0.3818158209323883 
vt 0.5304107666015625 0.38329678773880005 
vt 0.5304107666015625 0.3818158209323883 
vt 0.5382283926010132 0.38622263073921204 
vt 0.5367698669433594 0.3847416639328003 
vt 0.611328661441803 0.38622263073921204 
vt 0.611328661441803 0.3847416639328003 
vt 0.3368380069732666 0.4508795738220215 
vt 0.6538003087043762 0.4508795738220215 
vt 0.33759641647338867 0.45165616273880005 
vt 0.6530418992042542 0.45165616273880005 
vt 0.3368380069732666 0.43953749537467957 
vt 0.3368380069732666 0.4319520592689514 
vt 0.6522834897041321 0.43953749537467957 
vt 0.6522834897041321 0.4319520592689514 
vt 0.33759641647338867 0.4162754714488983 
vt 0.5351946949958801 0.4162754714488983 
vt 0.3368380069732666 0.4170520603656769 
vt 0.5351946949958801 0.4170520603656769 
vt 0.5351946949958801 0.4205016493797302 
vt 0.3368380069732666 0.4205016493797302 
vt 0.5351946949958801 0.4198514521121979 
vt 0.3368380069732666 0.4198514521121979 
vt 0.6155291199684143 0.377716064453125 
vt 0.6167542934417725 0.377716064453125 
vt 0.6155291199684143 0.3792150914669037 
vt 0.6167542934417725 0.378474622964859 
vt 0.6167542934417725 0.3792150914669037 
vt 0.6174543499946594 0.3792150914669037 
vt 0.6174543499946594 0.378474622964859 
vt 0.6249802708625793 0.3792150914669037 
vt 0.6174543499946594 0.377716064453125 
vt 0.6249802708625793 0.377716064453125 
vt 0.3368380069732666 0.39677000045776367 
vt 0.5344362854957581 0.39677000045776367 
vt 0.3368380069732666 0.39801618456840515 
vt 0.5344362854957581 0.39801618456840515 
vt 0.33835485577583313 0.4233371615409851 
vt 0.5358947515487671 0.4233371615409851 
vt 0.3368380069732666 0.4248361885547638 
vt 0.5358947515487671 0.4248361885547638 
vt 0.3368380069732666 0.4473216235637665 
vt 0.3368380069732666 0.4466533958911896 
vt 0.6538003087043762 0.4473216235637665 
vt 0.6538003087043762 0.4466533958911896 
vt 0.3368380069732666 0.4291526675224304 
vt 0.3368380069732666 0.42790648341178894 
vt 0.6522834897041321 0.4291526675224304 
vt 0.6522834897041321 0.42790648341178894 
vt 0.3368380069732666 0.4559726417064667 
vt 0.33835485577583313 0.454473614692688 
vt 0.65525883436203 0.4559726417064667 
vt 0.6538003087043762 0.454473614692688 
vt 0.3368380069732666 0.4438720643520355 
vt 0.33759641647338867 0.44309544563293457 
vt 0.6538003087043762 0.4438720643520355 
vt 0.6530418992042542 0.44309544563293457 
vt 0.5351946949958801 0.4127175211906433 
vt 0.3368380069732666 0.4127175211906433 
vt 0.5344362854957581 0.4119589626789093 
vt 0.3368380069732666 0.4119589626789093 
vt 0.3368380069732666 0.3739956021308899 
vt 0.5304107666015625 0.3739956021308899 
vt 0.3368380069732666 0.37464576959609985 
vt 0.5304107666015625 0.37464576959609985 
vt 0.8130106925964355 0.4681093692779541 
vt 0.8130106925964355 0.4693555533885956 
vt 0.33835485577583313 0.4681093692779541 
vt 0.33835485577583313 0.4693555533885956 
vt 0.814702570438385 0.4809143543243408 
vt 0.8131857514381409 0.4824133813381195 
vt 0.33701300621032715 0.4809143543243408 
vt 0.3385298550128937 0.4824133813381195 
vt 0.8130106925964355 0.4700238108634949 
vt 0.8130106925964355 0.477609246969223 
vt 0.33835485577583313 0.4700238108634949 
vt 0.33835485577583313 0.477609246969223 
vt 0.33759641647338867 0.4700238108634949 
vt 0.3368380069732666 0.4700238108634949 
vt 0.33759641647338867 0.4693555533885956 
vt 0.3368380069732666 0.4693555533885956 
vt 0.8123106360435486 0.46462368965148926 
vt 0.33759641647338867 0.46462368965148926 
vt 0.8130690455436707 0.46386513113975525 
vt 0.3368380069732666 0.46386513113975525 
vt 0.33835485577583313 0.4681093692779541 
vt 0.33835485577583313 0.4693555533885956 
vt 0.3368380069732666 0.4681093692779541 
vt 0.33759641647338867 0.4693555533885956 
vt 0.3368380069732666 0.4693555533885956 
vt 0.5304107666015625 0.3789803087711334 
vt 0.3368380069732666 0.3789803087711334 
vt 0.5304107666015625 0.37773412466049194 
vt 0.3368380069732666 0.37773412466049194 
vt 0.6106285452842712 0.3690289258956909 
vt 0.6106285452842712 0.3697874844074249 
vt 0.5375282764434814 0.3690289258956909 
vt 0.5367698669433594 0.3697874844074249 
vt 0.5375282764434814 0.3741220235824585 
vt 0.5367698669433594 0.3733634650707245 
vt 0.6106285452842712 0.3741220235824585 
vt 0.6106285452842712 0.3733634650707245 
vt 0.5367698669433594 0.37757158279418945 
vt 0.5367698669433594 0.3769214153289795 
vt 0.6106285452842712 0.37757158279418945 
vt 0.6106285452842712 0.3769214153289795 
vt 0.5344362854957581 0.4084010422229767 
vt 0.3368380069732666 0.4084010422229767 
vt 0.5344362854957581 0.40081557631492615 
vt 0.3368380069732666 0.40081557631492615 
vt 0.6138955950737 0.4041748642921448 
vt 0.6138955950737 0.40542104840278625 
vt 0.5408536791801453 0.4041929244995117 
vt 0.5408536791801453 0.40542104840278625 
vt 0.5304107666015625 0.3936816453933716 
vt 0.3368380069732666 0.3936816453933716 
vt 0.5304107666015625 0.3861142694950104 
vt 0.3368380069732666 0.3861142694950104 
vt 0.6231133341789246 0.3835316002368927 
vt 0.6155291199684143 0.3835316002368927 
vt 0.6231133341789246 0.3828091621398926 
vt 0.6231133341789246 0.38205063343048096 
vt 0.3368380069732666 0.3344790041446686 
vt 0.4895142912864685 0.3344790041446686 
vt 0.3368380069732666 0.33572518825531006 
vt 0.4895142912864685 0.33572518825531006 
vt 0.6237550973892212 0.38710758090019226 
vt 0.6231133341789246 0.38710758090019226 
vt 0.3368380069732666 0.3496679663658142 
vt 0.4895142912864685 0.3496679663658142 
vt 0.3368380069732666 0.35042649507522583 
vt 0.49027273058891296 0.35042649507522583 
vt 0.4895142912864685 0.3547610640525818 
vt 0.3368380069732666 0.3547610640525818 
vt 0.49027273058891296 0.3540025055408478 
vt 0.3368380069732666 0.3540025055408478 
vt 0.33835485577583313 0.477609246969223 
vt 0.3368380069732666 0.477609246969223 
vt 0.33835485577583313 0.4700238108634949 
vt 0.33759641647338867 0.4700238108634949 
vt 0.6155291199684143 0.3733995854854584 
vt 0.6231133341789246 0.3733995854854584 
vt 0.6155291199684143 0.3748805522918701 
vt 0.6231133341789246 0.3741581439971924 
vt 0.6231133341789246 0.3748805522918701 
vt 0.6237550973892212 0.3741581439971924 
vt 0.6237550973892212 0.3748805522918701 
vt 0.6249802708625793 0.3748805522918701 
vt 0.6237550973892212 0.3733995854854584 
vt 0.6249802708625793 0.3733995854854584 
vt 0.5304107666015625 0.3661031126976013 
vt 0.5304107666015625 0.36686164140701294 
vt 0.3368380069732666 0.3661031126976013 
vt 0.3368380069732666 0.36686164140701294 
vt 0.49027273058891296 0.35821062326431274 
vt 0.3368380069732666 0.35821062326431274 
vt 0.49027273058891296 0.3575604557991028 
vt 0.3368380069732666 0.3575604557991028 
vt 0.6249802708625793 0.38205063343048096 
vt 0.6249802708625793 0.3835316002368927 
vt 0.6237550973892212 0.38205063343048096 
vt 0.6237550973892212 0.3828091621398926 
vt 0.6237550973892212 0.3835316002368927 
vt 0.6231133341789246 0.3828091621398926 
vt 0.3368380069732666 0.4700238108634949 
vt 0.6249802708625793 0.38786613941192627 
vt 0.6155291199684143 0.38205063343048096 
s on 
f 1/1/1 2/2/2 3/3/3 
f 2/2/2 4/4/4 3/3/3 
f 3/3/3 4/4/4 4/4/4 
f 4/4/4 5/5/5 4/4/4 
f 4/4/4 5/5/5 5/5/5 
f 5/5/5 6/6/6 5/5/5 
f 5/5/5 6/6/6 7/7/7 
f 6/6/6 8/8/8 7/7/7 
f 7/7/7 8/8/8 9/9/9 
f 8/8/8 9/9/9 9/9/9 
f 9/9/9 9/9/9 10/10/10 
f 9/9/9 10/10/10 10/10/10 
f 10/10/10 10/10/10 10/10/10 
f 10/10/10 11/11/11 10/10/10 
f 10/10/10 11/11/11 12/12/12 
f 11/11/11 13/13/13 12/12/12 
f 12/12/12 13/13/13 13/13/13 
f 13/13/13 14/14/14 13/13/13 
f 13/13/13 14/14/14 14/14/14 
f 14/14/14 15/15/15 14/14/14 
f 14/14/14 15/15/15 16/16/16 
f 15/15/15 17/17/17 16/16/16 
f 16/16/16 17/17/17 17/17/17 
f 17/17/17 18/18/18 17/17/17 
f 17/17/17 18/18/18 18/18/18 
f 18/18/18 19/19/19 18/18/18 
f 18/18/18 19/19/19 20/20/20 
f 19/19/19 21/21/21 20/20/20 
f 20/20/20 21/21/21 21/21/21 
f 21/21/21 22/22/22 21/21/21 
f 21/21/21 22/22/22 22/22/22 
f 22/22/22 23/23/23 22/22/22 
f 22/22/22 23/23/23 24/24/24 
f 23/23/23 25/25/25 24/24/24 
f 24/24/24 25/25/25 25/25/25 
f 25/25/25 26/26/26 25/25/25 
f 25/25/25 26/26/26 26/26/26 
f 26/26/26 27/27/27 26/26/26 
f 26/26/26 27/27/27 28/28/28 
f 27/27/27 29/29/29 28/28/28 
f 28/28/28 29/29/29 29/29/29 
f 29/29/29 30/30/30 29/29/29 
f 29/29/29 30/30/30 30/30/30 
f 30/30/30 31/31/31 30/30/30 
f 30/30/30 31/31/31 32/32/32 
f 31/31/31 33/33/33 32/32/32 
f 32/32/32 33/33/33 33/33/33 
f 33/33/33 34/34/34 33/33/33 
f 33/33/33 34/34/34 34/34/34 
f 34/34/34 35/35/35 34/34/34 
f 34/34/34 35/35/35 36/36/36 
f 35/35/35 37/37/37 36/36/36 
f 36/36/36 37/37/37 37/37/37 
f 37/37/37 35/35/35 37/37/37 
f 37/37/37 35/35/35 35/35/35 
f 35/35/35 38/38/38 35/35/35 
f 35/35/35 38/38/38 37/37/37 
f 38/38/38 39/39/39 37/37/37 
f 37/37/37 39/39/39 40/40/40 
f 39/39/39 41/41/41 40/40/40 
f 40/40/40 41/41/41 42/42/42 
f 41/41/41 43/43/43 42/42/42 
f 42/42/42 43/43/43 43/43/43 
f 43/43/43 44/44/44 43/43/43 
f 43/43/43 44/44/44 44/44/44 
f 44/44/44 45/45/45 44/44/44 
f 44/44/44 45/45/45 46/46/46 
f 45/45/45 47/47/47 46/46/46 
f 46/46/46 47/47/47 47/47/47 
f 47/47/47 48/48/48 47/47/47 
f 47/47/47 48/48/48 48/48/48 
f 48/48/48 49/49/49 48/48/48 
f 48/48/48 49/49/49 50/50/50 
f 49/49/49 51/51/51 50/50/50 
f 50/50/50 51/51/51 51/51/51 
f 51/51/51 52/52/52 51/51/51 
f 51/51/51 52/52/52 52/52/52 
f 52/52/52 53/53/53 52/52/52 
f 52/52/52 53/53/53 54/54/54 
f 53/53/53 55/55/55 54/54/54 
f 54/54/54 55/55/55 55/55/55 
f 55/55/55 56/56/56 55/55/55 
f 55/55/55 56/56/56 56/56/56 
f 56/56/56 57/57/57 56/56/56 
f 56/56/56 57/57/57 58/58/58 
f 57/57/57 59/59/59 58/58/58 
f 58/58/58 59/59/59 59/59/59 
f 59/59/59 57/57/57 59/59/59 
f 59/59/59 57/57/57 57/57/57 
f 57/57/57 60/60/60 57/57/57 
f 57/57/57 60/60/60 59/59/59 
f 60/60/60 61/61/61 59/59/59 
f 59/59/59 61/61/61 61/61/61 
f 61/61/61 60/60/60 61/61/61 
f 61/61/61 60/60/60 60/60/60 
f 60/60/60 62/62/62 60/60/60 
f 60/60/60 62/62/62 61/61/61 
f 62/62/62 63/63/63 61/61/61 
f 61/61/61 63/63/63 64/64/64 
f 63/63/63 65/65/65 64/64/64 
f 64/64/64 65/65/65 65/65/65 
f 65/65/65 66/66/66 65/65/65 
f 65/65/65 66/66/66 66/66/66 
f 66/66/66 67/67/67 66/66/66 
f 66/66/66 67/67/67 68/68/68 
f 67/67/67 69/69/69 68/68/68 
f 68/68/68 69/69/69 69/69/69 
f 69/69/69 70/70/70 69/69/69 
f 69/69/69 70/70/70 70/70/70 
f 70/70/70 71/71/71 70/70/70 
f 70/70/70 71/71/71 72/72/72 
f 71/71/71 73/73/73 72/72/72 
f 72/72/72 73/73/73 73/73/73 
f 73/73/73 74/74/74 73/73/73 
f 73/73/73 74/74/74 74/74/74 
f 74/74/74 75/75/75 74/74/74 
f 74/74/74 75/75/75 76/76/76 
f 75/75/75 77/77/77 76/76/76 
f 76/76/76 77/77/77 77/77/77 
f 77/77/77 78/78/78 77/77/77 
f 77/77/77 78/78/78 78/78/78 
f 78/78/78 79/79/79 78/78/78 
f 78/78/78 79/79/79 80/80/80 
f 79/79/79 81/81/81 80/80/80 
f 80/80/80 81/81/81 81/81/81 
f 81/81/81 82/82/82 81/81/81 
f 81/81/81 82/82/82 82/82/82 
f 82/82/82 83/83/83 82/82/82 
f 82/82/82 83/83/83 84/84/84 
f 83/83/83 85/85/85 84/84/84 
f 84/84/84 85/85/85 85/85/85 
f 85/85/85 86/86/86 85/85/85 
f 85/85/85 86/86/86 86/86/86 
f 86/86/86 87/87/87 86/86/86 
f 86/86/86 87/87/87 88/88/88 
f 87/87/87 89/89/89 88/88/88 
f 88/88/88 89/89/89 89/89/89 
f 89/89/89 90/90/90 89/89/89 
f 89/89/89 90/90/90 90/90/90 
f 90/90/90 91/91/91 90/90/90 
f 90/90/90 91/91/91 92/92/92 
f 91/91/91 93/93/93 92/92/92 
f 92/92/92 93/93/93 93/93/93 
f 93/93/93 94/94/94 93/93/93 
f 93/93/93 94/94/94 94/94/94 
f 94/94/94 95/95/95 94/94/94 
f 94/94/94 95/95/95 96/96/96 
f 95/95/95 97/97/97 96/96/96 
f 96/96/96 97/97/97 97/97/97 
f 97/97/97 98/98/98 97/97/97 
f 97/97/97 98/98/98 98/98/98 
f 98/98/98 99/99/99 98/98/98 
f 98/98/98 99/99/99 100/100/100 
f 99/99/99 101/101/101 100/100/100 
f 100/100/100 101/101/101 101/101/101 
f 101/101/101 102/102/102 101/101/101 
f 101/101/101 102/102/102 102/102/102 
f 102/102/102 103/103/103 102/102/102 
f 102/102/102 103/103/103 104/104/104 
f 103/103/103 105/105/105 104/104/104 
f 104/104/104 105/105/105 106/106/106 
f 105/105/105 107/107/107 106/106/106 
f 106/106/106 107/107/107 107/107/107 
f 107/107/107 105/105/105 107/107/107 
f 107/107/107 105/105/105 105/105/105 
f 105/105/105 108/108/108 105/105/105 
f 105/105/105 108/108/108 107/107/107 
f 108/108/108 109/109/109 107/107/107 
f 107/107/107 109/109/109 109/109/109 
f 109/109/109 108/108/108 109/109/109 
f 109/109/109 108/108/108 108/108/108 
f 108/108/108 110/110/110 108/108/108 
f 108/108/108 110/110/110 109/109/109 
f 110/110/110 111/111/111 109/109/109 
f 109/109/109 111/111/111 111/111/111 
f 111/111/111 112/112/112 111/111/111 
f 111/111/111 112/112/112 112/112/112 
f 112/112/112 113/113/113 112/112/112 
f 112/112/112 113/113/113 114/114/114 
f 113/113/113 115/115/115 114/114/114 
f 114/114/114 115/115/115 115/115/115 
f 115/115/115 116/116/116 115/115/115 
f 115/115/115 116/116/116 116/116/116 
f 116/116/116 117/117/117 116/116/116 
f 116/116/116 117/117/117 118/118/118 
f 117/117/117 119/119/119 118/118/118 
f 118/118/118 119/119/119 119/119/119 
f 119/119/119 120/120/120 119/119/119 
f 119/119/119 120/120/120 120/120/120 
f 120/120/120 121/121/121 120/120/120 
f 120/120/120 121/121/121 122/122/122 
f 121/121/121 123/123/123 122/122/122 
f 122/122/122 123/123/123 123/123/123 
f 123/123/123 124/124/124 123/123/123 
f 123/123/123 124/124/124 124/124/124 
f 124/124/124 125/125/125 124/124/124 
f 124/124/124 125/125/125 126/126/126 
f 125/125/125 127/127/127 126/126/126 
f 126/126/126 127/127/127 127/127/127 
f 127/127/127 128/128/128 127/127/127 
f 127/127/127 128/128/128 128/128/128 
f 128/128/128 129/129/129 128/128/128 
f 128/128/128 129/129/129 130/130/130 
f 129/129/129 131/131/131 130/130/130 
f 130/130/130 131/131/131 131/131/131 
f 131/131/131 132/132/132 131/131/131 
f 131/131/131 132/132/132 132/132/132 
f 132/132/132 133/133/133 132/132/132 
f 132/132/132 133/133/133 134/134/134 
f 133/133/133 135/135/135 134/134/134 
f 134/134/134 135/135/135 135/135/135 
f 135/135/135 136/136/136 135/135/135 
f 135/135/135 136/136/136 136/136/136 
f 136/136/136 137/137/137 136/136/136 
f 136/136/136 137/137/137 138/138/138 
f 137/137/137 139/139/139 138/138/138 
f 138/138/138 139/139/139 139/139/139 
f 139/139/139 140/140/140 139/139/139 
f 139/139/139 140/140/140 140/140/140 
f 140/140/140 141/141/141 140/140/140 
f 140/140/140 141/141/141 142/142/142 
f 141/141/141 143/143/143 142/142/142 
f 142/142/142 143/143/143 143/143/143 
f 143/143/143 144/144/144 143/143/143 
f 143/143/143 144/144/144 144/144/144 
f 144/144/144 145/145/145 144/144/144 
f 144/144/144 145/145/145 146/146/146 
f 145/145/145 147/147/147 146/146/146 
f 146/146/146 147/147/147 147/147/147 
f 147/147/147 148/148/148 147/147/147 
f 147/147/147 148/148/148 148/148/148 
f 148/148/148 149/149/149 148/148/148 
f 148/148/148 149/149/149 150/150/150 
f 149/149/149 151/151/151 150/150/150 
f 150/150/150 151/151/151 151/151/151 
f 151/151/151 152/152/152 151/151/151 
f 151/151/151 152/152/152 152/152/152 
f 152/152/152 153/153/153 152/152/152 
f 152/152/152 153/153/153 154/154/154 
f 153/153/153 155/155/155 154/154/154 
f 154/154/154 155/155/155 155/155/155 
f 155/155/155 156/156/156 155/155/155 
f 155/155/155 156/156/156 156/156/156 
f 156/156/156 157/157/157 156/156/156 
f 156/156/156 157/157/157 158/158/158 
f 157/157/157 159/159/159 158/158/158 
f 158/158/158 159/159/159 159/159/159 
f 159/159/159 160/160/160 159/159/159 
f 159/159/159 160/160/160 160/160/160 
f 160/160/160 161/161/161 160/160/160 
f 160/160/160 161/161/161 162/162/162 
f 161/161/161 163/163/163 162/162/162 
f 162/162/162 163/163/163 163/163/163 
f 163/163/163 164/164/164 163/163/163 
f 163/163/163 164/164/164 164/164/164 
f 164/164/164 165/165/165 164/164/164 
f 164/164/164 165/165/165 166/166/166 
f 165/165/165 167/167/167 166/166/166 
f 166/166/166 167/167/167 168/168/168 
f 167/167/167 168/168/168 168/168/168 
f 168/168/168 168/168/168 169/169/169 
f 168/168/168 169/169/169 169/169/169 
f 169/169/169 169/169/169 169/169/169 
f 169/169/169 170/170/170 169/169/169 
f 169/169/169 170/170/170 171/171/171 
f 170/170/170 172/172/172 171/171/171 
f 171/171/171 172/172/172 172/172/172 
f 172/172/172 173/173/173 172/172/172 
f 172/172/172 173/173/173 173/173/173 
f 173/173/173 174/174/174 173/173/173 
f 173/173/173 174/174/174 175/175/175 
f 174/174/174 176/176/176 175/175/175 
f 175/175/175 176/176/176 176/176/176 
f 176/176/176 177/177/177 176/176/176 
f 176/176/176 177/177/177 177/177/177 
f 177/177/177 178/178/178 177/177/177 
f 177/177/177 178/178/178 179/179/179 
f 178/178/178 180/180/180 179/179/179 
f 179/179/179 180/180/180 180/180/180 
f 180/180/180 181/181/181 180/180/180 
f 180/180/180 181/181/181 181/181/181 
f 181/181/181 182/182/182 181/181/181 
f 181/181/181 182/182/182 183/183/183 
f 182/182/182 184/184/184 183/183/183 
f 183/183/183 184/184/184 184/184/184 
f 184/184/184 185/185/185 184/184/184 
f 184/184/184 185/185/185 185/185/185 
f 185/185/185 186/186/186 185/185/185 
f 185/185/185 186/186/186 187/187/187 
f 186/186/186 188/188/188 187/187/187 
f 187/187/187 188/188/188 188/188/188 
f 188/188/188 189/189/189 188/188/188 
f 188/188/188 189/189/189 189/189/189 
f 189/189/189 190/190/190 189/189/189 
f 189/189/189 190/190/190 191/191/191 
f 190/190/190 192/192/192 191/191/191 
f 191/191/191 192/192/192 192/192/192 
f 192/192/192 193/193/193 192/192/192 
f 192/192/192 193/193/193 193/193/193 
f 193/193/193 194/194/194 193/193/193 
f 193/193/193 194/194/194 195/195/195 
f 194/194/194 196/196/196 195/195/195 
f 195/195/195 196/196/196 196/196/196 
f 196/196/196 197/197/197 196/196/196 
f 196/196/196 197/197/197 197/197/197 
f 197/197/197 198/198/198 197/197/197 
f 197/197/197 198/198/198 199/199/199 
f 198/198/198 200/200/200 199/199/199 
f 199/199/199 200/200/200 200/200/200 
f 200/200/200 201/201/201 200/200/200 
f 200/200/200 201/201/201 201/201/201 
f 201/201/201 202/202/202 201/201/201 
f 201/201/201 202/202/202 203/203/203 
f 202/202/202 204/204/204 203/203/203 
f 203/203/203 204/204/204 204/204/204 
f 204/204/204 1/1/1 204/204/204 
f 204/204/204 1/1/1 1/1/1 
f 1/1/1 205/205/205 1/1/1 
f 1/1/1 205/205/205 5/5/5 
f 205/205/205 206/206/206 5/5/5 
f 5/5/5 206/206/206 206/206/206 
f 206/206/206 207/207/207 206/206/206 
f 206/206/206 207/207/207 207/207/207 
f 207/207/207 208/208/208 207/207/207 
f 207/207/207 208/208/208 209/209/209 
f 208/208/208 210/210/210 209/209/209 
f 209/209/209 210/210/210 210/210/210 
f 210/210/210 211/211/211 210/210/210 
f 210/210/210 211/211/211 211/211/211 
f 211/211/211 212/212/212 211/211/211 
f 211/211/211 212/212/212 213/213/213 
f 212/212/212 214/214/214 213/213/213 
f 213/213/213 214/214/214 214/214/214 
f 214/214/214 215/215/215 214/214/214 
f 214/214/214 215/215/215 215/215/215 
f 215/215/215 216/216/216 215/215/215 
f 215/215/215 216/216/216 217/217/217 
f 216/216/216 218/218/218 217/217/217 
f 217/217/217 218/218/218 218/218/218 
f 218/218/218 219/219/219 218/218/218 
f 218/218/218 219/219/219 219/219/219 
f 219/219/219 220/220/220 219/219/219 
f 219/219/219 220/220/220 221/221/221 
f 220/220/220 222/222/222 221/221/221 
f 221/221/221 222/222/222 223/223/223 
f 222/222/222 224/224/224 223/223/223 
f 223/223/223 224/224/224 225/225/225 
f 224/224/224 226/226/226 225/225/225 
f 225/225/225 226/226/226 226/226/226 
f 226/226/226 224/224/224 226/226/226 
f 226/226/226 224/224/224 224/224/224 
f 224/224/224 227/227/227 224/224/224 
f 224/224/224 227/227/227 226/226/226 
f 227/227/227 228/228/228 226/226/226 
f 226/226/226 228/228/228 228/228/228 
f 228/228/228 229/229/229 228/228/228 
f 228/228/228 229/229/229 229/229/229 
f 229/229/229 230/230/230 229/229/229 
f 229/229/229 230/230/230 231/231/231 
f 230/230/230 232/232/232 231/231/231 
f 231/231/231 232/232/232 232/232/232 
f 232/232/232 233/233/233 232/232/232 
f 232/232/232 233/233/233 233/233/233 
f 233/233/233 234/234/234 233/233/233 
f 233/233/233 234/234/234 235/235/235 
f 234/234/234 236/236/236 235/235/235 
f 235/235/235 236/236/236 236/236/236 
f 236/236/236 237/237/237 236/236/236 
f 236/236/236 237/237/237 237/237/237 
f 237/237/237 238/238/238 237/237/237 
f 237/237/237 238/238/238 239/239/239 
f 238/238/238 240/240/240 239/239/239 
f 239/239/239 240/240/240 240/240/240 
f 240/240/240 238/238/238 240/240/240 
f 240/240/240 238/238/238 238/238/238 
f 238/238/238 241/241/241 238/238/238 
f 238/238/238 241/241/241 240/240/240 
f 241/241/241 197/197/197 240/240/240 
f 240/240/240 197/197/197 242/242/242 
f 216/216/216 243/243/243 218/218/218 
f 2/2/2 244/244/244 4/4/4 
f 198/198/198 245/245/245 200/200/200 

