mtllib model_14.mtl
o model_14
v 29.400001525878906 37.75493621826172 -44.10000228881836 
v 14.700000762939453 37.75493621826172 -44.10000228881836 
v 29.400001525878906 36.75 -44.10000228881836 
v 14.700000762939453 36.75 -44.10000228881836 
v 14.700000762939453 33.344932556152344 -44.10000228881836 
v 29.400001525878906 33.344932556152344 -44.10000228881836 
v 14.700000762939453 11.02500057220459 -44.10000228881836 
v 29.400001525878906 11.02500057220459 -44.10000228881836 
v 29.400001525878906 0 -44.10000228881836 
v 0 37.75493621826172 -44.10000228881836 
v 0 36.75 -44.10000228881836 
v -14.700000762939453 37.75493621826172 -44.10000228881836 
v -14.700000762939453 36.75 -44.10000228881836 
v 0 33.344932556152344 -44.10000228881836 
v -14.700000762939453 33.344932556152344 -44.10000228881836 
v 0 11.02500057220459 -44.10000228881836 
v -14.700000762939453 11.02500057220459 -44.10000228881836 
v 0 0 -44.10000228881836 
v -14.700000762939453 0 -44.10000228881836 
v -29.400001525878906 33.344932556152344 -44.10000228881836 
v -29.400001525878906 11.02500057220459 -44.10000228881836 
v -29.400001525878906 0 -44.10000228881836 
v -29.400001525878906 36.75 -44.10000228881836 
v -29.400001525878906 37.75493621826172 -44.10000228881836 
v 14.700000762939453 0 -44.10000228881836 
v -29.400001525878906 0 -44.10000228881836 
v -29.400001525878906 11.02500057220459 -44.10000228881836 
v -29.400001525878906 0 -29.971399307250977 
v -29.400001525878906 11.02500057220459 -29.971399307250977 
v -29.400001525878906 33.344932556152344 -44.10000228881836 
v -29.400001525878906 33.344932556152344 -29.971399307250977 
v -29.400001525878906 36.75 -44.10000228881836 
v -29.400001525878906 36.75 -29.971399307250977 
v -29.400001525878906 37.75493621826172 -29.971399307250977 
v -29.400001525878906 36.75 6.867830276489258 
v -29.400001525878906 37.75493621826172 6.867830276489258 
v -29.400001525878906 37.75493621826172 19.671382904052734 
v -29.400001525878906 36.75 19.671382904052734 
v -29.400001525878906 37.75493621826172 29.400001525878906 
v -29.400001525878906 36.75 29.400001525878906 
v -29.400001525878906 37.75493621826172 44.100006103515625 
v -29.400001525878906 36.75 44.10000228881836 
v -29.400001525878906 33.344932556152344 29.400001525878906 
v -29.400001525878906 33.344932556152344 19.671382904052734 
v -29.400001525878906 33.344932556152344 6.867830276489258 
v -29.400001525878906 33.344932556152344 44.10000228881836 
v -29.400001525878906 11.02500057220459 29.400001525878906 
v -29.400001525878906 11.02500057220459 44.10000228881836 
v -29.400001525878906 0 29.400001525878906 
v -29.400001525878906 0 44.10000228881836 
v -29.400001525878906 11.02500057220459 19.671382904052734 
v -29.400001525878906 11.02500057220459 6.867830276489258 
v -29.400001525878906 0 19.671382904052734 
v -29.400001525878906 0 6.867830276489258 
v -29.400001525878906 37.75493621826172 -44.100006103515625 
vn 0 0 1 
vn 0 0 1 
vn 0 0 1 
vn 0 0 1 
vn 0 0 1 
vn 0 0 1 
vn 0 0 1 
vn 0 0 1 
vn 0 0 1 
vn 0 0 1 
vn 0 0 1 
vn 0 0 1 
vn 0 0 1 
vn 0 0 1 
vn 0 0 1 
vn 0 0 1 
vn 0 0 1 
vn 0 0 1 
vn 0 0 1 
vn 0 0 1 
vn 0 0 1 
vn 0 0 1 
vn 0 0 1 
vn 0 0 1 
vn 0 0 1 
vn 0.999997615814209 0 0.002184694167226553 
vn 0.999997615814209 0 0.002184694167226553 
vn 0.999997615814209 0 0.002184694167226553 
vn 0.999997615814209 0 0.002184694167226553 
vn 0.999997615814209 0 0.002184694167226553 
vn 0.999997615814209 0 0.002184694167226553 
vn 0.999997615814209 0 0.002184694167226553 
vn 0.999997615814209 0 0.002184694167226553 
vn 0.999997615814209 0 0.002184694167226553 
vn 0.999997615814209 0 0.002184694167226553 
vn 0.999997615814209 0 0.002184694167226553 
vn 0.999997615814209 0 0.002184694167226553 
vn 0.999997615814209 0 0.002184694167226553 
vn 0.999997615814209 0 0.002184694167226553 
vn 0.999997615814209 0 0.002184694167226553 
vn 0.999997615814209 0 0.002184694167226553 
vn 0.999997615814209 0 0.002184694167226553 
vn 0.999997615814209 0 0.002184694167226553 
vn 0.999997615814209 0 0.002184694167226553 
vn 0.999997615814209 0 0.002184694167226553 
vn 0.999997615814209 0 0.002184694167226553 
vn 0.999997615814209 0 0.002184694167226553 
vn 0.999997615814209 0 0.002184694167226553 
vn 0.999997615814209 0 0.002184694167226553 
vn 0.999997615814209 0 0.002184694167226553 
vn 0.999997615814209 0 0.002184694167226553 
vn 0.999997615814209 0 0.002184694167226553 
vn 0.999997615814209 0 0.002184694167226553 
vn 0.999997615814209 0 0.002184694167226553 
vn 0.999997615814209 0 0.002184694167226553 
vt 0.6956721544265747 0.8514335751533508 
vt 0.6464858651161194 0.8514335751533508 
vt 0.6956721544265747 0.8480409383773804 
vt 0.6464858651161194 0.8480409383773804 
vt 0.6464858651161194 0.8366910219192505 
vt 0.6956721544265747 0.8366910219192505 
vt 0.6464858651161194 0.7620531320571899 
vt 0.6956721544265747 0.7620531320571899 
vt 0.6956721544265747 0.7251660227775574 
vt 0.5972995162010193 0.8514335751533508 
vt 0.5972995162010193 0.8480409383773804 
vt 0.5482093095779419 0.8514335751533508 
vt 0.5482093095779419 0.8480409383773804 
vt 0.5973955988883972 0.8366910219192505 
vt 0.5482093095779419 0.8366910219192505 
vt 0.5972995162010193 0.7620531320571899 
vt 0.5482093095779419 0.7620531320571899 
vt 0.5972995162010193 0.7251660227775574 
vt 0.5482093095779419 0.7251660227775574 
vt 0.4990229904651642 0.8366910219192505 
vt 0.4990229904651642 0.7620531320571899 
vt 0.4990229904651642 0.7251660227775574 
vt 0.4990229904651642 0.8480409383773804 
vt 0.4990229904651642 0.8514335751533508 
vt 0.6464858651161194 0.7251660227775574 
vt 0.4990237355232239 0.7251660227775574 
vt 0.4990237355232239 0.7620590329170227 
vt 0.45175862312316895 0.7251660227775574 
vt 0.45175862312316895 0.7620590329170227 
vt 0.4990237355232239 0.8367087244987488 
vt 0.45175862312316895 0.8367087244987488 
vt 0.4990237355232239 0.8480604290962219 
vt 0.45175862312316895 0.8480604290962219 
vt 0.45175862312316895 0.8514536023139954 
vt 0.3285522758960724 0.8480604290962219 
vt 0.3285522758960724 0.8514536023139954 
vt 0.2857542634010315 0.8514536023139954 
vt 0.2857542634010315 0.8480604290962219 
vt 0.2531874477863312 0.8514536023139954 
vt 0.2531874477863312 0.8480604290962219 
vt 0.2040490061044693 0.8514536023139954 
vt 0.2040490061044693 0.8480604290962219 
vt 0.2531874477863312 0.8367087244987488 
vt 0.2857542634010315 0.8367087244987488 
vt 0.3285522758960724 0.8367087244987488 
vt 0.2040490061044693 0.8367087244987488 
vt 0.2531874477863312 0.7620590329170227 
vt 0.2040490061044693 0.7620590329170227 
vt 0.2531874477863312 0.7251660227775574 
vt 0.2040490061044693 0.7251660227775574 
vt 0.2857542634010315 0.7620590329170227 
vt 0.3285522758960724 0.7620590329170227 
vt 0.2857542634010315 0.7251660227775574 
vt 0.3285522758960724 0.7251660227775574 
vt 0.4990237355232239 0.8514536023139954 
s on 
f 1/1/1 2/2/2 3/3/3 
f 2/2/2 4/4/4 3/3/3 
f 3/3/3 4/4/4 5/5/5 
f 4/4/4 5/5/5 5/5/5 
f 5/5/5 5/5/5 3/3/3 
f 5/5/5 3/3/3 3/3/3 
f 3/3/3 3/3/3 3/3/3 
f 3/3/3 5/5/5 3/3/3 
f 3/3/3 5/5/5 6/6/6 
f 5/5/5 7/7/7 6/6/6 
f 6/6/6 7/7/7 8/8/8 
f 7/7/7 9/9/9 8/8/8 
f 8/8/8 9/9/9 9/9/9 
f 9/9/9 2/2/2 9/9/9 
f 9/9/9 2/2/2 2/2/2 
f 2/2/2 10/10/10 2/2/2 
f 2/2/2 10/10/10 4/4/4 
f 10/10/10 11/11/11 4/4/4 
f 4/4/4 11/11/11 11/11/11 
f 11/11/11 10/10/10 11/11/11 
f 11/11/11 10/10/10 10/10/10 
f 10/10/10 12/12/12 10/10/10 
f 10/10/10 12/12/12 11/11/11 
f 12/12/12 13/13/13 11/11/11 
f 11/11/11 13/13/13 14/14/14 
f 13/13/13 15/15/15 14/14/14 
f 14/14/14 15/15/15 16/16/16 
f 15/15/15 17/17/17 16/16/16 
f 16/16/16 17/17/17 18/18/18 
f 17/17/17 19/19/19 18/18/18 
f 18/18/18 19/19/19 19/19/19 
f 19/19/19 13/13/13 19/19/19 
f 19/19/19 13/13/13 13/13/13 
f 13/13/13 20/20/20 13/13/13 
f 13/13/13 20/20/20 15/15/15 
f 20/20/20 21/21/21 15/15/15 
f 15/15/15 21/21/21 17/17/17 
f 21/21/21 22/22/22 17/17/17 
f 17/17/17 22/22/22 19/19/19 
f 22/22/22 19/19/19 19/19/19 
f 19/19/19 19/19/19 20/20/20 
f 19/19/19 20/20/20 20/20/20 
f 20/20/20 20/20/20 20/20/20 
f 20/20/20 13/13/13 20/20/20 
f 20/20/20 13/13/13 23/23/23 
f 13/13/13 24/24/24 23/23/23 
f 23/23/23 24/24/24 24/24/24 
f 24/24/24 26/26/26 24/24/24 
f 24/24/24 26/26/26 26/26/26 
f 26/26/26 27/27/27 26/26/26 
f 26/26/26 27/27/27 28/28/28 
f 27/27/27 29/29/29 28/28/28 
f 28/28/28 29/29/29 29/29/29 
f 29/29/29 27/27/27 29/29/29 
f 29/29/29 27/27/27 27/27/27 
f 27/27/27 30/30/30 27/27/27 
f 27/27/27 30/30/30 29/29/29 
f 30/30/30 31/31/31 29/29/29 
f 29/29/29 31/31/31 31/31/31 
f 31/31/31 30/30/30 31/31/31 
f 31/31/31 30/30/30 30/30/30 
f 30/30/30 32/32/32 30/30/30 
f 30/30/30 32/32/32 31/31/31 
f 32/32/32 33/33/33 31/31/31 
f 31/31/31 33/33/33 33/33/33 
f 33/33/33 32/32/32 33/33/33 
f 33/33/33 32/32/32 32/32/32 
f 32/32/32 34/34/34 32/32/32 
f 32/32/32 34/34/34 33/33/33 
f 34/34/34 35/35/35 33/33/33 
f 33/33/33 35/35/35 35/35/35 
f 35/35/35 34/34/34 35/35/35 
f 35/35/35 34/34/34 34/34/34 
f 34/34/34 36/36/36 34/34/34 
f 34/34/34 36/36/36 35/35/35 
f 36/36/36 37/37/37 35/35/35 
f 35/35/35 37/37/37 38/38/38 
f 37/37/37 39/39/39 38/38/38 
f 38/38/38 39/39/39 40/40/40 
f 39/39/39 41/41/41 40/40/40 
f 40/40/40 41/41/41 42/42/42 
f 41/41/41 42/42/42 42/42/42 
f 42/42/42 42/42/42 40/40/40 
f 42/42/42 40/40/40 40/40/40 
f 40/40/40 40/40/40 40/40/40 
f 40/40/40 43/43/43 40/40/40 
f 40/40/40 43/43/43 38/38/38 
f 43/43/43 44/44/44 38/38/38 
f 38/38/38 44/44/44 35/35/35 
f 44/44/44 45/45/45 35/35/35 
f 35/35/35 45/45/45 45/45/45 
f 45/45/45 40/40/40 45/45/45 
f 45/45/45 40/40/40 40/40/40 
f 40/40/40 42/42/42 40/40/40 
f 40/40/40 42/42/42 43/43/43 
f 42/42/42 46/46/46 43/43/43 
f 43/43/43 46/46/46 47/47/47 
f 46/46/46 48/48/48 47/47/47 
f 47/47/47 48/48/48 49/49/49 
f 48/48/48 50/50/50 49/49/49 
f 49/49/49 50/50/50 50/50/50 
f 50/50/50 43/43/43 50/50/50 
f 50/50/50 43/43/43 43/43/43 
f 43/43/43 47/47/47 43/43/43 
f 43/43/43 47/47/47 44/44/44 
f 47/47/47 51/51/51 44/44/44 
f 44/44/44 51/51/51 45/45/45 
f 51/51/51 52/52/52 45/45/45 
f 45/45/45 52/52/52 52/52/52 
f 52/52/52 47/47/47 52/52/52 
f 52/52/52 47/47/47 47/47/47 
f 47/47/47 49/49/49 47/47/47 
f 47/47/47 49/49/49 51/51/51 
f 49/49/49 53/53/53 51/51/51 
f 51/51/51 53/53/53 52/52/52 
f 53/53/53 54/54/54 52/52/52 
f 24/24/24 13/13/13 12/12/12 
f 9/9/9 7/7/7 25/25/25 
f 32/32/32 55/55/55 34/34/34 

