mtllib model_55.mtl
o model_55
v 20.095300674438477 13.054789543151855 43.48057556152344 
v 20.095300674438477 12.874382019042969 43.549049377441406 
v 20.09745979309082 13.062169075012207 43.490291595458984 
v 20.09745979309082 12.879302024841309 43.56015396118164 
v 20.10384178161621 13.063809394836426 43.493995666503906 
v 20.10384178161621 12.881762504577637 43.56431579589844 
v 20.110811233520508 13.062989234924316 43.493995666503906 
v 20.110811233520508 12.881762504577637 43.56431579589844 
v 20.114444732666016 13.062989234924316 43.49445724487305 
v 20.114444732666016 12.881762504577637 43.56431579589844 
v 20.120824813842773 13.062989234924316 43.49445724487305 
v 20.120824813842773 12.881762504577637 43.56431579589844 
v 20.135650634765625 13.062989234924316 43.49445724487305 
v 20.135650634765625 12.881762504577637 43.56431579589844 
v 20.156267166137695 12.881762504577637 43.56431579589844 
v 20.156267166137695 12.661172866821289 43.59947967529297 
v 20.17698097229004 12.881762504577637 43.56431579589844 
v 20.17698097229004 12.661172866821289 43.59947967529297 
v 20.19180679321289 12.661172866821289 43.59947967529297 
v 20.19180679321289 12.429102897644043 43.611045837402344 
v 20.19818687438965 12.429102897644043 43.611045837402344 
v 20.19818687438965 12.196213722229004 43.59947967529297 
v 20.201820373535156 12.196213722229004 43.59947967529297 
v 20.201820373535156 11.976444244384766 43.56431579589844 
v 20.208789825439453 11.976444244384766 43.56431579589844 
v 20.208789825439453 11.777996063232422 43.50787353515625 
v 20.095300674438477 12.657893180847168 43.58328628540039 
v 20.09745979309082 12.66035270690918 43.595314025878906 
v 20.10384178161621 12.661172866821289 43.59947967529297 
v 20.110811233520508 12.661172866821289 43.59947967529297 
v 20.114444732666016 12.661172866821289 43.59947967529297 
v 20.120824813842773 12.661172866821289 43.59947967529297 
v 20.135650634765625 12.661172866821289 43.59947967529297 
v 20.156267166137695 12.429102897644043 43.611045837402344 
v 20.17698097229004 12.429102897644043 43.611045837402344 
v 20.19180679321289 12.196213722229004 43.59947967529297 
v 20.19818687438965 11.976444244384766 43.56431579589844 
v 20.201820373535156 11.777996063232422 43.50787353515625 
v 20.208789825439453 11.61316967010498 43.432926177978516 
v 20.095300674438477 12.429102897644043 43.594852447509766 
v 20.09745979309082 12.429102897644043 43.60688018798828 
v 20.10384178161621 12.429102897644043 43.611045837402344 
v 20.110811233520508 12.429102897644043 43.611045837402344 
v 20.114444732666016 12.429102897644043 43.611045837402344 
v 20.120824813842773 12.429102897644043 43.611045837402344 
v 20.135650634765625 12.429102897644043 43.611045837402344 
v 20.156267166137695 12.196213722229004 43.59947967529297 
v 20.17698097229004 12.196213722229004 43.59947967529297 
v 20.19180679321289 11.976444244384766 43.56431579589844 
v 20.19818687438965 11.777996063232422 43.50787353515625 
v 20.201820373535156 11.61316967010498 43.432926177978516 
v 20.208789825439453 11.488524436950684 43.343170166015625 
v 20.095300674438477 12.199493408203125 43.58328628540039 
v 20.09745979309082 12.197033882141113 43.595314025878906 
v 20.10384178161621 12.196213722229004 43.59947967529297 
v 20.110811233520508 12.196213722229004 43.59947967529297 
v 20.114444732666016 12.196213722229004 43.59947967529297 
v 20.120824813842773 12.196213722229004 43.59947967529297 
v 20.135650634765625 12.196213722229004 43.59947967529297 
v 20.156267166137695 11.976444244384766 43.56431579589844 
v 20.17698097229004 11.976444244384766 43.56431579589844 
v 20.19180679321289 11.777996063232422 43.50787353515625 
v 20.19818687438965 11.61316967010498 43.432926177978516 
v 20.201820373535156 11.488524436950684 43.343170166015625 
v 20.208789825439453 11.4114408493042 43.242774963378906 
v 20.095300674438477 11.983004570007324 43.549049377441406 
v 20.09745979309082 11.978084564208984 43.56015396118164 
v 20.10384178161621 11.976444244384766 43.56431579589844 
v 20.110811233520508 11.976444244384766 43.56431579589844 
v 20.114444732666016 11.976444244384766 43.56431579589844 
v 20.120824813842773 11.976444244384766 43.56431579589844 
v 20.135650634765625 11.976444244384766 43.56431579589844 
v 20.156267166137695 11.777996063232422 43.50787353515625 
v 20.17698097229004 11.777996063232422 43.50787353515625 
v 20.19180679321289 11.61316967010498 43.432926177978516 
v 20.19818687438965 11.488524436950684 43.343170166015625 
v 20.201820373535156 11.4114408493042 43.242774963378906 
v 20.208789825439453 11.385199546813965 43.137752532958984 
v 20.095300674438477 11.788657188415527 43.493995666503906 
v 20.09745979309082 11.78045654296875 43.504173278808594 
v 20.10384178161621 11.777996063232422 43.50787353515625 
v 20.110811233520508 11.777996063232422 43.50787353515625 
v 20.114444732666016 11.777996063232422 43.50787353515625 
v 20.120824813842773 11.777996063232422 43.50787353515625 
v 20.135650634765625 11.777996063232422 43.50787353515625 
v 20.156267166137695 11.61316967010498 43.432926177978516 
v 20.17698097229004 11.61316967010498 43.432926177978516 
v 20.19180679321289 11.488524436950684 43.343170166015625 
v 20.19818687438965 11.4114408493042 43.242774963378906 
v 20.201820373535156 11.385199546813965 43.137752532958984 
v 20.095300674438477 11.627110481262207 43.420894622802734 
v 20.09745979309082 11.616449356079102 43.4296875 
v 20.10384178161621 11.61316967010498 43.432926177978516 
v 20.110811233520508 11.61316967010498 43.432926177978516 
v 20.114444732666016 11.61316967010498 43.432926177978516 
v 20.120824813842773 11.61316967010498 43.432926177978516 
v 20.135650634765625 11.61316967010498 43.432926177978516 
v 20.156267166137695 11.488524436950684 43.343170166015625 
v 20.17698097229004 11.488524436950684 43.343170166015625 
v 20.19180679321289 11.4114408493042 43.242774963378906 
v 20.19818687438965 11.385199546813965 43.137752532958984 
v 20.095300674438477 11.505744934082031 43.334381103515625 
v 20.09745979309082 11.492624282836914 43.340858459472656 
v 20.10384178161621 11.488524436950684 43.343170166015625 
v 20.110811233520508 11.488524436950684 43.343170166015625 
v 20.114444732666016 11.488524436950684 43.343170166015625 
v 20.120824813842773 11.488524436950684 43.343170166015625 
v 20.135650634765625 11.488524436950684 43.343170166015625 
v 20.156267166137695 11.4114408493042 43.242774963378906 
v 20.17698097229004 11.4114408493042 43.242774963378906 
v 20.19180679321289 11.385199546813965 43.137752532958984 
v 20.095300674438477 11.431121826171875 43.2381477355957 
v 20.09745979309082 11.416360855102539 43.24184799194336 
v 20.10384178161621 11.4114408493042 43.242774963378906 
v 20.110811233520508 11.4114408493042 43.242774963378906 
v 20.114444732666016 11.4114408493042 43.242774963378906 
v 20.120824813842773 11.4114408493042 43.242774963378906 
v 20.135650634765625 11.4114408493042 43.242774963378906 
v 20.156267166137695 11.385199546813965 43.137752532958984 
v 20.17698097229004 11.385199546813965 43.137752532958984 
v 20.095300674438477 11.40570068359375 43.137752532958984 
v 20.09745979309082 11.390120506286621 43.137752532958984 
v 20.10384178161621 11.385199546813965 43.137752532958984 
v 20.110811233520508 11.385199546813965 43.137752532958984 
v 20.114444732666016 11.385199546813965 43.137752532958984 
v 20.120824813842773 11.385199546813965 43.137752532958984 
v 20.135650634765625 11.385199546813965 43.137752532958984 
v 20.095300674438477 11.442602157592773 43.137752532958984 
v 20.095300674438477 11.431121826171875 43.036895751953125 
v 20.09745979309082 11.416360855102539 43.03319549560547 
v 20.09745979309082 11.492624282836914 42.93418884277344 
v 20.10384178161621 11.488524436950684 42.9318733215332 
v 20.10384178161621 11.61316967010498 42.84212112426758 
v 20.110811233520508 11.61316967010498 42.84212112426758 
v 20.110811233520508 11.777996063232422 42.76716995239258 
v 20.114444732666016 11.777996063232422 42.76716995239258 
v 20.114444732666016 11.976444244384766 42.71072769165039 
v 20.120824813842773 11.976444244384766 42.71072769165039 
v 20.120824813842773 12.196213722229004 42.675567626953125 
v 20.135650634765625 12.196213722229004 42.675567626953125 
v 20.135650634765625 12.429102897644043 42.66400146484375 
v 20.156267166137695 12.196213722229004 42.675567626953125 
v 20.156267166137695 12.429102897644043 42.66400146484375 
v 20.17698097229004 12.429102897644043 42.66400146484375 
v 20.17698097229004 12.661172866821289 42.675567626953125 
v 20.19180679321289 12.429102897644043 42.66400146484375 
v 20.19180679321289 12.661172866821289 42.675567626953125 
v 20.19818687438965 12.429102897644043 42.66400146484375 
v 20.19818687438965 12.661172866821289 42.675567626953125 
v 20.201820373535156 12.429102897644043 42.66400146484375 
v 20.201820373535156 12.661172866821289 42.675567626953125 
v 20.208789825439453 12.429102897644043 42.66400146484375 
v 20.208789825439453 12.661172866821289 42.675567626953125 
v 20.095300674438477 11.46064281463623 43.0484619140625 
v 20.095300674438477 11.505744934082031 42.94066619873047 
v 20.09745979309082 11.616449356079102 42.845359802246094 
v 20.10384178161621 11.777996063232422 42.76716995239258 
v 20.110811233520508 11.976444244384766 42.71072769165039 
v 20.114444732666016 12.196213722229004 42.675567626953125 
v 20.120824813842773 12.429102897644043 42.66400146484375 
v 20.135650634765625 12.661172866821289 42.675567626953125 
v 20.156267166137695 12.661172866821289 42.675567626953125 
v 20.17698097229004 12.881762504577637 42.71072769165039 
v 20.19180679321289 12.881762504577637 42.71072769165039 
v 20.19818687438965 12.881762504577637 42.71072769165039 
v 20.201820373535156 12.881762504577637 42.71072769165039 
v 20.208789825439453 12.881762504577637 42.71072769165039 
v 20.095300674438477 11.510664939880371 43.07344436645508 
v 20.095300674438477 11.536086082458496 42.969810485839844 
v 20.095300674438477 11.627110481262207 42.854148864746094 
v 20.09745979309082 11.78045654296875 42.7708740234375 
v 20.10384178161621 11.976444244384766 42.71072769165039 
v 20.110811233520508 12.196213722229004 42.675567626953125 
v 20.114444732666016 12.429102897644043 42.66400146484375 
v 20.120824813842773 12.661172866821289 42.675567626953125 
v 20.135650634765625 12.881762504577637 42.71072769165039 
v 20.156267166137695 12.881762504577637 42.71072769165039 
v 20.17698097229004 13.062989234924316 42.78058624267578 
v 20.19180679321289 13.062989234924316 42.78058624267578 
v 20.19818687438965 13.062989234924316 42.78058624267578 
v 20.201820373535156 13.062989234924316 42.78105163574219 
v 20.208789825439453 13.063809394836426 42.78105163574219 
v 20.095300674438477 11.593488693237305 43.0396728515625 
v 20.095300674438477 11.659911155700684 42.89671325683594 
v 20.095300674438477 11.788657188415527 42.78105163574219 
v 20.09745979309082 11.978084564208984 42.71489334106445 
v 20.10384178161621 12.196213722229004 42.675567626953125 
v 20.110811233520508 12.429102897644043 42.66400146484375 
v 20.114444732666016 12.661172866821289 42.675567626953125 
v 20.120824813842773 12.881762504577637 42.71072769165039 
v 20.135650634765625 13.062989234924316 42.78058624267578 
v 20.156267166137695 13.062989234924316 42.78058624267578 
v 20.095300674438477 11.621369361877441 43.137752532958984 
v 20.095300674438477 11.73043441772461 43.00173568725586 
v 20.095300674438477 11.820637702941895 42.83425521850586 
v 20.095300674438477 11.983004570007324 42.72599411010742 
v 20.09745979309082 12.197033882141113 42.67972946166992 
v 20.10384178161621 12.429102897644043 42.66400146484375 
v 20.110811233520508 12.661172866821289 42.675567626953125 
v 20.114444732666016 12.881762504577637 42.71072769165039 
v 20.120824813842773 13.062989234924316 42.78058624267578 
v 20.095300674438477 11.77553653717041 43.137752532958984 
v 20.095300674438477 11.89608097076416 42.96611022949219 
v 20.095300674438477 12.00678539276123 42.78706359863281 
v 20.095300674438477 12.199493408203125 42.69175720214844 
v 20.09745979309082 12.429102897644043 42.66816329956055 
v 20.10384178161621 12.661172866821289 42.675567626953125 
v 20.110811233520508 12.881762504577637 42.71072769165039 
v 20.114444732666016 13.062989234924316 42.78058624267578 
v 20.095300674438477 12.429102897644043 42.68019104003906 
v 20.09745979309082 12.66035270690918 42.67972946166992 
v 20.10384178161621 12.881762504577637 42.71072769165039 
v 20.110811233520508 13.062989234924316 42.78105163574219 
v 20.095300674438477 12.657893180847168 42.69175720214844 
v 20.09745979309082 12.879302024841309 42.71489334106445 
v 20.10384178161621 13.063809394836426 42.78105163574219 
v 20.095300674438477 12.874382019042969 42.72599411010742 
v 20.09745979309082 13.062169075012207 42.784751892089844 
v 20.095300674438477 12.653792381286621 42.715354919433594 
v 20.095300674438477 12.49798583984375 42.72784423828125 
v 20.095300674438477 12.397122383117676 42.753753662109375 
v 20.095300674438477 12.211793899536133 42.75699234008789 
v 20.095300674438477 12.349559783935547 42.77827453613281 
v 20.095300674438477 12.226554870605469 42.868492126464844 
v 20.095300674438477 12.15931224822998 42.959171295166016 
v 20.095300674438477 12.136351585388184 43.004974365234375 
v 20.095300674438477 12.10929012298584 43.137752532958984 
v 20.095300674438477 11.89608097076416 43.30893325805664 
v 20.095300674438477 12.136351585388184 43.27007293701172 
v 20.095300674438477 12.15931224822998 43.31587219238281 
v 20.095300674438477 11.73043441772461 43.273311614990234 
v 20.095300674438477 11.593488693237305 43.235374450683594 
v 20.095300674438477 11.510664939880371 43.20159912109375 
v 20.095300674438477 11.536086082458496 43.305233001708984 
v 20.095300674438477 11.46064281463623 43.22658157348633 
v 20.095300674438477 11.513945579528809 43.137752532958984 
v 20.095300674438477 11.659911155700684 43.37833023071289 
v 20.095300674438477 11.820637702941895 43.44078826904297 
v 20.095300674438477 12.00678539276123 43.487979888916016 
v 20.095300674438477 12.211793899536133 43.51805114746094 
v 20.095300674438477 12.226554870605469 43.406551361083984 
v 20.095300674438477 12.349559783935547 43.496768951416016 
v 20.095300674438477 12.397122383117676 43.52128982543945 
v 20.095300674438477 12.49798583984375 43.54719924926758 
v 20.095300674438477 12.653792381286621 43.559688568115234 
v 20.208789825439453 13.063809394836426 43.493995666503906 
v 20.201820373535156 13.062989234924316 43.493995666503906 
v 20.208789825439453 12.881762504577637 43.56431579589844 
v 20.201820373535156 12.881762504577637 43.56431579589844 
v 20.208789825439453 12.661172866821289 43.59947967529297 
v 20.201820373535156 12.661172866821289 43.59947967529297 
v 20.208789825439453 12.429102897644043 43.611045837402344 
v 20.201820373535156 12.429102897644043 43.611045837402344 
v 20.208789825439453 12.196213722229004 43.59947967529297 
v 20.19818687438965 12.661172866821289 43.59947967529297 
v 20.19180679321289 12.881762504577637 43.56431579589844 
v 20.17698097229004 13.062989234924316 43.49445724487305 
v 20.156267166137695 13.062989234924316 43.49445724487305 
v 20.19818687438965 12.881762504577637 43.56431579589844 
v 20.19180679321289 13.062989234924316 43.49445724487305 
v 20.19818687438965 13.062989234924316 43.49445724487305 
v 20.208789825439453 11.385199546813965 43.137752532958984 
v 20.215171813964844 11.390120506286621 43.137752532958984 
v 20.208789825439453 11.4114408493042 43.242774963378906 
v 20.215171813964844 11.416360855102539 43.24184799194336 
v 20.208789825439453 11.488524436950684 43.343170166015625 
v 20.215171813964844 11.492624282836914 43.340858459472656 
v 20.208789825439453 11.61316967010498 43.432926177978516 
v 20.215171813964844 11.616449356079102 43.4296875 
v 20.208789825439453 11.777996063232422 43.50787353515625 
v 20.215171813964844 11.78045654296875 43.504173278808594 
v 20.208789825439453 11.976444244384766 43.56431579589844 
v 20.215171813964844 11.978084564208984 43.56015396118164 
v 20.208789825439453 12.196213722229004 43.59947967529297 
v 20.215171813964844 12.197033882141113 43.595314025878906 
v 20.208789825439453 12.429102897644043 43.611045837402344 
v 20.215171813964844 12.429102897644043 43.60688018798828 
v 20.208789825439453 12.661172866821289 43.59947967529297 
v 20.215171813964844 12.66035270690918 43.595314025878906 
v 20.208789825439453 12.881762504577637 43.56431579589844 
v 20.215171813964844 12.879302024841309 43.56015396118164 
v 20.208789825439453 13.063809394836426 43.493995666503906 
v 20.215171813964844 13.062169075012207 43.490291595458984 
v 20.217330932617188 11.40570068359375 43.137752532958984 
v 20.217330932617188 11.431121826171875 43.2381477355957 
v 20.217330932617188 11.505744934082031 43.334381103515625 
v 20.217330932617188 11.627110481262207 43.420894622802734 
v 20.217330932617188 11.788657188415527 43.493995666503906 
v 20.217330932617188 11.983004570007324 43.549049377441406 
v 20.217330932617188 12.199493408203125 43.58328628540039 
v 20.217330932617188 12.429102897644043 43.594852447509766 
v 20.217330932617188 12.657893180847168 43.58328628540039 
v 20.217330932617188 12.874382019042969 43.549049377441406 
v 20.217330932617188 13.054789543151855 43.48057556152344 
v 20.217330932617188 11.442602157592773 43.137752532958984 
v 20.217330932617188 11.46064281463623 43.22658157348633 
v 20.217330932617188 11.536086082458496 43.305233001708984 
v 20.217330932617188 11.659911155700684 43.37833023071289 
v 20.217330932617188 11.820637702941895 43.44078826904297 
v 20.217330932617188 12.00678539276123 43.487979888916016 
v 20.217330932617188 12.211793899536133 43.51805114746094 
v 20.217330932617188 12.397122383117676 43.52128982543945 
v 20.217330932617188 12.349559783935547 43.496768951416016 
v 20.217330932617188 11.510664939880371 43.20159912109375 
v 20.217330932617188 11.593488693237305 43.235374450683594 
v 20.217330932617188 11.73043441772461 43.273311614990234 
v 20.217330932617188 11.89608097076416 43.30893325805664 
v 20.217330932617188 12.15931224822998 43.31587219238281 
v 20.217330932617188 12.226554870605469 43.406551361083984 
v 20.217330932617188 11.621369361877441 43.137752532958984 
v 20.217330932617188 11.513945579528809 43.137752532958984 
v 20.217330932617188 11.510664939880371 43.07344436645508 
v 20.217330932617188 11.46064281463623 43.0484619140625 
v 20.217330932617188 11.536086082458496 42.969810485839844 
v 20.217330932617188 11.505744934082031 42.94066619873047 
v 20.217330932617188 11.627110481262207 42.854148864746094 
v 20.215171813964844 11.616449356079102 42.845359802246094 
v 20.215171813964844 11.78045654296875 42.7708740234375 
v 20.208789825439453 11.777996063232422 42.76716995239258 
v 20.208789825439453 11.976444244384766 42.71072769165039 
v 20.215171813964844 11.978084564208984 42.71489334106445 
v 20.217330932617188 11.788657188415527 42.78105163574219 
v 20.217330932617188 11.659911155700684 42.89671325683594 
v 20.217330932617188 11.593488693237305 43.0396728515625 
v 20.217330932617188 11.73043441772461 43.00173568725586 
v 20.217330932617188 11.820637702941895 42.83425521850586 
v 20.217330932617188 11.983004570007324 42.72599411010742 
v 20.215171813964844 12.197033882141113 42.67972946166992 
v 20.208789825439453 12.196213722229004 42.675567626953125 
v 20.208789825439453 12.429102897644043 42.66400146484375 
v 20.215171813964844 12.429102897644043 42.66816329956055 
v 20.217330932617188 12.199493408203125 42.69175720214844 
v 20.217330932617188 12.00678539276123 42.78706359863281 
v 20.217330932617188 11.89608097076416 42.96611022949219 
v 20.217330932617188 11.77553653717041 43.137752532958984 
v 20.217330932617188 12.10929012298584 43.137752532958984 
v 20.217330932617188 12.136351585388184 43.27007293701172 
v 20.208789825439453 11.61316967010498 42.84212112426758 
v 20.215171813964844 11.492624282836914 42.93418884277344 
v 20.208789825439453 11.488524436950684 42.9318733215332 
v 20.215171813964844 11.416360855102539 43.03319549560547 
v 20.208789825439453 11.4114408493042 43.03226852416992 
v 20.215171813964844 11.390120506286621 43.137752532958984 
v 20.208789825439453 11.385199546813965 43.137752532958984 
v 20.217330932617188 11.431121826171875 43.036895751953125 
v 20.217330932617188 12.136351585388184 43.004974365234375 
v 20.217330932617188 12.15931224822998 42.959171295166016 
v 20.217330932617188 12.226554870605469 42.868492126464844 
v 20.217330932617188 12.211793899536133 42.75699234008789 
v 20.217330932617188 12.397122383117676 42.753753662109375 
v 20.217330932617188 12.429102897644043 42.68019104003906 
v 20.217330932617188 12.49798583984375 42.72784423828125 
v 20.217330932617188 12.657893180847168 42.69175720214844 
v 20.217330932617188 12.653792381286621 42.715354919433594 
v 20.217330932617188 12.874382019042969 42.72599411010742 
v 20.215171813964844 12.66035270690918 42.67972946166992 
v 20.215171813964844 12.879302024841309 42.71489334106445 
v 20.215171813964844 13.062169075012207 42.784751892089844 
v 20.217330932617188 13.054789543151855 42.79446792602539 
v 20.208789825439453 12.661172866821289 42.675567626953125 
v 20.208789825439453 12.881762504577637 42.71072769165039 
v 20.208789825439453 13.063809394836426 42.78105163574219 
v 20.217330932617188 12.349559783935547 42.77827453613281 
v 20.208789825439453 12.196213722229004 42.675567626953125 
v 20.201820373535156 12.196213722229004 42.675567626953125 
v 20.19818687438965 12.196213722229004 42.675567626953125 
v 20.19180679321289 12.196213722229004 42.675567626953125 
v 20.17698097229004 12.196213722229004 42.675567626953125 
v 20.156267166137695 11.976444244384766 42.71072769165039 
v 20.135650634765625 11.976444244384766 42.71072769165039 
v 20.120824813842773 11.777996063232422 42.76716995239258 
v 20.114444732666016 11.61316967010498 42.84212112426758 
v 20.110811233520508 11.488524436950684 42.9318733215332 
v 20.10384178161621 11.4114408493042 43.03226852416992 
v 20.09745979309082 11.390120506286621 43.137752532958984 
v 20.208789825439453 11.976444244384766 42.71072769165039 
v 20.201820373535156 11.976444244384766 42.71072769165039 
v 20.19818687438965 11.976444244384766 42.71072769165039 
v 20.19180679321289 11.976444244384766 42.71072769165039 
v 20.17698097229004 11.976444244384766 42.71072769165039 
v 20.156267166137695 11.777996063232422 42.76716995239258 
v 20.135650634765625 11.777996063232422 42.76716995239258 
v 20.120824813842773 11.61316967010498 42.84212112426758 
v 20.114444732666016 11.488524436950684 42.9318733215332 
v 20.110811233520508 11.4114408493042 43.03226852416992 
v 20.10384178161621 11.385199546813965 43.137752532958984 
v 20.208789825439453 11.777996063232422 42.76716995239258 
v 20.201820373535156 11.777996063232422 42.76716995239258 
v 20.19818687438965 11.777996063232422 42.76716995239258 
v 20.19180679321289 11.777996063232422 42.76716995239258 
v 20.17698097229004 11.777996063232422 42.76716995239258 
v 20.156267166137695 11.61316967010498 42.84212112426758 
v 20.135650634765625 11.61316967010498 42.84212112426758 
v 20.120824813842773 11.488524436950684 42.9318733215332 
v 20.114444732666016 11.4114408493042 43.03226852416992 
v 20.110811233520508 11.385199546813965 43.137752532958984 
v 20.208789825439453 11.61316967010498 42.84212112426758 
v 20.201820373535156 11.61316967010498 42.84212112426758 
v 20.19818687438965 11.61316967010498 42.84212112426758 
v 20.19180679321289 11.61316967010498 42.84212112426758 
v 20.17698097229004 11.61316967010498 42.84212112426758 
v 20.156267166137695 11.488524436950684 42.9318733215332 
v 20.135650634765625 11.488524436950684 42.9318733215332 
v 20.120824813842773 11.4114408493042 43.03226852416992 
v 20.114444732666016 11.385199546813965 43.137752532958984 
v 20.208789825439453 11.488524436950684 42.9318733215332 
v 20.201820373535156 11.488524436950684 42.9318733215332 
v 20.19818687438965 11.488524436950684 42.9318733215332 
v 20.19180679321289 11.488524436950684 42.9318733215332 
v 20.17698097229004 11.488524436950684 42.9318733215332 
v 20.156267166137695 11.4114408493042 43.03226852416992 
v 20.135650634765625 11.4114408493042 43.03226852416992 
v 20.120824813842773 11.385199546813965 43.137752532958984 
v 20.208789825439453 11.4114408493042 43.03226852416992 
v 20.201820373535156 11.4114408493042 43.03226852416992 
v 20.19818687438965 11.4114408493042 43.03226852416992 
v 20.19180679321289 11.4114408493042 43.03226852416992 
v 20.17698097229004 11.4114408493042 43.03226852416992 
v 20.156267166137695 11.385199546813965 43.137752532958984 
v 20.135650634765625 11.385199546813965 43.137752532958984 
v 20.208789825439453 11.385199546813965 43.137752532958984 
v 20.201820373535156 11.385199546813965 43.137752532958984 
v 20.19818687438965 11.385199546813965 43.137752532958984 
v 20.19180679321289 11.385199546813965 43.137752532958984 
v 20.17698097229004 11.385199546813965 43.137752532958984 
v 20.217330932617188 12.49798583984375 43.54719924926758 
v 20.217330932617188 12.653792381286621 43.559688568115234 
v 20.095300674438477 13.054789543151855 42.79446792602539 
vn -0.9845194816589355 0.06413470953702927 0.16312000155448914 
vn -0.98573237657547 0.041515953838825226 0.16312000155448914 
vn -0.8609314560890198 0.1799093633890152 0.4758462607860565 
vn -0.8733432292938232 0.12036946415901184 0.4719987213611603 
vn -0.2909703850746155 0.34416139125823975 0.8926864862442017 
vn -0.2838188707828522 0.2452511340379715 0.926983654499054 
vn -3.7108594734373834e-14 0.3588438034057617 0.933397650718689 
vn 0.0037506339140236378 0.2506926953792572 0.9680594801902771 
vn -3.7108594734373834e-14 0.3588438034057617 0.933397650718689 
vn 0.0037506339140236378 0.2506926953792572 0.9680594801902771 
vn -3.7108594734373834e-14 0.3588438034057617 0.933397650718689 
vn 0.0037506339140236378 0.2506926953792572 0.9680594801902771 
vn -3.7108594734373834e-14 0.3588438034057617 0.933397650718689 
vn -0.0037506339140236378 0.2506926953792572 0.9680594801902771 
vn -0.0037506339140236378 0.2506926953792572 0.9680594801902771 
vn -1.082442969757352e-14 0.10467331111431122 0.9945066571235657 
vn 0.0037506339140236378 0.2506926953792572 0.9680594801902771 
vn -1.082442969757352e-14 0.10467331111431122 0.9945066571235657 
vn -1.082442969757352e-14 0.10467331111431122 0.9945066571235657 
vn 0 0 1 
vn 0 0 1 
vn 3.2426803077542296e-14 -0.10467331111431122 0.9945066571235657 
vn 3.2426803077542296e-14 -0.10467331111431122 0.9945066571235657 
vn 0.0037497419398278 -0.21243515610694885 0.9771679639816284 
vn 0.28964096307754517 -0.2048516720533371 0.9349566102027893 
vn 0.2925853729248047 -0.327201247215271 0.8985171914100647 
vn -0.9976789355278015 0.007552676368504763 0.06767380982637405 
vn -0.8760718703269958 0.048996806144714355 0.4796847105026245 
vn -0.28543126583099365 0.0958998054265976 0.953589141368866 
vn -1.082442969757352e-14 0.10467331111431122 0.9945066571235657 
vn -1.082442969757352e-14 0.10467331111431122 0.9945066571235657 
vn -1.082442969757352e-14 0.10467331111431122 0.9945066571235657 
vn -1.082442969757352e-14 0.10467331111431122 0.9945066571235657 
vn 0 0 1 
vn 0 0 1 
vn 3.2426803077542296e-14 -0.10467331111431122 0.9945066571235657 
vn -0.0037497419398278 -0.21243515610694885 0.9771679639816284 
vn -0.001878107083030045 -0.3383626937866211 0.9410139322280884 
vn 0.29682862758636475 -0.4789738357067108 0.8261215686798096 
vn -0.9982536435127258 -0.0037739125546067953 0.058952588587999344 
vn -0.8774328231811523 -0.003770934883505106 0.4796847105026245 
vn -0.2843993604183197 -5.882035987838166e-14 0.9587059020996094 
vn 0 0 1 
vn 0 0 1 
vn 0 0 1 
vn 0 0 1 
vn 3.2426803077542296e-14 -0.10467331111431122 0.9945066571235657 
vn 3.2426803077542296e-14 -0.10467331111431122 0.9945066571235657 
vn -0.0037497419398278 -0.21243515610694885 0.9771679639816284 
vn -0.001878107083030045 -0.3383626937866211 0.9410139322280884 
vn -0.0018843651050701737 -0.49304309487342834 0.8700028657913208 
vn 0.3134528398513794 -0.6583344340324402 0.6843559741973877 
vn -0.9992818832397461 -0.007546626031398773 0.03713129088282585 
vn -0.8760718703269958 -0.048996806144714355 0.4796847105026245 
vn -0.28543126583099365 -0.0958998054265976 0.953589141368866 
vn 3.2426803077542296e-14 -0.10467331111431122 0.9945066571235657 
vn 3.2426803077542296e-14 -0.10467331111431122 0.9945066571235657 
vn 3.2426803077542296e-14 -0.10467331111431122 0.9945066571235657 
vn 3.2426803077542296e-14 -0.10467331111431122 0.9945066571235657 
vn 0.0037497419398278 -0.21243515610694885 0.9771679639816284 
vn 0.0037497419398278 -0.21243515610694885 0.9771679639816284 
vn -0.001878107083030045 -0.3383626937866211 0.9410139322280884 
vn -0.0018843651050701737 -0.49304309487342834 0.8700028657913208 
vn 2.125000072824082e-13 -0.6859472990036011 0.7276512384414673 
vn 0.333360880613327 -0.8454568982124329 0.417220801115036 
vn -0.9995682239532471 -0.007548788096755743 0.028397228568792343 
vn -0.8773494362831116 -0.10536041855812073 0.46814218163490295 
vn -0.28964096307754517 -0.2048516720533371 0.9349566102027893 
vn 0.0037497419398278 -0.21243515610694885 0.9771679639816284 
vn 0.0037497419398278 -0.21243515610694885 0.9771679639816284 
vn 0.0037497419398278 -0.21243515610694885 0.9771679639816284 
vn -0.0037497419398278 -0.21243515610694885 0.9771679639816284 
vn -0.001878107083030045 -0.3383626937866211 0.9410139322280884 
vn -0.001878107083030045 -0.3383626937866211 0.9410139322280884 
vn -0.0018843651050701737 -0.49304309487342834 0.8700028657913208 
vn 2.125000072824082e-13 -0.6859472990036011 0.7276512384414673 
vn 2.768502115925442e-13 -0.8936689496040344 0.4487268626689911 
vn 0.3291698098182678 -0.9154182076454163 0.23163928091526031 
vn -0.9994345903396606 -0.007547779008746147 0.03276457265019417 
vn -0.8796517848968506 -0.15766087174415588 0.4487268626689911 
vn -0.2925853729248047 -0.327201247215271 0.8985171914100647 
vn -0.001878107083030045 -0.3383626937866211 0.9410139322280884 
vn -0.001878107083030045 -0.3383626937866211 0.9410139322280884 
vn -0.001878107083030045 -0.3383626937866211 0.9410139322280884 
vn -0.001878107083030045 -0.3383626937866211 0.9410139322280884 
vn -0.0018843651050701737 -0.49304309487342834 0.8700028657913208 
vn -0.0018843651050701737 -0.49304309487342834 0.8700028657913208 
vn 2.125000072824082e-13 -0.6859472990036011 0.7276512384414673 
vn 2.768502115925442e-13 -0.8936689496040344 0.4487268626689911 
vn -0.0018874495290219784 -0.9696800708770752 0.24437066912651062 
vn -0.9993491172790527 -0.015095127746462822 0.03276457265019417 
vn -0.8826147317886353 -0.23128968477249146 0.40926313400268555 
vn -0.29682862758636475 -0.4789738357067108 0.8261215686798096 
vn -0.0018843651050701737 -0.49304309487342834 0.8700028657913208 
vn -0.0018843651050701737 -0.49304309487342834 0.8700028657913208 
vn -0.0018843651050701737 -0.49304309487342834 0.8700028657913208 
vn -0.0018843651050701737 -0.49304309487342834 0.8700028657913208 
vn 2.125000072824082e-13 -0.6859472990036011 0.7276512384414673 
vn 2.125000072824082e-13 -0.6859472990036011 0.7276512384414673 
vn 2.768502115925442e-13 -0.8936689496040344 0.4487268626689911 
vn -0.0018874495290219784 -0.9696800708770752 0.24437066912651062 
vn -0.9990071058273315 -0.030186811462044716 0.03276457265019417 
vn -0.8889029622077942 -0.31104061007499695 0.3363112509250641 
vn -0.3134528398513794 -0.6583344340324402 0.6843559741973877 
vn 2.125000072824082e-13 -0.6859472990036011 0.7276512384414673 
vn 2.125000072824082e-13 -0.6859472990036011 0.7276512384414673 
vn 2.125000072824082e-13 -0.6859472990036011 0.7276512384414673 
vn 2.125000072824082e-13 -0.6859472990036011 0.7276512384414673 
vn 2.768502115925442e-13 -0.8936689496040344 0.4487268626689911 
vn 2.768502115925442e-13 -0.8936689496040344 0.4487268626689911 
vn -0.0018874495290219784 -0.9696800708770752 0.24437066912651062 
vn -0.9986851811408997 -0.04528285190463066 0.024029340595006943 
vn -0.8972951769828796 -0.3926137387752533 0.2017817199230194 
vn -0.3298493027687073 -0.8468330502510071 0.417220801115036 
vn 2.768502115925442e-13 -0.8936689496040344 0.4487268626689911 
vn 2.768502115925442e-13 -0.8936689496040344 0.4487268626689911 
vn 2.768502115925442e-13 -0.8936689496040344 0.4487268626689911 
vn 2.768502115925442e-13 -0.8936689496040344 0.4487268626689911 
vn -0.0018874495290219784 -0.9696800708770752 0.24437066912651062 
vn -0.0018874495290219784 -0.9696800708770752 0.24437066912651062 
vn -0.9986006617546082 -0.05283859372138977 -0.002184694167226553 
vn -0.8962785005569458 -0.4304286539554596 0.10684575140476227 
vn -0.3291698098182678 -0.9154182076454163 0.23163928091526031 
vn -0.0018874495290219784 -0.9696800708770752 0.24437066912651062 
vn -0.0018874495290219784 -0.9696800708770752 0.24437066912651062 
vn -0.0018874495290219784 -0.9696800708770752 0.24437066912651062 
vn -0.0018874495290219784 -0.9696800708770752 0.24437066912651062 
vn -0.999997615814209 -2.0682260971124217e-13 0.002184694167226553 
vn -0.9986851811408997 -0.04528285190463066 -0.024029340595006943 
vn -0.8972951769828796 -0.3926137387752533 -0.2017817199230194 
vn -0.8889029622077942 -0.31104061007499695 -0.3363112509250641 
vn -0.31100326776504517 -0.6594951748847961 -0.6843559741973877 
vn -0.30116719007492065 -0.4762578308582306 -0.8261215686798096 
vn -0.003777894424274564 -0.49303221702575684 -0.8700028657913208 
vn 0.001891474355943501 -0.33836260437965393 -0.9410139322280884 
vn 0.001891474355943501 -0.33836260437965393 -0.9410139322280884 
vn 6.582066028283304e-14 -0.2124682515859604 -0.9771679639816284 
vn 6.582066028283304e-14 -0.2124682515859604 -0.9771679639816284 
vn -0.0018897876143455505 -0.10465624928474426 -0.9945066571235657 
vn -0.0018897876143455505 -0.10465624928474426 -0.9945066571235657 
vn 2.0682311115474694e-13 4.2775797696334704e-26 -1 
vn -0.0018897876143455505 -0.10465624928474426 -0.9945066571235657 
vn -2.0682311115474694e-13 0 -1 
vn -2.0682311115474694e-13 0 -1 
vn -0.0018897876143455505 0.10465624928474426 -0.9945066571235657 
vn 2.0682311115474694e-13 4.2775797696334704e-26 -1 
vn -0.0018897876143455505 0.10465624928474426 -0.9945066571235657 
vn 2.0682311115474694e-13 4.2775797696334704e-26 -1 
vn -0.0018897876143455505 0.10465624928474426 -0.9945066571235657 
vn -2.0682311115474694e-13 0 -1 
vn -0.0018897876143455505 0.10465624928474426 -0.9945066571235657 
vn 0.2843993604183197 0 -0.9587059020996094 
vn 0.2851816415786743 0.09663962572813034 -0.953589141368866 
vn -0.999997615814209 -2.0682260971124217e-13 -0.002184694167226553 
vn -0.9990071058273315 -0.030186811462044716 -0.03276457265019417 
vn -0.8834875822067261 -0.22793281078338623 -0.40926313400268555 
vn -0.28899767994880676 -0.3303743004798889 -0.8985171914100647 
vn 6.582066028283304e-14 -0.2124682515859604 -0.9771679639816284 
vn -0.0018897876143455505 -0.10465624928474426 -0.9945066571235657 
vn -2.0682311115474694e-13 0 -1 
vn -0.0018897876143455505 0.10465624928474426 -0.9945066571235657 
vn -0.0018897876143455505 0.10465624928474426 -0.9945066571235657 
vn -2.5927422711504063e-14 0.2507207691669464 -0.9680594801902771 
vn -2.5927422711504063e-14 0.2507207691669464 -0.9680594801902771 
vn -2.5927422711504063e-14 0.2507207691669464 -0.9680594801902771 
vn -2.5927422711504063e-14 0.2507207691669464 -0.9680594801902771 
vn 0.2857195734977722 0.24303415417671204 -0.926983654499054 
vn -0.999997615814209 -2.0682260971124217e-13 -0.002184694167226553 
vn -0.999997615814209 -2.0682260971124217e-13 -0.002184694167226553 
vn -0.9993491172790527 -0.015095127746462822 -0.03276457265019417 
vn -0.8789387345314026 -0.1615886390209198 -0.4487268626689911 
vn -0.28700849413871765 -0.20852388441562653 -0.9349566102027893 
vn -0.0018897876143455505 -0.10465624928474426 -0.9945066571235657 
vn -2.0682311115474694e-13 0 -1 
vn -0.0018897876143455505 0.10465624928474426 -0.9945066571235657 
vn -2.5927422711504063e-14 0.2507207691669464 -0.9680594801902771 
vn -2.5927422711504063e-14 0.2507207691669464 -0.9680594801902771 
vn 0.0037829536013305187 0.35882386565208435 -0.933397650718689 
vn -0.0037829536013305187 0.35882386565208435 -0.933397650718689 
vn -0.0037829536013305187 0.35882386565208435 -0.933397650718689 
vn -0.0037829536013305187 0.35882386565208435 -0.933397650718689 
vn 0.29017212986946106 0.34483471512794495 -0.8926864862442017 
vn -0.999997615814209 -2.0682260971124217e-13 -0.002184694167226553 
vn -0.999997615814209 -2.0682260971124217e-13 0.002184694167226553 
vn -0.9994345903396606 -0.007547779008746147 -0.03276457265019417 
vn -0.877775251865387 -0.10175216943025589 -0.46814218163490295 
vn -0.2851816415786743 -0.09663962572813034 -0.953589141368866 
vn -2.0682311115474694e-13 0 -1 
vn -0.0018897876143455505 0.10465624928474426 -0.9945066571235657 
vn -2.5927422711504063e-14 0.2507207691669464 -0.9680594801902771 
vn -0.0037829536013305187 0.35882386565208435 -0.933397650718689 
vn 0.0037829536013305187 0.35882386565208435 -0.933397650718689 
vn -0.999997615814209 -2.0682260971124217e-13 0.002184694167226553 
vn -0.999997615814209 -2.0682260971124217e-13 -0.002184694167226553 
vn -0.999997615814209 -2.0682260971124217e-13 0.002184694167226553 
vn -0.9995682239532471 -0.007548788096755743 -0.028397228568792343 
vn -0.8758488297462463 -0.052833594381809235 -0.4796847105026245 
vn -0.2843993604183197 -5.882035987838166e-14 -0.9587059020996094 
vn -0.0018897876143455505 0.10465624928474426 -0.9945066571235657 
vn -2.5927422711504063e-14 0.2507207691669464 -0.9680594801902771 
vn 0.0037829536013305187 0.35882386565208435 -0.933397650718689 
vn -0.999997615814209 -2.0682260971124217e-13 0.002184694167226553 
vn -0.999997615814209 -2.0682260971124217e-13 0.002184694167226553 
vn -0.999997615814209 -2.0682260971124217e-13 0.002184694167226553 
vn -0.9992818832397461 -0.007546626031398773 -0.03713129088282585 
vn -0.8774409294128418 -1.8147506067323071e-13 -0.4796847105026245 
vn -0.2851816415786743 0.09663962572813034 -0.953589141368866 
vn -2.5927422711504063e-14 0.2507207691669464 -0.9680594801902771 
vn 0.0037829536013305187 0.35882386565208435 -0.933397650718689 
vn -0.9982536435127258 -0.0037739125546067953 -0.058952588587999344 
vn -0.8758488297462463 0.052833594381809235 -0.4796847105026245 
vn -0.2857195734977722 0.24303415417671204 -0.926983654499054 
vn 0.0037829536013305187 0.35882386565208435 -0.933397650718689 
vn -0.9976789355278015 0.007552676368504763 -0.06767380982637405 
vn -0.8727961182594299 0.12427452951669693 -0.4719987213611603 
vn -0.2930507957935333 0.342391699552536 -0.8926864862442017 
vn -0.98573237657547 0.041515953838825226 -0.16312000155448914 
vn -0.8609314560890198 0.1799093633890152 -0.4758462607860565 
vn -0.999997615814209 -2.0682260971124217e-13 0.002184694167226553 
vn -0.999997615814209 -2.0682260971124217e-13 0.002184694167226553 
vn -0.999997615814209 -2.0682260971124217e-13 0.002184694167226553 
vn -0.999997615814209 -2.0682260971124217e-13 0.002184694167226553 
vn -0.999997615814209 -2.0682260971124217e-13 0.002184694167226553 
vn -0.999997615814209 -2.0682260971124217e-13 0.002184694167226553 
vn -0.999997615814209 -2.0682260971124217e-13 0.002184694167226553 
vn -0.999997615814209 -2.0682260971124217e-13 0.002184694167226553 
vn -0.999997615814209 -2.0682260971124217e-13 0.002184694167226553 
vn -0.999997615814209 -2.0682260971124217e-13 0.002184694167226553 
vn -0.999997615814209 -2.0682260971124217e-13 0.002184694167226553 
vn -0.999997615814209 -2.0682260971124217e-13 0.002184694167226553 
vn -0.999997615814209 -2.0682260971124217e-13 0.002184694167226553 
vn -0.999997615814209 -2.0682260971124217e-13 0.002184694167226553 
vn -0.999997615814209 -2.0682260971124217e-13 0.002184694167226553 
vn -0.999997615814209 -2.0682260971124217e-13 0.002184694167226553 
vn -0.999997615814209 -2.0682260971124217e-13 0.002184694167226553 
vn -0.999997615814209 -2.0682260971124217e-13 0.002184694167226553 
vn -0.999997615814209 -2.0682260971124217e-13 0.002184694167226553 
vn -0.999997615814209 -2.0682260971124217e-13 0.002184694167226553 
vn -0.999997615814209 -2.0682260971124217e-13 0.002184694167226553 
vn -0.999997615814209 -2.0682260971124217e-13 0.002184694167226553 
vn -0.999997615814209 -2.0682260971124217e-13 0.002184694167226553 
vn -0.999997615814209 -2.0682260971124217e-13 0.002184694167226553 
vn -0.999997615814209 -2.0682260971124217e-13 0.002184694167226553 
vn -0.999997615814209 -2.0682260971124217e-13 0.002184694167226553 
vn -0.999997615814209 -2.0682260971124217e-13 0.002184694167226553 
vn 0.2909703850746155 0.34416139125823975 0.8926864862442017 
vn -3.7108594734373834e-14 0.3588438034057617 0.933397650718689 
vn 0.28626614809036255 0.24239012598991394 0.926983654499054 
vn -0.0037506339140236378 0.2506926953792572 0.9680594801902771 
vn 0.28543126583099365 0.0958998054265976 0.953589141368866 
vn -1.082442969757352e-14 0.10467331111431122 0.9945066571235657 
vn 0.2843993604183197 0 0.9587059020996094 
vn 0 0 1 
vn 0.28543126583099365 -0.0958998054265976 0.953589141368866 
vn -1.082442969757352e-14 0.10467331111431122 0.9945066571235657 
vn -0.0037506339140236378 0.2506926953792572 0.9680594801902771 
vn -3.7108594734373834e-14 0.3588438034057617 0.933397650718689 
vn -3.7108594734373834e-14 0.3588438034057617 0.933397650718689 
vn -0.0037506339140236378 0.2506926953792572 0.9680594801902771 
vn -3.7108594734373834e-14 0.3588438034057617 0.933397650718689 
vn -3.7108594734373834e-14 0.3588438034057617 0.933397650718689 
vn 0.3291698098182678 -0.9154182076454163 0.23163928091526031 
vn 0.8962785005569458 -0.4304286539554596 0.10684575140476227 
vn 0.333360880613327 -0.8454568982124329 0.417220801115036 
vn 0.8957750797271729 -0.39606961607933044 0.2017817199230194 
vn 0.3134528398513794 -0.6583344340324402 0.6843559741973877 
vn 0.8889029622077942 -0.31104061007499695 0.3363112509250641 
vn 0.29682862758636475 -0.4789738357067108 0.8261215686798096 
vn 0.8826147317886353 -0.23128968477249146 0.40926313400268555 
vn 0.2925853729248047 -0.327201247215271 0.8985171914100647 
vn 0.8796517848968506 -0.15766087174415588 0.4487268626689911 
vn 0.28964096307754517 -0.2048516720533371 0.9349566102027893 
vn 0.8773494362831116 -0.10536041855812073 0.46814218163490295 
vn 0.28543126583099365 -0.0958998054265976 0.953589141368866 
vn 0.8758531808853149 -0.05276140570640564 0.4796847105026245 
vn 0.2843993604183197 0 0.9587059020996094 
vn 0.8774409294128418 0 0.4796847105026245 
vn 0.28543126583099365 0.0958998054265976 0.953589141368866 
vn 0.8758531808853149 0.05276140570640564 0.4796847105026245 
vn 0.28626614809036255 0.24239012598991394 0.926983654499054 
vn 0.8733432292938232 0.12036946415901184 0.4719987213611603 
vn 0.2909703850746155 0.34416139125823975 0.8926864862442017 
vn 0.8609314560890198 0.1799093633890152 0.4758462607860565 
vn 0.9986006617546082 -0.05283859372138977 -0.002184694167226553 
vn 0.9986851811408997 -0.04528285190463066 0.024029340595006943 
vn 0.9990071058273315 -0.030186811462044716 0.03276457265019417 
vn 0.9993491172790527 -0.015095127746462822 0.03276457265019417 
vn 0.9994345903396606 -0.007547779008746147 0.03276457265019417 
vn 0.9995682239532471 -0.007548788096755743 0.028397228568792343 
vn 0.9992818832397461 -0.007546626031398773 0.03713129088282585 
vn 0.9982607960700989 0 0.058952588587999344 
vn 0.9976789355278015 0.007552676368504763 0.06767380982637405 
vn 0.9858840107917786 0.0377437099814415 0.16312000155448914 
vn 0.984757661819458 0.06036694347858429 0.16312000155448914 
vn 0.999997615814209 0 0.002184694167226553 
vn 0.999997615814209 0 0.002184694167226553 
vn 0.999997615814209 0 0.002184694167226553 
vn 0.999997615814209 0 0.002184694167226553 
vn 0.999997615814209 0 0.002184694167226553 
vn 0.999997615814209 0 0.002184694167226553 
vn 0.999997615814209 0 0.002184694167226553 
vn 0.999997615814209 0 0.002184694167226553 
vn 0.999997615814209 0 0.002184694167226553 
vn 0.999997615814209 0 0.002184694167226553 
vn 0.999997615814209 0 0.002184694167226553 
vn 0.999997615814209 0 0.002184694167226553 
vn 0.999997615814209 0 0.002184694167226553 
vn 0.999997615814209 0 0.002184694167226553 
vn 0.999997615814209 0 0.002184694167226553 
vn 0.999997615814209 0 0.002184694167226553 
vn 0.999997615814209 0 0.002184694167226553 
vn 0.999997615814209 0 -0.002184694167226553 
vn 0.999997615814209 0 -0.002184694167226553 
vn 0.999997615814209 0 -0.002184694167226553 
vn 0.9990071058273315 -0.030186811462044716 -0.03276457265019417 
vn 0.9993491172790527 -0.015095127746462822 -0.03276457265019417 
vn 0.8825365900993347 -0.2315877079963684 -0.40926313400268555 
vn 0.8796141147613525 -0.1578708291053772 -0.4487268626689911 
vn 0.29183050990104675 -0.32787466049194336 -0.8985171914100647 
vn 0.2892128527164459 -0.20545563101768494 -0.9349566102027893 
vn 0.8782021403312683 -0.09799940139055252 -0.46814218163490295 
vn 0.9994345903396606 -0.007547779008746147 -0.03276457265019417 
vn 0.999997615814209 0 0.002184694167226553 
vn 0.999997615814209 0 -0.002184694167226553 
vn 0.999997615814209 0 -0.002184694167226553 
vn 0.999997615814209 0 0.002184694167226553 
vn 0.9995682239532471 -0.007548788096755743 -0.028397228568792343 
vn 0.8758488297462463 -0.052833594381809235 -0.4796847105026245 
vn 0.2851816415786743 -0.09663962572813034 -0.953589141368866 
vn 0.2843993604183197 0 -0.9587059020996094 
vn 0.8774409294128418 0 -0.4796847105026245 
vn 0.9992818832397461 -0.007546626031398773 -0.03713129088282585 
vn 0.999997615814209 0 0.002184694167226553 
vn 0.999997615814209 0 0.002184694167226553 
vn 0.999997615814209 0 0.002184694167226553 
vn 0.999997615814209 0 0.002184694167226553 
vn 0.999997615814209 0 0.002184694167226553 
vn 0.30116719007492065 -0.4762578308582306 -0.8261215686798096 
vn 0.8889029622077942 -0.31104061007499695 -0.3363112509250641 
vn 0.31100326776504517 -0.6594951748847961 -0.6843559741973877 
vn 0.8957750797271729 -0.39606961607933044 -0.2017817199230194 
vn 0.3320237994194031 -0.8459828495979309 -0.417220801115036 
vn 0.8960453271865845 -0.4309138059616089 -0.10684575140476227 
vn 0.32778260111808777 -0.915915846824646 -0.23163928091526031 
vn 0.9986851811408997 -0.04528285190463066 -0.024029340595006943 
vn 0.999997615814209 0 0.002184694167226553 
vn 0.999997615814209 0 0.002184694167226553 
vn 0.999997615814209 0 0.002184694167226553 
vn 0.999997615814209 0 0.002184694167226553 
vn 0.999997615814209 0 0.002184694167226553 
vn 0.9982607960700989 0 -0.058952588587999344 
vn 0.999997615814209 0 0.002184694167226553 
vn 0.9976789355278015 0.007552676368504763 -0.06767380982637405 
vn 0.999997615814209 0 0.002184694167226553 
vn 0.9858840107917786 0.0377437099814415 -0.16312000155448914 
vn 0.8758488297462463 0.052833594381809235 -0.4796847105026245 
vn 0.8733206987380981 0.12053264677524567 -0.4719987213611603 
vn 0.8609314560890198 0.1799093633890152 -0.4758462607860565 
vn 0.984757661819458 0.06036694347858429 -0.16312000155448914 
vn 0.2851816415786743 0.09663962572813034 -0.953589141368866 
vn 0.2857195734977722 0.24303415417671204 -0.926983654499054 
vn 0.29017212986946106 0.34483471512794495 -0.8926864862442017 
vn 0.999997615814209 0 0.002184694167226553 
vn 0.2851816415786743 -0.09663962572813034 -0.953589141368866 
vn -0.0018897876143455505 -0.10465624928474426 -0.9945066571235657 
vn -0.0018897876143455505 -0.10465624928474426 -0.9945066571235657 
vn -0.0018897876143455505 -0.10465624928474426 -0.9945066571235657 
vn -0.0018897876143455505 -0.10465624928474426 -0.9945066571235657 
vn 6.582066028283304e-14 -0.2124682515859604 -0.9771679639816284 
vn 6.582066028283304e-14 -0.2124682515859604 -0.9771679639816284 
vn 0.001891474355943501 -0.33836260437965393 -0.9410139322280884 
vn -0.003777894424274564 -0.49303221702575684 -0.8700028657913208 
vn 0.0037806248292326927 -0.6859368681907654 -0.7276512384414673 
vn -0.3320237994194031 -0.8459828495979309 -0.417220801115036 
vn -0.8944019675254822 -0.4343145787715912 -0.10684575140476227 
vn 0.2892128527164459 -0.20545563101768494 -0.9349566102027893 
vn 6.582066028283304e-14 -0.2124682515859604 -0.9771679639816284 
vn 6.582066028283304e-14 -0.2124682515859604 -0.9771679639816284 
vn 6.582066028283304e-14 -0.2124682515859604 -0.9771679639816284 
vn 6.582066028283304e-14 -0.2124682515859604 -0.9771679639816284 
vn 0.001891474355943501 -0.33836260437965393 -0.9410139322280884 
vn 0.001891474355943501 -0.33836260437965393 -0.9410139322280884 
vn 0.003777894424274564 -0.49303221702575684 -0.8700028657913208 
vn -0.0037806248292326927 -0.6859368681907654 -0.7276512384414673 
vn -0.0018893282394856215 -0.8936669826507568 -0.4487268626689911 
vn -0.3313369154930115 -0.9146360158920288 -0.23163928091526031 
vn 0.29183050990104675 -0.32787466049194336 -0.8985171914100647 
vn 0.001891474355943501 -0.33836260437965393 -0.9410139322280884 
vn 0.001891474355943501 -0.33836260437965393 -0.9410139322280884 
vn 0.001891474355943501 -0.33836260437965393 -0.9410139322280884 
vn 0.001891474355943501 -0.33836260437965393 -0.9410139322280884 
vn 0.003777894424274564 -0.49303221702575684 -0.8700028657913208 
vn -0.003777894424274564 -0.49303221702575684 -0.8700028657913208 
vn 0.0037806248292326927 -0.6859368681907654 -0.7276512384414673 
vn -0.0018893282394856215 -0.8936669826507568 -0.4487268626689911 
vn -0.0018874495290219784 -0.9696800708770752 -0.24437066912651062 
vn 0.30116719007492065 -0.4762578308582306 -0.8261215686798096 
vn 0.003777894424274564 -0.49303221702575684 -0.8700028657913208 
vn 0.003777894424274564 -0.49303221702575684 -0.8700028657913208 
vn -0.003777894424274564 -0.49303221702575684 -0.8700028657913208 
vn 0.003777894424274564 -0.49303221702575684 -0.8700028657913208 
vn 0.0037806248292326927 -0.6859368681907654 -0.7276512384414673 
vn -0.0037806248292326927 -0.6859368681907654 -0.7276512384414673 
vn -0.0018893282394856215 -0.8936669826507568 -0.4487268626689911 
vn -0.0018874495290219784 -0.9696800708770752 -0.24437066912651062 
vn 0.31100326776504517 -0.6594951748847961 -0.6843559741973877 
vn -0.0037806248292326927 -0.6859368681907654 -0.7276512384414673 
vn 0.0037806248292326927 -0.6859368681907654 -0.7276512384414673 
vn -0.0037806248292326927 -0.6859368681907654 -0.7276512384414673 
vn 0.0037806248292326927 -0.6859368681907654 -0.7276512384414673 
vn -0.0018893282394856215 -0.8936669826507568 -0.4487268626689911 
vn -0.0018893282394856215 -0.8936669826507568 -0.4487268626689911 
vn -0.0018874495290219784 -0.9696800708770752 -0.24437066912651062 
vn 0.3320237994194031 -0.8459828495979309 -0.417220801115036 
vn -0.0018893282394856215 -0.8936669826507568 -0.4487268626689911 
vn -0.0018893282394856215 -0.8936669826507568 -0.4487268626689911 
vn -0.0018893282394856215 -0.8936669826507568 -0.4487268626689911 
vn -0.0018893282394856215 -0.8936669826507568 -0.4487268626689911 
vn -0.0018874495290219784 -0.9696800708770752 -0.24437066912651062 
vn -0.0018874495290219784 -0.9696800708770752 -0.24437066912651062 
vn 0.32778260111808777 -0.915915846824646 -0.23163928091526031 
vn -0.0018874495290219784 -0.9696800708770752 -0.24437066912651062 
vn -0.0018874495290219784 -0.9696800708770752 -0.24437066912651062 
vn -0.0018874495290219784 -0.9696800708770752 -0.24437066912651062 
vn -0.0018874495290219784 -0.9696800708770752 -0.24437066912651062 
vn 0.999997615814209 0 0.002184694167226553 
vn 0.999997615814209 0 0.002184694167226553 
vn -0.9845194816589355 0.06413470953702927 -0.16312000155448914 
s on 
f 1//1 2//2 3//3 
f 2//2 4//4 3//3 
f 3//3 4//4 5//5 
f 4//4 6//6 5//5 
f 5//5 6//6 7//7 
f 6//6 8//8 7//7 
f 7//7 8//8 9//9 
f 8//8 10//10 9//9 
f 9//9 10//10 11//11 
f 10//10 12//12 11//11 
f 11//11 12//12 13//13 
f 12//12 14//14 13//13 
f 13//13 14//14 15//15 
f 14//14 16//16 15//15 
f 15//15 16//16 17//17 
f 16//16 18//18 17//17 
f 17//17 18//18 19//19 
f 18//18 20//20 19//19 
f 19//19 20//20 21//21 
f 20//20 22//22 21//21 
f 21//21 22//22 23//23 
f 22//22 24//24 23//23 
f 23//23 24//24 25//25 
f 24//24 26//26 25//25 
f 25//25 26//26 26//26 
f 26//26 2//2 26//26 
f 26//26 2//2 2//2 
f 2//2 27//27 2//2 
f 2//2 27//27 4//4 
f 27//27 28//28 4//4 
f 4//4 28//28 6//6 
f 28//28 29//29 6//6 
f 6//6 29//29 8//8 
f 29//29 30//30 8//8 
f 8//8 30//30 10//10 
f 30//30 31//31 10//10 
f 10//10 31//31 12//12 
f 31//31 32//32 12//12 
f 12//12 32//32 14//14 
f 32//32 33//33 14//14 
f 14//14 33//33 16//16 
f 33//33 34//34 16//16 
f 16//16 34//34 18//18 
f 34//34 35//35 18//18 
f 18//18 35//35 20//20 
f 35//35 36//36 20//20 
f 20//20 36//36 22//22 
f 36//36 37//37 22//22 
f 22//22 37//37 24//24 
f 37//37 38//38 24//24 
f 24//24 38//38 26//26 
f 38//38 39//39 26//26 
f 26//26 39//39 39//39 
f 39//39 27//27 39//39 
f 39//39 27//27 27//27 
f 27//27 40//40 27//27 
f 27//27 40//40 28//28 
f 40//40 41//41 28//28 
f 28//28 41//41 29//29 
f 41//41 42//42 29//29 
f 29//29 42//42 30//30 
f 42//42 43//43 30//30 
f 30//30 43//43 31//31 
f 43//43 44//44 31//31 
f 31//31 44//44 32//32 
f 44//44 45//45 32//32 
f 32//32 45//45 33//33 
f 45//45 46//46 33//33 
f 33//33 46//46 34//34 
f 46//46 47//47 34//34 
f 34//34 47//47 35//35 
f 47//47 48//48 35//35 
f 35//35 48//48 36//36 
f 48//48 49//49 36//36 
f 36//36 49//49 37//37 
f 49//49 50//50 37//37 
f 37//37 50//50 38//38 
f 50//50 51//51 38//38 
f 38//38 51//51 39//39 
f 51//51 52//52 39//39 
f 39//39 52//52 52//52 
f 52//52 40//40 52//52 
f 52//52 40//40 40//40 
f 40//40 53//53 40//40 
f 40//40 53//53 41//41 
f 53//53 54//54 41//41 
f 41//41 54//54 42//42 
f 54//54 55//55 42//42 
f 42//42 55//55 43//43 
f 55//55 56//56 43//43 
f 43//43 56//56 44//44 
f 56//56 57//57 44//44 
f 44//44 57//57 45//45 
f 57//57 58//58 45//45 
f 45//45 58//58 46//46 
f 58//58 59//59 46//46 
f 46//46 59//59 47//47 
f 59//59 60//60 47//47 
f 47//47 60//60 48//48 
f 60//60 61//61 48//48 
f 48//48 61//61 49//49 
f 61//61 62//62 49//49 
f 49//49 62//62 50//50 
f 62//62 63//63 50//50 
f 50//50 63//63 51//51 
f 63//63 64//64 51//51 
f 51//51 64//64 52//52 
f 64//64 65//65 52//52 
f 52//52 65//65 65//65 
f 65//65 53//53 65//65 
f 65//65 53//53 53//53 
f 53//53 66//66 53//53 
f 53//53 66//66 54//54 
f 66//66 67//67 54//54 
f 54//54 67//67 55//55 
f 67//67 68//68 55//55 
f 55//55 68//68 56//56 
f 68//68 69//69 56//56 
f 56//56 69//69 57//57 
f 69//69 70//70 57//57 
f 57//57 70//70 58//58 
f 70//70 71//71 58//58 
f 58//58 71//71 59//59 
f 71//71 72//72 59//59 
f 59//59 72//72 60//60 
f 72//72 73//73 60//60 
f 60//60 73//73 61//61 
f 73//73 74//74 61//61 
f 61//61 74//74 62//62 
f 74//74 75//75 62//62 
f 62//62 75//75 63//63 
f 75//75 76//76 63//63 
f 63//63 76//76 64//64 
f 76//76 77//77 64//64 
f 64//64 77//77 65//65 
f 77//77 78//78 65//65 
f 65//65 78//78 78//78 
f 78//78 66//66 78//78 
f 78//78 66//66 66//66 
f 66//66 79//79 66//66 
f 66//66 79//79 67//67 
f 79//79 80//80 67//67 
f 67//67 80//80 68//68 
f 80//80 81//81 68//68 
f 68//68 81//81 69//69 
f 81//81 82//82 69//69 
f 69//69 82//82 70//70 
f 82//82 83//83 70//70 
f 70//70 83//83 71//71 
f 83//83 84//84 71//71 
f 71//71 84//84 72//72 
f 84//84 85//85 72//72 
f 72//72 85//85 73//73 
f 85//85 86//86 73//73 
f 73//73 86//86 74//74 
f 86//86 87//87 74//74 
f 74//74 87//87 75//75 
f 87//87 88//88 75//75 
f 75//75 88//88 76//76 
f 88//88 89//89 76//76 
f 76//76 89//89 77//77 
f 89//89 90//90 77//77 
f 77//77 90//90 78//78 
f 90//90 78//78 78//78 
f 78//78 78//78 79//79 
f 78//78 79//79 79//79 
f 79//79 79//79 79//79 
f 79//79 91//91 79//79 
f 79//79 91//91 80//80 
f 91//91 92//92 80//80 
f 80//80 92//92 81//81 
f 92//92 93//93 81//81 
f 81//81 93//93 82//82 
f 93//93 94//94 82//82 
f 82//82 94//94 83//83 
f 94//94 95//95 83//83 
f 83//83 95//95 84//84 
f 95//95 96//96 84//84 
f 84//84 96//96 85//85 
f 96//96 97//97 85//85 
f 85//85 97//97 86//86 
f 97//97 98//98 86//86 
f 86//86 98//98 87//87 
f 98//98 99//99 87//87 
f 87//87 99//99 88//88 
f 99//99 100//100 88//88 
f 88//88 100//100 89//89 
f 100//100 101//101 89//89 
f 89//89 101//101 90//90 
f 101//101 90//90 90//90 
f 90//90 90//90 91//91 
f 90//90 91//91 91//91 
f 91//91 91//91 91//91 
f 91//91 102//102 91//91 
f 91//91 102//102 92//92 
f 102//102 103//103 92//92 
f 92//92 103//103 93//93 
f 103//103 104//104 93//93 
f 93//93 104//104 94//94 
f 104//104 105//105 94//94 
f 94//94 105//105 95//95 
f 105//105 106//106 95//95 
f 95//95 106//106 96//96 
f 106//106 107//107 96//96 
f 96//96 107//107 97//97 
f 107//107 108//108 97//97 
f 97//97 108//108 98//98 
f 108//108 109//109 98//98 
f 98//98 109//109 99//99 
f 109//109 110//110 99//99 
f 99//99 110//110 100//100 
f 110//110 111//111 100//100 
f 100//100 111//111 101//101 
f 111//111 101//101 101//101 
f 101//101 101//101 102//102 
f 101//101 102//102 102//102 
f 102//102 102//102 102//102 
f 102//102 112//112 102//102 
f 102//102 112//112 103//103 
f 112//112 113//113 103//103 
f 103//103 113//113 104//104 
f 113//113 114//114 104//104 
f 104//104 114//114 105//105 
f 114//114 115//115 105//105 
f 105//105 115//115 106//106 
f 115//115 116//116 106//106 
f 106//106 116//116 107//107 
f 116//116 117//117 107//107 
f 107//107 117//117 108//108 
f 117//117 118//118 108//108 
f 108//108 118//118 109//109 
f 118//118 119//119 109//109 
f 109//109 119//119 110//110 
f 119//119 120//120 110//110 
f 110//110 120//120 111//111 
f 120//120 111//111 111//111 
f 111//111 111//111 112//112 
f 111//111 112//112 112//112 
f 112//112 112//112 112//112 
f 112//112 121//121 112//112 
f 112//112 121//121 113//113 
f 121//121 122//122 113//113 
f 113//113 122//122 114//114 
f 122//122 123//123 114//114 
f 114//114 123//123 115//115 
f 123//123 124//124 115//115 
f 115//115 124//124 116//116 
f 124//124 125//125 116//116 
f 116//116 125//125 117//117 
f 125//125 126//126 117//117 
f 117//117 126//126 118//118 
f 126//126 127//127 118//118 
f 118//118 127//127 119//119 
f 127//127 119//119 119//119 
f 119//119 119//119 112//112 
f 119//119 112//112 112//112 
f 112//112 112//112 112//112 
f 112//112 128//128 112//112 
f 112//112 128//128 121//121 
f 128//128 129//129 121//121 
f 121//121 129//129 130//130 
f 129//129 131//131 130//130 
f 130//130 131//131 132//132 
f 131//131 133//133 132//132 
f 132//132 133//133 134//134 
f 133//133 135//135 134//134 
f 134//134 135//135 136//136 
f 135//135 137//137 136//136 
f 136//136 137//137 138//138 
f 137//137 139//139 138//138 
f 138//138 139//139 140//140 
f 139//139 141//141 140//140 
f 140//140 141//141 142//142 
f 141//141 143//143 142//142 
f 142//142 143//143 144//144 
f 143//143 145//145 144//144 
f 144//144 145//145 146//146 
f 145//145 147//147 146//146 
f 146//146 147//147 148//148 
f 147//147 149//149 148//148 
f 148//148 149//149 150//150 
f 149//149 151//151 150//150 
f 150//150 151//151 152//152 
f 151//151 153//153 152//152 
f 152//152 153//153 153//153 
f 153//153 128//128 153//153 
f 153//153 128//128 128//128 
f 128//128 154//154 128//128 
f 128//128 154//154 129//129 
f 154//154 155//155 129//129 
f 129//129 155//155 131//131 
f 155//155 156//156 131//131 
f 131//131 156//156 133//133 
f 156//156 157//157 133//133 
f 133//133 157//157 135//135 
f 157//157 158//158 135//135 
f 135//135 158//158 137//137 
f 158//158 159//159 137//137 
f 137//137 159//159 139//139 
f 159//159 160//160 139//139 
f 139//139 160//160 141//141 
f 160//160 161//161 141//141 
f 141//141 161//161 143//143 
f 161//161 162//162 143//143 
f 143//143 162//162 145//145 
f 162//162 163//163 145//145 
f 145//145 163//163 147//147 
f 163//163 164//164 147//147 
f 147//147 164//164 149//149 
f 164//164 165//165 149//149 
f 149//149 165//165 151//151 
f 165//165 166//166 151//151 
f 151//151 166//166 153//153 
f 166//166 167//167 153//153 
f 153//153 167//167 167//167 
f 167//167 128//128 167//167 
f 167//167 128//128 128//128 
f 128//128 168//168 128//128 
f 128//128 168//168 154//154 
f 168//168 169//169 154//154 
f 154//154 169//169 155//155 
f 169//169 170//170 155//155 
f 155//155 170//170 156//156 
f 170//170 171//171 156//156 
f 156//156 171//171 157//157 
f 171//171 172//172 157//157 
f 157//157 172//172 158//158 
f 172//172 173//173 158//158 
f 158//158 173//173 159//159 
f 173//173 174//174 159//159 
f 159//159 174//174 160//160 
f 174//174 175//175 160//160 
f 160//160 175//175 161//161 
f 175//175 176//176 161//161 
f 161//161 176//176 162//162 
f 176//176 177//177 162//162 
f 162//162 177//177 163//163 
f 177//177 178//178 163//163 
f 163//163 178//178 164//164 
f 178//178 179//179 164//164 
f 164//164 179//179 165//165 
f 179//179 180//180 165//165 
f 165//165 180//180 166//166 
f 180//180 181//181 166//166 
f 166//166 181//181 167//167 
f 181//181 182//182 167//167 
f 167//167 182//182 182//182 
f 182//182 168//168 182//182 
f 182//182 168//168 168//168 
f 168//168 183//183 168//168 
f 168//168 183//183 169//169 
f 183//183 184//184 169//169 
f 169//169 184//184 170//170 
f 184//184 185//185 170//170 
f 170//170 185//185 171//171 
f 185//185 186//186 171//171 
f 171//171 186//186 172//172 
f 186//186 187//187 172//172 
f 172//172 187//187 173//173 
f 187//187 188//188 173//173 
f 173//173 188//188 174//174 
f 188//188 189//189 174//174 
f 174//174 189//189 175//175 
f 189//189 190//190 175//175 
f 175//175 190//190 176//176 
f 190//190 191//191 176//176 
f 176//176 191//191 177//177 
f 191//191 192//192 177//177 
f 177//177 192//192 178//178 
f 192//192 178//178 178//178 
f 178//178 178//178 168//168 
f 178//178 168//168 168//168 
f 168//168 168//168 168//168 
f 168//168 193//193 168//168 
f 168//168 193//193 183//183 
f 193//193 194//194 183//183 
f 183//183 194//194 184//184 
f 194//194 195//195 184//184 
f 184//184 195//195 185//185 
f 195//195 196//196 185//185 
f 185//185 196//196 186//186 
f 196//196 197//197 186//186 
f 186//186 197//197 187//187 
f 197//197 198//198 187//187 
f 187//187 198//198 188//188 
f 198//198 199//199 188//188 
f 188//188 199//199 189//189 
f 199//199 200//200 189//189 
f 189//189 200//200 190//190 
f 200//200 201//201 190//190 
f 190//190 201//201 191//191 
f 201//201 191//191 191//191 
f 191//191 191//191 193//193 
f 191//191 193//193 193//193 
f 193//193 193//193 193//193 
f 193//193 202//202 193//193 
f 193//193 202//202 194//194 
f 202//202 203//203 194//194 
f 194//194 203//203 195//195 
f 203//203 204//204 195//195 
f 195//195 204//204 196//196 
f 204//204 205//205 196//196 
f 196//196 205//205 197//197 
f 205//205 206//206 197//197 
f 197//197 206//206 198//198 
f 206//206 207//207 198//198 
f 198//198 207//207 199//199 
f 207//207 208//208 199//199 
f 199//199 208//208 200//200 
f 208//208 209//209 200//200 
f 200//200 209//209 201//201 
f 209//209 201//201 201//201 
f 201//201 201//201 205//205 
f 201//201 205//205 205//205 
f 205//205 205//205 205//205 
f 205//205 210//210 205//205 
f 205//205 210//210 206//206 
f 210//210 211//211 206//206 
f 206//206 211//211 207//207 
f 211//211 212//212 207//207 
f 207//207 212//212 208//208 
f 212//212 213//213 208//208 
f 208//208 213//213 209//209 
f 213//213 209//209 209//209 
f 209//209 209//209 210//210 
f 209//209 210//210 210//210 
f 210//210 210//210 210//210 
f 210//210 214//214 210//210 
f 210//210 214//214 211//211 
f 214//214 215//215 211//211 
f 211//211 215//215 212//212 
f 215//215 216//216 212//212 
f 212//212 216//216 213//213 
f 216//216 213//213 213//213 
f 213//213 213//213 214//214 
f 213//213 214//214 214//214 
f 214//214 214//214 214//214 
f 214//214 217//217 214//214 
f 214//214 217//217 215//215 
f 217//217 218//218 215//215 
f 215//215 218//218 216//216 
f 218//218 216//216 216//216 
f 216//216 216//216 217//217 
f 216//216 217//217 217//217 
f 217//217 217//217 217//217 
f 217//217 214//214 217//217 
f 217//217 214//214 219//219 
f 214//214 220//220 219//219 
f 219//219 220//220 220//220 
f 220//220 214//214 220//220 
f 220//220 214//214 214//214 
f 214//214 210//210 214//214 
f 214//214 210//210 220//220 
f 210//210 221//221 220//220 
f 220//220 221//221 221//221 
f 221//221 210//210 221//221 
f 221//221 210//210 210//210 
f 210//210 205//205 210//210 
f 210//210 205//205 221//221 
f 205//205 222//222 221//221 
f 221//221 222//222 223//223 
f 222//222 224//224 223//223 
f 223//223 224//224 224//224 
f 224//224 205//205 224//224 
f 224//224 205//205 205//205 
f 205//205 204//204 205//205 
f 205//205 204//204 222//222 
f 204//204 224//224 222//222 
f 222//222 224//224 224//224 
f 224//224 204//204 224//224 
f 224//224 204//204 225//225 
f 204//204 203//203 225//225 
f 225//225 203//203 226//226 
f 203//203 227//227 226//226 
f 226//226 227//227 227//227 
f 227//227 203//203 227//227 
f 227//227 203//203 203//203 
f 203//203 202//202 203//203 
f 203//203 202//202 227//227 
f 202//202 228//228 227//227 
f 227//227 228//228 229//229 
f 228//228 230//230 229//229 
f 229//229 230//230 230//230 
f 230//230 228//228 230//230 
f 230//230 228//228 228//228 
f 228//228 202//202 228//228 
f 228//228 202//202 231//231 
f 202//202 193//193 231//231 
f 231//231 193//193 232//232 
f 193//193 233//233 232//232 
f 232//232 233//233 234//234 
f 233//233 235//235 234//234 
f 234//234 235//235 102//102 
f 235//235 112//112 102//102 
f 102//102 112//112 112//112 
f 112//112 235//235 112//112 
f 112//112 235//235 128//128 
f 235//235 233//233 128//128 
f 128//128 233//233 236//236 
f 233//233 193//193 236//236 
f 236//236 193//193 168//168 
f 193//193 168//168 168//168 
f 168//168 168//168 102//102 
f 168//168 102//102 102//102 
f 102//102 102//102 102//102 
f 102//102 91//91 102//102 
f 102//102 91//91 234//234 
f 91//91 237//237 234//234 
f 234//234 237//237 232//232 
f 237//237 231//231 232//232 
f 232//232 231//231 231//231 
f 231//231 91//91 231//231 
f 231//231 91//91 91//91 
f 91//91 79//79 91//91 
f 91//91 79//79 237//237 
f 79//79 238//238 237//237 
f 237//237 238//238 231//231 
f 238//238 228//228 231//231 
f 231//231 228//228 228//228 
f 228//228 79//79 228//228 
f 228//228 79//79 79//79 
f 79//79 66//66 79//79 
f 79//79 66//66 238//238 
f 66//66 239//239 238//238 
f 238//238 239//239 228//228 
f 239//239 230//230 228//228 
f 228//228 230//230 230//230 
f 230//230 66//66 230//230 
f 230//230 66//66 66//66 
f 66//66 53//53 66//66 
f 66//66 53//53 239//239 
f 53//53 240//240 239//239 
f 239//239 240//240 241//241 
f 240//240 242//242 241//241 
f 241//241 242//242 242//242 
f 242//242 240//240 242//242 
f 242//242 240//240 240//240 
f 240//240 53//53 240//240 
f 240//240 53//53 243//243 
f 53//53 40//40 243//243 
f 243//243 40//40 244//244 
f 40//40 27//27 244//244 
f 244//244 27//27 245//245 
f 27//27 2//2 245//245 
f 245//245 2//2 2//2 
f 2//2 246//246 2//2 
f 2//2 246//246 246//246 
f 246//246 247//247 246//246 
f 246//246 247//247 248//248 
f 247//247 249//249 248//248 
f 248//248 249//249 250//250 
f 249//249 251//251 250//250 
f 250//250 251//251 252//252 
f 251//251 253//253 252//252 
f 252//252 253//253 254//254 
f 253//253 23//23 254//254 
f 254//254 23//23 25//25 
f 23//23 25//25 25//25 
f 25//25 25//25 23//23 
f 25//25 23//23 23//23 
f 23//23 23//23 23//23 
f 23//23 253//253 23//23 
f 23//23 253//253 21//21 
f 253//253 255//255 21//21 
f 21//21 255//255 19//19 
f 255//255 256//256 19//19 
f 19//19 256//256 17//17 
f 256//256 257//257 17//17 
f 17//17 257//257 15//15 
f 257//257 258//258 15//15 
f 15//15 258//258 13//13 
f 258//258 13//13 13//13 
f 13//13 13//13 253//253 
f 13//13 253//253 253//253 
f 253//253 253//253 253//253 
f 253//253 251//251 253//253 
f 253//253 251//251 255//255 
f 251//251 259//259 255//255 
f 255//255 259//259 256//256 
f 259//259 260//260 256//256 
f 256//256 260//260 257//257 
f 260//260 257//257 257//257 
f 257//257 257//257 260//260 
f 257//257 260//260 260//260 
f 260//260 260//260 260//260 
f 260//260 259//259 260//260 
f 260//260 259//259 261//261 
f 259//259 249//249 261//261 
f 261//261 249//249 247//247 
f 249//249 247//247 247//247 
f 247//247 247//247 262//262 
f 247//247 262//262 262//262 
f 262//262 262//262 262//262 
f 262//262 263//263 262//262 
f 262//262 263//263 264//264 
f 263//263 265//265 264//264 
f 264//264 265//265 266//266 
f 265//265 267//267 266//266 
f 266//266 267//267 268//268 
f 267//267 269//269 268//268 
f 268//268 269//269 270//270 
f 269//269 271//271 270//270 
f 270//270 271//271 272//272 
f 271//271 273//273 272//272 
f 272//272 273//273 274//274 
f 273//273 275//275 274//274 
f 274//274 275//275 276//276 
f 275//275 277//277 276//276 
f 276//276 277//277 278//278 
f 277//277 279//279 278//278 
f 278//278 279//279 280//280 
f 279//279 281//281 280//280 
f 280//280 281//281 282//282 
f 281//281 283//283 282//282 
f 282//282 283//283 283//283 
f 283//283 263//263 283//283 
f 283//283 263//263 263//263 
f 263//263 284//284 263//263 
f 263//263 284//284 265//265 
f 284//284 285//285 265//265 
f 265//265 285//285 267//267 
f 285//285 286//286 267//267 
f 267//267 286//286 269//269 
f 286//286 287//287 269//269 
f 269//269 287//287 271//271 
f 287//287 288//288 271//271 
f 271//271 288//288 273//273 
f 288//288 289//289 273//273 
f 273//273 289//289 275//275 
f 289//289 290//290 275//275 
f 275//275 290//290 277//277 
f 290//290 291//291 277//277 
f 277//277 291//291 279//279 
f 291//291 292//292 279//279 
f 279//279 292//292 281//281 
f 292//292 293//293 281//281 
f 281//281 293//293 283//283 
f 293//293 294//294 283//283 
f 283//283 294//294 294//294 
f 294//294 284//284 294//294 
f 294//294 284//284 284//284 
f 284//284 295//295 284//284 
f 284//284 295//295 285//285 
f 295//295 296//296 285//285 
f 285//285 296//296 286//286 
f 296//296 297//297 286//286 
f 286//286 297//297 287//287 
f 297//297 298//298 287//287 
f 287//287 298//298 288//288 
f 298//298 299//299 288//288 
f 288//288 299//299 289//289 
f 299//299 300//300 289//289 
f 289//289 300//300 290//290 
f 300//300 301//301 290//290 
f 290//290 301//301 302//302 
f 301//301 303//303 302//302 
f 302//302 303//303 303//303 
f 303//303 296//296 303//303 
f 303//303 296//296 296//296 
f 296//296 304//304 296//296 
f 296//296 304//304 297//297 
f 304//304 305//305 297//297 
f 297//297 305//305 298//298 
f 305//305 306//306 298//298 
f 298//298 306//306 299//299 
f 306//306 307//307 299//299 
f 299//299 307//307 300//300 
f 307//307 308//308 300//300 
f 300//300 308//308 309//309 
f 308//308 309//309 309//309 
f 309//309 309//309 306//306 
f 309//309 306//306 306//306 
f 306//306 306//306 306//306 
f 306//306 305//305 306//306 
f 306//306 305//305 310//310 
f 305//305 304//304 310//310 
f 310//310 304//304 311//311 
f 304//304 295//295 311//311 
f 311//311 295//295 312//312 
f 295//295 313//313 312//312 
f 312//312 313//313 314//314 
f 313//313 315//315 314//314 
f 314//314 315//315 316//316 
f 315//315 317//317 316//316 
f 316//316 317//317 318//318 
f 317//317 319//319 318//318 
f 318//318 319//319 320//320 
f 319//319 320//320 320//320 
f 320//320 320//320 320//320 
f 320//320 321//321 320//320 
f 320//320 321//321 318//318 
f 321//321 322//322 318//318 
f 318//318 322//322 316//316 
f 322//322 323//323 316//316 
f 316//316 323//323 314//314 
f 323//323 324//324 314//314 
f 314//314 324//324 312//312 
f 324//324 310//310 312//312 
f 312//312 310//310 311//311 
f 310//310 311//311 311//311 
f 311//311 311//311 310//310 
f 311//311 310//310 310//310 
f 310//310 310//310 310//310 
f 310//310 324//324 310//310 
f 310//310 324//324 325//325 
f 324//324 323//323 325//325 
f 325//325 323//323 326//326 
f 323//323 322//322 326//326 
f 326//326 322//322 327//327 
f 322//322 321//321 327//327 
f 327//327 321//321 328//328 
f 321//321 329//329 328//328 
f 328//328 329//329 330//330 
f 329//329 330//330 330//330 
f 330//330 330//330 330//330 
f 330//330 331//331 330//330 
f 330//330 331//331 328//328 
f 331//331 332//332 328//328 
f 328//328 332//332 327//327 
f 332//332 333//333 327//327 
f 327//327 333//333 326//326 
f 333//333 334//334 326//326 
f 326//326 334//334 325//325 
f 334//334 335//335 325//325 
f 325//325 335//335 310//310 
f 335//335 306//306 310//310 
f 310//310 306//306 306//306 
f 306//306 334//334 306//306 
f 306//306 334//334 334//334 
f 334//334 336//336 334//334 
f 334//334 336//336 335//335 
f 336//336 307//307 335//335 
f 335//335 307//307 306//306 
f 307//307 306//306 306//306 
f 306//306 306//306 336//336 
f 306//306 336//336 336//336 
f 336//336 336//336 336//336 
f 336//336 337//337 336//336 
f 336//336 337//337 307//307 
f 337//337 308//308 307//307 
f 307//307 308//308 308//308 
f 308//308 319//319 308//308 
f 308//308 319//319 319//319 
f 319//319 317//317 319//319 
f 319//319 317//317 338//338 
f 317//317 339//339 338//338 
f 338//338 339//339 340//340 
f 339//339 341//341 340//340 
f 340//340 341//341 342//342 
f 341//341 343//343 342//342 
f 342//342 343//343 344//344 
f 343//343 344//344 344//344 
f 344//344 344//344 317//317 
f 344//344 317//317 317//317 
f 317//317 317//317 317//317 
f 317//317 315//315 317//317 
f 317//317 315//315 339//339 
f 315//315 345//345 339//339 
f 339//339 345//345 341//341 
f 345//345 284//284 341//341 
f 341//341 284//284 343//343 
f 284//284 343//343 343//343 
f 343//343 343//343 315//315 
f 343//343 315//315 315//315 
f 315//315 315//315 315//315 
f 315//315 313//313 315//315 
f 315//315 313//313 345//345 
f 313//313 295//295 345//345 
f 345//345 295//295 284//284 
f 295//295 284//284 284//284 
f 284//284 284//284 303//303 
f 284//284 303//303 303//303 
f 303//303 303//303 303//303 
f 303//303 301//301 303//303 
f 303//303 301//301 309//309 
f 301//301 300//300 309//309 
f 309//309 300//300 300//300 
f 300//300 336//336 300//300 
f 300//300 336//336 336//336 
f 336//336 334//334 336//336 
f 336//336 334//334 346//346 
f 334//334 347//347 346//346 
f 346//346 347//347 347//347 
f 347//347 334//334 347//347 
f 347//347 334//334 334//334 
f 334//334 333//333 334//334 
f 334//334 333//333 347//347 
f 333//333 348//348 347//347 
f 347//347 348//348 348//348 
f 348//348 333//333 348//348 
f 348//348 333//333 349//349 
f 333//333 332//332 349//349 
f 349//349 332//332 350//350 
f 332//332 351//351 350//350 
f 350//350 351//351 352//352 
f 351//351 353//353 352//352 
f 352//352 353//353 354//354 
f 353//353 355//355 354//354 
f 354//354 355//355 355//355 
f 355//355 332//332 355//355 
f 355//355 332//332 332//332 
f 332//332 331//331 332//332 
f 332//332 331//331 351//351 
f 331//331 356//356 351//351 
f 351//351 356//356 353//353 
f 356//356 357//357 353//353 
f 353//353 357//357 355//355 
f 357//357 358//358 355//355 
f 355//355 358//358 359//359 
f 358//358 359//359 359//359 
f 359//359 359//359 331//331 
f 359//359 331//331 331//331 
f 331//331 331//331 331//331 
f 331//331 360//360 331//331 
f 331//331 360//360 356//356 
f 360//360 361//361 356//356 
f 356//356 361//361 357//357 
f 361//361 362//362 357//357 
f 357//357 362//362 358//358 
f 362//362 358//358 358//358 
f 358//358 358//358 348//348 
f 358//358 348//348 348//348 
f 348//348 348//348 348//348 
f 348//348 349//349 348//348 
f 348//348 349//349 363//363 
f 349//349 350//350 363//363 
f 363//363 350//350 350//350 
f 350//350 152//152 350//350 
f 350//350 152//152 152//152 
f 152//152 364//364 152//152 
f 152//152 364//364 150//150 
f 364//364 365//365 150//150 
f 150//150 365//365 148//148 
f 365//365 366//366 148//148 
f 148//148 366//366 146//146 
f 366//366 367//367 146//146 
f 146//146 367//367 144//144 
f 367//367 368//368 144//144 
f 144//144 368//368 142//142 
f 368//368 369//369 142//142 
f 142//142 369//369 140//140 
f 369//369 370//370 140//140 
f 140//140 370//370 138//138 
f 370//370 371//371 138//138 
f 138//138 371//371 136//136 
f 371//371 372//372 136//136 
f 136//136 372//372 134//134 
f 372//372 373//373 134//134 
f 134//134 373//373 132//132 
f 373//373 374//374 132//132 
f 132//132 374//374 130//130 
f 374//374 375//375 130//130 
f 130//130 375//375 121//121 
f 375//375 121//121 121//121 
f 121//121 121//121 364//364 
f 121//121 364//364 364//364 
f 364//364 364//364 364//364 
f 364//364 376//376 364//364 
f 364//364 376//376 365//365 
f 376//376 377//377 365//365 
f 365//365 377//377 366//366 
f 377//377 378//378 366//366 
f 366//366 378//378 367//367 
f 378//378 379//379 367//367 
f 367//367 379//379 368//368 
f 379//379 380//380 368//368 
f 368//368 380//380 369//369 
f 380//380 381//381 369//369 
f 369//369 381//381 370//370 
f 381//381 382//382 370//370 
f 370//370 382//382 371//371 
f 382//382 383//383 371//371 
f 371//371 383//383 372//372 
f 383//383 384//384 372//372 
f 372//372 384//384 373//373 
f 384//384 385//385 373//373 
f 373//373 385//385 374//374 
f 385//385 386//386 374//374 
f 374//374 386//386 375//375 
f 386//386 375//375 375//375 
f 375//375 375//375 376//376 
f 375//375 376//376 376//376 
f 376//376 376//376 376//376 
f 376//376 387//387 376//376 
f 376//376 387//387 377//377 
f 387//387 388//388 377//377 
f 377//377 388//388 378//378 
f 388//388 389//389 378//378 
f 378//378 389//389 379//379 
f 389//389 390//390 379//379 
f 379//379 390//390 380//380 
f 390//390 391//391 380//380 
f 380//380 391//391 381//381 
f 391//391 392//392 381//381 
f 381//381 392//392 382//382 
f 392//392 393//393 382//382 
f 382//382 393//393 383//383 
f 393//393 394//394 383//383 
f 383//383 394//394 384//384 
f 394//394 395//395 384//384 
f 384//384 395//395 385//385 
f 395//395 396//396 385//385 
f 385//385 396//396 386//386 
f 396//396 386//386 386//386 
f 386//386 386//386 387//387 
f 386//386 387//387 387//387 
f 387//387 387//387 387//387 
f 387//387 397//397 387//387 
f 387//387 397//397 388//388 
f 397//397 398//398 388//388 
f 388//388 398//398 389//389 
f 398//398 399//399 389//389 
f 389//389 399//399 390//390 
f 399//399 400//400 390//390 
f 390//390 400//400 391//391 
f 400//400 401//401 391//391 
f 391//391 401//401 392//392 
f 401//401 402//402 392//392 
f 392//392 402//402 393//393 
f 402//402 403//403 393//393 
f 393//393 403//403 394//394 
f 403//403 404//404 394//394 
f 394//394 404//404 395//395 
f 404//404 405//405 395//395 
f 395//395 405//405 396//396 
f 405//405 396//396 396//396 
f 396//396 396//396 397//397 
f 396//396 397//397 397//397 
f 397//397 397//397 397//397 
f 397//397 406//406 397//397 
f 397//397 406//406 398//398 
f 406//406 407//407 398//398 
f 398//398 407//407 399//399 
f 407//407 408//408 399//399 
f 399//399 408//408 400//400 
f 408//408 409//409 400//400 
f 400//400 409//409 401//401 
f 409//409 410//410 401//401 
f 401//401 410//410 402//402 
f 410//410 411//411 402//402 
f 402//402 411//411 403//403 
f 411//411 412//412 403//403 
f 403//403 412//412 404//404 
f 412//412 413//413 404//404 
f 404//404 413//413 405//405 
f 413//413 405//405 405//405 
f 405//405 405//405 406//406 
f 405//405 406//406 406//406 
f 406//406 406//406 406//406 
f 406//406 414//414 406//406 
f 406//406 414//414 407//407 
f 414//414 415//415 407//407 
f 407//407 415//415 408//408 
f 415//415 416//416 408//408 
f 408//408 416//416 409//409 
f 416//416 417//417 409//409 
f 409//409 417//417 410//410 
f 417//417 418//418 410//410 
f 410//410 418//418 411//411 
f 418//418 419//419 411//411 
f 411//411 419//419 412//412 
f 419//419 420//420 412//412 
f 412//412 420//420 413//413 
f 420//420 413//413 413//413 
f 413//413 413//413 414//414 
f 413//413 414//414 414//414 
f 414//414 414//414 414//414 
f 414//414 421//421 414//414 
f 414//414 421//421 415//415 
f 421//421 422//422 415//415 
f 415//415 422//422 416//416 
f 422//422 423//423 416//416 
f 416//416 423//423 417//417 
f 423//423 424//424 417//417 
f 417//417 424//424 418//418 
f 424//424 425//425 418//418 
f 418//418 425//425 419//419 
f 425//425 419//419 419//419 
f 419//419 419//419 290//290 
f 419//419 290//290 290//290 
f 290//290 290//290 290//290 
f 290//290 302//302 290//290 
f 290//290 302//302 291//291 
f 302//302 426//426 291//291 
f 291//291 426//426 292//292 
f 426//426 427//427 292//292 
f 292//292 427//427 293//293 
f 241//241 230//230 239//239 
f 243//243 242//242 240//240 
f 218//218 217//217 428//428 
f 128//128 236//236 168//168 
f 251//251 249//249 259//259 
f 295//295 304//304 296//296 
f 321//321 320//320 329//329 
f 331//331 330//330 360//360 

