mtllib model_13.mtl
o model_13
v 29.400001525878906 0 -44.10000228881836 
v 15.193718910217285 0 -44.10000228881836 
v 29.400001525878906 0 -29.971399307250977 
v 14.700000762939453 0 -29.971399307250977 
v 14.700000762939453 0 6.867830276489258 
v 2.220446049250313e-16 0 6.867830276489258 
v 14.700000762939453 0 19.671382904052734 
v 2.220446049250313e-16 0 19.671382904052734 
v 14.700000762939453 0 29.400001525878906 
v 0 0 29.400001525878906 
v 14.700000762939453 0 44.10000228881836 
v 0 0 44.10000228881836 
v -0.4937134087085724 0 -44.10000228881836 
v 2.0796835994465313e-16 0 -29.971399307250977 
v -14.700000762939453 0 6.867830276489258 
v -14.700000762939453 0 19.671382904052734 
v -14.700000762939453 0 29.400001525878906 
v -14.700000762939453 0 44.10000228881836 
v -14.700000762939453 0 -44.10000228881836 
v -14.700000762939453 0 -29.971399307250977 
v -29.400001525878906 0 6.867830276489258 
v -29.400001525878906 0 19.671382904052734 
v -29.400001525878906 0 29.400001525878906 
v -29.400001525878906 0 44.10000228881836 
v -29.400001525878906 0 -44.10000228881836 
v -29.400001525878906 0 -29.971399307250977 
v 29.400001525878906 0 6.867830276489258 
v 29.400001525878906 0 19.671382904052734 
v 29.400001525878906 0 29.400001525878906 
v 29.400001525878906 0 44.10000228881836 
v 15.193718910217285 0 -44.10000228881836 
v 15.193718910217285 0 -82.81372833251953 
v -0.4937134087085724 0 -44.10000228881836 
v -0.4937134087085724 0 -82.81372833251953 
vn -1.0341130485562108e-13 0.999997615814209 0.002184694167226553 
vn -1.0341130485562108e-13 0.999997615814209 0.002184694167226553 
vn -1.0341130485562108e-13 0.999997615814209 0.002184694167226553 
vn -1.0341130485562108e-13 0.999997615814209 0.002184694167226553 
vn -1.0341130485562108e-13 0.999997615814209 0.002184694167226553 
vn -1.0341130485562108e-13 0.999997615814209 0.002184694167226553 
vn -1.0341130485562108e-13 0.999997615814209 0.002184694167226553 
vn -1.0341130485562108e-13 0.999997615814209 0.002184694167226553 
vn -1.0341130485562108e-13 0.999997615814209 0.002184694167226553 
vn -1.0341130485562108e-13 0.999997615814209 0.002184694167226553 
vn -1.0341130485562108e-13 0.999997615814209 0.002184694167226553 
vn -1.0341130485562108e-13 0.999997615814209 0.002184694167226553 
vn -1.0341130485562108e-13 0.999997615814209 0.002184694167226553 
vn -1.0341130485562108e-13 0.999997615814209 0.002184694167226553 
vn -1.0341130485562108e-13 0.999997615814209 0.002184694167226553 
vn -1.0341130485562108e-13 0.999997615814209 0.002184694167226553 
vn -1.0341130485562108e-13 0.999997615814209 0.002184694167226553 
vn -1.0341130485562108e-13 0.999997615814209 0.002184694167226553 
vn -1.0341130485562108e-13 0.999997615814209 0.002184694167226553 
vn -1.0341130485562108e-13 0.999997615814209 0.002184694167226553 
vn -1.0341130485562108e-13 0.999997615814209 0.002184694167226553 
vn -1.0341130485562108e-13 0.999997615814209 0.002184694167226553 
vn -1.0341130485562108e-13 0.999997615814209 0.002184694167226553 
vn -1.0341130485562108e-13 0.999997615814209 0.002184694167226553 
vn -1.0341130485562108e-13 0.999997615814209 0.002184694167226553 
vn -1.0341130485562108e-13 0.999997615814209 0.002184694167226553 
vn -1.0341130485562108e-13 0.999997615814209 0.002184694167226553 
vn -1.0341130485562108e-13 0.999997615814209 0.002184694167226553 
vn -1.0341130485562108e-13 0.999997615814209 0.002184694167226553 
vn -1.0341130485562108e-13 0.999997615814209 0.002184694167226553 
vn -1.0341130485562108e-13 0.999997615814209 0.002184694167226553 
vn -1.0341130485562108e-13 0.999997615814209 0.002184694167226553 
vn -1.0341130485562108e-13 0.999997615814209 0.002184694167226553 
vn -1.0341130485562108e-13 0.999997615814209 0.002184694167226553 
vt 0.9835018515586853 0.3715369403362274 
vt 0.9257497191429138 0.3715369403362274 
vt 0.9835018515586853 0.31415534019470215 
vt 0.9237360954284668 0.31415534019470215 
vt 0.9237360954284668 0.164371058344841 
vt 0.8639995455741882 0.164371058344841 
vt 0.9237360954284668 0.11234338581562042 
vt 0.8639995455741882 0.11234338581562042 
vt 0.9237360954284668 0.07278724014759064 
vt 0.8639995455741882 0.07278724014759064 
vt 0.9237360954284668 0.013012100011110306 
vt 0.8639995455741882 0.013012100011110306 
vt 0.8619859218597412 0.3715369403362274 
vt 0.8639995455741882 0.31415534019470215 
vt 0.8042337894439697 0.164371058344841 
vt 0.8042337894439697 0.11234338581562042 
vt 0.8042337894439697 0.07278724014759064 
vt 0.8042337894439697 0.013012100011110306 
vt 0.8042337894439697 0.3715369403362274 
vt 0.8042337894439697 0.31415534019470215 
vt 0.7444679737091064 0.164371058344841 
vt 0.7444679737091064 0.11234338581562042 
vt 0.7444679737091064 0.07278724014759064 
vt 0.7444679737091064 0.013012100011110306 
vt 0.7444679737091064 0.3715369403362274 
vt 0.7444679737091064 0.31415534019470215 
vt 0.9835018515586853 0.164371058344841 
vt 0.9835018515586853 0.11234338581562042 
vt 0.9835018515586853 0.07278724014759064 
vt 0.9835018515586853 0.013012100011110306 
vt 0.9257497191429138 0.3715369403362274 
vt 0.9257497191429138 0.5289427042007446 
vt 0.8619859218597412 0.3715369403362274 
vt 0.8619859218597412 0.5289427042007446 
s on 
f 1/1/1 2/2/2 3/3/3 
f 2/2/2 4/4/4 3/3/3 
f 3/3/3 4/4/4 5/5/5 
f 4/4/4 6/6/6 5/5/5 
f 5/5/5 6/6/6 7/7/7 
f 6/6/6 8/8/8 7/7/7 
f 7/7/7 8/8/8 9/9/9 
f 8/8/8 10/10/10 9/9/9 
f 9/9/9 10/10/10 11/11/11 
f 10/10/10 12/12/12 11/11/11 
f 11/11/11 12/12/12 12/12/12 
f 12/12/12 2/2/2 12/12/12 
f 12/12/12 2/2/2 2/2/2 
f 2/2/2 13/13/13 2/2/2 
f 2/2/2 13/13/13 4/4/4 
f 13/13/13 14/14/14 4/4/4 
f 4/4/4 14/14/14 6/6/6 
f 14/14/14 15/15/15 6/6/6 
f 6/6/6 15/15/15 8/8/8 
f 15/15/15 16/16/16 8/8/8 
f 8/8/8 16/16/16 10/10/10 
f 16/16/16 17/17/17 10/10/10 
f 10/10/10 17/17/17 12/12/12 
f 17/17/17 18/18/18 12/12/12 
f 12/12/12 18/18/18 18/18/18 
f 18/18/18 13/13/13 18/18/18 
f 18/18/18 13/13/13 13/13/13 
f 13/13/13 19/19/19 13/13/13 
f 13/13/13 19/19/19 14/14/14 
f 19/19/19 20/20/20 14/14/14 
f 14/14/14 20/20/20 15/15/15 
f 20/20/20 21/21/21 15/15/15 
f 15/15/15 21/21/21 16/16/16 
f 21/21/21 22/22/22 16/16/16 
f 16/16/16 22/22/22 17/17/17 
f 22/22/22 23/23/23 17/17/17 
f 17/17/17 23/23/23 18/18/18 
f 23/23/23 24/24/24 18/18/18 
f 18/18/18 24/24/24 24/24/24 
f 24/24/24 19/19/19 24/24/24 
f 24/24/24 19/19/19 19/19/19 
f 19/19/19 25/25/25 19/19/19 
f 19/19/19 25/25/25 20/20/20 
f 25/25/25 26/26/26 20/20/20 
f 20/20/20 26/26/26 21/21/21 
f 26/26/26 21/21/21 21/21/21 
f 21/21/21 21/21/21 3/3/3 
f 21/21/21 3/3/3 3/3/3 
f 3/3/3 3/3/3 3/3/3 
f 3/3/3 5/5/5 3/3/3 
f 3/3/3 5/5/5 27/27/27 
f 5/5/5 28/28/28 27/27/27 
f 27/27/27 28/28/28 28/28/28 
f 28/28/28 5/5/5 28/28/28 
f 28/28/28 5/5/5 5/5/5 
f 5/5/5 7/7/7 5/5/5 
f 5/5/5 7/7/7 28/28/28 
f 7/7/7 29/29/29 28/28/28 
f 28/28/28 29/29/29 29/29/29 
f 29/29/29 7/7/7 29/29/29 
f 29/29/29 7/7/7 7/7/7 
f 7/7/7 9/9/9 7/7/7 
f 7/7/7 9/9/9 29/29/29 
f 9/9/9 30/30/30 29/29/29 
f 29/29/29 30/30/30 30/30/30 
f 30/30/30 31/31/31 30/30/30 
f 30/30/30 31/31/31 31/31/31 
f 31/31/31 32/32/32 31/31/31 
f 31/31/31 32/32/32 33/33/33 
f 32/32/32 34/34/34 33/33/33 
f 9/9/9 11/11/11 30/30/30 

