mtllib model_42.mtl
o model_42
v 22.743799209594727 5.104916572570801 -10.567070007324219 
v 22.743799209594727 4.872869968414307 -10.567070007324219 
v 26.210289001464844 5.104916572570801 -10.290289878845215 
v 26.210289001464844 4.872869968414307 -10.290289878845215 
v 22.743799209594727 4.872869968414307 -10.567070007324219 
v 22.743799209594727 5.104916572570801 -10.567070007324219 
v 23.20806121826172 4.872869968414307 -16.148799896240234 
v 23.20806121826172 5.104916572570801 -16.148799896240234 
v 23.20806121826172 5.104916572570801 -16.148799896240234 
v 26.674551010131836 5.104916572570801 -15.87201976776123 
v 23.20806121826172 4.872869968414307 -16.148799896240234 
v 26.674551010131836 4.872869968414307 -15.87201976776123 
v 22.9604549407959 5.139723300933838 -10.797719955444336 
v 23.42471694946289 5.364034652709961 -15.825889587402344 
v 23.42471694946289 5.139723300933838 -15.825889587402344 
v 26.426944732666016 5.139723300933838 -15.549110412597656 
v 23.42471694946289 5.139723300933838 -15.825889587402344 
v 23.42471694946289 5.364034652709961 -15.825889587402344 
v 22.9604549407959 5.139723300933838 -10.797719955444336 
v 22.9604549407959 5.364034652709961 -10.797719955444336 
v 23.42471694946289 5.364034652709961 -15.825889587402344 
v 22.9604549407959 5.139723300933838 -10.797719955444336 
v 25.962682723999023 5.139723300933838 -10.520939826965332 
v 22.9604549407959 5.364034652709961 -10.797719955444336 
v 26.426944732666016 5.139723300933838 -15.549110412597656 
v 23.42471694946289 5.364034652709961 -15.825889587402344 
v 26.426944732666016 5.364034652709961 -15.549110412597656 
v 22.9604549407959 5.364034652709961 -10.797719955444336 
v 25.962682723999023 5.139723300933838 -10.520939826965332 
v 25.962682723999023 5.364034652709961 -10.520939826965332 
vn -0.08292311429977417 -1.7150416490078167e-14 0.9965559244155884 
vn -0.08292311429977417 -1.7150416490078167e-14 0.9965559244155884 
vn -0.08292311429977417 -1.7150416490078167e-14 0.9965559244155884 
vn -0.08292311429977417 -1.7150416490078167e-14 0.9965559244155884 
vn -0.9967275857925415 0.0037772341165691614 -0.08074574917554855 
vn -0.9967275857925415 0.0037772341165691614 -0.08074574917554855 
vn -0.9967275857925415 0.0037772341165691614 -0.08074574917554855 
vn -0.9967275857925415 0.0037772341165691614 -0.08074574917554855 
vn 0.08292311429977417 0 -0.9965559244155884 
vn 0.08292311429977417 0 -0.9965559244155884 
vn 0.08292311429977417 0 -0.9965559244155884 
vn 0.08292311429977417 0 -0.9965559244155884 
vn -0.995983898639679 -0.003774415934458375 -0.08945280313491821 
vn -0.995983898639679 -0.003774415934458375 -0.08945280313491821 
vn -0.995983898639679 -0.003774415934458375 -0.08945280313491821 
vn 0.09162852168083191 0 -0.9957932829856873 
vn 0.09162852168083191 0 -0.9957932829856873 
vn 0.09162852168083191 0 -0.9957932829856873 
vn -0.995983898639679 -0.003774415934458375 -0.08945280313491821 
vn -0.995983898639679 -0.003774415934458375 -0.08945280313491821 
vn -0.995983898639679 -0.003774415934458375 -0.08945280313491821 
vn -0.09162852168083191 -1.895089682781622e-14 0.9957932829856873 
vn -0.09162852168083191 -1.895089682781622e-14 0.9957932829856873 
vn -0.09162852168083191 -1.895089682781622e-14 0.9957932829856873 
vn 0.09162852168083191 0 -0.9957932829856873 
vn 0.09162852168083191 0 -0.9957932829856873 
vn 0.09162852168083191 0 -0.9957932829856873 
vn -0.09162852168083191 -1.895089682781622e-14 0.9957932829856873 
vn -0.09162852168083191 -1.895089682781622e-14 0.9957932829856873 
vn -0.09162852168083191 -1.895089682781622e-14 0.9957932829856873 
s on 
f 1//1 2//2 3//3 
f 2//2 4//4 3//3 
f 3//3 4//4 4//4 
f 4//4 5//5 4//4 
f 4//4 5//5 5//5 
f 5//5 6//6 5//5 
f 5//5 6//6 7//7 
f 6//6 8//8 7//7 
f 7//7 8//8 8//8 
f 8//8 9//9 8//8 
f 8//8 9//9 9//9 
f 9//9 10//10 9//9 
f 9//9 10//10 11//11 
f 10//10 12//12 11//11 
f 13//13 14//14 15//15 
f 16//16 17//17 18//18 
f 19//19 20//20 21//21 
f 22//22 23//23 24//24 
f 25//25 26//26 27//27 
f 28//28 29//29 30//30 

