mtllib model_39.mtl
o model_39
v 25.420772552490234 19.87498664855957 38.1824951171875 
v 25.50006866455078 19.31026268005371 38.10300064086914 
v 25.1942081451416 20.353759765625 38.40814971923828 
v 24.455360412597656 20.785526275634766 39.14448165893555 
v 24.855117797851562 20.67338752746582 38.746002197265625 
v 24.65926742553711 20.75732421875 38.941471099853516 
v 23.410400390625 19.31026268005371 40.18596649169922 
v 24.455360412597656 17.834999084472656 39.14448165893555 
v 23.71651268005371 18.267438888549805 39.88106918334961 
v 24.055349349975586 17.947139739990234 39.543216705322266 
v 23.874855041503906 18.083452224731445 39.72308349609375 
v 23.962711334228516 18.0089168548584 39.63554000854492 
v 25.1942081451416 18.267438888549805 38.40814971923828 
v 24.855117797851562 17.947139739990234 38.746002197265625 
v 24.660022735595703 17.863874435424805 38.94046401977539 
v 24.758703231811523 17.898792266845703 38.84235382080078 
v 25.035865783691406 18.083452224731445 38.565879821777344 
v 25.118183135986328 18.170074462890625 38.48387145996094 
v 23.792537689208984 20.45045280456543 39.80534744262695 
v 23.874855041503906 20.53707504272461 39.72308349609375 
v 23.71651268005371 20.353759765625 39.88106918334961 
v 24.055349349975586 20.67338752746582 39.543216705322266 
v 24.251453399658203 20.75732421875 39.347747802734375 
v 23.489948272705078 19.87498664855957 40.10672378540039 
v 23.58661651611328 20.13015365600586 40.010623931884766 
v 23.533750534057617 20.00592803955078 40.062950134277344 
v 24.352903366088867 17.84238624572754 39.246620178222656 
v 24.251453399658203 17.863203048706055 39.347747802734375 
v 25.035865783691406 20.53707504272461 38.565879821777344 
v 24.947757720947266 20.611610412597656 38.65367889404297 
v 25.455259323120117 19.73867416381836 38.14802932739258 
v 25.480180740356445 19.59833335876465 38.12312698364258 
v 25.420772552490234 19.87498664855957 38.1824951171875 
v 25.50006866455078 19.31026268005371 38.10300064086914 
v 23.410400390625 19.31026268005371 40.18596649169922 
v 23.489948272705078 18.745540618896484 40.10672378540039 
v 23.430538177490234 19.022193908691406 40.16609191894531 
v 23.455461502075195 18.881853103637695 40.14118957519531 
v 25.26293182373047 20.246320724487305 38.339473724365234 
v 25.32410430908203 20.13015365600586 38.278594970703125 
v 25.1942081451416 20.353759765625 38.40814971923828 
v 25.420772552490234 19.87498664855957 38.1824951171875 
v 23.410400390625 19.31026268005371 40.18596649169922 
v 23.430538177490234 19.59833335876465 40.16609191894531 
v 23.489948272705078 19.87498664855957 40.10672378540039 
v 23.455461502075195 19.73867416381836 40.14118957519531 
v 23.489948272705078 18.745540618896484 40.10672378540039 
v 23.58661651611328 18.490373611450195 40.010623931884766 
v 25.376718521118164 18.614599227905273 38.226016998291016 
v 25.32410430908203 18.490373611450195 38.278594970703125 
v 25.420772552490234 18.745540618896484 38.1824951171875 
v 25.479677200317383 19.018165588378906 38.123626708984375 
v 25.495033264160156 19.1658935546875 38.1080322265625 
v 24.15201759338379 20.72173500061035 39.44686508178711 
v 24.557817459106445 20.778141021728516 39.042598724365234 
v 23.64753532409668 18.37420654296875 39.949745178222656 
v -10.202628135681152 7.901331424713135 34.07361602783203 
v -11.290661811828613 7.901331424713135 30.351608276367188 
v -10.202628135681152 7.735260009765625 34.07361602783203 
v -11.290661811828613 7.735260009765625 30.351608276367188 
v -11.290661811828613 7.901331424713135 30.351608276367188 
v -9.161492347717285 7.901331424713135 29.729154586791992 
v -11.290661811828613 7.735260009765625 30.351608276367188 
v -9.161492347717285 7.735260009765625 29.729154586791992 
v -10.136970520019531 8.05496597290039 33.97199249267578 
v -10.136970520019531 8.004486083984375 33.95928955078125 
v -8.214152336120605 8.05496597290039 33.400352478027344 
v -10.136970520019531 7.926937580108643 33.97199249267578 
v -8.214152336120605 7.926937580108643 33.400352478027344 
v -27.273500442504883 9.014816284179688 12.09725284576416 
v -27.26412010192871 8.943851470947266 12.109955787658691 
v -25.08805274963379 9.014816284179688 13.837577819824219 
v -27.273500442504883 8.836307525634766 12.09725284576416 
v -25.08805274963379 8.836307525634766 13.837577819824219 
v -27.273500442504883 8.836307525634766 12.09725284576416 
v -27.26412010192871 8.943851470947266 12.109955787658691 
v -24.065677642822266 8.836307525634766 8.070369720458984 
v -27.26412010192871 8.943851470947266 12.109955787658691 
v -24.065677642822266 9.014816284179688 8.070369720458984 
v -24.065677642822266 8.836307525634766 8.070369720458984 
v -24.065677642822266 8.836307525634766 8.070369720458984 
v -24.065677642822266 9.014816284179688 8.070369720458984 
v -21.880229949951172 9.014816284179688 9.810694694519043 
v -21.880229949951172 8.836307525634766 9.810694694519043 
v -24.065677642822266 8.836307525634766 8.070369720458984 
v -21.880229949951172 9.014816284179688 9.810694694519043 
v -27.26412010192871 8.943851470947266 12.109955787658691 
v -27.273500442504883 9.014816284179688 12.09725284576416 
v -24.065677642822266 9.014816284179688 8.070369720458984 
v -27.151565551757812 9.040421485900879 11.894002914428711 
v -24.450241088867188 9.232099533081055 8.540384292602539 
v -24.450241088867188 9.039690017700195 8.540384292602539 
v -22.45238494873047 9.040421485900879 10.153677940368652 
v -24.450241088867188 9.039690017700195 8.540384292602539 
v -24.450241088867188 9.232099533081055 8.540384292602539 
v -27.151565551757812 9.040421485900879 11.894002914428711 
v -27.151565551757812 9.232831001281738 11.894002914428711 
v -24.450241088867188 9.232099533081055 8.540384292602539 
v -27.151565551757812 9.040421485900879 11.894002914428711 
v -25.153711318969727 9.040421485900879 13.507296562194824 
v -27.151565551757812 9.232831001281738 11.894002914428711 
v -22.45238494873047 9.040421485900879 10.153677940368652 
v -24.450241088867188 9.232099533081055 8.540384292602539 
v -22.45238494873047 9.232099533081055 10.153677940368652 
v -27.151565551757812 9.232831001281738 11.894002914428711 
v -25.153711318969727 9.040421485900879 13.507296562194824 
v -25.153711318969727 9.232831001281738 13.507296562194824 
v -10.136970520019531 7.926937580108643 33.97199249267578 
v -10.136970520019531 8.004486083984375 33.95928955078125 
v -11.187485694885254 7.926937580108643 30.402420043945312 
v -10.136970520019531 8.004486083984375 33.95928955078125 
v -11.187485694885254 8.05496597290039 30.402420043945312 
v -11.187485694885254 7.926937580108643 30.402420043945312 
v -11.187485694885254 7.926937580108643 30.402420043945312 
v -11.187485694885254 8.05496597290039 30.402420043945312 
v -9.255288124084473 8.05496597290039 29.843482971191406 
v -9.255288124084473 7.926937580108643 29.843482971191406 
v -11.187485694885254 7.926937580108643 30.402420043945312 
v -9.255288124084473 8.05496597290039 29.843482971191406 
v -10.136970520019531 8.004486083984375 33.95928955078125 
v -10.136970520019531 8.05496597290039 33.97199249267578 
v -11.187485694885254 8.05496597290039 30.402420043945312 
v -10.202628135681152 7.901331424713135 34.07361602783203 
v -10.202628135681152 7.735260009765625 34.07361602783203 
v -8.073458671569824 7.901331424713135 33.45116424560547 
v -8.073458671569824 7.735260009765625 33.45116424560547 
v -8.073458671569824 7.901331424713135 33.45116424560547 
v -10.202628135681152 7.735260009765625 34.07361602783203 
vn -0.9542446732521057 -1.9693608180847144e-13 -0.2990269064903259 
vn -0.9542446732521057 -1.9693608180847144e-13 -0.2990269064903259 
vn -0.9542446732521057 -1.9693608180847144e-13 -0.2990269064903259 
vn -0.9542446732521057 -1.9693608180847144e-13 -0.2990269064903259 
vn -0.9542446732521057 -1.9693608180847144e-13 -0.2990269064903259 
vn -0.9542446732521057 -1.9693608180847144e-13 -0.2990269064903259 
vn -0.9542446732521057 -1.9693608180847144e-13 -0.2990269064903259 
vn -0.9542446732521057 -1.9693608180847144e-13 -0.2990269064903259 
vn -0.9542446732521057 -1.9693608180847144e-13 -0.2990269064903259 
vn -0.9542446732521057 -1.9693608180847144e-13 -0.2990269064903259 
vn -0.9542446732521057 -1.9693608180847144e-13 -0.2990269064903259 
vn -0.9542446732521057 -1.9693608180847144e-13 -0.2990269064903259 
vn -0.9542446732521057 -1.9693608180847144e-13 -0.2990269064903259 
vn -0.9542446732521057 -1.9693608180847144e-13 -0.2990269064903259 
vn -0.9542446732521057 -1.9693608180847144e-13 -0.2990269064903259 
vn -0.9542446732521057 -1.9693608180847144e-13 -0.2990269064903259 
vn -0.9542446732521057 -1.9693608180847144e-13 -0.2990269064903259 
vn -0.9542446732521057 -1.9693608180847144e-13 -0.2990269064903259 
vn -0.9542446732521057 -1.9693608180847144e-13 -0.2990269064903259 
vn -0.9542446732521057 -1.9693608180847144e-13 -0.2990269064903259 
vn -0.9542446732521057 -1.9693608180847144e-13 -0.2990269064903259 
vn -0.9542446732521057 -1.9693608180847144e-13 -0.2990269064903259 
vn -0.9542446732521057 -1.9693608180847144e-13 -0.2990269064903259 
vn -0.9542446732521057 -1.9693608180847144e-13 -0.2990269064903259 
vn -0.9542446732521057 -1.9693608180847144e-13 -0.2990269064903259 
vn -0.9542446732521057 -1.9693608180847144e-13 -0.2990269064903259 
vn -0.9542446732521057 -1.9693608180847144e-13 -0.2990269064903259 
vn -0.9542446732521057 -1.9693608180847144e-13 -0.2990269064903259 
vn -0.9542446732521057 -1.9693608180847144e-13 -0.2990269064903259 
vn -0.9542446732521057 -1.9693608180847144e-13 -0.2990269064903259 
vn -0.9542446732521057 -1.9693608180847144e-13 -0.2990269064903259 
vn -0.9542446732521057 -1.9693608180847144e-13 -0.2990269064903259 
vn -0.9542446732521057 -1.9693608180847144e-13 -0.2990269064903259 
vn -0.9542446732521057 -1.9693608180847144e-13 -0.2990269064903259 
vn -0.9542446732521057 -1.9693608180847144e-13 -0.2990269064903259 
vn -0.9542446732521057 -1.9693608180847144e-13 -0.2990269064903259 
vn -0.9542446732521057 -1.9693608180847144e-13 -0.2990269064903259 
vn -0.9542446732521057 -1.9693608180847144e-13 -0.2990269064903259 
vn -0.9542446732521057 -1.9693608180847144e-13 -0.2990269064903259 
vn -0.9542446732521057 -1.9693608180847144e-13 -0.2990269064903259 
vn -0.9542446732521057 -1.9693608180847144e-13 -0.2990269064903259 
vn -0.9542446732521057 -1.9693608180847144e-13 -0.2990269064903259 
vn -0.9542446732521057 -1.9693608180847144e-13 -0.2990269064903259 
vn -0.9542446732521057 -1.9693608180847144e-13 -0.2990269064903259 
vn -0.9542446732521057 -1.9693608180847144e-13 -0.2990269064903259 
vn -0.9542446732521057 -1.9693608180847144e-13 -0.2990269064903259 
vn -0.9542446732521057 -1.9693608180847144e-13 -0.2990269064903259 
vn -0.9542446732521057 -1.9693608180847144e-13 -0.2990269064903259 
vn -0.9542446732521057 -1.9693608180847144e-13 -0.2990269064903259 
vn -0.9542446732521057 -1.9693608180847144e-13 -0.2990269064903259 
vn -0.9542446732521057 -1.9693608180847144e-13 -0.2990269064903259 
vn -0.9542446732521057 -1.9693608180847144e-13 -0.2990269064903259 
vn -0.9542446732521057 -1.9693608180847144e-13 -0.2990269064903259 
vn -0.9542446732521057 -1.9693608180847144e-13 -0.2990269064903259 
vn -0.9542446732521057 -1.9693608180847144e-13 -0.2990269064903259 
vn -0.9542446732521057 -1.9693608180847144e-13 -0.2990269064903259 
vn -0.9593175053596497 0.003771965391933918 0.28230419754981995 
vn -0.9593175053596497 0.003771965391933918 0.28230419754981995 
vn -0.9593175053596497 0.003771965391933918 0.28230419754981995 
vn -0.9593175053596497 0.003771965391933918 0.28230419754981995 
vn -0.28018221259117126 0.003777990350499749 -0.9599394202232361 
vn -0.28018221259117126 0.003777990350499749 -0.9599394202232361 
vn -0.28018221259117126 0.003777990350499749 -0.9599394202232361 
vn -0.28018221259117126 0.003777990350499749 -0.9599394202232361 
vn 0.28020769357681274 0 0.9599394202232361 
vn 0.28020769357681274 0 0.9599394202232361 
vn 0.28020769357681274 0 0.9599394202232361 
vn 0.28020769357681274 0 0.9599394202232361 
vn 0.28020769357681274 0 0.9599394202232361 
vn -0.6232457756996155 -1.2890162299095814e-13 0.7820260524749756 
vn -0.6232457756996155 -1.2890162299095814e-13 0.7820260524749756 
vn -0.6232457756996155 -1.2890162299095814e-13 0.7820260524749756 
vn -0.6232457756996155 -1.2890162299095814e-13 0.7820260524749756 
vn -0.6232457756996155 -1.2890162299095814e-13 0.7820260524749756 
vn -0.7799709439277649 0.09792426228523254 -0.6181069612503052 
vn -0.7799709439277649 0.09792426228523254 -0.6181069612503052 
vn -0.7799709439277649 0.09792426228523254 -0.6181069612503052 
vn -0.7833857536315918 -1.6202227818944148e-13 -0.6215357780456543 
vn -0.7833857536315918 -1.6202227818944148e-13 -0.6215357780456543 
vn -0.7833857536315918 -1.6202227818944148e-13 -0.6215357780456543 
vn 0.6232457756996155 0 -0.7820260524749756 
vn 0.6232457756996155 0 -0.7820260524749756 
vn 0.6232457756996155 0 -0.7820260524749756 
vn 0.6232457756996155 0 -0.7820260524749756 
vn 0.6232457756996155 0 -0.7820260524749756 
vn 0.6232457756996155 0 -0.7820260524749756 
vn -0.7757619023323059 -0.1427544802427292 -0.6146662831306458 
vn -0.7757619023323059 -0.1427544802427292 -0.6146662831306458 
vn -0.7757619023323059 -0.1427544802427292 -0.6146662831306458 
vn -0.7779152989387512 -0.0037772986106574535 -0.6283578276634216 
vn -0.7779152989387512 -0.0037772986106574535 -0.6283578276634216 
vn -0.7779152989387512 -0.0037772986106574535 -0.6283578276634216 
vn 0.630055844783783 0 -0.7765498161315918 
vn 0.630055844783783 0 -0.7765498161315918 
vn 0.630055844783783 0 -0.7765498161315918 
vn -0.7779152989387512 -0.0037772986106574535 -0.6283578276634216 
vn -0.7779152989387512 -0.0037772986106574535 -0.6283578276634216 
vn -0.7779152989387512 -0.0037772986106574535 -0.6283578276634216 
vn -0.6300445795059204 -0.0037702228873968124 0.7765498161315918 
vn -0.6300445795059204 -0.0037702228873968124 0.7765498161315918 
vn -0.6300445795059204 -0.0037702228873968124 0.7765498161315918 
vn 0.630055844783783 0 -0.7765498161315918 
vn 0.630055844783783 0 -0.7765498161315918 
vn 0.630055844783783 0 -0.7765498161315918 
vn -0.6300445795059204 -0.0037702228873968124 0.7765498161315918 
vn -0.6300445795059204 -0.0037702228873968124 0.7765498161315918 
vn -0.6300445795059204 -0.0037702228873968124 0.7765498161315918 
vn -0.9555468559265137 0.09790346026420593 0.2781098484992981 
vn -0.9555468559265137 0.09790346026420593 0.2781098484992981 
vn -0.9555468559265137 0.09790346026420593 0.2781098484992981 
vn -0.9593175053596497 0.003771965391933918 0.28230419754981995 
vn -0.9593175053596497 0.003771965391933918 0.28230419754981995 
vn -0.9593175053596497 0.003771965391933918 0.28230419754981995 
vn -0.28018221259117126 0.003777990350499749 -0.9599394202232361 
vn -0.28018221259117126 0.003777990350499749 -0.9599394202232361 
vn -0.28018221259117126 0.003777990350499749 -0.9599394202232361 
vn -0.28018221259117126 0.003777990350499749 -0.9599394202232361 
vn -0.28018221259117126 0.003777990350499749 -0.9599394202232361 
vn -0.28018221259117126 0.003777990350499749 -0.9599394202232361 
vn -0.949874222278595 -0.14280720055103302 0.2781098484992981 
vn -0.949874222278595 -0.14280720055103302 0.2781098484992981 
vn -0.949874222278595 -0.14280720055103302 0.2781098484992981 
vn 0.28020769357681274 0 0.9599394202232361 
vn 0.28020769357681274 0 0.9599394202232361 
vn 0.28020769357681274 0 0.9599394202232361 
vn 0.28020769357681274 0 0.9599394202232361 
vn 0.28020769357681274 0 0.9599394202232361 
vn 0.28020769357681274 0 0.9599394202232361 
s on 
f 1//1 2//2 3//3 
f 2//2 4//4 3//3 
f 3//3 4//4 5//5 
f 4//4 6//6 5//5 
f 5//5 6//6 6//6 
f 6//6 4//4 6//6 
f 6//6 4//4 4//4 
f 4//4 2//2 4//4 
f 4//4 2//2 7//7 
f 2//2 8//8 7//7 
f 7//7 8//8 9//9 
f 8//8 10//10 9//9 
f 9//9 10//10 11//11 
f 10//10 12//12 11//11 
f 11//11 12//12 12//12 
f 12//12 2//2 12//12 
f 12//12 2//2 2//2 
f 2//2 13//13 2//2 
f 2//2 13//13 8//8 
f 13//13 14//14 8//8 
f 8//8 14//14 15//15 
f 14//14 16//16 15//15 
f 15//15 16//16 16//16 
f 16//16 14//14 16//16 
f 16//16 14//14 14//14 
f 14//14 13//13 14//14 
f 14//14 13//13 17//17 
f 13//13 18//18 17//17 
f 17//17 18//18 18//18 
f 18//18 19//19 18//18 
f 18//18 19//19 19//19 
f 19//19 20//20 19//19 
f 19//19 20//20 21//21 
f 20//20 22//22 21//21 
f 21//21 22//22 4//4 
f 22//22 23//23 4//4 
f 4//4 23//23 23//23 
f 23//23 4//4 23//23 
f 23//23 4//4 4//4 
f 4//4 7//7 4//4 
f 4//4 7//7 21//21 
f 7//7 24//24 21//21 
f 21//21 24//24 25//25 
f 24//24 26//26 25//25 
f 25//25 26//26 26//26 
f 26//26 27//27 26//26 
f 26//26 27//27 27//27 
f 27//27 28//28 27//27 
f 27//27 28//28 8//8 
f 28//28 10//10 8//8 
f 8//8 10//10 10//10 
f 10//10 3//3 10//10 
f 10//10 3//3 3//3 
f 3//3 5//5 3//3 
f 3//3 5//5 29//29 
f 5//5 30//30 29//29 
f 29//29 30//30 30//30 
f 30//30 31//31 30//30 
f 30//30 31//31 31//31 
f 31//31 32//32 31//31 
f 31//31 32//32 33//33 
f 32//32 34//34 33//33 
f 33//33 34//34 34//34 
f 34//34 35//35 34//34 
f 34//34 35//35 35//35 
f 35//35 36//36 35//35 
f 35//35 36//36 37//37 
f 36//36 38//38 37//37 
f 37//37 38//38 38//38 
f 38//38 39//39 38//38 
f 38//38 39//39 39//39 
f 39//39 40//40 39//39 
f 39//39 40//40 41//41 
f 40//40 42//42 41//41 
f 41//41 42//42 42//42 
f 42//42 43//43 42//42 
f 42//42 43//43 43//43 
f 43//43 44//44 43//43 
f 43//43 44//44 45//45 
f 44//44 46//46 45//45 
f 45//45 46//46 46//46 
f 46//46 7//7 46//46 
f 46//46 7//7 7//7 
f 7//7 9//9 7//7 
f 7//7 9//9 47//47 
f 9//9 48//48 47//47 
f 47//47 48//48 48//48 
f 48//48 49//49 48//48 
f 48//48 49//49 49//49 
f 49//49 50//50 49//49 
f 49//49 50//50 51//51 
f 50//50 13//13 51//51 
f 51//51 13//13 2//2 
f 13//13 2//2 2//2 
f 2//2 2//2 51//51 
f 2//2 51//51 51//51 
f 51//51 51//51 51//51 
f 51//51 2//2 51//51 
f 51//51 2//2 52//52 
f 2//2 53//53 52//52 
f 52//52 53//53 53//53 
f 53//53 57//57 53//53 
f 53//53 57//57 57//57 
f 57//57 58//58 57//57 
f 57//57 58//58 59//59 
f 58//58 60//60 59//59 
f 59//59 60//60 60//60 
f 60//60 61//61 60//60 
f 60//60 61//61 61//61 
f 61//61 62//62 61//61 
f 61//61 62//62 63//63 
f 62//62 64//64 63//63 
f 63//63 64//64 64//64 
f 64//64 65//65 64//64 
f 64//64 65//65 65//65 
f 65//65 66//66 65//65 
f 65//65 66//66 67//67 
f 66//66 68//68 67//67 
f 67//67 68//68 69//69 
f 68//68 69//69 69//69 
f 69//69 69//69 70//70 
f 69//69 70//70 70//70 
f 70//70 70//70 70//70 
f 70//70 71//71 70//70 
f 70//70 71//71 72//72 
f 71//71 73//73 72//72 
f 72//72 73//73 74//74 
f 22//22 54//54 23//23 
f 4//4 55//55 6//6 
f 9//9 56//56 48//48 
f 75//75 76//76 77//77 
f 78//78 79//79 80//80 
f 81//81 82//82 83//83 
f 84//84 85//85 86//86 
f 87//87 88//88 89//89 
f 90//90 91//91 92//92 
f 93//93 94//94 95//95 
f 96//96 97//97 98//98 
f 99//99 100//100 101//101 
f 102//102 103//103 104//104 
f 105//105 106//106 107//107 
f 108//108 109//109 110//110 
f 111//111 112//112 113//113 
f 114//114 115//115 116//116 
f 117//117 118//118 119//119 
f 120//120 121//121 122//122 
f 123//123 124//124 125//125 
f 126//126 127//127 128//128 

