mtllib model_25.mtl
o model_25
v -25.14607810974121 15.177900314331055 -32.09196090698242 
v -23.801076889038086 15.19028377532959 -34.41600036621094 
v -25.07576560974121 15.177900314331055 -32.07024002075195 
v -23.74210548400879 15.19028377532959 -34.37255859375 
v -23.801076889038086 15.19028377532959 -34.41600036621094 
v -25.14607810974121 15.177900314331055 -32.09196090698242 
v -23.771591186523438 15.250568389892578 -34.39427947998047 
v -25.10978889465332 15.2487154006958 -32.07024002075195 
v -23.739837646484375 15.19028377532959 -29.094600677490234 
v -25.073497772216797 15.177900314331055 -31.41864013671875 
v -23.769323348999023 15.250568389892578 -29.072879791259766 
v -25.107521057128906 15.2487154006958 -31.39691925048828 
v -23.769323348999023 15.250568389892578 10.023119926452637 
v -25.107521057128906 15.2487154006958 7.699079990386963 
v -23.801076889038086 15.19028377532959 10.044839859008789 
v -25.143810272216797 15.177900314331055 7.720799922943115 
v -23.739837646484375 15.19028377532959 10.001399993896484 
v -25.073497772216797 15.177900314331055 7.699079990386963 
v -23.769323348999023 15.250568389892578 10.023119926452637 
v -25.107521057128906 15.2487154006958 7.699079990386963 
v -25.073497772216797 15.177900314331055 7.699079990386963 
v -23.739837646484375 15.19028377532959 10.001399993896484 
v -25.143810272216797 15.177900314331055 7.720799922943115 
v -23.801076889038086 15.19028377532959 10.044839859008789 
v -25.70630645751953 15.177900314331055 7.329840183258057 
v -28.382699966430664 15.19028377532959 7.329840183258057 
v -25.70630645751953 15.2487154006958 7.373280048370361 
v -28.382699966430664 15.250568389892578 7.373280048370361 
v -25.70630645751953 15.2487154006958 7.373280048370361 
v -28.382699966430664 15.250568389892578 7.373280048370361 
v -25.70630645751953 15.177900314331055 7.416719913482666 
v -28.382699966430664 15.19028377532959 7.394999980926514 
v -25.70630645751953 15.177900314331055 7.416719913482666 
v -28.382699966430664 15.19028377532959 7.394999980926514 
v -25.70630645751953 15.177900314331055 7.329840183258057 
v -28.382699966430664 15.19028377532959 7.329840183258057 
v -25.07576560974121 15.177900314331055 7.04748010635376 
v -23.74210548400879 15.19028377532959 4.723440170288086 
v -25.10978889465332 15.2487154006958 7.025760173797607 
v -23.771591186523438 15.250568389892578 4.701720237731934 
v -25.10978889465332 15.2487154006958 7.025760173797607 
v -23.771591186523438 15.250568389892578 4.701720237731934 
v -25.14607810974121 15.177900314331055 7.004039764404297 
v -23.801076889038086 15.19028377532959 4.679999828338623 
v -25.14607810974121 15.177900314331055 7.004039764404297 
v -23.801076889038086 15.19028377532959 4.679999828338623 
v -25.07576560974121 15.177900314331055 7.04748010635376 
v -23.74210548400879 15.19028377532959 4.723440170288086 
v -25.143810272216797 15.177900314331055 -31.375200271606445 
v -23.801076889038086 15.19028377532959 -29.05116081237793 
v -25.107521057128906 15.2487154006958 -31.39691925048828 
v -23.769323348999023 15.250568389892578 -29.072879791259766 
v -23.801076889038086 15.19028377532959 -29.05116081237793 
v -25.143810272216797 15.177900314331055 -31.375200271606445 
v -23.739837646484375 15.19028377532959 -29.094600677490234 
v -25.073497772216797 15.177900314331055 -31.41864013671875 
v -28.382699966430664 15.250568389892578 -31.74444007873535 
v -25.70630645751953 15.2487154006958 -31.74444007873535 
v -28.382699966430664 15.19028377532959 -31.766159057617188 
v -25.70630645751953 15.177900314331055 -31.766159057617188 
v -28.382699966430664 15.19028377532959 -31.701000213623047 
v -25.70630645751953 15.177900314331055 -31.701000213623047 
v -28.382699966430664 15.250568389892578 -31.74444007873535 
v -25.70630645751953 15.2487154006958 -31.74444007873535 
v -28.382699966430664 15.19028377532959 -31.766159057617188 
v -25.70630645751953 15.177900314331055 -31.766159057617188 
v -28.382699966430664 15.19028377532959 -31.701000213623047 
v -25.70630645751953 15.177900314331055 -31.701000213623047 
v -25.07576560974121 15.177900314331055 -32.07024002075195 
v -23.74210548400879 15.19028377532959 -34.37255859375 
v -25.10978889465332 15.2487154006958 -32.07024002075195 
v -23.771591186523438 15.250568389892578 -34.39427947998047 
vn 3.097898456858039e-13 -0.999997615814209 -0.002184694167226553 
vn 3.097898456858039e-13 -0.999997615814209 -0.002184694167226553 
vn 3.097898456858039e-13 -0.999997615814209 -0.002184694167226553 
vn 3.097898456858039e-13 -0.999997615814209 -0.002184694167226553 
vn -0.7507741451263428 0.4988131523132324 -0.43303996324539185 
vn -0.7507741451263428 0.4988131523132324 -0.43303996324539185 
vn -0.7507741451263428 0.4988131523132324 -0.43303996324539185 
vn -0.7507741451263428 0.4988131523132324 -0.43303996324539185 
vn 0.7507741451263428 0.4988131523132324 -0.43303996324539185 
vn 0.7507741451263428 0.4988131523132324 -0.43303996324539185 
vn 0.7507741451263428 0.4988131523132324 -0.43303996324539185 
vn 0.7507741451263428 0.4988131523132324 -0.43303996324539185 
vn -0.7490726709365845 0.5013646483421326 0.43303996324539185 
vn -0.7490726709365845 0.5013646483421326 0.43303996324539185 
vn -0.7490726709365845 0.5013646483421326 0.43303996324539185 
vn -0.7490726709365845 0.5013646483421326 0.43303996324539185 
vn 0.7507741451263428 0.4988131523132324 -0.43303996324539185 
vn 0.7507741451263428 0.4988131523132324 -0.43303996324539185 
vn 0.7507741451263428 0.4988131523132324 -0.43303996324539185 
vn 0.7507741451263428 0.4988131523132324 -0.43303996324539185 
vn 3.097898456858039e-13 -0.999997615814209 0.002184694167226553 
vn 3.097898456858039e-13 -0.999997615814209 0.002184694167226553 
vn 3.097898456858039e-13 -0.999997615814209 0.002184694167226553 
vn 3.097898456858039e-13 -0.999997615814209 0.002184694167226553 
vn -5.177098238496637e-14 0.5006305575370789 -0.865661084651947 
vn -5.177098238496637e-14 0.5006305575370789 -0.865661084651947 
vn -5.177098238496637e-14 0.5006305575370789 -0.865661084651947 
vn -5.177098238496637e-14 0.5006305575370789 -0.865661084651947 
vn 0.0037625895347446203 0.5006163716316223 0.865661084651947 
vn 0.0037625895347446203 0.5006163716316223 0.865661084651947 
vn 0.0037625895347446203 0.5006163716316223 0.865661084651947 
vn 0.0037625895347446203 0.5006163716316223 0.865661084651947 
vn -0.007551815826445818 -0.9999691247940063 0.002184694167226553 
vn -0.007551815826445818 -0.9999691247940063 0.002184694167226553 
vn -0.007551815826445818 -0.9999691247940063 0.002184694167226553 
vn -0.007551815826445818 -0.9999691247940063 0.002184694167226553 
vn 0.7511634230613708 0.49822673201560974 0.43303996324539185 
vn 0.7511634230613708 0.49822673201560974 0.43303996324539185 
vn 0.7511634230613708 0.49822673201560974 0.43303996324539185 
vn 0.7511634230613708 0.49822673201560974 0.43303996324539185 
vn -0.7507741451263428 0.4988131523132324 -0.43303996324539185 
vn -0.7507741451263428 0.4988131523132324 -0.43303996324539185 
vn -0.7507741451263428 0.4988131523132324 -0.43303996324539185 
vn -0.7507741451263428 0.4988131523132324 -0.43303996324539185 
vn 3.097898456858039e-13 -0.999997615814209 -0.002184694167226553 
vn 3.097898456858039e-13 -0.999997615814209 -0.002184694167226553 
vn 3.097898456858039e-13 -0.999997615814209 -0.002184694167226553 
vn 3.097898456858039e-13 -0.999997615814209 -0.002184694167226553 
vn -0.7490726709365845 0.5013646483421326 0.43303996324539185 
vn -0.7490726709365845 0.5013646483421326 0.43303996324539185 
vn -0.7490726709365845 0.5013646483421326 0.43303996324539185 
vn -0.7490726709365845 0.5013646483421326 0.43303996324539185 
vn 3.097898456858039e-13 -0.999997615814209 0.002184694167226553 
vn 3.097898456858039e-13 -0.999997615814209 0.002184694167226553 
vn 3.097898456858039e-13 -0.999997615814209 0.002184694167226553 
vn 3.097898456858039e-13 -0.999997615814209 0.002184694167226553 
vn -5.177098238496637e-14 0.5006305575370789 -0.865661084651947 
vn -5.177098238496637e-14 0.5006305575370789 -0.865661084651947 
vn -5.177098238496637e-14 0.5006305575370789 -0.865661084651947 
vn -5.177098238496637e-14 0.5006305575370789 -0.865661084651947 
vn 0.0037625895347446203 0.5006163716316223 0.865661084651947 
vn 0.0037625895347446203 0.5006163716316223 0.865661084651947 
vn 0.0037625895347446203 0.5006163716316223 0.865661084651947 
vn 0.0037625895347446203 0.5006163716316223 0.865661084651947 
vn -0.007551815826445818 -0.9999691247940063 0.002184694167226553 
vn -0.007551815826445818 -0.9999691247940063 0.002184694167226553 
vn -0.007551815826445818 -0.9999691247940063 0.002184694167226553 
vn -0.007551815826445818 -0.9999691247940063 0.002184694167226553 
vn 0.7511634230613708 0.49822673201560974 0.43303996324539185 
vn 0.7511634230613708 0.49822673201560974 0.43303996324539185 
vn 0.7511634230613708 0.49822673201560974 0.43303996324539185 
vn 0.7511634230613708 0.49822673201560974 0.43303996324539185 
s on 
f 1//1 2//2 3//3 
f 2//2 4//4 3//3 
f 3//3 4//4 4//4 
f 4//4 5//5 4//4 
f 4//4 5//5 5//5 
f 5//5 6//6 5//5 
f 5//5 6//6 7//7 
f 6//6 8//8 7//7 
f 7//7 8//8 8//8 
f 8//8 9//9 8//8 
f 8//8 9//9 9//9 
f 9//9 10//10 9//9 
f 9//9 10//10 11//11 
f 10//10 12//12 11//11 
f 11//11 12//12 12//12 
f 12//12 13//13 12//12 
f 12//12 13//13 13//13 
f 13//13 14//14 13//13 
f 13//13 14//14 15//15 
f 14//14 16//16 15//15 
f 15//15 16//16 16//16 
f 16//16 17//17 16//16 
f 16//16 17//17 17//17 
f 17//17 18//18 17//17 
f 17//17 18//18 19//19 
f 18//18 20//20 19//19 
f 19//19 20//20 20//20 
f 20//20 21//21 20//20 
f 20//20 21//21 21//21 
f 21//21 22//22 21//21 
f 21//21 22//22 23//23 
f 22//22 24//24 23//23 
f 23//23 24//24 24//24 
f 24//24 25//25 24//24 
f 24//24 25//25 25//25 
f 25//25 26//26 25//25 
f 25//25 26//26 27//27 
f 26//26 28//28 27//27 
f 27//27 28//28 28//28 
f 28//28 29//29 28//28 
f 28//28 29//29 29//29 
f 29//29 30//30 29//29 
f 29//29 30//30 31//31 
f 30//30 32//32 31//31 
f 31//31 32//32 32//32 
f 32//32 33//33 32//32 
f 32//32 33//33 33//33 
f 33//33 34//34 33//33 
f 33//33 34//34 35//35 
f 34//34 36//36 35//35 
f 35//35 36//36 36//36 
f 36//36 37//37 36//36 
f 36//36 37//37 37//37 
f 37//37 38//38 37//37 
f 37//37 38//38 39//39 
f 38//38 40//40 39//39 
f 39//39 40//40 40//40 
f 40//40 41//41 40//40 
f 40//40 41//41 41//41 
f 41//41 42//42 41//41 
f 41//41 42//42 43//43 
f 42//42 44//44 43//43 
f 43//43 44//44 44//44 
f 44//44 45//45 44//44 
f 44//44 45//45 45//45 
f 45//45 46//46 45//45 
f 45//45 46//46 47//47 
f 46//46 48//48 47//47 
f 47//47 48//48 48//48 
f 48//48 49//49 48//48 
f 48//48 49//49 49//49 
f 49//49 50//50 49//49 
f 49//49 50//50 51//51 
f 50//50 52//52 51//51 
f 51//51 52//52 52//52 
f 52//52 53//53 52//52 
f 52//52 53//53 53//53 
f 53//53 54//54 53//53 
f 53//53 54//54 55//55 
f 54//54 56//56 55//55 
f 55//55 56//56 56//56 
f 56//56 57//57 56//56 
f 56//56 57//57 57//57 
f 57//57 58//58 57//57 
f 57//57 58//58 59//59 
f 58//58 60//60 59//59 
f 59//59 60//60 60//60 
f 60//60 61//61 60//60 
f 60//60 61//61 61//61 
f 61//61 62//62 61//61 
f 61//61 62//62 63//63 
f 62//62 64//64 63//63 
f 63//63 64//64 64//64 
f 64//64 65//65 64//64 
f 64//64 65//65 65//65 
f 65//65 66//66 65//65 
f 65//65 66//66 67//67 
f 66//66 68//68 67//67 
f 67//67 68//68 68//68 
f 68//68 69//69 68//68 
f 68//68 69//69 69//69 
f 69//69 70//70 69//69 
f 69//69 70//70 71//71 
f 70//70 72//72 71//71 

