mtllib model_2.mtl
o model_2
v -29.400001525878906 36.70075988769531 6.343084335327148 
v -29.400001525878906 36.70075988769531 -29.400001525878906 
v -29.35098648071289 36.70075988769531 6.343084335327148 
v -29.35098648071289 36.70075988769531 -29.400001525878906 
v -29.30145263671875 36.70780563354492 6.350128173828125 
v -29.30145263671875 36.70780563354492 -29.407047271728516 
v -29.250873565673828 36.727909088134766 6.370227813720703 
v -29.250873565673828 36.727909088134766 -29.42714500427246 
v -29.212547302246094 36.764137268066406 6.406455993652344 
v -29.212547302246094 36.764137268066406 -29.4633731842041 
v -29.199771881103516 36.813392639160156 6.455709457397461 
v -29.199771881103516 36.813392639160156 -29.51262664794922 
v -29.199771881103516 36.86301803588867 6.505332946777344 
v -29.199771881103516 36.86301803588867 -29.56224822998047 
v -29.199771881103516 36.899314880371094 6.541629791259766 
v -29.199771881103516 36.899314880371094 -29.59854507446289 
v -29.187091827392578 36.92689895629883 6.569215774536133 
v -29.187091827392578 36.92689895629883 -29.62613296508789 
v -29.149063110351562 36.95039749145508 6.592706680297852 
v -29.149063110351562 36.95039749145508 -29.64962387084961 
v -29.097618103027344 36.9721565246582 6.614461898803711 
v -29.097618103027344 36.9721565246582 -29.67137908935547 
v -29.044727325439453 36.99455261230469 6.636852264404297 
v -29.044727325439453 36.99455261230469 -29.693769454956055 
v -28.999542236328125 37.031951904296875 6.674247741699219 
v -28.999542236328125 37.031951904296875 -29.731164932250977 
v -28.97121810913086 37.09873962402344 6.741037368774414 
v -28.97121810913086 37.09873962402344 -29.797954559326172 
v -28.96126937866211 37.1795768737793 6.821868896484375 
v -28.96126937866211 37.1795768737793 -29.878786087036133 
v -28.97121810913086 37.25911331176758 6.901407241821289 
v -28.97121810913086 37.25911331176758 -29.958324432373047 
v -28.99956512451172 37.323951721191406 6.96624755859375 
v -28.99956512451172 37.323951721191406 -30.023164749145508 
v -29.04480743408203 37.360687255859375 7.002988815307617 
v -29.04480743408203 37.360687255859375 -30.059906005859375 
v -29.09774398803711 37.3830680847168 7.025373458862305 
v -29.09774398803711 37.3830680847168 -30.082290649414062 
v -29.149147033691406 37.40483856201172 7.047153472900391 
v -29.149147033691406 37.40483856201172 -30.10407066345215 
v -29.187114715576172 37.43115234375 7.073467254638672 
v -29.187114715576172 37.43115234375 -30.130382537841797 
v -29.199771881103516 37.46714401245117 7.109458923339844 
v -29.199771881103516 37.46714401245117 -30.166378021240234 
v -29.199771881103516 37.51482391357422 7.157140731811523 
v -29.199771881103516 37.51482391357422 -30.21405792236328 
v -29.19977569580078 37.57619094848633 7.218507766723633 
v -29.19977569580078 37.57619094848633 -30.27542495727539 
v -29.212547302246094 37.634395599365234 7.276712417602539 
v -29.212547302246094 37.634395599365234 -30.333629608154297 
v -29.400001525878906 0 -30.400001525878906 
v -29.400001525878906 0 -30.392173767089844 
v -29.400001525878906 37.70075988769531 -30.400001525878906 
v -29.400001525878906 37.69293212890625 -30.392173767089844 
v -29.400001525878906 37.69293212890625 7.335256576538086 
v -29.400001525878906 0 7.335256576538086 
v -29.400001525878906 37.70075988769531 7.343084335327148 
v -29.400001525878906 0 7.343084335327148 
v 15.638555526733398 37.70075988769531 -44.100013732910156 
v 15.638555526733398 37.70075988769531 -44.05099868774414 
v 15.638555526733398 0 -44.100013732910156 
v 15.638555526733398 0 -44.05099868774414 
v 15.631509780883789 37.69371795654297 -44.00146484375 
v 15.631509780883789 0 -44.00146484375 
v 15.575113296508789 37.63731384277344 -43.95088577270508 
v 15.581331253051758 0 -43.95088577270508 
v 15.57219123840332 37.63439178466797 -43.912559509277344 
v 15.57219123840332 0 -43.912559509277344 
v 15.638555526733398 0 -44.100013732910156 
v 15.630727767944336 0 -44.100013732910156 
v 15.638555526733398 37.70075988769531 -44.100013732910156 
v 15.630727767944336 37.69293212890625 -44.100013732910156 
v -29.212547302246094 0 7.27672004699707 
v -29.212547302246094 37.63439178466797 7.27672004699707 
v -29.250873565673828 0 7.285860061645508 
v -29.250873565673828 37.63731384277344 7.279642105102539 
v -29.30145263671875 0 7.336038589477539 
v -29.30145263671875 37.69371795654297 7.336038589477539 
v -29.35098648071289 0 7.343084335327148 
v -29.35098648071289 37.70075988769531 7.343084335327148 
v -29.400001525878906 0 7.343084335327148 
v -29.400001525878906 37.70075988769531 7.343084335327148 
v -29.212547302246094 37.63439178466797 7.27672004699707 
v -29.212547302246094 0 7.27672004699707 
v -29.19977569580078 37.5761833190918 7.218515396118164 
v -29.199771881103516 0 7.21851921081543 
v -29.199771881103516 37.51481628417969 7.157148361206055 
v -29.199771881103516 0 7.157148361206055 
v -29.199771881103516 37.46713638305664 7.109468460083008 
v -29.199771881103516 0 7.109468460083008 
v -29.187114715576172 37.43114471435547 7.073476791381836 
v -29.187114715576172 0 7.073476791381836 
v -29.149147033691406 37.40483093261719 7.047163009643555 
v -29.14914321899414 0 7.04716682434082 
v -29.09774398803711 37.38304901123047 7.025392532348633 
v -29.09774398803711 0 7.025396347045898 
v -29.04480743408203 37.36066436767578 7.003011703491211 
v -29.044811248779297 0 7.003011703491211 
v -28.99956512451172 37.32392501831055 6.966276168823242 
v -28.99956512451172 0 6.966276168823242 
v -28.97121810913086 37.25908279418945 6.901437759399414 
v -28.97121810913086 0 6.901437759399414 
v -28.96126937866211 37.17954635620117 6.821901321411133 
v -28.96126937866211 0 6.821901321411133 
v -28.97121810913086 37.09871292114258 6.741064071655273 
v -28.97121810913086 0 6.741067886352539 
v -28.999542236328125 37.031925201416016 6.674276351928711 
v -28.999542236328125 0 6.674276351928711 
v -29.044727325439453 36.994529724121094 6.636877059936523 
v -29.044727325439453 0 6.636877059936523 
v -29.097618103027344 36.972137451171875 6.614480972290039 
v -29.097618103027344 0 6.614484786987305 
v -29.149063110351562 36.95038604736328 6.592721939086914 
v -29.149059295654297 0 6.592721939086914 
v -29.187091827392578 36.9268913269043 6.569223403930664 
v -29.187091827392578 0 6.56922721862793 
v -29.199771881103516 36.89930725097656 6.54163932800293 
v -29.199771881103516 0 6.54163932800293 
v -29.199771881103516 36.863006591796875 6.505342483520508 
v -29.199771881103516 0 6.505342483520508 
v -29.199771881103516 36.813385009765625 6.455717086791992 
v -29.199771881103516 0 6.455720901489258 
v -29.212547302246094 36.76413345336914 6.406461715698242 
v -29.212547302246094 0 6.406465530395508 
v -29.250873565673828 36.7279052734375 6.370233535766602 
v -29.250873565673828 0 6.370420455932617 
v -29.30145263671875 36.70780563354492 6.350130081176758 
v -29.30145263671875 0 6.350126266479492 
v -29.35098648071289 36.70075988769531 6.343084335327148 
v -29.35098648071289 0 6.343084335327148 
v -29.400001525878906 36.70075988769531 6.343084335327148 
v -29.400001525878906 0 6.343084335327148 
v -29.212547302246094 37.63439178466797 -30.333637237548828 
v -29.19977569580078 37.5761833190918 -30.275432586669922 
v -29.212547302246094 0 -30.333637237548828 
v -29.199771881103516 0 -30.275436401367188 
v -29.199771881103516 37.51481628417969 -30.214065551757812 
v -29.199771881103516 0 -30.214065551757812 
v -29.199771881103516 37.46713638305664 -30.166385650634766 
v -29.199771881103516 0 -30.166385650634766 
v -29.187114715576172 37.43114471435547 -30.130393981933594 
v -29.187114715576172 0 -30.130393981933594 
v -29.149147033691406 37.40483093261719 -30.104080200195312 
v -29.14914321899414 0 -30.104084014892578 
v -29.09774398803711 37.38304901123047 -30.08230972290039 
v -29.09774398803711 0 -30.082313537597656 
v -29.04480743408203 37.36066436767578 -30.05992889404297 
v -29.044811248779297 0 -30.05992889404297 
v -28.99956512451172 37.32392501831055 -30.023193359375 
v -28.99956512451172 0 -30.023193359375 
v -28.97121810913086 37.25908279418945 -29.958354949951172 
v -28.97121810913086 0 -29.958354949951172 
v -28.96126937866211 37.17954635620117 -29.87881851196289 
v -28.96126937866211 0 -29.87881851196289 
v -28.97121810913086 37.09871292114258 -29.79798126220703 
v -28.97121810913086 0 -29.797985076904297 
v -28.999542236328125 37.031925201416016 -29.73119354248047 
v -28.999542236328125 0 -29.73119354248047 
v -29.044727325439453 36.994529724121094 -29.69379425048828 
v -29.044727325439453 0 -29.69379425048828 
v -29.097618103027344 36.972137451171875 -29.671398162841797 
v -29.097618103027344 0 -29.671401977539062 
v -29.149063110351562 36.95038604736328 -29.649639129638672 
v -29.149059295654297 0 -29.649639129638672 
v -29.187091827392578 36.9268913269043 -29.626140594482422 
v -29.187091827392578 0 -29.626144409179688 
v -29.199771881103516 36.89930725097656 -29.598556518554688 
v -29.199771881103516 0 -29.598556518554688 
v -29.199771881103516 36.863006591796875 -29.562259674072266 
v -29.199771881103516 0 -29.562259674072266 
v -29.199771881103516 36.813385009765625 -29.51263427734375 
v -29.199771881103516 0 -29.512638092041016 
v -29.212547302246094 36.76413345336914 -29.46337890625 
v -29.212547302246094 0 -29.463382720947266 
v -29.250873565673828 36.7279052734375 -29.42715072631836 
v -29.250873565673828 0 -29.427337646484375 
v -29.30145263671875 36.70780563354492 -29.407047271728516 
v -29.30145263671875 0 -29.40704345703125 
v -29.35098648071289 36.70075988769531 -29.400001525878906 
v -29.35098648071289 0 -29.400001525878906 
v -29.400001525878906 36.70075988769531 -29.400001525878906 
v -29.400001525878906 0 -29.400001525878906 
v 15.630728721618652 37.69293212890625 -44.100013732910156 
v -0.9307870268821716 37.69293212890625 -44.100013732910156 
v 15.638555526733398 37.70075988769531 -44.100013732910156 
v -0.9386138916015625 37.70075988769531 -44.100013732910156 
v 0.0613861083984375 0 -44.100013732910156 
v 0.0613861083984375 36.70075988769531 -44.100013732910156 
v 0.0613861083984375 0 -44.05099868774414 
v 0.0613861083984375 36.70075988769531 -44.05099868774414 
v 0.05434417724609375 0 -44.00146484375 
v 0.054340362548828125 36.70780563354492 -44.00146484375 
v 0.03404998779296875 0 -43.95088577270508 
v 0.034236907958984375 36.7279052734375 -43.95088577270508 
v -0.001995086669921875 0 -43.912559509277344 
v -0.00199127197265625 36.76413345336914 -43.912559509277344 
v -0.051250457763671875 0 -43.899784088134766 
v -0.05124664306640625 36.813385009765625 -43.899784088134766 
v -0.10087203979492188 0 -43.899784088134766 
v -0.10087203979492188 36.863006591796875 -43.899784088134766 
v -0.13716888427734375 0 -43.899784088134766 
v -0.13716888427734375 36.89930725097656 -43.899784088134766 
v -0.16475677490234375 0 -43.88710403442383 
v -0.16475296020507812 36.9268913269043 -43.88710403442383 
v -0.18825149536132812 0 -43.84907150268555 
v -0.18825149536132812 36.95038604736328 -43.84907531738281 
v -0.21001434326171875 0 -43.797630310058594 
v -0.21001052856445312 36.972137451171875 -43.797630310058594 
v -0.2324066162109375 0 -43.7447395324707 
v -0.2324066162109375 36.994529724121094 -43.7447395324707 
v -0.269805908203125 0 -43.699554443359375 
v -0.269805908203125 37.031925201416016 -43.699554443359375 
v -0.3365974426269531 0 -43.67123031616211 
v -0.3365936279296875 37.09871292114258 -43.67123031616211 
v -0.4174308776855469 0 -43.66128158569336 
v -0.4174308776855469 37.17954635620117 -43.66128158569336 
v -0.4969673156738281 0 -43.67123031616211 
v -0.4969673156738281 37.25908279418945 -43.67123031616211 
v -0.5618057250976562 0 -43.69957733154297 
v -0.5618057250976562 37.32392501831055 -43.69957733154297 
v -0.598541259765625 0 -43.74482345581055 
v -0.598541259765625 37.36066436767578 -43.74481964111328 
v -0.6209259033203125 0 -43.79775619506836 
v -0.6209220886230469 37.38304901123047 -43.79775619506836 
v -0.6426963806152344 0 -43.84915542602539 
v -0.6426925659179688 37.40483093261719 -43.849159240722656 
v -0.66900634765625 0 -43.88712692260742 
v -0.66900634765625 37.43114471435547 -43.88712692260742 
v -0.7049980163574219 0 -43.899784088134766 
v -0.7049980163574219 37.46713638305664 -43.899784088134766 
v -0.7526779174804688 0 -43.899784088134766 
v -0.7526779174804688 37.51481628417969 -43.899784088134766 
v -0.8140487670898438 0 -43.899784088134766 
v -0.8140449523925781 37.5761833190918 -43.89978790283203 
v -0.8722496032714844 0 -43.912559509277344 
v -0.8722496032714844 37.63439178466797 -43.912559509277344 
v -0.9386138916015625 37.70075988769531 -44.100013732910156 
v -0.9386138916015625 0 -44.100013732910156 
v -0.9386138916015625 37.70075988769531 -44.05099868774414 
v -0.9386138916015625 0 -44.05099868774414 
v -0.9315681457519531 37.69371795654297 -44.00146484375 
v -0.9315681457519531 0 -44.00146484375 
v -0.8751716613769531 37.63731384277344 -43.95088577270508 
v -0.8813896179199219 0 -43.95088577270508 
v -0.8722496032714844 37.63439178466797 -43.912559509277344 
v -0.8722496032714844 0 -43.912559509277344 
v -29.400001525878906 0 6.343084335327148 
v -29.400001525878906 0 6.359933853149414 
v -29.400001525878906 36.70075988769531 6.343084335327148 
v -29.400001525878906 36.70075988769531 6.359933853149414 
v -29.400001525878906 36.75 6.359933853149414 
v -29.400001525878906 36.75 6.404470443725586 
v -29.400001525878906 0 6.404470443725586 
v -29.400001525878906 36.70075988769531 6.404470443725586 
v -0.9307861328125 37.69293212890625 -44.100013732910156 
v -0.9307861328125 0 -44.100013732910156 
v -0.9386138916015625 37.70075988769531 -44.100013732910156 
v -0.9386138916015625 0 -44.100013732910156 
v -29.400001525878906 36.70075988769531 6.343084335327148 
v -29.400001525878906 36.71216583251953 6.343084335327148 
v -29.400001525878906 36.70075988769531 -29.400001525878906 
v -29.400001525878906 36.71216583251953 -29.400001525878906 
v -29.400001525878906 36.75 6.343084335327148 
v -29.400001525878906 36.75 -29.400001525878906 
v 0.0613861083984375 0 -44.100013732910156 
v 0.044536590576171875 0 -44.100013732910156 
v 0.0613861083984375 36.70075988769531 -44.100013732910156 
v 0.044536590576171875 36.70075988769531 -44.100013732910156 
v 0.044536590576171875 36.75 -44.100013732910156 
v 0 36.75 -44.100013732910156 
v 0 0 -44.100013732910156 
v 0 36.70075988769531 -44.100013732910156 
v 14.699941635131836 36.75 -44.100013732910156 
v 14.699941635131836 36.70075988769531 -44.100013732910156 
v 14.655405044555664 36.75 -44.100013732910156 
v 14.655405044555664 36.70075988769531 -44.100013732910156 
v 14.638555526733398 36.75 -44.100013732910156 
v 14.638555526733398 36.70075988769531 -44.100013732910156 
v 14.699941635131836 0 -44.100013732910156 
v 14.655405044555664 0 -44.100013732910156 
v 14.638555526733398 0 -44.100013732910156 
v 0.061386048793792725 36.70075988769531 -44.100013732910156 
v 0.061386045068502426 36.71216583251953 -44.100013732910156 
v 14.638555526733398 36.70075988769531 -44.100013732910156 
v 14.638554573059082 36.71216583251953 -44.100013732910156 
v 0.061386048793792725 36.75 -44.100013732910156 
v 14.638555526733398 36.75 -44.100013732910156 
v -29.212547302246094 37.634395599365234 7.276712417602539 
v -29.212547302246094 37.634395599365234 -30.333629608154297 
v -29.250873565673828 37.6373176574707 7.279638290405273 
v -29.250873565673828 37.6373176574707 -30.33655548095703 
v -29.30145263671875 37.6937141418457 7.336040496826172 
v -29.30145263671875 37.6937141418457 -30.392955780029297 
v -29.35098648071289 37.70075988769531 7.343084335327148 
v -29.35098648071289 37.70075988769531 -30.400001525878906 
v -29.400001525878906 37.70075988769531 7.343084335327148 
v -29.400001525878906 37.70075988769531 -30.400001525878906 
v 0.061386048793792725 36.70075988769531 -44.100013732910156 
v 14.638555526733398 36.70075988769531 -44.100013732910156 
v 0.061386048793792725 36.70075988769531 -44.05099868774414 
v 14.638555526733398 36.70075988769531 -44.05099868774414 
v 0.05434149503707886 36.70780563354492 -44.00146484375 
v 14.645600318908691 36.70780563354492 -44.00146484375 
v 0.03424277901649475 36.727909088134766 -43.95088577270508 
v 14.665699005126953 36.727909088134766 -43.95088577270508 
v -0.0019856304861605167 36.764137268066406 -43.912559509277344 
v 14.701927185058594 36.764137268066406 -43.912559509277344 
v -0.05123991146683693 36.813392639160156 -43.899784088134766 
v 14.751181602478027 36.813392639160156 -43.899784088134766 
v -0.10086160898208618 36.86301803588867 -43.899784088134766 
v 14.800803184509277 36.86301803588867 -43.899784088134766 
v -0.13715854287147522 36.899314880371094 -43.899784088134766 
v 14.8371000289917 36.899314880371094 -43.899784088134766 
v -0.16474534571170807 36.92689895629883 -43.88710403442383 
v 14.864686965942383 36.92689895629883 -43.88710403442383 
v -0.1882367730140686 36.95039749145508 -43.84907531738281 
v 14.888178825378418 36.95039749145508 -43.84907531738281 
v -0.2099907100200653 36.9721565246582 -43.797630310058594 
v 14.909932136535645 36.9721565246582 -43.797630310058594 
v -0.23238202929496765 36.99455261230469 -43.7447395324707 
v 14.932323455810547 36.99455261230469 -43.7447395324707 
v -0.26977720856666565 37.031951904296875 -43.699554443359375 
v 14.969718933105469 37.031951904296875 -43.699554443359375 
v -0.3365662097930908 37.09873962402344 -43.67123031616211 
v 15.036507606506348 37.09873962402344 -43.67123031616211 
v -0.4173983037471771 37.1795768737793 -43.66128158569336 
v 15.117340087890625 37.1795768737793 -43.66128158569336 
v -0.49693599343299866 37.25911331176758 -43.67123031616211 
v 15.196877479553223 37.25911331176758 -43.67123031616211 
v -0.5617772340774536 37.323951721191406 -43.69957733154297 
v 15.26171875 37.323951721191406 -43.69957733154297 
v -0.5985175371170044 37.360687255859375 -43.74481964111328 
v 15.29845905303955 37.360687255859375 -43.74481964111328 
v -0.6209034323692322 37.3830680847168 -43.79775619506836 
v 15.320844650268555 37.3830680847168 -43.79775619506836 
v -0.6426827907562256 37.40483856201172 -43.849159240722656 
v 15.34262466430664 37.40483856201172 -43.849159240722656 
v -0.6689960360527039 37.43115234375 -43.88712692260742 
v 15.368937492370605 37.43115234375 -43.88712692260742 
v -0.7049890756607056 37.46714401245117 -43.899784088134766 
v 15.40493106842041 37.46714401245117 -43.899784088134766 
v -0.7526693344116211 37.51482391357422 -43.899784088134766 
v 15.452610969543457 37.51482391357422 -43.899784088134766 
v -0.8140366077423096 37.57619094848633 -43.89978790283203 
v 15.513978004455566 37.57619094848633 -43.89978790283203 
v -0.8722427487373352 37.634395599365234 -43.912559509277344 
v 15.572184562683105 37.634395599365234 -43.912559509277344 
v -0.8722427487373352 37.634395599365234 -43.912559509277344 
v 15.572184562683105 37.634395599365234 -43.912559509277344 
v -0.8751683831214905 37.6373176574707 -43.95088577270508 
v 15.57511043548584 37.6373176574707 -43.95088577270508 
v -0.9315695762634277 37.6937141418457 -44.00146484375 
v 15.631510734558105 37.6937141418457 -44.00146484375 
v -0.9386138916015625 37.70075988769531 -44.05099868774414 
v 15.638555526733398 37.70075988769531 -44.05099868774414 
v -0.9386138916015625 37.70075988769531 -44.100013732910156 
v 15.638555526733398 37.70075988769531 -44.100013732910156 
v -29.400001525878906 36.75 -29.461387634277344 
v -29.400001525878906 36.70075988769531 -29.461387634277344 
v -29.400001525878906 36.75 -29.416851043701172 
v -29.400001525878906 36.70075988769531 -29.416851043701172 
v -29.400001525878906 36.75 -29.400001525878906 
v -29.400001525878906 36.70075988769531 -29.400001525878906 
v -29.400001525878906 0 -29.461387634277344 
v -29.400001525878906 0 -29.416851043701172 
v -29.400001525878906 0 -29.400001525878906 
v 14.638555526733398 0 -44.100013732910156 
v 14.638555526733398 0 -44.05099868774414 
v 14.638555526733398 36.70075988769531 -44.100013732910156 
v 14.638555526733398 36.70075988769531 -44.05099868774414 
v 14.645597457885742 0 -44.00146484375 
v 14.645601272583008 36.70780563354492 -44.00146484375 
v 14.665891647338867 0 -43.95088577270508 
v 14.665704727172852 36.7279052734375 -43.95088577270508 
v 14.701936721801758 0 -43.912559509277344 
v 14.701932907104492 36.76413345336914 -43.912559509277344 
v 14.751192092895508 0 -43.899784088134766 
v 14.751188278198242 36.813385009765625 -43.899784088134766 
v 14.800813674926758 0 -43.899784088134766 
v 14.800813674926758 36.863006591796875 -43.899784088134766 
v 14.83711051940918 0 -43.899784088134766 
v 14.83711051940918 36.89930725097656 -43.899784088134766 
v 14.86469841003418 0 -43.88710403442383 
v 14.864694595336914 36.9268913269043 -43.88710403442383 
v 14.888193130493164 0 -43.84907150268555 
v 14.888193130493164 36.95038604736328 -43.84907531738281 
v 14.909955978393555 0 -43.797630310058594 
v 14.909952163696289 36.972137451171875 -43.797630310058594 
v 14.932348251342773 0 -43.7447395324707 
v 14.932348251342773 36.994529724121094 -43.7447395324707 
v 14.969747543334961 0 -43.699554443359375 
v 14.969747543334961 37.031925201416016 -43.699554443359375 
v 15.036539077758789 0 -43.67123031616211 
v 15.036535263061523 37.09871292114258 -43.67123031616211 
v 15.117372512817383 0 -43.66128158569336 
v 15.117372512817383 37.17954635620117 -43.66128158569336 
v 15.196908950805664 0 -43.67123031616211 
v 15.196908950805664 37.25908279418945 -43.67123031616211 
v 15.261747360229492 0 -43.69957733154297 
v 15.261747360229492 37.32392501831055 -43.69957733154297 
v 15.298482894897461 0 -43.74482345581055 
v 15.298482894897461 37.36066436767578 -43.74481964111328 
v 15.320867538452148 0 -43.79775619506836 
v 15.320863723754883 37.38304901123047 -43.79775619506836 
v 15.34263801574707 0 -43.84915542602539 
v 15.342634201049805 37.40483093261719 -43.849159240722656 
v 15.368947982788086 0 -43.88712692260742 
v 15.368947982788086 37.43114471435547 -43.88712692260742 
v 15.404939651489258 0 -43.899784088134766 
v 15.404939651489258 37.46713638305664 -43.899784088134766 
v 15.452619552612305 0 -43.899784088134766 
v 15.452619552612305 37.51481628417969 -43.899784088134766 
v 15.51399040222168 0 -43.899784088134766 
v 15.513986587524414 37.5761833190918 -43.89978790283203 
v 15.57219123840332 0 -43.912559509277344 
v 15.57219123840332 37.63439178466797 -43.912559509277344 
v -29.400001525878906 37.70075988769531 -30.400001525878906 
v -29.35098648071289 37.70075988769531 -30.400001525878906 
v -29.400001525878906 0 -30.400001525878906 
v -29.35098648071289 0 -30.400001525878906 
v -29.30145263671875 37.69371795654297 -30.392955780029297 
v -29.30145263671875 0 -30.392955780029297 
v -29.250873565673828 37.63731384277344 -30.336559295654297 
v -29.250873565673828 0 -30.342777252197266 
v -29.212547302246094 37.63439178466797 -30.333637237548828 
v -29.212547302246094 0 -30.333637237548828 
v -29.400001525878906 37.70075988769531 7.343084335327148 
v -29.400001525878906 37.70075988769531 -30.400001525878906 
v -29.400001525878906 37.69293212890625 7.335256576538086 
v -29.400001525878906 37.69293212890625 -30.392173767089844 
v -29.400001525878906 36.75 6.343084335327148 
v 0.0613861083984375 36.75 -44.100013732910156 
v -29.400001525878906 36.70075988769531 -29.400001525878906 
v -29.400001525878906 1.1046711471723782e-15 -29.400001525878906 
v -29.400001525878906 36.70075988769531 -29.400001525878906 
v -29.400001525878906 36.70075988769531 -29.400001525878906 
v -29.400001525878906 1.1046711471723782e-15 -29.400001525878906 
v -29.400001525878906 36.70075988769531 -29.400001525878906 
v -29.400001525878906 36.70075988769531 6.343084335327148 
v -29.400001525878906 36.70075988769531 -29.400001525878906 
v -29.400001525878906 36.70075988769531 6.343084335327148 
v -29.400001525878906 36.70075988769531 6.343084335327148 
v -29.400001525878906 36.70075988769531 -29.400001525878906 
v -29.400001525878906 36.70075988769531 6.343084335327148 
v -29.400001525878906 36.70075988769531 6.343084335327148 
v -29.400001525878906 -1.1046711471723782e-15 6.343084335327148 
v -29.400001525878906 36.70075988769531 6.343084335327148 
v -29.400001525878906 36.70075988769531 6.343084335327148 
v -29.400001525878906 -1.1046711471723782e-15 6.343084335327148 
v -29.400001525878906 36.70075988769531 6.343084335327148 
v 14.638555526733398 36.70075988769531 -44.100013732910156 
v 14.638555526733398 1.1046711471723782e-15 -44.100013732910156 
v 14.638555526733398 36.70075988769531 -44.100013732910156 
v 14.638555526733398 36.70075988769531 -44.100013732910156 
v 14.638555526733398 1.1046711471723782e-15 -44.100013732910156 
v 14.638555526733398 36.70075988769531 -44.100013732910156 
v 0.061386048793792725 36.70075988769531 -44.100013732910156 
v 14.638555526733398 36.70075988769531 -44.100013732910156 
v 0.061386048793792725 36.70075988769531 -44.100013732910156 
v 0.061386048793792725 36.70075988769531 -44.100013732910156 
v 14.638555526733398 36.70075988769531 -44.100013732910156 
v 0.061386048793792725 36.70075988769531 -44.100013732910156 
v 0.0613861083984375 36.70075988769531 -44.100013732910156 
v 0.0613861083984375 -1.1046711471723782e-15 -44.100013732910156 
v 0.0613861083984375 36.70075988769531 -44.100013732910156 
v 0.0613861083984375 36.70075988769531 -44.100013732910156 
v 0.0613861083984375 -1.1046711471723782e-15 -44.100013732910156 
v 0.0613861083984375 36.70075988769531 -44.100013732910156 
vn 3.097898456858039e-13 -0.999997615814209 0.002184694167226553 
vn 3.097898456858039e-13 -0.999997615814209 0.002184694167226553 
vn 0.04529581964015961 -0.9989712238311768 0.002184694167226553 
vn 0.0980169028043747 -0.9951823353767395 0.002184694167226553 
vn 0.22462347149848938 -0.9744431972503662 0.002184694167226553 
vn 0.297502338886261 -0.9547185897827148 0.002184694167226553 
vn 0.47804227471351624 -0.878334105014801 0.002184694167226553 
vn 0.5865612626075745 -0.8099018931388855 0.002184694167226553 
vn 0.8054491877555847 -0.5926607847213745 0.002184694167226553 
vn 0.9023662805557251 -0.4309644401073456 0.002184694167226553 
vn 0.9849507808685303 -0.17282135784626007 0.002184694167226553 
vn 0.9965491890907288 -0.08297525346279144 0.002184694167226553 
vn 0.999997615814209 0 0.002184694167226553 
vn 0.999997615814209 0 0.002184694167226553 
vn 0.991767942905426 -0.1280297040939331 0.002184694167226553 
vn 0.963268518447876 -0.2685312330722809 0.002184694167226553 
vn 0.777777373790741 -0.6285360455513 0.002184694167226553 
vn 0.6459943652153015 -0.7633390426635742 0.002184694167226553 
vn 0.4713956117630005 -0.8819191455841064 0.002184694167226553 
vn 0.4309644401073456 -0.9023662805557251 0.002184694167226553 
vn 0.38964858651161194 -0.9209610223770142 0.002184694167226553 
vn 0.38964858651161194 -0.9209610223770142 0.002184694167226553 
vn 0.47804227471351624 -0.878334105014801 0.002184694167226553 
vn 0.5618321895599365 -0.8272483348846436 0.002184694167226553 
vn 0.7681957483291626 -0.640211284160614 0.002184694167226553 
vn 0.8596616387367249 -0.5108591318130493 0.002184694167226553 
vn 0.9547185897827148 -0.297502338886261 0.002184694167226553 
vn 0.9777246117591858 -0.20988060534000397 0.002184694167226553 
vn 0.9992848038673401 -0.03775046393275261 0.002184694167226553 
vn 0.9989712238311768 0.04529581964015961 0.002184694167226553 
vn 0.9777246117591858 0.20988060534000397 0.002184694167226553 
vn 0.9524446725845337 0.3047037422657013 0.002184694167226553 
vn 0.8518480062484741 0.5237845182418823 0.002184694167226553 
vn 0.7584388852119446 0.651740550994873 0.002184694167226553 
vn 0.5555689334869385 0.8314676284790039 0.002184694167226553 
vn 0.4713956117630005 0.8819191455841064 0.002184694167226553 
vn 0.38964858651161194 0.9209610223770142 0.002184694167226553 
vn 0.38964858651161194 0.9209610223770142 0.002184694167226553 
vn 0.4445439279079437 0.8957543969154358 0.002184694167226553 
vn 0.5043525099754333 0.8634950518608093 0.002184694167226553 
vn 0.7071051001548767 0.7071051001548767 0.002184694167226553 
vn 0.8397637009620667 0.5429477095603943 0.002184694167226553 
vn 0.9777246117591858 0.20988060534000397 0.002184694167226553 
vn 0.9951823353767395 0.0980169028043747 0.002184694167226553 
vn 0.999997615814209 0 0.002184694167226553 
vn 0.999997615814209 0 0.002184694167226553 
vn 0.9976887702941895 0.06791467219591141 0.002184694167226553 
vn 0.9897211194038391 0.1429940164089203 0.002184694167226553 
vn 0.9761117100715637 0.21725822985172272 0.002184694167226553 
vn 0.9761117100715637 0.21725822985172272 0.002184694167226553 
vn -0.999997615814209 -2.0682260971124217e-13 0.002184694167226553 
vn -0.999997615814209 -2.0682260971124217e-13 0.002184694167226553 
vn -0.999997615814209 -2.0682260971124217e-13 0.002184694167226553 
vn -0.999997615814209 -2.0682260971124217e-13 0.002184694167226553 
vn -0.999997615814209 -2.0682260971124217e-13 0.002184694167226553 
vn -0.999997615814209 -2.0682260971124217e-13 0.002184694167226553 
vn -0.999997615814209 -2.0682260971124217e-13 0.002184694167226553 
vn -0.999997615814209 -2.0682260971124217e-13 0.002184694167226553 
vn 0.999997615814209 0 0.002184694167226553 
vn 0.9989477396011353 0 0.04586252197623253 
vn 0.999997615814209 0 0.002184694167226553 
vn 0.9955906867980957 0 0.09380380809307098 
vn 0.9051244854927063 0 0.42514660954475403 
vn 0.7994090914726257 0 0.6007870435714722 
vn 0.7860940098762512 0 0.6181069612503052 
vn 0.8975561261177063 0 0.4409002661705017 
vn 0.9879940152168274 0 0.15449213981628418 
vn 0.9728017449378967 0 0.23163928091526031 
vn -2.0682311115474694e-13 0 -1 
vn -2.0682311115474694e-13 0 -1 
vn -2.0682311115474694e-13 0 -1 
vn -2.0682311115474694e-13 0 -1 
vn 0.23376400768756866 0 0.9722933769226074 
vn 0.15665024518966675 0 0.9876541495323181 
vn 0.43893831968307495 0 0.8985171914100647 
vn 0.6163880825042725 0 0.7874425053596497 
vn 0.6025320887565613 0 0.7980946898460388 
vn 0.4271230399608612 0 0.9041935205459595 
vn 0.09597864747047424 0 0.9953833818435669 
vn 0.048044804483652115 0 0.9988451600074768 
vn 0 0 1 
vn 0 0 1 
vn 0.9767014384269714 0 0.21460255980491638 
vn 0.9767014384269714 0 0.21460255980491638 
vn 0.9899342060089111 0 0.1415284425020218 
vn 0.9974023103713989 0 0.07203252613544464 
vn 0.999997615814209 0 0.002184694167226553 
vn 0.999997615814209 0 0.002184694167226553 
vn 0.9955906867980957 0 0.09380380809307098 
vn 0.9785395264625549 0 0.2060592919588089 
vn 0.8417900204658508 0 0.5398051738739014 
vn 0.7078787684440613 0 0.7063339352607727 
vn 0.5044081807136536 0 0.8634653687477112 
vn 0.44286009669303894 0 0.8965907096862793 
vn 0.3912450075149536 0 0.9202865362167358 
vn 0.3912450075149536 0 0.9202865362167358 
vn 0.47392362356185913 0 0.8805659413337708 
vn 0.5562512278556824 0 0.8310141563415527 
vn 0.758344829082489 0 0.651853621006012 
vn 0.8533812761306763 0 0.5212872624397278 
vn 0.9529290199279785 0 0.30319350957870483 
vn 0.9776298403739929 0 0.2103329300880432 
vn 0.999138593673706 0 0.04149730131030083 
vn 0.999138593673706 0 -0.04149730131030083 
vn 0.9785395264625549 0 -0.2060592919588089 
vn 0.9555421471595764 0 -0.2948545813560486 
vn 0.8601409196853638 0 -0.5100564956665039 
vn 0.7668240666389465 0 -0.641857385635376 
vn 0.5598769187927246 0 -0.8285757899284363 
vn 0.47776663303375244 0 -0.8784868121147156 
vn 0.3912450075149536 0 -0.9202865362167358 
vn 0.3912450075149536 0 -0.9202865362167358 
vn 0.4310697019100189 0 -0.9023185968399048 
vn 0.47392362356185913 0 -0.8805659413337708 
vn 0.6435311436653137 0 -0.7654199600219727 
vn 0.7779244780540466 0 -0.6283578276634216 
vn 0.9641121625900269 0 -0.26549527049064636 
vn 0.9922564625740051 0 -0.1242060661315918 
vn 0.999997615814209 0 0.002184694167226553 
vn 0.999997615814209 0 0.002184694167226553 
vn 0.996372401714325 0 -0.08510008454322815 
vn 0.9851431250572205 0 -0.17173540592193604 
vn 0.903258204460144 0 -0.42909738421440125 
vn 0.8046286702156067 0 -0.5937783122062683 
vn 0.5884920358657837 0 -0.8085030317306519 
vn 0.4816005229949951 0 -0.8763908743858337 
vn 0.3011109232902527 0 -0.953589141368866 
vn 0.22525852918624878 0 -0.9742990136146545 
vn 0.09597864747047424 0 -0.9953833818435669 
vn 0.048044804483652115 0 -0.9988451600074768 
vn -2.0682311115474694e-13 0 -1 
vn -2.0682311115474694e-13 0 -1 
vn 0.9767014384269714 0 -0.21460255980491638 
vn 0.9899342060089111 0 -0.1415284425020218 
vn 0.9767014384269714 0 -0.21460255980491638 
vn 0.9974023103713989 0 -0.07203252613544464 
vn 0.999997615814209 0 -0.002184694167226553 
vn 0.999997615814209 0 0.002184694167226553 
vn 0.9955906867980957 0 -0.09380380809307098 
vn 0.9785395264625549 0 -0.2060592919588089 
vn 0.8417900204658508 0 -0.5398051738739014 
vn 0.7078787684440613 0 -0.7063339352607727 
vn 0.5044081807136536 0 -0.8634653687477112 
vn 0.44286009669303894 0 -0.8965907096862793 
vn 0.3912450075149536 0 -0.9202865362167358 
vn 0.3912450075149536 0 -0.9202865362167358 
vn 0.47392362356185913 0 -0.8805659413337708 
vn 0.5562512278556824 0 -0.8310141563415527 
vn 0.758344829082489 0 -0.651853621006012 
vn 0.8533812761306763 0 -0.5212872624397278 
vn 0.9529290199279785 0 -0.30319350957870483 
vn 0.9776298403739929 0 -0.2103329300880432 
vn 0.999138593673706 0 -0.04149730131030083 
vn 0.999138593673706 0 0.04149730131030083 
vn 0.9785395264625549 0 0.2060592919588089 
vn 0.9555421471595764 0 0.2948545813560486 
vn 0.8601409196853638 0 0.5100564956665039 
vn 0.7668240666389465 0 0.641857385635376 
vn 0.5598769187927246 0 0.8285757899284363 
vn 0.47776663303375244 0 0.8784868121147156 
vn 0.3912450075149536 0 0.9202865362167358 
vn 0.3912450075149536 0 0.9202865362167358 
vn 0.4310697019100189 0 0.9023185968399048 
vn 0.47392362356185913 0 0.8805659413337708 
vn 0.6435311436653137 0 0.7654199600219727 
vn 0.7779244780540466 0 0.6283578276634216 
vn 0.9641121625900269 0 0.26549527049064636 
vn 0.9922564625740051 0 0.1242060661315918 
vn 0.999997615814209 0 0.002184694167226553 
vn 0.999997615814209 0 0.002184694167226553 
vn 0.996372401714325 0 0.08510008454322815 
vn 0.9851431250572205 0 0.17173540592193604 
vn 0.903258204460144 0 0.42909738421440125 
vn 0.8046286702156067 0 0.5937783122062683 
vn 0.5884920358657837 0 0.8085030317306519 
vn 0.4816005229949951 0 0.8763908743858337 
vn 0.3011109232902527 0 0.953589141368866 
vn 0.22525852918624878 0 0.9742990136146545 
vn 0.09597864747047424 0 0.9953833818435669 
vn 0.048044804483652115 0 0.9988451600074768 
vn 0 0 1 
vn 0 0 1 
vn -2.0682311115474694e-13 0 -1 
vn -2.0682311115474694e-13 0 -1 
vn -2.0682311115474694e-13 0 -1 
vn -2.0682311115474694e-13 0 -1 
vn 0.999997615814209 0 0.002184694167226553 
vn 0.999997615814209 0 0.002184694167226553 
vn 0.9989477396011353 0 0.04586252197623253 
vn 0.9955906867980957 0 0.09380380809307098 
vn 0.9747888445854187 0 0.22312943637371063 
vn 0.9542446732521057 0 0.2990269064903259 
vn 0.8774409294128418 0 0.4796847105026245 
vn 0.8097867965698242 0 0.5867242813110352 
vn 0.5920190215110779 0 0.8059239983558655 
vn 0.4271230399608612 0 0.9041935205459595 
vn 0.16958275437355042 0 0.9855159521102905 
vn 0.0872766524553299 0 0.9961841106414795 
vn 0 0 1 
vn 0 0 1 
vn 0.1263735443353653 0 0.9919826984405518 
vn 0.2676009237766266 0 0.9635298252105713 
vn 0.6266567707061768 0 0.7792953848838806 
vn 0.7668240666389465 0 0.641857385635376 
vn 0.8795284628868103 0 0.4758462607860565 
vn 0.903258204460144 0 0.42909738421440125 
vn 0.921139121055603 0 0.3892335295677185 
vn 0.921139121055603 0 0.3892335295677185 
vn 0.8774409294128418 0 0.4796847105026245 
vn 0.8273506164550781 0 0.5616858005523682 
vn 0.6435311436653137 0 0.7654199600219727 
vn 0.5119344592094421 0 0.8590245246887207 
vn 0.29694145917892456 0 0.9548956751823425 
vn 0.20819661021232605 0 0.9780870079994202 
vn 0.0393143892288208 0 0.9992268681526184 
vn -0.0393143892288208 -8.131124117386705e-15 0.9992268681526184 
vn -0.2124682515859604 -4.394334424335025e-14 0.9771679639816284 
vn -0.30525144934654236 0.0037608793936669827 0.9522643685340881 
vn -0.5231503844261169 -1.0819958888271322e-13 0.8522403836250305 
vn -0.650195300579071 -1.3447541149201603e-13 0.7597671151161194 
vn -0.8322188854217529 -0.0037727425806224346 0.5544344186782837 
vn -0.8795284628868103 -1.8190681708336875e-13 0.4758462607860565 
vn -0.9211313724517822 0.003772927913814783 0.3892335295677185 
vn -0.9211313724517822 0.003772927913814783 0.3892335295677185 
vn -0.8956210613250732 -1.8483740200306992e-13 0.44481781125068665 
vn -0.8623613119125366 -1.7835624470385891e-13 0.5062933564186096 
vn -0.7078787684440613 -1.4640568759497624e-13 0.7063339352607727 
vn -0.5416429042816162 -1.1202426790021813e-13 0.8406086564064026 
vn -0.2081630676984787 0.0037373360246419907 0.9780870079994202 
vn -0.09590646624565125 0.003721607616171241 0.9953833818435669 
vn 0 0 1 
vn 0 0 1 
vn -0.06975433230400085 0.003717746352776885 0.9975572824478149 
vn -0.1436423808336258 0.0037303080316632986 0.9896226525306702 
vn -0.2124682515859604 -4.394334424335025e-14 0.9771679639816284 
vn -0.2124682515859604 -4.394334424335025e-14 0.9771679639816284 
vn -0.999997615814209 -2.0682260971124217e-13 0.002184694167226553 
vn -0.999997615814209 -2.0682260971124217e-13 0.002184694167226553 
vn -0.998940646648407 0.0037765095476061106 0.04586252197623253 
vn -0.9955835342407227 0.0037728985771536827 0.09380380809307098 
vn -0.9051244854927063 -1.8720066458349088e-13 0.42514660954475403 
vn -0.7994090914726257 -1.6533627765491499e-13 0.6007870435714722 
vn -0.7860849499702454 0.003770347684621811 0.6181069612503052 
vn -0.8975481390953064 0.0037747621536254883 0.4409002661705017 
vn -0.9879940152168274 -2.043399900241577e-13 0.15449213981628418 
vn -0.9728017449378967 -2.0119787726060462e-13 0.23163928091526031 
vn -0.999997615814209 -2.0682260971124217e-13 0.002184694167226553 
vn -0.999997615814209 -2.0682260971124217e-13 0.002184694167226553 
vn -0.999997615814209 -2.0682260971124217e-13 0.002184694167226553 
vn -0.999997615814209 -2.0682260971124217e-13 0.002184694167226553 
vn -0.999997615814209 -2.0682260971124217e-13 0.002184694167226553 
vn -0.999997615814209 -2.0682260971124217e-13 0.002184694167226553 
vn -0.999997615814209 -2.0682260971124217e-13 0.002184694167226553 
vn -0.999997615814209 -2.0682260971124217e-13 0.002184694167226553 
vn -2.0682311115474694e-13 0 -1 
vn -2.0682311115474694e-13 0 -1 
vn -2.0682311115474694e-13 0 -1 
vn -2.0682311115474694e-13 0 -1 
vn -0.999997615814209 -2.0682260971124217e-13 0.002184694167226553 
vn -0.999997615814209 -2.0682260971124217e-13 0.002184694167226553 
vn -0.999997615814209 -2.0682260971124217e-13 0.002184694167226553 
vn -0.999997615814209 -2.0682260971124217e-13 0.002184694167226553 
vn -0.999997615814209 -2.0682260971124217e-13 0.002184694167226553 
vn -0.999997615814209 -2.0682260971124217e-13 0.002184694167226553 
vn -2.0682311115474694e-13 0 -1 
vn -2.0682311115474694e-13 0 -1 
vn -2.0682311115474694e-13 0 -1 
vn -2.0682311115474694e-13 0 -1 
vn -2.0682311115474694e-13 0 -1 
vn -2.0682311115474694e-13 0 -1 
vn -2.0682311115474694e-13 0 -1 
vn -2.0682311115474694e-13 0 -1 
vn -2.0682311115474694e-13 0 -1 
vn -2.0682311115474694e-13 0 -1 
vn -2.0682311115474694e-13 0 -1 
vn -2.0682311115474694e-13 0 -1 
vn -2.0682311115474694e-13 0 -1 
vn -2.0682311115474694e-13 0 -1 
vn -2.0682311115474694e-13 0 -1 
vn -2.0682311115474694e-13 0 -1 
vn -2.0682311115474694e-13 0 -1 
vn -2.0682311115474694e-13 0 -1 
vn -2.0682311115474694e-13 0 -1 
vn -2.0682311115474694e-13 0 -1 
vn -2.0682311115474694e-13 0 -1 
vn -2.0682311115474694e-13 0 -1 
vn -2.0682311115474694e-13 0 -1 
vn 0.07544711232185364 0.9971474409103394 0.002184694167226553 
vn 0.07544711232185364 0.9971474409103394 0.002184694167226553 
vn 0.4377666711807251 0.8990859389305115 0.002184694167226553 
vn 0.640211284160614 0.7681957483291626 0.002184694167226553 
vn 0.6226444840431213 0.7825018167495728 0.002184694167226553 
vn 0.4241376221179962 0.9055951237678528 0.002184694167226553 
vn 0.0980169028043747 0.9951823353767395 0.002184694167226553 
vn 0.04529581964015961 0.9989712238311768 0.002184694167226553 
vn -1.0341130485562108e-13 0.999997615814209 0.002184694167226553 
vn -1.0341130485562108e-13 0.999997615814209 0.002184694167226553 
vn 3.097898456858039e-13 -0.999997615814209 0.002184694167226553 
vn 3.097898456858039e-13 -0.999997615814209 0.002184694167226553 
vn -0.0018882581498473883 -0.998945951461792 0.04586252197623253 
vn 0.0018864526646211743 -0.9955888986587524 0.09380380809307098 
vn 3.0198039164749946e-13 -0.9747888445854187 0.22312943637371063 
vn 0.0037756175734102726 -0.9542372226715088 0.2990269064903259 
vn -0.0018854718655347824 -0.8774389028549194 0.4796847105026245 
vn -0.0018844576552510262 -0.8097845911979675 0.5867242813110352 
vn 0.003764919238165021 -0.5920071005821228 0.8059239983558655 
vn 0.0018793308408930898 -0.4271188974380493 0.9041935205459595 
vn 0.003751524491235614 -0.16954125463962555 0.9855159521102905 
vn 0.003704126225784421 -0.08719801157712936 0.9961841106414795 
vn 0 0 1 
vn 0 0 1 
vn -0.0018551399698480964 -0.1263599395751953 0.9919826984405518 
vn 8.313792362879546e-14 -0.2676009237766266 0.9635298252105713 
vn 0.003771433839574456 -0.6266454458236694 0.7792953848838806 
vn -0.0018850128399208188 -0.7668217420578003 0.641857385635376 
vn 2.732507959051639e-13 -0.8795284628868103 0.4758462607860565 
vn 2.806231267325765e-13 -0.903258204460144 0.42909738421440125 
vn -0.0018864679150283337 -0.9211371541023254 0.3892335295677185 
vn -0.0018864679150283337 -0.9211371541023254 0.3892335295677185 
vn -0.0018854718655347824 -0.8774389028549194 0.4796847105026245 
vn 0.001886209356598556 -0.8273484706878662 0.5616858005523682 
vn 1.9993144780797861e-13 -0.6435311436653137 0.7654199600219727 
vn -0.0018832386704161763 -0.5119310021400452 0.8590245246887207 
vn 9.198966187309171e-14 -0.29694145917892456 0.9548956751823425 
vn -0.0018687433330342174 -0.2081882208585739 0.9780870079994202 
vn 0.003627474419772625 -0.03914668411016464 0.9992268681526184 
vn 0.003607067046687007 0.04353082552552223 0.9990455508232117 
vn 0.0037497419398278 0.21243515610694885 0.9771679639816284 
vn -0.0018804754363372922 0.3052688241004944 0.9522643685340881 
vn -5.409979444135661e-14 0.5231503844261169 0.8522403836250305 
vn 0.0018835372757166624 0.6535061001777649 0.7569189071655273 
vn 0.001886376179754734 0.8322253227233887 0.5544344186782837 
vn -9.095340854168438e-14 0.8795284628868103 0.4758462607860565 
vn -0.0018864679150283337 0.9211371541023254 0.3892335295677185 
vn -0.0018864679150283337 0.9211371541023254 0.3892335295677185 
vn 0.0037716731894761324 0.8956131339073181 0.44481781125068665 
vn 0.0037732303608208895 0.8623530864715576 0.5062933564186096 
vn 0.00376924779266119 0.707868754863739 0.7063339352607727 
vn -5.6012133950109066e-14 0.5416429042816162 0.8406086564064026 
vn -0.0018687433330342174 0.2081882208585739 0.9780870079994202 
vn 0.0018611537525430322 0.0959606021642685 0.9953833818435669 
vn 0 0 1 
vn 0 0 1 
vn -0.0018595322035253048 0.0698285773396492 0.9975572824478149 
vn 0.0018653111765161157 0.1436787098646164 0.9896226525306702 
vn 0.0037497419398278 0.21243515610694885 0.9771679639816284 
vn 0.0037497419398278 0.21243515610694885 0.9771679639816284 
vn 0.003773982636630535 0.9970709085464478 0.0763898640871048 
vn 0.003773982636630535 0.9970709085464478 0.0763898640871048 
vn -0.00188738526776433 0.8975540995597839 0.4409002661705017 
vn 0.0018859859555959702 0.7696189284324646 0.6385006904602051 
vn 0.0018844384467229247 0.7833834886550903 0.6215357780456543 
vn 0.003771252231672406 0.905116617679596 0.42514660954475403 
vn 0.0018864526646211743 0.9955888986587524 0.09380380809307098 
vn -0.0018882581498473883 0.998945951461792 0.04586252197623253 
vn -1.0341130485562108e-13 0.999997615814209 0.002184694167226553 
vn -1.0341130485562108e-13 0.999997615814209 0.002184694167226553 
vn -0.999997615814209 -2.0682260971124217e-13 0.002184694167226553 
vn -0.999997615814209 -2.0682260971124217e-13 0.002184694167226553 
vn -0.999997615814209 -2.0682260971124217e-13 0.002184694167226553 
vn -0.999997615814209 -2.0682260971124217e-13 0.002184694167226553 
vn -0.999997615814209 -2.0682260971124217e-13 0.002184694167226553 
vn -0.999997615814209 -2.0682260971124217e-13 0.002184694167226553 
vn -0.999997615814209 -2.0682260971124217e-13 0.002184694167226553 
vn -0.999997615814209 -2.0682260971124217e-13 0.002184694167226553 
vn -0.999997615814209 -2.0682260971124217e-13 0.002184694167226553 
vn -0.999997615814209 -2.0682260971124217e-13 0.002184694167226553 
vn -0.998940646648407 0.0037765095476061106 0.04586252197623253 
vn -0.999997615814209 -2.0682260971124217e-13 0.002184694167226553 
vn -0.9955835342407227 0.0037728985771536827 0.09380380809307098 
vn -0.9747888445854187 -2.0204175246903155e-13 0.22312943637371063 
vn -0.9542446732521057 -1.9693608180847144e-13 0.2990269064903259 
vn -0.8774328231811523 -0.003770934883505106 0.4796847105026245 
vn -0.8097780346870422 -0.003768905298784375 0.5867242813110352 
vn -0.5920190215110779 -1.2244322038484218e-13 0.8059239983558655 
vn -0.42710649967193604 -0.0037586253602057695 0.9041935205459595 
vn -0.16958275437355042 -3.507363195991327e-14 0.9855159521102905 
vn -0.0872766524553299 -1.805082775960254e-14 0.9961841106414795 
vn 0 0 1 
vn 0 0 1 
vn -0.12631908059120178 0.003709880169481039 0.9919826984405518 
vn -0.2676009237766266 -5.5346054345442597e-14 0.9635298252105713 
vn -0.6266567707061768 -1.296070997920673e-13 0.7792953848838806 
vn -0.7668147683143616 -0.0037700142711400986 0.641857385635376 
vn -0.8795284628868103 -1.8190681708336875e-13 0.4758462607860565 
vn -0.903258204460144 -1.868146750575589e-13 0.42909738421440125 
vn -0.9211313724517822 -0.003772927913814783 0.3892335295677185 
vn -0.9211313724517822 -0.003772927913814783 0.3892335295677185 
vn -0.8774328231811523 -0.003770934883505106 0.4796847105026245 
vn -0.8273420333862305 0.003772408701479435 0.5616858005523682 
vn -0.6435311436653137 -1.3309710592771667e-13 0.7654199600219727 
vn -0.5119205713272095 -0.0037664519622921944 0.8590245246887207 
vn -0.29694145917892456 -6.14143542336347e-14 0.9548956751823425 
vn -0.2081630676984787 -0.0037373360246419907 0.9780870079994202 
vn -0.0393143892288208 -8.131124117386705e-15 0.9992268681526184 
vn 0.0393143892288208 0 0.9992268681526184 
vn 0.2124682515859604 0 0.9771679639816284 
vn 0.30527463555336 0 0.9522643685340881 
vn 0.5231503844261169 0 0.8522403836250305 
vn 0.650195300579071 0 0.7597671151161194 
vn 0.8322274088859558 0 0.5544344186782837 
vn 0.8795284628868103 0 0.4758462607860565 
vn 0.921139121055603 0 0.3892335295677185 
vn 0.921139121055603 0 0.3892335295677185 
vn 0.8956210613250732 0 0.44481781125068665 
vn 0.8623613119125366 0 0.5062933564186096 
vn 0.7078787684440613 0 0.7063339352607727 
vn 0.5416429042816162 0 0.8406086564064026 
vn 0.20819661021232605 0 0.9780870079994202 
vn 0.09597864747047424 0 0.9953833818435669 
vn 0 0 1 
vn 0 0 1 
vn 0.06985333561897278 0 0.9975572824478149 
vn 0.1436908096075058 0 0.9896226525306702 
vn 0.2124682515859604 0 0.9771679639816284 
vn 0.2124682515859604 0 0.9771679639816284 
vn -2.0682311115474694e-13 0 -1 
vn 0.048044804483652115 0 -0.9988451600074768 
vn -2.0682311115474694e-13 0 -1 
vn 0.09597864747047424 0 -0.9953833818435669 
vn 0.4271230399608612 0 -0.9041935205459595 
vn 0.6025320887565613 0 -0.7980946898460388 
vn 0.6163880825042725 0 -0.7874425053596497 
vn 0.43893831968307495 0 -0.8985171914100647 
vn 0.15665024518966675 0 -0.9876541495323181 
vn 0.23376400768756866 0 -0.9722933769226074 
vn -0.999997615814209 -2.0682260971124217e-13 0.002184694167226553 
vn -0.999997615814209 -2.0682260971124217e-13 0.002184694167226553 
vn -0.999997615814209 -2.0682260971124217e-13 0.002184694167226553 
vn -0.999997615814209 -2.0682260971124217e-13 0.002184694167226553 
vn -0.999997615814209 -2.0682260971124217e-13 0.002184694167226553 
vn -2.0682311115474694e-13 0 -1 
vn 0.999997615814209 0 0.002184694167226553 
vn 0.999997615814209 0 0.002184694167226553 
vn 0.999997615814209 0 0.002184694167226553 
vn 0.999997615814209 0 0.002184694167226553 
vn 0.999997615814209 0 0.002184694167226553 
vn 0.999997615814209 0 0.002184694167226553 
vn 0.999997615814209 0 0.002184694167226553 
vn 0.999997615814209 0 0.002184694167226553 
vn 0.999997615814209 0 0.002184694167226553 
vn 0.999997615814209 0 0.002184694167226553 
vn 0.999997615814209 0 0.002184694167226553 
vn 0.999997615814209 0 0.002184694167226553 
vn 0.999997615814209 0 0.002184694167226553 
vn 0.999997615814209 0 0.002184694167226553 
vn 0.999997615814209 0 0.002184694167226553 
vn 0.999997615814209 0 0.002184694167226553 
vn 0.999997615814209 0 0.002184694167226553 
vn 0.999997615814209 0 0.002184694167226553 
vn 0.999997615814209 0 0.002184694167226553 
vn 0.999997615814209 0 0.002184694167226553 
vn 0.999997615814209 0 0.002184694167226553 
vn 0.999997615814209 0 0.002184694167226553 
vn 0.999997615814209 0 0.002184694167226553 
vn 0.999997615814209 0 0.002184694167226553 
vn 0.999997615814209 0 0.002184694167226553 
vn 0.999997615814209 0 0.002184694167226553 
vn 0.999997615814209 0 0.002184694167226553 
vn 0.999997615814209 0 0.002184694167226553 
vn 0.999997615814209 0 0.002184694167226553 
vn 0.999997615814209 0 0.002184694167226553 
vn 0.999997615814209 0 0.002184694167226553 
vn 0.999997615814209 0 0.002184694167226553 
vn 0.999997615814209 0 0.002184694167226553 
vn 0.999997615814209 0 0.002184694167226553 
vn 0.999997615814209 0 0.002184694167226553 
vn 0.999997615814209 0 0.002184694167226553 
vt 0.3204764425754547 0.3096177875995636 
vt 0.5816147923469543 0.3096177875995636 
vt 0.3204764425754547 0.3099649250507355 
vt 0.5816147923469543 0.3099649250507355 
vt 0.3204280138015747 0.31031209230422974 
vt 0.581663191318512 0.31031209230422974 
vt 0.3202827274799347 0.31073638796806335 
vt 0.5818085074424744 0.31073638796806335 
vt 0.3200405538082123 0.3111221194267273 
vt 0.582050621509552 0.3111221194267273 
vt 0.31965312361717224 0.31146928668022156 
vt 0.5824381113052368 0.31146928668022156 
vt 0.3193140923976898 0.3118550181388855 
vt 0.5827770829200745 0.3118550181388855 
vt 0.3190235197544098 0.312125027179718 
vt 0.5830677151679993 0.312125027179718 
vt 0.31882980465888977 0.3123179078102112 
vt 0.5832614302635193 0.3123179078102112 
vt 0.31868451833724976 0.31266504526138306 
vt 0.5834066867828369 0.31266504526138306 
vt 0.31849077343940735 0.313050776720047 
vt 0.5836004614830017 0.313050776720047 
vt 0.31834548711776733 0.313475102186203 
vt 0.5837457180023193 0.313475102186203 
vt 0.3180549144744873 0.3138993978500366 
vt 0.5840362906455994 0.3138993978500366 
vt 0.31757059693336487 0.31443941593170166 
vt 0.5845206379890442 0.31443941593170166 
vt 0.3169894218444824 0.31505659222602844 
vt 0.5851017832756042 0.31505659222602844 
vt 0.3164082467556 0.31563517451286316 
vt 0.5856829285621643 0.31563517451286316 
vt 0.3159239590167999 0.3161366283893585 
vt 0.5861672759056091 0.3161366283893585 
vt 0.3156817853450775 0.31656092405319214 
vt 0.5864093899726868 0.31656092405319214 
vt 0.3154880702495575 0.31698524951934814 
vt 0.5866031646728516 0.31698524951934814 
vt 0.3153427839279175 0.31740954518318176 
vt 0.5867484211921692 0.31740954518318176 
vt 0.31514906883239746 0.31771811842918396 
vt 0.5869421362876892 0.31771811842918396 
vt 0.31490689516067505 0.31802672147750854 
vt 0.5871843099594116 0.31802672147750854 
vt 0.314567893743515 0.3183738887310028 
vt 0.5875717401504517 0.3183738887310028 
vt 0.3140835762023926 0.3187981843948364 
vt 0.5880076289176941 0.3187981843948364 
vt 0.31369614601135254 0.3192610442638397 
vt 0.5884435176849365 0.3192610442638397 
vt 0.34604784846305847 0.020010946318507195 
vt 0.3460962772369385 0.020010946318507195 
vt 0.34604784846305847 0.29557716846466064 
vt 0.3461447060108185 0.2955000400543213 
vt 0.3478397727012634 0.2955000400543213 
vt 0.3478397727012634 0.020010946318507195 
vt 0.34788820147514343 0.29557716846466064 
vt 0.3479366600513458 0.020010946318507195 
vt 0.3333590030670166 0.30001306533813477 
vt 0.33297157287597656 0.30001306533813477 
vt 0.3333105742931366 0.020010946318507195 
vt 0.33292314410209656 0.020010946318507195 
vt 0.33263254165649414 0.2999745011329651 
vt 0.33258411288261414 0.020010946318507195 
vt 0.3320513665676117 0.29955020546913147 
vt 0.3320513665676117 0.020010946318507195 
vt 0.33176079392433167 0.2995116412639618 
vt 0.33176079392433167 0.020010946318507195 
vt 0.3333105742931366 0.020010946318507195 
vt 0.3333590030670166 0.020010946318507195 
vt 0.3333590030670166 0.30001306533813477 
vt 0.3334074318408966 0.2999745011329651 
vt 0.34943801164627075 0.020010946318507195 
vt 0.34943801164627075 0.2950757145881653 
vt 0.34914740920066833 0.020010946318507195 
vt 0.34914740920066833 0.29511430859565735 
vt 0.3486631214618683 0.020010946318507195 
vt 0.3486146628856659 0.29553860425949097 
vt 0.34827566146850586 0.020010946318507195 
vt 0.34822723269462585 0.29557716846466064 
vt 0.3479366600513458 0.020010946318507195 
vt 0.34788820147514343 0.29557716846466064 
vt 0.34943801164627075 0.2950757145881653 
vt 0.34943801164627075 0.020010946318507195 
vt 0.3498738706111908 0.29465141892433167 
vt 0.3498738706111908 0.020010946318507195 
vt 0.3503097593784332 0.29422712326049805 
vt 0.35035818815231323 0.020010946318507195 
vt 0.35064876079559326 0.2938799560070038 
vt 0.35069718956947327 0.020010946318507195 
vt 0.3509393632411957 0.29360994696617126 
vt 0.3509393632411957 0.020010946318507195 
vt 0.3512783646583557 0.2934170663356781 
vt 0.3512783646583557 0.020010946318507195 
vt 0.35171425342559814 0.293262779712677 
vt 0.35171425342559814 0.020010946318507195 
vt 0.3521016836166382 0.2930699288845062 
vt 0.3521501123905182 0.020010946318507195 
vt 0.3525375723838806 0.2927999198436737 
vt 0.3525375723838806 0.020010946318507195 
vt 0.35307028889656067 0.292337030172348 
vt 0.35307028889656067 0.020010946318507195 
vt 0.3536514639854431 0.2917584478855133 
vt 0.3536514639854431 0.020010946318507195 
vt 0.35423263907432556 0.2911798357963562 
vt 0.35423263907432556 0.020010946318507195 
vt 0.354765385389328 0.29067838191986084 
vt 0.354765385389328 0.020010946318507195 
vt 0.35520124435424805 0.2904083728790283 
vt 0.35520124435424805 0.020010946318507195 
vt 0.3556371331214905 0.2902540862560272 
vt 0.3556371331214905 0.020010946318507195 
vt 0.3560245633125305 0.2900997996330261 
vt 0.3560245633125305 0.020010946318507195 
vt 0.35636359453201294 0.28990691900253296 
vt 0.35636359453201294 0.020010946318507195 
vt 0.35655730962753296 0.2897140681743622 
vt 0.35660573840141296 0.020010946318507195 
vt 0.356847882270813 0.28944405913352966 
vt 0.356847882270813 0.020010946318507195 
vt 0.3571869134902954 0.2890968918800354 
vt 0.3572353422641754 0.020010946318507195 
vt 0.35757434368133545 0.28871116042137146 
vt 0.35757434368133545 0.020010946318507195 
vt 0.3579618036746979 0.2884797155857086 
vt 0.3579618036746979 0.020010946318507195 
vt 0.3583492338657379 0.2883254289627075 
vt 0.3583492338657379 0.020010946318507195 
vt 0.35873669385910034 0.2882482707500458 
vt 0.35873669385910034 0.020010946318507195 
vt 0.3590756952762604 0.2882482707500458 
vt 0.3590756952762604 0.020010946318507195 
vt 0.34449806809425354 0.2950757145881653 
vt 0.3440621793270111 0.29465141892433167 
vt 0.34449806809425354 0.020010946318507195 
vt 0.3440621793270111 0.020010946318507195 
vt 0.34362632036209106 0.29422712326049805 
vt 0.34362632036209106 0.020010946318507195 
vt 0.34328728914260864 0.2938799560070038 
vt 0.34328728914260864 0.020010946318507195 
vt 0.3429967164993286 0.29360994696617126 
vt 0.3429967164993286 0.020010946318507195 
vt 0.3426576852798462 0.2934170663356781 
vt 0.3426576852798462 0.020010946318507195 
vt 0.34227025508880615 0.293262779712677 
vt 0.34222182631492615 0.020010946318507195 
vt 0.3418343663215637 0.2930699288845062 
vt 0.3418343663215637 0.020010946318507195 
vt 0.3413985073566437 0.2927999198436737 
vt 0.3413985073566437 0.020010946318507195 
vt 0.34091418981552124 0.292337030172348 
vt 0.34086576104164124 0.020010946318507195 
vt 0.3402845859527588 0.2917584478855133 
vt 0.3402845859527588 0.020010946318507195 
vt 0.33970344066619873 0.2911798357963562 
vt 0.33970344066619873 0.020010946318507195 
vt 0.3391706943511963 0.29067838191986084 
vt 0.3391706943511963 0.020010946318507195 
vt 0.33873480558395386 0.2904083728790283 
vt 0.33873480558395386 0.020010946318507195 
vt 0.3383473753929138 0.2902540862560272 
vt 0.3382989466190338 0.020010946318507195 
vt 0.3379114866256714 0.2900997996330261 
vt 0.3379114866256714 0.020010946318507195 
vt 0.33757248520851135 0.28990691900253296 
vt 0.33757248520851135 0.020010946318507195 
vt 0.33737874031066895 0.2897140681743622 
vt 0.33737874031066895 0.020010946318507195 
vt 0.3370881676673889 0.28944405913352966 
vt 0.3370881676673889 0.020010946318507195 
vt 0.3367491662502289 0.2890968918800354 
vt 0.3367491662502289 0.020010946318507195 
vt 0.33636170625686646 0.28871116042137146 
vt 0.33636170625686646 0.020010946318507195 
vt 0.3359742760658264 0.2884797155857086 
vt 0.3359742760658264 0.020010946318507195 
vt 0.335586816072464 0.2883254289627075 
vt 0.335586816072464 0.020010946318507195 
vt 0.33524781465530396 0.2882482707500458 
vt 0.33519938588142395 0.020010946318507195 
vt 0.33486035466194153 0.2882482707500458 
vt 0.33486035466194153 0.020010946318507195 
vt 0.4908556342124939 0.028728466480970383 
vt 0.3679385185241699 0.028728466480970383 
vt 0.4909040629863739 0.02868989296257496 
vt 0.3678900897502899 0.02868989296257496 
vt 0.3201374113559723 0.020010946318507195 
vt 0.3200889825820923 0.29260703921318054 
vt 0.31974998116493225 0.020010946318507195 
vt 0.31974998116493225 0.29260703921318054 
vt 0.3193625211715698 0.020010946318507195 
vt 0.3193625211715698 0.2926456034183502 
vt 0.3189750909805298 0.020010946318507195 
vt 0.3189750909805298 0.2927999198436737 
vt 0.31858763098716736 0.020010946318507195 
vt 0.31858763098716736 0.2930699288845062 
vt 0.3182002007961273 0.020010946318507195 
vt 0.3182002007961273 0.2934170663356781 
vt 0.3178611695766449 0.020010946318507195 
vt 0.3178127408027649 0.29380279779434204 
vt 0.31757059693336487 0.020010946318507195 
vt 0.31757059693336487 0.29407280683517456 
vt 0.31732845306396484 0.020010946318507195 
vt 0.31732845306396484 0.2942656874656677 
vt 0.3170378506183624 0.020010946318507195 
vt 0.3169894218444824 0.2944585382938385 
vt 0.3166019916534424 0.020010946318507195 
vt 0.3166019916534424 0.294612854719162 
vt 0.31616610288619995 0.020010946318507195 
vt 0.31616610288619995 0.2947671413421631 
vt 0.3157302439212799 0.020010946318507195 
vt 0.3157302439212799 0.2950371503829956 
vt 0.31519749760627747 0.020010946318507195 
vt 0.31519749760627747 0.29553860425949097 
vt 0.314616322517395 0.020010946318507195 
vt 0.314567893743515 0.29615578055381775 
vt 0.31398671865463257 0.020010946318507195 
vt 0.31398671865463257 0.29673436284065247 
vt 0.3134540021419525 0.020010946318507195 
vt 0.3134540021419525 0.2972358167171478 
vt 0.3130665421485901 0.020010946318507195 
vt 0.3130181133747101 0.29750582575798035 
vt 0.31263065338134766 0.020010946318507195 
vt 0.31258222460746765 0.29766011238098145 
vt 0.3121947944164276 0.020010946318507195 
vt 0.3121947944164276 0.29781439900398254 
vt 0.3118557631969452 0.020010946318507195 
vt 0.3118557631969452 0.2980072796344757 
vt 0.31156519055366516 0.020010946318507195 
vt 0.31156519055366516 0.2982772886753082 
vt 0.3112261891365051 0.020010946318507195 
vt 0.3112261891365051 0.2986244559288025 
vt 0.3107418715953827 0.020010946318507195 
vt 0.3107418715953827 0.2990873157978058 
vt 0.31030598282814026 0.020010946318507195 
vt 0.31030598282814026 0.2995116412639618 
vt 0.3087077736854553 0.30001306533813477 
vt 0.3087562024593353 0.020010946318507195 
vt 0.30909523367881775 0.30001306533813477 
vt 0.30914366245269775 0.020010946318507195 
vt 0.3094826638698578 0.2999745011329651 
vt 0.3094826638698578 0.020010946318507195 
vt 0.31001541018486023 0.29955020546913147 
vt 0.31001541018486023 0.020010946318507195 
vt 0.31030598282814026 0.2995116412639618 
vt 0.31030598282814026 0.020010946318507195 
vt 0.5905260443687439 0.020010946318507195 
vt 0.5906713008880615 0.020010946318507195 
vt 0.5905260443687439 0.30417898297309875 
vt 0.5906713008880615 0.30417898297309875 
vt 0.5906713008880615 0.3045647144317627 
vt 0.591010332107544 0.3045647144317627 
vt 0.591010332107544 0.020010946318507195 
vt 0.591010332107544 0.30417898297309875 
vt 0.3086593449115753 0.2999745011329651 
vt 0.3087077736854553 0.020010946318507195 
vt 0.3087077736854553 0.30001306533813477 
vt 0.3087562024593353 0.020010946318507195 
vt 0.5899448394775391 0.32280978560447693 
vt 0.5899448394775391 0.3228869140148163 
vt 0.3132118284702301 0.32280978560447693 
vt 0.3132118284702301 0.3228869140148163 
vt 0.5899448394775391 0.32319551706314087 
vt 0.3132118284702301 0.32319551706314087 
vt 0.5790479183197021 0.020010946318507195 
vt 0.5791448354721069 0.020010946318507195 
vt 0.5790479183197021 0.30417898297309875 
vt 0.5791448354721069 0.30417898297309875 
vt 0.5791448354721069 0.3045647144317627 
vt 0.5794838070869446 0.3045647144317627 
vt 0.5794838070869446 0.020010946318507195 
vt 0.5794838070869446 0.30417898297309875 
vt 0.5825833678245544 0.3045647144317627 
vt 0.5825833678245544 0.30417898297309875 
vt 0.5829223990440369 0.3045647144317627 
vt 0.5829223990440369 0.30417898297309875 
vt 0.5830677151679993 0.3045647144317627 
vt 0.5830677151679993 0.30417898297309875 
vt 0.5825833678245544 0.020010946318507195 
vt 0.5829223990440369 0.020010946318507195 
vt 0.5830677151679993 0.020010946318507195 
vt 0.5174440741539001 0.05538247898221016 
vt 0.5174440741539001 0.05549819767475128 
vt 0.4045521318912506 0.05538247898221016 
vt 0.4045521318912506 0.05549819767475128 
vt 0.5174440741539001 0.0557682104408741 
vt 0.4045521318912506 0.0557682104408741 
vt 0.31369614601135254 0.3192610442638397 
vt 0.5884435176849365 0.3192610442638397 
vt 0.31364771723747253 0.31953105330467224 
vt 0.5884435176849365 0.31953105330467224 
vt 0.3132602572441101 0.32007110118865967 
vt 0.588879406452179 0.32007110118865967 
vt 0.3132118284702301 0.3204568326473236 
vt 0.5889278054237366 0.3204568326473236 
vt 0.3132118284702301 0.3208039700984955 
vt 0.5889278054237366 0.3208039700984955 
vt 0.37529999017715454 0.01731082983314991 
vt 0.4834941625595093 0.01731082983314991 
vt 0.37529999017715454 0.017657987773418427 
vt 0.4834941625595093 0.017657987773418427 
vt 0.37525156140327454 0.018043717369437218 
vt 0.48354262113571167 0.018043717369437218 
vt 0.3751062750816345 0.018429448828101158 
vt 0.4836879074573517 0.018429448828101158 
vt 0.3748156726360321 0.018853753805160522 
vt 0.4839784801006317 0.018853753805160522 
vt 0.37447667121887207 0.01920091174542904 
vt 0.48431751132011414 0.01920091174542904 
vt 0.37408921122550964 0.01958664134144783 
vt 0.4847049415111542 0.01958664134144783 
vt 0.3737986385822296 0.019856654107570648 
vt 0.4849470853805542 0.019856654107570648 
vt 0.3736049234867096 0.020088091492652893 
vt 0.4851408302783966 0.020088091492652893 
vt 0.3734596371650696 0.020396677777171135 
vt 0.4853345453739166 0.020396677777171135 
vt 0.3732658922672272 0.02082098089158535 
vt 0.48547983169555664 0.02082098089158535 
vt 0.37312060594558716 0.021245285868644714 
vt 0.48567354679107666 0.021245285868644714 
vt 0.37283003330230713 0.02166958898305893 
vt 0.4859641492366791 0.02166958898305893 
vt 0.3723457157611847 0.022209612652659416 
vt 0.4864484369754791 0.022209612652659416 
vt 0.37171611189842224 0.0228267814964056 
vt 0.4870296120643616 0.0228267814964056 
vt 0.3711349368095398 0.023405378684401512 
vt 0.487610787153244 0.023405378684401512 
vt 0.37065064907073975 0.023945402354002 
vt 0.48809510469436646 0.023945402354002 
vt 0.3704085052013397 0.024369707331061363 
vt 0.4883856773376465 0.024369707331061363 
vt 0.3702147603034973 0.02479401044547558 
vt 0.4885309636592865 0.02479401044547558 
vt 0.3700694739818573 0.025218315422534943 
vt 0.4887246787548065 0.025218315422534943 
vt 0.3698757588863373 0.02556547336280346 
vt 0.4889184236526489 0.02556547336280346 
vt 0.36958515644073486 0.025835484266281128 
vt 0.48916056752204895 0.025835484266281128 
vt 0.36924615502357483 0.026182642206549644 
vt 0.4895480275154114 0.026182642206549644 
vt 0.3688102662563324 0.026645518839359283 
vt 0.4899838864803314 0.026645518839359283 
vt 0.36837440729141235 0.02710839733481407 
vt 0.49041977524757385 0.02710839733481407 
vt 0.36837440729141235 0.02710839733481407 
vt 0.49041977524757385 0.02710839733481407 
vt 0.36832597851753235 0.02737840823829174 
vt 0.49041977524757385 0.02737840823829174 
vt 0.3679385185241699 0.02795700542628765 
vt 0.4908556342124939 0.02795700542628765 
vt 0.3678900897502899 0.028304163366556168 
vt 0.4909040629863739 0.028304163366556168 
vt 0.3678900897502899 0.02868989296257496 
vt 0.4909040629863739 0.02868989296257496 
vt 0.5862156748771667 0.3045647144317627 
vt 0.5862156748771667 0.30417898297309875 
vt 0.5865547060966492 0.3045647144317627 
vt 0.5865547060966492 0.30417898297309875 
vt 0.5867000222206116 0.3045647144317627 
vt 0.5867000222206116 0.30417898297309875 
vt 0.5862156748771667 0.020010946318507195 
vt 0.5865547060966492 0.020010946318507195 
vt 0.5867000222206116 0.020010946318507195 
vt 0.32192936539649963 0.020010946318507195 
vt 0.3223167955875397 0.020010946318507195 
vt 0.32197779417037964 0.29260703921318054 
vt 0.3223167955875397 0.29260703921318054 
vt 0.3227042555809021 0.020010946318507195 
vt 0.3227042555809021 0.2926456034183502 
vt 0.32309168577194214 0.020010946318507195 
vt 0.32309168577194214 0.2927999198436737 
vt 0.32347914576530457 0.020010946318507195 
vt 0.32347914576530457 0.2930699288845062 
vt 0.3238665759563446 0.020010946318507195 
vt 0.3238665759563446 0.2934170663356781 
vt 0.324205607175827 0.020010946318507195 
vt 0.32425403594970703 0.29380279779434204 
vt 0.32449617981910706 0.020010946318507195 
vt 0.32449617981910706 0.29407280683517456 
vt 0.32473835349082947 0.020010946318507195 
vt 0.32473835349082947 0.2942656874656677 
vt 0.3250773549079895 0.020010946318507195 
vt 0.3250773549079895 0.2944585382938385 
vt 0.32546481490135193 0.020010946318507195 
vt 0.32546481490135193 0.294612854719162 
vt 0.325900673866272 0.020010946318507195 
vt 0.325900673866272 0.2947671413421631 
vt 0.3263365626335144 0.020010946318507195 
vt 0.3263365626335144 0.2950371503829956 
vt 0.32686927914619446 0.020010946318507195 
vt 0.32686927914619446 0.29553860425949097 
vt 0.3274988830089569 0.020010946318507195 
vt 0.3274988830089569 0.29615578055381775 
vt 0.32808005809783936 0.020010946318507195 
vt 0.32808005809783936 0.29673436284065247 
vt 0.3286128044128418 0.020010946318507195 
vt 0.3286128044128418 0.2972358167171478 
vt 0.32904866337776184 0.020010946318507195 
vt 0.32904866337776184 0.29750582575798035 
vt 0.32943612337112427 0.020010946318507195 
vt 0.3294845521450043 0.29766011238098145 
vt 0.3298719823360443 0.020010946318507195 
vt 0.3298719823360443 0.29781439900398254 
vt 0.33021101355552673 0.020010946318507195 
vt 0.33021101355552673 0.2980072796344757 
vt 0.33050158619880676 0.020010946318507195 
vt 0.33050158619880676 0.2982772886753082 
vt 0.3308406174182892 0.020010946318507195 
vt 0.3308406174182892 0.2986244559288025 
vt 0.33132490515708923 0.020010946318507195 
vt 0.33132490515708923 0.2990873157978058 
vt 0.33176079392433167 0.020010946318507195 
vt 0.33176079392433167 0.2995116412639618 
vt 0.34604784846305847 0.29557716846466064 
vt 0.34570884704589844 0.29557716846466064 
vt 0.34604784846305847 0.020010946318507195 
vt 0.34566041827201843 0.020010946318507195 
vt 0.345369815826416 0.29553860425949097 
vt 0.345321387052536 0.020010946318507195 
vt 0.34478864073753357 0.29511430859565735 
vt 0.34478864073753357 0.020010946318507195 
vt 0.34449806809425354 0.2950757145881653 
vt 0.34449806809425354 0.020010946318507195 
vt 0.3132118284702301 0.3208039700984955 
vt 0.5889278054237366 0.3208039700984955 
vt 0.3132602572441101 0.32084256410598755 
vt 0.5888309478759766 0.32084256410598755 
vt 0.5905260443687439 0.3045647144317627 
vt 0.5790479183197021 0.3045647144317627 
vt 0.3002324104309082 0.1885753870010376 
vt 0.3002324104309082 0.020010946318507195 
vt 0.3002324104309082 0.1885753870010376 
vt 0.2942270040512085 0.1380060613155365 
vt 0.2942270040512085 0.020010946318507195 
vt 0.2942270040512085 0.1380060613155365 
vt 0.5166692137718201 0.04959651455283165 
vt 0.40033864974975586 0.04959651455283165 
vt 0.5166692137718201 0.04959651455283165 
vt 0.5757062435150146 0.061592746526002884 
vt 0.3889574408531189 0.06155417487025261 
vt 0.5757062435150146 0.06155417487025261 
vt 0.3061893880367279 0.1986815482378006 
vt 0.3061893880367279 0.020010946318507195 
vt 0.3061893880367279 0.1986815482378006 
vt 0.29708442091941833 0.18950115144252777 
vt 0.29708442091941833 0.020010946318507195 
vt 0.29708442091941833 0.18950115144252777 
vt 0.36110979318618774 0.16087990999221802 
vt 0.36110979318618774 0.020010946318507195 
vt 0.36110979318618774 0.16087990999221802 
vt 0.36338603496551514 0.16103419661521912 
vt 0.36338603496551514 0.020010946318507195 
vt 0.36343446373939514 0.16103419661521912 
vt 0.33626484870910645 0.29928019642829895 
vt 0.5759483575820923 0.29931876063346863 
vt 0.33626484870910645 0.29928019642829895 
vt 0.6909228563308716 0.007243250031024218 
vt 0.3132118284702301 0.007243250031024218 
vt 0.6909228563308716 0.007243250031024218 
vt 0.36614659428596497 0.22803567349910736 
vt 0.36614659428596497 0.020010946318507195 
vt 0.36614659428596497 0.22803567349910736 
vt 0.30308982729911804 0.16890311241149902 
vt 0.30308982729911804 0.020010946318507195 
vt 0.30313825607299805 0.16890311241149902 
s on 
f 1/1/1 2/2/2 3/3/3 
f 2/2/2 4/4/4 3/3/3 
f 3/3/3 4/4/4 5/5/5 
f 4/4/4 6/6/6 5/5/5 
f 5/5/5 6/6/6 7/7/7 
f 6/6/6 8/8/8 7/7/7 
f 7/7/7 8/8/8 9/9/9 
f 8/8/8 10/10/10 9/9/9 
f 9/9/9 10/10/10 11/11/11 
f 10/10/10 12/12/12 11/11/11 
f 11/11/11 12/12/12 13/13/13 
f 12/12/12 14/14/14 13/13/13 
f 13/13/13 14/14/14 15/15/15 
f 14/14/14 16/16/16 15/15/15 
f 15/15/15 16/16/16 17/17/17 
f 16/16/16 18/18/18 17/17/17 
f 17/17/17 18/18/18 19/19/19 
f 18/18/18 20/20/20 19/19/19 
f 19/19/19 20/20/20 21/21/21 
f 20/20/20 22/22/22 21/21/21 
f 21/21/21 22/22/22 23/23/23 
f 22/22/22 24/24/24 23/23/23 
f 23/23/23 24/24/24 25/25/25 
f 24/24/24 26/26/26 25/25/25 
f 25/25/25 26/26/26 27/27/27 
f 26/26/26 28/28/28 27/27/27 
f 27/27/27 28/28/28 29/29/29 
f 28/28/28 30/30/30 29/29/29 
f 29/29/29 30/30/30 31/31/31 
f 30/30/30 32/32/32 31/31/31 
f 31/31/31 32/32/32 33/33/33 
f 32/32/32 34/34/34 33/33/33 
f 33/33/33 34/34/34 35/35/35 
f 34/34/34 36/36/36 35/35/35 
f 35/35/35 36/36/36 37/37/37 
f 36/36/36 38/38/38 37/37/37 
f 37/37/37 38/38/38 39/39/39 
f 38/38/38 40/40/40 39/39/39 
f 39/39/39 40/40/40 41/41/41 
f 40/40/40 42/42/42 41/41/41 
f 41/41/41 42/42/42 43/43/43 
f 42/42/42 44/44/44 43/43/43 
f 43/43/43 44/44/44 45/45/45 
f 44/44/44 46/46/46 45/45/45 
f 45/45/45 46/46/46 47/47/47 
f 46/46/46 48/48/48 47/47/47 
f 47/47/47 48/48/48 49/49/49 
f 48/48/48 50/50/50 49/49/49 
f 49/49/49 50/50/50 50/50/50 
f 50/50/50 51/51/51 50/50/50 
f 50/50/50 51/51/51 51/51/51 
f 51/51/51 52/52/52 51/51/51 
f 51/51/51 52/52/52 53/53/53 
f 52/52/52 54/54/54 53/53/53 
f 53/53/53 54/54/54 54/54/54 
f 54/54/54 55/55/55 54/54/54 
f 54/54/54 55/55/55 55/55/55 
f 55/55/55 56/56/56 55/55/55 
f 55/55/55 56/56/56 57/57/57 
f 56/56/56 58/58/58 57/57/57 
f 57/57/57 58/58/58 58/58/58 
f 58/58/58 59/59/59 58/58/58 
f 58/58/58 59/59/59 59/59/59 
f 59/59/59 60/60/60 59/59/59 
f 59/59/59 60/60/60 61/61/61 
f 60/60/60 62/62/62 61/61/61 
f 61/61/61 62/62/62 62/62/62 
f 62/62/62 60/60/60 62/62/62 
f 62/62/62 60/60/60 60/60/60 
f 60/60/60 63/63/63 60/60/60 
f 60/60/60 63/63/63 62/62/62 
f 63/63/63 64/64/64 62/62/62 
f 62/62/62 64/64/64 64/64/64 
f 64/64/64 63/63/63 64/64/64 
f 64/64/64 63/63/63 63/63/63 
f 63/63/63 65/65/65 63/63/63 
f 63/63/63 65/65/65 64/64/64 
f 65/65/65 66/66/66 64/64/64 
f 64/64/64 66/66/66 66/66/66 
f 66/66/66 65/65/65 66/66/66 
f 66/66/66 65/65/65 65/65/65 
f 65/65/65 67/67/67 65/65/65 
f 65/65/65 67/67/67 66/66/66 
f 67/67/67 68/68/68 66/66/66 
f 66/66/66 68/68/68 68/68/68 
f 68/68/68 69/69/69 68/68/68 
f 68/68/68 69/69/69 69/69/69 
f 69/69/69 70/70/70 69/69/69 
f 69/69/69 70/70/70 71/71/71 
f 70/70/70 72/72/72 71/71/71 
f 71/71/71 72/72/72 72/72/72 
f 72/72/72 73/73/73 72/72/72 
f 72/72/72 73/73/73 73/73/73 
f 73/73/73 74/74/74 73/73/73 
f 73/73/73 74/74/74 75/75/75 
f 74/74/74 76/76/76 75/75/75 
f 75/75/75 76/76/76 77/77/77 
f 76/76/76 78/78/78 77/77/77 
f 77/77/77 78/78/78 79/79/79 
f 78/78/78 80/80/80 79/79/79 
f 79/79/79 80/80/80 81/81/81 
f 80/80/80 82/82/82 81/81/81 
f 81/81/81 82/82/82 82/82/82 
f 82/82/82 83/83/83 82/82/82 
f 82/82/82 83/83/83 83/83/83 
f 83/83/83 84/84/84 83/83/83 
f 83/83/83 84/84/84 85/85/85 
f 84/84/84 86/86/86 85/85/85 
f 85/85/85 86/86/86 87/87/87 
f 86/86/86 88/88/88 87/87/87 
f 87/87/87 88/88/88 89/89/89 
f 88/88/88 90/90/90 89/89/89 
f 89/89/89 90/90/90 91/91/91 
f 90/90/90 92/92/92 91/91/91 
f 91/91/91 92/92/92 93/93/93 
f 92/92/92 94/94/94 93/93/93 
f 93/93/93 94/94/94 95/95/95 
f 94/94/94 96/96/96 95/95/95 
f 95/95/95 96/96/96 97/97/97 
f 96/96/96 98/98/98 97/97/97 
f 97/97/97 98/98/98 99/99/99 
f 98/98/98 100/100/100 99/99/99 
f 99/99/99 100/100/100 101/101/101 
f 100/100/100 102/102/102 101/101/101 
f 101/101/101 102/102/102 103/103/103 
f 102/102/102 104/104/104 103/103/103 
f 103/103/103 104/104/104 105/105/105 
f 104/104/104 106/106/106 105/105/105 
f 105/105/105 106/106/106 107/107/107 
f 106/106/106 108/108/108 107/107/107 
f 107/107/107 108/108/108 109/109/109 
f 108/108/108 110/110/110 109/109/109 
f 109/109/109 110/110/110 111/111/111 
f 110/110/110 112/112/112 111/111/111 
f 111/111/111 112/112/112 113/113/113 
f 112/112/112 114/114/114 113/113/113 
f 113/113/113 114/114/114 115/115/115 
f 114/114/114 116/116/116 115/115/115 
f 115/115/115 116/116/116 117/117/117 
f 116/116/116 118/118/118 117/117/117 
f 117/117/117 118/118/118 119/119/119 
f 118/118/118 120/120/120 119/119/119 
f 119/119/119 120/120/120 121/121/121 
f 120/120/120 122/122/122 121/121/121 
f 121/121/121 122/122/122 123/123/123 
f 122/122/122 124/124/124 123/123/123 
f 123/123/123 124/124/124 125/125/125 
f 124/124/124 126/126/126 125/125/125 
f 125/125/125 126/126/126 127/127/127 
f 126/126/126 128/128/128 127/127/127 
f 127/127/127 128/128/128 129/129/129 
f 128/128/128 130/130/130 129/129/129 
f 129/129/129 130/130/130 131/131/131 
f 130/130/130 132/132/132 131/131/131 
f 131/131/131 132/132/132 132/132/132 
f 132/132/132 133/133/133 132/132/132 
f 132/132/132 133/133/133 133/133/133 
f 133/133/133 134/134/134 133/133/133 
f 133/133/133 134/134/134 135/135/135 
f 134/134/134 136/136/136 135/135/135 
f 135/135/135 136/136/136 136/136/136 
f 136/136/136 134/134/134 136/136/136 
f 136/136/136 134/134/134 134/134/134 
f 134/134/134 137/137/137 134/134/134 
f 134/134/134 137/137/137 136/136/136 
f 137/137/137 138/138/138 136/136/136 
f 136/136/136 138/138/138 138/138/138 
f 138/138/138 137/137/137 138/138/138 
f 138/138/138 137/137/137 137/137/137 
f 137/137/137 139/139/139 137/137/137 
f 137/137/137 139/139/139 138/138/138 
f 139/139/139 140/140/140 138/138/138 
f 138/138/138 140/140/140 140/140/140 
f 140/140/140 139/139/139 140/140/140 
f 140/140/140 139/139/139 139/139/139 
f 139/139/139 141/141/141 139/139/139 
f 139/139/139 141/141/141 140/140/140 
f 141/141/141 142/142/142 140/140/140 
f 140/140/140 142/142/142 142/142/142 
f 142/142/142 141/141/141 142/142/142 
f 142/142/142 141/141/141 141/141/141 
f 141/141/141 143/143/143 141/141/141 
f 141/141/141 143/143/143 142/142/142 
f 143/143/143 144/144/144 142/142/142 
f 142/142/142 144/144/144 144/144/144 
f 144/144/144 143/143/143 144/144/144 
f 144/144/144 143/143/143 143/143/143 
f 143/143/143 145/145/145 143/143/143 
f 143/143/143 145/145/145 144/144/144 
f 145/145/145 146/146/146 144/144/144 
f 144/144/144 146/146/146 146/146/146 
f 146/146/146 145/145/145 146/146/146 
f 146/146/146 145/145/145 145/145/145 
f 145/145/145 147/147/147 145/145/145 
f 145/145/145 147/147/147 146/146/146 
f 147/147/147 148/148/148 146/146/146 
f 146/146/146 148/148/148 148/148/148 
f 148/148/148 147/147/147 148/148/148 
f 148/148/148 147/147/147 147/147/147 
f 147/147/147 149/149/149 147/147/147 
f 147/147/147 149/149/149 148/148/148 
f 149/149/149 150/150/150 148/148/148 
f 148/148/148 150/150/150 150/150/150 
f 150/150/150 149/149/149 150/150/150 
f 150/150/150 149/149/149 149/149/149 
f 149/149/149 151/151/151 149/149/149 
f 149/149/149 151/151/151 150/150/150 
f 151/151/151 152/152/152 150/150/150 
f 150/150/150 152/152/152 152/152/152 
f 152/152/152 151/151/151 152/152/152 
f 152/152/152 151/151/151 151/151/151 
f 151/151/151 153/153/153 151/151/151 
f 151/151/151 153/153/153 152/152/152 
f 153/153/153 154/154/154 152/152/152 
f 152/152/152 154/154/154 154/154/154 
f 154/154/154 153/153/153 154/154/154 
f 154/154/154 153/153/153 153/153/153 
f 153/153/153 155/155/155 153/153/153 
f 153/153/153 155/155/155 154/154/154 
f 155/155/155 156/156/156 154/154/154 
f 154/154/154 156/156/156 156/156/156 
f 156/156/156 155/155/155 156/156/156 
f 156/156/156 155/155/155 155/155/155 
f 155/155/155 157/157/157 155/155/155 
f 155/155/155 157/157/157 156/156/156 
f 157/157/157 158/158/158 156/156/156 
f 156/156/156 158/158/158 158/158/158 
f 158/158/158 157/157/157 158/158/158 
f 158/158/158 157/157/157 157/157/157 
f 157/157/157 159/159/159 157/157/157 
f 157/157/157 159/159/159 158/158/158 
f 159/159/159 160/160/160 158/158/158 
f 158/158/158 160/160/160 160/160/160 
f 160/160/160 159/159/159 160/160/160 
f 160/160/160 159/159/159 159/159/159 
f 159/159/159 161/161/161 159/159/159 
f 159/159/159 161/161/161 160/160/160 
f 161/161/161 162/162/162 160/160/160 
f 160/160/160 162/162/162 162/162/162 
f 162/162/162 161/161/161 162/162/162 
f 162/162/162 161/161/161 161/161/161 
f 161/161/161 163/163/163 161/161/161 
f 161/161/161 163/163/163 162/162/162 
f 163/163/163 164/164/164 162/162/162 
f 162/162/162 164/164/164 164/164/164 
f 164/164/164 163/163/163 164/164/164 
f 164/164/164 163/163/163 163/163/163 
f 163/163/163 165/165/165 163/163/163 
f 163/163/163 165/165/165 164/164/164 
f 165/165/165 166/166/166 164/164/164 
f 164/164/164 166/166/166 166/166/166 
f 166/166/166 165/165/165 166/166/166 
f 166/166/166 165/165/165 165/165/165 
f 165/165/165 167/167/167 165/165/165 
f 165/165/165 167/167/167 166/166/166 
f 167/167/167 168/168/168 166/166/166 
f 166/166/166 168/168/168 168/168/168 
f 168/168/168 167/167/167 168/168/168 
f 168/168/168 167/167/167 167/167/167 
f 167/167/167 169/169/169 167/167/167 
f 167/167/167 169/169/169 168/168/168 
f 169/169/169 170/170/170 168/168/168 
f 168/168/168 170/170/170 170/170/170 
f 170/170/170 169/169/169 170/170/170 
f 170/170/170 169/169/169 169/169/169 
f 169/169/169 171/171/171 169/169/169 
f 169/169/169 171/171/171 170/170/170 
f 171/171/171 172/172/172 170/170/170 
f 170/170/170 172/172/172 172/172/172 
f 172/172/172 171/171/171 172/172/172 
f 172/172/172 171/171/171 171/171/171 
f 171/171/171 173/173/173 171/171/171 
f 171/171/171 173/173/173 172/172/172 
f 173/173/173 174/174/174 172/172/172 
f 172/172/172 174/174/174 174/174/174 
f 174/174/174 173/173/173 174/174/174 
f 174/174/174 173/173/173 173/173/173 
f 173/173/173 175/175/175 173/173/173 
f 173/173/173 175/175/175 174/174/174 
f 175/175/175 176/176/176 174/174/174 
f 174/174/174 176/176/176 176/176/176 
f 176/176/176 175/175/175 176/176/176 
f 176/176/176 175/175/175 175/175/175 
f 175/175/175 177/177/177 175/175/175 
f 175/175/175 177/177/177 176/176/176 
f 177/177/177 178/178/178 176/176/176 
f 176/176/176 178/178/178 178/178/178 
f 178/178/178 177/177/177 178/178/178 
f 178/178/178 177/177/177 177/177/177 
f 177/177/177 179/179/179 177/177/177 
f 177/177/177 179/179/179 178/178/178 
f 179/179/179 180/180/180 178/178/178 
f 178/178/178 180/180/180 180/180/180 
f 180/180/180 179/179/179 180/180/180 
f 180/180/180 179/179/179 179/179/179 
f 179/179/179 181/181/181 179/179/179 
f 179/179/179 181/181/181 180/180/180 
f 181/181/181 182/182/182 180/180/180 
f 180/180/180 182/182/182 182/182/182 
f 182/182/182 183/183/183 182/182/182 
f 182/182/182 183/183/183 183/183/183 
f 183/183/183 184/184/184 183/183/183 
f 183/183/183 184/184/184 185/185/185 
f 184/184/184 186/186/186 185/185/185 
f 185/185/185 186/186/186 186/186/186 
f 186/186/186 187/187/187 186/186/186 
f 186/186/186 187/187/187 187/187/187 
f 187/187/187 188/188/188 187/187/187 
f 187/187/187 188/188/188 189/189/189 
f 188/188/188 190/190/190 189/189/189 
f 189/189/189 190/190/190 191/191/191 
f 190/190/190 192/192/192 191/191/191 
f 191/191/191 192/192/192 193/193/193 
f 192/192/192 194/194/194 193/193/193 
f 193/193/193 194/194/194 195/195/195 
f 194/194/194 196/196/196 195/195/195 
f 195/195/195 196/196/196 197/197/197 
f 196/196/196 198/198/198 197/197/197 
f 197/197/197 198/198/198 199/199/199 
f 198/198/198 200/200/200 199/199/199 
f 199/199/199 200/200/200 201/201/201 
f 200/200/200 202/202/202 201/201/201 
f 201/201/201 202/202/202 203/203/203 
f 202/202/202 204/204/204 203/203/203 
f 203/203/203 204/204/204 205/205/205 
f 204/204/204 206/206/206 205/205/205 
f 205/205/205 206/206/206 207/207/207 
f 206/206/206 208/208/208 207/207/207 
f 207/207/207 208/208/208 209/209/209 
f 208/208/208 210/210/210 209/209/209 
f 209/209/209 210/210/210 211/211/211 
f 210/210/210 212/212/212 211/211/211 
f 211/211/211 212/212/212 213/213/213 
f 212/212/212 214/214/214 213/213/213 
f 213/213/213 214/214/214 215/215/215 
f 214/214/214 216/216/216 215/215/215 
f 215/215/215 216/216/216 217/217/217 
f 216/216/216 218/218/218 217/217/217 
f 217/217/217 218/218/218 219/219/219 
f 218/218/218 220/220/220 219/219/219 
f 219/219/219 220/220/220 221/221/221 
f 220/220/220 222/222/222 221/221/221 
f 221/221/221 222/222/222 223/223/223 
f 222/222/222 224/224/224 223/223/223 
f 223/223/223 224/224/224 225/225/225 
f 224/224/224 226/226/226 225/225/225 
f 225/225/225 226/226/226 227/227/227 
f 226/226/226 228/228/228 227/227/227 
f 227/227/227 228/228/228 229/229/229 
f 228/228/228 230/230/230 229/229/229 
f 229/229/229 230/230/230 231/231/231 
f 230/230/230 232/232/232 231/231/231 
f 231/231/231 232/232/232 233/233/233 
f 232/232/232 234/234/234 233/233/233 
f 233/233/233 234/234/234 235/235/235 
f 234/234/234 236/236/236 235/235/235 
f 235/235/235 236/236/236 236/236/236 
f 236/236/236 237/237/237 236/236/236 
f 236/236/236 237/237/237 237/237/237 
f 237/237/237 238/238/238 237/237/237 
f 237/237/237 238/238/238 239/239/239 
f 238/238/238 240/240/240 239/239/239 
f 239/239/239 240/240/240 241/241/241 
f 240/240/240 242/242/242 241/241/241 
f 241/241/241 242/242/242 243/243/243 
f 242/242/242 244/244/244 243/243/243 
f 243/243/243 244/244/244 245/245/245 
f 244/244/244 246/246/246 245/245/245 
f 245/245/245 246/246/246 246/246/246 
f 246/246/246 247/247/247 246/246/246 
f 246/246/246 247/247/247 247/247/247 
f 247/247/247 248/248/248 247/247/247 
f 247/247/247 248/248/248 249/249/249 
f 248/248/248 250/250/250 249/249/249 
f 249/249/249 250/250/250 251/251/251 
f 250/250/250 252/252/252 251/251/251 
f 251/251/251 252/252/252 252/252/252 
f 252/252/252 248/248/248 252/252/252 
f 252/252/252 248/248/248 248/248/248 
f 248/248/248 253/253/253 248/248/248 
f 248/248/248 253/253/253 250/250/250 
f 253/253/253 254/254/254 250/250/250 
f 250/250/250 254/254/254 252/252/252 
f 254/254/254 252/252/252 252/252/252 
f 252/252/252 252/252/252 255/255/255 
f 252/252/252 255/255/255 255/255/255 
f 255/255/255 255/255/255 255/255/255 
f 255/255/255 256/256/256 255/255/255 
f 255/255/255 256/256/256 257/257/257 
f 256/256/256 258/258/258 257/257/257 
f 257/257/257 258/258/258 258/258/258 
f 258/258/258 259/259/259 258/258/258 
f 258/258/258 259/259/259 259/259/259 
f 259/259/259 260/260/260 259/259/259 
f 259/259/259 260/260/260 261/261/261 
f 260/260/260 262/262/262 261/261/261 
f 261/261/261 262/262/262 262/262/262 
f 262/262/262 260/260/260 262/262/262 
f 262/262/262 260/260/260 260/260/260 
f 260/260/260 263/263/263 260/260/260 
f 260/260/260 263/263/263 262/262/262 
f 263/263/263 264/264/264 262/262/262 
f 262/262/262 264/264/264 264/264/264 
f 264/264/264 265/265/265 264/264/264 
f 264/264/264 265/265/265 265/265/265 
f 265/265/265 266/266/266 265/265/265 
f 265/265/265 266/266/266 267/267/267 
f 266/266/266 268/268/268 267/267/267 
f 267/267/267 268/268/268 269/269/269 
f 268/268/268 270/270/270 269/269/269 
f 269/269/269 270/270/270 270/270/270 
f 270/270/270 266/266/266 270/270/270 
f 270/270/270 266/266/266 266/266/266 
f 266/266/266 271/271/271 266/266/266 
f 266/266/266 271/271/271 268/268/268 
f 271/271/271 272/272/272 268/268/268 
f 268/268/268 272/272/272 270/270/270 
f 272/272/272 270/270/270 270/270/270 
f 270/270/270 270/270/270 273/273/273 
f 270/270/270 273/273/273 273/273/273 
f 273/273/273 273/273/273 273/273/273 
f 273/273/273 274/274/274 273/273/273 
f 273/273/273 274/274/274 275/275/275 
f 274/274/274 276/276/276 275/275/275 
f 275/275/275 276/276/276 277/277/277 
f 276/276/276 278/278/278 277/277/277 
f 277/277/277 278/278/278 278/278/278 
f 278/278/278 274/274/274 278/278/278 
f 278/278/278 274/274/274 274/274/274 
f 274/274/274 279/279/279 274/274/274 
f 274/274/274 279/279/279 276/276/276 
f 279/279/279 280/280/280 276/276/276 
f 276/276/276 280/280/280 278/278/278 
f 280/280/280 281/281/281 278/278/278 
f 278/278/278 281/281/281 281/281/281 
f 281/281/281 282/282/282 281/281/281 
f 281/281/281 282/282/282 282/282/282 
f 282/282/282 283/283/283 282/282/282 
f 282/282/282 283/283/283 284/284/284 
f 283/283/283 285/285/285 284/284/284 
f 284/284/284 285/285/285 285/285/285 
f 285/285/285 283/283/283 285/285/285 
f 285/285/285 283/283/283 283/283/283 
f 283/283/283 286/286/286 283/283/283 
f 283/283/283 286/286/286 285/285/285 
f 286/286/286 287/287/287 285/285/285 
f 285/285/285 287/287/287 287/287/287 
f 287/287/287 288/288/288 287/287/287 
f 287/287/287 288/288/288 288/288/288 
f 288/288/288 289/289/289 288/288/288 
f 288/288/288 289/289/289 290/290/290 
f 289/289/289 291/291/291 290/290/290 
f 290/290/290 291/291/291 292/292/292 
f 291/291/291 293/293/293 292/292/292 
f 292/292/292 293/293/293 294/294/294 
f 293/293/293 295/295/295 294/294/294 
f 294/294/294 295/295/295 296/296/296 
f 295/295/295 297/297/297 296/296/296 
f 296/296/296 297/297/297 297/297/297 
f 297/297/297 298/298/298 297/297/297 
f 297/297/297 298/298/298 298/298/298 
f 298/298/298 299/299/299 298/298/298 
f 298/298/298 299/299/299 300/300/300 
f 299/299/299 301/301/301 300/300/300 
f 300/300/300 301/301/301 302/302/302 
f 301/301/301 303/303/303 302/302/302 
f 302/302/302 303/303/303 304/304/304 
f 303/303/303 305/305/305 304/304/304 
f 304/304/304 305/305/305 306/306/306 
f 305/305/305 307/307/307 306/306/306 
f 306/306/306 307/307/307 308/308/308 
f 307/307/307 309/309/309 308/308/308 
f 308/308/308 309/309/309 310/310/310 
f 309/309/309 311/311/311 310/310/310 
f 310/310/310 311/311/311 312/312/312 
f 311/311/311 313/313/313 312/312/312 
f 312/312/312 313/313/313 314/314/314 
f 313/313/313 315/315/315 314/314/314 
f 314/314/314 315/315/315 316/316/316 
f 315/315/315 317/317/317 316/316/316 
f 316/316/316 317/317/317 318/318/318 
f 317/317/317 319/319/319 318/318/318 
f 318/318/318 319/319/319 320/320/320 
f 319/319/319 321/321/321 320/320/320 
f 320/320/320 321/321/321 322/322/322 
f 321/321/321 323/323/323 322/322/322 
f 322/322/322 323/323/323 324/324/324 
f 323/323/323 325/325/325 324/324/324 
f 324/324/324 325/325/325 326/326/326 
f 325/325/325 327/327/327 326/326/326 
f 326/326/326 327/327/327 328/328/328 
f 327/327/327 329/329/329 328/328/328 
f 328/328/328 329/329/329 330/330/330 
f 329/329/329 331/331/331 330/330/330 
f 330/330/330 331/331/331 332/332/332 
f 331/331/331 333/333/333 332/332/332 
f 332/332/332 333/333/333 334/334/334 
f 333/333/333 335/335/335 334/334/334 
f 334/334/334 335/335/335 336/336/336 
f 335/335/335 337/337/337 336/336/336 
f 336/336/336 337/337/337 338/338/338 
f 337/337/337 339/339/339 338/338/338 
f 338/338/338 339/339/339 340/340/340 
f 339/339/339 341/341/341 340/340/340 
f 340/340/340 341/341/341 342/342/342 
f 341/341/341 343/343/343 342/342/342 
f 342/342/342 343/343/343 344/344/344 
f 343/343/343 345/345/345 344/344/344 
f 344/344/344 345/345/345 346/346/346 
f 345/345/345 347/347/347 346/346/346 
f 346/346/346 347/347/347 347/347/347 
f 347/347/347 348/348/348 347/347/347 
f 347/347/347 348/348/348 348/348/348 
f 348/348/348 349/349/349 348/348/348 
f 348/348/348 349/349/349 350/350/350 
f 349/349/349 351/351/351 350/350/350 
f 350/350/350 351/351/351 352/352/352 
f 351/351/351 353/353/353 352/352/352 
f 352/352/352 353/353/353 354/354/354 
f 353/353/353 355/355/355 354/354/354 
f 354/354/354 355/355/355 356/356/356 
f 355/355/355 357/357/357 356/356/356 
f 356/356/356 357/357/357 357/357/357 
f 357/357/357 358/358/358 357/357/357 
f 357/357/357 358/358/358 358/358/358 
f 358/358/358 359/359/359 358/358/358 
f 358/358/358 359/359/359 360/360/360 
f 359/359/359 361/361/361 360/360/360 
f 360/360/360 361/361/361 362/362/362 
f 361/361/361 363/363/363 362/362/362 
f 362/362/362 363/363/363 363/363/363 
f 363/363/363 359/359/359 363/363/363 
f 363/363/363 359/359/359 359/359/359 
f 359/359/359 364/364/364 359/359/359 
f 359/359/359 364/364/364 361/361/361 
f 364/364/364 365/365/365 361/361/361 
f 361/361/361 365/365/365 363/363/363 
f 365/365/365 366/366/366 363/363/363 
f 363/363/363 366/366/366 366/366/366 
f 366/366/366 367/367/367 366/366/366 
f 366/366/366 367/367/367 367/367/367 
f 367/367/367 368/368/368 367/367/367 
f 367/367/367 368/368/368 369/369/369 
f 368/368/368 370/370/370 369/369/369 
f 369/369/369 370/370/370 370/370/370 
f 370/370/370 368/368/368 370/370/370 
f 370/370/370 368/368/368 368/368/368 
f 368/368/368 371/371/371 368/368/368 
f 368/368/368 371/371/371 370/370/370 
f 371/371/371 372/372/372 370/370/370 
f 370/370/370 372/372/372 372/372/372 
f 372/372/372 371/371/371 372/372/372 
f 372/372/372 371/371/371 371/371/371 
f 371/371/371 373/373/373 371/371/371 
f 371/371/371 373/373/373 372/372/372 
f 373/373/373 374/374/374 372/372/372 
f 372/372/372 374/374/374 374/374/374 
f 374/374/374 373/373/373 374/374/374 
f 374/374/374 373/373/373 373/373/373 
f 373/373/373 375/375/375 373/373/373 
f 373/373/373 375/375/375 374/374/374 
f 375/375/375 376/376/376 374/374/374 
f 374/374/374 376/376/376 376/376/376 
f 376/376/376 375/375/375 376/376/376 
f 376/376/376 375/375/375 375/375/375 
f 375/375/375 377/377/377 375/375/375 
f 375/375/375 377/377/377 376/376/376 
f 377/377/377 378/378/378 376/376/376 
f 376/376/376 378/378/378 378/378/378 
f 378/378/378 377/377/377 378/378/378 
f 378/378/378 377/377/377 377/377/377 
f 377/377/377 379/379/379 377/377/377 
f 377/377/377 379/379/379 378/378/378 
f 379/379/379 380/380/380 378/378/378 
f 378/378/378 380/380/380 380/380/380 
f 380/380/380 379/379/379 380/380/380 
f 380/380/380 379/379/379 379/379/379 
f 379/379/379 381/381/381 379/379/379 
f 379/379/379 381/381/381 380/380/380 
f 381/381/381 382/382/382 380/380/380 
f 380/380/380 382/382/382 382/382/382 
f 382/382/382 381/381/381 382/382/382 
f 382/382/382 381/381/381 381/381/381 
f 381/381/381 383/383/383 381/381/381 
f 381/381/381 383/383/383 382/382/382 
f 383/383/383 384/384/384 382/382/382 
f 382/382/382 384/384/384 384/384/384 
f 384/384/384 383/383/383 384/384/384 
f 384/384/384 383/383/383 383/383/383 
f 383/383/383 385/385/385 383/383/383 
f 383/383/383 385/385/385 384/384/384 
f 385/385/385 386/386/386 384/384/384 
f 384/384/384 386/386/386 386/386/386 
f 386/386/386 385/385/385 386/386/386 
f 386/386/386 385/385/385 385/385/385 
f 385/385/385 387/387/387 385/385/385 
f 385/385/385 387/387/387 386/386/386 
f 387/387/387 388/388/388 386/386/386 
f 386/386/386 388/388/388 388/388/388 
f 388/388/388 387/387/387 388/388/388 
f 388/388/388 387/387/387 387/387/387 
f 387/387/387 389/389/389 387/387/387 
f 387/387/387 389/389/389 388/388/388 
f 389/389/389 390/390/390 388/388/388 
f 388/388/388 390/390/390 390/390/390 
f 390/390/390 389/389/389 390/390/390 
f 390/390/390 389/389/389 389/389/389 
f 389/389/389 391/391/391 389/389/389 
f 389/389/389 391/391/391 390/390/390 
f 391/391/391 392/392/392 390/390/390 
f 390/390/390 392/392/392 392/392/392 
f 392/392/392 391/391/391 392/392/392 
f 392/392/392 391/391/391 391/391/391 
f 391/391/391 393/393/393 391/391/391 
f 391/391/391 393/393/393 392/392/392 
f 393/393/393 394/394/394 392/392/392 
f 392/392/392 394/394/394 394/394/394 
f 394/394/394 393/393/393 394/394/394 
f 394/394/394 393/393/393 393/393/393 
f 393/393/393 395/395/395 393/393/393 
f 393/393/393 395/395/395 394/394/394 
f 395/395/395 396/396/396 394/394/394 
f 394/394/394 396/396/396 396/396/396 
f 396/396/396 395/395/395 396/396/396 
f 396/396/396 395/395/395 395/395/395 
f 395/395/395 397/397/397 395/395/395 
f 395/395/395 397/397/397 396/396/396 
f 397/397/397 398/398/398 396/396/396 
f 396/396/396 398/398/398 398/398/398 
f 398/398/398 397/397/397 398/398/398 
f 398/398/398 397/397/397 397/397/397 
f 397/397/397 399/399/399 397/397/397 
f 397/397/397 399/399/399 398/398/398 
f 399/399/399 400/400/400 398/398/398 
f 398/398/398 400/400/400 400/400/400 
f 400/400/400 399/399/399 400/400/400 
f 400/400/400 399/399/399 399/399/399 
f 399/399/399 401/401/401 399/399/399 
f 399/399/399 401/401/401 400/400/400 
f 401/401/401 402/402/402 400/400/400 
f 400/400/400 402/402/402 402/402/402 
f 402/402/402 401/401/401 402/402/402 
f 402/402/402 401/401/401 401/401/401 
f 401/401/401 403/403/403 401/401/401 
f 401/401/401 403/403/403 402/402/402 
f 403/403/403 404/404/404 402/402/402 
f 402/402/402 404/404/404 404/404/404 
f 404/404/404 403/403/403 404/404/404 
f 404/404/404 403/403/403 403/403/403 
f 403/403/403 405/405/405 403/403/403 
f 403/403/403 405/405/405 404/404/404 
f 405/405/405 406/406/406 404/404/404 
f 404/404/404 406/406/406 406/406/406 
f 406/406/406 405/405/405 406/406/406 
f 406/406/406 405/405/405 405/405/405 
f 405/405/405 407/407/407 405/405/405 
f 405/405/405 407/407/407 406/406/406 
f 407/407/407 408/408/408 406/406/406 
f 406/406/406 408/408/408 408/408/408 
f 408/408/408 407/407/407 408/408/408 
f 408/408/408 407/407/407 407/407/407 
f 407/407/407 409/409/409 407/407/407 
f 407/407/407 409/409/409 408/408/408 
f 409/409/409 410/410/410 408/408/408 
f 408/408/408 410/410/410 410/410/410 
f 410/410/410 409/409/409 410/410/410 
f 410/410/410 409/409/409 409/409/409 
f 409/409/409 411/411/411 409/409/409 
f 409/409/409 411/411/411 410/410/410 
f 411/411/411 412/412/412 410/410/410 
f 410/410/410 412/412/412 412/412/412 
f 412/412/412 411/411/411 412/412/412 
f 412/412/412 411/411/411 411/411/411 
f 411/411/411 413/413/413 411/411/411 
f 411/411/411 413/413/413 412/412/412 
f 413/413/413 414/414/414 412/412/412 
f 412/412/412 414/414/414 414/414/414 
f 414/414/414 413/413/413 414/414/414 
f 414/414/414 413/413/413 413/413/413 
f 413/413/413 415/415/415 413/413/413 
f 413/413/413 415/415/415 414/414/414 
f 415/415/415 416/416/416 414/414/414 
f 414/414/414 416/416/416 416/416/416 
f 416/416/416 417/417/417 416/416/416 
f 416/416/416 417/417/417 417/417/417 
f 417/417/417 418/418/418 417/417/417 
f 417/417/417 418/418/418 419/419/419 
f 418/418/418 420/420/420 419/419/419 
f 419/419/419 420/420/420 420/420/420 
f 420/420/420 418/418/418 420/420/420 
f 420/420/420 418/418/418 418/418/418 
f 418/418/418 421/421/421 418/418/418 
f 418/418/418 421/421/421 420/420/420 
f 421/421/421 422/422/422 420/420/420 
f 420/420/420 422/422/422 422/422/422 
f 422/422/422 421/421/421 422/422/422 
f 422/422/422 421/421/421 421/421/421 
f 421/421/421 423/423/423 421/421/421 
f 421/421/421 423/423/423 422/422/422 
f 423/423/423 424/424/424 422/422/422 
f 422/422/422 424/424/424 424/424/424 
f 424/424/424 423/423/423 424/424/424 
f 424/424/424 423/423/423 423/423/423 
f 423/423/423 425/425/425 423/423/423 
f 423/423/423 425/425/425 424/424/424 
f 425/425/425 426/426/426 424/424/424 
f 424/424/424 426/426/426 426/426/426 
f 426/426/426 427/427/427 426/426/426 
f 426/426/426 427/427/427 427/427/427 
f 427/427/427 428/428/428 427/427/427 
f 427/427/427 428/428/428 429/429/429 
f 428/428/428 430/430/430 429/429/429 
f 249/249/249 251/251/251 431/431/431 
f 267/267/267 269/269/269 432/432/432 

