mtllib model_35.mtl
o model_35
v -22.043746948242188 6.378310203552246 -38.10172653198242 
v -22.043746948242188 6.378310203552246 -33.2821044921875 
v -28.510454177856445 6.378310203552246 -38.024818420410156 
v -28.510454177856445 6.378310203552246 -33.2821044921875 
v -28.510454177856445 6.378310203552246 -28.565025329589844 
v -22.043746948242188 6.378310203552246 -28.462478637695312 
v -28.95210075378418 8.819684982299805 -38.435001373291016 
v -28.95210075378418 8.415372848510742 -38.435001373291016 
v -28.95210075378418 8.819684982299805 -37.97354507446289 
v -28.95210075378418 8.415372848510742 -37.97354507446289 
v -28.95210075378418 8.415372848510742 -33.2821044921875 
v -28.95210075378418 6.378310203552246 -33.2821044921875 
v -28.95210075378418 8.415372848510742 -28.590660095214844 
v -28.95210075378418 6.378310203552246 -28.590660095214844 
v -28.95210075378418 8.415372848510742 -28.154844284057617 
v -28.95210075378418 6.378310203552246 -28.154844284057617 
v -28.95210075378418 6.378310203552246 -37.97354507446289 
v -28.95210075378418 6.378310203552246 -38.435001373291016 
v -28.95210075378418 8.819684982299805 3.762349843978882 
v -28.95210075378418 8.415372848510742 3.762349843978882 
v -28.95210075378418 8.819684982299805 4.198166847229004 
v -28.95210075378418 8.415372848510742 4.198166847229004 
v -28.95210075378418 8.415372848510742 8.889609336853027 
v -28.95210075378418 6.378310203552246 8.889609336853027 
v -28.95210075378418 8.415372848510742 13.581052780151367 
v -28.95210075378418 6.378310203552246 13.581052780151367 
v -28.95210075378418 8.415372848510742 14.042506217956543 
v -28.95210075378418 6.378310203552246 14.042506217956543 
v -28.95210075378418 6.378310203552246 4.198166847229004 
v -28.95210075378418 6.378310203552246 3.762349843978882 
v -21.602100372314453 8.819684982299805 3.762349843978882 
v -21.602100372314453 8.819684982299805 4.198166847229004 
v -21.602100372314453 8.415372848510742 3.762349843978882 
v -21.602100372314453 8.610969543457031 3.9930765628814697 
v -21.602100372314453 6.378310203552246 3.762349843978882 
v -21.602100372314453 6.625190734863281 3.9930765628814697 
v -21.602100372314453 6.378310203552246 4.069985389709473 
v -21.602100372314453 6.378310203552246 8.889609336853027 
v -21.602100372314453 6.625190734863281 8.889609336853027 
v -21.602100372314453 6.625190734863281 13.78614330291748 
v -21.602100372314453 6.378310203552246 13.734870910644531 
v -21.602100372314453 6.378310203552246 14.042506217956543 
v -21.602100372314453 8.610969543457031 13.78614330291748 
v -21.602100372314453 8.415372848510742 14.042506217956543 
v -21.602100372314453 8.819684982299805 13.581052780151367 
v -21.602100372314453 8.819684982299805 8.889609336853027 
v -21.602100372314453 8.610969543457031 8.889609336853027 
v -28.95210075378418 8.819684982299805 -33.2821044921875 
v -28.95210075378418 8.819684982299805 -28.590660095214844 
v -28.95210075378418 8.819684982299805 -28.154844284057617 
v -21.602100372314453 8.610969543457031 13.78614330291748 
v -27.749242782592773 8.610969543457031 13.78614330291748 
v -21.602100372314453 8.610969543457031 8.889609336853027 
v -27.749242782592773 8.610969543457031 8.889609336853027 
v -27.749242782592773 8.610969543457031 3.9930765628814697 
v -21.602100372314453 8.583538055419922 -38.15299987792969 
v -21.602100372314453 8.583538055419922 -33.2821044921875 
v -21.602100372314453 6.651429176330566 -38.15299987792969 
v -21.602100372314453 6.651429176330566 -33.2821044921875 
v -21.602100372314453 6.651429176330566 -28.436843872070312 
v -21.602100372314453 8.583538055419922 -28.436843872070312 
v -27.749242782592773 6.625190734863281 3.9930765628814697 
v -27.749242782592773 6.625190734863281 8.889609336853027 
v -21.602100372314453 6.625190734863281 3.9930765628814697 
v -21.602100372314453 6.625190734863281 8.889609336853027 
v -21.602100372314453 6.625190734863281 13.78614330291748 
v -27.749242782592773 6.625190734863281 13.78614330291748 
v -27.749242782592773 6.625190734863281 -38.17863845825195 
v -27.749242782592773 6.625190734863281 -33.2821044921875 
v -21.602100372314453 6.625190734863281 -38.17863845825195 
v -21.602100372314453 6.625190734863281 -33.2821044921875 
v -21.602100372314453 6.625190734863281 -28.385570526123047 
v -27.749242782592773 6.625190734863281 -28.385570526123047 
v -21.602100372314453 6.625190734863281 3.9930765628814697 
v -21.602100372314453 8.610969543457031 3.9930765628814697 
v -27.749242782592773 6.625190734863281 3.9930765628814697 
v -27.749242782592773 8.610969543457031 3.9930765628814697 
v -27.749242782592773 8.610969543457031 -38.17863845825195 
v -27.749242782592773 6.625190734863281 -38.17863845825195 
v -21.602100372314453 8.610969543457031 -38.17863845825195 
v -21.602100372314453 6.625190734863281 -38.17863845825195 
v -28.95210075378418 8.819684982299805 14.042506217956543 
v -28.95210075378418 8.415372848510742 14.042506217956543 
v -28.510454177856445 8.819684982299805 14.042506217956543 
v -28.510454177856445 8.415372848510742 14.042506217956543 
v -22.043746948242188 8.415372848510742 14.042506217956543 
v -22.043746948242188 6.378310203552246 14.042506217956543 
v -21.602100372314453 6.378310203552246 14.042506217956543 
v -21.602100372314453 8.415372848510742 14.042506217956543 
v -22.043746948242188 8.819684982299805 14.042506217956543 
v -21.602100372314453 6.625190734863281 -28.385570526123047 
v -27.749242782592773 6.625190734863281 -28.385570526123047 
v -21.602100372314453 8.610969543457031 -28.385570526123047 
v -27.749242782592773 8.610969543457031 -28.385570526123047 
v -21.602100372314453 8.610969543457031 -28.385570526123047 
v -27.749242782592773 8.610969543457031 -28.385570526123047 
v -21.602100372314453 8.610969543457031 -33.2821044921875 
v -27.749242782592773 8.610969543457031 -33.2821044921875 
v -27.749242782592773 8.610969543457031 -38.17863845825195 
v -21.602100372314453 8.819684982299805 -38.435001373291016 
v -21.602100372314453 8.819684982299805 -37.97354507446289 
v -21.602100372314453 8.415372848510742 -38.435001373291016 
v -21.602100372314453 8.610969543457031 -38.17863845825195 
v -21.602100372314453 6.378310203552246 -38.435001373291016 
v -21.602100372314453 6.625190734863281 -38.17863845825195 
v -21.602100372314453 6.378310203552246 -38.12736511230469 
v -21.602100372314453 6.378310203552246 -33.2821044921875 
v -21.602100372314453 6.625190734863281 -33.2821044921875 
v -21.602100372314453 6.625190734863281 -28.385570526123047 
v -21.602100372314453 6.378310203552246 -28.462478637695312 
v -21.602100372314453 6.378310203552246 -28.154844284057617 
v -21.602100372314453 8.610969543457031 -28.385570526123047 
v -21.602100372314453 8.415372848510742 -28.154844284057617 
v -21.602100372314453 8.819684982299805 -28.590660095214844 
v -21.602100372314453 8.819684982299805 -33.2821044921875 
v -21.602100372314453 8.610969543457031 -33.2821044921875 
v -21.602100372314453 6.651429176330566 13.760506629943848 
v -21.738544464111328 6.651429176330566 13.760506629943848 
v -21.602100372314453 6.651429176330566 8.889609336853027 
v -21.738544464111328 6.651429176330566 8.889609336853027 
v -21.738544464111328 6.651429176330566 4.044349193572998 
v -28.95210075378418 6.378310203552246 14.042506217956543 
v -28.510454177856445 6.378310203552246 14.042506217956543 
v -21.602100372314453 8.819684982299805 -28.154844284057617 
v -22.043746948242188 8.819684982299805 -28.154844284057617 
v -21.602100372314453 8.415372848510742 -28.154844284057617 
v -22.043746948242188 8.415372848510742 -28.154844284057617 
v -21.602100372314453 6.378310203552246 -28.154844284057617 
v -22.043746948242188 6.378310203552246 -28.154844284057617 
v -28.510454177856445 8.819684982299805 -28.154844284057617 
v -28.510454177856445 8.415372848510742 -28.154844284057617 
v -28.510454177856445 6.378310203552246 -28.154844284057617 
v -28.95210075378418 8.415372848510742 -28.154844284057617 
v -28.95210075378418 6.378310203552246 -28.154844284057617 
v -21.602100372314453 8.583538055419922 13.760506629943848 
v -21.738544464111328 8.583538055419922 13.760506629943848 
v -21.602100372314453 6.651429176330566 13.760506629943848 
v -21.738544464111328 6.651429176330566 13.760506629943848 
v -21.738544464111328 8.583538055419922 4.044349193572998 
v -21.738544464111328 8.583538055419922 8.889609336853027 
v -21.602100372314453 8.583538055419922 4.044349193572998 
v -21.602100372314453 8.583538055419922 8.889609336853027 
v -21.602100372314453 8.583538055419922 13.760506629943848 
v -21.738544464111328 8.583538055419922 13.760506629943848 
v -21.602100372314453 6.651429176330566 -28.436843872070312 
v -21.738544464111328 6.651429176330566 -28.436843872070312 
v -21.602100372314453 6.651429176330566 -33.2821044921875 
v -21.738544464111328 6.651429176330566 -33.2821044921875 
v -21.738544464111328 6.651429176330566 -38.15299987792969 
v -28.95210075378418 8.819684982299805 -38.435001373291016 
v -28.510454177856445 8.819684982299805 -38.435001373291016 
v -28.95210075378418 8.415372848510742 -38.435001373291016 
v -28.510454177856445 8.415372848510742 -38.435001373291016 
v -28.95210075378418 6.378310203552246 -38.435001373291016 
v -28.510454177856445 6.378310203552246 -38.435001373291016 
v -22.043746948242188 8.415372848510742 -38.435001373291016 
v -22.043746948242188 6.378310203552246 -38.435001373291016 
v -22.043746948242188 8.819684982299805 -38.435001373291016 
v -21.602100372314453 8.415372848510742 -38.435001373291016 
v -21.602100372314453 6.378310203552246 -38.435001373291016 
v -21.602100372314453 8.583538055419922 13.760506629943848 
v -21.602100372314453 6.651429176330566 13.760506629943848 
v -21.602100372314453 8.583538055419922 8.889609336853027 
v -21.602100372314453 6.651429176330566 8.889609336853027 
v -21.602100372314453 6.651429176330566 4.044349193572998 
v -21.602100372314453 6.625190734863281 13.78614330291748 
v -27.749242782592773 6.625190734863281 13.78614330291748 
v -21.602100372314453 8.610969543457031 13.78614330291748 
v -27.749242782592773 8.610969543457031 13.78614330291748 
v -21.602100372314453 8.583538055419922 -38.15299987792969 
v -21.602100372314453 6.651429176330566 -38.15299987792969 
v -21.738544464111328 8.583538055419922 -38.15299987792969 
v -21.738544464111328 6.651429176330566 -38.15299987792969 
v -21.738544464111328 6.651429176330566 4.044349193572998 
v -21.738544464111328 8.583538055419922 4.044349193572998 
v -21.602100372314453 6.651429176330566 4.044349193572998 
v -21.602100372314453 8.583538055419922 4.044349193572998 
v -21.738544464111328 8.583538055419922 -28.436843872070312 
v -21.602100372314453 8.583538055419922 -28.436843872070312 
v -21.738544464111328 8.583538055419922 -33.2821044921875 
v -21.602100372314453 8.583538055419922 -33.2821044921875 
v -21.602100372314453 8.583538055419922 -38.15299987792969 
v -28.95210075378418 8.819684982299805 8.889609336853027 
v -28.95210075378418 8.819684982299805 13.581052780151367 
v -28.95210075378418 8.819684982299805 14.042506217956543 
v -21.738544464111328 6.651429176330566 -28.436843872070312 
v -21.602100372314453 6.651429176330566 -28.436843872070312 
v -21.738544464111328 8.583538055419922 -28.436843872070312 
v -21.602100372314453 8.583538055419922 -28.436843872070312 
v -22.043746948242188 6.378310203552246 4.069985389709473 
v -22.043746948242188 6.378310203552246 8.889609336853027 
v -28.510454177856445 6.378310203552246 4.172530651092529 
v -28.510454177856445 6.378310203552246 8.889609336853027 
v -28.510454177856445 6.378310203552246 13.632325172424316 
v -22.043746948242188 6.378310203552246 13.709234237670898 
v -21.602100372314453 8.819684982299805 3.762349843978882 
v -21.602100372314453 8.415372848510742 3.762349843978882 
v -22.043746948242188 8.819684982299805 3.762349843978882 
v -22.043746948242188 8.415372848510742 3.762349843978882 
v -28.510454177856445 8.819684982299805 3.762349843978882 
v -28.510454177856445 8.415372848510742 3.762349843978882 
v -28.95210075378418 8.415372848510742 3.762349843978882 
v -28.95210075378418 6.378310203552246 3.762349843978882 
v -21.602100372314453 6.378310203552246 3.762349843978882 
v -22.043746948242188 6.378310203552246 3.762349843978882 
v -28.510454177856445 6.378310203552246 3.762349843978882 
v -21.602100372314453 8.819684982299805 -38.435001373291016 
v -22.043746948242188 8.819684982299805 -38.435001373291016 
v -22.043746948242188 8.819684982299805 -37.97354507446289 
v -28.510454177856445 8.819684982299805 -37.97354507446289 
v -28.510454177856445 8.819684982299805 -33.2821044921875 
v -28.95210075378418 8.819684982299805 -37.97354507446289 
v -28.95210075378418 8.819684982299805 -33.2821044921875 
v -28.510454177856445 8.819684982299805 -38.435001373291016 
v -28.95210075378418 8.819684982299805 -38.435001373291016 
v -21.602100372314453 8.819684982299805 -37.97354507446289 
v -22.043746948242188 8.819684982299805 -33.2821044921875 
v -21.602100372314453 8.819684982299805 -33.2821044921875 
v -21.602100372314453 8.819684982299805 -28.590660095214844 
v -22.043746948242188 8.819684982299805 -28.590660095214844 
v -21.602100372314453 8.819684982299805 -28.154844284057617 
v -28.510454177856445 8.819684982299805 -28.590660095214844 
v -22.043746948242188 8.819684982299805 -28.154844284057617 
v -28.95210075378418 8.819684982299805 -28.590660095214844 
v -28.95210075378418 8.819684982299805 -28.154844284057617 
v -28.510454177856445 8.819684982299805 -28.154844284057617 
v -21.602100372314453 8.819684982299805 4.198166847229004 
v -21.602100372314453 8.819684982299805 3.762349843978882 
v -22.043746948242188 8.819684982299805 4.198166847229004 
v -22.043746948242188 8.819684982299805 3.762349843978882 
v -28.510454177856445 8.819684982299805 4.198166847229004 
v -28.510454177856445 8.819684982299805 3.762349843978882 
v -28.95210075378418 8.819684982299805 3.762349843978882 
v -28.95210075378418 8.819684982299805 4.198166847229004 
v -28.510454177856445 8.819684982299805 8.889609336853027 
v -22.043746948242188 8.819684982299805 8.889609336853027 
v -21.602100372314453 8.819684982299805 8.889609336853027 
v -22.043746948242188 8.819684982299805 13.581052780151367 
v -21.602100372314453 8.819684982299805 13.581052780151367 
v -28.510454177856445 8.819684982299805 13.581052780151367 
v -22.043746948242188 8.819684982299805 14.042506217956543 
v -21.602100372314453 8.819684982299805 14.042506217956543 
v -28.95210075378418 8.819684982299805 13.581052780151367 
v -28.95210075378418 8.819684982299805 14.042506217956543 
v -28.510454177856445 8.819684982299805 14.042506217956543 
v -28.95210075378418 8.819684982299805 8.889609336853027 
v -21.602100372314453 8.610969543457031 -38.17863845825195 
v -21.602100372314453 8.819684982299805 -38.435001373291016 
v -28.95210075378418 8.819684982299805 -28.154844284057617 
v -21.602100372314453 8.819684982299805 -28.154844284057617 
v -21.602100372314453 6.651429176330566 -38.15299987792969 
v -21.738544464111328 8.583538055419922 -38.15299987792969 
v -28.95210075378418 8.819684982299805 3.762349843978882 
v -21.602100372314453 8.610969543457031 3.9930765628814697 
v -21.602100372314453 8.819684982299805 14.042506217956543 
v -21.602100372314453 8.819684982299805 14.042506217956543 
v -21.602100372314453 8.583538055419922 4.044349193572998 
v -21.602100372314453 6.651429176330566 4.044349193572998 
vn 3.097898456858039e-13 -0.999997615814209 0.002184694167226553 
vn 3.097898456858039e-13 -0.999997615814209 0.002184694167226553 
vn 3.097898456858039e-13 -0.999997615814209 0.002184694167226553 
vn 3.097898456858039e-13 -0.999997615814209 0.002184694167226553 
vn 3.097898456858039e-13 -0.999997615814209 0.002184694167226553 
vn 3.097898456858039e-13 -0.999997615814209 0.002184694167226553 
vn -0.999997615814209 -2.0682260971124217e-13 0.002184694167226553 
vn -0.999997615814209 -2.0682260971124217e-13 0.002184694167226553 
vn -0.999997615814209 -2.0682260971124217e-13 0.002184694167226553 
vn -0.999997615814209 -2.0682260971124217e-13 0.002184694167226553 
vn -0.999997615814209 -2.0682260971124217e-13 0.002184694167226553 
vn -0.999997615814209 -2.0682260971124217e-13 0.002184694167226553 
vn -0.999997615814209 -2.0682260971124217e-13 0.002184694167226553 
vn -0.999997615814209 -2.0682260971124217e-13 0.002184694167226553 
vn -0.999997615814209 -2.0682260971124217e-13 0.002184694167226553 
vn -0.999997615814209 -2.0682260971124217e-13 0.002184694167226553 
vn -0.999997615814209 -2.0682260971124217e-13 0.002184694167226553 
vn -0.999997615814209 -2.0682260971124217e-13 0.002184694167226553 
vn -0.999997615814209 -2.0682260971124217e-13 0.002184694167226553 
vn -0.999997615814209 -2.0682260971124217e-13 0.002184694167226553 
vn -0.999997615814209 -2.0682260971124217e-13 0.002184694167226553 
vn -0.999997615814209 -2.0682260971124217e-13 0.002184694167226553 
vn -0.999997615814209 -2.0682260971124217e-13 0.002184694167226553 
vn -0.999997615814209 -2.0682260971124217e-13 0.002184694167226553 
vn -0.999997615814209 -2.0682260971124217e-13 0.002184694167226553 
vn -0.999997615814209 -2.0682260971124217e-13 0.002184694167226553 
vn -0.999997615814209 -2.0682260971124217e-13 0.002184694167226553 
vn -0.999997615814209 -2.0682260971124217e-13 0.002184694167226553 
vn -0.999997615814209 -2.0682260971124217e-13 0.002184694167226553 
vn -0.999997615814209 -2.0682260971124217e-13 0.002184694167226553 
vn 0.999997615814209 0 0.002184694167226553 
vn 0.999997615814209 0 0.002184694167226553 
vn 0.999997615814209 0 0.002184694167226553 
vn 0.999997615814209 0 0.002184694167226553 
vn 0.999997615814209 0 0.002184694167226553 
vn 0.999997615814209 0 0.002184694167226553 
vn 0.999997615814209 0 0.002184694167226553 
vn 0.999997615814209 0 0.002184694167226553 
vn 0.999997615814209 0 0.002184694167226553 
vn 0.999997615814209 0 0.002184694167226553 
vn 0.999997615814209 0 0.002184694167226553 
vn 0.999997615814209 0 0.002184694167226553 
vn 0.999997615814209 0 0.002184694167226553 
vn 0.999997615814209 0 0.002184694167226553 
vn 0.999997615814209 0 0.002184694167226553 
vn 0.999997615814209 0 0.002184694167226553 
vn 0.999997615814209 0 0.002184694167226553 
vn -0.999997615814209 -2.0682260971124217e-13 0.002184694167226553 
vn -0.999997615814209 -2.0682260971124217e-13 0.002184694167226553 
vn -0.999997615814209 -2.0682260971124217e-13 0.002184694167226553 
vn 3.097898456858039e-13 -0.999997615814209 0.002184694167226553 
vn 3.097898456858039e-13 -0.999997615814209 0.002184694167226553 
vn 3.097898456858039e-13 -0.999997615814209 0.002184694167226553 
vn 3.097898456858039e-13 -0.999997615814209 0.002184694167226553 
vn 3.097898456858039e-13 -0.999997615814209 0.002184694167226553 
vn 0.999997615814209 0 0.002184694167226553 
vn 0.999997615814209 0 0.002184694167226553 
vn 0.999997615814209 0 0.002184694167226553 
vn 0.999997615814209 0 0.002184694167226553 
vn 0.999997615814209 0 0.002184694167226553 
vn 0.999997615814209 0 0.002184694167226553 
vn -1.0341130485562108e-13 0.999997615814209 0.002184694167226553 
vn -1.0341130485562108e-13 0.999997615814209 0.002184694167226553 
vn -1.0341130485562108e-13 0.999997615814209 0.002184694167226553 
vn -1.0341130485562108e-13 0.999997615814209 0.002184694167226553 
vn -1.0341130485562108e-13 0.999997615814209 0.002184694167226553 
vn -1.0341130485562108e-13 0.999997615814209 0.002184694167226553 
vn -1.0341130485562108e-13 0.999997615814209 0.002184694167226553 
vn -1.0341130485562108e-13 0.999997615814209 0.002184694167226553 
vn -1.0341130485562108e-13 0.999997615814209 0.002184694167226553 
vn -1.0341130485562108e-13 0.999997615814209 0.002184694167226553 
vn -1.0341130485562108e-13 0.999997615814209 0.002184694167226553 
vn -1.0341130485562108e-13 0.999997615814209 0.002184694167226553 
vn 0 0 1 
vn 0 0 1 
vn 0 0 1 
vn 0 0 1 
vn 0 0 1 
vn 0 0 1 
vn 0 0 1 
vn 0 0 1 
vn 0 0 1 
vn 0 0 1 
vn 0 0 1 
vn 0 0 1 
vn 0 0 1 
vn 0 0 1 
vn 0 0 1 
vn 0 0 1 
vn 0 0 1 
vn -2.0682311115474694e-13 0 -1 
vn -2.0682311115474694e-13 0 -1 
vn -2.0682311115474694e-13 0 -1 
vn -2.0682311115474694e-13 0 -1 
vn 3.097898456858039e-13 -0.999997615814209 0.002184694167226553 
vn 3.097898456858039e-13 -0.999997615814209 0.002184694167226553 
vn 3.097898456858039e-13 -0.999997615814209 0.002184694167226553 
vn 3.097898456858039e-13 -0.999997615814209 0.002184694167226553 
vn 3.097898456858039e-13 -0.999997615814209 0.002184694167226553 
vn 0.999997615814209 0 0.002184694167226553 
vn 0.999997615814209 0 0.002184694167226553 
vn 0.999997615814209 0 0.002184694167226553 
vn 0.999997615814209 0 0.002184694167226553 
vn 0.999997615814209 0 0.002184694167226553 
vn 0.999997615814209 0 0.002184694167226553 
vn 0.999997615814209 0 0.002184694167226553 
vn 0.999997615814209 0 0.002184694167226553 
vn 0.999997615814209 0 0.002184694167226553 
vn 0.999997615814209 0 0.002184694167226553 
vn 0.999997615814209 0 0.002184694167226553 
vn 0.999997615814209 0 0.002184694167226553 
vn 0.999997615814209 0 0.002184694167226553 
vn 0.999997615814209 0 0.002184694167226553 
vn 0.999997615814209 0 0.002184694167226553 
vn 0.999997615814209 0 0.002184694167226553 
vn 0.999997615814209 0 0.002184694167226553 
vn 3.097898456858039e-13 -0.999997615814209 0.002184694167226553 
vn 3.097898456858039e-13 -0.999997615814209 0.002184694167226553 
vn 3.097898456858039e-13 -0.999997615814209 0.002184694167226553 
vn 3.097898456858039e-13 -0.999997615814209 0.002184694167226553 
vn 3.097898456858039e-13 -0.999997615814209 0.002184694167226553 
vn 0 0 1 
vn 0 0 1 
vn 0 0 1 
vn 0 0 1 
vn 0 0 1 
vn 0 0 1 
vn 0 0 1 
vn 0 0 1 
vn 0 0 1 
vn 0 0 1 
vn 0 0 1 
vn 0 0 1 
vn 0 0 1 
vn 0 0 1 
vn 0 0 1 
vn 0 0 1 
vn 0 0 1 
vn -1.0341130485562108e-13 0.999997615814209 0.002184694167226553 
vn -1.0341130485562108e-13 0.999997615814209 0.002184694167226553 
vn -1.0341130485562108e-13 0.999997615814209 0.002184694167226553 
vn -1.0341130485562108e-13 0.999997615814209 0.002184694167226553 
vn -1.0341130485562108e-13 0.999997615814209 0.002184694167226553 
vn -1.0341130485562108e-13 0.999997615814209 0.002184694167226553 
vn 3.097898456858039e-13 -0.999997615814209 0.002184694167226553 
vn 3.097898456858039e-13 -0.999997615814209 0.002184694167226553 
vn 3.097898456858039e-13 -0.999997615814209 0.002184694167226553 
vn 3.097898456858039e-13 -0.999997615814209 0.002184694167226553 
vn 3.097898456858039e-13 -0.999997615814209 0.002184694167226553 
vn -2.0682311115474694e-13 0 -1 
vn -2.0682311115474694e-13 0 -1 
vn 2.0682311115474694e-13 4.2775797696334704e-26 -1 
vn 2.0682311115474694e-13 4.2775797696334704e-26 -1 
vn 2.0682311115474694e-13 4.2775797696334704e-26 -1 
vn 2.0682311115474694e-13 4.2775797696334704e-26 -1 
vn 2.0682311115474694e-13 4.2775797696334704e-26 -1 
vn 2.0682311115474694e-13 4.2775797696334704e-26 -1 
vn -2.0682311115474694e-13 0 -1 
vn -2.0682311115474694e-13 0 -1 
vn -2.0682311115474694e-13 0 -1 
vn 0.999997615814209 0 0.002184694167226553 
vn 0.999997615814209 0 0.002184694167226553 
vn 0.999997615814209 0 0.002184694167226553 
vn 0.999997615814209 0 0.002184694167226553 
vn 0.999997615814209 0 0.002184694167226553 
vn -2.0682311115474694e-13 0 -1 
vn -2.0682311115474694e-13 0 -1 
vn -2.0682311115474694e-13 0 -1 
vn -2.0682311115474694e-13 0 -1 
vn -2.0682311115474694e-13 0 -1 
vn -2.0682311115474694e-13 0 -1 
vn -2.0682311115474694e-13 0 -1 
vn -2.0682311115474694e-13 0 -1 
vn -2.0682311115474694e-13 0 -1 
vn -2.0682311115474694e-13 0 -1 
vn -2.0682311115474694e-13 0 -1 
vn -2.0682311115474694e-13 0 -1 
vn -1.0341130485562108e-13 0.999997615814209 0.002184694167226553 
vn -1.0341130485562108e-13 0.999997615814209 0.002184694167226553 
vn -1.0341130485562108e-13 0.999997615814209 0.002184694167226553 
vn -1.0341130485562108e-13 0.999997615814209 0.002184694167226553 
vn -1.0341130485562108e-13 0.999997615814209 0.002184694167226553 
vn -0.999997615814209 -2.0682260971124217e-13 0.002184694167226553 
vn -0.999997615814209 -2.0682260971124217e-13 0.002184694167226553 
vn -0.999997615814209 -2.0682260971124217e-13 0.002184694167226553 
vn 0 0 1 
vn 0 0 1 
vn 0 0 1 
vn 0 0 1 
vn 3.097898456858039e-13 -0.999997615814209 0.002184694167226553 
vn 3.097898456858039e-13 -0.999997615814209 0.002184694167226553 
vn 3.097898456858039e-13 -0.999997615814209 0.002184694167226553 
vn 3.097898456858039e-13 -0.999997615814209 0.002184694167226553 
vn 3.097898456858039e-13 -0.999997615814209 0.002184694167226553 
vn 3.097898456858039e-13 -0.999997615814209 0.002184694167226553 
vn -2.0682311115474694e-13 0 -1 
vn -2.0682311115474694e-13 0 -1 
vn -2.0682311115474694e-13 0 -1 
vn 2.0682311115474694e-13 4.2775797696334704e-26 -1 
vn -2.0682311115474694e-13 0 -1 
vn 2.0682311115474694e-13 4.2775797696334704e-26 -1 
vn 2.0682311115474694e-13 4.2775797696334704e-26 -1 
vn 2.0682311115474694e-13 4.2775797696334704e-26 -1 
vn -2.0682311115474694e-13 0 -1 
vn 2.0682311115474694e-13 4.2775797696334704e-26 -1 
vn 2.0682311115474694e-13 4.2775797696334704e-26 -1 
vn -1.0341130485562108e-13 0.999997615814209 0.002184694167226553 
vn -1.0341130485562108e-13 0.999997615814209 0.002184694167226553 
vn -1.0341130485562108e-13 0.999997615814209 0.002184694167226553 
vn -1.0341130485562108e-13 0.999997615814209 0.002184694167226553 
vn -1.0341130485562108e-13 0.999997615814209 0.002184694167226553 
vn -1.0341130485562108e-13 0.999997615814209 0.002184694167226553 
vn -1.0341130485562108e-13 0.999997615814209 0.002184694167226553 
vn -1.0341130485562108e-13 0.999997615814209 0.002184694167226553 
vn -1.0341130485562108e-13 0.999997615814209 0.002184694167226553 
vn -1.0341130485562108e-13 0.999997615814209 0.002184694167226553 
vn -1.0341130485562108e-13 0.999997615814209 0.002184694167226553 
vn -1.0341130485562108e-13 0.999997615814209 0.002184694167226553 
vn -1.0341130485562108e-13 0.999997615814209 0.002184694167226553 
vn -1.0341130485562108e-13 0.999997615814209 0.002184694167226553 
vn -1.0341130485562108e-13 0.999997615814209 0.002184694167226553 
vn -1.0341130485562108e-13 0.999997615814209 0.002184694167226553 
vn -1.0341130485562108e-13 0.999997615814209 0.002184694167226553 
vn -1.0341130485562108e-13 0.999997615814209 0.002184694167226553 
vn -1.0341130485562108e-13 0.999997615814209 0.002184694167226553 
vn -1.0341130485562108e-13 0.999997615814209 0.002184694167226553 
vn -1.0341130485562108e-13 0.999997615814209 0.002184694167226553 
vn -1.0341130485562108e-13 0.999997615814209 0.002184694167226553 
vn -1.0341130485562108e-13 0.999997615814209 0.002184694167226553 
vn -1.0341130485562108e-13 0.999997615814209 0.002184694167226553 
vn -1.0341130485562108e-13 0.999997615814209 0.002184694167226553 
vn -1.0341130485562108e-13 0.999997615814209 0.002184694167226553 
vn -1.0341130485562108e-13 0.999997615814209 0.002184694167226553 
vn -1.0341130485562108e-13 0.999997615814209 0.002184694167226553 
vn -1.0341130485562108e-13 0.999997615814209 0.002184694167226553 
vn -1.0341130485562108e-13 0.999997615814209 0.002184694167226553 
vn -1.0341130485562108e-13 0.999997615814209 0.002184694167226553 
vn -1.0341130485562108e-13 0.999997615814209 0.002184694167226553 
vn -1.0341130485562108e-13 0.999997615814209 0.002184694167226553 
vn -1.0341130485562108e-13 0.999997615814209 0.002184694167226553 
vn -1.0341130485562108e-13 0.999997615814209 0.002184694167226553 
vn -1.0341130485562108e-13 0.999997615814209 0.002184694167226553 
vn -1.0341130485562108e-13 0.999997615814209 0.002184694167226553 
vn -1.0341130485562108e-13 0.999997615814209 0.002184694167226553 
vn -1.0341130485562108e-13 0.999997615814209 0.002184694167226553 
vn -1.0341130485562108e-13 0.999997615814209 0.002184694167226553 
vn 3.097898456858039e-13 -0.999997615814209 0.002184694167226553 
vn -2.0682311115474694e-13 0 -1 
vn 0 0 1 
vn 0.999997615814209 0 0.002184694167226553 
vn 3.097898456858039e-13 -0.999997615814209 0.002184694167226553 
vn -1.0341130485562108e-13 0.999997615814209 0.002184694167226553 
vn -2.0682311115474694e-13 0 -1 
vn 3.097898456858039e-13 -0.999997615814209 0.002184694167226553 
vn 0.999997615814209 0 0.002184694167226553 
vn 0 0 1 
vn 0.999997615814209 0 0.002184694167226553 
vn 3.097898456858039e-13 -0.999997615814209 0.002184694167226553 
vt 0.7486550807952881 0.7819605469703674 
vt 0.7486550807952881 0.8115144968032837 
vt 0.7089348435401917 0.782561182975769 
vt 0.7089348435401917 0.8115144968032837 
vt 0.7089348435401917 0.840587854385376 
vt 0.7486550807952881 0.8411885499954224 
vt 0.741982102394104 0.7802785634994507 
vt 0.7395988702774048 0.7802785634994507 
vt 0.741982102394104 0.7775154113769531 
vt 0.7395988702774048 0.7775154113769531 
vt 0.7395988702774048 0.7486823201179504 
vt 0.7270472645759583 0.7486823201179504 
vt 0.7395988702774048 0.719849169254303 
vt 0.7270472645759583 0.719849169254303 
vt 0.7395988702774048 0.7170860171318054 
vt 0.7270472645759583 0.7170860171318054 
vt 0.7270472645759583 0.7775154113769531 
vt 0.7270472645759583 0.7802785634994507 
vt 0.8247591257095337 0.7802785634994507 
vt 0.8222169876098633 0.7802785634994507 
vt 0.8247591257095337 0.7775154113769531 
vt 0.8222169876098633 0.7775154113769531 
vt 0.8222169876098633 0.7486823201179504 
vt 0.8098242878913879 0.7486823201179504 
vt 0.8222169876098633 0.719849169254303 
vt 0.8098242878913879 0.719849169254303 
vt 0.8222169876098633 0.7170860171318054 
vt 0.8098242878913879 0.7170860171318054 
vt 0.8098242878913879 0.7775154113769531 
vt 0.8098242878913879 0.7802785634994507 
vt 0.8422359824180603 0.7170860171318054 
vt 0.8422359824180603 0.719849169254303 
vt 0.8398528099060059 0.7170860171318054 
vt 0.8409649729728699 0.7186477780342102 
vt 0.8273012042045593 0.7170860171318054 
vt 0.828731119632721 0.7186477780342102 
vt 0.8273012042045593 0.719008207321167 
vt 0.8273012042045593 0.7486823201179504 
vt 0.828731119632721 0.7486823201179504 
vt 0.828731119632721 0.7787168025970459 
vt 0.8273012042045593 0.7783563733100891 
vt 0.8273012042045593 0.7802785634994507 
vt 0.8409649729728699 0.7787168025970459 
vt 0.8398528099060059 0.7802785634994507 
vt 0.8422359824180603 0.7775154113769531 
vt 0.8422359824180603 0.7486823201179504 
vt 0.8409649729728699 0.7486823201179504 
vt 0.741982102394104 0.7486823201179504 
vt 0.741982102394104 0.719849169254303 
vt 0.741982102394104 0.7170860171318054 
vt 0.6843082904815674 0.7802785634994507 
vt 0.6464946269989014 0.7802785634994507 
vt 0.6843082904815674 0.7502440810203552 
vt 0.6464946269989014 0.7502440810203552 
vt 0.6464946269989014 0.7202095985412598 
vt 0.6558685898780823 0.7819605469703674 
vt 0.6558685898780823 0.8117547631263733 
vt 0.6439525485038757 0.7819605469703674 
vt 0.6439525485038757 0.8117547631263733 
vt 0.6439525485038757 0.8416690826416016 
vt 0.6558685898780823 0.8416690826416016 
vt 0.686850368976593 0.7802785634994507 
vt 0.686850368976593 0.7502440810203552 
vt 0.7245051860809326 0.7802785634994507 
vt 0.7245051860809326 0.7502440810203552 
vt 0.7245051860809326 0.7202095985412598 
vt 0.686850368976593 0.7202095985412598 
vt 0.6062977313995361 0.7802785634994507 
vt 0.6062977313995361 0.7502440810203552 
vt 0.6439525485038757 0.7802785634994507 
vt 0.6439525485038757 0.7502440810203552 
vt 0.6439525485038757 0.7202095985412598 
vt 0.6062977313995361 0.7202095985412598 
vt 0.8095065355300903 0.9243240356445312 
vt 0.8217403292655945 0.9243240356445312 
vt 0.8095065355300903 0.9620473980903625 
vt 0.8217403292655945 0.9620473980903625 
vt 0.7923473715782166 0.9620473980903625 
vt 0.7801135182380676 0.9620473980903625 
vt 0.7923473715782166 0.9243240356445312 
vt 0.7801135182380676 0.9243240356445312 
vt 0.870516836643219 0.9226421117782593 
vt 0.8679747581481934 0.9226421117782593 
vt 0.870516836643219 0.9198789596557617 
vt 0.8679747581481934 0.9198789596557617 
vt 0.8679747581481934 0.8802334070205688 
vt 0.8555819988250732 0.8802334070205688 
vt 0.8555819988250732 0.8774702548980713 
vt 0.8679747581481934 0.8774702548980713 
vt 0.870516836643219 0.8802334070205688 
vt 0.777571439743042 0.9252851605415344 
vt 0.777571439743042 0.963008463382721 
vt 0.7653375864028931 0.9252851605415344 
vt 0.7653375864028931 0.963008463382721 
vt 0.6183726787567139 0.8420295119285583 
vt 0.5805590152740479 0.8420295119285583 
vt 0.6183726787567139 0.8119950294494629 
vt 0.5805590152740479 0.8119950294494629 
vt 0.5805590152740479 0.7819605469703674 
vt 0.7596178650856018 0.7170860171318054 
vt 0.7596178650856018 0.719849169254303 
vt 0.7570757865905762 0.7170860171318054 
vt 0.7583468556404114 0.7186477780342102 
vt 0.7445241808891296 0.7170860171318054 
vt 0.7461130023002625 0.7186477780342102 
vt 0.7445241808891296 0.719008207321167 
vt 0.7445241808891296 0.7486823201179504 
vt 0.7461130023002625 0.7486823201179504 
vt 0.7461130023002625 0.7787168025970459 
vt 0.7445241808891296 0.7783563733100891 
vt 0.7445241808891296 0.7802785634994507 
vt 0.7583468556404114 0.7787168025970459 
vt 0.7570757865905762 0.7802785634994507 
vt 0.7596178650856018 0.7775154113769531 
vt 0.7596178650856018 0.7486823201179504 
vt 0.7583468556404114 0.7486823201179504 
vt 0.6368028521537781 0.8416690826416016 
vt 0.6360084414482117 0.8416690826416016 
vt 0.6368028521537781 0.8117547631263733 
vt 0.6360084414482117 0.8117547631263733 
vt 0.6360084414482117 0.7819605469703674 
vt 0.8555819988250732 0.9226421117782593 
vt 0.8555819988250732 0.9198789596557617 
vt 0.9057884216308594 0.902458906173706 
vt 0.9057884216308594 0.9052221179008484 
vt 0.903246283531189 0.902458906173706 
vt 0.903246283531189 0.9052221179008484 
vt 0.8908535838127136 0.902458906173706 
vt 0.8908535838127136 0.9052221179008484 
vt 0.9057884216308594 0.9448676705360413 
vt 0.903246283531189 0.9448676705360413 
vt 0.8908535838127136 0.9448676705360413 
vt 0.903246283531189 0.9476308226585388 
vt 0.8908535838127136 0.9476308226585388 
vt 0.7594590187072754 0.9478710889816284 
vt 0.758664608001709 0.9478710889816284 
vt 0.7594590187072754 0.9360975623130798 
vt 0.758664608001709 0.9360975623130798 
vt 0.6399804949760437 0.8416690826416016 
vt 0.6399804949760437 0.8117547631263733 
vt 0.6407749056816101 0.8416690826416016 
vt 0.6407749056816101 0.8117547631263733 
vt 0.6407749056816101 0.7819605469703674 
vt 0.6399804949760437 0.7819605469703674 
vt 0.6592050790786743 0.8416690826416016 
vt 0.6584106683731079 0.8416690826416016 
vt 0.6592050790786743 0.8117547631263733 
vt 0.6584106683731079 0.8117547631263733 
vt 0.6584106683731079 0.7819605469703674 
vt 0.8732178211212158 0.9226421117782593 
vt 0.8732178211212158 0.9198789596557617 
vt 0.8756009936332703 0.9226421117782593 
vt 0.8756009936332703 0.9198789596557617 
vt 0.8881525993347168 0.9226421117782593 
vt 0.8881525993347168 0.9198789596557617 
vt 0.8756009936332703 0.8802334070205688 
vt 0.8881525993347168 0.8802334070205688 
vt 0.8732178211212158 0.8802334070205688 
vt 0.8756009936332703 0.8774702548980713 
vt 0.8881525993347168 0.8774702548980713 
vt 0.6333075165748596 0.8416690826416016 
vt 0.6215503215789795 0.8416690826416016 
vt 0.6333075165748596 0.8117547631263733 
vt 0.6215503215789795 0.8117547631263733 
vt 0.6215503215789795 0.7819605469703674 
vt 0.8069643974304199 0.9243240356445312 
vt 0.8069643974304199 0.9620473980903625 
vt 0.7948894500732422 0.9243240356445312 
vt 0.7948894500732422 0.9620473980903625 
vt 0.7561225295066833 0.9360975623130798 
vt 0.7561225295066833 0.9478710889816284 
vt 0.7553281188011169 0.9360975623130798 
vt 0.7553281188011169 0.9478710889816284 
vt 0.762001097202301 0.9478710889816284 
vt 0.762001097202301 0.9360975623130798 
vt 0.7627955079078674 0.9478710889816284 
vt 0.7627955079078674 0.9360975623130798 
vt 0.6623827219009399 0.7819605469703674 
vt 0.6631771326065063 0.7819605469703674 
vt 0.6623827219009399 0.8117547631263733 
vt 0.6631771326065063 0.8117547631263733 
vt 0.6631771326065063 0.8416690826416016 
vt 0.8247591257095337 0.7486823201179504 
vt 0.8247591257095337 0.719849169254303 
vt 0.8247591257095337 0.7170860171318054 
vt 0.7519915699958801 0.9383801817893982 
vt 0.7527859807014465 0.9383801817893982 
vt 0.7519915699958801 0.9501537084579468 
vt 0.7527859807014465 0.9501537084579468 
vt 0.7060750126838684 0.7819605469703674 
vt 0.7060750126838684 0.8115144968032837 
vt 0.6663547158241272 0.782561182975769 
vt 0.6663547158241272 0.8115144968032837 
vt 0.6663547158241272 0.840587854385376 
vt 0.7060750126838684 0.8411885499954224 
vt 0.8379462361335754 0.8774702548980713 
vt 0.8403294086456299 0.8774702548980713 
vt 0.8379462361335754 0.8802334070205688 
vt 0.8403294086456299 0.8802334070205688 
vt 0.8379462361335754 0.9198789596557617 
vt 0.8403294086456299 0.9198789596557617 
vt 0.8403294086456299 0.9226421117782593 
vt 0.8528810143470764 0.9226421117782593 
vt 0.8528810143470764 0.8774702548980713 
vt 0.8528810143470764 0.8802334070205688 
vt 0.8528810143470764 0.9198789596557617 
vt 0.8072822093963623 0.7802785634994507 
vt 0.8045812249183655 0.7802785634994507 
vt 0.8045812249183655 0.7775154113769531 
vt 0.764860987663269 0.7775154113769531 
vt 0.764860987663269 0.7486823201179504 
vt 0.7621600031852722 0.7775154113769531 
vt 0.7621600031852722 0.7486823201179504 
vt 0.764860987663269 0.7802785634994507 
vt 0.7621600031852722 0.7802785634994507 
vt 0.8072822093963623 0.7775154113769531 
vt 0.8045812249183655 0.7486823201179504 
vt 0.8072822093963623 0.7486823201179504 
vt 0.8072822093963623 0.719849169254303 
vt 0.8045812249183655 0.719849169254303 
vt 0.8072822093963623 0.7170860171318054 
vt 0.764860987663269 0.719849169254303 
vt 0.8045812249183655 0.7170860171318054 
vt 0.7621600031852722 0.719849169254303 
vt 0.7621600031852722 0.7170860171318054 
vt 0.764860987663269 0.7170860171318054 
vt 0.8899003267288208 0.7775154113769531 
vt 0.8899003267288208 0.7802785634994507 
vt 0.887199342250824 0.7775154113769531 
vt 0.887199342250824 0.7802785634994507 
vt 0.8474791049957275 0.7775154113769531 
vt 0.8474791049957275 0.7802785634994507 
vt 0.8447781205177307 0.7802785634994507 
vt 0.8447781205177307 0.7775154113769531 
vt 0.8474791049957275 0.7486823201179504 
vt 0.887199342250824 0.7486823201179504 
vt 0.8899003267288208 0.7486823201179504 
vt 0.887199342250824 0.719849169254303 
vt 0.8899003267288208 0.719849169254303 
vt 0.8474791049957275 0.719849169254303 
vt 0.887199342250824 0.7170860171318054 
vt 0.8899003267288208 0.7170860171318054 
vt 0.8447781205177307 0.719849169254303 
vt 0.8447781205177307 0.7170860171318054 
vt 0.8474791049957275 0.7170860171318054 
vt 0.8447781205177307 0.7486823201179504 
vt 0.6183726787567139 0.7819605469703674 
vt 0.8732178211212158 0.8774702548980713 
vt 0.9057884216308594 0.9476308226585388 
vt 0.7596178650856018 0.7802785634994507 
vt 0.6592050790786743 0.7819605469703674 
vt 0.6623827219009399 0.8416690826416016 
vt 0.8379462361335754 0.9226421117782593 
vt 0.6843082904815674 0.7202095985412598 
vt 0.8422359824180603 0.7802785634994507 
vt 0.870516836643219 0.8774702548980713 
vt 0.6333075165748596 0.7819605469703674 
vt 0.6368028521537781 0.7819605469703674 
s on 
f 1/1/1 2/2/2 3/3/3 
f 2/2/2 4/4/4 3/3/3 
f 3/3/3 4/4/4 4/4/4 
f 4/4/4 2/2/2 4/4/4 
f 4/4/4 2/2/2 5/5/5 
f 2/2/2 6/6/6 5/5/5 
f 5/5/5 6/6/6 6/6/6 
f 6/6/6 7/7/7 6/6/6 
f 6/6/6 7/7/7 7/7/7 
f 7/7/7 8/8/8 7/7/7 
f 7/7/7 8/8/8 9/9/9 
f 8/8/8 10/10/10 9/9/9 
f 9/9/9 10/10/10 11/11/11 
f 10/10/10 12/12/12 11/11/11 
f 11/11/11 12/12/12 13/13/13 
f 12/12/12 14/14/14 13/13/13 
f 13/13/13 14/14/14 15/15/15 
f 14/14/14 16/16/16 15/15/15 
f 15/15/15 16/16/16 16/16/16 
f 16/16/16 12/12/12 16/16/16 
f 16/16/16 12/12/12 12/12/12 
f 12/12/12 10/10/10 12/12/12 
f 12/12/12 10/10/10 17/17/17 
f 10/10/10 8/8/8 17/17/17 
f 17/17/17 8/8/8 18/18/18 
f 8/8/8 18/18/18 18/18/18 
f 18/18/18 18/18/18 19/19/19 
f 18/18/18 19/19/19 19/19/19 
f 19/19/19 19/19/19 19/19/19 
f 19/19/19 20/20/20 19/19/19 
f 19/19/19 20/20/20 21/21/21 
f 20/20/20 22/22/22 21/21/21 
f 21/21/21 22/22/22 23/23/23 
f 22/22/22 24/24/24 23/23/23 
f 23/23/23 24/24/24 25/25/25 
f 24/24/24 26/26/26 25/25/25 
f 25/25/25 26/26/26 27/27/27 
f 26/26/26 28/28/28 27/27/27 
f 27/27/27 28/28/28 28/28/28 
f 28/28/28 24/24/24 28/28/28 
f 28/28/28 24/24/24 24/24/24 
f 24/24/24 22/22/22 24/24/24 
f 24/24/24 22/22/22 29/29/29 
f 22/22/22 20/20/20 29/29/29 
f 29/29/29 20/20/20 30/30/30 
f 20/20/20 30/30/30 30/30/30 
f 30/30/30 30/30/30 31/31/31 
f 30/30/30 31/31/31 31/31/31 
f 31/31/31 31/31/31 31/31/31 
f 31/31/31 32/32/32 31/31/31 
f 31/31/31 32/32/32 33/33/33 
f 32/32/32 34/34/34 33/33/33 
f 33/33/33 34/34/34 35/35/35 
f 34/34/34 36/36/36 35/35/35 
f 35/35/35 36/36/36 37/37/37 
f 36/36/36 38/38/38 37/37/37 
f 37/37/37 38/38/38 38/38/38 
f 38/38/38 36/36/36 38/38/38 
f 38/38/38 36/36/36 36/36/36 
f 36/36/36 39/39/39 36/36/36 
f 36/36/36 39/39/39 38/38/38 
f 39/39/39 40/40/40 38/38/38 
f 38/38/38 40/40/40 41/41/41 
f 40/40/40 42/42/42 41/41/41 
f 41/41/41 42/42/42 42/42/42 
f 42/42/42 40/40/40 42/42/42 
f 42/42/42 40/40/40 40/40/40 
f 40/40/40 43/43/43 40/40/40 
f 40/40/40 43/43/43 42/42/42 
f 43/43/43 44/44/44 42/42/42 
f 42/42/42 44/44/44 44/44/44 
f 44/44/44 43/43/43 44/44/44 
f 44/44/44 43/43/43 45/45/45 
f 43/43/43 46/46/46 45/45/45 
f 45/45/45 46/46/46 46/46/46 
f 46/46/46 43/43/43 46/46/46 
f 46/46/46 43/43/43 43/43/43 
f 43/43/43 47/47/47 43/43/43 
f 43/43/43 47/47/47 46/46/46 
f 47/47/47 34/34/34 46/46/46 
f 46/46/46 34/34/34 32/32/32 
f 34/34/34 32/32/32 32/32/32 
f 32/32/32 32/32/32 9/9/9 
f 32/32/32 9/9/9 9/9/9 
f 9/9/9 9/9/9 9/9/9 
f 9/9/9 11/11/11 9/9/9 
f 9/9/9 11/11/11 48/48/48 
f 11/11/11 49/49/49 48/48/48 
f 48/48/48 49/49/49 49/49/49 
f 49/49/49 11/11/11 49/49/49 
f 49/49/49 11/11/11 11/11/11 
f 11/11/11 13/13/13 11/11/11 
f 11/11/11 13/13/13 49/49/49 
f 13/13/13 15/15/15 49/49/49 
f 49/49/49 15/15/15 50/50/50 
f 15/15/15 50/50/50 50/50/50 
f 50/50/50 50/50/50 51/51/51 
f 50/50/50 51/51/51 51/51/51 
f 51/51/51 51/51/51 51/51/51 
f 51/51/51 52/52/52 51/51/51 
f 51/51/51 52/52/52 53/53/53 
f 52/52/52 54/54/54 53/53/53 
f 53/53/53 54/54/54 55/55/55 
f 54/54/54 55/55/55 55/55/55 
f 55/55/55 55/55/55 56/56/56 
f 55/55/55 56/56/56 56/56/56 
f 56/56/56 56/56/56 56/56/56 
f 56/56/56 57/57/57 56/56/56 
f 56/56/56 57/57/57 58/58/58 
f 57/57/57 59/59/59 58/58/58 
f 58/58/58 59/59/59 59/59/59 
f 59/59/59 57/57/57 59/59/59 
f 59/59/59 57/57/57 60/60/60 
f 57/57/57 61/61/61 60/60/60 
f 60/60/60 61/61/61 61/61/61 
f 61/61/61 62/62/62 61/61/61 
f 61/61/61 62/62/62 62/62/62 
f 62/62/62 63/63/63 62/62/62 
f 62/62/62 63/63/63 64/64/64 
f 63/63/63 65/65/65 64/64/64 
f 64/64/64 65/65/65 65/65/65 
f 65/65/65 63/63/63 65/65/65 
f 65/65/65 63/63/63 66/66/66 
f 63/63/63 67/67/67 66/66/66 
f 66/66/66 67/67/67 67/67/67 
f 67/67/67 68/68/68 67/67/67 
f 67/67/67 68/68/68 68/68/68 
f 68/68/68 69/69/69 68/68/68 
f 68/68/68 69/69/69 70/70/70 
f 69/69/69 71/71/71 70/70/70 
f 70/70/70 71/71/71 71/71/71 
f 71/71/71 69/69/69 71/71/71 
f 71/71/71 69/69/69 72/72/72 
f 69/69/69 73/73/73 72/72/72 
f 72/72/72 73/73/73 73/73/73 
f 73/73/73 74/74/74 73/73/73 
f 73/73/73 74/74/74 74/74/74 
f 74/74/74 75/75/75 74/74/74 
f 74/74/74 75/75/75 76/76/76 
f 75/75/75 77/77/77 76/76/76 
f 76/76/76 77/77/77 77/77/77 
f 77/77/77 78/78/78 77/77/77 
f 77/77/77 78/78/78 78/78/78 
f 78/78/78 79/79/79 78/78/78 
f 78/78/78 79/79/79 80/80/80 
f 79/79/79 81/81/81 80/80/80 
f 80/80/80 81/81/81 81/81/81 
f 81/81/81 82/82/82 81/81/81 
f 81/81/81 82/82/82 82/82/82 
f 82/82/82 83/83/83 82/82/82 
f 82/82/82 83/83/83 84/84/84 
f 83/83/83 85/85/85 84/84/84 
f 84/84/84 85/85/85 86/86/86 
f 85/85/85 87/87/87 86/86/86 
f 86/86/86 87/87/87 88/88/88 
f 87/87/87 88/88/88 88/88/88 
f 88/88/88 88/88/88 88/88/88 
f 88/88/88 89/89/89 88/88/88 
f 88/88/88 89/89/89 86/86/86 
f 89/89/89 90/90/90 86/86/86 
f 86/86/86 90/90/90 84/84/84 
f 90/90/90 84/84/84 84/84/84 
f 84/84/84 84/84/84 91/91/91 
f 84/84/84 91/91/91 91/91/91 
f 91/91/91 91/91/91 91/91/91 
f 91/91/91 92/92/92 91/91/91 
f 91/91/91 92/92/92 93/93/93 
f 92/92/92 94/94/94 93/93/93 
f 93/93/93 94/94/94 94/94/94 
f 94/94/94 95/95/95 94/94/94 
f 94/94/94 95/95/95 95/95/95 
f 95/95/95 96/96/96 95/95/95 
f 95/95/95 96/96/96 97/97/97 
f 96/96/96 98/98/98 97/97/97 
f 97/97/97 98/98/98 99/99/99 
f 98/98/98 99/99/99 99/99/99 
f 99/99/99 99/99/99 100/100/100 
f 99/99/99 100/100/100 100/100/100 
f 100/100/100 100/100/100 100/100/100 
f 100/100/100 101/101/101 100/100/100 
f 100/100/100 101/101/101 102/102/102 
f 101/101/101 103/103/103 102/102/102 
f 102/102/102 103/103/103 104/104/104 
f 103/103/103 105/105/105 104/104/104 
f 104/104/104 105/105/105 106/106/106 
f 105/105/105 107/107/107 106/106/106 
f 106/106/106 107/107/107 107/107/107 
f 107/107/107 105/105/105 107/107/107 
f 107/107/107 105/105/105 105/105/105 
f 105/105/105 108/108/108 105/105/105 
f 105/105/105 108/108/108 107/107/107 
f 108/108/108 109/109/109 107/107/107 
f 107/107/107 109/109/109 110/110/110 
f 109/109/109 111/111/111 110/110/110 
f 110/110/110 111/111/111 111/111/111 
f 111/111/111 109/109/109 111/111/111 
f 111/111/111 109/109/109 109/109/109 
f 109/109/109 112/112/112 109/109/109 
f 109/109/109 112/112/112 111/111/111 
f 112/112/112 113/113/113 111/111/111 
f 111/111/111 113/113/113 113/113/113 
f 113/113/113 112/112/112 113/113/113 
f 113/113/113 112/112/112 114/114/114 
f 112/112/112 115/115/115 114/114/114 
f 114/114/114 115/115/115 115/115/115 
f 115/115/115 112/112/112 115/115/115 
f 115/115/115 112/112/112 112/112/112 
f 112/112/112 116/116/116 112/112/112 
f 112/112/112 116/116/116 115/115/115 
f 116/116/116 103/103/103 115/115/115 
f 115/115/115 103/103/103 101/101/101 
f 103/103/103 101/101/101 101/101/101 
f 101/101/101 101/101/101 117/117/117 
f 101/101/101 117/117/117 117/117/117 
f 117/117/117 117/117/117 117/117/117 
f 117/117/117 118/118/118 117/117/117 
f 117/117/117 118/118/118 119/119/119 
f 118/118/118 120/120/120 119/119/119 
f 119/119/119 120/120/120 121/121/121 
f 120/120/120 121/121/121 121/121/121 
f 121/121/121 121/121/121 83/83/83 
f 121/121/121 83/83/83 83/83/83 
f 83/83/83 83/83/83 83/83/83 
f 83/83/83 122/122/122 83/83/83 
f 83/83/83 122/122/122 85/85/85 
f 122/122/122 123/123/123 85/85/85 
f 85/85/85 123/123/123 87/87/87 
f 123/123/123 87/87/87 87/87/87 
f 87/87/87 87/87/87 124/124/124 
f 87/87/87 124/124/124 124/124/124 
f 124/124/124 124/124/124 124/124/124 
f 124/124/124 125/125/125 124/124/124 
f 124/124/124 125/125/125 126/126/126 
f 125/125/125 127/127/127 126/126/126 
f 126/126/126 127/127/127 128/128/128 
f 127/127/127 129/129/129 128/128/128 
f 128/128/128 129/129/129 129/129/129 
f 129/129/129 125/125/125 129/129/129 
f 129/129/129 125/125/125 125/125/125 
f 125/125/125 130/130/130 125/125/125 
f 125/125/125 130/130/130 127/127/127 
f 130/130/130 131/131/131 127/127/127 
f 127/127/127 131/131/131 129/129/129 
f 131/131/131 132/132/132 129/129/129 
f 129/129/129 132/132/132 132/132/132 
f 132/132/132 130/130/130 132/132/132 
f 132/132/132 130/130/130 130/130/130 
f 130/130/130 133/133/133 130/130/130 
f 130/130/130 133/133/133 131/131/131 
f 133/133/133 134/134/134 131/131/131 
f 131/131/131 134/134/134 132/132/132 
f 134/134/134 132/132/132 132/132/132 
f 132/132/132 132/132/132 135/135/135 
f 132/132/132 135/135/135 135/135/135 
f 135/135/135 135/135/135 135/135/135 
f 135/135/135 136/136/136 135/135/135 
f 135/135/135 136/136/136 137/137/137 
f 136/136/136 138/138/138 137/137/137 
f 137/137/137 138/138/138 138/138/138 
f 138/138/138 139/139/139 138/138/138 
f 138/138/138 139/139/139 139/139/139 
f 139/139/139 140/140/140 139/139/139 
f 139/139/139 140/140/140 141/141/141 
f 140/140/140 142/142/142 141/141/141 
f 141/141/141 142/142/142 142/142/142 
f 142/142/142 140/140/140 142/142/142 
f 142/142/142 140/140/140 143/143/143 
f 140/140/140 144/144/144 143/143/143 
f 143/143/143 144/144/144 144/144/144 
f 144/144/144 145/145/145 144/144/144 
f 144/144/144 145/145/145 145/145/145 
f 145/145/145 146/146/146 145/145/145 
f 145/145/145 146/146/146 147/147/147 
f 146/146/146 148/148/148 147/147/147 
f 147/147/147 148/148/148 149/149/149 
f 148/148/148 149/149/149 149/149/149 
f 149/149/149 149/149/149 150/150/150 
f 149/149/149 150/150/150 150/150/150 
f 150/150/150 150/150/150 150/150/150 
f 150/150/150 151/151/151 150/150/150 
f 150/150/150 151/151/151 152/152/152 
f 151/151/151 153/153/153 152/152/152 
f 152/152/152 153/153/153 154/154/154 
f 153/153/153 155/155/155 154/154/154 
f 154/154/154 155/155/155 155/155/155 
f 155/155/155 151/151/151 155/155/155 
f 155/155/155 151/151/151 151/151/151 
f 151/151/151 156/156/156 151/151/151 
f 151/151/151 156/156/156 153/153/153 
f 156/156/156 157/157/157 153/153/153 
f 153/153/153 157/157/157 155/155/155 
f 157/157/157 155/155/155 155/155/155 
f 155/155/155 155/155/155 151/151/151 
f 155/155/155 151/151/151 151/151/151 
f 151/151/151 151/151/151 151/151/151 
f 151/151/151 158/158/158 151/151/151 
f 151/151/151 158/158/158 156/156/156 
f 158/158/158 159/159/159 156/156/156 
f 156/156/156 159/159/159 160/160/160 
f 159/159/159 160/160/160 160/160/160 
f 160/160/160 160/160/160 161/161/161 
f 160/160/160 161/161/161 161/161/161 
f 161/161/161 161/161/161 161/161/161 
f 161/161/161 162/162/162 161/161/161 
f 161/161/161 162/162/162 163/163/163 
f 162/162/162 164/164/164 163/163/163 
f 163/163/163 164/164/164 165/165/165 
f 164/164/164 165/165/165 165/165/165 
f 165/165/165 165/165/165 166/166/166 
f 165/165/165 166/166/166 166/166/166 
f 166/166/166 166/166/166 166/166/166 
f 166/166/166 167/167/167 166/166/166 
f 166/166/166 167/167/167 168/168/168 
f 167/167/167 169/169/169 168/168/168 
f 168/168/168 169/169/169 169/169/169 
f 169/169/169 170/170/170 169/169/169 
f 169/169/169 170/170/170 170/170/170 
f 170/170/170 171/171/171 170/170/170 
f 170/170/170 171/171/171 172/172/172 
f 171/171/171 173/173/173 172/172/172 
f 172/172/172 173/173/173 173/173/173 
f 173/173/173 174/174/174 173/173/173 
f 173/173/173 174/174/174 174/174/174 
f 174/174/174 175/175/175 174/174/174 
f 174/174/174 175/175/175 176/176/176 
f 175/175/175 177/177/177 176/176/176 
f 176/176/176 177/177/177 177/177/177 
f 177/177/177 178/178/178 177/177/177 
f 177/177/177 178/178/178 178/178/178 
f 178/178/178 179/179/179 178/178/178 
f 178/178/178 179/179/179 180/180/180 
f 179/179/179 181/181/181 180/180/180 
f 180/180/180 181/181/181 182/182/182 
f 181/181/181 182/182/182 182/182/182 
f 182/182/182 182/182/182 21/21/21 
f 182/182/182 21/21/21 21/21/21 
f 21/21/21 21/21/21 21/21/21 
f 21/21/21 23/23/23 21/21/21 
f 21/21/21 23/23/23 183/183/183 
f 23/23/23 184/184/184 183/183/183 
f 183/183/183 184/184/184 184/184/184 
f 184/184/184 23/23/23 184/184/184 
f 184/184/184 23/23/23 23/23/23 
f 23/23/23 25/25/25 23/23/23 
f 23/23/23 25/25/25 184/184/184 
f 25/25/25 27/27/27 184/184/184 
f 184/184/184 27/27/27 185/185/185 
f 27/27/27 185/185/185 185/185/185 
f 185/185/185 185/185/185 186/186/186 
f 185/185/185 186/186/186 186/186/186 
f 186/186/186 186/186/186 186/186/186 
f 186/186/186 187/187/187 186/186/186 
f 186/186/186 187/187/187 188/188/188 
f 187/187/187 189/189/189 188/188/188 
f 188/188/188 189/189/189 189/189/189 
f 189/189/189 190/190/190 189/189/189 
f 189/189/189 190/190/190 190/190/190 
f 190/190/190 191/191/191 190/190/190 
f 190/190/190 191/191/191 192/192/192 
f 191/191/191 193/193/193 192/192/192 
f 192/192/192 193/193/193 193/193/193 
f 193/193/193 191/191/191 193/193/193 
f 193/193/193 191/191/191 194/194/194 
f 191/191/191 195/195/195 194/194/194 
f 194/194/194 195/195/195 195/195/195 
f 195/195/195 196/196/196 195/195/195 
f 195/195/195 196/196/196 196/196/196 
f 196/196/196 197/197/197 196/196/196 
f 196/196/196 197/197/197 198/198/198 
f 197/197/197 199/199/199 198/198/198 
f 198/198/198 199/199/199 200/200/200 
f 199/199/199 201/201/201 200/200/200 
f 200/200/200 201/201/201 202/202/202 
f 201/201/201 203/203/203 202/202/202 
f 202/202/202 203/203/203 203/203/203 
f 203/203/203 197/197/197 203/203/203 
f 203/203/203 197/197/197 197/197/197 
f 197/197/197 204/204/204 197/197/197 
f 197/197/197 204/204/204 199/199/199 
f 204/204/204 205/205/205 199/199/199 
f 199/199/199 205/205/205 201/201/201 
f 205/205/205 206/206/206 201/201/201 
f 201/201/201 206/206/206 203/203/203 
f 206/206/206 203/203/203 203/203/203 
f 203/203/203 203/203/203 207/207/207 
f 203/203/203 207/207/207 207/207/207 
f 207/207/207 207/207/207 207/207/207 
f 207/207/207 208/208/208 207/207/207 
f 207/207/207 208/208/208 209/209/209 
f 208/208/208 210/210/210 209/209/209 
f 209/209/209 210/210/210 211/211/211 
f 210/210/210 212/212/212 211/211/211 
f 211/211/211 212/212/212 213/213/213 
f 212/212/212 213/213/213 213/213/213 
f 213/213/213 213/213/213 208/208/208 
f 213/213/213 208/208/208 208/208/208 
f 208/208/208 208/208/208 208/208/208 
f 208/208/208 214/214/214 208/208/208 
f 208/208/208 214/214/214 210/210/210 
f 214/214/214 215/215/215 210/210/210 
f 210/210/210 215/215/215 212/212/212 
f 215/215/215 212/212/212 212/212/212 
f 212/212/212 212/212/212 207/207/207 
f 212/212/212 207/207/207 207/207/207 
f 207/207/207 207/207/207 207/207/207 
f 207/207/207 209/209/209 207/207/207 
f 207/207/207 209/209/209 216/216/216 
f 209/209/209 217/217/217 216/216/216 
f 216/216/216 217/217/217 218/218/218 
f 217/217/217 219/219/219 218/218/218 
f 218/218/218 219/219/219 219/219/219 
f 219/219/219 209/209/209 219/219/219 
f 219/219/219 209/209/209 209/209/209 
f 209/209/209 211/211/211 209/209/209 
f 209/209/209 211/211/211 217/217/217 
f 211/211/211 220/220/220 217/217/217 
f 217/217/217 220/220/220 219/219/219 
f 220/220/220 221/221/221 219/219/219 
f 219/219/219 221/221/221 221/221/221 
f 221/221/221 211/211/211 221/221/221 
f 221/221/221 211/211/211 211/211/211 
f 211/211/211 222/222/222 211/211/211 
f 211/211/211 222/222/222 220/220/220 
f 222/222/222 223/223/223 220/220/220 
f 220/220/220 223/223/223 221/221/221 
f 223/223/223 221/221/221 221/221/221 
f 221/221/221 221/221/221 222/222/222 
f 221/221/221 222/222/222 222/222/222 
f 222/222/222 222/222/222 222/222/222 
f 222/222/222 211/211/211 222/222/222 
f 222/222/222 211/211/211 224/224/224 
f 211/211/211 213/213/213 224/224/224 
f 224/224/224 213/213/213 213/213/213 
f 213/213/213 224/224/224 213/213/213 
f 213/213/213 224/224/224 224/224/224 
f 224/224/224 225/225/225 224/224/224 
f 224/224/224 225/225/225 222/222/222 
f 225/225/225 226/226/226 222/222/222 
f 222/222/222 226/226/226 223/223/223 
f 226/226/226 223/223/223 223/223/223 
f 223/223/223 223/223/223 227/227/227 
f 223/223/223 227/227/227 227/227/227 
f 227/227/227 227/227/227 227/227/227 
f 227/227/227 228/228/228 227/227/227 
f 227/227/227 228/228/228 229/229/229 
f 228/228/228 230/230/230 229/229/229 
f 229/229/229 230/230/230 231/231/231 
f 230/230/230 232/232/232 231/231/231 
f 231/231/231 232/232/232 233/233/233 
f 232/232/232 233/233/233 233/233/233 
f 233/233/233 233/233/233 233/233/233 
f 233/233/233 234/234/234 233/233/233 
f 233/233/233 234/234/234 231/231/231 
f 234/234/234 235/235/235 231/231/231 
f 231/231/231 235/235/235 229/229/229 
f 235/235/235 236/236/236 229/229/229 
f 229/229/229 236/236/236 227/227/227 
f 236/236/236 237/237/237 227/227/227 
f 227/227/227 237/237/237 237/237/237 
f 237/237/237 235/235/235 237/237/237 
f 237/237/237 235/235/235 235/235/235 
f 235/235/235 238/238/238 235/235/235 
f 235/235/235 238/238/238 236/236/236 
f 238/238/238 239/239/239 236/236/236 
f 236/236/236 239/239/239 237/237/237 
f 239/239/239 237/237/237 237/237/237 
f 237/237/237 237/237/237 235/235/235 
f 237/237/237 235/235/235 235/235/235 
f 235/235/235 235/235/235 235/235/235 
f 235/235/235 240/240/240 235/235/235 
f 235/235/235 240/240/240 238/238/238 
f 240/240/240 241/241/241 238/238/238 
f 238/238/238 241/241/241 242/242/242 
f 241/241/241 242/242/242 242/242/242 
f 242/242/242 242/242/242 235/235/235 
f 242/242/242 235/235/235 235/235/235 
f 235/235/235 235/235/235 235/235/235 
f 235/235/235 243/243/243 235/235/235 
f 235/235/235 243/243/243 240/240/240 
f 243/243/243 244/244/244 240/240/240 
f 240/240/240 244/244/244 245/245/245 
f 244/244/244 245/245/245 245/245/245 
f 245/245/245 245/245/245 243/243/243 
f 245/245/245 243/243/243 243/243/243 
f 243/243/243 243/243/243 243/243/243 
f 243/243/243 235/235/235 243/243/243 
f 243/243/243 235/235/235 246/246/246 
f 235/235/235 234/234/234 246/246/246 
f 97/97/97 99/99/99 247/247/247 
f 156/156/156 160/160/160 157/157/157 
f 158/158/158 248/248/248 159/159/159 
f 133/133/133 130/130/130 249/249/249 
f 113/113/113 114/114/114 250/250/250 
f 147/147/147 149/149/149 251/251/251 
f 182/182/182 252/252/252 180/180/180 
f 238/238/238 242/242/242 239/239/239 
f 202/202/202 253/253/253 200/200/200 
f 53/53/53 55/55/55 254/254/254 
f 44/44/44 45/45/45 255/255/255 
f 240/240/240 245/245/245 241/241/241 
f 90/90/90 89/89/89 256/256/256 
f 165/165/165 257/257/257 163/163/163 
f 119/119/119 121/121/121 258/258/258 

