mtllib model_43.mtl
o model_43
v 19.796043395996094 33.344932556152344 44.53603744506836 
v 19.796043395996094 11.013901710510254 44.53603744506836 
v 18.27495002746582 12.510210990905762 44.53603744506836 
v -10.625791549682617 11.013901710510254 44.53603744506836 
v -0.3690681457519531 12.510210990905762 44.53603744506836 
v 0.05270957946777344 12.510210990905762 44.53603744506836 
v -10.625791549682617 11.013901710510254 44.53603744506836 
v 0.3914794921875 12.510210990905762 44.53603744506836 
v 8.757482528686523 12.510210990905762 44.53603744506836 
v 9.191587448120117 12.510210990905762 44.53603744506836 
v 9.518028259277344 12.510210990905762 44.53603744506836 
v 18.27495002746582 12.510210990905762 44.53603744506836 
v 8.75748348236084 31.84861946105957 44.53603744506836 
v 8.75748348236084 31.84861946105957 45.14838409423828 
v 0.3914794921875 31.84861946105957 44.53603744506836 
v 0.3914794921875 31.84861946105957 45.14838409423828 
v 8.757482528686523 12.510210990905762 44.53603744506836 
v 8.757482528686523 31.84861946105957 44.53603744506836 
v 9.191587448120117 12.510210990905762 44.53603744506836 
v 9.518028259277344 31.84861946105957 44.53603744506836 
v 9.518028259277344 12.510210990905762 44.53603744506836 
v 18.27495002746582 12.510210990905762 45.14838409423828 
v 18.27495002746582 12.510210990905762 44.53603744506836 
v 9.518026351928711 12.510210990905762 45.14838409423828 
v 9.518026351928711 12.510210990905762 44.53603744506836 
v 0.3914794921875 12.510210990905762 45.14838409423828 
v 8.75748348236084 12.510210990905762 45.14838409423828 
v 0.3914794921875 12.510210990905762 44.53603744506836 
v 8.75748348236084 12.510210990905762 44.53603744506836 
v 8.757482528686523 31.848617553710938 45.14838409423828 
v 8.757482528686523 12.510210990905762 45.14838409423828 
v 9.518026351928711 31.848617553710938 45.14838409423828 
v 9.518026351928711 12.510210990905762 45.14838409423828 
v 9.518026351928711 12.510210990905762 45.14838409423828 
v 9.518026351928711 12.510210990905762 44.53603744506836 
v 9.14840316772461 12.510210990905762 45.14838409423828 
v 9.14840316772461 12.510210990905762 44.53603744506836 
v 8.75748348236084 12.510210990905762 45.14838409423828 
v 8.75748348236084 12.510210990905762 44.53603744506836 
v -0.3690681457519531 12.510210990905762 45.14838409423828 
v -0.3690681457519531 12.510210990905762 44.53603744506836 
v 0.021848678588867188 12.510210990905762 45.14838409423828 
v 0.021848678588867188 12.510210990905762 44.53603744506836 
v 0.3914794921875 12.510210990905762 44.53603744506836 
v -9.104694366455078 31.84861946105957 45.14838409423828 
v -9.104694366455078 31.84861946105957 44.53603744506836 
v -0.3690681457519531 31.84861946105957 45.14838409423828 
v -0.3690681457519531 31.84861946105957 44.53603744506836 
v -0.3690681457519531 12.510210990905762 45.14838409423828 
v -0.3690681457519531 31.84861946105957 45.14838409423828 
v -0.3690681457519531 12.510210990905762 44.53603744506836 
v -0.3690681457519531 31.84861946105957 44.53603744506836 
v -0.3690681457519531 31.848617553710938 45.14838409423828 
v -0.3690681457519531 12.510211944580078 45.14838409423828 
v 0.3914794921875 31.848617553710938 45.14838409423828 
v 0.3914794921875 12.510211944580078 45.14838409423828 
v 8.75748348236084 31.84861946105957 44.53603744506836 
v 8.75748348236084 12.510210990905762 44.53603744506836 
v 8.75748348236084 31.84861946105957 45.14838409423828 
v 8.75748348236084 12.510210990905762 45.14838409423828 
v 8.757482528686523 31.84861946105957 44.53603744506836 
v -10.625791549682617 33.344932556152344 44.53603744506836 
v 9.518028259277344 31.84861946105957 44.53603744506836 
v 18.274951934814453 31.84861946105957 44.53603744506836 
v -10.625791549682617 33.344932556152344 44.53603744506836 
v -10.625791549682617 33.344932556152344 45.14838409423828 
v 19.796043395996094 33.344932556152344 44.53603744506836 
v 19.796043395996094 33.344932556152344 45.14838409423828 
v 18.27495002746582 31.84861946105957 44.53603744506836 
v 18.27495002746582 31.84861946105957 45.14838409423828 
v 9.518026351928711 31.84861946105957 44.53603744506836 
v 9.518026351928711 31.84861946105957 45.14838409423828 
v -9.104694366455078 12.510210990905762 44.53603744506836 
v -9.104694366455078 31.84861946105957 44.53603744506836 
v -9.104694366455078 12.510210990905762 45.14838409423828 
v -9.104694366455078 31.84861946105957 45.14838409423828 
v 0.3914794921875 12.510210990905762 44.53603744506836 
v 0.05270957946777344 12.510210990905762 44.53603744506836 
v 0.3914794921875 31.84861946105957 44.53603744506836 
v -0.3690681457519531 31.84861946105957 44.53603744506836 
v -10.625791549682617 33.344932556152344 44.53603744506836 
v -9.104694366455078 31.84861946105957 44.53603744506836 
v -9.104694366455078 12.510210990905762 44.53603744506836 
v -0.3690681457519531 12.510210990905762 44.53603744506836 
v 0.3914794921875 12.510210990905762 44.53603744506836 
v 0.3914794921875 31.84861946105957 44.53603744506836 
v 0.3914794921875 12.510210990905762 45.14838409423828 
v 0.3914794921875 31.84861946105957 45.14838409423828 
v -9.104694366455078 12.510210990905762 44.53603744506836 
v -9.104694366455078 12.510210990905762 45.14838409423828 
v -0.3690681457519531 12.510210990905762 44.53603744506836 
v -0.3690681457519531 12.510210990905762 45.14838409423828 
v 9.518026351928711 12.510210990905762 44.53603744506836 
v 9.518026351928711 31.84861946105957 44.53603744506836 
v 9.518026351928711 12.510210990905762 45.14838409423828 
v 9.518026351928711 31.84861946105957 45.14838409423828 
v 19.796043395996094 11.013901710510254 44.53603744506836 
v 19.796043395996094 33.344932556152344 44.53603744506836 
v 19.796043395996094 11.013901710510254 45.14838409423828 
v 19.796043395996094 33.344932556152344 45.14838409423828 
v 18.27495002746582 12.510210990905762 45.14838409423828 
v 18.27495002746582 31.84861946105957 45.14838409423828 
v 18.27495002746582 12.510210990905762 44.53603744506836 
v 18.27495002746582 31.84861946105957 44.53603744506836 
v 18.274951934814453 31.84861946105957 44.53603744506836 
v 18.274951934814453 31.84861946105957 44.53603744506836 
v 19.796043395996094 33.344932556152344 44.53603744506836 
v 18.27495002746582 12.510210990905762 44.53603744506836 
v -10.625791549682617 33.344932556152344 44.53603744506836 
v 8.757482528686523 31.84861946105957 44.53603744506836 
v 0.3914794921875 31.84861946105957 44.53603744506836 
v 19.796043395996094 11.013901710510254 45.14838409423828 
v -10.625791549682617 11.013901710510254 45.14838409423828 
v 19.796043395996094 11.013901710510254 44.53603744506836 
v -10.625791549682617 11.013901710510254 45.14838409423828 
v -10.625791549682617 33.344932556152344 45.14838409423828 
v -10.625791549682617 33.344932556152344 44.53603744506836 
v 0.3914794921875 12.510210990905762 45.14838409423828 
v -10.625791549682617 11.013901710510254 45.14838409423828 
v -10.625791549682617 11.013901710510254 45.14838409423828 
vn -2.0682311115474694e-13 0 -1 
vn -2.0682311115474694e-13 0 -1 
vn -2.0682311115474694e-13 0 -1 
vn -2.0682311115474694e-13 0 -1 
vn -2.0682311115474694e-13 0 -1 
vn -2.0682311115474694e-13 0 -1 
vn -2.0682311115474694e-13 0 -1 
vn -2.0682311115474694e-13 0 -1 
vn -2.0682311115474694e-13 0 -1 
vn -2.0682311115474694e-13 0 -1 
vn -2.0682311115474694e-13 0 -1 
vn -2.0682311115474694e-13 0 -1 
vn 3.097898456858039e-13 -0.999997615814209 0.002184694167226553 
vn 3.097898456858039e-13 -0.999997615814209 0.002184694167226553 
vn 3.097898456858039e-13 -0.999997615814209 0.002184694167226553 
vn 3.097898456858039e-13 -0.999997615814209 0.002184694167226553 
vn -2.0682311115474694e-13 0 -1 
vn -2.0682311115474694e-13 0 -1 
vn -2.0682311115474694e-13 0 -1 
vn -2.0682311115474694e-13 0 -1 
vn -2.0682311115474694e-13 0 -1 
vn -1.0341130485562108e-13 0.999997615814209 0.002184694167226553 
vn -1.0341130485562108e-13 0.999997615814209 0.002184694167226553 
vn -1.0341130485562108e-13 0.999997615814209 0.002184694167226553 
vn -1.0341130485562108e-13 0.999997615814209 0.002184694167226553 
vn -1.0341130485562108e-13 0.999997615814209 0.002184694167226553 
vn -1.0341130485562108e-13 0.999997615814209 0.002184694167226553 
vn -1.0341130485562108e-13 0.999997615814209 0.002184694167226553 
vn -1.0341130485562108e-13 0.999997615814209 0.002184694167226553 
vn 0 0 1 
vn 0 0 1 
vn 0 0 1 
vn 0 0 1 
vn -1.0341130485562108e-13 0.999997615814209 0.002184694167226553 
vn -1.0341130485562108e-13 0.999997615814209 0.002184694167226553 
vn -1.0341130485562108e-13 0.999997615814209 0.002184694167226553 
vn -1.0341130485562108e-13 0.999997615814209 0.002184694167226553 
vn -1.0341130485562108e-13 0.999997615814209 0.002184694167226553 
vn -1.0341130485562108e-13 0.999997615814209 0.002184694167226553 
vn 3.097898456858039e-13 -0.999997615814209 0.002184694167226553 
vn 3.097898456858039e-13 -0.999997615814209 0.002184694167226553 
vn 3.097898456858039e-13 -0.999997615814209 0.002184694167226553 
vn 3.097898456858039e-13 -0.999997615814209 0.002184694167226553 
vn 3.097898456858039e-13 -0.999997615814209 0.002184694167226553 
vn 3.097898456858039e-13 -0.999997615814209 0.002184694167226553 
vn 3.097898456858039e-13 -0.999997615814209 0.002184694167226553 
vn 3.097898456858039e-13 -0.999997615814209 0.002184694167226553 
vn 3.097898456858039e-13 -0.999997615814209 0.002184694167226553 
vn -0.999997615814209 -2.0682260971124217e-13 0.002184694167226553 
vn -0.999997615814209 -2.0682260971124217e-13 0.002184694167226553 
vn -0.999997615814209 -2.0682260971124217e-13 0.002184694167226553 
vn -0.999997615814209 -2.0682260971124217e-13 0.002184694167226553 
vn 0 0 1 
vn 0 0 1 
vn 0 0 1 
vn 0 0 1 
vn -0.999997615814209 -2.0682260971124217e-13 0.002184694167226553 
vn -0.999997615814209 -2.0682260971124217e-13 0.002184694167226553 
vn -0.999997615814209 -2.0682260971124217e-13 0.002184694167226553 
vn -0.999997615814209 -2.0682260971124217e-13 0.002184694167226553 
vn -2.0682311115474694e-13 0 -1 
vn -2.0682311115474694e-13 0 -1 
vn -2.0682311115474694e-13 0 -1 
vn -2.0682311115474694e-13 0 -1 
vn -1.0341130485562108e-13 0.999997615814209 0.002184694167226553 
vn -1.0341130485562108e-13 0.999997615814209 0.002184694167226553 
vn -1.0341130485562108e-13 0.999997615814209 0.002184694167226553 
vn -1.0341130485562108e-13 0.999997615814209 0.002184694167226553 
vn 3.097898456858039e-13 -0.999997615814209 0.002184694167226553 
vn 3.097898456858039e-13 -0.999997615814209 0.002184694167226553 
vn 3.097898456858039e-13 -0.999997615814209 0.002184694167226553 
vn 3.097898456858039e-13 -0.999997615814209 0.002184694167226553 
vn 0.999997615814209 0 0.002184694167226553 
vn 0.999997615814209 0 0.002184694167226553 
vn 0.999997615814209 0 0.002184694167226553 
vn 0.999997615814209 0 0.002184694167226553 
vn -2.0682311115474694e-13 0 -1 
vn -2.0682311115474694e-13 0 -1 
vn -2.0682311115474694e-13 0 -1 
vn -2.0682311115474694e-13 0 -1 
vn -2.0682311115474694e-13 0 -1 
vn -2.0682311115474694e-13 0 -1 
vn -2.0682311115474694e-13 0 -1 
vn -2.0682311115474694e-13 0 -1 
vn 0.999997615814209 0 0.002184694167226553 
vn 0.999997615814209 0 0.002184694167226553 
vn 0.999997615814209 0 0.002184694167226553 
vn 0.999997615814209 0 0.002184694167226553 
vn -1.0341130485562108e-13 0.999997615814209 0.002184694167226553 
vn -1.0341130485562108e-13 0.999997615814209 0.002184694167226553 
vn -1.0341130485562108e-13 0.999997615814209 0.002184694167226553 
vn -1.0341130485562108e-13 0.999997615814209 0.002184694167226553 
vn 0.999997615814209 0 0.002184694167226553 
vn 0.999997615814209 0 0.002184694167226553 
vn 0.999997615814209 0 0.002184694167226553 
vn 0.999997615814209 0 0.002184694167226553 
vn 0.999997615814209 0 0.002184694167226553 
vn 0.999997615814209 0 0.002184694167226553 
vn 0.999997615814209 0 0.002184694167226553 
vn 0.999997615814209 0 0.002184694167226553 
vn -0.999997615814209 -2.0682260971124217e-13 0.002184694167226553 
vn -0.999997615814209 -2.0682260971124217e-13 0.002184694167226553 
vn -0.999997615814209 -2.0682260971124217e-13 0.002184694167226553 
vn -0.999997615814209 -2.0682260971124217e-13 0.002184694167226553 
vn -2.0682311115474694e-13 0 -1 
vn -2.0682311115474694e-13 0 -1 
vn -2.0682311115474694e-13 0 -1 
vn -2.0682311115474694e-13 0 -1 
vn -2.0682311115474694e-13 0 -1 
vn -2.0682311115474694e-13 0 -1 
vn -2.0682311115474694e-13 0 -1 
vn 3.097898456858039e-13 -0.999997615814209 0.002184694167226553 
vn 3.097898456858039e-13 -0.999997615814209 0.002184694167226553 
vn 3.097898456858039e-13 -0.999997615814209 0.002184694167226553 
vn -0.999997615814209 -2.0682260971124217e-13 0.002184694167226553 
vn -0.999997615814209 -2.0682260971124217e-13 0.002184694167226553 
vn -0.999997615814209 -2.0682260971124217e-13 0.002184694167226553 
vn 3.097898456858039e-13 -0.999997615814209 0.002184694167226553 
vn 3.097898456858039e-13 -0.999997615814209 0.002184694167226553 
vn -0.999997615814209 -2.0682260971124217e-13 0.002184694167226553 
vt 0.6326956748962402 0.379243403673172 
vt 0.733495831489563 0.379243403673172 
vt 0.7267378568649292 0.38610005378723145 
vt 0.733495831489563 0.5165708661079407 
vt 0.7267378568649292 0.4702763259410858 
vt 0.7267378568649292 0.4683311879634857 
vt 0.733495831489563 0.5165708661079407 
vt 0.7267378568649292 0.4668236970901489 
vt 0.7267378568649292 0.4290391802787781 
vt 0.7267378568649292 0.427094042301178 
vt 0.7267378568649292 0.4256351888179779 
vt 0.7267378568649292 0.38610005378723145 
vt 0.7987689971923828 0.5174461603164673 
vt 0.8021343946456909 0.5174461603164673 
vt 0.7987689971923828 0.5552306771278381 
vt 0.8021343946456909 0.5552306771278381 
vt 0.7267378568649292 0.4290391802787781 
vt 0.639453649520874 0.4290391802787781 
vt 0.7267378568649292 0.427094042301178 
vt 0.639453649520874 0.4256351888179779 
vt 0.7267378568649292 0.4256351888179779 
vt 0.812990665435791 0.5174461603164673 
vt 0.8163561224937439 0.5174461603164673 
vt 0.812990665435791 0.5569813251495361 
vt 0.8163561224937439 0.5569813251495361 
vt 0.7940194010734558 0.5552306771278381 
vt 0.7940194010734558 0.5174461603164673 
vt 0.7973847985267639 0.5552306771278381 
vt 0.7973847985267639 0.5174461603164673 
vt 0.6620618104934692 0.20758408308029175 
vt 0.6319900155067444 0.20758408308029175 
vt 0.6620618104934692 0.2064169943332672 
vt 0.6319900155067444 0.2064169943332672 
vt 0.784520149230957 0.5174461603164673 
vt 0.7879127264022827 0.5174461603164673 
vt 0.784520149230957 0.5190995335578918 
vt 0.7879127264022827 0.5190995335578918 
vt 0.784520149230957 0.5208988189697266 
vt 0.7879127264022827 0.5208988189697266 
vt 0.7926623225212097 0.5208988189697266 
vt 0.7892698049545288 0.5208988189697266 
vt 0.7926623225212097 0.5190995335578918 
vt 0.7892698049545288 0.5190995335578918 
vt 0.7892698049545288 0.5174461603164673 
vt 0.8116336464881897 0.5568840503692627 
vt 0.808241069316864 0.5568840503692627 
vt 0.8116336464881897 0.5174461603164673 
vt 0.808241069316864 0.5174461603164673 
vt 0.8353273868560791 0.5174461603164673 
vt 0.8353273868560791 0.6047346591949463 
vt 0.8319619297981262 0.5174461603164673 
vt 0.8319619297981262 0.6047346591949463 
vt 0.6620618104934692 0.22178366780281067 
vt 0.6319900155067444 0.22178366780281067 
vt 0.6620618104934692 0.22061657905578613 
vt 0.6319900155067444 0.22061657905578613 
vt 0.8414340019226074 0.6047346591949463 
vt 0.8414340019226074 0.5174461603164673 
vt 0.8448265790939331 0.6047346591949463 
vt 0.8448265790939331 0.5174461603164673 
vt 0.639453649520874 0.4290391802787781 
vt 0.6326956748962402 0.5165708661079407 
vt 0.639453649520874 0.4256351888179779 
vt 0.639453649520874 0.38610005378723145 
vt 0.7384625673294067 0.5165708661079407 
vt 0.735069990158081 0.5165708661079407 
vt 0.7384625673294067 0.379243403673172 
vt 0.735069990158081 0.379243403673172 
vt 0.817740261554718 0.5174461603164673 
vt 0.8211057186126709 0.5174461603164673 
vt 0.817740261554718 0.5569813251495361 
vt 0.8211057186126709 0.5569813251495361 
vt 0.8258553147315979 0.5174461603164673 
vt 0.8258553147315979 0.6047346591949463 
vt 0.8224627375602722 0.5174461603164673 
vt 0.8224627375602722 0.6047346591949463 
vt 0.7267378568649292 0.4668236970901489 
vt 0.7267378568649292 0.4683311879634857 
vt 0.639453649520874 0.4668236970901489 
vt 0.639453649520874 0.4702763259410858 
vt 0.6326956748962402 0.5165708661079407 
vt 0.639453649520874 0.5097141861915588 
vt 0.7267378568649292 0.5097141861915588 
vt 0.7267378568649292 0.4702763259410858 
vt 0.8305777907371521 0.5174461603164673 
vt 0.8305777907371521 0.6047346591949463 
vt 0.8272123336791992 0.5174461603164673 
vt 0.8272123336791992 0.6047346591949463 
vt 0.8068840503692627 0.5568840503692627 
vt 0.803491473197937 0.5568840503692627 
vt 0.8068840503692627 0.5174461603164673 
vt 0.803491473197937 0.5174461603164673 
vt 0.8400769829750061 0.5174461603164673 
vt 0.8400769829750061 0.6047346591949463 
vt 0.8366844058036804 0.5174461603164673 
vt 0.8366844058036804 0.6047346591949463 
vt 0.8503361344337463 0.379243403673172 
vt 0.8503361344337463 0.4800506830215454 
vt 0.8469435572624207 0.379243403673172 
vt 0.8469435572624207 0.4800506830215454 
vt 0.8495490550994873 0.5174461603164673 
vt 0.8495490550994873 0.6047346591949463 
vt 0.8461835980415344 0.5174461603164673 
vt 0.8461835980415344 0.6047346591949463 
vt 0.639453649520874 0.38610005378723145 
vt 0.639453649520874 0.38610005378723145 
vt 0.6326956748962402 0.379243403673172 
vt 0.7267378568649292 0.38610005378723145 
vt 0.6326956748962402 0.5165708661079407 
vt 0.639453649520874 0.4290391802787781 
vt 0.639453649520874 0.4668236970901489 
vt 0.7432393431663513 0.379243403673172 
vt 0.7398467659950256 0.5165708661079407 
vt 0.7398467659950256 0.379243403673172 
vt 0.8509331941604614 0.4809260070323944 
vt 0.8542986512184143 0.5817332863807678 
vt 0.8509331941604614 0.5817332863807678 
vt 0.7926623225212097 0.5174461603164673 
vt 0.7432393431663513 0.5165708661079407 
vt 0.8542986512184143 0.4809260070323944 
s on 
f 1/1/1 2/2/2 3/3/3 
f 2/2/2 4/4/4 3/3/3 
f 3/3/3 4/4/4 4/4/4 
f 4/4/4 5/5/5 4/4/4 
f 4/4/4 5/5/5 5/5/5 
f 5/5/5 6/6/6 5/5/5 
f 5/5/5 6/6/6 7/7/7 
f 6/6/6 8/8/8 7/7/7 
f 7/7/7 8/8/8 9/9/9 
f 8/8/8 9/9/9 9/9/9 
f 9/9/9 9/9/9 9/9/9 
f 9/9/9 10/10/10 9/9/9 
f 9/9/9 10/10/10 7/7/7 
f 10/10/10 11/11/11 7/7/7 
f 7/7/7 11/11/11 12/12/12 
f 11/11/11 12/12/12 12/12/12 
f 12/12/12 12/12/12 13/13/13 
f 12/12/12 13/13/13 13/13/13 
f 13/13/13 13/13/13 13/13/13 
f 13/13/13 14/14/14 13/13/13 
f 13/13/13 14/14/14 15/15/15 
f 14/14/14 16/16/16 15/15/15 
f 15/15/15 16/16/16 16/16/16 
f 16/16/16 17/17/17 16/16/16 
f 16/16/16 17/17/17 17/17/17 
f 17/17/17 18/18/18 17/17/17 
f 17/17/17 18/18/18 19/19/19 
f 18/18/18 20/20/20 19/19/19 
f 19/19/19 20/20/20 21/21/21 
f 20/20/20 21/21/21 21/21/21 
f 21/21/21 21/21/21 22/22/22 
f 21/21/21 22/22/22 22/22/22 
f 22/22/22 22/22/22 22/22/22 
f 22/22/22 23/23/23 22/22/22 
f 22/22/22 23/23/23 24/24/24 
f 23/23/23 25/25/25 24/24/24 
f 24/24/24 25/25/25 25/25/25 
f 25/25/25 26/26/26 25/25/25 
f 25/25/25 26/26/26 26/26/26 
f 26/26/26 27/27/27 26/26/26 
f 26/26/26 27/27/27 28/28/28 
f 27/27/27 29/29/29 28/28/28 
f 28/28/28 29/29/29 29/29/29 
f 29/29/29 30/30/30 29/29/29 
f 29/29/29 30/30/30 30/30/30 
f 30/30/30 31/31/31 30/30/30 
f 30/30/30 31/31/31 32/32/32 
f 31/31/31 33/33/33 32/32/32 
f 32/32/32 33/33/33 33/33/33 
f 33/33/33 34/34/34 33/33/33 
f 33/33/33 34/34/34 34/34/34 
f 34/34/34 35/35/35 34/34/34 
f 34/34/34 35/35/35 36/36/36 
f 35/35/35 37/37/37 36/36/36 
f 36/36/36 37/37/37 38/38/38 
f 37/37/37 39/39/39 38/38/38 
f 38/38/38 39/39/39 39/39/39 
f 39/39/39 40/40/40 39/39/39 
f 39/39/39 40/40/40 40/40/40 
f 40/40/40 41/41/41 40/40/40 
f 40/40/40 41/41/41 42/42/42 
f 41/41/41 43/43/43 42/42/42 
f 42/42/42 43/43/43 44/44/44 
f 43/43/43 44/44/44 44/44/44 
f 44/44/44 44/44/44 45/45/45 
f 44/44/44 45/45/45 45/45/45 
f 45/45/45 45/45/45 45/45/45 
f 45/45/45 46/46/46 45/45/45 
f 45/45/45 46/46/46 47/47/47 
f 46/46/46 48/48/48 47/47/47 
f 47/47/47 48/48/48 48/48/48 
f 48/48/48 49/49/49 48/48/48 
f 48/48/48 49/49/49 49/49/49 
f 49/49/49 50/50/50 49/49/49 
f 49/49/49 50/50/50 51/51/51 
f 50/50/50 52/52/52 51/51/51 
f 51/51/51 52/52/52 52/52/52 
f 52/52/52 53/53/53 52/52/52 
f 52/52/52 53/53/53 53/53/53 
f 53/53/53 54/54/54 53/53/53 
f 53/53/53 54/54/54 55/55/55 
f 54/54/54 56/56/56 55/55/55 
f 55/55/55 56/56/56 56/56/56 
f 56/56/56 57/57/57 56/56/56 
f 56/56/56 57/57/57 57/57/57 
f 57/57/57 58/58/58 57/57/57 
f 57/57/57 58/58/58 59/59/59 
f 58/58/58 60/60/60 59/59/59 
f 59/59/59 60/60/60 60/60/60 
f 60/60/60 61/61/61 60/60/60 
f 60/60/60 61/61/61 61/61/61 
f 61/61/61 62/62/62 61/61/61 
f 61/61/61 62/62/62 63/63/63 
f 62/62/62 64/64/64 63/63/63 
f 63/63/63 64/64/64 64/64/64 
f 64/64/64 65/65/65 64/64/64 
f 64/64/64 65/65/65 65/65/65 
f 65/65/65 66/66/66 65/65/65 
f 65/65/65 66/66/66 67/67/67 
f 66/66/66 68/68/68 67/67/67 
f 67/67/67 68/68/68 68/68/68 
f 68/68/68 69/69/69 68/68/68 
f 68/68/68 69/69/69 69/69/69 
f 69/69/69 70/70/70 69/69/69 
f 69/69/69 70/70/70 71/71/71 
f 70/70/70 72/72/72 71/71/71 
f 71/71/71 72/72/72 72/72/72 
f 72/72/72 73/73/73 72/72/72 
f 72/72/72 73/73/73 73/73/73 
f 73/73/73 74/74/74 73/73/73 
f 73/73/73 74/74/74 75/75/75 
f 74/74/74 76/76/76 75/75/75 
f 75/75/75 76/76/76 76/76/76 
f 76/76/76 77/77/77 76/76/76 
f 76/76/76 77/77/77 77/77/77 
f 77/77/77 78/78/78 77/77/77 
f 77/77/77 78/78/78 79/79/79 
f 78/78/78 80/80/80 79/79/79 
f 79/79/79 80/80/80 81/81/81 
f 80/80/80 82/82/82 81/81/81 
f 81/81/81 82/82/82 4/4/4 
f 82/82/82 83/83/83 4/4/4 
f 4/4/4 83/83/83 84/84/84 
f 83/83/83 84/84/84 84/84/84 
f 84/84/84 84/84/84 85/85/85 
f 84/84/84 85/85/85 85/85/85 
f 85/85/85 85/85/85 85/85/85 
f 85/85/85 86/86/86 85/85/85 
f 85/85/85 86/86/86 87/87/87 
f 86/86/86 88/88/88 87/87/87 
f 87/87/87 88/88/88 88/88/88 
f 88/88/88 89/89/89 88/88/88 
f 88/88/88 89/89/89 89/89/89 
f 89/89/89 90/90/90 89/89/89 
f 89/89/89 90/90/90 91/91/91 
f 90/90/90 92/92/92 91/91/91 
f 91/91/91 92/92/92 92/92/92 
f 92/92/92 93/93/93 92/92/92 
f 92/92/92 93/93/93 93/93/93 
f 93/93/93 94/94/94 93/93/93 
f 93/93/93 94/94/94 95/95/95 
f 94/94/94 96/96/96 95/95/95 
f 95/95/95 96/96/96 96/96/96 
f 96/96/96 97/97/97 96/96/96 
f 96/96/96 97/97/97 97/97/97 
f 97/97/97 98/98/98 97/97/97 
f 97/97/97 98/98/98 99/99/99 
f 98/98/98 100/100/100 99/99/99 
f 99/99/99 100/100/100 100/100/100 
f 100/100/100 101/101/101 100/100/100 
f 100/100/100 101/101/101 101/101/101 
f 101/101/101 102/102/102 101/101/101 
f 101/101/101 102/102/102 103/103/103 
f 102/102/102 104/104/104 103/103/103 
f 1/1/1 105/105/105 81/81/81 
f 106/106/106 107/107/107 108/108/108 
f 109/109/109 110/110/110 111/111/111 
f 80/80/80 78/78/78 84/84/84 
f 112/112/112 113/113/113 114/114/114 
f 115/115/115 116/116/116 117/117/117 
f 42/42/42 44/44/44 118/118/118 

