mtllib model_29.mtl
o model_29
v 25.05489730834961 16.56815528869629 4.478085994720459 
v 25.05489730834961 9.758379936218262 4.478085994720459 
v 24.945589065551758 16.56815528869629 4.599188804626465 
v 24.945589065551758 9.758379936218262 4.599188804626465 
v 24.807497024536133 16.56815528869629 4.754892349243164 
v 24.807497024536133 9.758379936218262 4.754892349243164 
v 24.68169593811035 16.56815528869629 4.927896499633789 
v 24.68169593811035 9.758379936218262 4.927896499633789 
v 24.57529640197754 16.56815528869629 5.118200778961182 
v 24.57529640197754 9.758379936218262 5.118200778961182 
v 24.495094299316406 16.56815528869629 5.3258056640625 
v 24.495094299316406 9.758379936218262 5.3258056640625 
v 24.44011688232422 16.56815528869629 5.533410549163818 
v 24.44011688232422 9.758379936218262 5.533410549163818 
v 24.408100128173828 16.56815528869629 5.741015434265137 
v 24.408100128173828 9.758379936218262 5.741015434265137 
v 24.392900466918945 9.758379936218262 5.896718978881836 
v 24.392900466918945 16.56815528869629 -29.517200469970703 
v 24.392900466918945 9.758379936218262 -29.517200469970703 
v 24.408100128173828 16.56815528869629 -29.361495971679688 
v 24.408100128173828 9.758379936218262 -29.361495971679688 
v 24.44011688232422 9.758379936218262 -29.153892517089844 
v 24.44011688232422 16.56815528869629 -29.153892517089844 
v 24.495094299316406 9.758379936218262 -28.946287155151367 
v 24.495094299316406 16.56815528869629 -28.946287155151367 
v 24.57529640197754 9.758379936218262 -28.73868179321289 
v 24.57529640197754 16.56815528869629 -28.73868179321289 
v 24.68169593811035 9.758379936218262 -28.548377990722656 
v 24.68169593811035 16.56815528869629 -28.548377990722656 
v 24.807497024536133 9.758379936218262 -28.37537384033203 
v 24.807497024536133 16.56815528869629 -28.37537384033203 
v 24.945589065551758 9.758379936218262 -28.219669342041016 
v 24.945589065551758 16.56815528869629 -28.219669342041016 
v 25.05489730834961 9.758379936218262 -28.098567962646484 
v 25.05489730834961 16.56815528869629 -28.098567962646484 
v 24.392900466918945 16.56815528869629 5.896718978881836 
vn -0.7140241861343384 -1.47676697801781e-13 -0.7001210451126099 
vn -0.7140241861343384 -1.47676697801781e-13 -0.7001210451126099 
vn -0.7380558252334595 -1.5264699226857914e-13 -0.67473965883255 
vn -0.7380558252334595 -1.5264699226857914e-13 -0.67473965883255 
vn -0.7860940098762512 -1.6223330458978863e-13 -0.6181069612503052 
vn -0.7860940098762512 -1.6223330458978863e-13 -0.6181069612503052 
vn -0.8487933278083801 -1.7555007198345046e-13 -0.528724730014801 
vn -0.8487933278083801 -1.7555007198345046e-13 -0.528724730014801 
vn -0.9069656133651733 0.003773950971662998 -0.42118772864341736 
vn -0.9069656133651733 0.003773950971662998 -0.42118772864341736 
vn -0.95159512758255 -1.9681185934455891e-13 -0.30735430121421814 
vn -0.95159512758255 -1.9681185934455891e-13 -0.30735430121421814 
vn -0.9785395264625549 -2.0238457719597147e-13 -0.2060592919588089 
vn -0.9785395264625549 -2.0238457719597147e-13 -0.2060592919588089 
vn -0.9916970729827881 0.0037763919681310654 -0.12854042649269104 
vn -0.9916970729827881 0.0037763919681310654 -0.12854042649269104 
vn -0.995171308517456 -2.0582442542861623e-13 -0.0981530249118805 
vn -0.995171308517456 -2.0582442542861623e-13 0.0981530249118805 
vn -0.995171308517456 -2.0582442542861623e-13 0.0981530249118805 
vn -0.9916970729827881 0.0037763919681310654 0.12854042649269104 
vn -0.9916970729827881 0.0037763919681310654 0.12854042649269104 
vn -0.9785322546958923 0.00377198145724833 0.2060592919588089 
vn -0.9785322546958923 0.00377198145724833 0.2060592919588089 
vn -0.95159512758255 -1.9681185934455891e-13 0.30735430121421814 
vn -0.95159512758255 -1.9681185934455891e-13 0.30735430121421814 
vn -0.9069656133651733 0.003773950971662998 0.42118772864341736 
vn -0.9069656133651733 0.003773950971662998 0.42118772864341736 
vn -0.8487849831581116 0.003771646646782756 0.528724730014801 
vn -0.8487849831581116 0.003771646646782756 0.528724730014801 
vn -0.7860849499702454 0.003770347684621811 0.6181069612503052 
vn -0.7860849499702454 0.003770347684621811 0.6181069612503052 
vn -0.7380461692810059 0.00377018004655838 0.67473965883255 
vn -0.7380461692810059 0.00377018004655838 0.67473965883255 
vn -0.7140142321586609 0.003770021256059408 0.7001210451126099 
vn -0.7140142321586609 0.003770021256059408 0.7001210451126099 
vn -0.995171308517456 -2.0582442542861623e-13 -0.0981530249118805 
s on 
f 1//1 2//2 3//3 
f 2//2 4//4 3//3 
f 3//3 4//4 5//5 
f 4//4 6//6 5//5 
f 5//5 6//6 7//7 
f 6//6 8//8 7//7 
f 7//7 8//8 9//9 
f 8//8 10//10 9//9 
f 9//9 10//10 11//11 
f 10//10 12//12 11//11 
f 11//11 12//12 13//13 
f 12//12 14//14 13//13 
f 13//13 14//14 15//15 
f 14//14 16//16 15//15 
f 15//15 16//16 17//17 
f 16//16 17//17 17//17 
f 17//17 17//17 18//18 
f 17//17 18//18 18//18 
f 18//18 18//18 18//18 
f 18//18 19//19 18//18 
f 18//18 19//19 20//20 
f 19//19 21//21 20//20 
f 20//20 21//21 22//22 
f 21//21 22//22 22//22 
f 22//22 22//22 20//20 
f 22//22 20//20 20//20 
f 20//20 20//20 20//20 
f 20//20 22//22 20//20 
f 20//20 22//22 23//23 
f 22//22 24//24 23//23 
f 23//23 24//24 25//25 
f 24//24 26//26 25//25 
f 25//25 26//26 27//27 
f 26//26 28//28 27//27 
f 27//27 28//28 29//29 
f 28//28 30//30 29//29 
f 29//29 30//30 31//31 
f 30//30 32//32 31//31 
f 31//31 32//32 33//33 
f 32//32 34//34 33//33 
f 33//33 34//34 35//35 
f 17//17 36//36 15//15 

