mtllib model_23.mtl
o model_23
v 4.47936009980018e-16 28.81438446044922 -82.32001495361328 
v 14.700000762939453 28.81438446044922 -82.32001495361328 
v -4.961535722607059e-16 36.75 -82.31999969482422 
v 14.700000762939453 36.75 -82.31999969482422 
v 14.700000762939453 28.81438446044922 -44.100013732910156 
v 14.700000762939453 36.75 -44.10000228881836 
v 14.700000762939453 28.81438446044922 -58.800010681152344 
v 14.700000762939453 36.75 -58.80000305175781 
v 14.700000762939453 28.81438446044922 -82.32001495361328 
v 14.700000762939453 36.75 -82.31999969482422 
v 14.700000762939453 0 -58.80000305175781 
v 14.700000762939453 0 -82.31999969482422 
v 0 36.75 -44.10000228881836 
v 0 28.81438446044922 -44.100013732910156 
v -3.80806504857967e-16 36.75 -82.31999969482422 
v -7.100764547105485e-17 28.81438446044922 -82.32001495361328 
vn 0 0 1 
vn 0 0 1 
vn 0 0 1 
vn 0 0 1 
vn -0.999997615814209 -2.0682260971124217e-13 0.002184694167226553 
vn -0.999997615814209 -2.0682260971124217e-13 0.002184694167226553 
vn -0.999997615814209 -2.0682260971124217e-13 0.002184694167226553 
vn -0.999997615814209 -2.0682260971124217e-13 0.002184694167226553 
vn -0.999997615814209 -2.0682260971124217e-13 0.002184694167226553 
vn -0.999997615814209 -2.0682260971124217e-13 0.002184694167226553 
vn -0.999997615814209 -2.0682260971124217e-13 0.002184694167226553 
vn -0.999997615814209 -2.0682260971124217e-13 0.002184694167226553 
vn 0.999997615814209 0 0.002184694167226553 
vn 0.999997615814209 0 0.002184694167226553 
vn 0.999997615814209 0 0.002184694167226553 
vn 0.999997615814209 0 0.002184694167226553 
vt 0.8134326338768005 0.9650272727012634 
vt 0.8627198338508606 0.9650272727012634 
vt 0.8134326338768005 0.9915657639503479 
vt 0.8627198338508606 0.9915657639503479 
vt 0.9904794692993164 0.9650272727012634 
vt 0.9904794692993164 0.9915657639503479 
vt 0.9413411617279053 0.9650272727012634 
vt 0.9413411617279053 0.9915657639503479 
vt 0.8627198338508606 0.9650272727012634 
vt 0.8627198338508606 0.9915657639503479 
vt 0.9413411617279053 0.8686599731445312 
vt 0.8627198338508606 0.8686599731445312 
vt 0.6856729984283447 0.9915657639503479 
vt 0.6856729984283447 0.9650272727012634 
vt 0.8134326338768005 0.9915657639503479 
vt 0.8134326338768005 0.9650272727012634 
s on 
f 1/1/1 2/2/2 3/3/3 
f 2/2/2 4/4/4 3/3/3 
f 3/3/3 4/4/4 4/4/4 
f 4/4/4 5/5/5 4/4/4 
f 4/4/4 5/5/5 5/5/5 
f 5/5/5 6/6/6 5/5/5 
f 5/5/5 6/6/6 7/7/7 
f 6/6/6 8/8/8 7/7/7 
f 7/7/7 8/8/8 9/9/9 
f 8/8/8 10/10/10 9/9/9 
f 9/9/9 10/10/10 10/10/10 
f 10/10/10 7/7/7 10/10/10 
f 10/10/10 7/7/7 7/7/7 
f 7/7/7 9/9/9 7/7/7 
f 7/7/7 9/9/9 11/11/11 
f 9/9/9 12/12/12 11/11/11 
f 11/11/11 12/12/12 12/12/12 
f 12/12/12 13/13/13 12/12/12 
f 12/12/12 13/13/13 13/13/13 
f 13/13/13 14/14/14 13/13/13 
f 13/13/13 14/14/14 15/15/15 
f 14/14/14 16/16/16 15/15/15 

