mtllib model_21.mtl
o model_21
v 18.631553649902344 33.76154327392578 44.09410858154297 
v 18.631553649902344 33.86513137817383 44.09410858154297 
v 18.504985809326172 33.76154327392578 44.09410858154297 
v 18.504985809326172 33.86513137817383 44.09410858154297 
v 18.236509323120117 33.76154327392578 44.09410858154297 
v 18.236509323120117 33.86513137817383 44.09410858154297 
v 18.11090087890625 33.76154327392578 44.09410858154297 
v 18.11090087890625 33.86513137817383 44.09410858154297 
v 18.236509323120117 34.380069732666016 44.09410858154297 
v 18.11090087890625 34.380069732666016 44.09410858154297 
v 18.236509323120117 34.499637603759766 44.09410858154297 
v 18.504985809326172 34.499637603759766 44.09410858154297 
v 18.504985809326172 34.380069732666016 44.09410858154297 
v 18.631553649902344 34.499637603759766 44.09410858154297 
v 18.631553649902344 34.380069732666016 44.09410858154297 
v 18.236509323120117 34.488563537597656 43.00008773803711 
v 18.236509323120117 34.47722625732422 43.00199508666992 
v 18.11090087890625 34.488563537597656 43.00008773803711 
v 18.11090087890625 34.4769287109375 43.00027847290039 
v 18.504985809326172 33.62120056152344 44.08246994018555 
v 18.504985809326172 33.62120056152344 44.09410858154297 
v 18.236509323120117 33.62120056152344 44.08246994018555 
v 18.236509323120117 33.62120056152344 44.09410858154297 
v -9.296725273132324 33.76154327392578 44.08246994018555 
v -9.296725273132324 33.76154327392578 44.09410858154297 
v -9.296725273132324 33.86392593383789 44.0837287902832 
v -9.296725273132324 33.86513137817383 44.09410858154297 
v -9.296725273132324 34.380069732666016 44.09410858154297 
v -9.296725273132324 34.375648498535156 44.086971282958984 
v -9.296725273132324 34.499637603759766 44.09410858154297 
v -9.296725273132324 34.49382019042969 44.088382720947266 
v -9.171116828918457 33.76154327392578 44.09410858154297 
v -9.171116828918457 33.76154327392578 44.08246994018555 
v -9.171116828918457 33.62120056152344 44.09410858154297 
v -9.171116828918457 33.62120056152344 44.08246994018555 
v -9.171116828918457 33.76154327392578 44.08246994018555 
v -9.171116828918457 33.76154327392578 44.09410858154297 
v -9.296725273132324 33.76154327392578 44.08246994018555 
v -9.296725273132324 33.76154327392578 44.09410858154297 
v -8.902640342712402 33.62120056152344 44.09410858154297 
v -8.902640342712402 33.62120056152344 44.08246994018555 
v -8.902640342712402 33.76154327392578 44.09410858154297 
v -8.902640342712402 33.76154327392578 44.08246994018555 
v 18.11090087890625 33.76154327392578 44.08246994018555 
v 18.11090087890625 33.76154327392578 44.09410858154297 
v 18.11090087890625 33.86392593383789 44.0837287902832 
v 18.11090087890625 33.86513137817383 44.09410858154297 
v 18.11090087890625 34.380069732666016 44.09410858154297 
v 18.11090087890625 34.375648498535156 44.086971282958984 
v 18.11090087890625 34.499637603759766 44.09410858154297 
v 18.11090087890625 34.49382019042969 44.088382720947266 
v -8.902640342712402 33.76154327392578 44.09410858154297 
v -8.902640342712402 33.76154327392578 44.08246994018555 
v -8.775113105773926 33.76154327392578 44.09410858154297 
v -8.775113105773926 33.76154327392578 44.08246994018555 
v 18.236509323120117 33.76154327392578 44.09410858154297 
v 18.236509323120117 33.76154327392578 44.08246994018555 
v 18.236509323120117 33.62120056152344 44.09410858154297 
v 18.236509323120117 33.62120056152344 44.08246994018555 
v 18.11090087890625 34.488563537597656 43.00008773803711 
v 18.11090087890625 34.49030685424805 43.102420806884766 
v 18.236509323120117 34.488563537597656 43.00008773803711 
v 18.236509323120117 34.49030685424805 43.102420806884766 
v 18.504985809326172 34.488563537597656 43.00008773803711 
v 18.504985809326172 34.49030685424805 43.102420806884766 
v 18.631553649902344 34.488563537597656 43.00008773803711 
v 18.631553649902344 34.49030685424805 43.102420806884766 
v 18.504985809326172 34.49625778198242 43.44869613647461 
v 18.631553649902344 34.49625778198242 43.44869613647461 
v 18.504985809326172 34.499637603759766 44.09410858154297 
v 18.236509323120117 34.499637603759766 44.09410858154297 
v 18.236509323120117 34.49625778198242 43.44869613647461 
v 18.11090087890625 34.499637603759766 44.09410858154297 
v 18.11090087890625 34.49625778198242 43.44869613647461 
v 18.236509323120117 33.62120056152344 44.09410858154297 
v 18.504985809326172 33.62120056152344 44.09410858154297 
v -9.296725273132324 34.499637603759766 44.09410858154297 
v -9.296725273132324 34.380069732666016 44.09410858154297 
v -9.171116828918457 34.499637603759766 44.09410858154297 
v -9.171116828918457 34.380069732666016 44.09410858154297 
v -8.902640342712402 34.499637603759766 44.09410858154297 
v -8.902640342712402 34.380069732666016 44.09410858154297 
v -8.775113105773926 34.499637603759766 44.09410858154297 
v -8.775113105773926 34.380069732666016 44.09410858154297 
v -8.902640342712402 33.86513137817383 44.09410858154297 
v -8.775113105773926 33.86513137817383 44.09410858154297 
v -8.902640342712402 33.76154327392578 44.09410858154297 
v -9.171116828918457 33.76154327392578 44.09410858154297 
v -9.171116828918457 33.62120056152344 44.09410858154297 
v -9.171116828918457 33.86513137817383 44.09410858154297 
v -9.296725273132324 33.76154327392578 44.09410858154297 
v -9.296725273132324 33.86513137817383 44.09410858154297 
v 18.11090087890625 34.4769287109375 43.00027847290039 
v 18.11090087890625 34.479610443115234 43.10165786743164 
v 18.11090087890625 34.488563537597656 43.00008773803711 
v 18.11090087890625 34.49030685424805 43.102420806884766 
v 18.11090087890625 34.48867416381836 43.44480514526367 
v 18.11090087890625 34.49625778198242 43.44869613647461 
v 18.11090087890625 34.499637603759766 44.09410858154297 
v 18.11090087890625 34.49382019042969 44.088382720947266 
v 18.236509323120117 33.76154327392578 44.08246994018555 
v 18.236509323120117 33.76154327392578 44.09410858154297 
v 18.11090087890625 33.76154327392578 44.08246994018555 
v 18.11090087890625 33.76154327392578 44.09410858154297 
v 18.631553649902344 34.499637603759766 44.09410858154297 
v 18.631553649902344 34.49382019042969 44.088382720947266 
v 18.631553649902344 34.49625778198242 43.44869613647461 
v 18.631553649902344 34.48867416381836 43.44480514526367 
v 18.631553649902344 34.49030685424805 43.102420806884766 
v 18.631553649902344 34.479610443115234 43.10165786743164 
v 18.631553649902344 34.488563537597656 43.00008773803711 
v 18.631553649902344 34.4769287109375 43.00027847290039 
v 18.504985809326172 34.380069732666016 44.09410858154297 
v 18.504985809326172 34.380069732666016 44.086856842041016 
v 18.504985809326172 33.86513137817383 44.09410858154297 
v 18.504985809326172 33.86513137817383 44.086856842041016 
v -8.775113105773926 34.4769287109375 43.00027847290039 
v -8.775113105773926 34.488563537597656 43.00008773803711 
v -8.775113105773926 34.479610443115234 43.10165786743164 
v -8.775113105773926 34.49030685424805 43.102420806884766 
v -8.775113105773926 34.48867416381836 43.44480514526367 
v -8.775113105773926 34.49625778198242 43.44869613647461 
v -8.775113105773926 34.49382019042969 44.088382720947266 
v -8.775113105773926 34.499637603759766 44.09410858154297 
v 18.236509323120117 33.86513137817383 44.09410858154297 
v 18.236509323120117 33.86513137817383 44.086856842041016 
v 18.236509323120117 34.380069732666016 44.09410858154297 
v 18.236509323120117 34.380069732666016 44.086856842041016 
v -9.296725273132324 34.488563537597656 43.00008773803711 
v -9.296725273132324 34.49030685424805 43.102420806884766 
v -9.171116828918457 34.488563537597656 43.00008773803711 
v -9.171116828918457 34.49030685424805 43.102420806884766 
v -8.902640342712402 34.488563537597656 43.00008773803711 
v -8.902640342712402 34.49030685424805 43.102420806884766 
v -8.775113105773926 34.488563537597656 43.00008773803711 
v -8.775113105773926 34.49030685424805 43.102420806884766 
v -8.902640342712402 34.49625778198242 43.44869613647461 
v -8.775113105773926 34.49625778198242 43.44869613647461 
v -8.902640342712402 34.499637603759766 44.09410858154297 
v -9.171116828918457 34.499637603759766 44.09410858154297 
v -9.171116828918457 34.49625778198242 43.44869613647461 
v -9.296725273132324 34.499637603759766 44.09410858154297 
v -9.296725273132324 34.49625778198242 43.44869613647461 
v -9.296725273132324 34.4769287109375 43.00027847290039 
v -9.296725273132324 34.479610443115234 43.10165786743164 
v -9.296725273132324 34.488563537597656 43.00008773803711 
v -9.296725273132324 34.49030685424805 43.102420806884766 
v -9.296725273132324 34.48867416381836 43.44480514526367 
v -9.296725273132324 34.49625778198242 43.44869613647461 
v -9.296725273132324 34.499637603759766 44.09410858154297 
v -9.296725273132324 34.49382019042969 44.088382720947266 
v 18.504985809326172 34.380069732666016 44.086856842041016 
v 18.504985809326172 34.380069732666016 44.09410858154297 
v 18.236509323120117 34.380069732666016 44.086856842041016 
v 18.236509323120117 34.380069732666016 44.09410858154297 
v 18.631553649902344 34.488563537597656 43.00008773803711 
v 18.631553649902344 34.4769287109375 43.00027847290039 
v 18.504985809326172 34.488563537597656 43.00008773803711 
v 18.504985809326172 34.47722625732422 43.00199508666992 
v 18.236509323120117 33.86513137817383 44.086856842041016 
v 18.236509323120117 33.86513137817383 44.09410858154297 
v 18.504985809326172 33.86513137817383 44.086856842041016 
v 18.504985809326172 33.86513137817383 44.09410858154297 
v 18.504985809326172 34.49030685424805 43.102420806884766 
v 18.504985809326172 34.483070373535156 43.102535247802734 
v 18.504985809326172 34.49625778198242 43.44869613647461 
v 18.504985809326172 34.48899459838867 43.44881057739258 
v -8.902640342712402 33.86513137817383 44.086856842041016 
v -8.902640342712402 33.86513137817383 44.09410858154297 
v -8.902640342712402 34.380069732666016 44.086856842041016 
v -8.902640342712402 34.380069732666016 44.09410858154297 
v -9.171116828918457 34.380069732666016 44.086856842041016 
v -9.171116828918457 34.380069732666016 44.09410858154297 
v -9.171116828918457 33.86513137817383 44.086856842041016 
v -9.171116828918457 33.86513137817383 44.09410858154297 
v 18.236509323120117 34.49625778198242 43.44869613647461 
v 18.236509323120117 34.48899459838867 43.44881057739258 
v 18.236509323120117 34.49030685424805 43.102420806884766 
v 18.236509323120117 34.483070373535156 43.102535247802734 
v -8.902640342712402 34.380069732666016 44.086856842041016 
v -8.902640342712402 34.380069732666016 44.09410858154297 
v -9.171116828918457 34.380069732666016 44.086856842041016 
v -9.171116828918457 34.380069732666016 44.09410858154297 
v 18.631553649902344 34.49382019042969 44.088382720947266 
v 18.631553649902344 34.499637603759766 44.09410858154297 
v 18.631553649902344 34.375648498535156 44.086971282958984 
v 18.631553649902344 34.380069732666016 44.09410858154297 
v 18.631553649902344 33.86392593383789 44.0837287902832 
v 18.631553649902344 33.86513137817383 44.09410858154297 
v 18.631553649902344 33.76154327392578 44.08246994018555 
v 18.631553649902344 33.76154327392578 44.09410858154297 
v -8.902640342712402 34.49030685424805 43.102420806884766 
v -8.902640342712402 34.483070373535156 43.102535247802734 
v -8.902640342712402 34.49625778198242 43.44869613647461 
v -8.902640342712402 34.48899459838867 43.44881057739258 
v 18.236509323120117 34.49030685424805 43.102420806884766 
v 18.236509323120117 34.483070373535156 43.102535247802734 
v 18.504985809326172 34.49030685424805 43.102420806884766 
v 18.504985809326172 34.483070373535156 43.102535247802734 
v -9.171116828918457 34.49625778198242 43.44869613647461 
v -9.171116828918457 34.48899459838867 43.44881057739258 
v -9.171116828918457 34.49030685424805 43.102420806884766 
v -9.171116828918457 34.483070373535156 43.102535247802734 
v -9.171116828918457 34.49030685424805 43.102420806884766 
v -9.171116828918457 34.483070373535156 43.102535247802734 
v -8.902640342712402 34.49030685424805 43.102420806884766 
v -8.902640342712402 34.483070373535156 43.102535247802734 
v 18.504985809326172 34.49625778198242 43.44869613647461 
v 18.504985809326172 34.48899459838867 43.44881057739258 
v 18.236509323120117 34.49625778198242 43.44869613647461 
v 18.236509323120117 34.48899459838867 43.44881057739258 
v -8.902640342712402 34.49625778198242 43.44869613647461 
v -8.902640342712402 34.48899459838867 43.44881057739258 
v -9.171116828918457 34.49625778198242 43.44869613647461 
v -9.171116828918457 34.48899459838867 43.44881057739258 
v -9.171116828918457 33.86513137817383 44.086856842041016 
v -9.171116828918457 33.86513137817383 44.09410858154297 
v -8.902640342712402 33.86513137817383 44.086856842041016 
v -8.902640342712402 33.86513137817383 44.09410858154297 
v 18.504985809326172 33.62120056152344 44.09410858154297 
v 18.504985809326172 33.62120056152344 44.08246994018555 
v 18.504985809326172 33.76154327392578 44.09410858154297 
v 18.504985809326172 33.76154327392578 44.08246994018555 
v -11.060999870300293 33.97893524169922 43.05302810668945 
v 20.357473373413086 33.97893524169922 43.05302810668945 
v -11.060999870300293 33.8966064453125 43.01890563964844 
v 20.357473373413086 33.8966064453125 43.01890563964844 
v -11.060999870300293 33.814247131347656 43.05302810668945 
v 20.357473373413086 33.814247131347656 43.05302810668945 
v -11.060999870300293 33.814247131347656 43.05302810668945 
v 20.357473373413086 33.814247131347656 43.05302810668945 
v -11.060999870300293 33.780147552490234 43.13536071777344 
v 20.357473373413086 33.780147552490234 43.13536071777344 
v -11.060999870300293 33.814247131347656 43.21769332885742 
v 20.357473373413086 33.814247131347656 43.21769332885742 
v 18.504985809326172 34.488563537597656 43.00008773803711 
v 18.504985809326172 34.47722625732422 43.00199508666992 
v 18.504985809326172 34.44282913208008 42.84339904785156 
v 18.504985809326172 34.431785583496094 42.84706497192383 
v -11.060999870300293 33.814247131347656 43.21769332885742 
v 20.357473373413086 33.814247131347656 43.21769332885742 
v -11.060999870300293 33.8966064453125 43.25181579589844 
v 20.357473373413086 33.8966064453125 43.25181579589844 
v -11.060999870300293 33.97893524169922 43.21769332885742 
v 20.357473373413086 33.97893524169922 43.21769332885742 
v -11.060999870300293 33.97893524169922 43.21769332885742 
v 20.357473373413086 33.97893524169922 43.21769332885742 
v -11.060999870300293 34.01303482055664 43.13536071777344 
v 20.357473373413086 34.01303482055664 43.13536071777344 
v -11.060999870300293 33.97893524169922 43.05302810668945 
v 20.357473373413086 33.97893524169922 43.05302810668945 
v -9.171116828918457 34.44282913208008 42.84339904785156 
v -9.171116828918457 34.488563537597656 43.00008773803711 
v -8.902640342712402 34.44282913208008 42.84339904785156 
v -8.902640342712402 34.488563537597656 43.00008773803711 
v 18.631553649902344 33.76154327392578 44.08246994018555 
v 18.631553649902344 33.76154327392578 44.09410858154297 
v 18.504985809326172 33.76154327392578 44.08246994018555 
v 18.504985809326172 33.76154327392578 44.09410858154297 
v -8.902640342712402 33.62120056152344 44.08246994018555 
v -8.902640342712402 33.62120056152344 44.09410858154297 
v -9.171116828918457 33.62120056152344 44.08246994018555 
v -9.171116828918457 33.62120056152344 44.09410858154297 
v 18.236509323120117 34.44282913208008 42.84339904785156 
v 18.236509323120117 34.488563537597656 43.00008773803711 
v 18.504985809326172 34.44282913208008 42.84339904785156 
v 18.504985809326172 34.488563537597656 43.00008773803711 
v 18.504985809326172 34.44282913208008 42.84339904785156 
v 18.504985809326172 34.431785583496094 42.84706497192383 
v 18.236509323120117 34.44282913208008 42.84339904785156 
v 18.236509323120117 34.431785583496094 42.84706497192383 
v -9.296725273132324 34.4769287109375 43.00027847290039 
v -9.296725273132324 34.488563537597656 43.00008773803711 
v -9.171116828918457 34.47722625732422 43.00199508666992 
v -9.171116828918457 34.488563537597656 43.00008773803711 
v -8.775113105773926 34.49382019042969 44.088382720947266 
v -8.775113105773926 34.499637603759766 44.09410858154297 
v -8.775113105773926 34.375648498535156 44.086971282958984 
v -8.775113105773926 34.380069732666016 44.09410858154297 
v -8.775113105773926 33.86392593383789 44.0837287902832 
v -8.775113105773926 33.86513137817383 44.09410858154297 
v -8.775113105773926 33.76154327392578 44.08246994018555 
v -8.775113105773926 33.76154327392578 44.09410858154297 
v -8.775113105773926 34.488563537597656 43.00008773803711 
v -8.775113105773926 34.4769287109375 43.00027847290039 
v -8.902640342712402 34.488563537597656 43.00008773803711 
v -8.902640342712402 34.47722625732422 43.00199508666992 
v 18.236509323120117 34.44282913208008 42.84339904785156 
v 18.236509323120117 34.431785583496094 42.84706497192383 
v 18.236509323120117 34.488563537597656 43.00008773803711 
v 18.236509323120117 34.47722625732422 43.00199508666992 
v -8.902640342712402 34.488563537597656 43.00008773803711 
v -8.902640342712402 34.47722625732422 43.00199508666992 
v -8.902640342712402 34.44282913208008 42.84339904785156 
v -8.902640342712402 34.431785583496094 42.84706497192383 
v -8.902640342712402 34.44282913208008 42.84339904785156 
v -8.902640342712402 34.431785583496094 42.84706497192383 
v -9.171116828918457 34.44282913208008 42.84339904785156 
v -9.171116828918457 34.431785583496094 42.84706497192383 
v 20.330625534057617 34.013328552246094 43.292354583740234 
v 20.324872970581055 34.0140266418457 43.29330825805664 
v 20.330625534057617 33.93255615234375 43.3300666809082 
v 20.324872970581055 33.932769775390625 43.33124923706055 
v 20.330625534057617 33.84344482421875 43.33109664916992 
v 20.324872970581055 33.84312057495117 43.33231735229492 
v 20.330625534057617 33.763633728027344 43.291473388671875 
v 20.324872970581055 33.76280212402344 43.29243087768555 
v 20.330625534057617 33.70722961425781 43.22246551513672 
v 20.324872970581055 33.706077575683594 43.222999572753906 
v 20.330625534057617 33.68843460083008 43.13536071777344 
v 20.324872970581055 33.68714904785156 43.13536071777344 
v 20.330625534057617 33.70722961425781 43.048255920410156 
v 20.324872970581055 33.706050872802734 43.04772186279297 
v 20.330625534057617 33.763633728027344 42.979248046875 
v 20.324872970581055 33.76280212402344 42.97829055786133 
v 20.330625534057617 33.84344482421875 42.93962478637695 
v 20.324872970581055 33.84312057495117 42.93844223022461 
v 20.330625534057617 33.93255615234375 42.94065475463867 
v 20.324872970581055 33.932769775390625 42.93947219848633 
v 20.330625534057617 34.013328552246094 42.97836685180664 
v 20.324872970581055 34.0140266418457 42.977413177490234 
v 20.330625534057617 34.06804656982422 43.04871368408203 
v 20.324872970581055 34.069091796875 43.048179626464844 
v 20.330625534057617 34.08892822265625 43.13536071777344 
v 20.324872970581055 34.090084075927734 43.13536071777344 
v 20.330625534057617 34.06804656982422 43.222007751464844 
v 20.324872970581055 34.069091796875 43.22254180908203 
v 20.330625534057617 34.013328552246094 43.292354583740234 
v 20.324872970581055 34.0140266418457 43.29330825805664 
v 20.289396286010742 34.0140266418457 43.29330825805664 
v 20.289396286010742 33.932769775390625 43.33124923706055 
v 20.289396286010742 33.84312057495117 43.33231735229492 
v 20.289396286010742 33.76280212402344 43.29243087768555 
v 20.289396286010742 33.706077575683594 43.222999572753906 
v 20.289396286010742 33.68714904785156 43.13536071777344 
v 20.289396286010742 33.706077575683594 43.04772186279297 
v 20.289396286010742 33.76280212402344 42.97829055786133 
v 20.289396286010742 33.84312057495117 42.93840408325195 
v 20.289396286010742 33.932769775390625 42.93947219848633 
v 20.289396286010742 34.0140266418457 42.977413177490234 
v 20.289396286010742 34.069091796875 43.048179626464844 
v 20.289396286010742 34.090084075927734 43.13536071777344 
v 20.289396286010742 34.069091796875 43.22254180908203 
v 20.289396286010742 34.0140266418457 43.29330825805664 
v -10.975663185119629 34.0140266418457 43.29330825805664 
v -10.975663185119629 33.932769775390625 43.33124923706055 
v -10.975663185119629 33.84312057495117 43.33231735229492 
v -10.975663185119629 33.76280212402344 43.29243087768555 
v -11.010181427001953 33.76280212402344 43.29243087768555 
v -11.010181427001953 33.706077575683594 43.222999572753906 
v -11.01689338684082 33.70722961425781 43.22246551513672 
v -11.01689338684082 33.68843460083008 43.13536071777344 
v -11.010181427001953 33.68714904785156 43.13536071777344 
v -10.975663185119629 33.706077575683594 43.222999572753906 
v -11.01689338684082 33.70722961425781 43.048255920410156 
v -11.010181427001953 33.706050872802734 43.04772186279297 
v -10.975663185119629 33.68714904785156 43.13536071777344 
v -10.975663185119629 33.706077575683594 43.04772186279297 
v -10.975663185119629 33.76280212402344 42.97829055786133 
v -11.01689338684082 34.013328552246094 43.292354583740234 
v -11.01689338684082 33.93255615234375 43.3300666809082 
v -11.010181427001953 34.0140266418457 43.29330825805664 
v -11.010181427001953 33.932769775390625 43.33124923706055 
v -11.01689338684082 33.84347152709961 43.33113479614258 
v -11.010181427001953 33.84312057495117 43.33231735229492 
v -11.01689338684082 33.763633728027344 43.291473388671875 
v -9.171116828918457 34.44282913208008 42.84339904785156 
v -9.171116828918457 34.431785583496094 42.84706497192383 
v -9.171116828918457 34.488563537597656 43.00008773803711 
v -9.171116828918457 34.47722625732422 43.00199508666992 
v -11.01689338684082 33.763633728027344 42.979248046875 
v -11.010181427001953 33.76280212402344 42.97829055786133 
v -11.01689338684082 33.84347152709961 42.93962478637695 
v -11.010181427001953 33.84312057495117 42.93844223022461 
v -10.975663185119629 33.84312057495117 42.93840408325195 
v -10.975663185119629 33.932769775390625 42.93947219848633 
v -11.01689338684082 33.93255615234375 42.94065475463867 
v -11.010181427001953 33.932769775390625 42.93947219848633 
v -11.01689338684082 34.013328552246094 42.97836685180664 
v -11.010181427001953 34.0140266418457 42.977413177490234 
v -10.975663185119629 34.0140266418457 42.977413177490234 
v -10.975663185119629 34.069091796875 43.048179626464844 
v -11.01689338684082 34.06804656982422 43.04871368408203 
v -11.010181427001953 34.069091796875 43.048179626464844 
v -11.01689338684082 34.08892822265625 43.13536071777344 
v -11.010181427001953 34.090084075927734 43.13536071777344 
v -10.975663185119629 34.090084075927734 43.13536071777344 
v -10.975663185119629 34.069091796875 43.22254180908203 
v -11.01689338684082 34.06804656982422 43.222007751464844 
v -11.010181427001953 34.069091796875 43.22254180908203 
v -11.01689338684082 34.013328552246094 43.292354583740234 
v -11.010181427001953 34.0140266418457 43.29330825805664 
v -10.975663185119629 34.0140266418457 43.29330825805664 
v -11.01689338684082 33.68843460083008 43.13536071777344 
v -11.018811225891113 33.71073913574219 43.04982376098633 
v -11.01689338684082 33.70722961425781 43.048255920410156 
v -11.018811225891113 33.7661018371582 42.98207092285156 
v -11.01689338684082 33.763633728027344 42.979248046875 
v -11.018811225891113 33.84446334838867 42.94317626953125 
v -11.01689338684082 33.84347152709961 42.93962478637695 
v -11.018811225891113 33.93196487426758 42.944244384765625 
v -11.01689338684082 33.93255615234375 42.94065475463867 
v -11.018811225891113 34.01123809814453 42.98126983642578 
v -11.01689338684082 34.013328552246094 42.97836685180664 
v -11.018811225891113 34.064964294433594 43.05031967163086 
v -11.01689338684082 34.06804656982422 43.04871368408203 
v -11.018811225891113 34.085445404052734 43.13536071777344 
v -11.01689338684082 34.08892822265625 43.13536071777344 
v -11.018811225891113 34.064964294433594 43.220401763916016 
v -11.01689338684082 34.06804656982422 43.222007751464844 
v -11.018811225891113 34.01123809814453 43.289451599121094 
v -11.01689338684082 34.013328552246094 43.292354583740234 
v -11.018811225891113 33.93196487426758 43.32647705078125 
v -11.01689338684082 33.93255615234375 43.3300666809082 
v -11.018811225891113 33.84446334838867 43.327545166015625 
v -11.01689338684082 33.84347152709961 43.33113479614258 
v -11.018811225891113 33.7661018371582 43.28865051269531 
v -11.01689338684082 33.763633728027344 43.291473388671875 
v -11.018811225891113 33.71073913574219 43.22089767456055 
v -11.01689338684082 33.70722961425781 43.22246551513672 
v -11.018811225891113 33.69229507446289 43.13536071777344 
v -11.018811225891113 33.733768463134766 43.06031799316406 
v -11.018811225891113 33.779396057128906 42.997413635253906 
v -11.018811225891113 33.851139068603516 42.96669006347656 
v -11.018811225891113 33.92866897583008 42.96332931518555 
v -11.018811225891113 33.99748611450195 43.000125885009766 
v -11.018811225891113 34.04839324951172 43.05879211425781 
v -11.018811225891113 34.06262969970703 43.13536071777344 
v -11.018811225891113 34.04839324951172 43.21192932128906 
v -11.018811225891113 33.99748611450195 43.270633697509766 
v -11.018811225891113 33.92866897583008 43.30739212036133 
v -11.018811225891113 33.851139068603516 43.30403137207031 
v -11.018811225891113 33.779396057128906 43.27330780029297 
v -11.018811225891113 33.733768463134766 43.21044158935547 
v -11.018811225891113 33.71296691894531 43.13536071777344 
v -11.018811225891113 33.764652252197266 43.13536071777344 
v -11.018811225891113 33.79347229003906 43.18330383300781 
v -11.018811225891113 33.81264114379883 43.235023498535156 
v -11.018811225891113 33.8966064453125 43.13536071777344 
v -11.018811225891113 33.86840057373047 43.243038177490234 
v -11.018811225891113 33.92046356201172 43.25960159301758 
v -11.018811225891113 33.961856842041016 43.22174072265625 
v -11.018811225891113 34.00692367553711 43.190670013427734 
v -11.018811225891113 34.00343704223633 43.13536071777344 
v -11.018811225891113 34.00692367553711 43.08005142211914 
v -11.018811225891113 33.961856842041016 43.04901885986328 
v -11.018811225891113 33.92046356201172 43.0111198425293 
v -11.018811225891113 33.86840057373047 43.02768325805664 
v -11.018811225891113 33.81264114379883 43.035736083984375 
v -11.018811225891113 33.79347229003906 43.087459564208984 
v 20.330625534057617 34.06804656982422 43.04871368408203 
v 20.332544326782227 34.064964294433594 43.05031967163086 
v 20.330625534057617 34.013328552246094 42.97836685180664 
v 20.332544326782227 34.01123809814453 42.98126983642578 
v 20.330625534057617 33.93255615234375 42.94065475463867 
v 20.332544326782227 33.93196487426758 42.944244384765625 
v 20.330625534057617 33.84344482421875 42.93962478637695 
v 20.332544326782227 33.84446334838867 42.94317626953125 
v 20.330625534057617 33.763633728027344 42.979248046875 
v 20.332544326782227 33.7661018371582 42.98207092285156 
v 20.330625534057617 33.70722961425781 43.048255920410156 
v 20.332544326782227 33.71073913574219 43.04982376098633 
v 20.330625534057617 33.68843460083008 43.13536071777344 
v 20.332544326782227 33.69229507446289 43.13536071777344 
v 20.330625534057617 33.70722961425781 43.22246551513672 
v 20.332544326782227 33.71073913574219 43.22089767456055 
v 20.330625534057617 33.763633728027344 43.291473388671875 
v 20.332544326782227 33.7661018371582 43.28865051269531 
v 20.330625534057617 33.84344482421875 43.33109664916992 
v 20.332544326782227 33.84446334838867 43.327545166015625 
v 20.330625534057617 33.93255615234375 43.3300666809082 
v 20.332544326782227 33.93196487426758 43.32647705078125 
v 20.330625534057617 34.013328552246094 43.292354583740234 
v 20.332544326782227 34.01123809814453 43.289451599121094 
v 20.330625534057617 34.06804656982422 43.222007751464844 
v 20.332544326782227 34.064964294433594 43.220401763916016 
v 20.330625534057617 34.08892822265625 43.13536071777344 
v 20.332544326782227 34.085445404052734 43.13536071777344 
v 20.332544326782227 34.06262969970703 43.13536071777344 
v 20.332544326782227 34.04839324951172 43.05879211425781 
v 20.332544326782227 33.99748611450195 43.000125885009766 
v 20.332544326782227 33.92866897583008 42.96332931518555 
v 20.332544326782227 33.851139068603516 42.96669006347656 
v 20.332544326782227 33.779396057128906 42.997413635253906 
v 20.332544326782227 33.733768463134766 43.060279846191406 
v 20.332544326782227 33.71296691894531 43.13536071777344 
v 20.332544326782227 33.733768463134766 43.21040344238281 
v 20.332544326782227 33.779396057128906 43.27330780029297 
v 20.332544326782227 33.851139068603516 43.30403137207031 
v 20.332544326782227 33.92866897583008 43.30739212036133 
v 20.332544326782227 33.99748611450195 43.270633697509766 
v 20.332544326782227 34.04839324951172 43.21192932128906 
v 20.332544326782227 34.00692367553711 43.190670013427734 
v 20.332544326782227 33.961856842041016 43.22174072265625 
v 20.332544326782227 33.92046356201172 43.25960159301758 
v 20.332544326782227 33.8966064453125 43.13536071777344 
v 20.332544326782227 33.86840057373047 43.243038177490234 
v 20.332544326782227 33.81264114379883 43.235023498535156 
v 20.332544326782227 33.79347229003906 43.18330383300781 
v 20.332544326782227 33.764652252197266 43.13536071777344 
v 20.332544326782227 33.79347229003906 43.087459564208984 
v 20.332544326782227 33.81264114379883 43.035736083984375 
v 20.332544326782227 33.86840057373047 43.02768325805664 
v 20.332544326782227 33.92046356201172 43.0111198425293 
v 20.332544326782227 33.961856842041016 43.04901885986328 
v 20.332544326782227 34.00692367553711 43.08005142211914 
v 20.332544326782227 34.00343704223633 43.13536071777344 
v 18.631553649902344 34.499637603759766 44.09410858154297 
v 18.11090087890625 34.499637603759766 44.09410858154297 
v -8.775113105773926 33.76154327392578 44.09410858154297 
v -8.775113105773926 34.499637603759766 44.09410858154297 
v -8.902640342712402 33.62120056152344 44.09410858154297 
vn 0 0 1 
vn 0 0 1 
vn 0 0 1 
vn 0 0 1 
vn 0 0 1 
vn 0 0 1 
vn 0 0 1 
vn 0 0 1 
vn 0 0 1 
vn 0 0 1 
vn 0 0 1 
vn 0 0 1 
vn 0 0 1 
vn 0 0 1 
vn 0 0 1 
vn 0.007566623389720917 -0.09131556749343872 -0.9957932829856873 
vn 0.007566623389720917 -0.09131556749343872 -0.9957932829856873 
vn 0.007566623389720917 -0.09131556749343872 -0.9957932829856873 
vn 0.007566623389720917 -0.09131556749343872 -0.9957932829856873 
vn 3.097898456858039e-13 -0.999997615814209 0.002184694167226553 
vn 3.097898456858039e-13 -0.999997615814209 0.002184694167226553 
vn 3.097898456858039e-13 -0.999997615814209 0.002184694167226553 
vn 3.097898456858039e-13 -0.999997615814209 0.002184694167226553 
vn -0.999997615814209 -2.0682260971124217e-13 0.002184694167226553 
vn -0.999997615814209 -2.0682260971124217e-13 0.002184694167226553 
vn -0.999997615814209 -2.0682260971124217e-13 0.002184694167226553 
vn -0.999997615814209 -2.0682260971124217e-13 0.002184694167226553 
vn -0.999997615814209 -2.0682260971124217e-13 0.002184694167226553 
vn -0.999997615814209 -2.0682260971124217e-13 0.002184694167226553 
vn -0.999997615814209 -2.0682260971124217e-13 0.002184694167226553 
vn -0.999997615814209 -2.0682260971124217e-13 0.002184694167226553 
vn -0.999997615814209 -2.0682260971124217e-13 0.002184694167226553 
vn -0.999997615814209 -2.0682260971124217e-13 0.002184694167226553 
vn -0.999997615814209 -2.0682260971124217e-13 0.002184694167226553 
vn -0.999997615814209 -2.0682260971124217e-13 0.002184694167226553 
vn 3.097898456858039e-13 -0.999997615814209 0.002184694167226553 
vn 3.097898456858039e-13 -0.999997615814209 0.002184694167226553 
vn 3.097898456858039e-13 -0.999997615814209 0.002184694167226553 
vn 3.097898456858039e-13 -0.999997615814209 0.002184694167226553 
vn 0.999997615814209 0 0.002184694167226553 
vn 0.999997615814209 0 0.002184694167226553 
vn 0.999997615814209 0 0.002184694167226553 
vn 0.999997615814209 0 0.002184694167226553 
vn -0.999997615814209 -2.0682260971124217e-13 0.002184694167226553 
vn -0.999997615814209 -2.0682260971124217e-13 0.002184694167226553 
vn -0.999997615814209 -2.0682260971124217e-13 0.002184694167226553 
vn -0.999997615814209 -2.0682260971124217e-13 0.002184694167226553 
vn -0.999997615814209 -2.0682260971124217e-13 0.002184694167226553 
vn -0.999997615814209 -2.0682260971124217e-13 0.002184694167226553 
vn -0.999997615814209 -2.0682260971124217e-13 0.002184694167226553 
vn -0.999997615814209 -2.0682260971124217e-13 0.002184694167226553 
vn 3.097898456858039e-13 -0.999997615814209 0.002184694167226553 
vn 3.097898456858039e-13 -0.999997615814209 0.002184694167226553 
vn 3.097898456858039e-13 -0.999997615814209 0.002184694167226553 
vn 3.097898456858039e-13 -0.999997615814209 0.002184694167226553 
vn -0.999997615814209 -2.0682260971124217e-13 0.002184694167226553 
vn -0.999997615814209 -2.0682260971124217e-13 0.002184694167226553 
vn -0.999997615814209 -2.0682260971124217e-13 0.002184694167226553 
vn -0.999997615814209 -2.0682260971124217e-13 0.002184694167226553 
vn -1.0339945994688668e-13 0.9998830556869507 -0.0152922747656703 
vn -1.0339945994688668e-13 0.9998830556869507 -0.0152922747656703 
vn -1.0339945994688668e-13 0.9998830556869507 -0.0152922747656703 
vn -1.0339945994688668e-13 0.9998830556869507 -0.0152922747656703 
vn -1.0339945994688668e-13 0.9998830556869507 -0.0152922747656703 
vn -1.0339945994688668e-13 0.9998830556869507 -0.0152922747656703 
vn -1.0339945994688668e-13 0.9998830556869507 -0.0152922747656703 
vn -1.0339945994688668e-13 0.9998830556869507 -0.0152922747656703 
vn -1.0340933296291988e-13 0.9999785423278809 -0.006554040592163801 
vn -1.0340538240125388e-13 0.9999403357505798 -0.010923261754214764 
vn -1.0340933296291988e-13 0.9999785423278809 -0.006554040592163801 
vn -1.0340933296291988e-13 0.9999785423278809 -0.006554040592163801 
vn -1.0340933296291988e-13 0.9999785423278809 -0.006554040592163801 
vn -1.0340933296291988e-13 0.9999785423278809 -0.006554040592163801 
vn -1.0340538240125388e-13 0.9999403357505798 -0.010923261754214764 
vn 0 0 1 
vn 0 0 1 
vn 0 0 1 
vn 0 0 1 
vn 0 0 1 
vn 0 0 1 
vn 0 0 1 
vn 0 0 1 
vn 0 0 1 
vn 0 0 1 
vn 0 0 1 
vn 0 0 1 
vn 0 0 1 
vn 0 0 1 
vn 0 0 1 
vn 0 0 1 
vn 0 0 1 
vn 0 0 1 
vn -0.999997615814209 -2.0682260971124217e-13 0.002184694167226553 
vn -0.999997615814209 -2.0682260971124217e-13 0.002184694167226553 
vn -0.999997615814209 -2.0682260971124217e-13 0.002184694167226553 
vn -0.999997615814209 -2.0682260971124217e-13 0.002184694167226553 
vn -0.999997615814209 -2.0682260971124217e-13 0.002184694167226553 
vn -0.999997615814209 -2.0682260971124217e-13 0.002184694167226553 
vn -0.999997615814209 -2.0682260971124217e-13 0.002184694167226553 
vn -0.999997615814209 -2.0682260971124217e-13 0.002184694167226553 
vn 3.097898456858039e-13 -0.999997615814209 0.002184694167226553 
vn 3.097898456858039e-13 -0.999997615814209 0.002184694167226553 
vn 3.097898456858039e-13 -0.999997615814209 0.002184694167226553 
vn 3.097898456858039e-13 -0.999997615814209 0.002184694167226553 
vn 0.999997615814209 0 0.002184694167226553 
vn 0.999997615814209 0 0.002184694167226553 
vn 0.999997615814209 0 0.002184694167226553 
vn 0.999997615814209 0 0.002184694167226553 
vn 0.999997615814209 0 0.002184694167226553 
vn 0.999997615814209 0 0.002184694167226553 
vn 0.999997615814209 0 0.002184694167226553 
vn 0.999997615814209 0 0.002184694167226553 
vn -0.999997615814209 -2.0682260971124217e-13 0.002184694167226553 
vn -0.999997615814209 -2.0682260971124217e-13 0.002184694167226553 
vn -0.999997615814209 -2.0682260971124217e-13 0.002184694167226553 
vn -0.999997615814209 -2.0682260971124217e-13 0.002184694167226553 
vn 0.999997615814209 0 0.002184694167226553 
vn 0.999997615814209 0 0.002184694167226553 
vn 0.999997615814209 0 0.002184694167226553 
vn 0.999997615814209 0 0.002184694167226553 
vn 0.999997615814209 0 0.002184694167226553 
vn 0.999997615814209 0 0.002184694167226553 
vn 0.999997615814209 0 0.002184694167226553 
vn 0.999997615814209 0 0.002184694167226553 
vn 0.999997615814209 0 0.002184694167226553 
vn 0.999997615814209 0 0.002184694167226553 
vn 0.999997615814209 0 0.002184694167226553 
vn 0.999997615814209 0 0.002184694167226553 
vn -1.0339945994688668e-13 0.9998830556869507 -0.0152922747656703 
vn -1.0339945994688668e-13 0.9998830556869507 -0.0152922747656703 
vn -1.0339945994688668e-13 0.9998830556869507 -0.0152922747656703 
vn -1.0339945994688668e-13 0.9998830556869507 -0.0152922747656703 
vn -1.0339945994688668e-13 0.9998830556869507 -0.0152922747656703 
vn -1.0339945994688668e-13 0.9998830556869507 -0.0152922747656703 
vn -1.0339945994688668e-13 0.9998830556869507 -0.0152922747656703 
vn -1.0339945994688668e-13 0.9998830556869507 -0.0152922747656703 
vn -1.0340933296291988e-13 0.9999785423278809 -0.006554040592163801 
vn -1.0340538240125388e-13 0.9999403357505798 -0.010923261754214764 
vn -1.0340933296291988e-13 0.9999785423278809 -0.006554040592163801 
vn -1.0340933296291988e-13 0.9999785423278809 -0.006554040592163801 
vn -1.0340933296291988e-13 0.9999785423278809 -0.006554040592163801 
vn -1.0340933296291988e-13 0.9999785423278809 -0.006554040592163801 
vn -1.0340538240125388e-13 0.9999403357505798 -0.010923261754214764 
vn -0.999997615814209 -2.0682260971124217e-13 0.002184694167226553 
vn -0.999997615814209 -2.0682260971124217e-13 0.002184694167226553 
vn -0.999997615814209 -2.0682260971124217e-13 0.002184694167226553 
vn -0.999997615814209 -2.0682260971124217e-13 0.002184694167226553 
vn -0.999997615814209 -2.0682260971124217e-13 0.002184694167226553 
vn -0.999997615814209 -2.0682260971124217e-13 0.002184694167226553 
vn -0.999997615814209 -2.0682260971124217e-13 0.002184694167226553 
vn -0.999997615814209 -2.0682260971124217e-13 0.002184694167226553 
vn 3.097898456858039e-13 -0.999997615814209 0.002184694167226553 
vn 3.097898456858039e-13 -0.999997615814209 0.002184694167226553 
vn 3.097898456858039e-13 -0.999997615814209 0.002184694167226553 
vn 3.097898456858039e-13 -0.999997615814209 0.002184694167226553 
vn -0.007566623389720917 -0.09131556749343872 -0.9957932829856873 
vn -0.007566623389720917 -0.09131556749343872 -0.9957932829856873 
vn -0.007566623389720917 -0.09131556749343872 -0.9957932829856873 
vn -0.007566623389720917 -0.09131556749343872 -0.9957932829856873 
vn -1.0341130485562108e-13 0.999997615814209 0.002184694167226553 
vn -1.0341130485562108e-13 0.999997615814209 0.002184694167226553 
vn -1.0341130485562108e-13 0.999997615814209 0.002184694167226553 
vn -1.0341130485562108e-13 0.999997615814209 0.002184694167226553 
vn -0.999997615814209 -2.0682260971124217e-13 0.002184694167226553 
vn -0.999997615814209 -2.0682260971124217e-13 0.002184694167226553 
vn -0.999997615814209 -2.0682260971124217e-13 0.002184694167226553 
vn -0.999997615814209 -2.0682260971124217e-13 0.002184694167226553 
vn -0.999997615814209 -2.0682260971124217e-13 0.002184694167226553 
vn -0.999997615814209 -2.0682260971124217e-13 0.002184694167226553 
vn -0.999997615814209 -2.0682260971124217e-13 0.002184694167226553 
vn -0.999997615814209 -2.0682260971124217e-13 0.002184694167226553 
vn 0.999997615814209 0 0.002184694167226553 
vn 0.999997615814209 0 0.002184694167226553 
vn 0.999997615814209 0 0.002184694167226553 
vn 0.999997615814209 0 0.002184694167226553 
vn 0.999997615814209 0 0.002184694167226553 
vn 0.999997615814209 0 0.002184694167226553 
vn 0.999997615814209 0 0.002184694167226553 
vn 0.999997615814209 0 0.002184694167226553 
vn 3.097898456858039e-13 -0.999997615814209 0.002184694167226553 
vn 3.097898456858039e-13 -0.999997615814209 0.002184694167226553 
vn 3.097898456858039e-13 -0.999997615814209 0.002184694167226553 
vn 3.097898456858039e-13 -0.999997615814209 0.002184694167226553 
vn 0.999997615814209 0 0.002184694167226553 
vn 0.999997615814209 0 0.002184694167226553 
vn 0.999997615814209 0 0.002184694167226553 
vn 0.999997615814209 0 0.002184694167226553 
vn 0.999997615814209 0 0.002184694167226553 
vn 0.999997615814209 0 0.002184694167226553 
vn 0.999997615814209 0 0.002184694167226553 
vn 0.999997615814209 0 0.002184694167226553 
vn -0.999997615814209 -2.0682260971124217e-13 0.002184694167226553 
vn -0.999997615814209 -2.0682260971124217e-13 0.002184694167226553 
vn -0.999997615814209 -2.0682260971124217e-13 0.002184694167226553 
vn -0.999997615814209 -2.0682260971124217e-13 0.002184694167226553 
vn -1.8072902708757407e-15 0.017476677894592285 0.9998472929000854 
vn -1.8072902708757407e-15 0.017476677894592285 0.9998472929000854 
vn -1.8072902708757407e-15 0.017476677894592285 0.9998472929000854 
vn -1.8072902708757407e-15 0.017476677894592285 0.9998472929000854 
vn 0.999997615814209 0 0.002184694167226553 
vn 0.999997615814209 0 0.002184694167226553 
vn 0.999997615814209 0 0.002184694167226553 
vn 0.999997615814209 0 0.002184694167226553 
vn -1.8072902708757407e-15 0.017476677894592285 0.9998472929000854 
vn -1.8072902708757407e-15 0.017476677894592285 0.9998472929000854 
vn -1.8072902708757407e-15 0.017476677894592285 0.9998472929000854 
vn -1.8072902708757407e-15 0.017476677894592285 0.9998472929000854 
vn 0.0038889264687895775 -0.01703849993646145 -0.9998472929000854 
vn 0.0038889264687895775 -0.01703849993646145 -0.9998472929000854 
vn 0.0038889264687895775 -0.01703849993646145 -0.9998472929000854 
vn 0.0038889264687895775 -0.01703849993646145 -0.9998472929000854 
vn 0.0038889264687895775 -0.01703849993646145 -0.9998472929000854 
vn 0.0038889264687895775 -0.01703849993646145 -0.9998472929000854 
vn 0.0038889264687895775 -0.01703849993646145 -0.9998472929000854 
vn 0.0038889264687895775 -0.01703849993646145 -0.9998472929000854 
vn -1.0341130485562108e-13 0.999997615814209 0.002184694167226553 
vn -1.0341130485562108e-13 0.999997615814209 0.002184694167226553 
vn -1.0341130485562108e-13 0.999997615814209 0.002184694167226553 
vn -1.0341130485562108e-13 0.999997615814209 0.002184694167226553 
vn 0.999997615814209 0 0.002184694167226553 
vn 0.999997615814209 0 0.002184694167226553 
vn 0.999997615814209 0 0.002184694167226553 
vn 0.999997615814209 0 0.002184694167226553 
vn 0.0018878303235396743 0.7078762650489807 -0.7063339352607727 
vn 0.0018878303235396743 0.7078762650489807 -0.7063339352607727 
vn -2.0682311115474694e-13 0 -1 
vn -2.0682311115474694e-13 0 -1 
vn 0.0018878303235396743 -0.7078762650489807 -0.7063339352607727 
vn 0.0018878303235396743 -0.7078762650489807 -0.7063339352607727 
vn 0.0018878303235396743 -0.7078762650489807 -0.7063339352607727 
vn 0.0018878303235396743 -0.7078762650489807 -0.7063339352607727 
vn 3.097898456858039e-13 -0.999997615814209 0.002184694167226553 
vn 3.097898456858039e-13 -0.999997615814209 0.002184694167226553 
vn 0.00376924779266119 -0.707868754863739 0.7063339352607727 
vn 0.00376924779266119 -0.707868754863739 0.7063339352607727 
vn 0.999997615814209 0 0.002184694167226553 
vn 0.999997615814209 0 0.002184694167226553 
vn 0.999997615814209 0 0.002184694167226553 
vn 0.999997615814209 0 0.002184694167226553 
vn 0.00376924779266119 -0.707868754863739 0.7063339352607727 
vn 0.00376924779266119 -0.707868754863739 0.7063339352607727 
vn 0 0 1 
vn 0 0 1 
vn 0.00376924779266119 0.707868754863739 0.7063339352607727 
vn 0.00376924779266119 0.707868754863739 0.7063339352607727 
vn 0.00376924779266119 0.707868754863739 0.7063339352607727 
vn 0.00376924779266119 0.707868754863739 0.7063339352607727 
vn -1.0341130485562108e-13 0.999997615814209 0.002184694167226553 
vn -1.0341130485562108e-13 0.999997615814209 0.002184694167226553 
vn 0.0018878303235396743 0.7078762650489807 -0.7063339352607727 
vn 0.0018878303235396743 0.7078762650489807 -0.7063339352607727 
vn 0.003776692319661379 0.9593175053596497 -0.28230419754981995 
vn 0.003776692319661379 0.9593175053596497 -0.28230419754981995 
vn 0.003776692319661379 0.9593175053596497 -0.28230419754981995 
vn 0.003776692319661379 0.9593175053596497 -0.28230419754981995 
vn 3.097898456858039e-13 -0.999997615814209 0.002184694167226553 
vn 3.097898456858039e-13 -0.999997615814209 0.002184694167226553 
vn 3.097898456858039e-13 -0.999997615814209 0.002184694167226553 
vn 3.097898456858039e-13 -0.999997615814209 0.002184694167226553 
vn 3.097898456858039e-13 -0.999997615814209 0.002184694167226553 
vn 3.097898456858039e-13 -0.999997615814209 0.002184694167226553 
vn 3.097898456858039e-13 -0.999997615814209 0.002184694167226553 
vn 3.097898456858039e-13 -0.999997615814209 0.002184694167226553 
vn 0.003776692319661379 0.9593175053596497 -0.28230419754981995 
vn 0.003776692319661379 0.9593175053596497 -0.28230419754981995 
vn 0.003776692319661379 0.9593175053596497 -0.28230419754981995 
vn 0.003776692319661379 0.9593175053596497 -0.28230419754981995 
vn 9.871211514205294e-14 -0.31773048639297485 -0.9481810927391052 
vn 9.871211514205294e-14 -0.31773048639297485 -0.9481810927391052 
vn 9.871211514205294e-14 -0.31773048639297485 -0.9481810927391052 
vn 9.871211514205294e-14 -0.31773048639297485 -0.9481810927391052 
vn 0.007566623389720917 -0.09131556749343872 -0.9957932829856873 
vn 0.007566623389720917 -0.09131556749343872 -0.9957932829856873 
vn 0.007566623389720917 -0.09131556749343872 -0.9957932829856873 
vn 0.007566623389720917 -0.09131556749343872 -0.9957932829856873 
vn 0.999997615814209 0 0.002184694167226553 
vn 0.999997615814209 0 0.002184694167226553 
vn 0.999997615814209 0 0.002184694167226553 
vn 0.999997615814209 0 0.002184694167226553 
vn 0.999997615814209 0 0.002184694167226553 
vn 0.999997615814209 0 0.002184694167226553 
vn 0.999997615814209 0 0.002184694167226553 
vn 0.999997615814209 0 0.002184694167226553 
vn -0.007566623389720917 -0.09131556749343872 -0.9957932829856873 
vn -0.007566623389720917 -0.09131556749343872 -0.9957932829856873 
vn -0.007566623389720917 -0.09131556749343872 -0.9957932829856873 
vn -0.007566623389720917 -0.09131556749343872 -0.9957932829856873 
vn -0.999997615814209 -2.0682260971124217e-13 0.002184694167226553 
vn -0.999997615814209 -2.0682260971124217e-13 0.002184694167226553 
vn -0.999997615814209 -2.0682260971124217e-13 0.002184694167226553 
vn -0.999997615814209 -2.0682260971124217e-13 0.002184694167226553 
vn 0.999997615814209 0 0.002184694167226553 
vn 0.999997615814209 0 0.002184694167226553 
vn 0.999997615814209 0 0.002184694167226553 
vn 0.999997615814209 0 0.002184694167226553 
vn 9.871211514205294e-14 -0.31773048639297485 -0.9481810927391052 
vn 9.871211514205294e-14 -0.31773048639297485 -0.9481810927391052 
vn 9.871211514205294e-14 -0.31773048639297485 -0.9481810927391052 
vn 9.871211514205294e-14 -0.31773048639297485 -0.9481810927391052 
vn 0.4691402316093445 0.5503078103065491 0.6907016038894653 
vn 0.03011110983788967 0.6225179433822632 0.7820260524749756 
vn 0.4789130687713623 0.1912359595298767 0.8567795157432556 
vn 0.03172066807746887 0.22301390767097473 0.9742990136146545 
vn 0.486855685710907 -0.191462442278862 0.8522403836250305 
vn 0.03172066807746887 -0.22301390767097473 0.9742990136146545 
vn 0.49597057700157166 -0.5425735712051392 0.677958071231842 
vn 0.03011110983788967 -0.6225179433822632 0.7820260524749756 
vn 0.49855443835258484 -0.7805251479148865 0.37712597846984863 
vn 0.028275176882743835 -0.9009311199188232 0.43303996324539185 
vn 0.5043525099754333 -0.8634950518608093 0.002184694167226553 
vn 0.0302029550075531 -0.9995414018630981 0.002184694167226553 
vn 0.49855443835258484 -0.7805251479148865 -0.37712597846984863 
vn 0.033972978591918945 -0.9007342457771301 -0.43303996324539185 
vn 0.49449422955513 -0.5439194440841675 -0.677958071231842 
vn 0.02645130082964897 -0.6226841807365417 -0.7820260524749756 
vn 0.48669058084487915 -0.1918817162513733 -0.8522403836250305 
vn 0.028307467699050903 -0.22347278892993927 -0.9742990136146545 
vn 0.4787435233592987 0.19165998697280884 -0.8567795157432556 
vn 0.028307467699050903 0.22347278892993927 -0.9742990136146545 
vn 0.4675544798374176 0.5516557693481445 -0.6907016038894653 
vn 0.02645130082964897 0.6226841807365417 -0.7820260524749756 
vn 0.4679383933544159 0.7953934669494629 -0.3852050006389618 
vn 0.02642589993774891 0.9009872674942017 -0.43303996324539185 
vn 0.46472206711769104 0.8854539394378662 0.002184694167226553 
vn 0.0302029550075531 0.9995414018630981 -0.002184694167226553 
vn 0.4679383933544159 0.7953934669494629 0.3852050006389618 
vn 0.028275176882743835 0.9009311199188232 0.43303996324539185 
vn 0.4691402316093445 0.5503078103065491 0.6907016038894653 
vn 0.03011110983788967 0.6225179433822632 0.7820260524749756 
vn -6.445081149547907e-14 0.6232457756996155 0.7820260524749756 
vn 0.0018764362903311849 0.2209913283586502 0.9752739667892456 
vn 0.0018764362903311849 -0.2209913283586502 0.9752739667892456 
vn 1.930756580005924e-13 -0.6232457756996155 0.7820260524749756 
vn -0.0018853197107091546 -0.9013727307319641 0.43303996324539185 
vn 3.097898456858039e-13 -0.999997615814209 -0.002184694167226553 
vn 0.0037756585516035557 -0.9013668298721313 -0.43303996324539185 
vn 0.003779869293794036 -0.6232342720031738 -0.7820260524749756 
vn -0.001896943198516965 -0.22099114954471588 -0.9752739667892456 
vn -0.001896943198516965 0.22099114954471588 -0.9752739667892456 
vn 0.003779869293794036 0.6232342720031738 -0.7820260524749756 
vn 0.0037756585516035557 0.9013668298721313 -0.43303996324539185 
vn -1.0341130485562108e-13 0.999997615814209 -0.002184694167226553 
vn -0.0018853197107091546 0.9013727307319641 0.43303996324539185 
vn -6.445081149547907e-14 0.6232457756996155 0.7820260524749756 
vn -6.445081149547907e-14 0.6232457756996155 0.7820260524749756 
vn 0.0018764362903311849 0.2209913283586502 0.9752739667892456 
vn 0.0018764362903311849 -0.2209913283586502 0.9752739667892456 
vn 1.930756580005924e-13 -0.6232457756996155 0.7820260524749756 
vn -0.03011110983788967 -0.6225179433822632 0.7820260524749756 
vn -0.0320437029004097 -0.9008049368858337 0.43303996324539185 
vn -0.5017306804656982 -0.7784872055053711 0.37712597846984863 
vn -0.5043525099754333 -0.8634950518608093 -0.002184694167226553 
vn -0.0302029550075531 -0.9995414018630981 0.002184694167226553 
vn -0.0018853197107091546 -0.9013727307319641 0.43303996324539185 
vn -0.5017306804656982 -0.7784872055053711 -0.37712597846984863 
vn -0.033972978591918945 -0.9007342457771301 -0.43303996324539185 
vn 3.097898456858039e-13 -0.999997615814209 -0.002184694167226553 
vn 0.0037756585516035557 -0.9013668298721313 -0.43303996324539185 
vn -0.003779869293794036 -0.6232342720031738 -0.7820260524749756 
vn -0.47200092673301697 0.5478561520576477 0.6907016038894653 
vn -0.4789130687713623 0.1912359595298767 0.8567795157432556 
vn -0.03011110983788967 0.6225179433822632 0.7820260524749756 
vn -0.028009479865431786 0.22351033985614777 0.9742990136146545 
vn -0.486855685710907 -0.191462442278862 0.8522403836250305 
vn -0.028009479865431786 -0.22351033985614777 0.9742990136146545 
vn -0.4987447261810303 -0.5400246381759644 0.677958071231842 
vn -0.999997615814209 -2.0682260971124217e-13 0.002184694167226553 
vn -0.999997615814209 -2.0682260971124217e-13 0.002184694167226553 
vn -0.999997615814209 -2.0682260971124217e-13 0.002184694167226553 
vn -0.999997615814209 -2.0682260971124217e-13 0.002184694167226553 
vn -0.4972843527793884 -0.5413696765899658 -0.677958071231842 
vn -0.02645130082964897 -0.6226841807365417 -0.7820260524749756 
vn -0.48529213666915894 -0.19539159536361694 -0.8522403836250305 
vn -0.03205763176083565 -0.22296571731567383 -0.9742990136146545 
vn -0.001896943198516965 -0.22099114954471588 -0.9752739667892456 
vn -0.001896943198516965 0.22099114954471588 -0.9752739667892456 
vn -0.47988301515579224 0.198774054646492 -0.8545181155204773 
vn -0.03205763176083565 0.22296571731567383 -0.9742990136146545 
vn -0.47043174505233765 0.5492041707038879 -0.6907016038894653 
vn -0.02645130082964897 0.6226841807365417 -0.7820260524749756 
vn 0.003779869293794036 0.6232342720031738 -0.7820260524749756 
vn 0.0037756585516035557 0.9013668298721313 -0.43303996324539185 
vn -0.4679383933544159 0.7953934669494629 -0.3852050006389618 
vn -0.02642589993774891 0.9009872674942017 -0.43303996324539185 
vn -0.46472206711769104 0.8854539394378662 0.002184694167226553 
vn -0.0302029550075531 0.9995414018630981 -0.002184694167226553 
vn -1.0341130485562108e-13 0.999997615814209 -0.002184694167226553 
vn -0.0018853197107091546 0.9013727307319641 0.43303996324539185 
vn -0.4679383933544159 0.7953934669494629 0.3852050006389618 
vn -0.024506153538823128 0.9010415077209473 0.43303996324539185 
vn -0.47200092673301697 0.5478561520576477 0.6907016038894653 
vn -0.03011110983788967 0.6225179433822632 0.7820260524749756 
vn -6.445081149547907e-14 0.6232457756996155 0.7820260524749756 
vn -0.5043525099754333 -0.8634950518608093 -0.002184694167226553 
vn -0.9944894909858704 -0.09427247196435928 -0.04586252197623253 
vn -0.5017306804656982 -0.7784872055053711 -0.37712597846984863 
vn -0.9946670532226562 -0.06416872143745422 -0.08074574917554855 
vn -0.4972843527793884 -0.5413696765899658 -0.677958071231842 
vn -0.994475245475769 -0.022643303498625755 -0.10250037163496017 
vn -0.48529213666915894 -0.19539159536361694 -0.8522403836250305 
vn -0.994475245475769 0.022643303498625755 -0.10250037163496017 
vn -0.47988301515579224 0.198774054646492 -0.8545181155204773 
vn -0.9937907457351685 0.07167955487966537 -0.08510008454322815 
vn -0.47043174505233765 0.5492041707038879 -0.6907016038894653 
vn -0.9937482476234436 0.10178902745246887 -0.04586252197623253 
vn -0.4679383933544159 0.7953934669494629 -0.3852050006389618 
vn -0.9935884475708008 0.11303620040416718 0.002184694167226553 
vn -0.46472206711769104 0.8854539394378662 0.002184694167226553 
vn -0.9937482476234436 0.10178902745246887 0.04586252197623253 
vn -0.4679383933544159 0.7953934669494629 0.3852050006389618 
vn -0.9937907457351685 0.07167955487966537 0.08510008454322815 
vn -0.47200092673301697 0.5478561520576477 0.6907016038894653 
vn -0.994475245475769 0.022643303498625755 0.10250037163496017 
vn -0.4789130687713623 0.1912359595298767 0.8567795157432556 
vn -0.994475245475769 -0.022643303498625755 0.10250037163496017 
vn -0.486855685710907 -0.191462442278862 0.8522403836250305 
vn -0.9949074983596802 -0.06032618507742882 0.08074574917554855 
vn -0.4987447261810303 -0.5400246381759644 0.677958071231842 
vn -0.9944894909858704 -0.09427247196435928 0.04586252197623253 
vn -0.5017306804656982 -0.7784872055053711 0.37712597846984863 
vn -0.9951823353767395 -0.0980169028043747 -0.002184694167226553 
vn -0.999997615814209 -2.0682260971124217e-13 0.002184694167226553 
vn -0.999997615814209 -2.0682260971124217e-13 0.002184694167226553 
vn -0.999997615814209 -2.0682260971124217e-13 0.002184694167226553 
vn -0.999997615814209 -2.0682260971124217e-13 0.002184694167226553 
vn -0.999997615814209 -2.0682260971124217e-13 0.002184694167226553 
vn -0.999997615814209 -2.0682260971124217e-13 0.002184694167226553 
vn -0.999997615814209 -2.0682260971124217e-13 0.002184694167226553 
vn -0.999997615814209 -2.0682260971124217e-13 0.002184694167226553 
vn -0.999997615814209 -2.0682260971124217e-13 0.002184694167226553 
vn -0.999997615814209 -2.0682260971124217e-13 0.002184694167226553 
vn -0.999997615814209 -2.0682260971124217e-13 0.002184694167226553 
vn -0.999997615814209 -2.0682260971124217e-13 0.002184694167226553 
vn -0.999997615814209 -2.0682260971124217e-13 0.002184694167226553 
vn -0.999997615814209 -2.0682260971124217e-13 0.002184694167226553 
vn -0.999997615814209 -2.0682260971124217e-13 0.002184694167226553 
vn -0.999997615814209 -2.0682260971124217e-13 -0.002184694167226553 
vn -0.999997615814209 -2.0682260971124217e-13 -0.002184694167226553 
vn -0.999997615814209 -2.0682260971124217e-13 0.002184694167226553 
vn -0.999997615814209 -2.0682260971124217e-13 -0.002184694167226553 
vn -0.999997615814209 -2.0682260971124217e-13 -0.002184694167226553 
vn -0.999997615814209 -2.0682260971124217e-13 -0.002184694167226553 
vn -0.999997615814209 -2.0682260971124217e-13 -0.002184694167226553 
vn -0.999997615814209 -2.0682260971124217e-13 -0.002184694167226553 
vn -0.999997615814209 -2.0682260971124217e-13 0.002184694167226553 
vn -0.999997615814209 -2.0682260971124217e-13 0.002184694167226553 
vn -0.999997615814209 -2.0682260971124217e-13 0.002184694167226553 
vn -0.999997615814209 -2.0682260971124217e-13 0.002184694167226553 
vn -0.999997615814209 -2.0682260971124217e-13 0.002184694167226553 
vn -0.999997615814209 -2.0682260971124217e-13 0.002184694167226553 
vn 0.4679383933544159 0.7953934669494629 -0.3852050006389618 
vn 0.9941259622573853 0.09803145378828049 -0.04586252197623253 
vn 0.4675544798374176 0.5516557693481445 -0.6907016038894653 
vn 0.9940552115440369 0.06791296601295471 -0.08510008454322815 
vn 0.4787435233592987 0.19165998697280884 -0.8567795157432556 
vn 0.994475245475769 0.022643303498625755 -0.10250037163496017 
vn 0.48669058084487915 -0.1918817162513733 -0.8522403836250305 
vn 0.994475245475769 -0.022643303498625755 -0.10250037163496017 
vn 0.49449422955513 -0.5439194440841675 -0.677958071231842 
vn 0.9949030876159668 -0.06039886549115181 -0.08074574917554855 
vn 0.49855443835258484 -0.7805251479148865 -0.37712597846984863 
vn 0.9948387742042542 -0.09051214158535004 -0.04586252197623253 
vn 0.5043525099754333 -0.8634950518608093 0.002184694167226553 
vn 0.9951823353767395 -0.0980169028043747 0.002184694167226553 
vn 0.49855443835258484 -0.7805251479148865 0.37712597846984863 
vn 0.9948387742042542 -0.09051214158535004 0.04586252197623253 
vn 0.49597057700157166 -0.5425735712051392 0.677958071231842 
vn 0.9949074983596802 -0.06032618507742882 0.08074574917554855 
vn 0.486855685710907 -0.191462442278862 0.8522403836250305 
vn 0.994475245475769 -0.022643303498625755 0.10250037163496017 
vn 0.4789130687713623 0.1912359595298767 0.8567795157432556 
vn 0.994475245475769 0.022643303498625755 0.10250037163496017 
vn 0.4691402316093445 0.5503078103065491 0.6907016038894653 
vn 0.9940552115440369 0.06791296601295471 0.08510008454322815 
vn 0.4679383933544159 0.7953934669494629 0.3852050006389618 
vn 0.9941259622573853 0.09803145378828049 0.04586252197623253 
vn 0.46472206711769104 0.8854539394378662 0.002184694167226553 
vn 0.9935884475708008 0.11303620040416718 -0.002184694167226553 
vn 0.999997615814209 0 -0.002184694167226553 
vn 0.999997615814209 0 -0.002184694167226553 
vn 0.999997615814209 0 -0.002184694167226553 
vn 0.999997615814209 0 -0.002184694167226553 
vn 0.999997615814209 0 -0.002184694167226553 
vn 0.999997615814209 0 -0.002184694167226553 
vn 0.999997615814209 0 -0.002184694167226553 
vn 0.999997615814209 0 0.002184694167226553 
vn 0.999997615814209 0 0.002184694167226553 
vn 0.999997615814209 0 0.002184694167226553 
vn 0.999997615814209 0 0.002184694167226553 
vn 0.999997615814209 0 0.002184694167226553 
vn 0.999997615814209 0 0.002184694167226553 
vn 0.999997615814209 0 0.002184694167226553 
vn 0.999997615814209 0 -0.002184694167226553 
vn 0.999997615814209 0 -0.002184694167226553 
vn 0.999997615814209 0 -0.002184694167226553 
vn 0.999997615814209 0 0.002184694167226553 
vn 0.999997615814209 0 -0.002184694167226553 
vn 0.999997615814209 0 -0.002184694167226553 
vn 0.999997615814209 0 -0.002184694167226553 
vn 0.999997615814209 0 0.002184694167226553 
vn 0.999997615814209 0 0.002184694167226553 
vn 0.999997615814209 0 0.002184694167226553 
vn 0.999997615814209 0 0.002184694167226553 
vn 0.999997615814209 0 0.002184694167226553 
vn 0.999997615814209 0 0.002184694167226553 
vn 0.999997615814209 0 0.002184694167226553 
vn 0.999997615814209 0 0.002184694167226553 
vn -1.0340933296291988e-13 0.9999785423278809 -0.006554040592163801 
vn 0 0 1 
vn 0 0 1 
vn -1.0340933296291988e-13 0.9999785423278809 -0.006554040592163801 
vn 0 0 1 
s on 
f 1//1 2//2 3//3 
f 2//2 4//4 3//3 
f 3//3 4//4 5//5 
f 4//4 6//6 5//5 
f 5//5 6//6 7//7 
f 6//6 8//8 7//7 
f 7//7 8//8 8//8 
f 8//8 6//6 8//8 
f 8//8 6//6 6//6 
f 6//6 9//9 6//6 
f 6//6 9//9 8//8 
f 9//9 10//10 8//8 
f 8//8 10//10 10//10 
f 10//10 9//9 10//10 
f 10//10 9//9 11//11 
f 9//9 12//12 11//11 
f 11//11 12//12 12//12 
f 12//12 9//9 12//12 
f 12//12 9//9 9//9 
f 9//9 13//13 9//9 
f 9//9 13//13 12//12 
f 13//13 14//14 12//12 
f 12//12 14//14 14//14 
f 14//14 13//13 14//14 
f 14//14 13//13 15//15 
f 13//13 4//4 15//15 
f 15//15 4//4 2//2 
f 4//4 2//2 2//2 
f 2//2 2//2 16//16 
f 2//2 16//16 16//16 
f 16//16 16//16 16//16 
f 16//16 17//17 16//16 
f 16//16 17//17 18//18 
f 17//17 19//19 18//18 
f 18//18 19//19 19//19 
f 19//19 20//20 19//19 
f 19//19 20//20 20//20 
f 20//20 21//21 20//20 
f 20//20 21//21 22//22 
f 21//21 23//23 22//22 
f 22//22 23//23 23//23 
f 23//23 24//24 23//23 
f 23//23 24//24 24//24 
f 24//24 25//25 24//24 
f 24//24 25//25 26//26 
f 25//25 27//27 26//26 
f 26//26 27//27 28//28 
f 27//27 28//28 28//28 
f 28//28 28//28 26//26 
f 28//28 26//26 26//26 
f 26//26 26//26 26//26 
f 26//26 28//28 26//26 
f 26//26 28//28 29//29 
f 28//28 30//30 29//29 
f 29//29 30//30 31//31 
f 30//30 31//31 31//31 
f 31//31 31//31 32//32 
f 31//31 32//32 32//32 
f 32//32 32//32 32//32 
f 32//32 33//33 32//32 
f 32//32 33//33 34//34 
f 33//33 35//35 34//34 
f 34//34 35//35 35//35 
f 35//35 36//36 35//35 
f 35//35 36//36 36//36 
f 36//36 37//37 36//36 
f 36//36 37//37 38//38 
f 37//37 39//39 38//38 
f 38//38 39//39 39//39 
f 39//39 40//40 39//39 
f 39//39 40//40 40//40 
f 40//40 41//41 40//40 
f 40//40 41//41 42//42 
f 41//41 43//43 42//42 
f 42//42 43//43 43//43 
f 43//43 44//44 43//43 
f 43//43 44//44 44//44 
f 44//44 45//45 44//44 
f 44//44 45//45 46//46 
f 45//45 47//47 46//46 
f 46//46 47//47 48//48 
f 47//47 48//48 48//48 
f 48//48 48//48 46//46 
f 48//48 46//46 46//46 
f 46//46 46//46 46//46 
f 46//46 48//48 46//46 
f 46//46 48//48 49//49 
f 48//48 50//50 49//49 
f 49//49 50//50 51//51 
f 50//50 51//51 51//51 
f 51//51 51//51 52//52 
f 51//51 52//52 52//52 
f 52//52 52//52 52//52 
f 52//52 53//53 52//52 
f 52//52 53//53 54//54 
f 53//53 55//55 54//54 
f 54//54 55//55 55//55 
f 55//55 56//56 55//55 
f 55//55 56//56 56//56 
f 56//56 57//57 56//56 
f 56//56 57//57 58//58 
f 57//57 59//59 58//58 
f 58//58 59//59 59//59 
f 59//59 60//60 59//59 
f 59//59 60//60 60//60 
f 60//60 61//61 60//60 
f 60//60 61//61 62//62 
f 61//61 63//63 62//62 
f 62//62 63//63 64//64 
f 63//63 65//65 64//64 
f 64//64 65//65 66//66 
f 65//65 67//67 66//66 
f 66//66 67//67 67//67 
f 67//67 65//65 67//67 
f 67//67 65//65 65//65 
f 65//65 68//68 65//65 
f 65//65 68//68 67//67 
f 68//68 69//69 67//67 
f 67//67 69//69 69//69 
f 69//69 68//68 69//69 
f 69//69 68//68 70//70 
f 68//68 71//71 70//70 
f 70//70 71//71 71//71 
f 71//71 68//68 71//71 
f 71//71 68//68 68//68 
f 68//68 72//72 68//68 
f 68//68 72//72 71//71 
f 72//72 73//73 71//71 
f 71//71 73//73 73//73 
f 73//73 72//72 73//73 
f 73//73 72//72 74//74 
f 72//72 63//63 74//74 
f 74//74 63//63 61//61 
f 63//63 61//61 61//61 
f 61//61 61//61 5//5 
f 61//61 5//5 5//5 
f 5//5 5//5 5//5 
f 5//5 75//75 5//5 
f 5//5 75//75 3//3 
f 75//75 76//76 3//3 
f 3//3 76//76 76//76 
f 76//76 77//77 76//76 
f 76//76 77//77 77//77 
f 77//77 78//78 77//77 
f 77//77 78//78 79//79 
f 78//78 80//80 79//79 
f 79//79 80//80 81//81 
f 80//80 82//82 81//81 
f 81//81 82//82 83//83 
f 82//82 84//84 83//83 
f 83//83 84//84 84//84 
f 84//84 82//82 84//84 
f 84//84 82//82 82//82 
f 82//82 85//85 82//82 
f 82//82 85//85 84//84 
f 85//85 86//86 84//84 
f 84//84 86//86 86//86 
f 86//86 85//85 86//86 
f 86//86 85//85 87//87 
f 85//85 88//88 87//87 
f 87//87 88//88 89//89 
f 88//88 89//89 89//89 
f 89//89 89//89 85//85 
f 89//89 85//85 85//85 
f 85//85 85//85 85//85 
f 85//85 90//90 85//85 
f 85//85 90//90 88//88 
f 90//90 91//91 88//88 
f 88//88 91//91 91//91 
f 91//91 90//90 91//91 
f 91//91 90//90 92//92 
f 90//90 80//80 92//92 
f 92//92 80//80 78//78 
f 80//80 78//78 78//78 
f 78//78 78//78 93//93 
f 78//78 93//93 93//93 
f 93//93 93//93 93//93 
f 93//93 94//94 93//93 
f 93//93 94//94 95//95 
f 94//94 96//96 95//95 
f 95//95 96//96 96//96 
f 96//96 94//94 96//96 
f 96//96 94//94 94//94 
f 94//94 97//97 94//94 
f 94//94 97//97 96//96 
f 97//97 98//98 96//96 
f 96//96 98//98 98//98 
f 98//98 97//97 98//98 
f 98//98 97//97 99//99 
f 97//97 100//100 99//99 
f 99//99 100//100 100//100 
f 100//100 101//101 100//100 
f 100//100 101//101 101//101 
f 101//101 102//102 101//101 
f 101//101 102//102 103//103 
f 102//102 104//104 103//103 
f 103//103 104//104 104//104 
f 104//104 105//105 104//104 
f 104//104 105//105 105//105 
f 105//105 106//106 105//105 
f 105//105 106//106 107//107 
f 106//106 108//108 107//107 
f 107//107 108//108 109//109 
f 108//108 110//110 109//109 
f 109//109 110//110 111//111 
f 110//110 112//112 111//111 
f 111//111 112//112 112//112 
f 112//112 113//113 112//112 
f 112//112 113//113 113//113 
f 113//113 114//114 113//113 
f 113//113 114//114 115//115 
f 114//114 116//116 115//115 
f 115//115 116//116 116//116 
f 116//116 117//117 116//116 
f 116//116 117//117 117//117 
f 117//117 118//118 117//117 
f 117//117 118//118 119//119 
f 118//118 120//120 119//119 
f 119//119 120//120 121//121 
f 120//120 122//122 121//121 
f 121//121 122//122 123//123 
f 122//122 124//124 123//123 
f 123//123 124//124 124//124 
f 124//124 125//125 124//124 
f 124//124 125//125 125//125 
f 125//125 126//126 125//125 
f 125//125 126//126 127//127 
f 126//126 128//128 127//127 
f 127//127 128//128 128//128 
f 128//128 129//129 128//128 
f 128//128 129//129 129//129 
f 129//129 130//130 129//129 
f 129//129 130//130 131//131 
f 130//130 132//132 131//131 
f 131//131 132//132 133//133 
f 132//132 134//134 133//133 
f 133//133 134//134 135//135 
f 134//134 136//136 135//135 
f 135//135 136//136 136//136 
f 136//136 134//134 136//136 
f 136//136 134//134 134//134 
f 134//134 137//137 134//134 
f 134//134 137//137 136//136 
f 137//137 138//138 136//136 
f 136//136 138//138 138//138 
f 138//138 137//137 138//138 
f 138//138 137//137 139//139 
f 137//137 140//140 139//139 
f 139//139 140//140 140//140 
f 140//140 137//137 140//140 
f 140//140 137//137 137//137 
f 137//137 141//141 137//137 
f 137//137 141//141 140//140 
f 141//141 142//142 140//140 
f 140//140 142//142 142//142 
f 142//142 141//141 142//142 
f 142//142 141//141 143//143 
f 141//141 132//132 143//143 
f 143//143 132//132 130//130 
f 132//132 130//130 130//130 
f 130//130 130//130 144//144 
f 130//130 144//144 144//144 
f 144//144 144//144 144//144 
f 144//144 145//145 144//144 
f 144//144 145//145 146//146 
f 145//145 147//147 146//146 
f 146//146 147//147 147//147 
f 147//147 145//145 147//147 
f 147//147 145//145 145//145 
f 145//145 148//148 145//145 
f 145//145 148//148 147//147 
f 148//148 149//149 147//147 
f 147//147 149//149 149//149 
f 149//149 148//148 149//149 
f 149//149 148//148 150//150 
f 148//148 151//151 150//150 
f 150//150 151//151 151//151 
f 151//151 152//152 151//151 
f 151//151 152//152 152//152 
f 152//152 153//153 152//152 
f 152//152 153//153 154//154 
f 153//153 155//155 154//154 
f 154//154 155//155 155//155 
f 155//155 156//156 155//155 
f 155//155 156//156 156//156 
f 156//156 157//157 156//156 
f 156//156 157//157 158//158 
f 157//157 159//159 158//158 
f 158//158 159//159 159//159 
f 159//159 160//160 159//159 
f 159//159 160//160 160//160 
f 160//160 161//161 160//160 
f 160//160 161//161 162//162 
f 161//161 163//163 162//162 
f 162//162 163//163 163//163 
f 163//163 164//164 163//163 
f 163//163 164//164 164//164 
f 164//164 165//165 164//164 
f 164//164 165//165 166//166 
f 165//165 167//167 166//166 
f 166//166 167//167 167//167 
f 167//167 168//168 167//167 
f 167//167 168//168 168//168 
f 168//168 169//169 168//168 
f 168//168 169//169 170//170 
f 169//169 171//171 170//170 
f 170//170 171//171 171//171 
f 171//171 172//172 171//171 
f 171//171 172//172 172//172 
f 172//172 173//173 172//172 
f 172//172 173//173 174//174 
f 173//173 175//175 174//174 
f 174//174 175//175 175//175 
f 175//175 176//176 175//175 
f 175//175 176//176 176//176 
f 176//176 177//177 176//176 
f 176//176 177//177 178//178 
f 177//177 179//179 178//178 
f 178//178 179//179 179//179 
f 179//179 180//180 179//179 
f 179//179 180//180 180//180 
f 180//180 181//181 180//180 
f 180//180 181//181 182//182 
f 181//181 183//183 182//182 
f 182//182 183//183 183//183 
f 183//183 184//184 183//183 
f 183//183 184//184 184//184 
f 184//184 185//185 184//184 
f 184//184 185//185 186//186 
f 185//185 187//187 186//186 
f 186//186 187//187 188//188 
f 187//187 189//189 188//188 
f 188//188 189//189 190//190 
f 189//189 191//191 190//190 
f 190//190 191//191 191//191 
f 191//191 192//192 191//191 
f 191//191 192//192 192//192 
f 192//192 193//193 192//192 
f 192//192 193//193 194//194 
f 193//193 195//195 194//194 
f 194//194 195//195 195//195 
f 195//195 196//196 195//195 
f 195//195 196//196 196//196 
f 196//196 197//197 196//196 
f 196//196 197//197 198//198 
f 197//197 199//199 198//198 
f 198//198 199//199 199//199 
f 199//199 200//200 199//199 
f 199//199 200//200 200//200 
f 200//200 201//201 200//200 
f 200//200 201//201 202//202 
f 201//201 203//203 202//202 
f 202//202 203//203 203//203 
f 203//203 204//204 203//203 
f 203//203 204//204 204//204 
f 204//204 205//205 204//204 
f 204//204 205//205 206//206 
f 205//205 207//207 206//206 
f 206//206 207//207 207//207 
f 207//207 208//208 207//207 
f 207//207 208//208 208//208 
f 208//208 209//209 208//208 
f 208//208 209//209 210//210 
f 209//209 211//211 210//210 
f 210//210 211//211 211//211 
f 211//211 212//212 211//211 
f 211//211 212//212 212//212 
f 212//212 213//213 212//212 
f 212//212 213//213 214//214 
f 213//213 215//215 214//214 
f 214//214 215//215 215//215 
f 215//215 216//216 215//215 
f 215//215 216//216 216//216 
f 216//216 217//217 216//216 
f 216//216 217//217 218//218 
f 217//217 219//219 218//218 
f 218//218 219//219 219//219 
f 219//219 220//220 219//219 
f 219//219 220//220 220//220 
f 220//220 221//221 220//220 
f 220//220 221//221 222//222 
f 221//221 223//223 222//222 
f 222//222 223//223 223//223 
f 223//223 224//224 223//223 
f 223//223 224//224 224//224 
f 224//224 225//225 224//224 
f 224//224 225//225 226//226 
f 225//225 227//227 226//226 
f 226//226 227//227 228//228 
f 227//227 229//229 228//228 
f 228//228 229//229 229//229 
f 229//229 230//230 229//229 
f 229//229 230//230 230//230 
f 230//230 231//231 230//230 
f 230//230 231//231 232//232 
f 231//231 233//233 232//232 
f 232//232 233//233 234//234 
f 233//233 235//235 234//234 
f 234//234 235//235 235//235 
f 235//235 236//236 235//235 
f 235//235 236//236 236//236 
f 236//236 237//237 236//236 
f 236//236 237//237 238//238 
f 237//237 239//239 238//238 
f 238//238 239//239 239//239 
f 239//239 240//240 239//239 
f 239//239 240//240 240//240 
f 240//240 241//241 240//240 
f 240//240 241//241 242//242 
f 241//241 243//243 242//242 
f 242//242 243//243 244//244 
f 243//243 245//245 244//244 
f 244//244 245//245 245//245 
f 245//245 246//246 245//245 
f 245//245 246//246 246//246 
f 246//246 247//247 246//246 
f 246//246 247//247 248//248 
f 247//247 249//249 248//248 
f 248//248 249//249 250//250 
f 249//249 251//251 250//250 
f 250//250 251//251 251//251 
f 251//251 252//252 251//251 
f 251//251 252//252 252//252 
f 252//252 253//253 252//252 
f 252//252 253//253 254//254 
f 253//253 255//255 254//254 
f 254//254 255//255 255//255 
f 255//255 256//256 255//255 
f 255//255 256//256 256//256 
f 256//256 257//257 256//256 
f 256//256 257//257 258//258 
f 257//257 259//259 258//258 
f 258//258 259//259 259//259 
f 259//259 260//260 259//259 
f 259//259 260//260 260//260 
f 260//260 261//261 260//260 
f 260//260 261//261 262//262 
f 261//261 263//263 262//262 
f 262//262 263//263 263//263 
f 263//263 264//264 263//263 
f 263//263 264//264 264//264 
f 264//264 265//265 264//264 
f 264//264 265//265 266//266 
f 265//265 267//267 266//266 
f 266//266 267//267 267//267 
f 267//267 268//268 267//267 
f 267//267 268//268 268//268 
f 268//268 269//269 268//268 
f 268//268 269//269 270//270 
f 269//269 271//271 270//270 
f 270//270 271//271 271//271 
f 271//271 272//272 271//271 
f 271//271 272//272 272//272 
f 272//272 273//273 272//272 
f 272//272 273//273 274//274 
f 273//273 275//275 274//274 
f 274//274 275//275 275//275 
f 275//275 276//276 275//275 
f 275//275 276//276 276//276 
f 276//276 277//277 276//276 
f 276//276 277//277 278//278 
f 277//277 279//279 278//278 
f 278//278 279//279 280//280 
f 279//279 281//281 280//280 
f 280//280 281//281 282//282 
f 281//281 283//283 282//282 
f 282//282 283//283 283//283 
f 283//283 284//284 283//283 
f 283//283 284//284 284//284 
f 284//284 285//285 284//284 
f 284//284 285//285 286//286 
f 285//285 287//287 286//286 
f 286//286 287//287 287//287 
f 287//287 288//288 287//287 
f 287//287 288//288 288//288 
f 288//288 289//289 288//288 
f 288//288 289//289 290//290 
f 289//289 291//291 290//290 
f 290//290 291//291 291//291 
f 291//291 292//292 291//291 
f 291//291 292//292 292//292 
f 292//292 293//293 292//292 
f 292//292 293//293 294//294 
f 293//293 295//295 294//294 
f 294//294 295//295 295//295 
f 295//295 296//296 295//295 
f 295//295 296//296 296//296 
f 296//296 297//297 296//296 
f 296//296 297//297 298//298 
f 297//297 299//299 298//298 
f 298//298 299//299 299//299 
f 299//299 300//300 299//299 
f 299//299 300//300 300//300 
f 300//300 301//301 300//300 
f 300//300 301//301 302//302 
f 301//301 303//303 302//302 
f 302//302 303//303 304//304 
f 303//303 305//305 304//304 
f 304//304 305//305 306//306 
f 305//305 307//307 306//306 
f 306//306 307//307 308//308 
f 307//307 309//309 308//308 
f 308//308 309//309 310//310 
f 309//309 311//311 310//310 
f 310//310 311//311 312//312 
f 311//311 313//313 312//312 
f 312//312 313//313 314//314 
f 313//313 315//315 314//314 
f 314//314 315//315 316//316 
f 315//315 317//317 316//316 
f 316//316 317//317 318//318 
f 317//317 319//319 318//318 
f 318//318 319//319 320//320 
f 319//319 321//321 320//320 
f 320//320 321//321 322//322 
f 321//321 323//323 322//322 
f 322//322 323//323 324//324 
f 323//323 325//325 324//324 
f 324//324 325//325 326//326 
f 325//325 327//327 326//326 
f 326//326 327//327 328//328 
f 327//327 329//329 328//328 
f 328//328 329//329 329//329 
f 329//329 301//301 329//329 
f 329//329 301//301 301//301 
f 301//301 330//330 301//301 
f 301//301 330//330 303//303 
f 330//330 331//331 303//303 
f 303//303 331//331 305//305 
f 331//331 332//332 305//305 
f 305//305 332//332 307//307 
f 332//332 333//333 307//307 
f 307//307 333//333 309//309 
f 333//333 334//334 309//309 
f 309//309 334//334 311//311 
f 334//334 335//335 311//311 
f 311//311 335//335 313//313 
f 335//335 336//336 313//313 
f 313//313 336//336 315//315 
f 336//336 337//337 315//315 
f 315//315 337//337 317//317 
f 337//337 338//338 317//317 
f 317//317 338//338 319//319 
f 338//338 339//339 319//319 
f 319//319 339//339 321//321 
f 339//339 340//340 321//321 
f 321//321 340//340 323//323 
f 340//340 341//341 323//323 
f 323//323 341//341 325//325 
f 341//341 342//342 325//325 
f 325//325 342//342 327//327 
f 342//342 343//343 327//327 
f 327//327 343//343 329//329 
f 343//343 344//344 329//329 
f 329//329 344//344 344//344 
f 344//344 330//330 344//344 
f 344//344 330//330 330//330 
f 330//330 345//345 330//330 
f 330//330 345//345 331//331 
f 345//345 346//346 331//331 
f 331//331 346//346 332//332 
f 346//346 347//347 332//332 
f 332//332 347//347 348//348 
f 347//347 349//349 348//348 
f 348//348 349//349 350//350 
f 349//349 351//351 350//350 
f 350//350 351//351 352//352 
f 351//351 352//352 352//352 
f 352//352 352//352 352//352 
f 352//352 353//353 352//352 
f 352//352 353//353 350//350 
f 353//353 354//354 350//350 
f 350//350 354//354 348//348 
f 354//354 334//334 348//348 
f 348//348 334//334 333//333 
f 334//334 333//333 333//333 
f 333//333 333//333 352//352 
f 333//333 352//352 352//352 
f 352//352 352//352 352//352 
f 352//352 355//355 352//352 
f 352//352 355//355 353//353 
f 355//355 356//356 353//353 
f 353//353 356//356 357//357 
f 356//356 358//358 357//357 
f 357//357 358//358 336//336 
f 358//358 359//359 336//336 
f 336//336 359//359 337//337 
f 359//359 338//338 337//337 
f 337//337 338//338 338//338 
f 338//338 336//336 338//338 
f 338//338 336//336 336//336 
f 336//336 335//335 336//336 
f 336//336 335//335 357//357 
f 335//335 334//334 357//357 
f 357//357 334//334 354//354 
f 334//334 354//354 354//354 
f 354//354 354//354 360//360 
f 354//354 360//360 360//360 
f 360//360 360//360 360//360 
f 360//360 361//361 360//360 
f 360//360 361//361 362//362 
f 361//361 363//363 362//362 
f 362//362 363//363 345//345 
f 363//363 346//346 345//345 
f 345//345 346//346 346//346 
f 346//346 361//361 346//346 
f 346//346 361//361 361//361 
f 361//361 364//364 361//361 
f 361//361 364//364 363//363 
f 364//364 365//365 363//363 
f 363//363 365//365 346//346 
f 365//365 347//347 346//346 
f 346//346 347//347 347//347 
f 347//347 365//365 347//347 
f 347//347 365//365 349//349 
f 365//365 366//366 349//349 
f 349//349 366//366 351//351 
f 366//366 351//351 351//351 
f 351//351 351//351 367//367 
f 351//351 367//367 367//367 
f 367//367 367//367 367//367 
f 367//367 368//368 367//367 
f 367//367 368//368 369//369 
f 368//368 370//370 369//369 
f 369//369 370//370 370//370 
f 370//370 355//355 370//370 
f 370//370 355//355 355//355 
f 355//355 371//371 355//355 
f 355//355 371//371 356//356 
f 371//371 372//372 356//356 
f 356//356 372//372 358//358 
f 372//372 359//359 358//358 
f 358//358 359//359 359//359 
f 359//359 371//371 359//359 
f 359//359 371//371 371//371 
f 371//371 373//373 371//371 
f 371//371 373//373 372//372 
f 373//373 374//374 372//372 
f 372//372 374//374 359//359 
f 374//374 375//375 359//359 
f 359//359 375//375 338//338 
f 375//375 376//376 338//338 
f 338//338 376//376 339//339 
f 376//376 340//340 339//339 
f 339//339 340//340 340//340 
f 340//340 373//373 340//340 
f 340//340 373//373 373//373 
f 373//373 377//377 373//373 
f 373//373 377//377 374//374 
f 377//377 378//378 374//374 
f 374//374 378//378 375//375 
f 378//378 376//376 375//375 
f 375//375 376//376 376//376 
f 376//376 377//377 376//376 
f 376//376 377//377 377//377 
f 377//377 379//379 377//377 
f 377//377 379//379 378//378 
f 379//379 380//380 378//378 
f 378//378 380//380 376//376 
f 380//380 381//381 376//376 
f 376//376 381//381 340//340 
f 381//381 382//382 340//340 
f 340//340 382//382 341//341 
f 382//382 342//342 341//341 
f 341//341 342//342 342//342 
f 342//342 379//379 342//342 
f 342//342 379//379 379//379 
f 379//379 383//383 379//379 
f 379//379 383//383 380//380 
f 383//383 384//384 380//380 
f 380//380 384//384 381//381 
f 384//384 382//382 381//381 
f 381//381 382//382 382//382 
f 382//382 383//383 382//382 
f 382//382 383//383 383//383 
f 383//383 385//385 383//383 
f 383//383 385//385 384//384 
f 385//385 386//386 384//384 
f 384//384 386//386 382//382 
f 386//386 387//387 382//382 
f 382//382 387//387 342//342 
f 387//387 388//388 342//342 
f 342//342 388//388 343//343 
f 388//388 344//344 343//343 
f 343//343 344//344 344//344 
f 344//344 385//385 344//344 
f 344//344 385//385 385//385 
f 385//385 389//389 385//385 
f 385//385 389//389 386//386 
f 389//389 390//390 386//386 
f 386//386 390//390 387//387 
f 390//390 388//388 387//387 
f 387//387 388//388 388//388 
f 388//388 389//389 388//388 
f 388//388 389//389 389//389 
f 389//389 391//391 389//389 
f 389//389 391//391 390//390 
f 391//391 392//392 390//390 
f 390//390 392//392 388//388 
f 392//392 393//393 388//388 
f 388//388 393//393 344//344 
f 393//393 344//344 344//344 
f 344//344 344//344 394//394 
f 344//344 394//394 394//394 
f 394//394 394//394 394//394 
f 394//394 395//395 394//394 
f 394//394 395//395 396//396 
f 395//395 397//397 396//396 
f 396//396 397//397 398//398 
f 397//397 399//399 398//398 
f 398//398 399//399 400//400 
f 399//399 401//401 400//400 
f 400//400 401//401 402//402 
f 401//401 403//403 402//402 
f 402//402 403//403 404//404 
f 403//403 405//405 404//404 
f 404//404 405//405 406//406 
f 405//405 407//407 406//406 
f 406//406 407//407 408//408 
f 407//407 409//409 408//408 
f 408//408 409//409 410//410 
f 409//409 411//411 410//410 
f 410//410 411//411 412//412 
f 411//411 413//413 412//412 
f 412//412 413//413 414//414 
f 413//413 415//415 414//414 
f 414//414 415//415 416//416 
f 415//415 417//417 416//416 
f 416//416 417//417 418//418 
f 417//417 419//419 418//418 
f 418//418 419//419 420//420 
f 419//419 421//421 420//420 
f 420//420 421//421 394//394 
f 421//421 395//395 394//394 
f 394//394 395//395 395//395 
f 395//395 421//421 395//395 
f 395//395 421//421 421//421 
f 421//421 422//422 421//421 
f 421//421 422//422 395//395 
f 422//422 423//423 395//395 
f 395//395 423//423 397//397 
f 423//423 424//424 397//397 
f 397//397 424//424 399//399 
f 424//424 425//425 399//399 
f 399//399 425//425 401//401 
f 425//425 426//426 401//401 
f 401//401 426//426 403//403 
f 426//426 427//427 403//403 
f 403//403 427//427 405//405 
f 427//427 428//428 405//405 
f 405//405 428//428 407//407 
f 428//428 429//429 407//407 
f 407//407 429//429 409//409 
f 429//429 430//430 409//409 
f 409//409 430//430 411//411 
f 430//430 431//431 411//411 
f 411//411 431//431 413//413 
f 431//431 432//432 413//413 
f 413//413 432//432 415//415 
f 432//432 433//433 415//415 
f 415//415 433//433 417//417 
f 433//433 434//434 417//417 
f 417//417 434//434 419//419 
f 434//434 435//435 419//419 
f 419//419 435//435 421//421 
f 435//435 422//422 421//421 
f 421//421 422//422 422//422 
f 422//422 435//435 422//422 
f 422//422 435//435 436//436 
f 435//435 434//434 436//436 
f 436//436 434//434 437//437 
f 434//434 438//438 437//437 
f 437//437 438//438 439//439 
f 438//438 440//440 439//439 
f 439//439 440//440 441//441 
f 440//440 432//432 441//441 
f 441//441 432//432 431//431 
f 432//432 431//431 431//431 
f 431//431 431//431 431//431 
f 431//431 430//430 431//431 
f 431//431 430//430 441//441 
f 430//430 442//442 441//441 
f 441//441 442//442 439//439 
f 442//442 443//443 439//439 
f 439//439 443//443 444//444 
f 443//443 428//428 444//444 
f 444//444 428//428 445//445 
f 428//428 427//427 445//445 
f 445//445 427//427 426//426 
f 427//427 426//426 426//426 
f 426//426 426//426 444//444 
f 426//426 444//444 444//444 
f 444//444 444//444 444//444 
f 444//444 445//445 444//444 
f 444//444 445//445 439//439 
f 445//445 446//446 439//439 
f 439//439 446//446 447//447 
f 446//446 426//426 447//447 
f 447//447 426//426 425//425 
f 426//426 425//425 425//425 
f 425//425 425//425 425//425 
f 425//425 424//424 425//425 
f 425//425 424//424 447//447 
f 424//424 448//448 447//447 
f 447//447 448//448 439//439 
f 448//448 449//449 439//439 
f 439//439 449//449 450//450 
f 449//449 422//422 450//450 
f 450//450 422//422 436//436 
f 422//422 436//436 436//436 
f 436//436 436//436 448//448 
f 436//436 448//448 448//448 
f 448//448 448//448 448//448 
f 448//448 424//424 448//448 
f 448//448 424//424 449//449 
f 424//424 423//423 449//449 
f 449//449 423//423 422//422 
f 423//423 422//422 422//422 
f 422//422 422//422 450//450 
f 422//422 450//450 450//450 
f 450//450 450//450 450//450 
f 450//450 436//436 450//450 
f 450//450 436//436 439//439 
f 436//436 437//437 439//439 
f 439//439 437//437 437//437 
f 437//437 440//440 437//437 
f 437//437 440//440 440//440 
f 440//440 438//438 440//440 
f 440//440 438//438 432//432 
f 438//438 433//433 432//432 
f 432//432 433//433 433//433 
f 433//433 442//442 433//433 
f 433//433 442//442 442//442 
f 442//442 430//430 442//442 
f 442//442 430//430 443//443 
f 430//430 429//429 443//443 
f 443//443 429//429 428//428 
f 429//429 428//428 428//428 
f 428//428 428//428 451//451 
f 428//428 451//451 451//451 
f 451//451 451//451 451//451 
f 451//451 452//452 451//451 
f 451//451 452//452 453//453 
f 452//452 454//454 453//453 
f 453//453 454//454 455//455 
f 454//454 456//456 455//455 
f 455//455 456//456 457//457 
f 456//456 458//458 457//457 
f 457//457 458//458 459//459 
f 458//458 460//460 459//459 
f 459//459 460//460 461//461 
f 460//460 462//462 461//461 
f 461//461 462//462 463//463 
f 462//462 464//464 463//463 
f 463//463 464//464 465//465 
f 464//464 466//466 465//465 
f 465//465 466//466 467//467 
f 466//466 468//468 467//467 
f 467//467 468//468 469//469 
f 468//468 470//470 469//469 
f 469//469 470//470 471//471 
f 470//470 472//472 471//471 
f 471//471 472//472 473//473 
f 472//472 474//474 473//473 
f 473//473 474//474 475//475 
f 474//474 476//476 475//475 
f 475//475 476//476 477//477 
f 476//476 478//478 477//477 
f 477//477 478//478 451//451 
f 478//478 452//452 451//451 
f 451//451 452//452 452//452 
f 452//452 478//478 452//452 
f 452//452 478//478 478//478 
f 478//478 479//479 478//478 
f 478//478 479//479 452//452 
f 479//479 480//480 452//452 
f 452//452 480//480 454//454 
f 480//480 481//481 454//454 
f 454//454 481//481 456//456 
f 481//481 482//482 456//456 
f 456//456 482//482 458//458 
f 482//482 483//483 458//458 
f 458//458 483//483 460//460 
f 483//483 484//484 460//460 
f 460//460 484//484 462//462 
f 484//484 485//485 462//462 
f 462//462 485//485 464//464 
f 485//485 486//486 464//464 
f 464//464 486//486 466//466 
f 486//486 487//487 466//466 
f 466//466 487//487 468//468 
f 487//487 488//488 468//468 
f 468//468 488//488 470//470 
f 488//488 489//489 470//470 
f 470//470 489//489 472//472 
f 489//489 490//490 472//472 
f 472//472 490//490 474//474 
f 490//490 491//491 474//474 
f 474//474 491//491 476//476 
f 491//491 492//492 476//476 
f 476//476 492//492 478//478 
f 492//492 479//479 478//478 
f 478//478 479//479 479//479 
f 479//479 492//492 479//479 
f 479//479 492//492 493//493 
f 492//492 491//491 493//493 
f 493//493 491//491 494//494 
f 491//491 495//495 494//494 
f 494//494 495//495 496//496 
f 495//495 497//497 496//496 
f 496//496 497//497 498//498 
f 497//497 489//489 498//498 
f 498//498 489//489 488//488 
f 489//489 488//488 488//488 
f 488//488 488//488 488//488 
f 488//488 487//487 488//488 
f 488//488 487//487 498//498 
f 487//487 499//499 498//498 
f 498//498 499//499 496//496 
f 499//499 500//500 496//496 
f 496//496 500//500 501//501 
f 500//500 485//485 501//501 
f 501//501 485//485 502//502 
f 485//485 484//484 502//502 
f 502//502 484//484 483//483 
f 484//484 483//483 483//483 
f 483//483 483//483 501//501 
f 483//483 501//501 501//501 
f 501//501 501//501 501//501 
f 501//501 502//502 501//501 
f 501//501 502//502 496//496 
f 502//502 503//503 496//496 
f 496//496 503//503 504//504 
f 503//503 483//483 504//504 
f 504//504 483//483 482//482 
f 483//483 482//482 482//482 
f 482//482 482//482 482//482 
f 482//482 481//481 482//482 
f 482//482 481//481 504//504 
f 481//481 505//505 504//504 
f 504//504 505//505 496//496 
f 505//505 506//506 496//496 
f 496//496 506//506 507//507 
f 506//506 479//479 507//507 
f 507//507 479//479 493//493 
f 479//479 493//493 493//493 
f 493//493 493//493 505//505 
f 493//493 505//505 505//505 
f 505//505 505//505 505//505 
f 505//505 481//481 505//505 
f 505//505 481//481 506//506 
f 481//481 480//480 506//506 
f 506//506 480//480 479//479 
f 480//480 479//479 479//479 
f 479//479 479//479 494//494 
f 479//479 494//494 494//494 
f 494//494 494//494 494//494 
f 494//494 496//496 494//494 
f 494//494 496//496 493//493 
f 496//496 507//507 493//493 
f 493//493 507//507 507//507 
f 507//507 497//497 507//507 
f 507//507 497//497 497//497 
f 497//497 495//495 497//497 
f 497//497 495//495 489//489 
f 495//495 490//490 489//489 
f 489//489 490//490 490//490 
f 490//490 499//499 490//490 
f 490//490 499//499 499//499 
f 499//499 487//487 499//499 
f 499//499 487//487 500//500 
f 487//487 486//486 500//500 
f 500//500 486//486 485//485 
f 70//70 508//508 69//69 
f 10//10 11//11 509//509 
f 87//87 510//510 86//86 
f 139//139 511//511 138//138 
f 89//89 512//512 87//87 
f 353//353 357//357 354//354 
f 366//366 365//365 364//364 
f 332//332 348//348 333//333 
f 434//434 433//433 438//438 
f 426//426 446//446 445//445 
f 483//483 503//503 502//502 
f 491//491 490//490 495//495 

