mtllib model_52.mtl
o model_52
v -7.268477439880371 7.6580400466918945 28.49518585205078 
v -7.268477439880371 7.7245283126831055 28.49518585205078 
v -6.662882328033447 7.6580400466918945 28.93732261657715 
v -6.662882328033447 7.7245283126831055 28.93732261657715 
v -6.1588029861450195 7.6580400466918945 29.494342803955078 
v -6.1588029861450195 7.7245283126831055 29.494342803955078 
v -5.784244537353516 7.6580400466918945 30.14188003540039 
v -5.784244537353516 7.7245283126831055 30.14188003540039 
v -5.553207874298096 7.6580400466918945 30.855562210083008 
v -5.553207874298096 7.7245283126831055 30.855562210083008 
v -5.476195812225342 7.6580400466918945 31.60057830810547 
v -5.476195812225342 7.7245283126831055 31.60057830810547 
v -5.553207874298096 7.6580400466918945 32.34210968017578 
v -5.553207874298096 7.7245283126831055 32.34210968017578 
v -5.784244537353516 7.6580400466918945 33.05579376220703 
v -5.784244537353516 7.7245283126831055 33.05579376220703 
v -6.1588029861450195 7.6580400466918945 33.703330993652344 
v -6.1588029861450195 7.7245283126831055 33.703330993652344 
v -6.662882328033447 7.6580400466918945 34.260353088378906 
v -6.662882328033447 7.7245283126831055 34.260353088378906 
v -7.268477439880371 7.6580400466918945 34.70248794555664 
v -7.268477439880371 7.7245283126831055 34.70248794555664 
v -7.268477439880371 7.7245283126831055 28.49518585205078 
v -7.268477439880371 7.6580400466918945 28.49518585205078 
v -7.951085090637207 7.7245283126831055 28.192306518554688 
v -7.951085090637207 7.6580400466918945 28.192306518554688 
v -8.686200141906738 7.7245283126831055 28.03564453125 
v -8.686200141906738 7.6580400466918945 28.03564453125 
v -9.431817054748535 7.7245283126831055 28.03564453125 
v -9.431817054748535 7.6580400466918945 28.03564453125 
v -10.166933059692383 7.7245283126831055 28.192306518554688 
v -10.166933059692383 7.6580400466918945 28.192306518554688 
v -10.849539756774902 7.7245283126831055 28.49518585205078 
v -10.849539756774902 7.6580400466918945 28.49518585205078 
v -10.849539756774902 7.7245283126831055 34.70248794555664 
v -10.849539756774902 7.6580400466918945 34.70248794555664 
v -10.166933059692383 7.7245283126831055 35.005367279052734 
v -10.166933059692383 7.6580400466918945 35.005367279052734 
v -9.431817054748535 7.7245283126831055 35.16202926635742 
v -9.431817054748535 7.6580400466918945 35.16202926635742 
v -8.686200141906738 7.7245283126831055 35.16202926635742 
v -8.686200141906738 7.6580400466918945 35.16202926635742 
v -7.951085090637207 7.7245283126831055 35.005367279052734 
v -7.951085090637207 7.6580400466918945 35.005367279052734 
v -7.268477439880371 7.7245283126831055 34.70248794555664 
v -7.268477439880371 7.6580400466918945 34.70248794555664 
v -10.849539756774902 7.6580400466918945 34.70248794555664 
v -10.849539756774902 7.7245283126831055 34.70248794555664 
v -11.455135345458984 7.6580400466918945 34.260353088378906 
v -11.455135345458984 7.7245283126831055 34.260353088378906 
v -11.959214210510254 7.6580400466918945 33.703330993652344 
v -11.959214210510254 7.7245283126831055 33.703330993652344 
v -12.333773612976074 7.6580400466918945 33.05579376220703 
v -12.333773612976074 7.7245283126831055 33.05579376220703 
v -12.564809799194336 7.6580400466918945 32.34210968017578 
v -12.564809799194336 7.7245283126831055 32.34210968017578 
v -12.64182186126709 7.6580400466918945 31.60057830810547 
v -12.64182186126709 7.7245283126831055 31.60057830810547 
v -12.564809799194336 7.6580400466918945 30.855562210083008 
v -12.564809799194336 7.7245283126831055 30.855562210083008 
v -12.333773612976074 7.6580400466918945 30.14188003540039 
v -12.333773612976074 7.7245283126831055 30.14188003540039 
v -11.959214210510254 7.6580400466918945 29.494342803955078 
v -11.959214210510254 7.7245283126831055 29.494342803955078 
v -11.455135345458984 7.6580400466918945 28.93732261657715 
v -11.455135345458984 7.7245283126831055 28.93732261657715 
v -10.849539756774902 7.6580400466918945 28.49518585205078 
v -10.849539756774902 7.7245283126831055 28.49518585205078 
v -11.455135345458984 7.7245283126831055 34.260353088378906 
v -10.849539756774902 7.7245283126831055 34.70248794555664 
v -9.057258605957031 7.7245283126831055 31.60057830810547 
v -10.166933059692383 7.7245283126831055 35.005367279052734 
v -9.431817054748535 7.7245283126831055 35.16202926635742 
v -8.686200141906738 7.7245283126831055 35.16202926635742 
v -7.951085090637207 7.7245283126831055 35.005367279052734 
v -7.268477439880371 7.7245283126831055 34.70248794555664 
v -6.662882328033447 7.7245283126831055 34.260353088378906 
v -6.1588029861450195 7.7245283126831055 33.703330993652344 
v -5.784244537353516 7.7245283126831055 33.05579376220703 
v -5.553207874298096 7.7245283126831055 32.34210968017578 
v -5.476195812225342 7.7245283126831055 31.60057830810547 
v -5.553207874298096 7.7245283126831055 30.855562210083008 
v -5.784244537353516 7.7245283126831055 30.14188003540039 
v -6.1588029861450195 7.7245283126831055 29.494342803955078 
v -6.662882328033447 7.7245283126831055 28.93732261657715 
v -7.268477439880371 7.7245283126831055 28.49518585205078 
v -7.951085090637207 7.7245283126831055 28.192306518554688 
v -8.686200141906738 7.7245283126831055 28.03564453125 
v -9.431817054748535 7.7245283126831055 28.03564453125 
v -10.166933059692383 7.7245283126831055 28.192306518554688 
v -10.849539756774902 7.7245283126831055 28.49518585205078 
v -11.455135345458984 7.7245283126831055 28.93732261657715 
v -11.959214210510254 7.7245283126831055 29.494342803955078 
v -12.333773612976074 7.7245283126831055 30.14188003540039 
v -12.564809799194336 7.7245283126831055 30.855562210083008 
v -12.64182186126709 7.7245283126831055 31.60057830810547 
v -12.564809799194336 7.7245283126831055 32.34210968017578 
v -12.333773612976074 7.7245283126831055 33.05579376220703 
v -11.959214210510254 7.7245283126831055 33.703330993652344 
vn 0.5006305575370789 0 -0.865661084651947 
vn 0.5006305575370789 0 -0.865661084651947 
vn 0.669887900352478 0 -0.7424622178077698 
vn 0.669887900352478 0 -0.7424622178077698 
vn 0.8097867965698242 0 -0.5867242813110352 
vn 0.8097867965698242 0 -0.5867242813110352 
vn 0.9141958951950073 0 -0.405272513628006 
vn 0.9141958951950073 0 -0.405272513628006 
vn 0.9785395264625549 0 -0.2060592919588089 
vn 0.9785395264625549 0 -0.2060592919588089 
vn 0.999997615814209 0 0.002184694167226553 
vn 0.999997615814209 0 0.002184694167226553 
vn 0.9785395264625549 0 0.2060592919588089 
vn 0.9785395264625549 0 0.2060592919588089 
vn 0.9141958951950073 0 0.405272513628006 
vn 0.9141958951950073 0 0.405272513628006 
vn 0.8097867965698242 0 0.5867242813110352 
vn 0.8097867965698242 0 0.5867242813110352 
vn 0.669887900352478 0 0.7424622178077698 
vn 0.669887900352478 0 0.7424622178077698 
vn 0.5006305575370789 0 0.865661084651947 
vn 0.5006305575370789 0 0.865661084651947 
vn 0.5006305575370789 0 -0.865661084651947 
vn 0.5006305575370789 0 -0.865661084651947 
vn 0.3094325065612793 0 -0.9509214162826538 
vn 0.3094325065612793 0 -0.9509214162826538 
vn 0.10467331111431122 0 -0.9945066571235657 
vn 0.10467331111431122 0 -0.9945066571235657 
vn -0.10460507124662399 0.003778959158807993 -0.9945066571235657 
vn -0.10460507124662399 0.003778959158807993 -0.9945066571235657 
vn -0.30940940976142883 0.0037824385799467564 -0.9509214162826538 
vn -0.30940940976142883 0.0037824385799467564 -0.9509214162826538 
vn -0.5006305575370789 -1.0354196476993274e-13 -0.865661084651947 
vn -0.5006305575370789 -1.0354196476993274e-13 -0.865661084651947 
vn -0.5006305575370789 -1.0354196476993274e-13 0.865661084651947 
vn -0.5006305575370789 -1.0354196476993274e-13 0.865661084651947 
vn -0.3094097673892975 0.0037532320711761713 0.9509214162826538 
vn -0.3094097673892975 0.0037532320711761713 0.9509214162826538 
vn -0.10467331111431122 -2.164885939514704e-14 0.9945066571235657 
vn -0.10467331111431122 -2.164885939514704e-14 0.9945066571235657 
vn 0.10467331111431122 0 0.9945066571235657 
vn 0.10467331111431122 0 0.9945066571235657 
vn 0.3094325065612793 0 0.9509214162826538 
vn 0.3094325065612793 0 0.9509214162826538 
vn 0.5006305575370789 0 0.865661084651947 
vn 0.5006305575370789 0 0.865661084651947 
vn -0.5006305575370789 -1.0354196476993274e-13 0.865661084651947 
vn -0.5006305575370789 -1.0354196476993274e-13 0.865661084651947 
vn -0.669887900352478 -1.3854829826812076e-13 0.7424622178077698 
vn -0.669887900352478 -1.3854829826812076e-13 0.7424622178077698 
vn -0.8097780346870422 0.003768905298784375 0.5867242813110352 
vn -0.8097780346870422 0.003768905298784375 0.5867242813110352 
vn -0.9141881465911865 0.0037740119732916355 0.405272513628006 
vn -0.9141881465911865 0.0037740119732916355 0.405272513628006 
vn -0.9785322546958923 0.00377198145724833 0.2060592919588089 
vn -0.9785322546958923 0.00377198145724833 0.2060592919588089 
vn -0.999997615814209 -2.0682260971124217e-13 0.002184694167226553 
vn -0.999997615814209 -2.0682260971124217e-13 0.002184694167226553 
vn -0.9785395264625549 -2.0238457719597147e-13 -0.2060592919588089 
vn -0.9785395264625549 -2.0238457719597147e-13 -0.2060592919588089 
vn -0.9141881465911865 0.0037740119732916355 -0.405272513628006 
vn -0.9141881465911865 0.0037740119732916355 -0.405272513628006 
vn -0.8097867965698242 -1.6748261848567592e-13 -0.5867242813110352 
vn -0.8097867965698242 -1.6748261848567592e-13 -0.5867242813110352 
vn -0.6698772311210632 0.0037782832514494658 -0.7424622178077698 
vn -0.6698772311210632 0.0037782832514494658 -0.7424622178077698 
vn -0.5006305575370789 -1.0354196476993274e-13 -0.865661084651947 
vn -0.5006305575370789 -1.0354196476993274e-13 -0.865661084651947 
vn -1.0341130485562108e-13 0.999997615814209 0.002184694167226553 
vn -1.0341130485562108e-13 0.999997615814209 0.002184694167226553 
vn -1.0341130485562108e-13 0.999997615814209 0.002184694167226553 
vn -1.0341130485562108e-13 0.999997615814209 0.002184694167226553 
vn -1.0341130485562108e-13 0.999997615814209 0.002184694167226553 
vn -1.0341130485562108e-13 0.999997615814209 -0.002184694167226553 
vn -1.0341130485562108e-13 0.999997615814209 0.002184694167226553 
vn -1.0341130485562108e-13 0.999997615814209 0.002184694167226553 
vn -1.0341130485562108e-13 0.999997615814209 0.002184694167226553 
vn -1.0341130485562108e-13 0.999997615814209 0.002184694167226553 
vn -1.0341130485562108e-13 0.999997615814209 0.002184694167226553 
vn -1.0341130485562108e-13 0.999997615814209 0.002184694167226553 
vn -1.0341130485562108e-13 0.999997615814209 0.002184694167226553 
vn -1.0341130485562108e-13 0.999997615814209 0.002184694167226553 
vn -1.0341130485562108e-13 0.999997615814209 0.002184694167226553 
vn -1.0341130485562108e-13 0.999997615814209 0.002184694167226553 
vn -1.0341130485562108e-13 0.999997615814209 -0.002184694167226553 
vn -1.0341130485562108e-13 0.999997615814209 -0.002184694167226553 
vn -1.0341130485562108e-13 0.999997615814209 0.002184694167226553 
vn -1.0341130485562108e-13 0.999997615814209 -0.002184694167226553 
vn -1.0341130485562108e-13 0.999997615814209 -0.002184694167226553 
vn -1.0341130485562108e-13 0.999997615814209 0.002184694167226553 
vn -1.0341130485562108e-13 0.999997615814209 0.002184694167226553 
vn -1.0341130485562108e-13 0.999997615814209 0.002184694167226553 
vn -1.0341130485562108e-13 0.999997615814209 0.002184694167226553 
vn -1.0341130485562108e-13 0.999997615814209 0.002184694167226553 
vn -1.0341130485562108e-13 0.999997615814209 -0.002184694167226553 
vn -1.0341130485562108e-13 0.999997615814209 0.002184694167226553 
vn -1.0341130485562108e-13 0.999997615814209 0.002184694167226553 
vn -1.0341130485562108e-13 0.999997615814209 0.002184694167226553 
vn -1.0341130485562108e-13 0.999997615814209 0.002184694167226553 
s on 
f 1//1 2//2 3//3 
f 2//2 4//4 3//3 
f 3//3 4//4 5//5 
f 4//4 6//6 5//5 
f 5//5 6//6 7//7 
f 6//6 8//8 7//7 
f 7//7 8//8 9//9 
f 8//8 10//10 9//9 
f 9//9 10//10 11//11 
f 10//10 12//12 11//11 
f 11//11 12//12 13//13 
f 12//12 14//14 13//13 
f 13//13 14//14 15//15 
f 14//14 16//16 15//15 
f 15//15 16//16 17//17 
f 16//16 18//18 17//17 
f 17//17 18//18 19//19 
f 18//18 20//20 19//19 
f 19//19 20//20 21//21 
f 20//20 22//22 21//21 
f 21//21 22//22 22//22 
f 22//22 23//23 22//22 
f 22//22 23//23 23//23 
f 23//23 24//24 23//23 
f 23//23 24//24 25//25 
f 24//24 26//26 25//25 
f 25//25 26//26 27//27 
f 26//26 28//28 27//27 
f 27//27 28//28 29//29 
f 28//28 30//30 29//29 
f 29//29 30//30 31//31 
f 30//30 32//32 31//31 
f 31//31 32//32 33//33 
f 32//32 34//34 33//33 
f 33//33 34//34 34//34 
f 34//34 35//35 34//34 
f 34//34 35//35 35//35 
f 35//35 36//36 35//35 
f 35//35 36//36 37//37 
f 36//36 38//38 37//37 
f 37//37 38//38 39//39 
f 38//38 40//40 39//39 
f 39//39 40//40 41//41 
f 40//40 42//42 41//41 
f 41//41 42//42 43//43 
f 42//42 44//44 43//43 
f 43//43 44//44 45//45 
f 44//44 46//46 45//45 
f 45//45 46//46 46//46 
f 46//46 47//47 46//46 
f 46//46 47//47 47//47 
f 47//47 48//48 47//47 
f 47//47 48//48 49//49 
f 48//48 50//50 49//49 
f 49//49 50//50 51//51 
f 50//50 52//52 51//51 
f 51//51 52//52 53//53 
f 52//52 54//54 53//53 
f 53//53 54//54 55//55 
f 54//54 56//56 55//55 
f 55//55 56//56 57//57 
f 56//56 58//58 57//57 
f 57//57 58//58 59//59 
f 58//58 60//60 59//59 
f 59//59 60//60 61//61 
f 60//60 62//62 61//61 
f 61//61 62//62 63//63 
f 62//62 64//64 63//63 
f 63//63 64//64 65//65 
f 64//64 66//66 65//65 
f 65//65 66//66 67//67 
f 66//66 68//68 67//67 
f 67//67 68//68 68//68 
f 68//68 69//69 68//68 
f 68//68 69//69 69//69 
f 69//69 70//70 69//69 
f 69//69 70//70 71//71 
f 70//70 72//72 71//71 
f 71//71 72//72 73//73 
f 72//72 73//73 73//73 
f 73//73 73//73 73//73 
f 73//73 74//74 73//73 
f 73//73 74//74 71//71 
f 74//74 75//75 71//71 
f 71//71 75//75 76//76 
f 75//75 76//76 76//76 
f 76//76 76//76 76//76 
f 76//76 77//77 76//76 
f 76//76 77//77 71//71 
f 77//77 78//78 71//71 
f 71//71 78//78 79//79 
f 78//78 79//79 79//79 
f 79//79 79//79 79//79 
f 79//79 80//80 79//79 
f 79//79 80//80 71//71 
f 80//80 81//81 71//71 
f 71//71 81//81 82//82 
f 81//81 82//82 82//82 
f 82//82 82//82 82//82 
f 82//82 83//83 82//82 
f 82//82 83//83 71//71 
f 83//83 84//84 71//71 
f 71//71 84//84 85//85 
f 84//84 85//85 85//85 
f 85//85 85//85 85//85 
f 85//85 86//86 85//85 
f 85//85 86//86 71//71 
f 86//86 87//87 71//71 
f 71//71 87//87 88//88 
f 87//87 88//88 88//88 
f 88//88 88//88 88//88 
f 88//88 89//89 88//88 
f 88//88 89//89 71//71 
f 89//89 90//90 71//71 
f 71//71 90//90 91//91 
f 90//90 91//91 91//91 
f 91//91 91//91 91//91 
f 91//91 92//92 91//91 
f 91//91 92//92 71//71 
f 92//92 93//93 71//71 
f 71//71 93//93 94//94 
f 93//93 94//94 94//94 
f 94//94 94//94 94//94 
f 94//94 95//95 94//94 
f 94//94 95//95 71//71 
f 95//95 96//96 71//71 
f 71//71 96//96 97//97 
f 96//96 97//97 97//97 
f 97//97 97//97 97//97 
f 97//97 98//98 97//97 
f 97//97 98//98 71//71 
f 98//98 99//99 71//71 
f 71//71 99//99 69//69 

