mtllib model_57.mtl
o model_57
v 20.10610008239746 13.62384033203125 43.44461441040039 
v 20.202362060546875 13.62384033203125 43.44461441040039 
v 20.10610008239746 33.96864700317383 43.342594146728516 
v 20.202362060546875 33.96864700317383 43.342594146728516 
v 20.10610008239746 13.62384033203125 43.44461441040039 
v 20.10610008239746 13.471558570861816 43.42660903930664 
v 20.202362060546875 13.62384033203125 43.44461441040039 
v 20.202362060546875 13.471558570861816 43.42660903930664 
v 20.10610008239746 13.349733352661133 43.37229919433594 
v 20.202362060546875 13.349733352661133 43.37229919433594 
v 20.10610008239746 13.22790813446045 43.2747802734375 
v 20.202362060546875 13.22790813446045 43.2747802734375 
v 20.10610008239746 13.187299728393555 43.137657165527344 
v 20.202362060546875 13.187299728393555 43.137657165527344 
v 20.202362060546875 33.96864700317383 42.93241882324219 
v 20.202362060546875 13.62384033203125 42.83039855957031 
v 20.10610008239746 33.96864700317383 42.93241882324219 
v 20.10610008239746 13.62384033203125 42.83039855957031 
v 20.202362060546875 13.187299728393555 43.137657165527344 
v 20.10610008239746 13.187299728393555 43.137657165527344 
v 20.202362060546875 13.22790813446045 43.0002326965332 
v 20.10610008239746 13.22790813446045 43.0002326965332 
v 20.202362060546875 13.349733352661133 42.902713775634766 
v 20.10610008239746 13.349733352661133 42.902713775634766 
v 20.202362060546875 13.471558570861816 42.84840393066406 
v 20.10610008239746 13.471558570861816 42.84840393066406 
v 20.202362060546875 13.62384033203125 42.83039855957031 
v 20.10610008239746 13.62384033203125 42.83039855957031 
vn 0.0013502120273187757 0.0041555254720151424 0.9999904632568359 
vn 0.0013502120273187757 0.0041555254720151424 0.9999904632568359 
vn 0.0013502120273187757 0.0041555254720151424 0.9999904632568359 
vn 0.0013502120273187757 0.0041555254720151424 0.9999904632568359 
vn -0.0018674257444217801 -0.11768529564142227 0.9930492043495178 
vn 0.0037506339140236378 -0.2506926953792572 0.9680594801902771 
vn -0.0018674257444217801 -0.11768529564142227 0.9930492043495178 
vn 0.0037506339140236378 -0.2506926953792572 0.9680594801902771 
vn 1.6368704352023866e-13 -0.5268691182136536 0.8499464392662048 
vn 1.6368704352023866e-13 -0.5268691182136536 0.8499464392662048 
vn -0.0018856831593438983 -0.8199149370193481 0.5724822878837585 
vn -0.0018856831593438983 -0.8199149370193481 0.5724822878837585 
vn 2.9686664368075433e-13 -0.9555421471595764 0.2948545813560486 
vn 2.9686664368075433e-13 -0.9555421471595764 0.2948545813560486 
vn -0.002184688812121749 0.0037839922588318586 -0.9999904632568359 
vn -0.002184688812121749 0.0037839922588318586 -0.9999904632568359 
vn -0.002184688812121749 0.0037839922588318586 -0.9999904632568359 
vn -0.002184688812121749 0.0037839922588318586 -0.9999904632568359 
vn -0.001888001337647438 -0.9555402994155884 -0.2948545813560486 
vn -0.001888001337647438 -0.9555402994155884 -0.2948545813560486 
vn 0.0037768862675875425 -0.8199083805084229 -0.5724822878837585 
vn 0.0037768862675875425 -0.8199083805084229 -0.5724822878837585 
vn 0.0037789817433804274 -0.5268555879592896 -0.8499464392662048 
vn 0.0037789817433804274 -0.5268555879592896 -0.8499464392662048 
vn 7.76709290417274e-14 -0.2507207691669464 -0.9680594801902771 
vn 7.76709290417274e-14 -0.2507207691669464 -0.9680594801902771 
vn 0.0019059260375797749 -0.11768467724323273 -0.9930492043495178 
vn 0.0019059260375797749 -0.11768467724323273 -0.9930492043495178 
s on 
f 1//1 2//2 3//3 
f 2//2 4//4 3//3 
f 3//3 4//4 4//4 
f 4//4 5//5 4//4 
f 4//4 5//5 5//5 
f 5//5 6//6 5//5 
f 5//5 6//6 7//7 
f 6//6 8//8 7//7 
f 7//7 8//8 8//8 
f 8//8 6//6 8//8 
f 8//8 6//6 6//6 
f 6//6 9//9 6//6 
f 6//6 9//9 8//8 
f 9//9 10//10 8//8 
f 8//8 10//10 10//10 
f 10//10 9//9 10//10 
f 10//10 9//9 9//9 
f 9//9 11//11 9//9 
f 9//9 11//11 10//10 
f 11//11 12//12 10//10 
f 10//10 12//12 12//12 
f 12//12 11//11 12//12 
f 12//12 11//11 11//11 
f 11//11 13//13 11//11 
f 11//11 13//13 12//12 
f 13//13 14//14 12//12 
f 12//12 14//14 14//14 
f 14//14 15//15 14//14 
f 14//14 15//15 15//15 
f 15//15 16//16 15//15 
f 15//15 16//16 17//17 
f 16//16 18//18 17//17 
f 17//17 18//18 18//18 
f 18//18 19//19 18//18 
f 18//18 19//19 19//19 
f 19//19 20//20 19//19 
f 19//19 20//20 21//21 
f 20//20 22//22 21//21 
f 21//21 22//22 23//23 
f 22//22 24//24 23//23 
f 23//23 24//24 25//25 
f 24//24 26//26 25//25 
f 25//25 26//26 27//27 
f 26//26 28//28 27//27 

