mtllib model_51.mtl
o model_51
v -25.309297561645508 16.768600463867188 -31.73383140563965 
v -25.18974494934082 16.808429718017578 -31.88391876220703 
v -25.136539459228516 16.808429718017578 -31.817485809326172 
v -25.08189582824707 16.923995971679688 -32.01924133300781 
v -24.980710983276367 16.923995971679688 -31.89253044128418 
v -24.996313095092773 17.104022979736328 -32.12627029418945 
v -24.85706901550293 17.104022979736328 -31.951580047607422 
v -24.941364288330078 17.330833435058594 -32.19516372680664 
v -24.777658462524414 17.330833435058594 -31.989717483520508 
v -24.922468185424805 17.582277297973633 -32.21976852416992 
v -24.75027847290039 17.582277297973633 -32.00325012207031 
v -24.941364288330078 17.833669662475586 -32.19516372680664 
v -24.777658462524414 17.833669662475586 -31.989717483520508 
v -24.996313095092773 18.06048011779785 -32.12627029418945 
v -24.85706901550293 18.06048011779785 -31.951580047607422 
v -25.08189582824707 18.240509033203125 -32.01924133300781 
v -24.980710983276367 18.240509033203125 -31.89253044128418 
v -25.18974494934082 18.356075286865234 -31.88391876220703 
v -25.136539459228516 18.356075286865234 -31.817485809326172 
v -25.309297561645508 18.395904541015625 -31.73383140563965 
v -25.2281436920166 16.923995971679688 -32.0893669128418 
v -25.19758415222168 17.104022979736328 -32.22346115112305 
v -25.177968978881836 17.330833435058594 -32.309574127197266 
v -25.171228408813477 17.582277297973633 -32.3390998840332 
v -25.177968978881836 17.833669662475586 -32.309574127197266 
v -25.19758415222168 18.06048011779785 -32.22346115112305 
v -25.2281436920166 18.240509033203125 -32.0893669128418 
v -25.266618728637695 18.356075286865234 -31.920825958251953 
v -25.309297561645508 18.395904541015625 -31.73383140563965 
v -25.42097282409668 17.104022979736328 -32.22346115112305 
v -25.440587997436523 17.330833435058594 -32.309574127197266 
v -25.447328567504883 17.582277297973633 -32.3390998840332 
v -25.440587997436523 17.833669662475586 -32.309574127197266 
v -25.42097282409668 18.06048011779785 -32.22346115112305 
v -25.390411376953125 18.240509033203125 -32.0893669128418 
v -25.35193634033203 18.356075286865234 -31.920825958251953 
v -25.309297561645508 18.395904541015625 -31.73383140563965 
v -25.67719078063965 17.330833435058594 -32.19516372680664 
v -25.696088790893555 17.582277297973633 -32.21976852416992 
v -25.67719078063965 17.833669662475586 -32.19516372680664 
v -25.622243881225586 18.06048011779785 -32.12627029418945 
v -25.53666114807129 18.240509033203125 -32.01924133300781 
v -25.428810119628906 18.356075286865234 -31.88391876220703 
v -25.309297561645508 18.395904541015625 -31.73383140563965 
v -25.868276596069336 17.582277297973633 -32.00325012207031 
v -25.840898513793945 17.833669662475586 -31.989717483520508 
v -25.76148796081543 18.06048011779785 -31.951580047607422 
v -25.637845993041992 18.240509033203125 -31.89253044128418 
v -25.48201560974121 18.356075286865234 -31.817485809326172 
v -25.309297561645508 18.395904541015625 -31.73383140563965 
v -25.899330139160156 17.833669662475586 -31.73383140563965 
v -25.811208724975586 18.06048011779785 -31.73383140563965 
v -25.673934936523438 18.240509033203125 -31.73383140563965 
v -25.500988006591797 18.356075286865234 -31.73383140563965 
v -25.309297561645508 18.395904541015625 -31.73383140563965 
v -25.76148796081543 18.06048011779785 -31.516082763671875 
v -25.637845993041992 18.240509033203125 -31.576364517211914 
v -25.48201560974121 18.356075286865234 -31.65140724182129 
v -25.309297561645508 18.395904541015625 -31.73383140563965 
v -25.53666114807129 18.240509033203125 -31.44965171813965 
v -25.428810119628906 18.356075286865234 -31.583744049072266 
v -25.309297561645508 18.395904541015625 -31.73383140563965 
v -25.622243881225586 18.06048011779785 -31.341392517089844 
v -25.840898513793945 17.833669662475586 -31.47794532775879 
v -25.67719078063965 17.833669662475586 -31.272499084472656 
v -25.868276596069336 17.582277297973633 -31.46564292907715 
v -25.696088790893555 17.582277297973633 -31.24912452697754 
v -25.840898513793945 17.330833435058594 -31.47794532775879 
v -25.67719078063965 17.330833435058594 -31.272499084472656 
v -25.76148796081543 17.104022979736328 -31.516082763671875 
v -25.622243881225586 17.104022979736328 -31.341392517089844 
v -25.637845993041992 16.923995971679688 -31.576364517211914 
v -25.53666114807129 16.923995971679688 -31.44965171813965 
v -25.48201560974121 16.808429718017578 -31.65140724182129 
v -25.428810119628906 16.808429718017578 -31.583744049072266 
v -25.309297561645508 16.768600463867188 -31.73383140563965 
v -25.390411376953125 16.923995971679688 -31.378297805786133 
v -25.42097282409668 17.104022979736328 -31.245433807373047 
v -25.440587997436523 17.330833435058594 -31.159318923950195 
v -25.447328567504883 17.582277297973633 -31.129793167114258 
v -25.440587997436523 17.833669662475586 -31.159318923950195 
v -25.42097282409668 18.06048011779785 -31.245433807373047 
v -25.390411376953125 18.240509033203125 -31.378297805786133 
v -25.35193634033203 18.356075286865234 -31.546838760375977 
v -25.309297561645508 18.395904541015625 -31.73383140563965 
v -25.19758415222168 17.104022979736328 -31.245433807373047 
v -25.177968978881836 17.330833435058594 -31.159318923950195 
v -25.171228408813477 17.582277297973633 -31.129793167114258 
v -25.177968978881836 17.833669662475586 -31.159318923950195 
v -25.19758415222168 18.06048011779785 -31.245433807373047 
v -25.2281436920166 18.240509033203125 -31.378297805786133 
v -25.266618728637695 18.356075286865234 -31.546838760375977 
v -25.309297561645508 18.395904541015625 -31.73383140563965 
v -24.941364288330078 17.330833435058594 -31.272499084472656 
v -24.922468185424805 17.582277297973633 -31.24912452697754 
v -24.941364288330078 17.833669662475586 -31.272499084472656 
v -24.996313095092773 18.06048011779785 -31.341392517089844 
v -25.08189582824707 18.240509033203125 -31.44965171813965 
v -25.18974494934082 18.356075286865234 -31.583744049072266 
v -25.309297561645508 18.395904541015625 -31.73383140563965 
v -24.75027847290039 17.582277297973633 -31.46564292907715 
v -24.777658462524414 17.833669662475586 -31.47794532775879 
v -24.85706901550293 18.06048011779785 -31.516082763671875 
v -24.980710983276367 18.240509033203125 -31.576364517211914 
v -25.136539459228516 18.356075286865234 -31.65140724182129 
v -25.309297561645508 18.395904541015625 -31.73383140563965 
v -24.719226837158203 17.833669662475586 -31.73383140563965 
v -24.807348251342773 18.06048011779785 -31.73383140563965 
v -24.944622039794922 18.240509033203125 -31.73383140563965 
v -25.11756706237793 18.356075286865234 -31.73383140563965 
v -25.309297561645508 18.395904541015625 -31.73383140563965 
v -24.85706901550293 18.06048011779785 -31.951580047607422 
v -24.980710983276367 18.240509033203125 -31.89253044128418 
v -25.136539459228516 18.356075286865234 -31.817485809326172 
v -25.309297561645508 18.395904541015625 -31.73383140563965 
v -24.777658462524414 17.833669662475586 -31.989717483520508 
v -24.68885612487793 17.582277297973633 -31.73383140563965 
v -24.75027847290039 17.582277297973633 -32.00325012207031 
v -24.719226837158203 17.330833435058594 -31.73383140563965 
v -24.777658462524414 17.330833435058594 -31.989717483520508 
v -24.807348251342773 17.104022979736328 -31.73383140563965 
v -24.85706901550293 17.104022979736328 -31.951580047607422 
v -24.944622039794922 16.923995971679688 -31.73383140563965 
v -24.980710983276367 16.923995971679688 -31.89253044128418 
v -25.11756706237793 16.808429718017578 -31.73383140563965 
v -25.136539459228516 16.808429718017578 -31.817485809326172 
v -25.309297561645508 16.768600463867188 -31.73383140563965 
v -24.777658462524414 17.330833435058594 -31.47794532775879 
v -24.85706901550293 17.104022979736328 -31.516082763671875 
v -24.980710983276367 16.923995971679688 -31.576364517211914 
v -25.136539459228516 16.808429718017578 -31.65140724182129 
v -25.309297561645508 16.768600463867188 -31.73383140563965 
v -24.996313095092773 17.104022979736328 -31.341392517089844 
v -25.08189582824707 16.923995971679688 -31.44965171813965 
v -25.18974494934082 16.808429718017578 -31.583744049072266 
v -25.309297561645508 16.768600463867188 -31.73383140563965 
v -25.2281436920166 16.923995971679688 -31.378297805786133 
v -25.266618728637695 16.808429718017578 -31.546838760375977 
v -25.309297561645508 16.768600463867188 -31.73383140563965 
v -25.35193634033203 16.808429718017578 -31.546838760375977 
v -25.309297561645508 16.768600463867188 -31.73383140563965 
v -25.309297561645508 16.768600463867188 -31.73383140563965 
v -25.309297561645508 16.768600463867188 -31.73383140563965 
v -25.48201560974121 16.808429718017578 -31.817485809326172 
v -25.428810119628906 16.808429718017578 -31.88391876220703 
v -25.637845993041992 16.923995971679688 -31.89253044128418 
v -25.53666114807129 16.923995971679688 -32.01924133300781 
v -25.76148796081543 17.104022979736328 -31.951580047607422 
v -25.622243881225586 17.104022979736328 -32.12627029418945 
v -25.840898513793945 17.330833435058594 -31.989717483520508 
v -25.673934936523438 16.923995971679688 -31.73383140563965 
v -25.811208724975586 17.104022979736328 -31.73383140563965 
v -25.899330139160156 17.330833435058594 -31.73383140563965 
v -25.92970085144043 17.582277297973633 -31.73383140563965 
v -25.500988006591797 16.808429718017578 -31.73383140563965 
v -25.309297561645508 16.768600463867188 -31.73383140563965 
v -25.309297561645508 16.768600463867188 -31.73383140563965 
v -25.309297561645508 16.768600463867188 7.366250514984131 
v -25.48201560974121 16.808429718017578 7.283825874328613 
v -25.428810119628906 16.808429718017578 7.216163635253906 
v -25.637845993041992 16.923995971679688 7.208782196044922 
v -25.53666114807129 16.923995971679688 7.0820698738098145 
v -25.76148796081543 17.104022979736328 7.148501396179199 
v -25.622243881225586 17.104022979736328 6.973810195922852 
v -25.840898513793945 17.330833435058594 7.11036491394043 
v -25.67719078063965 17.330833435058594 6.904918193817139 
v -25.868276596069336 17.582277297973633 7.098062515258789 
v -25.696088790893555 17.582277297973633 6.8815436363220215 
v -25.840898513793945 17.833669662475586 7.11036491394043 
v -25.67719078063965 17.833669662475586 6.904918193817139 
v -25.76148796081543 18.06048011779785 7.148501396179199 
v -25.622243881225586 18.06048011779785 6.973810195922852 
v -25.637845993041992 18.240509033203125 7.208782196044922 
v -25.53666114807129 18.240509033203125 7.0820698738098145 
v -25.48201560974121 18.356075286865234 7.283825874328613 
v -25.428810119628906 18.356075286865234 7.216163635253906 
v -25.309297561645508 18.395904541015625 7.366250514984131 
v -25.390411376953125 18.240509033203125 7.010716915130615 
v -25.42097282409668 18.06048011779785 6.8778533935546875 
v -25.440587997436523 17.833669662475586 6.7917375564575195 
v -25.447328567504883 17.582277297973633 6.76221227645874 
v -25.440587997436523 17.330833435058594 6.7917375564575195 
v -25.42097282409668 17.104022979736328 6.8778533935546875 
v -25.390411376953125 16.923995971679688 7.010716915130615 
v -25.35193634033203 16.808429718017578 7.179256916046143 
v -25.309297561645508 16.768600463867188 7.366250514984131 
v -25.19758415222168 18.06048011779785 6.8778533935546875 
v -25.177968978881836 17.833669662475586 6.7917375564575195 
v -25.171228408813477 17.582277297973633 6.76221227645874 
v -25.177968978881836 17.330833435058594 6.7917375564575195 
v -25.19758415222168 17.104022979736328 6.8778533935546875 
v -25.2281436920166 16.923995971679688 7.010716915130615 
v -25.266618728637695 16.808429718017578 7.179256916046143 
v -25.309297561645508 16.768600463867188 7.366250514984131 
v -24.941364288330078 17.833669662475586 6.904918193817139 
v -24.922468185424805 17.582277297973633 6.8815436363220215 
v -24.941364288330078 17.330833435058594 6.904918193817139 
v -24.996313095092773 17.104022979736328 6.973810195922852 
v -25.08189582824707 16.923995971679688 7.0820698738098145 
v -25.18974494934082 16.808429718017578 7.216163635253906 
v -25.309297561645508 16.768600463867188 7.366250514984131 
v -24.75027847290039 17.582277297973633 7.098062515258789 
v -24.777658462524414 17.330833435058594 7.11036491394043 
v -24.85706901550293 17.104022979736328 7.148501396179199 
v -24.980710983276367 16.923995971679688 7.208782196044922 
v -25.136539459228516 16.808429718017578 7.283825874328613 
v -25.309297561645508 16.768600463867188 7.366250514984131 
v -24.777658462524414 17.833669662475586 7.11036491394043 
v -24.996313095092773 18.06048011779785 6.973810195922852 
v -24.85706901550293 18.06048011779785 7.148501396179199 
v -25.08189582824707 18.240509033203125 7.0820698738098145 
v -24.980710983276367 18.240509033203125 7.208782196044922 
v -25.18974494934082 18.356075286865234 7.216163635253906 
v -25.136539459228516 18.356075286865234 7.283825874328613 
v -25.309297561645508 18.395904541015625 7.366250514984131 
v -25.2281436920166 18.240509033203125 7.010716915130615 
v -25.266618728637695 18.356075286865234 7.179256916046143 
v -25.309297561645508 18.395904541015625 7.366250514984131 
v -25.35193634033203 18.356075286865234 7.179256916046143 
v -25.309297561645508 18.395904541015625 7.366250514984131 
v -25.309297561645508 18.395904541015625 7.366250514984131 
v -25.309297561645508 18.395904541015625 7.366250514984131 
v -25.500988006591797 18.356075286865234 7.366250514984131 
v -25.673934936523438 18.240509033203125 7.366250514984131 
v -25.811208724975586 18.06048011779785 7.366250514984131 
v -25.899330139160156 17.833669662475586 7.366250514984131 
v -25.92970085144043 17.582277297973633 7.366250514984131 
v -25.899330139160156 17.330833435058594 7.366250514984131 
v -25.811208724975586 17.104022979736328 7.366250514984131 
v -25.673934936523438 16.923995971679688 7.366250514984131 
v -25.500988006591797 16.808429718017578 7.366250514984131 
v -25.309297561645508 16.768600463867188 7.366250514984131 
v -25.637845993041992 16.923995971679688 7.524949073791504 
v -25.76148796081543 17.104022979736328 7.5839996337890625 
v -25.840898513793945 17.330833435058594 7.622136116027832 
v -25.868276596069336 17.582277297973633 7.635668754577637 
v -25.840898513793945 17.833669662475586 7.622136116027832 
v -25.76148796081543 18.06048011779785 7.5839996337890625 
v -25.637845993041992 18.240509033203125 7.524949073791504 
v -25.48201560974121 18.356075286865234 7.4499053955078125 
v -25.309297561645508 18.395904541015625 7.366250514984131 
v -25.622243881225586 17.104022979736328 7.75869083404541 
v -25.67719078063965 17.330833435058594 7.827582836151123 
v -25.696088790893555 17.582277297973633 7.852187633514404 
v -25.67719078063965 17.833669662475586 7.827582836151123 
v -25.622243881225586 18.06048011779785 7.75869083404541 
v -25.53666114807129 18.240509033203125 7.651661396026611 
v -25.428810119628906 18.356075286865234 7.5163373947143555 
v -25.309297561645508 18.395904541015625 7.366250514984131 
v -25.440587997436523 17.330833435058594 7.941993236541748 
v -25.447328567504883 17.582277297973633 7.971518516540527 
v -25.440587997436523 17.833669662475586 7.941993236541748 
v -25.42097282409668 18.06048011779785 7.855877876281738 
v -25.390411376953125 18.240509033203125 7.7217841148376465 
v -25.35193634033203 18.356075286865234 7.553244113922119 
v -25.309297561645508 18.395904541015625 7.366250514984131 
v -25.171228408813477 17.582277297973633 7.971518516540527 
v -25.177968978881836 17.833669662475586 7.941993236541748 
v -25.19758415222168 18.06048011779785 7.855877876281738 
v -25.2281436920166 18.240509033203125 7.7217841148376465 
v -25.266618728637695 18.356075286865234 7.553244113922119 
v -25.309297561645508 18.395904541015625 7.366250514984131 
v -24.941364288330078 17.833669662475586 7.827582836151123 
v -24.996313095092773 18.06048011779785 7.75869083404541 
v -25.08189582824707 18.240509033203125 7.651661396026611 
v -25.18974494934082 18.356075286865234 7.5163373947143555 
v -25.309297561645508 18.395904541015625 7.366250514984131 
v -24.85706901550293 18.06048011779785 7.5839996337890625 
v -24.980710983276367 18.240509033203125 7.524949073791504 
v -25.136539459228516 18.356075286865234 7.4499053955078125 
v -25.309297561645508 18.395904541015625 7.366250514984131 
v -24.944622039794922 18.240509033203125 7.366250514984131 
v -25.11756706237793 18.356075286865234 7.366250514984131 
v -25.309297561645508 18.395904541015625 7.366250514984131 
v -24.807348251342773 18.06048011779785 7.366250514984131 
v -24.777658462524414 17.833669662475586 7.622136116027832 
v -24.719226837158203 17.833669662475586 7.366250514984131 
v -24.75027847290039 17.582277297973633 7.635668754577637 
v -24.68885612487793 17.582277297973633 7.366250514984131 
v -24.777658462524414 17.330833435058594 7.622136116027832 
v -24.719226837158203 17.330833435058594 7.366250514984131 
v -24.85706901550293 17.104022979736328 7.5839996337890625 
v -24.807348251342773 17.104022979736328 7.366250514984131 
v -24.980710983276367 16.923995971679688 7.524949073791504 
v -24.944622039794922 16.923995971679688 7.366250514984131 
v -25.136539459228516 16.808429718017578 7.4499053955078125 
v -25.11756706237793 16.808429718017578 7.366250514984131 
v -25.309297561645508 16.768600463867188 7.366250514984131 
v -24.980710983276367 16.923995971679688 7.208782196044922 
v -24.85706901550293 17.104022979736328 7.148501396179199 
v -24.777658462524414 17.330833435058594 7.11036491394043 
v -24.75027847290039 17.582277297973633 7.098062515258789 
v -24.777658462524414 17.833669662475586 7.11036491394043 
v -24.85706901550293 18.06048011779785 7.148501396179199 
v -24.980710983276367 18.240509033203125 7.208782196044922 
v -25.136539459228516 18.356075286865234 7.283825874328613 
v -25.309297561645508 18.395904541015625 7.366250514984131 
v -25.136539459228516 16.808429718017578 7.283825874328613 
v -25.309297561645508 16.768600463867188 7.366250514984131 
v -25.309297561645508 16.768600463867188 -31.73383140563965 
v -25.35193634033203 16.808429718017578 -31.920825958251953 
v -25.266618728637695 16.808429718017578 -31.920825958251953 
v -25.390411376953125 16.923995971679688 -32.0893669128418 
v -25.309297561645508 16.768600463867188 -31.73383140563965 
v -25.309297561645508 16.768600463867188 -31.73383140563965 
v -25.309297561645508 16.768600463867188 7.366250514984131 
v -25.428810119628906 16.808429718017578 7.5163373947143555 
v -25.48201560974121 16.808429718017578 7.4499053955078125 
v -25.53666114807129 16.923995971679688 7.651661396026611 
v -25.42097282409668 17.104022979736328 7.855877876281738 
v -25.390411376953125 16.923995971679688 7.7217841148376465 
v -25.19758415222168 17.104022979736328 7.855877876281738 
v -25.2281436920166 16.923995971679688 7.7217841148376465 
v -24.996313095092773 17.104022979736328 7.75869083404541 
v -25.08189582824707 16.923995971679688 7.651661396026611 
v -25.35193634033203 16.808429718017578 7.553244113922119 
v -25.266618728637695 16.808429718017578 7.553244113922119 
v -25.18974494934082 16.808429718017578 7.5163373947143555 
v -24.941364288330078 17.330833435058594 7.827582836151123 
v -25.177968978881836 17.330833435058594 7.941993236541748 
v -24.922468185424805 17.582277297973633 7.852187633514404 
v -25.309297561645508 16.768600463867188 7.366250514984131 
v -25.309297561645508 16.768600463867188 7.366250514984131 
v -25.309297561645508 16.768600463867188 7.366250514984131 
v -25.309297561645508 16.768600463867188 7.366250514984131 
v -25.309297561645508 16.768600463867188 7.366250514984131 
vn 3.097898456858039e-13 -0.999997615814209 0.002184694167226553 
vn 0.30377352237701416 -0.8714004755020142 -0.3852050006389618 
vn 0.44526171684265137 -0.8693030476570129 -0.21460255980491638 
vn 0.4498159885406494 -0.6884946227073669 -0.5688942670822144 
vn 0.652681291103363 -0.6887430548667908 -0.31565824151039124 
vn 0.5543281435966492 -0.45965850353240967 -0.6938546895980835 
vn 0.7991951107978821 -0.46141552925109863 -0.3852050006389618 
vn 0.6085077524185181 -0.22906813025474548 -0.7597671151161194 
vn 0.8769581317901611 -0.23139873147010803 -0.42118772864341736 
vn 0.6232457756996155 0 -0.7820260524749756 
vn 0.9013746976852417 0 -0.43303996324539185 
vn 0.6085077524185181 0.22906813025474548 -0.7597671151161194 
vn 0.8769581317901611 0.23139873147010803 -0.42118772864341736 
vn 0.5543281435966492 0.45965850353240967 -0.6938546895980835 
vn 0.7991951107978821 0.46141552925109863 -0.3852050006389618 
vn 0.4498159885406494 0.6884946227073669 -0.5688942670822144 
vn 0.652681291103363 0.6887430548667908 -0.31565824151039124 
vn 0.30377352237701416 0.8714004755020142 -0.3852050006389618 
vn 0.44526171684265137 0.8693030476570129 -0.21460255980491638 
vn -1.0341130485562108e-13 0.999997615814209 -0.002184694167226553 
vn 0.16103653609752655 -0.6861415505409241 -0.7094202041625977 
vn 0.19854673743247986 -0.4595760107040405 -0.865661084651947 
vn 0.2192591428756714 -0.2299523800611496 -0.9481810927391052 
vn 0.22099928557872772 0 -0.9752739667892456 
vn 0.2192591428756714 0.2299523800611496 -0.9481810927391052 
vn 0.19854673743247986 0.4595760107040405 -0.865661084651947 
vn 0.16103653609752655 0.6861415505409241 -0.7094202041625977 
vn 0.10922320187091827 0.8706163763999939 -0.4796847105026245 
vn -1.0341130485562108e-13 0.999997615814209 -0.002184694167226553 
vn -0.19854673743247986 -0.4595760107040405 -0.865661084651947 
vn -0.2192591428756714 -0.2299523800611496 -0.9481810927391052 
vn -0.22096672654151917 0.0037937466986477375 -0.9752739667892456 
vn -0.2192591428756714 0.2299523800611496 -0.9481810927391052 
vn -0.19854673743247986 0.4595760107040405 -0.865661084651947 
vn -0.16103653609752655 0.6861415505409241 -0.7094202041625977 
vn -0.10922320187091827 0.8706163763999939 -0.4796847105026245 
vn -1.0341130485562108e-13 0.999997615814209 -0.002184694167226553 
vn -0.6071673035621643 -0.23259785771369934 -0.7597671151161194 
vn -0.6232457756996155 -1.2890162299095814e-13 -0.7820260524749756 
vn -0.6071673035621643 0.23259785771369934 -0.7597671151161194 
vn -0.5519097447395325 0.46255946159362793 -0.6938546895980835 
vn -0.4498159885406494 0.6884946227073669 -0.5688942670822144 
vn -0.30377352237701416 0.8714004755020142 -0.3852050006389618 
vn -1.0341130485562108e-13 0.999997615814209 -0.002184694167226553 
vn -0.9013746976852417 -1.860248337749032e-13 -0.43303996324539185 
vn -0.8779133558273315 0.22774766385555267 -0.42118772864341736 
vn -0.7991951107978821 0.46141552925109863 -0.3852050006389618 
vn -0.6554185152053833 0.6861388087272644 -0.31565824151039124 
vn -0.44189924001693726 0.8710170984268188 -0.21460255980491638 
vn -1.0341130485562108e-13 0.999997615814209 -0.002184694167226553 
vn -0.9727190732955933 0.23197589814662933 -0.002184694167226553 
vn -0.8854539394378662 0.46472206711769104 -0.002184694167226553 
vn -0.7281392216682434 0.6854257583618164 -0.002184694167226553 
vn -0.49125343561172485 0.8710139393806458 0.002184694167226553 
vn -1.0341130485562108e-13 0.999997615814209 -0.002184694167226553 
vn -0.7991951107978821 0.46141552925109863 0.3852050006389618 
vn -0.6533890962600708 0.688071608543396 0.31565824151039124 
vn -0.44189924001693726 0.8710170984268188 0.21460255980491638 
vn -1.0341130485562108e-13 0.999997615814209 -0.002184694167226553 
vn -0.4539625346660614 0.685767650604248 0.5688942670822144 
vn -0.30377352237701416 0.8714004755020142 0.3852050006389618 
vn -1.0341130485562108e-13 0.999997615814209 -0.002184694167226553 
vn -0.5548581480979919 0.4590185880661011 0.6938546895980835 
vn -0.8779133558273315 0.22774766385555267 0.42118772864341736 
vn -0.6086598038673401 0.2286638766527176 0.7597671151161194 
vn -0.9013668298721313 0.0037706310395151377 0.43303996324539185 
vn -0.6232457756996155 -1.2890162299095814e-13 0.7820260524749756 
vn -0.8779133558273315 -0.22774766385555267 0.42118772864341736 
vn -0.6086598038673401 -0.2286638766527176 0.7597671151161194 
vn -0.7991951107978821 -0.46141552925109863 0.3852050006389618 
vn -0.5548581480979919 -0.4590185880661011 0.6938546895980835 
vn -0.6533890962600708 -0.688071608543396 0.31565824151039124 
vn -0.4539625346660614 -0.685767650604248 0.5688942670822144 
vn -0.44189924001693726 -0.8710170984268188 0.21460255980491638 
vn -0.30377352237701416 -0.8714004755020142 0.3852050006389618 
vn 3.097898456858039e-13 -0.999997615814209 0.002184694167226553 
vn -0.1589302271604538 -0.6866324543952942 0.7094202041625977 
vn -0.19418711960315704 -0.4614350497722626 0.865661084651947 
vn -0.2151930034160614 -0.23376192152500153 0.9481810927391052 
vn -0.22096742689609528 -0.003752737306058407 0.9752739667892456 
vn -0.2151930034160614 0.23376192152500153 0.9481810927391052 
vn -0.19418711960315704 0.4614350497722626 0.865661084651947 
vn -0.1589302271604538 0.6866324543952942 0.7094202041625977 
vn -0.10720346122980118 0.8708673715591431 0.4796847105026245 
vn -1.0341130485562108e-13 0.999997615814209 -0.002184694167226553 
vn 0.19418711960315704 -0.4614350497722626 0.865661084651947 
vn 0.2151930034160614 -0.23376192152500153 0.9481810927391052 
vn 0.22099928557872772 0 0.9752739667892456 
vn 0.2151930034160614 0.23376192152500153 0.9481810927391052 
vn 0.19418711960315704 0.4614350497722626 0.865661084651947 
vn 0.1626027524471283 0.6857720613479614 0.7094202041625977 
vn 0.11094515770673752 0.8703986406326294 0.4796847105026245 
vn -1.0341130485562108e-13 0.999997615814209 -0.002184694167226553 
vn 0.6086598038673401 -0.2286638766527176 0.7597671151161194 
vn 0.6232457756996155 0 0.7820260524749756 
vn 0.6086598038673401 0.2286638766527176 0.7597671151161194 
vn 0.5548581480979919 0.4590185880661011 0.6938546895980835 
vn 0.4508126676082611 0.6878424286842346 0.5688942670822144 
vn 0.30377352237701416 0.8714004755020142 0.3852050006389618 
vn -1.0341130485562108e-13 0.999997615814209 -0.002184694167226553 
vn 0.9013746976852417 0 0.43303996324539185 
vn 0.8769581317901611 0.23139873147010803 0.42118772864341736 
vn 0.7991951107978821 0.46141552925109863 0.3852050006389618 
vn 0.6533890962600708 0.688071608543396 0.31565824151039124 
vn 0.44526171684265137 0.8693030476570129 0.21460255980491638 
vn -1.0341130485562108e-13 0.999997615814209 -0.002184694167226553 
vn 0.9727190732955933 0.23197589814662933 0.002184694167226553 
vn 0.8854539394378662 0.46472206711769104 -0.002184694167226553 
vn 0.7281392216682434 0.6854257583618164 -0.002184694167226553 
vn 0.49125343561172485 0.8710139393806458 -0.002184694167226553 
vn -1.0341130485562108e-13 0.999997615814209 -0.002184694167226553 
vn 0.7991951107978821 0.46141552925109863 -0.3852050006389618 
vn 0.652681291103363 0.6887430548667908 -0.31565824151039124 
vn 0.44526171684265137 0.8693030476570129 -0.21460255980491638 
vn -1.0341130485562108e-13 0.999997615814209 -0.002184694167226553 
vn 0.8769581317901611 0.23139873147010803 -0.42118772864341736 
vn 0.999997615814209 0 -0.002184694167226553 
vn 0.9013746976852417 0 -0.43303996324539185 
vn 0.9727190732955933 -0.23197589814662933 -0.002184694167226553 
vn 0.8769581317901611 -0.23139873147010803 -0.42118772864341736 
vn 0.8854539394378662 -0.46472206711769104 0.002184694167226553 
vn 0.7991951107978821 -0.46141552925109863 -0.3852050006389618 
vn 0.7281392216682434 -0.6854257583618164 0.002184694167226553 
vn 0.652681291103363 -0.6887430548667908 -0.31565824151039124 
vn 0.49125343561172485 -0.8710139393806458 0.002184694167226553 
vn 0.44526171684265137 -0.8693030476570129 -0.21460255980491638 
vn 3.097898456858039e-13 -0.999997615814209 0.002184694167226553 
vn 0.8769581317901611 -0.23139873147010803 0.42118772864341736 
vn 0.7991951107978821 -0.46141552925109863 0.3852050006389618 
vn 0.6533890962600708 -0.688071608543396 0.31565824151039124 
vn 0.44526171684265137 -0.8693030476570129 0.21460255980491638 
vn 3.097898456858039e-13 -0.999997615814209 0.002184694167226553 
vn 0.5548581480979919 -0.4590185880661011 0.6938546895980835 
vn 0.4508126676082611 -0.6878424286842346 0.5688942670822144 
vn 0.30377352237701416 -0.8714004755020142 0.3852050006389618 
vn 3.097898456858039e-13 -0.999997615814209 0.002184694167226553 
vn 0.1626027524471283 -0.6857720613479614 0.7094202041625977 
vn 0.11094515770673752 -0.8703986406326294 0.4796847105026245 
vn 3.097898456858039e-13 -0.999997615814209 0.002184694167226553 
vn -0.10720346122980118 -0.8708673715591431 0.4796847105026245 
vn 3.097898456858039e-13 -0.999997615814209 0.002184694167226553 
vn 3.097898456858039e-13 -0.999997615814209 0.002184694167226553 
vn 3.097898456858039e-13 -0.999997615814209 0.002184694167226553 
vn -0.44189924001693726 -0.8710170984268188 -0.21460255980491638 
vn -0.30377352237701416 -0.8714004755020142 -0.3852050006389618 
vn -0.6554185152053833 -0.6861388087272644 -0.31565824151039124 
vn -0.4498159885406494 -0.6884946227073669 -0.5688942670822144 
vn -0.7991951107978821 -0.46141552925109863 -0.3852050006389618 
vn -0.5519097447395325 -0.46255946159362793 -0.6938546895980835 
vn -0.8779133558273315 -0.22774766385555267 -0.42118772864341736 
vn -0.7281392216682434 -0.6854257583618164 -0.002184694167226553 
vn -0.8854539394378662 -0.46472206711769104 -0.002184694167226553 
vn -0.9727190732955933 -0.23197589814662933 -0.002184694167226553 
vn -0.999997615814209 -2.0682260971124217e-13 0.002184694167226553 
vn -0.49125343561172485 -0.8710139393806458 0.002184694167226553 
vn 3.097898456858039e-13 -0.999997615814209 0.002184694167226553 
vn 3.097898456858039e-13 -0.999997615814209 0.002184694167226553 
vn 3.097898456858039e-13 -0.999997615814209 -0.002184694167226553 
vn -0.44189924001693726 -0.8710170984268188 -0.21460255980491638 
vn -0.30377352237701416 -0.8714004755020142 -0.3852050006389618 
vn -0.6554185152053833 -0.6861388087272644 -0.31565824151039124 
vn -0.4498159885406494 -0.6884946227073669 -0.5688942670822144 
vn -0.7991951107978821 -0.46141552925109863 -0.3852050006389618 
vn -0.5519097447395325 -0.46255946159362793 -0.6938546895980835 
vn -0.8779133558273315 -0.22774766385555267 -0.42118772864341736 
vn -0.6071673035621643 -0.23259785771369934 -0.7597671151161194 
vn -0.9013746976852417 -1.860248337749032e-13 -0.43303996324539185 
vn -0.6232457756996155 -1.2890162299095814e-13 -0.7820260524749756 
vn -0.8779133558273315 0.22774766385555267 -0.42118772864341736 
vn -0.6071673035621643 0.23259785771369934 -0.7597671151161194 
vn -0.7991951107978821 0.46141552925109863 -0.3852050006389618 
vn -0.5519097447395325 0.46255946159362793 -0.6938546895980835 
vn -0.6554185152053833 0.6861388087272644 -0.31565824151039124 
vn -0.4498159885406494 0.6884946227073669 -0.5688942670822144 
vn -0.44189924001693726 0.8710170984268188 -0.21460255980491638 
vn -0.30377352237701416 0.8714004755020142 -0.3852050006389618 
vn -1.0341130485562108e-13 0.999997615814209 0.002184694167226553 
vn -0.16103653609752655 0.6861415505409241 -0.7094202041625977 
vn -0.19854673743247986 0.4595760107040405 -0.865661084651947 
vn -0.2192591428756714 0.2299523800611496 -0.9481810927391052 
vn -0.22096672654151917 0.0037937466986477375 -0.9752739667892456 
vn -0.2192591428756714 -0.2299523800611496 -0.9481810927391052 
vn -0.19854673743247986 -0.4595760107040405 -0.865661084651947 
vn -0.16103653609752655 -0.6861415505409241 -0.7094202041625977 
vn -0.10922320187091827 -0.8706163763999939 -0.4796847105026245 
vn 3.097898456858039e-13 -0.999997615814209 -0.002184694167226553 
vn 0.19854673743247986 0.4595760107040405 -0.865661084651947 
vn 0.2192591428756714 0.2299523800611496 -0.9481810927391052 
vn 0.22099928557872772 0 -0.9752739667892456 
vn 0.2192591428756714 -0.2299523800611496 -0.9481810927391052 
vn 0.19854673743247986 -0.4595760107040405 -0.865661084651947 
vn 0.16103653609752655 -0.6861415505409241 -0.7094202041625977 
vn 0.10922320187091827 -0.8706163763999939 -0.4796847105026245 
vn 3.097898456858039e-13 -0.999997615814209 -0.002184694167226553 
vn 0.6085077524185181 0.22906813025474548 -0.7597671151161194 
vn 0.6232457756996155 0 -0.7820260524749756 
vn 0.6085077524185181 -0.22906813025474548 -0.7597671151161194 
vn 0.5543281435966492 -0.45965850353240967 -0.6938546895980835 
vn 0.4498159885406494 -0.6884946227073669 -0.5688942670822144 
vn 0.30377352237701416 -0.8714004755020142 -0.3852050006389618 
vn 3.097898456858039e-13 -0.999997615814209 -0.002184694167226553 
vn 0.9013746976852417 0 -0.43303996324539185 
vn 0.8769581317901611 -0.23139873147010803 -0.42118772864341736 
vn 0.7991951107978821 -0.46141552925109863 -0.3852050006389618 
vn 0.652681291103363 -0.6887430548667908 -0.31565824151039124 
vn 0.44526171684265137 -0.8693030476570129 -0.21460255980491638 
vn 3.097898456858039e-13 -0.999997615814209 -0.002184694167226553 
vn 0.8769581317901611 0.23139873147010803 -0.42118772864341736 
vn 0.5543281435966492 0.45965850353240967 -0.6938546895980835 
vn 0.7991951107978821 0.46141552925109863 -0.3852050006389618 
vn 0.4498159885406494 0.6884946227073669 -0.5688942670822144 
vn 0.652681291103363 0.6887430548667908 -0.31565824151039124 
vn 0.30377352237701416 0.8714004755020142 -0.3852050006389618 
vn 0.44526171684265137 0.8693030476570129 -0.21460255980491638 
vn -1.0341130485562108e-13 0.999997615814209 0.002184694167226553 
vn 0.16103653609752655 0.6861415505409241 -0.7094202041625977 
vn 0.10922320187091827 0.8706163763999939 -0.4796847105026245 
vn -1.0341130485562108e-13 0.999997615814209 0.002184694167226553 
vn -0.10922320187091827 0.8706163763999939 -0.4796847105026245 
vn -1.0341130485562108e-13 0.999997615814209 0.002184694167226553 
vn -1.0341130485562108e-13 0.999997615814209 0.002184694167226553 
vn -1.0341130485562108e-13 0.999997615814209 0.002184694167226553 
vn -0.49125343561172485 0.8710139393806458 0.002184694167226553 
vn -0.7281392216682434 0.6854257583618164 -0.002184694167226553 
vn -0.8854539394378662 0.46472206711769104 -0.002184694167226553 
vn -0.9727190732955933 0.23197589814662933 -0.002184694167226553 
vn -0.999997615814209 -2.0682260971124217e-13 0.002184694167226553 
vn -0.9727190732955933 -0.23197589814662933 -0.002184694167226553 
vn -0.8854539394378662 -0.46472206711769104 -0.002184694167226553 
vn -0.7281392216682434 -0.6854257583618164 -0.002184694167226553 
vn -0.49125343561172485 -0.8710139393806458 -0.002184694167226553 
vn 3.097898456858039e-13 -0.999997615814209 -0.002184694167226553 
vn -0.6533890962600708 -0.688071608543396 0.31565824151039124 
vn -0.7991951107978821 -0.46141552925109863 0.3852050006389618 
vn -0.8779133558273315 -0.22774766385555267 0.42118772864341736 
vn -0.9013668298721313 0.0037706310395151377 0.43303996324539185 
vn -0.8779133558273315 0.22774766385555267 0.42118772864341736 
vn -0.7991951107978821 0.46141552925109863 0.3852050006389618 
vn -0.6533890962600708 0.688071608543396 0.31565824151039124 
vn -0.44189924001693726 0.8710170984268188 0.21460255980491638 
vn -1.0341130485562108e-13 0.999997615814209 0.002184694167226553 
vn -0.5548581480979919 -0.4590185880661011 0.6938546895980835 
vn -0.6086598038673401 -0.2286638766527176 0.7597671151161194 
vn -0.6232457756996155 -1.2890162299095814e-13 0.7820260524749756 
vn -0.6086598038673401 0.2286638766527176 0.7597671151161194 
vn -0.5548581480979919 0.4590185880661011 0.6938546895980835 
vn -0.4539625346660614 0.685767650604248 0.5688942670822144 
vn -0.30377352237701416 0.8714004755020142 0.3852050006389618 
vn -1.0341130485562108e-13 0.999997615814209 0.002184694167226553 
vn -0.2151930034160614 -0.23376192152500153 0.9481810927391052 
vn -0.22096742689609528 -0.003752737306058407 0.9752739667892456 
vn -0.2151930034160614 0.23376192152500153 0.9481810927391052 
vn -0.19418711960315704 0.4614350497722626 0.865661084651947 
vn -0.1589302271604538 0.6866324543952942 0.7094202041625977 
vn -0.10720346122980118 0.8708673715591431 0.4796847105026245 
vn -1.0341130485562108e-13 0.999997615814209 0.002184694167226553 
vn 0.22099928557872772 0 0.9752739667892456 
vn 0.2151930034160614 0.23376192152500153 0.9481810927391052 
vn 0.19418711960315704 0.4614350497722626 0.865661084651947 
vn 0.1626027524471283 0.6857720613479614 0.7094202041625977 
vn 0.11094515770673752 0.8703986406326294 0.4796847105026245 
vn -1.0341130485562108e-13 0.999997615814209 0.002184694167226553 
vn 0.6086598038673401 0.2286638766527176 0.7597671151161194 
vn 0.5548581480979919 0.4590185880661011 0.6938546895980835 
vn 0.4508126676082611 0.6878424286842346 0.5688942670822144 
vn 0.30377352237701416 0.8714004755020142 0.3852050006389618 
vn -1.0341130485562108e-13 0.999997615814209 0.002184694167226553 
vn 0.7991951107978821 0.46141552925109863 0.3852050006389618 
vn 0.6533890962600708 0.688071608543396 0.31565824151039124 
vn 0.44526171684265137 0.8693030476570129 0.21460255980491638 
vn -1.0341130485562108e-13 0.999997615814209 0.002184694167226553 
vn 0.7281392216682434 0.6854257583618164 -0.002184694167226553 
vn 0.49125343561172485 0.8710139393806458 -0.002184694167226553 
vn -1.0341130485562108e-13 0.999997615814209 0.002184694167226553 
vn 0.8854539394378662 0.46472206711769104 0.002184694167226553 
vn 0.8769581317901611 0.23139873147010803 0.42118772864341736 
vn 0.9727190732955933 0.23197589814662933 0.002184694167226553 
vn 0.9013746976852417 0 0.43303996324539185 
vn 0.999997615814209 0 -0.002184694167226553 
vn 0.8769581317901611 -0.23139873147010803 0.42118772864341736 
vn 0.9727190732955933 -0.23197589814662933 -0.002184694167226553 
vn 0.7991951107978821 -0.46141552925109863 0.3852050006389618 
vn 0.8854539394378662 -0.46472206711769104 0.002184694167226553 
vn 0.6533890962600708 -0.688071608543396 0.31565824151039124 
vn 0.7281392216682434 -0.6854257583618164 -0.002184694167226553 
vn 0.44526171684265137 -0.8693030476570129 0.21460255980491638 
vn 0.49125343561172485 -0.8710139393806458 0.002184694167226553 
vn 3.097898456858039e-13 -0.999997615814209 -0.002184694167226553 
vn 0.652681291103363 -0.6887430548667908 -0.31565824151039124 
vn 0.7991951107978821 -0.46141552925109863 -0.3852050006389618 
vn 0.8769581317901611 -0.23139873147010803 -0.42118772864341736 
vn 0.9013746976852417 0 -0.43303996324539185 
vn 0.8769581317901611 0.23139873147010803 -0.42118772864341736 
vn 0.7991951107978821 0.46141552925109863 -0.3852050006389618 
vn 0.652681291103363 0.6887430548667908 -0.31565824151039124 
vn 0.44526171684265137 0.8693030476570129 -0.21460255980491638 
vn -1.0341130485562108e-13 0.999997615814209 0.002184694167226553 
vn 0.44526171684265137 -0.8693030476570129 -0.21460255980491638 
vn 3.097898456858039e-13 -0.999997615814209 -0.002184694167226553 
vn 3.097898456858039e-13 -0.999997615814209 0.002184694167226553 
vn -0.10922320187091827 -0.8706163763999939 -0.4796847105026245 
vn 0.10922320187091827 -0.8706163763999939 -0.4796847105026245 
vn -0.16103653609752655 -0.6861415505409241 -0.7094202041625977 
vn 3.097898456858039e-13 -0.999997615814209 0.002184694167226553 
vn 3.097898456858039e-13 -0.999997615814209 0.002184694167226553 
vn 3.097898456858039e-13 -0.999997615814209 -0.002184694167226553 
vn -0.30377352237701416 -0.8714004755020142 0.3852050006389618 
vn -0.44189924001693726 -0.8710170984268188 0.21460255980491638 
vn -0.4539625346660614 -0.685767650604248 0.5688942670822144 
vn -0.19418711960315704 -0.4614350497722626 0.865661084651947 
vn -0.1589302271604538 -0.6866324543952942 0.7094202041625977 
vn 0.19418711960315704 -0.4614350497722626 0.865661084651947 
vn 0.1626027524471283 -0.6857720613479614 0.7094202041625977 
vn 0.5548581480979919 -0.4590185880661011 0.6938546895980835 
vn 0.4508126676082611 -0.6878424286842346 0.5688942670822144 
vn -0.10720346122980118 -0.8708673715591431 0.4796847105026245 
vn 0.11094515770673752 -0.8703986406326294 0.4796847105026245 
vn 0.30377352237701416 -0.8714004755020142 0.3852050006389618 
vn 0.6086598038673401 -0.2286638766527176 0.7597671151161194 
vn 0.2151930034160614 -0.23376192152500153 0.9481810927391052 
vn 0.6232457756996155 0 0.7820260524749756 
vn 3.097898456858039e-13 -0.999997615814209 -0.002184694167226553 
vn 3.097898456858039e-13 -0.999997615814209 -0.002184694167226553 
vn 3.097898456858039e-13 -0.999997615814209 -0.002184694167226553 
vn 3.097898456858039e-13 -0.999997615814209 -0.002184694167226553 
vn 3.097898456858039e-13 -0.999997615814209 -0.002184694167226553 
s on 
f 1//1 2//2 3//3 
f 2//2 4//4 3//3 
f 3//3 4//4 5//5 
f 4//4 6//6 5//5 
f 5//5 6//6 7//7 
f 6//6 8//8 7//7 
f 7//7 8//8 9//9 
f 8//8 10//10 9//9 
f 9//9 10//10 11//11 
f 10//10 12//12 11//11 
f 11//11 12//12 13//13 
f 12//12 14//14 13//13 
f 13//13 14//14 15//15 
f 14//14 16//16 15//15 
f 15//15 16//16 17//17 
f 16//16 18//18 17//17 
f 17//17 18//18 19//19 
f 18//18 20//20 19//19 
f 19//19 20//20 20//20 
f 20//20 2//2 20//20 
f 20//20 2//2 2//2 
f 2//2 21//21 2//2 
f 2//2 21//21 4//4 
f 21//21 22//22 4//4 
f 4//4 22//22 6//6 
f 22//22 23//23 6//6 
f 6//6 23//23 8//8 
f 23//23 24//24 8//8 
f 8//8 24//24 10//10 
f 24//24 25//25 10//10 
f 10//10 25//25 12//12 
f 25//25 26//26 12//12 
f 12//12 26//26 14//14 
f 26//26 27//27 14//14 
f 14//14 27//27 16//16 
f 27//27 28//28 16//16 
f 16//16 28//28 18//18 
f 28//28 29//29 18//18 
f 18//18 29//29 29//29 
f 29//29 21//21 29//29 
f 29//29 21//21 21//21 
f 21//21 30//30 21//21 
f 21//21 30//30 22//22 
f 30//30 31//31 22//22 
f 22//22 31//31 23//23 
f 31//31 32//32 23//23 
f 23//23 32//32 24//24 
f 32//32 33//33 24//24 
f 24//24 33//33 25//25 
f 33//33 34//34 25//25 
f 25//25 34//34 26//26 
f 34//34 35//35 26//26 
f 26//26 35//35 27//27 
f 35//35 36//36 27//27 
f 27//27 36//36 28//28 
f 36//36 37//37 28//28 
f 28//28 37//37 37//37 
f 37//37 30//30 37//37 
f 37//37 30//30 30//30 
f 30//30 38//38 30//30 
f 30//30 38//38 31//31 
f 38//38 39//39 31//31 
f 31//31 39//39 32//32 
f 39//39 40//40 32//32 
f 32//32 40//40 33//33 
f 40//40 41//41 33//33 
f 33//33 41//41 34//34 
f 41//41 42//42 34//34 
f 34//34 42//42 35//35 
f 42//42 43//43 35//35 
f 35//35 43//43 36//36 
f 43//43 44//44 36//36 
f 36//36 44//44 44//44 
f 44//44 38//38 44//44 
f 44//44 38//38 38//38 
f 38//38 45//45 38//38 
f 38//38 45//45 39//39 
f 45//45 46//46 39//39 
f 39//39 46//46 40//40 
f 46//46 47//47 40//40 
f 40//40 47//47 41//41 
f 47//47 48//48 41//41 
f 41//41 48//48 42//42 
f 48//48 49//49 42//42 
f 42//42 49//49 43//43 
f 49//49 50//50 43//43 
f 43//43 50//50 50//50 
f 50//50 45//45 50//50 
f 50//50 45//45 45//45 
f 45//45 51//51 45//45 
f 45//45 51//51 46//46 
f 51//51 52//52 46//46 
f 46//46 52//52 47//47 
f 52//52 53//53 47//47 
f 47//47 53//53 48//48 
f 53//53 54//54 48//48 
f 48//48 54//54 49//49 
f 54//54 55//55 49//49 
f 49//49 55//55 55//55 
f 55//55 51//51 55//55 
f 55//55 51//51 51//51 
f 51//51 56//56 51//51 
f 51//51 56//56 52//52 
f 56//56 57//57 52//52 
f 52//52 57//57 53//53 
f 57//57 58//58 53//53 
f 53//53 58//58 54//54 
f 58//58 59//59 54//54 
f 54//54 59//59 59//59 
f 59//59 56//56 59//59 
f 59//59 56//56 56//56 
f 56//56 60//60 56//56 
f 56//56 60//60 57//57 
f 60//60 61//61 57//57 
f 57//57 61//61 58//58 
f 61//61 62//62 58//58 
f 58//58 62//62 62//62 
f 62//62 60//60 62//62 
f 62//62 60//60 60//60 
f 60//60 56//56 60//60 
f 60//60 56//56 63//63 
f 56//56 64//64 63//63 
f 63//63 64//64 65//65 
f 64//64 66//66 65//65 
f 65//65 66//66 67//67 
f 66//66 68//68 67//67 
f 67//67 68//68 69//69 
f 68//68 70//70 69//69 
f 69//69 70//70 71//71 
f 70//70 72//72 71//71 
f 71//71 72//72 73//73 
f 72//72 74//74 73//73 
f 73//73 74//74 75//75 
f 74//74 76//76 75//75 
f 75//75 76//76 76//76 
f 76//76 75//75 76//76 
f 76//76 75//75 75//75 
f 75//75 77//77 75//75 
f 75//75 77//77 73//73 
f 77//77 78//78 73//73 
f 73//73 78//78 71//71 
f 78//78 79//79 71//71 
f 71//71 79//79 69//69 
f 79//79 80//80 69//69 
f 69//69 80//80 67//67 
f 80//80 81//81 67//67 
f 67//67 81//81 65//65 
f 81//81 82//82 65//65 
f 65//65 82//82 63//63 
f 82//82 83//83 63//63 
f 63//63 83//83 60//60 
f 83//83 84//84 60//60 
f 60//60 84//84 61//61 
f 84//84 85//85 61//61 
f 61//61 85//85 85//85 
f 85//85 77//77 85//85 
f 85//85 77//77 77//77 
f 77//77 86//86 77//77 
f 77//77 86//86 78//78 
f 86//86 87//87 78//78 
f 78//78 87//87 79//79 
f 87//87 88//88 79//79 
f 79//79 88//88 80//80 
f 88//88 89//89 80//80 
f 80//80 89//89 81//81 
f 89//89 90//90 81//81 
f 81//81 90//90 82//82 
f 90//90 91//91 82//82 
f 82//82 91//91 83//83 
f 91//91 92//92 83//83 
f 83//83 92//92 84//84 
f 92//92 93//93 84//84 
f 84//84 93//93 93//93 
f 93//93 86//86 93//93 
f 93//93 86//86 86//86 
f 86//86 94//94 86//86 
f 86//86 94//94 87//87 
f 94//94 95//95 87//87 
f 87//87 95//95 88//88 
f 95//95 96//96 88//88 
f 88//88 96//96 89//89 
f 96//96 97//97 89//89 
f 89//89 97//97 90//90 
f 97//97 98//98 90//90 
f 90//90 98//98 91//91 
f 98//98 99//99 91//91 
f 91//91 99//99 92//92 
f 99//99 100//100 92//92 
f 92//92 100//100 100//100 
f 100//100 94//94 100//100 
f 100//100 94//94 94//94 
f 94//94 101//101 94//94 
f 94//94 101//101 95//95 
f 101//101 102//102 95//95 
f 95//95 102//102 96//96 
f 102//102 103//103 96//96 
f 96//96 103//103 97//97 
f 103//103 104//104 97//97 
f 97//97 104//104 98//98 
f 104//104 105//105 98//98 
f 98//98 105//105 99//99 
f 105//105 106//106 99//99 
f 99//99 106//106 106//106 
f 106//106 101//101 106//106 
f 106//106 101//101 101//101 
f 101//101 107//107 101//101 
f 101//101 107//107 102//102 
f 107//107 108//108 102//102 
f 102//102 108//108 103//103 
f 108//108 109//109 103//103 
f 103//103 109//109 104//104 
f 109//109 110//110 104//104 
f 104//104 110//110 105//105 
f 110//110 111//111 105//105 
f 105//105 111//111 111//111 
f 111//111 107//107 111//111 
f 111//111 107//107 107//107 
f 107//107 112//112 107//107 
f 107//107 112//112 108//108 
f 112//112 113//113 108//108 
f 108//108 113//113 109//109 
f 113//113 114//114 109//109 
f 109//109 114//114 110//110 
f 114//114 115//115 110//110 
f 110//110 115//115 115//115 
f 115//115 112//112 115//115 
f 115//115 112//112 112//112 
f 112//112 107//107 112//112 
f 112//112 107//107 116//116 
f 107//107 117//117 116//116 
f 116//116 117//117 118//118 
f 117//117 119//119 118//118 
f 118//118 119//119 120//120 
f 119//119 121//121 120//120 
f 120//120 121//121 122//122 
f 121//121 123//123 122//122 
f 122//122 123//123 124//124 
f 123//123 125//125 124//124 
f 124//124 125//125 126//126 
f 125//125 127//127 126//126 
f 126//126 127//127 127//127 
f 127//127 107//107 127//127 
f 127//127 107//107 107//107 
f 107//107 101//101 107//107 
f 107//107 101//101 117//117 
f 101//101 128//128 117//117 
f 117//117 128//128 119//119 
f 128//128 129//129 119//119 
f 119//119 129//129 121//121 
f 129//129 130//130 121//121 
f 121//121 130//130 123//123 
f 130//130 131//131 123//123 
f 123//123 131//131 125//125 
f 131//131 132//132 125//125 
f 125//125 132//132 132//132 
f 132//132 101//101 132//132 
f 132//132 101//101 101//101 
f 101//101 94//94 101//101 
f 101//101 94//94 128//128 
f 94//94 133//133 128//128 
f 128//128 133//133 129//129 
f 133//133 134//134 129//129 
f 129//129 134//134 130//130 
f 134//134 135//135 130//130 
f 130//130 135//135 131//131 
f 135//135 136//136 131//131 
f 131//131 136//136 136//136 
f 136//136 94//94 136//136 
f 136//136 94//94 94//94 
f 94//94 86//86 94//94 
f 94//94 86//86 133//133 
f 86//86 137//137 133//133 
f 133//133 137//137 134//134 
f 137//137 138//138 134//134 
f 134//134 138//138 135//135 
f 138//138 139//139 135//135 
f 135//135 139//139 139//139 
f 139//139 86//86 139//139 
f 139//139 86//86 86//86 
f 86//86 77//77 86//86 
f 86//86 77//77 137//137 
f 77//77 140//140 137//137 
f 137//137 140//140 138//138 
f 140//140 141//141 138//138 
f 138//138 141//141 141//141 
f 141//141 77//77 141//141 
f 141//141 77//77 77//77 
f 77//77 75//75 77//77 
f 77//77 75//75 140//140 
f 75//75 142//142 140//140 
f 140//140 142//142 142//142 
f 142//142 143//143 142//142 
f 142//142 143//143 143//143 
f 143//143 144//144 143//143 
f 143//143 144//144 145//145 
f 144//144 146//146 145//145 
f 145//145 146//146 147//147 
f 146//146 148//148 147//147 
f 147//147 148//148 149//149 
f 148//148 150//150 149//149 
f 149//149 150//150 38//38 
f 150//150 45//45 38//38 
f 38//38 45//45 45//45 
f 45//45 144//144 45//45 
f 45//45 144//144 144//144 
f 144//144 151//151 144//144 
f 144//144 151//151 146//146 
f 151//151 152//152 146//146 
f 146//146 152//152 148//148 
f 152//152 153//153 148//148 
f 148//148 153//153 150//150 
f 153//153 154//154 150//150 
f 150//150 154//154 45//45 
f 154//154 51//51 45//45 
f 45//45 51//51 51//51 
f 51//51 151//151 51//51 
f 51//51 151//151 151//151 
f 151//151 70//70 151//151 
f 151//151 70//70 152//152 
f 70//70 68//68 152//152 
f 152//152 68//68 153//153 
f 68//68 66//66 153//153 
f 153//153 66//66 154//154 
f 66//66 64//64 154//154 
f 154//154 64//64 51//51 
f 64//64 56//56 51//51 
f 51//51 56//56 56//56 
f 56//56 70//70 56//56 
f 56//56 70//70 70//70 
f 70//70 151//151 70//70 
f 70//70 151//151 72//72 
f 151//151 155//155 72//72 
f 72//72 155//155 74//74 
f 155//155 156//156 74//74 
f 74//74 156//156 156//156 
f 156//156 151//151 156//156 
f 156//156 151//151 151//151 
f 151//151 144//144 151//151 
f 151//151 144//144 155//155 
f 144//144 157//157 155//155 
f 155//155 157//157 157//157 
f 157//157 158//158 157//157 
f 157//157 158//158 158//158 
f 158//158 159//159 158//158 
f 158//158 159//159 160//160 
f 159//159 161//161 160//160 
f 160//160 161//161 162//162 
f 161//161 163//163 162//162 
f 162//162 163//163 164//164 
f 163//163 165//165 164//164 
f 164//164 165//165 166//166 
f 165//165 167//167 166//166 
f 166//166 167//167 168//168 
f 167//167 169//169 168//168 
f 168//168 169//169 170//170 
f 169//169 171//171 170//170 
f 170//170 171//171 172//172 
f 171//171 173//173 172//172 
f 172//172 173//173 174//174 
f 173//173 175//175 174//174 
f 174//174 175//175 176//176 
f 175//175 177//177 176//176 
f 176//176 177//177 177//177 
f 177//177 176//176 177//177 
f 177//177 176//176 176//176 
f 176//176 178//178 176//176 
f 176//176 178//178 174//174 
f 178//178 179//179 174//174 
f 174//174 179//179 172//172 
f 179//179 180//180 172//172 
f 172//172 180//180 170//170 
f 180//180 181//181 170//170 
f 170//170 181//181 168//168 
f 181//181 182//182 168//168 
f 168//168 182//182 166//166 
f 182//182 183//183 166//166 
f 166//166 183//183 164//164 
f 183//183 184//184 164//164 
f 164//164 184//184 162//162 
f 184//184 185//185 162//162 
f 162//162 185//185 160//160 
f 185//185 186//186 160//160 
f 160//160 186//186 186//186 
f 186//186 178//178 186//186 
f 186//186 178//178 178//178 
f 178//178 187//187 178//178 
f 178//178 187//187 179//179 
f 187//187 188//188 179//179 
f 179//179 188//188 180//180 
f 188//188 189//189 180//180 
f 180//180 189//189 181//181 
f 189//189 190//190 181//181 
f 181//181 190//190 182//182 
f 190//190 191//191 182//182 
f 182//182 191//191 183//183 
f 191//191 192//192 183//183 
f 183//183 192//192 184//184 
f 192//192 193//193 184//184 
f 184//184 193//193 185//185 
f 193//193 194//194 185//185 
f 185//185 194//194 194//194 
f 194//194 187//187 194//194 
f 194//194 187//187 187//187 
f 187//187 195//195 187//187 
f 187//187 195//195 188//188 
f 195//195 196//196 188//188 
f 188//188 196//196 189//189 
f 196//196 197//197 189//189 
f 189//189 197//197 190//190 
f 197//197 198//198 190//190 
f 190//190 198//198 191//191 
f 198//198 199//199 191//191 
f 191//191 199//199 192//192 
f 199//199 200//200 192//192 
f 192//192 200//200 193//193 
f 200//200 201//201 193//193 
f 193//193 201//201 201//201 
f 201//201 195//195 201//201 
f 201//201 195//195 195//195 
f 195//195 202//202 195//195 
f 195//195 202//202 196//196 
f 202//202 203//203 196//196 
f 196//196 203//203 197//197 
f 203//203 204//204 197//197 
f 197//197 204//204 198//198 
f 204//204 205//205 198//198 
f 198//198 205//205 199//199 
f 205//205 206//206 199//199 
f 199//199 206//206 200//200 
f 206//206 207//207 200//200 
f 200//200 207//207 207//207 
f 207//207 202//202 207//207 
f 207//207 202//202 202//202 
f 202//202 195//195 202//202 
f 202//202 195//195 208//208 
f 195//195 209//209 208//208 
f 208//208 209//209 210//210 
f 209//209 211//211 210//210 
f 210//210 211//211 212//212 
f 211//211 213//213 212//212 
f 212//212 213//213 214//214 
f 213//213 215//215 214//214 
f 214//214 215//215 215//215 
f 215//215 195//195 215//215 
f 215//215 195//195 195//195 
f 195//195 187//187 195//195 
f 195//195 187//187 209//209 
f 187//187 216//216 209//209 
f 209//209 216//216 211//211 
f 216//216 217//217 211//211 
f 211//211 217//217 213//213 
f 217//217 218//218 213//213 
f 213//213 218//218 218//218 
f 218//218 187//187 218//218 
f 218//218 187//187 187//187 
f 187//187 178//178 187//187 
f 187//187 178//178 216//216 
f 178//178 219//219 216//216 
f 216//216 219//219 217//217 
f 219//219 220//220 217//217 
f 217//217 220//220 220//220 
f 220//220 178//178 220//220 
f 220//220 178//178 178//178 
f 178//178 176//176 178//178 
f 178//178 176//176 219//219 
f 176//176 221//221 219//219 
f 219//219 221//221 221//221 
f 221//221 222//222 221//221 
f 221//221 222//222 222//222 
f 222//222 175//175 222//222 
f 222//222 175//175 223//223 
f 175//175 173//173 223//223 
f 223//223 173//173 224//224 
f 173//173 171//171 224//224 
f 224//224 171//171 225//225 
f 171//171 169//169 225//225 
f 225//225 169//169 226//226 
f 169//169 167//167 226//226 
f 226//226 167//167 227//227 
f 167//167 165//165 227//227 
f 227//227 165//165 228//228 
f 165//165 163//163 228//228 
f 228//228 163//163 229//229 
f 163//163 161//161 229//229 
f 229//229 161//161 230//230 
f 161//161 159//159 230//230 
f 230//230 159//159 231//231 
f 159//159 232//232 231//231 
f 231//231 232//232 232//232 
f 232//232 231//231 232//232 
f 232//232 231//231 231//231 
f 231//231 233//233 231//231 
f 231//231 233//233 230//230 
f 233//233 234//234 230//230 
f 230//230 234//234 229//229 
f 234//234 235//235 229//229 
f 229//229 235//235 228//228 
f 235//235 236//236 228//228 
f 228//228 236//236 227//227 
f 236//236 237//237 227//227 
f 227//227 237//237 226//226 
f 237//237 238//238 226//226 
f 226//226 238//238 225//225 
f 238//238 239//239 225//225 
f 225//225 239//239 224//224 
f 239//239 240//240 224//224 
f 224//224 240//240 223//223 
f 240//240 241//241 223//223 
f 223//223 241//241 241//241 
f 241//241 233//233 241//241 
f 241//241 233//233 233//233 
f 233//233 242//242 233//233 
f 233//233 242//242 234//234 
f 242//242 243//243 234//234 
f 234//234 243//243 235//235 
f 243//243 244//244 235//235 
f 235//235 244//244 236//236 
f 244//244 245//245 236//236 
f 236//236 245//245 237//237 
f 245//245 246//246 237//237 
f 237//237 246//246 238//238 
f 246//246 247//247 238//238 
f 238//238 247//247 239//239 
f 247//247 248//248 239//239 
f 239//239 248//248 240//240 
f 248//248 249//249 240//240 
f 240//240 249//249 249//249 
f 249//249 242//242 249//249 
f 249//249 242//242 242//242 
f 242//242 250//250 242//242 
f 242//242 250//250 243//243 
f 250//250 251//251 243//243 
f 243//243 251//251 244//244 
f 251//251 252//252 244//244 
f 244//244 252//252 245//245 
f 252//252 253//253 245//245 
f 245//245 253//253 246//246 
f 253//253 254//254 246//246 
f 246//246 254//254 247//247 
f 254//254 255//255 247//247 
f 247//247 255//255 248//248 
f 255//255 256//256 248//248 
f 248//248 256//256 256//256 
f 256//256 250//250 256//256 
f 256//256 250//250 250//250 
f 250//250 257//257 250//250 
f 250//250 257//257 251//251 
f 257//257 258//258 251//251 
f 251//251 258//258 252//252 
f 258//258 259//259 252//252 
f 252//252 259//259 253//253 
f 259//259 260//260 253//253 
f 253//253 260//260 254//254 
f 260//260 261//261 254//254 
f 254//254 261//261 255//255 
f 261//261 262//262 255//255 
f 255//255 262//262 262//262 
f 262//262 257//257 262//262 
f 262//262 257//257 257//257 
f 257//257 263//263 257//257 
f 257//257 263//263 258//258 
f 263//263 264//264 258//258 
f 258//258 264//264 259//259 
f 264//264 265//265 259//259 
f 259//259 265//265 260//260 
f 265//265 266//266 260//260 
f 260//260 266//266 261//261 
f 266//266 267//267 261//261 
f 261//261 267//267 267//267 
f 267//267 263//263 267//267 
f 267//267 263//263 263//263 
f 263//263 268//268 263//263 
f 263//263 268//268 264//264 
f 268//268 269//269 264//264 
f 264//264 269//269 265//265 
f 269//269 270//270 265//265 
f 265//265 270//270 266//266 
f 270//270 271//271 266//266 
f 266//266 271//271 271//271 
f 271//271 268//268 271//271 
f 271//271 268//268 268//268 
f 268//268 272//272 268//268 
f 268//268 272//272 269//269 
f 272//272 273//273 269//269 
f 269//269 273//273 270//270 
f 273//273 274//274 270//270 
f 270//270 274//274 274//274 
f 274//274 272//272 274//274 
f 274//274 272//272 272//272 
f 272//272 268//268 272//272 
f 272//272 268//268 275//275 
f 268//268 276//276 275//275 
f 275//275 276//276 277//277 
f 276//276 278//278 277//277 
f 277//277 278//278 279//279 
f 278//278 280//280 279//279 
f 279//279 280//280 281//281 
f 280//280 282//282 281//281 
f 281//281 282//282 283//283 
f 282//282 284//284 283//283 
f 283//283 284//284 285//285 
f 284//284 286//286 285//285 
f 285//285 286//286 287//287 
f 286//286 288//288 287//287 
f 287//287 288//288 288//288 
f 288//288 287//287 288//288 
f 288//288 287//287 287//287 
f 287//287 289//289 287//287 
f 287//287 289//289 285//285 
f 289//289 290//290 285//285 
f 285//285 290//290 283//283 
f 290//290 291//291 283//283 
f 283//283 291//291 281//281 
f 291//291 292//292 281//281 
f 281//281 292//292 279//279 
f 292//292 293//293 279//279 
f 279//279 293//293 277//277 
f 293//293 294//294 277//277 
f 277//277 294//294 275//275 
f 294//294 295//295 275//275 
f 275//275 295//295 272//272 
f 295//295 296//296 272//272 
f 272//272 296//296 273//273 
f 296//296 297//297 273//273 
f 273//273 297//297 297//297 
f 297//297 289//289 297//297 
f 297//297 289//289 289//289 
f 289//289 287//287 289//289 
f 289//289 287//287 298//298 
f 287//287 299//299 298//298 
f 298//298 299//299 299//299 
f 299//299 300//300 299//299 
f 299//299 300//300 300//300 
f 300//300 301//301 300//300 
f 300//300 301//301 302//302 
f 301//301 303//303 302//302 
f 302//302 303//303 21//21 
f 303//303 30//30 21//21 
f 21//21 30//30 30//30 
f 30//30 301//301 30//30 
f 30//30 301//301 301//301 
f 301//301 147//147 301//301 
f 301//301 147//147 303//303 
f 147//147 149//149 303//303 
f 303//303 149//149 30//30 
f 149//149 38//38 30//30 
f 30//30 38//38 38//38 
f 38//38 147//147 38//38 
f 38//38 147//147 147//147 
f 147//147 301//301 147//147 
f 147//147 301//301 145//145 
f 301//301 304//304 145//145 
f 145//145 304//304 304//304 
f 304//304 21//21 304//304 
f 304//304 21//21 21//21 
f 21//21 2//2 21//21 
f 21//21 2//2 302//302 
f 2//2 305//305 302//302 
f 302//302 305//305 305//305 
f 305//305 306//306 305//305 
f 305//305 306//306 306//306 
f 306//306 307//307 306//306 
f 306//306 307//307 308//308 
f 307//307 309//309 308//308 
f 308//308 309//309 233//233 
f 309//309 242//242 233//233 
f 233//233 242//242 242//242 
f 242//242 309//309 242//242 
f 242//242 309//309 310//310 
f 309//309 311//311 310//310 
f 310//310 311//311 312//312 
f 311//311 313//313 312//312 
f 312//312 313//313 314//314 
f 313//313 315//315 314//314 
f 314//314 315//315 282//282 
f 315//315 284//284 282//282 
f 282//282 284//284 284//284 
f 284//284 309//309 284//284 
f 284//284 309//309 309//309 
f 309//309 307//307 309//309 
f 309//309 307//307 311//311 
f 307//307 316//316 311//311 
f 311//311 316//316 313//313 
f 316//316 317//317 313//313 
f 313//313 317//317 315//315 
f 317//317 318//318 315//315 
f 315//315 318//318 284//284 
f 318//318 286//286 284//284 
f 284//284 286//286 286//286 
f 286//286 282//282 286//286 
f 286//286 282//282 282//282 
f 282//282 280//280 282//282 
f 282//282 280//280 314//314 
f 280//280 319//319 314//314 
f 314//314 319//319 312//312 
f 319//319 320//320 312//312 
f 312//312 320//320 310//310 
f 320//320 250//250 310//310 
f 310//310 250//250 242//242 
f 250//250 242//242 242//242 
f 242//242 242//242 250//250 
f 242//242 250//250 250//250 
f 250//250 250//250 250//250 
f 250//250 320//320 250//250 
f 250//250 320//320 257//257 
f 320//320 321//321 257//257 
f 257//257 321//321 263//263 
f 321//321 276//276 263//263 
f 263//263 276//276 268//268 
f 276//276 268//268 268//268 
f 268//268 268//268 276//276 
f 268//268 276//276 276//276 
f 276//276 276//276 276//276 
f 276//276 321//321 276//276 
f 276//276 321//321 278//278 
f 321//321 319//319 278//278 
f 278//278 319//319 280//280 
f 319//319 280//280 280//280 
f 280//280 280//280 233//233 
f 280//280 233//233 233//233 
f 233//233 233//233 233//233 
f 233//233 231//231 233//233 
f 233//233 231//231 308//308 
f 231//231 322//322 308//308 
f 316//316 307//307 323//323 
f 317//317 316//316 324//324 
f 318//318 317//317 325//325 
f 286//286 318//318 326//326 
f 320//320 319//319 321//321 

