mtllib model_45.mtl
o model_45
v -30.68625831604004 -1.1019134521484375 45.14838409423828 
v -30.68625831604004 -1.1019134521484375 -45.1480712890625 
v -1.2894515991210938 -1.1019134521484375 45.14838409423828 
v -1.2894515991210938 -1.1019134521484375 -45.1480712890625 
v 16.28546905517578 -1.1019134521484375 -45.1480712890625 
v -1.2894515991210938 -1.1019134521484375 -83.52909088134766 
v 16.28546905517578 -1.1019134521484375 -83.52909088134766 
v 16.28546905517578 -1.1019134521484375 45.14838409423828 
v 30.68624496459961 -1.1019134521484375 -45.1480712890625 
v 30.68624496459961 -1.1019134521484375 45.14838409423828 
v -30.686267852783203 37.75493621826172 45.14838790893555 
v -30.68625831604004 36.75 45.14838409423828 
v -1.2894515991210938 37.75493621826172 45.14838409423828 
v -1.2894515991210938 36.75 45.14838409423828 
v 16.28546905517578 37.75493621826172 45.14838409423828 
v 16.28546905517578 36.75 45.14838409423828 
v 30.68624496459961 37.75493621826172 45.14838790893555 
v 30.68624496459961 36.75 45.14838409423828 
v -30.68625831604004 -1.1019134521484375 -45.1480712890625 
v -30.68625831604004 36.75 -45.1480712890625 
v -1.2894515991210938 -1.1019134521484375 -45.1480712890625 
v -1.2894515991210938 36.75 -45.1480712890625 
v -30.686256408691406 37.75493621826172 -45.1480712890625 
v -1.2894515991210938 37.75493621826172 -45.1480712890625 
v -0.000024199485778808594 36.75 -45.1480712890625 
v 0 37.75493621826172 -45.1480712890625 
v 14.700000762939453 37.75493621826172 -45.1480712890625 
v 14.70000171661377 36.75 -45.1480712890625 
v 16.28546905517578 36.75 -45.1480712890625 
v 16.28546905517578 37.75493621826172 -45.1480712890625 
v 30.68624496459961 36.75 -45.1480712890625 
v 30.68624496459961 -1.1019134521484375 -45.1480712890625 
v 30.68624496459961 -1.1019134521484375 -45.1480712890625 
v 30.68624496459961 36.75 -45.1480712890625 
v 30.68624496459961 -1.1019134521484375 45.14838409423828 
v 30.68624496459961 36.75 45.14838409423828 
v 30.68624496459961 37.75493621826172 -45.1480712890625 
v 30.68624496459961 37.75493621826172 45.14838790893555 
v 30.68624496459961 -1.1019134521484375 45.14838409423828 
v 30.68624496459961 12.510210990905762 45.14838409423828 
v 18.27495002746582 -1.1019134521484375 45.14838409423828 
v 18.27495002746582 12.510210990905762 45.14838409423828 
v 9.518026351928711 -1.1019134521484375 45.14838409423828 
v 9.518026351928711 12.510210990905762 45.14838409423828 
v 8.757482528686523 -1.1019134521484375 45.14838409423828 
v 8.757482528686523 12.510210990905762 45.14838409423828 
v 0.3914794921875 -1.1019134521484375 45.14838409423828 
v 0.3914794921875 12.510211944580078 45.14838409423828 
v -0.3690681457519531 -1.1019134521484375 45.14838409423828 
v -0.3690681457519531 12.510211944580078 45.14838409423828 
v -9.104694366455078 -1.1019134521484375 45.14838409423828 
v -9.104694366455078 12.510210990905762 45.14838409423828 
v -30.68625831604004 -1.1019134521484375 45.14838409423828 
v -30.686256408691406 12.510210990905762 45.14838409423828 
v -9.104694366455078 31.84861946105957 45.14838409423828 
v -30.68625831604004 31.84861946105957 45.14838409423828 
v -9.104694366455078 36.75 45.14838409423828 
v -0.3690681457519531 36.75 45.14838409423828 
v -0.3690681457519531 31.848617553710938 45.14838409423828 
v 0.3914794921875 36.75 45.14838409423828 
v 0.3914794921875 31.848617553710938 45.14838409423828 
v 8.757482528686523 36.75 45.14838409423828 
v 8.757482528686523 31.848617553710938 45.14838409423828 
v 9.518026351928711 36.75 45.14838409423828 
v 9.518026351928711 31.848617553710938 45.14838409423828 
v 18.27495002746582 36.75 45.14838409423828 
v 18.27495002746582 31.84861946105957 45.14838409423828 
v 30.68624496459961 36.75 45.14838409423828 
v 30.68624496459961 31.84861946105957 45.14838409423828 
v 0 37.75493621826172 -44.10000228881836 
v 0 37.75493621826172 -45.1480712890625 
v -1.2894515991210938 37.75493240356445 -44.10000228881836 
v -1.2894515991210938 37.75493621826172 -45.1480712890625 
v -29.400001525878906 37.75493621826172 -44.100006103515625 
v -30.686256408691406 37.75493621826172 -45.1480712890625 
v -29.400001525878906 37.75493621826172 44.100006103515625 
v -30.686267852783203 37.75493621826172 45.14838790893555 
v 29.400001525878906 37.75493621826172 44.10000228881836 
v 30.68624496459961 37.75493621826172 45.14838790893555 
v 29.400001525878906 37.75493621826172 -44.10000228881836 
v 30.68624496459961 37.75493621826172 -45.1480712890625 
v 16.28546905517578 37.75493621826172 -44.100006103515625 
v 16.28546905517578 37.75493621826172 -45.1480712890625 
v 14.700000762939453 37.75493621826172 -44.10000228881836 
v 14.700000762939453 37.75493621826172 -45.1480712890625 
v 0 37.75493621826172 -45.1480712890625 
v -30.68625831604004 -1.1019134521484375 45.14838409423828 
v -30.68625831604004 36.75 45.14838409423828 
v -30.68625831604004 -1.1019134521484375 -45.1480712890625 
v -30.68625831604004 36.75 -45.1480712890625 
v -30.686267852783203 37.75493621826172 45.14838790893555 
v -30.686256408691406 37.75493621826172 -45.1480712890625 
v 16.28546905517578 36.75 -83.52909088134766 
v 14.700000762939453 36.75 -82.31999969482422 
v 16.28546905517578 36.75 -45.1480712890625 
v 14.70000171661377 36.75 -45.1480712890625 
v -1.2894515991210938 36.75 -45.1480712890625 
v -1.2894515991210938 36.75 -83.52909088134766 
v -1.2894515991210938 -1.1019134521484375 -45.1480712890625 
v -1.2894515991210938 -1.1019134521484375 -83.52909088134766 
v 16.28546905517578 -1.1019134521484375 -83.52909088134766 
v 16.28546905517578 36.75 -83.52909088134766 
v 16.28546905517578 -1.1019134521484375 -45.1480712890625 
v 16.28546905517578 36.75 -45.1480712890625 
v -1.2894515991210938 36.75 -45.1480712890625 
v -0.000024199485778808594 36.75 -45.1480712890625 
v -1.2894515991210938 36.75 -83.52909088134766 
v -0.00002288818359375 36.75 -82.32002258300781 
v -1.2894515991210938 -1.1019134521484375 -83.52909088134766 
v -1.2894515991210938 36.75 -83.52909088134766 
v 16.28546905517578 -1.1019134521484375 -83.52909088134766 
v 16.28546905517578 36.75 -83.52909088134766 
v 14.700000762939453 36.75 -82.31999969482422 
v 16.28546905517578 36.75 -83.52909088134766 
v -0.00002288818359375 36.75 -82.32002258300781 
v -1.2894515991210938 36.75 -83.52909088134766 
v 30.68624496459961 37.75493621826172 -45.1480712890625 
v 16.28546905517578 -1.1019134521484375 -45.1480712890625 
v 0 37.75493621826172 -44.10000228881836 
v -30.68625831604004 36.75 45.14838409423828 
vn 3.097898456858039e-13 -0.999997615814209 0.002184694167226553 
vn 3.097898456858039e-13 -0.999997615814209 0.002184694167226553 
vn 3.097898456858039e-13 -0.999997615814209 0.002184694167226553 
vn 3.097898456858039e-13 -0.999997615814209 0.002184694167226553 
vn 3.097898456858039e-13 -0.999997615814209 0.002184694167226553 
vn 3.097898456858039e-13 -0.999997615814209 0.002184694167226553 
vn 3.097898456858039e-13 -0.999997615814209 0.002184694167226553 
vn 3.097898456858039e-13 -0.999997615814209 0.002184694167226553 
vn 3.097898456858039e-13 -0.999997615814209 0.002184694167226553 
vn 3.097898456858039e-13 -0.999997615814209 0.002184694167226553 
vn 0 0 1 
vn 0 0 1 
vn 0 0 1 
vn 0 0 1 
vn 0 0 1 
vn 0 0 1 
vn 0 0 1 
vn 0 0 1 
vn -2.0682311115474694e-13 0 -1 
vn -2.0682311115474694e-13 0 -1 
vn -2.0682311115474694e-13 0 -1 
vn -2.0682311115474694e-13 0 -1 
vn -2.0682311115474694e-13 0 -1 
vn -2.0682311115474694e-13 0 -1 
vn -2.0682311115474694e-13 0 -1 
vn -2.0682311115474694e-13 0 -1 
vn -2.0682311115474694e-13 0 -1 
vn -2.0682311115474694e-13 0 -1 
vn -2.0682311115474694e-13 0 -1 
vn -2.0682311115474694e-13 0 -1 
vn -2.0682311115474694e-13 0 -1 
vn -2.0682311115474694e-13 0 -1 
vn 0.999997615814209 0 0.002184694167226553 
vn 0.999997615814209 0 0.002184694167226553 
vn 0.999997615814209 0 0.002184694167226553 
vn 0.999997615814209 0 0.002184694167226553 
vn 0.999997615814209 0 0.002184694167226553 
vn 0.999997615814209 0 0.002184694167226553 
vn 0 0 1 
vn 0 0 1 
vn 0 0 1 
vn 0 0 1 
vn 0 0 1 
vn 0 0 1 
vn 0 0 1 
vn 0 0 1 
vn 0 0 1 
vn 0 0 1 
vn 0 0 1 
vn 0 0 1 
vn 0 0 1 
vn 0 0 1 
vn 0 0 1 
vn 0 0 1 
vn 0 0 1 
vn 0 0 1 
vn 0 0 1 
vn 0 0 1 
vn 0 0 1 
vn 0 0 1 
vn 0 0 1 
vn 0 0 1 
vn 0 0 1 
vn 0 0 1 
vn 0 0 1 
vn 0 0 1 
vn 0 0 1 
vn 0 0 1 
vn 0 0 1 
vn -1.0341130485562108e-13 0.999997615814209 0.002184694167226553 
vn -1.0341130485562108e-13 0.999997615814209 0.002184694167226553 
vn -1.0341130485562108e-13 0.999997615814209 0.002184694167226553 
vn -1.0341130485562108e-13 0.999997615814209 0.002184694167226553 
vn -1.0341130485562108e-13 0.999997615814209 -0.002184694167226553 
vn -1.0341130485562108e-13 0.999997615814209 -0.002184694167226553 
vn -1.0341130485562108e-13 0.999997615814209 0.002184694167226553 
vn -1.0341130485562108e-13 0.999997615814209 0.002184694167226553 
vn -1.0341130485562108e-13 0.999997615814209 0.002184694167226553 
vn -1.0341130485562108e-13 0.999997615814209 0.002184694167226553 
vn -1.0341130485562108e-13 0.999997615814209 0.002184694167226553 
vn -1.0341130485562108e-13 0.999997615814209 0.002184694167226553 
vn -1.0341130485562108e-13 0.999997615814209 0.002184694167226553 
vn -1.0341130485562108e-13 0.999997615814209 0.002184694167226553 
vn -1.0341130485562108e-13 0.999997615814209 0.002184694167226553 
vn -1.0341130485562108e-13 0.999997615814209 0.002184694167226553 
vn -1.0341130485562108e-13 0.999997615814209 0.002184694167226553 
vn -0.999997615814209 -2.0682260971124217e-13 0.002184694167226553 
vn -0.999997615814209 -2.0682260971124217e-13 -0.002184694167226553 
vn -0.999997615814209 -2.0682260971124217e-13 0.002184694167226553 
vn -0.999997615814209 -2.0682260971124217e-13 -0.002184694167226553 
vn -0.999997615814209 -2.0682260971124217e-13 -0.002184694167226553 
vn -0.999997615814209 -2.0682260971124217e-13 -0.002184694167226553 
vn -1.0341130485562108e-13 0.999997615814209 0.002184694167226553 
vn -1.0341130485562108e-13 0.999997615814209 0.002184694167226553 
vn -1.0341130485562108e-13 0.999997615814209 0.002184694167226553 
vn -1.0341130485562108e-13 0.999997615814209 0.002184694167226553 
vn -0.999997615814209 -2.0682260971124217e-13 0.002184694167226553 
vn -0.999997615814209 -2.0682260971124217e-13 0.002184694167226553 
vn -0.999997615814209 -2.0682260971124217e-13 0.002184694167226553 
vn -0.999997615814209 -2.0682260971124217e-13 0.002184694167226553 
vn 0.999997615814209 0 0.002184694167226553 
vn 0.999997615814209 0 0.002184694167226553 
vn 0.999997615814209 0 0.002184694167226553 
vn 0.999997615814209 0 0.002184694167226553 
vn -1.0341130485562108e-13 0.999997615814209 0.002184694167226553 
vn -1.0341130485562108e-13 0.999997615814209 0.002184694167226553 
vn -1.0341130485562108e-13 0.999997615814209 0.002184694167226553 
vn -1.0341130485562108e-13 0.999997615814209 0.002184694167226553 
vn -2.0682311115474694e-13 0 -1 
vn -2.0682311115474694e-13 0 -1 
vn -2.0682311115474694e-13 0 -1 
vn -2.0682311115474694e-13 0 -1 
vn -1.0341130485562108e-13 0.999997615814209 -0.002184694167226553 
vn -1.0341130485562108e-13 0.999997615814209 -0.002184694167226553 
vn -1.0341130485562108e-13 0.999997615814209 -0.002184694167226553 
vn -1.0341130485562108e-13 0.999997615814209 -0.002184694167226553 
vn -2.0682311115474694e-13 0 -1 
vn -2.0682311115474694e-13 0 -1 
vn -1.0341130485562108e-13 0.999997615814209 0.002184694167226553 
vn 0 0 1 
vt 0.4449479877948761 0.22837407886981964 
vt 0.4449479877948761 0.08797872066497803 
vt 0.4906426966190338 0.22837407886981964 
vt 0.4906426966190338 0.08797872066497803 
vt 0.5180031061172485 0.08797872066497803 
vt 0.4906426966190338 0.028247900307178497 
vt 0.5180031061172485 0.028247900307178497 
vt 0.5180031061172485 0.22837407886981964 
vt 0.5404273271560669 0.08797872066497803 
vt 0.5404273271560669 0.22837407886981964 
vt 0.6194058060646057 0.1301252394914627 
vt 0.6178544759750366 0.1301252394914627 
vt 0.6194058060646057 0.08448977768421173 
vt 0.6178544759750366 0.08448977768421173 
vt 0.6194058060646057 0.057136405259370804 
vt 0.6178544759750366 0.057136405259370804 
vt 0.6194058060646057 0.034667566418647766 
vt 0.6178544759750366 0.034667566418647766 
vt 0.6127772927284241 0.1301252394914627 
vt 0.5539665222167969 0.1301252394914627 
vt 0.6127772927284241 0.08448977768421173 
vt 0.5539665222167969 0.08448977768421173 
vt 0.552415132522583 0.1301252394914627 
vt 0.552415132522583 0.08448977768421173 
vt 0.5539665222167969 0.08239640295505524 
vt 0.552415132522583 0.08239640295505524 
vt 0.552415132522583 0.05950889363884926 
vt 0.5539665222167969 0.05950889363884926 
vt 0.5539665222167969 0.057136405259370804 
vt 0.552415132522583 0.057136405259370804 
vt 0.5539665222167969 0.034667566418647766 
vt 0.6127772927284241 0.034667566418647766 
vt 0.5453634858131409 0.1735277771949768 
vt 0.6043152809143066 0.1735277771949768 
vt 0.5453634858131409 0.3139231204986572 
vt 0.6043152809143066 0.3139231204986572 
vt 0.6058666706085205 0.1735277771949768 
vt 0.6058666706085205 0.3139231204986572 
vt 0.6108028292655945 0.1735277771949768 
vt 0.6319577693939209 0.1735277771949768 
vt 0.6108028292655945 0.1927867829799652 
vt 0.6319577693939209 0.1927867829799652 
vt 0.6108028292655945 0.20646347105503082 
vt 0.6319577693939209 0.20646347105503082 
vt 0.6108028292655945 0.20757992565631866 
vt 0.6319577693939209 0.20757992565631866 
vt 0.6108028292655945 0.22055882215499878 
vt 0.6319577693939209 0.22055882215499878 
vt 0.6108028292655945 0.2218148410320282 
vt 0.6319577693939209 0.2218148410320282 
vt 0.6108028292655945 0.23535196483135223 
vt 0.6319577693939209 0.23535196483135223 
vt 0.6108028292655945 0.26898545026779175 
vt 0.6319577693939209 0.26898545026779175 
vt 0.6619977951049805 0.23535196483135223 
vt 0.6619977951049805 0.26898545026779175 
vt 0.6697546243667603 0.23535196483135223 
vt 0.6697546243667603 0.2218148410320282 
vt 0.6619977951049805 0.2218148410320282 
vt 0.6697546243667603 0.22055882215499878 
vt 0.6619977951049805 0.22055882215499878 
vt 0.6697546243667603 0.20757992565631866 
vt 0.6619977951049805 0.20757992565631866 
vt 0.6697546243667603 0.20646347105503082 
vt 0.6619977951049805 0.20646347105503082 
vt 0.6697546243667603 0.1927867829799652 
vt 0.6619977951049805 0.1927867829799652 
vt 0.6697546243667603 0.1735277771949768 
vt 0.6619977951049805 0.1735277771949768 
vt 0.5931736826896667 0.16710810363292694 
vt 0.5931736826896667 0.16864325106143951 
vt 0.5910581946372986 0.16710810363292694 
vt 0.5910581946372986 0.16864325106143951 
vt 0.5473379492759705 0.16710810363292694 
vt 0.5453634858131409 0.16864325106143951 
vt 0.5473379492759705 0.029922595247626305 
vt 0.5453634858131409 0.028247900307178497 
vt 0.6388683915138245 0.029922595247626305 
vt 0.640842854976654 0.028247900307178497 
vt 0.6388683915138245 0.16710810363292694 
vt 0.640842854976654 0.16864325106143951 
vt 0.6184185743331909 0.16710810363292694 
vt 0.6184185743331909 0.16864325106143951 
vt 0.6160210371017456 0.16710810363292694 
vt 0.6160210371017456 0.16864325106143951 
vt 0.5931736826896667 0.16864325106143951 
vt 0.6459200382232666 0.028247900307178497 
vt 0.7047308087348938 0.028247900307178497 
vt 0.6459200382232666 0.16864325106143951 
vt 0.7047308087348938 0.16864325106143951 
vt 0.7062821388244629 0.028247900307178497 
vt 0.7062821388244629 0.16864325106143951 
vt 0.5361963510513306 0.2928498685359955 
vt 0.5337988138198853 0.29103562235832214 
vt 0.5361963510513306 0.23311904072761536 
vt 0.5337988138198853 0.23311904072761536 
vt 0.733642578125 0.1735277771949768 
vt 0.733642578125 0.23311904072761536 
vt 0.6748318076133728 0.1735277771949768 
vt 0.6748318076133728 0.23311904072761536 
vt 0.4449479877948761 0.23311904072761536 
vt 0.5037587881088257 0.23311904072761536 
vt 0.4449479877948761 0.2928498685359955 
vt 0.5037587881088257 0.2928498685359955 
vt 0.5088359713554382 0.23311904072761536 
vt 0.5109514594078064 0.23311904072761536 
vt 0.5088359713554382 0.2928498685359955 
vt 0.5109514594078064 0.29103562235832214 
vt 0.6748318076133728 0.2968970537185669 
vt 0.6748318076133728 0.23800356686115265 
vt 0.7020511627197266 0.2968970537185669 
vt 0.7020511627197266 0.23800356686115265 
vt 0.5337988138198853 0.29103562235832214 
vt 0.5361963510513306 0.2928498685359955 
vt 0.5109514594078064 0.29103562235832214 
vt 0.5088359713554382 0.2928498685359955 
vt 0.552415132522583 0.034667566418647766 
vt 0.6127772927284241 0.057136405259370804 
vt 0.5931736826896667 0.16710810363292694 
vt 0.6697546243667603 0.26898545026779175 
s on 
f 1/1/1 2/2/2 3/3/3 
f 2/2/2 4/4/4 3/3/3 
f 3/3/3 4/4/4 5/5/5 
f 4/4/4 6/6/6 5/5/5 
f 5/5/5 6/6/6 7/7/7 
f 6/6/6 7/7/7 7/7/7 
f 7/7/7 7/7/7 3/3/3 
f 7/7/7 3/3/3 3/3/3 
f 3/3/3 3/3/3 3/3/3 
f 3/3/3 5/5/5 3/3/3 
f 3/3/3 5/5/5 8/8/8 
f 5/5/5 9/9/9 8/8/8 
f 8/8/8 9/9/9 10/10/10 
f 9/9/9 10/10/10 10/10/10 
f 10/10/10 10/10/10 11/11/11 
f 10/10/10 11/11/11 11/11/11 
f 11/11/11 11/11/11 11/11/11 
f 11/11/11 12/12/12 11/11/11 
f 11/11/11 12/12/12 13/13/13 
f 12/12/12 14/14/14 13/13/13 
f 13/13/13 14/14/14 15/15/15 
f 14/14/14 16/16/16 15/15/15 
f 15/15/15 16/16/16 17/17/17 
f 16/16/16 18/18/18 17/17/17 
f 17/17/17 18/18/18 18/18/18 
f 18/18/18 19/19/19 18/18/18 
f 18/18/18 19/19/19 19/19/19 
f 19/19/19 20/20/20 19/19/19 
f 19/19/19 20/20/20 21/21/21 
f 20/20/20 22/22/22 21/21/21 
f 21/21/21 22/22/22 22/22/22 
f 22/22/22 20/20/20 22/22/22 
f 22/22/22 20/20/20 20/20/20 
f 20/20/20 23/23/23 20/20/20 
f 20/20/20 23/23/23 22/22/22 
f 23/23/23 24/24/24 22/22/22 
f 22/22/22 24/24/24 25/25/25 
f 24/24/24 26/26/26 25/25/25 
f 25/25/25 26/26/26 27/27/27 
f 26/26/26 27/27/27 27/27/27 
f 27/27/27 27/27/27 25/25/25 
f 27/27/27 25/25/25 25/25/25 
f 25/25/25 25/25/25 25/25/25 
f 25/25/25 27/27/27 25/25/25 
f 25/25/25 27/27/27 28/28/28 
f 27/27/27 29/29/29 28/28/28 
f 28/28/28 29/29/29 29/29/29 
f 29/29/29 27/27/27 29/29/29 
f 29/29/29 27/27/27 27/27/27 
f 27/27/27 30/30/30 27/27/27 
f 27/27/27 30/30/30 29/29/29 
f 30/30/30 31/31/31 29/29/29 
f 29/29/29 31/31/31 32/32/32 
f 31/31/31 32/32/32 32/32/32 
f 32/32/32 32/32/32 33/33/33 
f 32/32/32 33/33/33 33/33/33 
f 33/33/33 33/33/33 33/33/33 
f 33/33/33 34/34/34 33/33/33 
f 33/33/33 34/34/34 35/35/35 
f 34/34/34 36/36/36 35/35/35 
f 35/35/35 36/36/36 36/36/36 
f 36/36/36 34/34/34 36/36/36 
f 36/36/36 34/34/34 34/34/34 
f 34/34/34 37/37/37 34/34/34 
f 34/34/34 37/37/37 36/36/36 
f 37/37/37 38/38/38 36/36/36 
f 36/36/36 38/38/38 38/38/38 
f 38/38/38 39/39/39 38/38/38 
f 38/38/38 39/39/39 39/39/39 
f 39/39/39 40/40/40 39/39/39 
f 39/39/39 40/40/40 41/41/41 
f 40/40/40 42/42/42 41/41/41 
f 41/41/41 42/42/42 43/43/43 
f 42/42/42 44/44/44 43/43/43 
f 43/43/43 44/44/44 45/45/45 
f 44/44/44 46/46/46 45/45/45 
f 45/45/45 46/46/46 47/47/47 
f 46/46/46 48/48/48 47/47/47 
f 47/47/47 48/48/48 49/49/49 
f 48/48/48 50/50/50 49/49/49 
f 49/49/49 50/50/50 51/51/51 
f 50/50/50 52/52/52 51/51/51 
f 51/51/51 52/52/52 53/53/53 
f 52/52/52 54/54/54 53/53/53 
f 53/53/53 54/54/54 54/54/54 
f 54/54/54 52/52/52 54/54/54 
f 54/54/54 52/52/52 52/52/52 
f 52/52/52 55/55/55 52/52/52 
f 52/52/52 55/55/55 54/54/54 
f 55/55/55 56/56/56 54/54/54 
f 54/54/54 56/56/56 56/56/56 
f 56/56/56 55/55/55 56/56/56 
f 56/56/56 55/55/55 57/57/57 
f 55/55/55 58/58/58 57/57/57 
f 57/57/57 58/58/58 58/58/58 
f 58/58/58 55/55/55 58/58/58 
f 58/58/58 55/55/55 55/55/55 
f 55/55/55 59/59/59 55/55/55 
f 55/55/55 59/59/59 58/58/58 
f 59/59/59 60/60/60 58/58/58 
f 58/58/58 60/60/60 60/60/60 
f 60/60/60 59/59/59 60/60/60 
f 60/60/60 59/59/59 59/59/59 
f 59/59/59 61/61/61 59/59/59 
f 59/59/59 61/61/61 60/60/60 
f 61/61/61 62/62/62 60/60/60 
f 60/60/60 62/62/62 62/62/62 
f 62/62/62 61/61/61 62/62/62 
f 62/62/62 61/61/61 61/61/61 
f 61/61/61 63/63/63 61/61/61 
f 61/61/61 63/63/63 62/62/62 
f 63/63/63 64/64/64 62/62/62 
f 62/62/62 64/64/64 64/64/64 
f 64/64/64 63/63/63 64/64/64 
f 64/64/64 63/63/63 63/63/63 
f 63/63/63 65/65/65 63/63/63 
f 63/63/63 65/65/65 64/64/64 
f 65/65/65 66/66/66 64/64/64 
f 64/64/64 66/66/66 66/66/66 
f 66/66/66 65/65/65 66/66/66 
f 66/66/66 65/65/65 65/65/65 
f 65/65/65 67/67/67 65/65/65 
f 65/65/65 67/67/67 66/66/66 
f 67/67/67 68/68/68 66/66/66 
f 66/66/66 68/68/68 68/68/68 
f 68/68/68 67/67/67 68/68/68 
f 68/68/68 67/67/67 69/69/69 
f 67/67/67 42/42/42 69/69/69 
f 69/69/69 42/42/42 40/40/40 
f 42/42/42 40/40/40 40/40/40 
f 40/40/40 40/40/40 70/70/70 
f 40/40/40 70/70/70 70/70/70 
f 70/70/70 70/70/70 70/70/70 
f 70/70/70 71/71/71 70/70/70 
f 70/70/70 71/71/71 72/72/72 
f 71/71/71 73/73/73 72/72/72 
f 72/72/72 73/73/73 74/74/74 
f 73/73/73 75/75/75 74/74/74 
f 74/74/74 75/75/75 76/76/76 
f 75/75/75 77/77/77 76/76/76 
f 76/76/76 77/77/77 78/78/78 
f 77/77/77 79/79/79 78/78/78 
f 78/78/78 79/79/79 80/80/80 
f 79/79/79 81/81/81 80/80/80 
f 80/80/80 81/81/81 82/82/82 
f 81/81/81 83/83/83 82/82/82 
f 82/82/82 83/83/83 84/84/84 
f 83/83/83 85/85/85 84/84/84 
f 84/84/84 85/85/85 86/86/86 
f 85/85/85 86/86/86 86/86/86 
f 86/86/86 86/86/86 87/87/87 
f 86/86/86 87/87/87 87/87/87 
f 87/87/87 87/87/87 87/87/87 
f 87/87/87 88/88/88 87/87/87 
f 87/87/87 88/88/88 89/89/89 
f 88/88/88 90/90/90 89/89/89 
f 89/89/89 90/90/90 90/90/90 
f 90/90/90 88/88/88 90/90/90 
f 90/90/90 88/88/88 88/88/88 
f 88/88/88 91/91/91 88/88/88 
f 88/88/88 91/91/91 90/90/90 
f 91/91/91 92/92/92 90/90/90 
f 90/90/90 92/92/92 92/92/92 
f 92/92/92 93/93/93 92/92/92 
f 92/92/92 93/93/93 93/93/93 
f 93/93/93 94/94/94 93/93/93 
f 93/93/93 94/94/94 95/95/95 
f 94/94/94 96/96/96 95/95/95 
f 95/95/95 96/96/96 96/96/96 
f 96/96/96 97/97/97 96/96/96 
f 96/96/96 97/97/97 97/97/97 
f 97/97/97 98/98/98 97/97/97 
f 97/97/97 98/98/98 99/99/99 
f 98/98/98 100/100/100 99/99/99 
f 99/99/99 100/100/100 100/100/100 
f 100/100/100 101/101/101 100/100/100 
f 100/100/100 101/101/101 101/101/101 
f 101/101/101 102/102/102 101/101/101 
f 101/101/101 102/102/102 103/103/103 
f 102/102/102 104/104/104 103/103/103 
f 103/103/103 104/104/104 104/104/104 
f 104/104/104 105/105/105 104/104/104 
f 104/104/104 105/105/105 105/105/105 
f 105/105/105 106/106/106 105/105/105 
f 105/105/105 106/106/106 107/107/107 
f 106/106/106 108/108/108 107/107/107 
f 107/107/107 108/108/108 108/108/108 
f 108/108/108 109/109/109 108/108/108 
f 108/108/108 109/109/109 109/109/109 
f 109/109/109 110/110/110 109/109/109 
f 109/109/109 110/110/110 111/111/111 
f 110/110/110 112/112/112 111/111/111 
f 111/111/111 112/112/112 112/112/112 
f 112/112/112 113/113/113 112/112/112 
f 112/112/112 113/113/113 113/113/113 
f 113/113/113 114/114/114 113/113/113 
f 113/113/113 114/114/114 115/115/115 
f 114/114/114 116/116/116 115/115/115 
f 30/30/30 117/117/117 31/31/31 
f 29/29/29 32/32/32 118/118/118 
f 84/84/84 86/86/86 119/119/119 
f 56/56/56 57/57/57 120/120/120 

