mtllib model_4.mtl
o model_4
v -27.694250106811523 19.292842864990234 -31.991954803466797 
v -28.374000549316406 15.237899780273438 -32.058265686035156 
v -27.694250106811523 19.292842864990234 -31.48355484008789 
v -28.374000549316406 15.237899780273438 -31.4172420501709 
v -28.239248275756836 15.237899780273438 -30.776216506958008 
v -27.58944320678711 19.292842864990234 -30.99726104736328 
v -27.978727340698242 15.237899780273438 -30.201505661010742 
v -27.385818481445312 19.292842864990234 -30.533069610595703 
v -27.802051544189453 15.237899780273438 -29.91415023803711 
v -27.248071670532227 19.292842864990234 -30.334131240844727 
v -27.370845794677734 15.237899780273438 -29.44995880126953 
v -26.912689208984375 19.292842864990234 -29.958358764648438 
v -26.849803924560547 15.237899780273438 -29.074186325073242 
v -26.508432388305664 19.292842864990234 -29.648897171020508 
v -26.562334060668945 15.237899780273438 -28.919456481933594 
v -26.283845901489258 19.292842864990234 -29.538375854492188 
v -25.948463439941406 15.237899780273438 -28.720518112182617 
v -25.807722091674805 19.292842864990234 -29.38364601135254 
v -25.631046295166016 15.237899780273438 -28.67630958557129 
v -25.559179306030273 19.292842864990234 -29.33943748474121 
v -25.307641983032227 15.237899780273438 -28.654205322265625 
v -25.307641983032227 19.292842864990234 -29.33943748474121 
v -24.987232208251953 15.237899780273438 -28.67630958557129 
v -25.059099197387695 19.292842864990234 -29.33943748474121 
v -24.35539436340332 15.237899780273438 -28.808935165405273 
v -24.568002700805664 19.292842864990234 -29.44995880126953 
v -23.768474578857422 15.237899780273438 -29.074186325073242 
v -24.109846115112305 19.292842864990234 -29.648897171020508 
v -23.247432708740234 15.237899780273438 -29.44995880126953 
v -23.705589294433594 19.292842864990234 -29.958358764648438 
v -22.816226959228516 15.237899780273438 -29.91415023803711 
v -23.370206832885742 19.292842864990234 -30.334131240844727 
v -22.639551162719727 15.237899780273438 -30.201505661010742 
v -23.232460021972656 19.292842864990234 -30.533069610595703 
v -22.379030227661133 15.237899780273438 -30.776216506958008 
v -23.02883529663086 19.292842864990234 -30.99726104736328 
v -22.924028396606445 19.292842864990234 -31.48355484008789 
v -22.244279861450195 15.237899780273438 -31.4172420501709 
v -22.924028396606445 19.292842864990234 -31.991954803466797 
v -22.244279861450195 15.237899780273438 -32.058265686035156 
v -22.379030227661133 15.237899780273438 -32.677188873291016 
v -23.02883529663086 19.292842864990234 -32.478248596191406 
v -22.639551162719727 15.237899780273438 -33.27400207519531 
v -23.232460021972656 19.292842864990234 -32.942440032958984 
v -22.816226959228516 15.237899780273438 -33.53925323486328 
v -23.370206832885742 19.292842864990234 -33.14137649536133 
v -23.247432708740234 15.237899780273438 -34.025550842285156 
v -23.705589294433594 19.292842864990234 -33.51715087890625 
v -23.768474578857422 15.237899780273438 -34.40132141113281 
v -24.109846115112305 19.292842864990234 -33.804508209228516 
v -24.055946350097656 15.237899780273438 -34.556053161621094 
v -24.33443260192871 19.292842864990234 -33.9150276184082 
v -24.669815063476562 15.237899780273438 -34.75498962402344 
v -24.810556411743164 19.292842864990234 -34.069759368896484 
v -24.987232208251953 15.237899780273438 -34.799198150634766 
v -25.059099197387695 19.292842864990234 -34.11396789550781 
v -25.559179306030273 19.292842864990234 -34.11396789550781 
v -25.631046295166016 15.237899780273438 -34.799198150634766 
v -26.26288414001465 15.237899780273438 -34.66657257080078 
v -26.050275802612305 19.292842864990234 -34.00344467163086 
v -26.562334060668945 15.237899780273438 -34.556053161621094 
v -26.283845901489258 19.292842864990234 -33.9150276184082 
v -27.119308471679688 15.237899780273438 -34.2244873046875 
v -26.718046188354492 19.292842864990234 -33.671878814697266 
v -27.598426818847656 15.237899780273438 -33.804508209228516 
v -27.08936309814453 19.292842864990234 -33.34031677246094 
v -27.802051544189453 15.237899780273438 -33.53925323486328 
v -27.248071670532227 19.292842864990234 -33.14137649536133 
v -28.125457763671875 15.237899780273438 -32.98664855957031 
v -27.499608993530273 19.292842864990234 -32.69929122924805 
v -28.32309341430664 15.237899780273438 -32.36772537231445 
v -27.652328491210938 19.292842864990234 -32.23509979248047 
v -28.374000549316406 15.237899780273438 -32.058265686035156 
v -27.694250106811523 19.292842864990234 -31.991954803466797 
v -27.694250106811523 19.292842864990234 7.110552787780762 
v -27.652328491210938 19.292842864990234 6.867405414581299 
v -28.374000549316406 15.237899780273438 7.0442399978637695 
v -28.32309341430664 15.237899780273438 6.7347798347473145 
v -27.499608993530273 19.292842864990234 6.381110668182373 
v -28.125457763671875 15.237899780273438 6.115859508514404 
v -27.248071670532227 19.292842864990234 5.961129188537598 
v -27.802051544189453 15.237899780273438 5.563251972198486 
v -27.08936309814453 19.292842864990234 5.762190341949463 
v -27.598426818847656 15.237899780273438 5.298000335693359 
v -26.718046188354492 19.292842864990234 5.430625915527344 
v -27.119308471679688 15.237899780273438 4.878018379211426 
v -26.283845901489258 19.292842864990234 5.187478542327881 
v -26.562334060668945 15.237899780273438 4.546453952789307 
v -26.050275802612305 19.292842864990234 5.0769572257995605 
v -26.26288414001465 15.237899780273438 4.435932636260986 
v -25.559179306030273 19.292842864990234 4.988540172576904 
v -25.631046295166016 15.237899780273438 4.303306579589844 
v -24.987232208251953 15.237899780273438 4.303306579589844 
v -25.059099197387695 19.292842864990234 4.988540172576904 
v -24.810556411743164 19.292842864990234 5.032748699188232 
v -24.669815063476562 15.237899780273438 4.347515106201172 
v -24.33443260192871 19.292842864990234 5.187478542327881 
v -24.055946350097656 15.237899780273438 4.546453952789307 
v -24.109846115112305 19.292842864990234 5.298000335693359 
v -23.768474578857422 15.237899780273438 4.701184272766113 
v -23.705589294433594 19.292842864990234 5.58535623550415 
v -23.247432708740234 15.237899780273438 5.0769572257995605 
v -23.370206832885742 19.292842864990234 5.961129188537598 
v -22.816226959228516 15.237899780273438 5.563251972198486 
v -23.232460021972656 19.292842864990234 6.160068035125732 
v -22.639551162719727 15.237899780273438 5.828503608703613 
v -23.02883529663086 19.292842864990234 6.624258041381836 
v -22.379030227661133 15.237899780273438 6.403215408325195 
v -22.924028396606445 19.292842864990234 7.110552787780762 
v -22.244279861450195 15.237899780273438 7.0442399978637695 
v -22.244279861450195 15.237899780273438 7.685264587402344 
v -22.924028396606445 19.292842864990234 7.618951797485352 
v -22.379030227661133 15.237899780273438 8.326289176940918 
v -23.02883529663086 19.292842864990234 8.105246543884277 
v -23.232460021972656 19.292842864990234 8.569437026977539 
v -22.639551162719727 15.237899780273438 8.9010009765625 
v -23.370206832885742 19.292842864990234 8.768375396728516 
v -22.816226959228516 15.237899780273438 9.18835735321045 
v -23.705589294433594 19.292842864990234 9.144148826599121 
v -23.247432708740234 15.237899780273438 9.652546882629395 
v -24.109846115112305 19.292842864990234 9.431504249572754 
v -23.768474578857422 15.237899780273438 10.0283203125 
v -24.568002700805664 19.292842864990234 9.652546882629395 
v -24.35539436340332 15.237899780273438 10.293572425842285 
v -25.059099197387695 19.292842864990234 9.740964889526367 
v -24.987232208251953 15.237899780273438 10.42619800567627 
v -25.307641983032227 19.292842864990234 9.763069152832031 
v -25.307641983032227 15.237899780273438 10.448302268981934 
v -25.559179306030273 19.292842864990234 9.740964889526367 
v -25.631046295166016 15.237899780273438 10.42619800567627 
v -25.807722091674805 19.292842864990234 9.718860626220703 
v -25.948463439941406 15.237899780273438 10.381989479064941 
v -26.283845901489258 19.292842864990234 9.564129829406738 
v -26.562334060668945 15.237899780273438 10.183050155639648 
v -26.508432388305664 19.292842864990234 9.431504249572754 
v -26.849803924560547 15.237899780273438 10.0283203125 
v -26.912689208984375 19.292842864990234 9.144148826599121 
v -27.370845794677734 15.237899780273438 9.652546882629395 
v -27.248071670532227 19.292842864990234 8.768375396728516 
v -27.802051544189453 15.237899780273438 9.18835735321045 
v -27.385818481445312 19.292842864990234 8.569437026977539 
v -27.978727340698242 15.237899780273438 8.9010009765625 
v -27.58944320678711 19.292842864990234 8.105246543884277 
v -28.239248275756836 15.237899780273438 8.326289176940918 
v -27.694250106811523 19.292842864990234 7.618951797485352 
v -28.374000549316406 15.237899780273438 7.685264587402344 
v -28.374000549316406 15.237899780273438 7.0442399978637695 
v -27.694250106811523 19.292842864990234 7.110552787780762 
vn -0.9809032678604126 0.16529491543769836 -0.10250037163496017 
vn -0.9809032678604126 0.16529491543769836 -0.10250037163496017 
vn -0.9809032678604126 0.16529491543769836 0.10250037163496017 
vn -0.9809032678604126 0.16529491543769836 0.10250037163496017 
vn -0.9391356706619263 0.16154858469963074 0.30319350957870483 
vn -0.9391356706619263 0.16154858469963074 0.30319350957870483 
vn -0.8531344532966614 0.16489361226558685 0.4949462115764618 
vn -0.8531344532966614 0.16489361226558685 0.4949462115764618 
vn -0.7972843050956726 0.16844014823436737 0.5796254277229309 
vn -0.7972843050956726 0.16844014823436737 0.5796254277229309 
vn -0.659396767616272 0.1643196940422058 0.7336177229881287 
vn -0.659396767616272 0.1643196940422058 0.7336177229881287 
vn -0.49198204278945923 0.1665908247232437 0.8545181155204773 
vn -0.49198204278945923 0.1665908247232437 0.8545181155204773 
vn -0.402433305978775 0.16516521573066711 0.9004265069961548 
vn -0.402433305978775 0.16516521573066711 0.9004265069961548 
vn -0.20389987528324127 0.16672810912132263 0.9646899104118347 
vn -0.20389987528324127 0.16672810912132263 0.9646899104118347 
vn -0.10619035363197327 0.16397687792778015 0.9807319641113281 
vn -0.10619035363197327 0.16397687792778015 0.9807319641113281 
vn -0.001867682789452374 0.16526448726654053 0.9862475395202637 
vn -0.001867682789452374 0.16526448726654053 0.9862475395202637 
vn 0.10619035363197327 0.16397687792778015 0.9807319641113281 
vn 0.10619035363197327 0.16397687792778015 0.9807319641113281 
vn 0.30442944169044495 0.1656477153301239 0.9380210638046265 
vn 0.30442944169044495 0.1656477153301239 0.9380210638046265 
vn 0.49317774176597595 0.16301694512367249 0.8545181155204773 
vn 0.49317774176597595 0.16301694512367249 0.8545181155204773 
vn 0.659396767616272 0.1643196940422058 0.7336177229881287 
vn 0.659396767616272 0.1643196940422058 0.7336177229881287 
vn 0.798055112361908 0.16474948823451996 0.5796254277229309 
vn 0.798055112361908 0.16474948823451996 0.5796254277229309 
vn 0.8531344532966614 0.16489361226558685 0.4949462115764618 
vn 0.8531344532966614 0.16489361226558685 0.4949462115764618 
vn 0.9384883046150208 0.16526784002780914 0.30319350957870483 
vn 0.9384883046150208 0.16526784002780914 0.30319350957870483 
vn 0.9809032678604126 0.16529491543769836 0.10250037163496017 
vn 0.9809032678604126 0.16529491543769836 0.10250037163496017 
vn 0.9809032678604126 0.16529491543769836 -0.10250037163496017 
vn 0.9809032678604126 0.16529491543769836 -0.10250037163496017 
vn 0.9384883046150208 0.16526784002780914 -0.30319350957870483 
vn 0.9384883046150208 0.16526784002780914 -0.30319350957870483 
vn 0.8530908226966858 0.16511890292167664 -0.4949462115764618 
vn 0.8530908226966858 0.16511890292167664 -0.4949462115764618 
vn 0.7980056405067444 0.16498909890651703 -0.5796254277229309 
vn 0.7980056405067444 0.16498909890651703 -0.5796254277229309 
vn 0.6593256592750549 0.16460470855236053 -0.7336177229881287 
vn 0.6593256592750549 0.16460470855236053 -0.7336177229881287 
vn 0.49305716156959534 0.16338135302066803 -0.8545181155204773 
vn 0.49305716156959534 0.16338135302066803 -0.8545181155204773 
vn 0.4036773443222046 0.16210094094276428 -0.9004265069961548 
vn 0.4036773443222046 0.16210094094276428 -0.9004265069961548 
vn 0.20337703824043274 0.16736546158790588 -0.9646899104118347 
vn 0.20337703824043274 0.16736546158790588 -0.9646899104118347 
vn 0.10416583716869354 0.1652703434228897 -0.9807319641113281 
vn 0.10416583716869354 0.1652703434228897 -0.9807319641113281 
vn -0.10416583716869354 0.1652703434228897 -0.9807319641113281 
vn -0.10416583716869354 0.1652703434228897 -0.9807319641113281 
vn -0.303854376077652 0.16670021414756775 -0.9380210638046265 
vn -0.303854376077652 0.16670021414756775 -0.9380210638046265 
vn -0.4036773443222046 0.16210094094276428 -0.9004265069961548 
vn -0.4036773443222046 0.16210094094276428 -0.9004265069961548 
vn -0.5787025094032288 0.1677745282649994 -0.7980946898460388 
vn -0.5787025094032288 0.1677745282649994 -0.7980946898460388 
vn -0.7343454360961914 0.16484229266643524 -0.6584556698799133 
vn -0.7343454360961914 0.16484229266643524 -0.6584556698799133 
vn -0.7980056405067444 0.16498909890651703 -0.5796254277229309 
vn -0.7980056405067444 0.16498909890651703 -0.5796254277229309 
vn -0.9009283185005188 0.16524890065193176 -0.401274174451828 
vn -0.9009283185005188 0.16524890065193176 -0.401274174451828 
vn -0.9644641280174255 0.16537398099899292 -0.2060592919588089 
vn -0.9644641280174255 0.16537398099899292 -0.2060592919588089 
vn -0.9809032678604126 0.16529491543769836 -0.10250037163496017 
vn -0.9809032678604126 0.16529491543769836 -0.10250037163496017 
vn -0.9809032678604126 0.16529491543769836 -0.10250037163496017 
vn -0.9644641280174255 0.16537398099899292 -0.2060592919588089 
vn -0.9809032678604126 0.16529491543769836 -0.10250037163496017 
vn -0.9644641280174255 0.16537398099899292 -0.2060592919588089 
vn -0.9009283185005188 0.16524890065193176 -0.401274174451828 
vn -0.9009283185005188 0.16524890065193176 -0.401274174451828 
vn -0.7980056405067444 0.16498909890651703 -0.5796254277229309 
vn -0.7980056405067444 0.16498909890651703 -0.5796254277229309 
vn -0.7343454360961914 0.16484229266643524 -0.6584556698799133 
vn -0.7343454360961914 0.16484229266643524 -0.6584556698799133 
vn -0.5787025094032288 0.1677745282649994 -0.7980946898460388 
vn -0.5787025094032288 0.1677745282649994 -0.7980946898460388 
vn -0.4036773443222046 0.16210094094276428 -0.9004265069961548 
vn -0.4036773443222046 0.16210094094276428 -0.9004265069961548 
vn -0.303854376077652 0.16670021414756775 -0.9380210638046265 
vn -0.303854376077652 0.16670021414756775 -0.9380210638046265 
vn -0.10416583716869354 0.1652703434228897 -0.9807319641113281 
vn -0.10416583716869354 0.1652703434228897 -0.9807319641113281 
vn 0.10416583716869354 0.1652703434228897 -0.9807319641113281 
vn 0.10416583716869354 0.1652703434228897 -0.9807319641113281 
vn 0.20337703824043274 0.16736546158790588 -0.9646899104118347 
vn 0.20337703824043274 0.16736546158790588 -0.9646899104118347 
vn 0.4036773443222046 0.16210094094276428 -0.9004265069961548 
vn 0.4036773443222046 0.16210094094276428 -0.9004265069961548 
vn 0.49305716156959534 0.16338135302066803 -0.8545181155204773 
vn 0.49305716156959534 0.16338135302066803 -0.8545181155204773 
vn 0.6593256592750549 0.16460470855236053 -0.7336177229881287 
vn 0.6593256592750549 0.16460470855236053 -0.7336177229881287 
vn 0.7980056405067444 0.16498909890651703 -0.5796254277229309 
vn 0.7980056405067444 0.16498909890651703 -0.5796254277229309 
vn 0.8530908226966858 0.16511890292167664 -0.4949462115764618 
vn 0.8530908226966858 0.16511890292167664 -0.4949462115764618 
vn 0.9384883046150208 0.16526784002780914 -0.30319350957870483 
vn 0.9384883046150208 0.16526784002780914 -0.30319350957870483 
vn 0.9809032678604126 0.16529491543769836 -0.10250037163496017 
vn 0.9809032678604126 0.16529491543769836 -0.10250037163496017 
vn 0.9809032678604126 0.16529491543769836 0.10250037163496017 
vn 0.9809032678604126 0.16529491543769836 0.10250037163496017 
vn 0.9384883046150208 0.16526784002780914 0.30319350957870483 
vn 0.9384883046150208 0.16526784002780914 0.30319350957870483 
vn 0.8531344532966614 0.16489361226558685 0.4949462115764618 
vn 0.8531344532966614 0.16489361226558685 0.4949462115764618 
vn 0.798055112361908 0.16474948823451996 0.5796254277229309 
vn 0.798055112361908 0.16474948823451996 0.5796254277229309 
vn 0.659396767616272 0.1643196940422058 0.7336177229881287 
vn 0.659396767616272 0.1643196940422058 0.7336177229881287 
vn 0.49317774176597595 0.16301694512367249 0.8545181155204773 
vn 0.49317774176597595 0.16301694512367249 0.8545181155204773 
vn 0.30442944169044495 0.1656477153301239 0.9380210638046265 
vn 0.30442944169044495 0.1656477153301239 0.9380210638046265 
vn 0.10619035363197327 0.16397687792778015 0.9807319641113281 
vn 0.10619035363197327 0.16397687792778015 0.9807319641113281 
vn -0.001867682789452374 0.16526448726654053 0.9862475395202637 
vn -0.001867682789452374 0.16526448726654053 0.9862475395202637 
vn -0.10619035363197327 0.16397687792778015 0.9807319641113281 
vn -0.10619035363197327 0.16397687792778015 0.9807319641113281 
vn -0.20389987528324127 0.16672810912132263 0.9646899104118347 
vn -0.20389987528324127 0.16672810912132263 0.9646899104118347 
vn -0.402433305978775 0.16516521573066711 0.9004265069961548 
vn -0.402433305978775 0.16516521573066711 0.9004265069961548 
vn -0.49198204278945923 0.1665908247232437 0.8545181155204773 
vn -0.49198204278945923 0.1665908247232437 0.8545181155204773 
vn -0.659396767616272 0.1643196940422058 0.7336177229881287 
vn -0.659396767616272 0.1643196940422058 0.7336177229881287 
vn -0.7972843050956726 0.16844014823436737 0.5796254277229309 
vn -0.7972843050956726 0.16844014823436737 0.5796254277229309 
vn -0.8531344532966614 0.16489361226558685 0.4949462115764618 
vn -0.8531344532966614 0.16489361226558685 0.4949462115764618 
vn -0.9391356706619263 0.16154858469963074 0.30319350957870483 
vn -0.9391356706619263 0.16154858469963074 0.30319350957870483 
vn -0.9809032678604126 0.16529491543769836 0.10250037163496017 
vn -0.9809032678604126 0.16529491543769836 0.10250037163496017 
vn -0.9809032678604126 0.16529491543769836 -0.10250037163496017 
vn -0.9809032678604126 0.16529491543769836 -0.10250037163496017 
s on 
f 1//1 2//2 3//3 
f 2//2 4//4 3//3 
f 3//3 4//4 5//5 
f 4//4 5//5 5//5 
f 5//5 5//5 3//3 
f 5//5 3//3 3//3 
f 3//3 3//3 3//3 
f 3//3 5//5 3//3 
f 3//3 5//5 6//6 
f 5//5 7//7 6//6 
f 6//6 7//7 8//8 
f 7//7 9//9 8//8 
f 8//8 9//9 10//10 
f 9//9 11//11 10//10 
f 10//10 11//11 12//12 
f 11//11 13//13 12//12 
f 12//12 13//13 14//14 
f 13//13 15//15 14//14 
f 14//14 15//15 16//16 
f 15//15 17//17 16//16 
f 16//16 17//17 18//18 
f 17//17 19//19 18//18 
f 18//18 19//19 20//20 
f 19//19 21//21 20//20 
f 20//20 21//21 22//22 
f 21//21 23//23 22//22 
f 22//22 23//23 24//24 
f 23//23 25//25 24//24 
f 24//24 25//25 26//26 
f 25//25 27//27 26//26 
f 26//26 27//27 28//28 
f 27//27 29//29 28//28 
f 28//28 29//29 30//30 
f 29//29 31//31 30//30 
f 30//30 31//31 32//32 
f 31//31 33//33 32//32 
f 32//32 33//33 34//34 
f 33//33 35//35 34//34 
f 34//34 35//35 36//36 
f 35//35 37//37 36//36 
f 36//36 37//37 37//37 
f 37//37 35//35 37//37 
f 37//37 35//35 35//35 
f 35//35 38//38 35//35 
f 35//35 38//38 37//37 
f 38//38 39//39 37//37 
f 37//37 39//39 39//39 
f 39//39 38//38 39//39 
f 39//39 38//38 38//38 
f 38//38 40//40 38//38 
f 38//38 40//40 39//39 
f 40//40 41//41 39//39 
f 39//39 41//41 42//42 
f 41//41 43//43 42//42 
f 42//42 43//43 44//44 
f 43//43 45//45 44//44 
f 44//44 45//45 46//46 
f 45//45 47//47 46//46 
f 46//46 47//47 48//48 
f 47//47 49//49 48//48 
f 48//48 49//49 50//50 
f 49//49 51//51 50//50 
f 50//50 51//51 52//52 
f 51//51 53//53 52//52 
f 52//52 53//53 54//54 
f 53//53 55//55 54//54 
f 54//54 55//55 56//56 
f 55//55 57//57 56//56 
f 56//56 57//57 57//57 
f 57//57 55//55 57//57 
f 57//57 55//55 55//55 
f 55//55 58//58 55//55 
f 55//55 58//58 57//57 
f 58//58 59//59 57//57 
f 57//57 59//59 60//60 
f 59//59 61//61 60//60 
f 60//60 61//61 62//62 
f 61//61 63//63 62//62 
f 62//62 63//63 64//64 
f 63//63 65//65 64//64 
f 64//64 65//65 66//66 
f 65//65 67//67 66//66 
f 66//66 67//67 68//68 
f 67//67 69//69 68//68 
f 68//68 69//69 70//70 
f 69//69 71//71 70//70 
f 70//70 71//71 72//72 
f 71//71 73//73 72//72 
f 72//72 73//73 74//74 
f 73//73 74//74 74//74 
f 74//74 74//74 75//75 
f 74//74 75//75 75//75 
f 75//75 75//75 75//75 
f 75//75 76//76 75//75 
f 75//75 76//76 77//77 
f 76//76 78//78 77//77 
f 77//77 78//78 78//78 
f 78//78 76//76 78//78 
f 78//78 76//76 76//76 
f 76//76 79//79 76//76 
f 76//76 79//79 78//78 
f 79//79 80//80 78//78 
f 78//78 80//80 80//80 
f 80//80 79//79 80//80 
f 80//80 79//79 79//79 
f 79//79 81//81 79//79 
f 79//79 81//81 80//80 
f 81//81 82//82 80//80 
f 80//80 82//82 82//82 
f 82//82 81//81 82//82 
f 82//82 81//81 81//81 
f 81//81 83//83 81//81 
f 81//81 83//83 82//82 
f 83//83 84//84 82//82 
f 82//82 84//84 84//84 
f 84//84 83//83 84//84 
f 84//84 83//83 83//83 
f 83//83 85//85 83//83 
f 83//83 85//85 84//84 
f 85//85 86//86 84//84 
f 84//84 86//86 86//86 
f 86//86 85//85 86//86 
f 86//86 85//85 85//85 
f 85//85 87//87 85//85 
f 85//85 87//87 86//86 
f 87//87 88//88 86//86 
f 86//86 88//88 88//88 
f 88//88 87//87 88//88 
f 88//88 87//87 87//87 
f 87//87 89//89 87//87 
f 87//87 89//89 88//88 
f 89//89 90//90 88//88 
f 88//88 90//90 90//90 
f 90//90 89//89 90//90 
f 90//90 89//89 89//89 
f 89//89 91//91 89//89 
f 89//89 91//91 90//90 
f 91//91 92//92 90//90 
f 90//90 92//92 92//92 
f 92//92 91//91 92//92 
f 92//92 91//91 93//93 
f 91//91 94//94 93//93 
f 93//93 94//94 95//95 
f 94//94 95//95 95//95 
f 95//95 95//95 93//93 
f 95//95 93//93 93//93 
f 93//93 93//93 93//93 
f 93//93 95//95 93//93 
f 93//93 95//95 96//96 
f 95//95 97//97 96//96 
f 96//96 97//97 98//98 
f 97//97 99//99 98//98 
f 98//98 99//99 100//100 
f 99//99 101//101 100//100 
f 100//100 101//101 102//102 
f 101//101 103//103 102//102 
f 102//102 103//103 104//104 
f 103//103 105//105 104//104 
f 104//104 105//105 106//106 
f 105//105 107//107 106//106 
f 106//106 107//107 108//108 
f 107//107 109//109 108//108 
f 108//108 109//109 110//110 
f 109//109 111//111 110//110 
f 110//110 111//111 111//111 
f 111//111 109//109 111//111 
f 111//111 109//109 109//109 
f 109//109 112//112 109//109 
f 109//109 112//112 111//111 
f 112//112 113//113 111//111 
f 111//111 113//113 113//113 
f 113//113 112//112 113//113 
f 113//113 112//112 112//112 
f 112//112 114//114 112//112 
f 112//112 114//114 113//113 
f 114//114 115//115 113//113 
f 113//113 115//115 116//116 
f 115//115 117//117 116//116 
f 116//116 117//117 118//118 
f 117//117 119//119 118//118 
f 118//118 119//119 120//120 
f 119//119 121//121 120//120 
f 120//120 121//121 122//122 
f 121//121 123//123 122//122 
f 122//122 123//123 124//124 
f 123//123 125//125 124//124 
f 124//124 125//125 126//126 
f 125//125 127//127 126//126 
f 126//126 127//127 128//128 
f 127//127 129//129 128//128 
f 128//128 129//129 130//130 
f 129//129 131//131 130//130 
f 130//130 131//131 132//132 
f 131//131 133//133 132//132 
f 132//132 133//133 134//134 
f 133//133 135//135 134//134 
f 134//134 135//135 136//136 
f 135//135 137//137 136//136 
f 136//136 137//137 138//138 
f 137//137 139//139 138//138 
f 138//138 139//139 140//140 
f 139//139 141//141 140//140 
f 140//140 141//141 142//142 
f 141//141 143//143 142//142 
f 142//142 143//143 144//144 
f 143//143 145//145 144//144 
f 144//144 145//145 146//146 
f 145//145 147//147 146//146 
f 147//147 145//145 148//148 

