mtllib model_40.mtl
o model_40
v 21.770599365234375 4.606093406677246 1.67230224609375 
v 21.770599365234375 4.606093406677246 1.2840242385864258 
v 21.770599365234375 4.201364517211914 1.67230224609375 
v 21.770599365234375 4.3987932205200195 1.4134502410888672 
v 21.770599365234375 2.1653800010681152 1.67230224609375 
v 21.770599365234375 2.412166118621826 1.4134502410888672 
v 21.770599365234375 2.1653800010681152 1.3616797924041748 
v 21.770599365234375 2.1653800010681152 -24.510578155517578 
v 21.770599365234375 2.412166118621826 -24.562347412109375 
v 21.770599365234375 2.1653800010681152 -24.821199417114258 
v 21.770599365234375 4.3987932205200195 -24.562347412109375 
v 21.770599365234375 4.201364517211914 -24.821199417114258 
v 21.770599365234375 4.606093406677246 -24.43292236328125 
v 21.770599365234375 2.412166118621826 -24.562347412109375 
v 21.770599365234375 2.412166118621826 1.4134502410888672 
v 28.452743530273438 2.412166118621826 -24.562347412109375 
v 28.452743530273438 2.412166118621826 1.4134502410888672 
v 21.770599365234375 4.852879524230957 -24.562347412109375 
v 28.452743530273438 4.852879524230957 -24.562347412109375 
v 21.770599365234375 6.83950662612915 -24.562347412109375 
v 28.452743530273438 6.83950662612915 -24.562347412109375 
v 28.452743530273438 2.412166118621826 1.4134502410888672 
v 28.452743530273438 4.3987932205200195 1.4134502410888672 
v 28.452743530273438 2.412166118621826 -24.562347412109375 
v 28.452743530273438 4.3987932205200195 -24.562347412109375 
v 21.770599365234375 7.217089653015137 -24.821199417114258 
v 22.21224594116211 7.217089653015137 -24.821199417114258 
v 21.770599365234375 6.644546031951904 -24.821199417114258 
v 22.21224594116211 6.644546031951904 -24.821199417114258 
v 21.770599365234375 4.606093406677246 -24.821199417114258 
v 22.21224594116211 4.606093406677246 -24.821199417114258 
v 21.770599365234375 4.201364517211914 -24.821199417114258 
v 22.21224594116211 4.201364517211914 -24.821199417114258 
v 21.770599365234375 2.1653800010681152 -24.821199417114258 
v 22.21224594116211 2.1653800010681152 -24.821199417114258 
v 28.678953170776367 7.217089653015137 -24.821199417114258 
v 28.678953170776367 6.644546031951904 -24.821199417114258 
v 28.678953170776367 4.606093406677246 -24.821199417114258 
v 28.678953170776367 4.201364517211914 -24.821199417114258 
v 28.678953170776367 2.1653800010681152 -24.821199417114258 
v 29.1205997467041 6.644546031951904 -24.821199417114258 
v 29.1205997467041 4.606093406677246 -24.821199417114258 
v 29.1205997467041 4.201364517211914 -24.821199417114258 
v 29.1205997467041 2.1653800010681152 -24.821199417114258 
v 22.21224594116211 2.1653800010681152 -24.497634887695312 
v 28.678953170776367 2.1653800010681152 -24.394094467163086 
v 22.21224594116211 2.1653800010681152 1.3487372398376465 
v 28.678953170776367 2.1653800010681152 1.2451963424682617 
v 28.452743530273438 4.3987932205200195 1.4134502410888672 
v 28.452743530273438 2.412166118621826 1.4134502410888672 
v 21.770599365234375 4.3987932205200195 1.4134502410888672 
v 21.770599365234375 2.412166118621826 1.4134502410888672 
v 28.452743530273438 4.3987932205200195 1.4134502410888672 
v 21.770599365234375 4.3987932205200195 1.4134502410888672 
v 28.452743530273438 4.3987932205200195 -24.562347412109375 
v 21.770599365234375 4.3987932205200195 -24.562347412109375 
v 29.1205997467041 7.217089653015137 1.67230224609375 
v 29.1205997467041 6.644546031951904 1.67230224609375 
v 29.1205997467041 7.217089653015137 1.219311237335205 
v 29.1205997467041 6.644546031951904 1.219311237335205 
v 29.1205997467041 6.644546031951904 -24.368209838867188 
v 29.1205997467041 4.606093406677246 -24.368209838867188 
v 29.1205997467041 6.644546031951904 -24.821199417114258 
v 29.1205997467041 4.606093406677246 -24.821199417114258 
v 29.1205997467041 7.217089653015137 -24.368209838867188 
v 29.1205997467041 7.217089653015137 -24.821199417114258 
v 21.770599365234375 7.217089653015137 1.67230224609375 
v 21.770599365234375 7.217089653015137 1.219311237335205 
v 21.770599365234375 6.644546031951904 1.67230224609375 
v 21.770599365234375 6.83950662612915 1.4134502410888672 
v 21.770599365234375 4.606093406677246 1.67230224609375 
v 21.770599365234375 4.852879524230957 1.4134502410888672 
v 21.770599365234375 4.606093406677246 1.2840242385864258 
v 21.770599365234375 4.606093406677246 -24.43292236328125 
v 21.770599365234375 4.852879524230957 -24.562347412109375 
v 21.770599365234375 4.606093406677246 -24.821199417114258 
v 21.770599365234375 6.83950662612915 -24.562347412109375 
v 21.770599365234375 6.644546031951904 -24.821199417114258 
v 21.770599365234375 7.217089653015137 -24.368209838867188 
v 28.452743530273438 4.852879524230957 1.4134502410888672 
v 28.452743530273438 4.852879524230957 -24.562347412109375 
v 21.770599365234375 4.852879524230957 1.4134502410888672 
v 21.770599365234375 4.852879524230957 -24.562347412109375 
v 29.1205997467041 4.201364517211914 -24.821199417114258 
v 29.1205997467041 4.201364517211914 -24.368209838867188 
v 29.1205997467041 2.1653800010681152 -24.368209838867188 
v 29.1205997467041 4.201364517211914 1.219311237335205 
v 29.1205997467041 2.1653800010681152 1.219311237335205 
v 29.1205997467041 4.201364517211914 1.67230224609375 
v 29.1205997467041 2.1653800010681152 1.67230224609375 
v 29.1205997467041 4.606093406677246 1.219311237335205 
v 29.1205997467041 4.606093406677246 1.67230224609375 
v 28.452743530273438 6.83950662612915 -24.562347412109375 
v 28.452743530273438 4.852879524230957 -24.562347412109375 
v 28.452743530273438 6.83950662612915 1.4134502410888672 
v 28.452743530273438 4.852879524230957 1.4134502410888672 
v 28.452743530273438 6.83950662612915 1.4134502410888672 
v 21.770599365234375 6.83950662612915 1.4134502410888672 
v 28.452743530273438 6.83950662612915 -24.562347412109375 
v 21.770599365234375 6.83950662612915 -24.562347412109375 
v 21.770599365234375 7.217089653015137 1.67230224609375 
v 21.770599365234375 6.644546031951904 1.67230224609375 
v 22.21224594116211 7.217089653015137 1.67230224609375 
v 22.21224594116211 6.644546031951904 1.67230224609375 
v 28.678953170776367 7.217089653015137 1.67230224609375 
v 28.678953170776367 6.644546031951904 1.67230224609375 
v 29.1205997467041 6.644546031951904 1.67230224609375 
v 29.1205997467041 4.606093406677246 1.67230224609375 
v 21.770599365234375 4.606093406677246 1.67230224609375 
v 22.21224594116211 4.606093406677246 1.67230224609375 
v 28.678953170776367 4.606093406677246 1.67230224609375 
v 29.1205997467041 4.201364517211914 1.67230224609375 
v 21.770599365234375 4.201364517211914 1.67230224609375 
v 22.21224594116211 4.201364517211914 1.67230224609375 
v 28.678953170776367 4.201364517211914 1.67230224609375 
v 29.1205997467041 2.1653800010681152 1.67230224609375 
v 21.770599365234375 2.1653800010681152 1.67230224609375 
v 22.21224594116211 2.1653800010681152 1.67230224609375 
v 28.678953170776367 2.1653800010681152 1.67230224609375 
v 21.770599365234375 4.852879524230957 1.4134502410888672 
v 21.770599365234375 6.83950662612915 1.4134502410888672 
v 28.452743530273438 4.852879524230957 1.4134502410888672 
v 28.452743530273438 6.83950662612915 1.4134502410888672 
v 28.452743530273438 4.3987932205200195 -24.562347412109375 
v 21.770599365234375 4.3987932205200195 -24.562347412109375 
v 28.452743530273438 2.412166118621826 -24.562347412109375 
v 21.770599365234375 2.412166118621826 -24.562347412109375 
v 28.678953170776367 7.217089653015137 -24.821199417114258 
v 22.21224594116211 7.217089653015137 -24.821199417114258 
v 28.678953170776367 7.217089653015137 -24.368209838867188 
v 22.21224594116211 7.217089653015137 -24.368209838867188 
v 22.21224594116211 7.217089653015137 1.219311237335205 
v 21.770599365234375 7.217089653015137 1.219311237335205 
v 21.770599365234375 7.217089653015137 1.67230224609375 
v 22.21224594116211 7.217089653015137 1.67230224609375 
v 28.678953170776367 7.217089653015137 1.219311237335205 
v 29.1205997467041 7.217089653015137 -24.368209838867188 
v 29.1205997467041 7.217089653015137 -24.821199417114258 
v 28.678953170776367 7.217089653015137 1.67230224609375 
v 29.1205997467041 7.217089653015137 1.67230224609375 
v 29.1205997467041 7.217089653015137 1.219311237335205 
v 21.770599365234375 7.217089653015137 -24.821199417114258 
v 21.770599365234375 7.217089653015137 -24.368209838867188 
v 29.1205997467041 2.1653800010681152 -24.821199417114258 
v 29.1205997467041 7.217089653015137 1.67230224609375 
v 29.1205997467041 7.217089653015137 -24.821199417114258 
v 21.770599365234375 7.217089653015137 -24.821199417114258 
vn -0.999997615814209 -2.0682260971124217e-13 0.002184694167226553 
vn -0.999997615814209 -2.0682260971124217e-13 0.002184694167226553 
vn -0.999997615814209 -2.0682260971124217e-13 0.002184694167226553 
vn -0.999997615814209 -2.0682260971124217e-13 0.002184694167226553 
vn -0.999997615814209 -2.0682260971124217e-13 0.002184694167226553 
vn -0.999997615814209 -2.0682260971124217e-13 0.002184694167226553 
vn -0.999997615814209 -2.0682260971124217e-13 0.002184694167226553 
vn -0.999997615814209 -2.0682260971124217e-13 0.002184694167226553 
vn -0.999997615814209 -2.0682260971124217e-13 0.002184694167226553 
vn -0.999997615814209 -2.0682260971124217e-13 0.002184694167226553 
vn -0.999997615814209 -2.0682260971124217e-13 0.002184694167226553 
vn -0.999997615814209 -2.0682260971124217e-13 0.002184694167226553 
vn -0.999997615814209 -2.0682260971124217e-13 0.002184694167226553 
vn -1.0341130485562108e-13 0.999997615814209 0.002184694167226553 
vn -1.0341130485562108e-13 0.999997615814209 0.002184694167226553 
vn -1.0341130485562108e-13 0.999997615814209 0.002184694167226553 
vn -1.0341130485562108e-13 0.999997615814209 0.002184694167226553 
vn 0 0 1 
vn 0 0 1 
vn 0 0 1 
vn 0 0 1 
vn -0.999997615814209 -2.0682260971124217e-13 0.002184694167226553 
vn -0.999997615814209 -2.0682260971124217e-13 0.002184694167226553 
vn -0.999997615814209 -2.0682260971124217e-13 0.002184694167226553 
vn -0.999997615814209 -2.0682260971124217e-13 0.002184694167226553 
vn -2.0682311115474694e-13 0 -1 
vn -2.0682311115474694e-13 0 -1 
vn -2.0682311115474694e-13 0 -1 
vn -2.0682311115474694e-13 0 -1 
vn -2.0682311115474694e-13 0 -1 
vn -2.0682311115474694e-13 0 -1 
vn -2.0682311115474694e-13 0 -1 
vn -2.0682311115474694e-13 0 -1 
vn -2.0682311115474694e-13 0 -1 
vn -2.0682311115474694e-13 0 -1 
vn -2.0682311115474694e-13 0 -1 
vn -2.0682311115474694e-13 0 -1 
vn -2.0682311115474694e-13 0 -1 
vn -2.0682311115474694e-13 0 -1 
vn -2.0682311115474694e-13 0 -1 
vn -2.0682311115474694e-13 0 -1 
vn -2.0682311115474694e-13 0 -1 
vn -2.0682311115474694e-13 0 -1 
vn -2.0682311115474694e-13 0 -1 
vn 3.097898456858039e-13 -0.999997615814209 0.002184694167226553 
vn 3.097898456858039e-13 -0.999997615814209 0.002184694167226553 
vn 3.097898456858039e-13 -0.999997615814209 0.002184694167226553 
vn 3.097898456858039e-13 -0.999997615814209 0.002184694167226553 
vn -2.0682311115474694e-13 0 -1 
vn -2.0682311115474694e-13 0 -1 
vn -2.0682311115474694e-13 0 -1 
vn -2.0682311115474694e-13 0 -1 
vn 3.097898456858039e-13 -0.999997615814209 0.002184694167226553 
vn 3.097898456858039e-13 -0.999997615814209 0.002184694167226553 
vn 3.097898456858039e-13 -0.999997615814209 0.002184694167226553 
vn 3.097898456858039e-13 -0.999997615814209 0.002184694167226553 
vn 0.999997615814209 0 0.002184694167226553 
vn 0.999997615814209 0 0.002184694167226553 
vn 0.999997615814209 0 0.002184694167226553 
vn 0.999997615814209 0 0.002184694167226553 
vn 0.999997615814209 0 0.002184694167226553 
vn 0.999997615814209 0 0.002184694167226553 
vn 0.999997615814209 0 0.002184694167226553 
vn 0.999997615814209 0 0.002184694167226553 
vn 0.999997615814209 0 0.002184694167226553 
vn 0.999997615814209 0 0.002184694167226553 
vn -0.999997615814209 -2.0682260971124217e-13 0.002184694167226553 
vn -0.999997615814209 -2.0682260971124217e-13 0.002184694167226553 
vn -0.999997615814209 -2.0682260971124217e-13 0.002184694167226553 
vn -0.999997615814209 -2.0682260971124217e-13 0.002184694167226553 
vn -0.999997615814209 -2.0682260971124217e-13 0.002184694167226553 
vn -0.999997615814209 -2.0682260971124217e-13 0.002184694167226553 
vn -0.999997615814209 -2.0682260971124217e-13 0.002184694167226553 
vn -0.999997615814209 -2.0682260971124217e-13 0.002184694167226553 
vn -0.999997615814209 -2.0682260971124217e-13 0.002184694167226553 
vn -0.999997615814209 -2.0682260971124217e-13 0.002184694167226553 
vn -0.999997615814209 -2.0682260971124217e-13 0.002184694167226553 
vn -0.999997615814209 -2.0682260971124217e-13 0.002184694167226553 
vn -0.999997615814209 -2.0682260971124217e-13 0.002184694167226553 
vn -1.0341130485562108e-13 0.999997615814209 0.002184694167226553 
vn -1.0341130485562108e-13 0.999997615814209 0.002184694167226553 
vn -1.0341130485562108e-13 0.999997615814209 0.002184694167226553 
vn -1.0341130485562108e-13 0.999997615814209 0.002184694167226553 
vn 0.999997615814209 0 0.002184694167226553 
vn 0.999997615814209 0 0.002184694167226553 
vn 0.999997615814209 0 0.002184694167226553 
vn 0.999997615814209 0 0.002184694167226553 
vn 0.999997615814209 0 0.002184694167226553 
vn 0.999997615814209 0 0.002184694167226553 
vn 0.999997615814209 0 0.002184694167226553 
vn 0.999997615814209 0 0.002184694167226553 
vn 0.999997615814209 0 0.002184694167226553 
vn -0.999997615814209 -2.0682260971124217e-13 0.002184694167226553 
vn -0.999997615814209 -2.0682260971124217e-13 0.002184694167226553 
vn -0.999997615814209 -2.0682260971124217e-13 0.002184694167226553 
vn -0.999997615814209 -2.0682260971124217e-13 0.002184694167226553 
vn 3.097898456858039e-13 -0.999997615814209 0.002184694167226553 
vn 3.097898456858039e-13 -0.999997615814209 0.002184694167226553 
vn 3.097898456858039e-13 -0.999997615814209 0.002184694167226553 
vn 3.097898456858039e-13 -0.999997615814209 0.002184694167226553 
vn 0 0 1 
vn 0 0 1 
vn 0 0 1 
vn 0 0 1 
vn 0 0 1 
vn 0 0 1 
vn 0 0 1 
vn 0 0 1 
vn 0 0 1 
vn 0 0 1 
vn 0 0 1 
vn 0 0 1 
vn 0 0 1 
vn 0 0 1 
vn 0 0 1 
vn 0 0 1 
vn 0 0 1 
vn 0 0 1 
vn 0 0 1 
vn -2.0682311115474694e-13 0 -1 
vn -2.0682311115474694e-13 0 -1 
vn -2.0682311115474694e-13 0 -1 
vn -2.0682311115474694e-13 0 -1 
vn 0 0 1 
vn 0 0 1 
vn 0 0 1 
vn 0 0 1 
vn -1.0341130485562108e-13 0.999997615814209 0.002184694167226553 
vn -1.0341130485562108e-13 0.999997615814209 0.002184694167226553 
vn -1.0341130485562108e-13 0.999997615814209 0.002184694167226553 
vn -1.0341130485562108e-13 0.999997615814209 0.002184694167226553 
vn -1.0341130485562108e-13 0.999997615814209 0.002184694167226553 
vn -1.0341130485562108e-13 0.999997615814209 0.002184694167226553 
vn -1.0341130485562108e-13 0.999997615814209 0.002184694167226553 
vn -1.0341130485562108e-13 0.999997615814209 0.002184694167226553 
vn -1.0341130485562108e-13 0.999997615814209 0.002184694167226553 
vn -1.0341130485562108e-13 0.999997615814209 0.002184694167226553 
vn -1.0341130485562108e-13 0.999997615814209 0.002184694167226553 
vn -1.0341130485562108e-13 0.999997615814209 0.002184694167226553 
vn -1.0341130485562108e-13 0.999997615814209 0.002184694167226553 
vn -1.0341130485562108e-13 0.999997615814209 0.002184694167226553 
vn -1.0341130485562108e-13 0.999997615814209 0.002184694167226553 
vn -1.0341130485562108e-13 0.999997615814209 0.002184694167226553 
vn 0.999997615814209 0 0.002184694167226553 
vn 0 0 1 
vn -2.0682311115474694e-13 0 -1 
vn -0.999997615814209 -2.0682260971124217e-13 0.002184694167226553 
vt 0.5955597758293152 0.5558080077171326 
vt 0.5955597758293152 0.5581725239753723 
vt 0.5930596590042114 0.5558080077171326 
vt 0.5942597389221191 0.5573843717575073 
vt 0.5805590152740479 0.5558080077171326 
vt 0.5820590853691101 0.5573843717575073 
vt 0.5805590152740479 0.5577521920204163 
vt 0.5805590152740479 0.7165966033935547 
vt 0.5820590853691101 0.7170169949531555 
vt 0.5805590152740479 0.7185407876968384 
vt 0.5942597389221191 0.7170169949531555 
vt 0.5930596590042114 0.7185407876968384 
vt 0.5955597758293152 0.7161762714385986 
vt 0.6960650086402893 0.7154406309127808 
vt 0.6960650086402893 0.5558080077171326 
vt 0.7371171116828918 0.7154406309127808 
vt 0.7371171116828918 0.5558080077171326 
vt 0.9632288813591003 0.9862065315246582 
vt 0.9632288813591003 0.945168673992157 
vt 0.9754295349121094 0.9862065315246582 
vt 0.9754295349121094 0.945168673992157 
vt 0.7842195630073547 0.5558080077171326 
vt 0.7964202165603638 0.5558080077171326 
vt 0.7842195630073547 0.7154406309127808 
vt 0.7964202165603638 0.7154406309127808 
vt 0.8042206168174744 0.9226267337799072 
vt 0.8042206168174744 0.9198943972587585 
vt 0.8077707886695862 0.9226267337799072 
vt 0.8077707886695862 0.9198943972587585 
vt 0.8202714920043945 0.9226267337799072 
vt 0.8202714920043945 0.9198943972587585 
vt 0.8227716088294983 0.9226267337799072 
vt 0.8227716088294983 0.9198943972587585 
vt 0.8352722525596619 0.9226267337799072 
vt 0.8352722525596619 0.9198943972587585 
vt 0.8042206168174744 0.8802226781845093 
vt 0.8077707886695862 0.8802226781845093 
vt 0.8202714920043945 0.8802226781845093 
vt 0.8227716088294983 0.8802226781845093 
vt 0.8352722525596619 0.8802226781845093 
vt 0.8077707886695862 0.8774903416633606 
vt 0.8202714920043945 0.8774903416633606 
vt 0.8227716088294983 0.8774903416633606 
vt 0.8352722525596619 0.8774903416633606 
vt 0.9028257727622986 0.5558080077171326 
vt 0.9425278306007385 0.5563859939575195 
vt 0.9028257727622986 0.714547336101532 
vt 0.9425278306007385 0.713969349861145 
vt 0.954928457736969 0.902449369430542 
vt 0.967129111289978 0.902449369430542 
vt 0.954928457736969 0.9434872269630432 
vt 0.967129111289978 0.9434872269630432 
vt 0.7811694145202637 0.7154406309127808 
vt 0.7401173114776611 0.7154406309127808 
vt 0.7811694145202637 0.5558080077171326 
vt 0.7401173114776611 0.5558080077171326 
vt 0.6453123688697815 0.7185407876968384 
vt 0.6418122053146362 0.7185407876968384 
vt 0.6453123688697815 0.7158084511756897 
vt 0.6418122053146362 0.7158084511756897 
vt 0.6418122053146362 0.5585929155349731 
vt 0.6293115615844727 0.5585929155349731 
vt 0.6418122053146362 0.5558080077171326 
vt 0.6293115615844727 0.5558080077171326 
vt 0.6453123688697815 0.5585929155349731 
vt 0.6453123688697815 0.5558080077171326 
vt 0.6116105914115906 0.5558080077171326 
vt 0.6116105914115906 0.5585929155349731 
vt 0.6080604195594788 0.5558080077171326 
vt 0.6092604994773865 0.5573843717575073 
vt 0.5955597758293152 0.5558080077171326 
vt 0.5970598459243774 0.5573843717575073 
vt 0.5955597758293152 0.5581725239753723 
vt 0.5955597758293152 0.7161762714385986 
vt 0.5970598459243774 0.7170169949531555 
vt 0.5955597758293152 0.7185407876968384 
vt 0.6092604994773865 0.7170169949531555 
vt 0.6080604195594788 0.7185407876968384 
vt 0.6116105914115906 0.7157558798789978 
vt 0.8404725193977356 0.5558080077171326 
vt 0.8404725193977356 0.7154406309127808 
vt 0.7994203567504883 0.5558080077171326 
vt 0.7994203567504883 0.7154406309127808 
vt 0.6268113851547241 0.5558080077171326 
vt 0.6268113851547241 0.5585929155349731 
vt 0.6143107414245605 0.5585929155349731 
vt 0.6268113851547241 0.7158084511756897 
vt 0.6143107414245605 0.7158084511756897 
vt 0.6268113851547241 0.7185407876968384 
vt 0.6143107414245605 0.7185407876968384 
vt 0.6293115615844727 0.7158084511756897 
vt 0.6293115615844727 0.7185407876968384 
vt 0.8997756242752075 0.7154406309127808 
vt 0.8875749707221985 0.7154406309127808 
vt 0.8997756242752075 0.5558080077171326 
vt 0.8875749707221985 0.5558080077171326 
vt 0.884574830532074 0.7154406309127808 
vt 0.8435226678848267 0.7154406309127808 
vt 0.884574830532074 0.5558080077171326 
vt 0.8435226678848267 0.5558080077171326 
vt 0.8016204833984375 0.9226267337799072 
vt 0.7980703115463257 0.9226267337799072 
vt 0.8016204833984375 0.9198943972587585 
vt 0.7980703115463257 0.9198943972587585 
vt 0.8016204833984375 0.8802226781845093 
vt 0.7980703115463257 0.8802226781845093 
vt 0.7980703115463257 0.8774903416633606 
vt 0.7855696678161621 0.8774903416633606 
vt 0.7855696678161621 0.9226267337799072 
vt 0.7855696678161621 0.9198943972587585 
vt 0.7855696678161621 0.8802226781845093 
vt 0.7830695509910583 0.8774903416633606 
vt 0.7830695509910583 0.9226267337799072 
vt 0.7830695509910583 0.9198943972587585 
vt 0.7830695509910583 0.8802226781845093 
vt 0.7705689072608948 0.8774903416633606 
vt 0.7705689072608948 0.9226267337799072 
vt 0.7705689072608948 0.9198943972587585 
vt 0.7705689072608948 0.8802226781845093 
vt 0.9901303052902222 0.9862065315246582 
vt 0.9779296517372131 0.9862065315246582 
vt 0.9901303052902222 0.945168673992157 
vt 0.9779296517372131 0.945168673992157 
vt 0.9823299050331116 0.902449369430542 
vt 0.9823299050331116 0.9434872269630432 
vt 0.9701292514801025 0.902449369430542 
vt 0.9701292514801025 0.9434872269630432 
vt 0.6904147267341614 0.7185407876968384 
vt 0.6506626605987549 0.7185407876968384 
vt 0.6904147267341614 0.7158084511756897 
vt 0.6506626605987549 0.7158084511756897 
vt 0.6506626605987549 0.5585929155349731 
vt 0.6479625105857849 0.5585929155349731 
vt 0.6479625105857849 0.5558080077171326 
vt 0.6506626605987549 0.5558080077171326 
vt 0.6904147267341614 0.5585929155349731 
vt 0.6931148767471313 0.7158084511756897 
vt 0.6931148767471313 0.7185407876968384 
vt 0.6904147267341614 0.5558080077171326 
vt 0.6931148767471313 0.5558080077171326 
vt 0.6931148767471313 0.5585929155349731 
vt 0.6479625105857849 0.7185407876968384 
vt 0.6479625105857849 0.7158084511756897 
vt 0.6143107414245605 0.5558080077171326 
vt 0.8016204833984375 0.8774903416633606 
vt 0.8042206168174744 0.8774903416633606 
vt 0.6116105914115906 0.7185407876968384 
s on 
f 1/1/1 2/2/2 3/3/3 
f 2/2/2 4/4/4 3/3/3 
f 3/3/3 4/4/4 5/5/5 
f 4/4/4 6/6/6 5/5/5 
f 5/5/5 6/6/6 7/7/7 
f 6/6/6 8/8/8 7/7/7 
f 7/7/7 8/8/8 8/8/8 
f 8/8/8 6/6/6 8/8/8 
f 8/8/8 6/6/6 6/6/6 
f 6/6/6 9/9/9 6/6/6 
f 6/6/6 9/9/9 8/8/8 
f 9/9/9 10/10/10 8/8/8 
f 8/8/8 10/10/10 10/10/10 
f 10/10/10 9/9/9 10/10/10 
f 10/10/10 9/9/9 9/9/9 
f 9/9/9 11/11/11 9/9/9 
f 9/9/9 11/11/11 10/10/10 
f 11/11/11 12/12/12 10/10/10 
f 10/10/10 12/12/12 12/12/12 
f 12/12/12 11/11/11 12/12/12 
f 12/12/12 11/11/11 13/13/13 
f 11/11/11 4/4/4 13/13/13 
f 13/13/13 4/4/4 2/2/2 
f 4/4/4 2/2/2 2/2/2 
f 2/2/2 2/2/2 14/14/14 
f 2/2/2 14/14/14 14/14/14 
f 14/14/14 14/14/14 14/14/14 
f 14/14/14 15/15/15 14/14/14 
f 14/14/14 15/15/15 16/16/16 
f 15/15/15 17/17/17 16/16/16 
f 16/16/16 17/17/17 17/17/17 
f 17/17/17 18/18/18 17/17/17 
f 17/17/17 18/18/18 18/18/18 
f 18/18/18 19/19/19 18/18/18 
f 18/18/18 19/19/19 20/20/20 
f 19/19/19 21/21/21 20/20/20 
f 20/20/20 21/21/21 21/21/21 
f 21/21/21 22/22/22 21/21/21 
f 21/21/21 22/22/22 22/22/22 
f 22/22/22 23/23/23 22/22/22 
f 22/22/22 23/23/23 24/24/24 
f 23/23/23 25/25/25 24/24/24 
f 24/24/24 25/25/25 25/25/25 
f 25/25/25 26/26/26 25/25/25 
f 25/25/25 26/26/26 26/26/26 
f 26/26/26 27/27/27 26/26/26 
f 26/26/26 27/27/27 28/28/28 
f 27/27/27 29/29/29 28/28/28 
f 28/28/28 29/29/29 30/30/30 
f 29/29/29 31/31/31 30/30/30 
f 30/30/30 31/31/31 32/32/32 
f 31/31/31 33/33/33 32/32/32 
f 32/32/32 33/33/33 34/34/34 
f 33/33/33 35/35/35 34/34/34 
f 34/34/34 35/35/35 35/35/35 
f 35/35/35 27/27/27 35/35/35 
f 35/35/35 27/27/27 27/27/27 
f 27/27/27 36/36/36 27/27/27 
f 27/27/27 36/36/36 29/29/29 
f 36/36/36 37/37/37 29/29/29 
f 29/29/29 37/37/37 31/31/31 
f 37/37/37 38/38/38 31/31/31 
f 31/31/31 38/38/38 33/33/33 
f 38/38/38 39/39/39 33/33/33 
f 33/33/33 39/39/39 35/35/35 
f 39/39/39 40/40/40 35/35/35 
f 35/35/35 40/40/40 40/40/40 
f 40/40/40 36/36/36 40/40/40 
f 40/40/40 36/36/36 36/36/36 
f 36/36/36 41/41/41 36/36/36 
f 36/36/36 41/41/41 37/37/37 
f 41/41/41 42/42/42 37/37/37 
f 37/37/37 42/42/42 38/38/38 
f 42/42/42 43/43/43 38/38/38 
f 38/38/38 43/43/43 39/39/39 
f 43/43/43 44/44/44 39/39/39 
f 39/39/39 44/44/44 40/40/40 
f 44/44/44 40/40/40 40/40/40 
f 40/40/40 40/40/40 45/45/45 
f 40/40/40 45/45/45 45/45/45 
f 45/45/45 45/45/45 45/45/45 
f 45/45/45 46/46/46 45/45/45 
f 45/45/45 46/46/46 47/47/47 
f 46/46/46 48/48/48 47/47/47 
f 47/47/47 48/48/48 48/48/48 
f 48/48/48 49/49/49 48/48/48 
f 48/48/48 49/49/49 49/49/49 
f 49/49/49 50/50/50 49/49/49 
f 49/49/49 50/50/50 51/51/51 
f 50/50/50 52/52/52 51/51/51 
f 51/51/51 52/52/52 52/52/52 
f 52/52/52 53/53/53 52/52/52 
f 52/52/52 53/53/53 53/53/53 
f 53/53/53 54/54/54 53/53/53 
f 53/53/53 54/54/54 55/55/55 
f 54/54/54 56/56/56 55/55/55 
f 55/55/55 56/56/56 56/56/56 
f 56/56/56 57/57/57 56/56/56 
f 56/56/56 57/57/57 57/57/57 
f 57/57/57 58/58/58 57/57/57 
f 57/57/57 58/58/58 59/59/59 
f 58/58/58 60/60/60 59/59/59 
f 59/59/59 60/60/60 61/61/61 
f 60/60/60 62/62/62 61/61/61 
f 61/61/61 62/62/62 63/63/63 
f 62/62/62 64/64/64 63/63/63 
f 63/63/63 64/64/64 64/64/64 
f 64/64/64 59/59/59 64/64/64 
f 64/64/64 59/59/59 59/59/59 
f 59/59/59 61/61/61 59/59/59 
f 59/59/59 61/61/61 65/65/65 
f 61/61/61 63/63/63 65/65/65 
f 65/65/65 63/63/63 66/66/66 
f 63/63/63 66/66/66 66/66/66 
f 66/66/66 66/66/66 67/67/67 
f 66/66/66 67/67/67 67/67/67 
f 67/67/67 67/67/67 67/67/67 
f 67/67/67 68/68/68 67/67/67 
f 67/67/67 68/68/68 69/69/69 
f 68/68/68 70/70/70 69/69/69 
f 69/69/69 70/70/70 71/71/71 
f 70/70/70 72/72/72 71/71/71 
f 71/71/71 72/72/72 73/73/73 
f 72/72/72 74/74/74 73/73/73 
f 73/73/73 74/74/74 74/74/74 
f 74/74/74 72/72/72 74/74/74 
f 74/74/74 72/72/72 72/72/72 
f 72/72/72 75/75/75 72/72/72 
f 72/72/72 75/75/75 74/74/74 
f 75/75/75 76/76/76 74/74/74 
f 74/74/74 76/76/76 76/76/76 
f 76/76/76 75/75/75 76/76/76 
f 76/76/76 75/75/75 75/75/75 
f 75/75/75 77/77/77 75/75/75 
f 75/75/75 77/77/77 76/76/76 
f 77/77/77 78/78/78 76/76/76 
f 76/76/76 78/78/78 78/78/78 
f 78/78/78 77/77/77 78/78/78 
f 78/78/78 77/77/77 79/79/79 
f 77/77/77 70/70/70 79/79/79 
f 79/79/79 70/70/70 68/68/68 
f 70/70/70 68/68/68 68/68/68 
f 68/68/68 68/68/68 80/80/80 
f 68/68/68 80/80/80 80/80/80 
f 80/80/80 80/80/80 80/80/80 
f 80/80/80 81/81/81 80/80/80 
f 80/80/80 81/81/81 82/82/82 
f 81/81/81 83/83/83 82/82/82 
f 82/82/82 83/83/83 83/83/83 
f 83/83/83 64/64/64 83/83/83 
f 83/83/83 64/64/64 64/64/64 
f 64/64/64 62/62/62 64/64/64 
f 64/64/64 62/62/62 84/84/84 
f 62/62/62 85/85/85 84/84/84 
f 84/84/84 85/85/85 86/86/86 
f 85/85/85 87/87/87 86/86/86 
f 86/86/86 87/87/87 88/88/88 
f 87/87/87 89/89/89 88/88/88 
f 88/88/88 89/89/89 90/90/90 
f 89/89/89 90/90/90 90/90/90 
f 90/90/90 90/90/90 89/89/89 
f 90/90/90 89/89/89 89/89/89 
f 89/89/89 89/89/89 89/89/89 
f 89/89/89 87/87/87 89/89/89 
f 89/89/89 87/87/87 91/91/91 
f 87/87/87 85/85/85 91/91/91 
f 91/91/91 85/85/85 62/62/62 
f 85/85/85 62/62/62 62/62/62 
f 62/62/62 62/62/62 62/62/62 
f 62/62/62 60/60/60 62/62/62 
f 62/62/62 60/60/60 91/91/91 
f 60/60/60 58/58/58 91/91/91 
f 91/91/91 58/58/58 92/92/92 
f 58/58/58 92/92/92 92/92/92 
f 92/92/92 92/92/92 93/93/93 
f 92/92/92 93/93/93 93/93/93 
f 93/93/93 93/93/93 93/93/93 
f 93/93/93 94/94/94 93/93/93 
f 93/93/93 94/94/94 95/95/95 
f 94/94/94 96/96/96 95/95/95 
f 95/95/95 96/96/96 96/96/96 
f 96/96/96 97/97/97 96/96/96 
f 96/96/96 97/97/97 97/97/97 
f 97/97/97 98/98/98 97/97/97 
f 97/97/97 98/98/98 99/99/99 
f 98/98/98 100/100/100 99/99/99 
f 99/99/99 100/100/100 100/100/100 
f 100/100/100 101/101/101 100/100/100 
f 100/100/100 101/101/101 101/101/101 
f 101/101/101 102/102/102 101/101/101 
f 101/101/101 102/102/102 103/103/103 
f 102/102/102 104/104/104 103/103/103 
f 103/103/103 104/104/104 105/105/105 
f 104/104/104 106/106/106 105/105/105 
f 105/105/105 106/106/106 107/107/107 
f 106/106/106 108/108/108 107/107/107 
f 107/107/107 108/108/108 108/108/108 
f 108/108/108 102/102/102 108/108/108 
f 108/108/108 102/102/102 102/102/102 
f 102/102/102 109/109/109 102/102/102 
f 102/102/102 109/109/109 104/104/104 
f 109/109/109 110/110/110 104/104/104 
f 104/104/104 110/110/110 106/106/106 
f 110/110/110 111/111/111 106/106/106 
f 106/106/106 111/111/111 108/108/108 
f 111/111/111 112/112/112 108/108/108 
f 108/108/108 112/112/112 112/112/112 
f 112/112/112 109/109/109 112/112/112 
f 112/112/112 109/109/109 109/109/109 
f 109/109/109 113/113/113 109/109/109 
f 109/109/109 113/113/113 110/110/110 
f 113/113/113 114/114/114 110/110/110 
f 110/110/110 114/114/114 111/111/111 
f 114/114/114 115/115/115 111/111/111 
f 111/111/111 115/115/115 112/112/112 
f 115/115/115 116/116/116 112/112/112 
f 112/112/112 116/116/116 116/116/116 
f 116/116/116 113/113/113 116/116/116 
f 116/116/116 113/113/113 113/113/113 
f 113/113/113 117/117/117 113/113/113 
f 113/113/113 117/117/117 114/114/114 
f 117/117/117 118/118/118 114/114/114 
f 114/114/114 118/118/118 115/115/115 
f 118/118/118 119/119/119 115/115/115 
f 115/115/115 119/119/119 116/116/116 
f 119/119/119 116/116/116 116/116/116 
f 116/116/116 116/116/116 120/120/120 
f 116/116/116 120/120/120 120/120/120 
f 120/120/120 120/120/120 120/120/120 
f 120/120/120 121/121/121 120/120/120 
f 120/120/120 121/121/121 122/122/122 
f 121/121/121 123/123/123 122/122/122 
f 122/122/122 123/123/123 123/123/123 
f 123/123/123 124/124/124 123/123/123 
f 123/123/123 124/124/124 124/124/124 
f 124/124/124 125/125/125 124/124/124 
f 124/124/124 125/125/125 126/126/126 
f 125/125/125 127/127/127 126/126/126 
f 126/126/126 127/127/127 127/127/127 
f 127/127/127 128/128/128 127/127/127 
f 127/127/127 128/128/128 128/128/128 
f 128/128/128 129/129/129 128/128/128 
f 128/128/128 129/129/129 130/130/130 
f 129/129/129 131/131/131 130/130/130 
f 130/130/130 131/131/131 132/132/132 
f 131/131/131 133/133/133 132/132/132 
f 132/132/132 133/133/133 134/134/134 
f 133/133/133 134/134/134 134/134/134 
f 134/134/134 134/134/134 134/134/134 
f 134/134/134 135/135/135 134/134/134 
f 134/134/134 135/135/135 132/132/132 
f 135/135/135 136/136/136 132/132/132 
f 132/132/132 136/136/136 130/130/130 
f 136/136/136 137/137/137 130/130/130 
f 130/130/130 137/137/137 138/138/138 
f 137/137/137 138/138/138 138/138/138 
f 138/138/138 138/138/138 135/135/135 
f 138/138/138 135/135/135 135/135/135 
f 135/135/135 135/135/135 135/135/135 
f 135/135/135 139/139/139 135/135/135 
f 135/135/135 139/139/139 136/136/136 
f 139/139/139 140/140/140 136/136/136 
f 136/136/136 140/140/140 141/141/141 
f 140/140/140 141/141/141 141/141/141 
f 141/141/141 141/141/141 129/129/129 
f 141/141/141 129/129/129 129/129/129 
f 129/129/129 129/129/129 129/129/129 
f 129/129/129 142/142/142 129/129/129 
f 129/129/129 142/142/142 131/131/131 
f 142/142/142 143/143/143 131/131/131 
f 131/131/131 143/143/143 133/133/133 
f 91/91/91 92/92/92 89/89/89 
f 12/12/12 13/13/13 76/76/76 
f 84/84/84 86/86/86 144/144/144 
f 107/107/107 145/145/145 105/105/105 
f 136/136/136 141/141/141 137/137/137 
f 41/41/41 36/36/36 146/146/146 
f 138/138/138 128/128/128 130/130/130 
f 78/78/78 79/79/79 147/147/147 

