mtllib model_6.mtl
o model_6
v -19.62459945678711 28.560075759887695 -43.69367599487305 
v -19.62459945678711 15.81879997253418 -43.69367599487305 
v -10.356927871704102 28.560075759887695 -43.69367599487305 
v -10.356927871704102 15.81879997253418 -43.69367599487305 
vn 0 0 1 
vn 0 0 1 
vn 0 0 1 
vn 0 0 1 
vt 0.001448950031772256 0.9980086088180542 
vt 0.001448950031772256 0.001992030069231987 
vt 0.998415470123291 0.9980086088180542 
vt 0.998415470123291 0.001992030069231987 
s on 
f 1/1/1 2/2/2 3/3/3 
f 2/2/2 4/4/4 3/3/3 

