mtllib model_3.mtl
o model_3
v -2.8678596019744873 40.203861236572266 -2.8678596019744873 
v -2.8678596019744873 40.203861236572266 2.8725268840789795 
v -2.8678596019744873 35.286598205566406 -2.8678596019744873 
v -2.8678596019744873 35.286598205566406 2.8725268840789795 
v 2.8725268840789795 35.286598205566406 -2.8678596019744873 
v 2.8725268840789795 35.286598205566406 2.8725268840789795 
v 2.8725268840789795 40.203861236572266 -2.8678596019744873 
v 2.8725268840789795 40.203861236572266 2.8725268840789795 
v 4.344747543334961 40.203861236572266 -4.3400797843933105 
v 4.344747543334961 36.42523193359375 -4.3400797843933105 
v -4.3400797843933105 40.203861236572266 -4.3400797843933105 
v -4.3400797843933105 36.42523193359375 -4.3400797843933105 
v 2.902225971221924 35.286598205566406 -2.8975586891174316 
v 2.902225971221924 40.203861236572266 -2.8975586891174316 
v 2.902225971221924 35.286598205566406 2.902225971221924 
v 2.902225971221924 40.203861236572266 2.902225971221924 
v -2.8678596019744873 40.203861236572266 2.8725268840789795 
v 2.8725268840789795 40.203861236572266 2.8725268840789795 
v -2.8678596019744873 35.286598205566406 2.8725268840789795 
v 2.8725268840789795 35.286598205566406 2.8725268840789795 
v 2.902225971221924 35.286598205566406 2.902225971221924 
v 2.902225971221924 40.203861236572266 2.902225971221924 
v -2.8975586891174316 35.286598205566406 2.902225971221924 
v -2.8975586891174316 40.203861236572266 2.902225971221924 
v -2.8678596019744873 35.286598205566406 -2.8678596019744873 
v 2.8725268840789795 35.286598205566406 -2.8678596019744873 
v -2.8678596019744873 40.203861236572266 -2.8678596019744873 
v 2.8725268840789795 40.203861236572266 -2.8678596019744873 
v 2.902225971221924 40.203861236572266 -2.8975586891174316 
v 2.902225971221924 35.286598205566406 -2.8975586891174316 
v -2.8975586891174316 40.203861236572266 -2.8975586891174316 
v -2.8975586891174316 35.286598205566406 -2.8975586891174316 
v 4.344747543334961 40.203861236572266 4.344747543334961 
v 4.344747543334961 36.42523193359375 4.344747543334961 
v 4.344747543334961 40.203861236572266 -4.3400797843933105 
v 4.344747543334961 36.42523193359375 -4.3400797843933105 
v -2.8975586891174316 35.286598205566406 2.902225971221924 
v -2.8975586891174316 40.203861236572266 2.902225971221924 
v -2.8975586891174316 35.286598205566406 -2.8975586891174316 
v -2.8975586891174316 40.203861236572266 -2.8975586891174316 
v -4.293410301208496 40.203861236572266 4.298077583312988 
v 4.298077583312988 40.203861236572266 4.298077583312988 
v -4.293410301208496 36.42523193359375 4.298077583312988 
v 4.298077583312988 36.42523193359375 4.298077583312988 
v -4.293410301208496 40.203861236572266 -4.293410301208496 
v -4.293410301208496 40.203861236572266 4.298077583312988 
v -4.293410301208496 36.42523193359375 -4.293410301208496 
v -4.293410301208496 36.42523193359375 4.298077583312988 
v -4.3400797843933105 40.203861236572266 -4.3400797843933105 
v -4.3400797843933105 36.42523193359375 -4.3400797843933105 
v -4.3400797843933105 40.203861236572266 4.344747543334961 
v -4.3400797843933105 36.42523193359375 4.344747543334961 
v -4.3400797843933105 40.203861236572266 4.344747543334961 
v -4.3400797843933105 36.42523193359375 4.344747543334961 
v 4.344747543334961 40.203861236572266 4.344747543334961 
v 4.344747543334961 36.42523193359375 4.344747543334961 
v -4.293410301208496 36.42523193359375 -4.293410301208496 
v 4.298077583312988 36.42523193359375 -4.293410301208496 
v -4.293410301208496 40.203861236572266 -4.293410301208496 
v 4.298077583312988 40.203861236572266 -4.293410301208496 
v 4.298077583312988 36.42523193359375 -4.293410301208496 
v 4.298077583312988 36.42523193359375 4.298077583312988 
v 4.298077583312988 40.203861236572266 -4.293410301208496 
v 4.298077583312988 40.203861236572266 4.298077583312988 
v -2.8975586891174316 35.286598205566406 2.902225971221924 
v -2.8678596019744873 35.286598205566406 2.8725268840789795 
v 2.902225971221924 35.286598205566406 2.902225971221924 
v 2.8725268840789795 35.286598205566406 2.8725268840789795 
v 2.902225971221924 35.286598205566406 -2.8975586891174316 
v 2.8725268840789795 35.286598205566406 -2.8678596019744873 
v -2.8975586891174316 35.286598205566406 -2.8975586891174316 
v -2.8678596019744873 35.286598205566406 -2.8678596019744873 
v 4.298077583312988 36.42523193359375 -4.293410301208496 
v 4.344747543334961 36.42523193359375 -4.3400797843933105 
v 4.298077583312988 36.42523193359375 4.298077583312988 
v 4.344747543334961 36.42523193359375 4.344747543334961 
v -4.293410301208496 36.42523193359375 4.298077583312988 
v -4.3400797843933105 36.42523193359375 4.344747543334961 
v -4.293410301208496 36.42523193359375 -4.293410301208496 
v -4.3400797843933105 36.42523193359375 -4.3400797843933105 
vn 0.999997615814209 0 0.002184694167226553 
vn 0.999997615814209 0 0.002184694167226553 
vn 0.999997615814209 0 0.002184694167226553 
vn 0.999997615814209 0 0.002184694167226553 
vn -0.999997615814209 -2.0682260971124217e-13 0.002184694167226553 
vn -0.999997615814209 -2.0682260971124217e-13 0.002184694167226553 
vn -0.999997615814209 -2.0682260971124217e-13 0.002184694167226553 
vn -0.999997615814209 -2.0682260971124217e-13 0.002184694167226553 
vn -2.0682311115474694e-13 0 -1 
vn -2.0682311115474694e-13 0 -1 
vn -2.0682311115474694e-13 0 -1 
vn -2.0682311115474694e-13 0 -1 
vn 0.999997615814209 0 0.002184694167226553 
vn 0.999997615814209 0 0.002184694167226553 
vn 0.999997615814209 0 0.002184694167226553 
vn 0.999997615814209 0 0.002184694167226553 
vn -2.0682311115474694e-13 0 -1 
vn -2.0682311115474694e-13 0 -1 
vn -2.0682311115474694e-13 0 -1 
vn -2.0682311115474694e-13 0 -1 
vn 0 0 1 
vn 0 0 1 
vn 0 0 1 
vn 0 0 1 
vn 0 0 1 
vn 0 0 1 
vn 0 0 1 
vn 0 0 1 
vn -2.0682311115474694e-13 0 -1 
vn -2.0682311115474694e-13 0 -1 
vn -2.0682311115474694e-13 0 -1 
vn -2.0682311115474694e-13 0 -1 
vn 0.999997615814209 0 0.002184694167226553 
vn 0.999997615814209 0 0.002184694167226553 
vn 0.999997615814209 0 0.002184694167226553 
vn 0.999997615814209 0 0.002184694167226553 
vn -0.999997615814209 -2.0682260971124217e-13 0.002184694167226553 
vn -0.999997615814209 -2.0682260971124217e-13 0.002184694167226553 
vn -0.999997615814209 -2.0682260971124217e-13 0.002184694167226553 
vn -0.999997615814209 -2.0682260971124217e-13 0.002184694167226553 
vn -2.0682311115474694e-13 0 -1 
vn -2.0682311115474694e-13 0 -1 
vn -2.0682311115474694e-13 0 -1 
vn -2.0682311115474694e-13 0 -1 
vn 0.999997615814209 0 0.002184694167226553 
vn 0.999997615814209 0 0.002184694167226553 
vn 0.999997615814209 0 0.002184694167226553 
vn 0.999997615814209 0 0.002184694167226553 
vn -0.999997615814209 -2.0682260971124217e-13 0.002184694167226553 
vn -0.999997615814209 -2.0682260971124217e-13 0.002184694167226553 
vn -0.999997615814209 -2.0682260971124217e-13 0.002184694167226553 
vn -0.999997615814209 -2.0682260971124217e-13 0.002184694167226553 
vn 0 0 1 
vn 0 0 1 
vn 0 0 1 
vn 0 0 1 
vn 0 0 1 
vn 0 0 1 
vn 0 0 1 
vn 0 0 1 
vn -0.999997615814209 -2.0682260971124217e-13 0.002184694167226553 
vn -0.999997615814209 -2.0682260971124217e-13 0.002184694167226553 
vn -0.999997615814209 -2.0682260971124217e-13 0.002184694167226553 
vn -0.999997615814209 -2.0682260971124217e-13 0.002184694167226553 
vn 3.097898456858039e-13 -0.999997615814209 0.002184694167226553 
vn 3.097898456858039e-13 -0.999997615814209 0.002184694167226553 
vn 3.097898456858039e-13 -0.999997615814209 0.002184694167226553 
vn 3.097898456858039e-13 -0.999997615814209 0.002184694167226553 
vn 3.097898456858039e-13 -0.999997615814209 -0.002184694167226553 
vn 3.097898456858039e-13 -0.999997615814209 -0.002184694167226553 
vn 3.097898456858039e-13 -0.999997615814209 -0.002184694167226553 
vn 3.097898456858039e-13 -0.999997615814209 -0.002184694167226553 
vn 3.097898456858039e-13 -0.999997615814209 0.002184694167226553 
vn 3.097898456858039e-13 -0.999997615814209 0.002184694167226553 
vn 3.097898456858039e-13 -0.999997615814209 0.002184694167226553 
vn 3.097898456858039e-13 -0.999997615814209 0.002184694167226553 
vn 3.097898456858039e-13 -0.999997615814209 0.002184694167226553 
vn 3.097898456858039e-13 -0.999997615814209 0.002184694167226553 
vn 3.097898456858039e-13 -0.999997615814209 0.002184694167226553 
vn 3.097898456858039e-13 -0.999997615814209 0.002184694167226553 
vt 0.9923648238182068 0.9875301122665405 
vt 0.01780489645898342 0.9875301122665405 
vt 0.9923648238182068 0.010235000401735306 
vt 0.01780489645898342 0.010235000401735306 
vt 0.01780489645898342 0.010235000401735306 
vt 0.9923648238182068 0.010235000401735306 
vt 0.01780489645898342 0.9875301122665405 
vt 0.9923648238182068 0.9875301122665405 
vt 0.014941000379621983 0.9875301122665405 
vt 0.014941000379621983 0.010235000401735306 
vt 0.9923648238182068 0.9875301122665405 
vt 0.9923648238182068 0.010235000401735306 
vt 0.9923648238182068 0.010235000401735306 
vt 0.9923648238182068 0.9875301122665405 
vt 0.015895631164312363 0.010235000401735306 
vt 0.01780489645898342 0.9875301122665405 
vt 0.9923648238182068 0.9878881573677063 
vt 0.01780489645898342 0.9875301122665405 
vt 0.9923648238182068 0.010235000401735306 
vt 0.01780489645898342 0.010235000401735306 
vt 0.9923648238182068 0.010235000401735306 
vt 0.9923648238182068 0.9875301122665405 
vt 0.01780489645898342 0.010235000401735306 
vt 0.01780489645898342 0.9875301122665405 
vt 0.01780489645898342 0.010235000401735306 
vt 0.9923648238182068 0.010235000401735306 
vt 0.01780489645898342 0.9875301122665405 
vt 0.9923648238182068 0.9875301122665405 
vt 0.01780489645898342 0.9875301122665405 
vt 0.01780489645898342 0.010235000401735306 
vt 0.9923648238182068 0.9878881573677063 
vt 0.9923648238182068 0.010235000401735306 
vt 0.014941000379621983 0.9875301122665405 
vt 0.014941000379621983 0.010235000401735306 
vt 0.9923648238182068 0.9875301122665405 
vt 0.9923648238182068 0.010235000401735306 
vt 0.9923648238182068 0.010235000401735306 
vt 0.9923648238182068 0.9875301122665405 
vt 0.015895631164312363 0.010235000401735306 
vt 0.01780489645898342 0.9875301122665405 
vt 0.9923648238182068 0.9875301122665405 
vt 0.01780489645898342 0.9875301122665405 
vt 0.9923648238182068 0.010235000401735306 
vt 0.01780489645898342 0.010235000401735306 
vt 0.9923648238182068 0.9875301122665405 
vt 0.01780489645898342 0.9875301122665405 
vt 0.9923648238182068 0.010235000401735306 
vt 0.01780489645898342 0.010235000401735306 
vt 0.014941000379621983 0.9875301122665405 
vt 0.014941000379621983 0.010235000401735306 
vt 0.9923648238182068 0.9875301122665405 
vt 0.9923648238182068 0.010235000401735306 
vt 0.014941000379621983 0.9875301122665405 
vt 0.014941000379621983 0.010235000401735306 
vt 0.9923648238182068 0.9875301122665405 
vt 0.9923648238182068 0.010235000401735306 
vt 0.01780489645898342 0.010235000401735306 
vt 0.9923648238182068 0.010235000401735306 
vt 0.01780489645898342 0.9875301122665405 
vt 0.9923648238182068 0.9875301122665405 
vt 0.01780489645898342 0.010235000401735306 
vt 0.9923648238182068 0.010235000401735306 
vt 0.01780489645898342 0.9875301122665405 
vt 0.9923648238182068 0.9875301122665405 
vt 0.1003805622458458 0.7995428442955017 
vt 0.11470004171133041 0.7851006388664246 
vt 0.13594061136245728 0.7995428442955017 
vt 0.12150179594755173 0.7851006388664246 
vt 0.13594061136245728 0.7638550996780396 
vt 0.12150179594755173 0.7782973051071167 
vt 0.1003805622458458 0.7638550996780396 
vt 0.11470004171133041 0.7782973051071167 
vt 0.12150179594755173 0.778416633605957 
vt 0.13582128286361694 0.764093816280365 
vt 0.12150179594755173 0.7851006388664246 
vt 0.13582128286361694 0.7995428442955017 
vt 0.11470004171133041 0.7851006388664246 
vt 0.10026123374700546 0.7995428442955017 
vt 0.11470004171133041 0.778416633605957 
vt 0.10026123374700546 0.764093816280365 
s on 
f 1/1/1 2/2/2 3/3/3 
f 2/2/2 4/4/4 3/3/3 
f 3/3/3 4/4/4 4/4/4 
f 4/4/4 5/5/5 4/4/4 
f 4/4/4 5/5/5 5/5/5 
f 5/5/5 6/6/6 5/5/5 
f 5/5/5 6/6/6 7/7/7 
f 6/6/6 8/8/8 7/7/7 
f 7/7/7 8/8/8 8/8/8 
f 8/8/8 9/9/9 8/8/8 
f 8/8/8 9/9/9 9/9/9 
f 9/9/9 10/10/10 9/9/9 
f 9/9/9 10/10/10 11/11/11 
f 10/10/10 12/12/12 11/11/11 
f 11/11/11 12/12/12 12/12/12 
f 12/12/12 13/13/13 12/12/12 
f 12/12/12 13/13/13 13/13/13 
f 13/13/13 14/14/14 13/13/13 
f 13/13/13 14/14/14 15/15/15 
f 14/14/14 16/16/16 15/15/15 
f 15/15/15 16/16/16 16/16/16 
f 16/16/16 17/17/17 16/16/16 
f 16/16/16 17/17/17 17/17/17 
f 17/17/17 18/18/18 17/17/17 
f 17/17/17 18/18/18 19/19/19 
f 18/18/18 20/20/20 19/19/19 
f 19/19/19 20/20/20 20/20/20 
f 20/20/20 21/21/21 20/20/20 
f 20/20/20 21/21/21 21/21/21 
f 21/21/21 22/22/22 21/21/21 
f 21/21/21 22/22/22 23/23/23 
f 22/22/22 24/24/24 23/23/23 
f 23/23/23 24/24/24 24/24/24 
f 24/24/24 25/25/25 24/24/24 
f 24/24/24 25/25/25 25/25/25 
f 25/25/25 26/26/26 25/25/25 
f 25/25/25 26/26/26 27/27/27 
f 26/26/26 28/28/28 27/27/27 
f 27/27/27 28/28/28 28/28/28 
f 28/28/28 29/29/29 28/28/28 
f 28/28/28 29/29/29 29/29/29 
f 29/29/29 30/30/30 29/29/29 
f 29/29/29 30/30/30 31/31/31 
f 30/30/30 32/32/32 31/31/31 
f 31/31/31 32/32/32 32/32/32 
f 32/32/32 33/33/33 32/32/32 
f 32/32/32 33/33/33 33/33/33 
f 33/33/33 34/34/34 33/33/33 
f 33/33/33 34/34/34 35/35/35 
f 34/34/34 36/36/36 35/35/35 
f 35/35/35 36/36/36 36/36/36 
f 36/36/36 37/37/37 36/36/36 
f 36/36/36 37/37/37 37/37/37 
f 37/37/37 38/38/38 37/37/37 
f 37/37/37 38/38/38 39/39/39 
f 38/38/38 40/40/40 39/39/39 
f 39/39/39 40/40/40 40/40/40 
f 40/40/40 41/41/41 40/40/40 
f 40/40/40 41/41/41 41/41/41 
f 41/41/41 42/42/42 41/41/41 
f 41/41/41 42/42/42 43/43/43 
f 42/42/42 44/44/44 43/43/43 
f 43/43/43 44/44/44 44/44/44 
f 44/44/44 45/45/45 44/44/44 
f 44/44/44 45/45/45 45/45/45 
f 45/45/45 46/46/46 45/45/45 
f 45/45/45 46/46/46 47/47/47 
f 46/46/46 48/48/48 47/47/47 
f 47/47/47 48/48/48 48/48/48 
f 48/48/48 49/49/49 48/48/48 
f 48/48/48 49/49/49 49/49/49 
f 49/49/49 50/50/50 49/49/49 
f 49/49/49 50/50/50 51/51/51 
f 50/50/50 52/52/52 51/51/51 
f 51/51/51 52/52/52 52/52/52 
f 52/52/52 53/53/53 52/52/52 
f 52/52/52 53/53/53 53/53/53 
f 53/53/53 54/54/54 53/53/53 
f 53/53/53 54/54/54 55/55/55 
f 54/54/54 56/56/56 55/55/55 
f 55/55/55 56/56/56 56/56/56 
f 56/56/56 57/57/57 56/56/56 
f 56/56/56 57/57/57 57/57/57 
f 57/57/57 58/58/58 57/57/57 
f 57/57/57 58/58/58 59/59/59 
f 58/58/58 60/60/60 59/59/59 
f 59/59/59 60/60/60 60/60/60 
f 60/60/60 61/61/61 60/60/60 
f 60/60/60 61/61/61 61/61/61 
f 61/61/61 62/62/62 61/61/61 
f 61/61/61 62/62/62 63/63/63 
f 62/62/62 64/64/64 63/63/63 
f 63/63/63 64/64/64 64/64/64 
f 64/64/64 65/65/65 64/64/64 
f 64/64/64 65/65/65 65/65/65 
f 65/65/65 66/66/66 65/65/65 
f 65/65/65 66/66/66 67/67/67 
f 66/66/66 68/68/68 67/67/67 
f 67/67/67 68/68/68 69/69/69 
f 68/68/68 70/70/70 69/69/69 
f 69/69/69 70/70/70 71/71/71 
f 70/70/70 72/72/72 71/71/71 
f 71/71/71 72/72/72 65/65/65 
f 72/72/72 66/66/66 65/65/65 
f 65/65/65 66/66/66 66/66/66 
f 66/66/66 73/73/73 66/66/66 
f 66/66/66 73/73/73 73/73/73 
f 73/73/73 74/74/74 73/73/73 
f 73/73/73 74/74/74 75/75/75 
f 74/74/74 76/76/76 75/75/75 
f 75/75/75 76/76/76 77/77/77 
f 76/76/76 78/78/78 77/77/77 
f 77/77/77 78/78/78 79/79/79 
f 78/78/78 80/80/80 79/79/79 
f 79/79/79 80/80/80 73/73/73 
f 80/80/80 74/74/74 73/73/73 

