mtllib model_16.mtl
o model_16
v -29.400001525878906 0 6.867830276489258 
v -29.400001525878906 0 -29.971399307250977 
v -29.400001525878906 36.75 6.867830276489258 
v -29.400001525878906 36.75 -29.971399307250977 
vn 0.999997615814209 0 0.002184694167226553 
vn 0.999997615814209 0 0.002184694167226553 
vn 0.999997615814209 0 0.002184694167226553 
vn 0.999997615814209 0 0.002184694167226553 
vt 0.3285680115222931 0.7251660227775574 
vt 0.45177221298217773 0.7251660227775574 
vt 0.3285680115222931 0.8480716347694397 
vt 0.45177221298217773 0.8480716347694397 
s on 
f 1/1/1 2/2/2 3/3/3 
f 2/2/2 4/4/4 3/3/3 

