mtllib model_54.mtl
o model_54
v 24.54907989501953 20.833114624023438 38.345062255859375 
v 24.102497100830078 19.31200408935547 38.79164505004883 
v 24.751354217529297 20.683252334594727 38.14278793334961 
v 24.92736053466797 20.47344398498535 37.96678161621094 
v 25.2714900970459 19.31200408935547 37.62527847290039 
v 25.19268226623535 19.31200408935547 37.549095153808594 
v 25.247848510742188 19.63420867919922 37.648921966552734 
v 25.171667098999023 19.63420867919922 37.57011032104492 
v 22.944013595581055 18.675085067749023 39.789886474609375 
v 24.02368927001953 19.31200408935547 38.712833404541016 
v 23.05171775817871 18.390344619750977 39.68217849731445 
v 23.198827743530273 18.143070220947266 39.537696838378906 
v 23.374832153320312 17.94075584411621 39.359066009521484 
v 23.57710838317871 17.78339958190918 39.15941619873047 
v 23.797771453857422 17.6934814453125 38.94137954711914 
v 24.02368927001953 17.66350746154785 38.712833404541016 
v 24.252233505249023 17.6934814453125 38.48691940307617 
v 24.472898483276367 17.78339958190918 38.26625442504883 
v 24.67254638671875 17.94075584411621 38.06660461425781 
v 24.851179122924805 18.143070220947266 37.88797378540039 
v 24.99566078186035 18.390344619750977 37.743492126464844 
v 25.103364944458008 18.675085067749023 37.63578414916992 
v 25.171667098999023 18.989797592163086 37.57011032104492 
v 25.19268226623535 19.31200408935547 37.549095153808594 
v 22.455400466918945 5.622000217437744 40.543819427490234 
v 22.455400466918945 16.16487693786621 40.543819427490234 
v 25.84941864013672 5.622000217437744 37.14979934692383 
v 25.84941864013672 16.16487693786621 37.14979934692383 
v 27.832767486572266 16.16487693786621 39.133148193359375 
v 27.832767486572266 5.622000217437744 39.133148193359375 
v 25.84941864013672 16.16487693786621 37.14979934692383 
v 25.84941864013672 5.622000217437744 37.14979934692383 
v 24.43874740600586 5.622000217437744 42.52716827392578 
v 24.43874740600586 16.16487693786621 42.52716827392578 
v 22.455400466918945 5.622000217437744 40.543819427490234 
v 22.455400466918945 16.16487693786621 40.543819427490234 
v 25.19268226623535 19.31200408935547 37.549095153808594 
v 24.02368927001953 19.31200408935547 38.712833404541016 
v 25.171667098999023 19.63420867919922 37.57011032104492 
v 25.103364944458008 19.941429138183594 37.63578414916992 
v 25.247848510742188 18.989797592163086 37.648921966552734 
v 25.171667098999023 18.989797592163086 37.57011032104492 
v 25.2714900970459 19.31200408935547 37.62527847290039 
v 25.19268226623535 19.31200408935547 37.549095153808594 
v 25.182174682617188 18.675085067749023 37.714595794677734 
v 25.103364944458008 18.675085067749023 37.63578414916992 
v 25.247848510742188 18.989797592163086 37.648921966552734 
v 25.171667098999023 18.989797592163086 37.57011032104492 
v 25.0744686126709 18.390344619750977 37.82229995727539 
v 24.99566078186035 18.390344619750977 37.743492126464844 
v 25.182174682617188 18.675085067749023 37.714595794677734 
v 25.103364944458008 18.675085067749023 37.63578414916992 
v 23.655916213989258 20.833114624023438 39.235599517822266 
v 23.453641891479492 20.683252334594727 39.43787384033203 
v 24.102497100830078 19.31200408935547 38.79164505004883 
v 23.275009155273438 20.47344398498535 39.6138801574707 
v 24.92736053466797 20.47344398498535 37.96678161621094 
v 24.102497100830078 19.31200408935547 38.79164505004883 
v 25.0744686126709 20.22616958618164 37.82229995727539 
v 25.182174682617188 19.941429138183594 37.714595794677734 
v 25.247848510742188 19.63420867919922 37.648921966552734 
v 25.2714900970459 19.31200408935547 37.62527847290039 
v 22.9571475982666 19.63420867919922 39.93436813354492 
v 22.878339767456055 19.63420867919922 39.855560302734375 
v 22.933504104614258 19.31200408935547 39.95538330078125 
v 22.85469627380371 19.31200408935547 39.87919998168945 
v 24.99566078186035 18.390344619750977 37.743492126464844 
v 25.0744686126709 18.390344619750977 37.82229995727539 
v 24.851179122924805 18.143070220947266 37.88797378540039 
v 24.92736053466797 18.143070220947266 37.96678161621094 
v 24.751354217529297 17.94075584411621 38.14278793334961 
v 24.67254638671875 17.94075584411621 38.06660461425781 
v 24.92736053466797 18.143070220947266 37.96678161621094 
v 24.851179122924805 18.143070220947266 37.88797378540039 
v 23.05171775817871 18.390344619750977 39.68217849731445 
v 23.130525588989258 18.390344619750977 39.75836181640625 
v 22.944013595581055 18.675085067749023 39.789886474609375 
v 23.0228214263916 18.675085067749023 39.866065979003906 
v 23.198827743530273 18.143070220947266 39.537696838378906 
v 23.275009155273438 18.143070220947266 39.6138801574707 
v 23.05171775817871 18.390344619750977 39.68217849731445 
v 23.130525588989258 18.390344619750977 39.75836181640625 
v 23.374832153320312 17.94075584411621 39.359066009521484 
v 23.453641891479492 17.94075584411621 39.43787384033203 
v 23.198827743530273 18.143070220947266 39.537696838378906 
v 23.275009155273438 18.143070220947266 39.6138801574707 
v 23.453641891479492 17.94075584411621 39.43787384033203 
v 23.374832153320312 17.94075584411621 39.359066009521484 
v 23.655916213989258 17.78339958190918 39.235599517822266 
v 23.57710838317871 17.78339958190918 39.15941619873047 
v 23.655916213989258 17.78339958190918 39.235599517822266 
v 23.57710838317871 17.78339958190918 39.15941619873047 
v 23.873952865600586 17.6934814453125 39.01756286621094 
v 23.797771453857422 17.6934814453125 38.94137954711914 
v 22.933504104614258 19.31200408935547 39.95538330078125 
v 22.85469627380371 19.31200408935547 39.87919998168945 
v 22.9571475982666 18.989797592163086 39.93436813354492 
v 22.878339767456055 18.989797592163086 39.855560302734375 
v 23.873952865600586 17.6934814453125 39.01756286621094 
v 23.797771453857422 17.6934814453125 38.94137954711914 
v 24.102497100830078 17.66350746154785 38.79164505004883 
v 24.02368927001953 17.66350746154785 38.712833404541016 
v 24.102497100830078 17.66350746154785 38.79164505004883 
v 24.02368927001953 17.66350746154785 38.712833404541016 
v 24.331043243408203 17.6934814453125 38.5630989074707 
v 24.252233505249023 17.6934814453125 38.48691940307617 
v 24.331043243408203 17.6934814453125 38.5630989074707 
v 24.252233505249023 17.6934814453125 38.48691940307617 
v 24.54907989501953 17.78339958190918 38.345062255859375 
v 24.472898483276367 17.78339958190918 38.26625442504883 
v 24.54907989501953 17.78339958190918 38.345062255859375 
v 24.472898483276367 17.78339958190918 38.26625442504883 
v 24.751354217529297 17.94075584411621 38.14278793334961 
v 24.67254638671875 17.94075584411621 38.06660461425781 
v 23.0228214263916 19.941429138183594 39.866065979003906 
v 22.944013595581055 19.941429138183594 39.789886474609375 
v 22.9571475982666 19.63420867919922 39.93436813354492 
v 22.878339767456055 19.63420867919922 39.855560302734375 
v 22.9571475982666 18.989797592163086 39.93436813354492 
v 22.878339767456055 18.989797592163086 39.855560302734375 
v 23.0228214263916 18.675085067749023 39.866065979003906 
v 22.944013595581055 18.675085067749023 39.789886474609375 
v 25.182174682617188 18.675085067749023 37.714595794677734 
v 25.247848510742188 18.989797592163086 37.648921966552734 
v 24.102497100830078 19.31200408935547 38.79164505004883 
v 25.2714900970459 19.31200408935547 37.62527847290039 
v 22.944013595581055 19.941429138183594 39.789886474609375 
v 23.0228214263916 19.941429138183594 39.866065979003906 
v 23.05171775817871 20.22616958618164 39.68217849731445 
v 23.130525588989258 20.22616958618164 39.75836181640625 
v 22.878339767456055 18.989797592163086 39.855560302734375 
v 22.85469627380371 19.31200408935547 39.87919998168945 
v 22.878339767456055 19.63420867919922 39.855560302734375 
v 22.944013595581055 19.941429138183594 39.789886474609375 
v 23.05171775817871 20.22616958618164 39.68217849731445 
v 23.198827743530273 20.47344398498535 39.537696838378906 
v 23.374832153320312 20.683252334594727 39.359066009521484 
v 23.57710838317871 20.833114624023438 39.15941619873047 
v 23.797771453857422 20.930526733398438 38.94137954711914 
v 24.02368927001953 20.960498809814453 38.712833404541016 
v 24.252233505249023 20.930526733398438 38.48691940307617 
v 24.472898483276367 20.833114624023438 38.26625442504883 
v 24.67254638671875 20.683252334594727 38.06660461425781 
v 24.851179122924805 20.47344398498535 37.88797378540039 
v 24.99566078186035 20.22616958618164 37.743492126464844 
v 25.103364944458008 19.941429138183594 37.63578414916992 
v 23.05171775817871 20.22616958618164 39.68217849731445 
v 23.130525588989258 20.22616958618164 39.75836181640625 
v 23.198827743530273 20.47344398498535 39.537696838378906 
v 23.275009155273438 20.47344398498535 39.6138801574707 
v 24.252233505249023 20.930526733398438 38.48691940307617 
v 24.331043243408203 20.930526733398438 38.5630989074707 
v 24.472898483276367 20.833114624023438 38.26625442504883 
v 24.54907989501953 20.833114624023438 38.345062255859375 
v 24.102497100830078 20.960498809814453 38.79164505004883 
v 24.02368927001953 20.960498809814453 38.712833404541016 
v 23.873952865600586 20.930526733398438 39.01756286621094 
v 23.797771453857422 20.930526733398438 38.94137954711914 
v 23.374832153320312 20.683252334594727 39.359066009521484 
v 23.453641891479492 20.683252334594727 39.43787384033203 
v 23.57710838317871 20.833114624023438 39.15941619873047 
v 23.655916213989258 20.833114624023438 39.235599517822266 
v 24.751354217529297 20.683252334594727 38.14278793334961 
v 24.67254638671875 20.683252334594727 38.06660461425781 
v 24.54907989501953 20.833114624023438 38.345062255859375 
v 24.472898483276367 20.833114624023438 38.26625442504883 
v 23.873952865600586 20.930526733398438 39.01756286621094 
v 23.797771453857422 20.930526733398438 38.94137954711914 
v 23.655916213989258 20.833114624023438 39.235599517822266 
v 23.57710838317871 20.833114624023438 39.15941619873047 
v 23.453641891479492 20.683252334594727 39.43787384033203 
v 23.374832153320312 20.683252334594727 39.359066009521484 
v 23.275009155273438 20.47344398498535 39.6138801574707 
v 23.198827743530273 20.47344398498535 39.537696838378906 
v 25.182174682617188 19.941429138183594 37.714595794677734 
v 25.103364944458008 19.941429138183594 37.63578414916992 
v 25.0744686126709 20.22616958618164 37.82229995727539 
v 24.99566078186035 20.22616958618164 37.743492126464844 
v 25.0744686126709 20.22616958618164 37.82229995727539 
v 24.99566078186035 20.22616958618164 37.743492126464844 
v 24.92736053466797 20.47344398498535 37.96678161621094 
v 24.851179122924805 20.47344398498535 37.88797378540039 
v 24.92736053466797 18.143070220947266 37.96678161621094 
v 25.0744686126709 18.390344619750977 37.82229995727539 
v 24.102497100830078 19.31200408935547 38.79164505004883 
v 25.182174682617188 18.675085067749023 37.714595794677734 
v 24.54907989501953 17.78339958190918 38.345062255859375 
v 24.331043243408203 17.6934814453125 38.5630989074707 
v 24.102497100830078 17.66350746154785 38.79164505004883 
v 24.92736053466797 18.143070220947266 37.96678161621094 
v 24.751354217529297 17.94075584411621 38.14278793334961 
v 24.54907989501953 17.78339958190918 38.345062255859375 
v 23.655916213989258 20.833114624023438 39.235599517822266 
v 23.873952865600586 20.930526733398438 39.01756286621094 
v 24.102497100830078 20.960498809814453 38.79164505004883 
v 24.331043243408203 20.930526733398438 38.5630989074707 
v 24.54907989501953 20.833114624023438 38.345062255859375 
v 24.67254638671875 20.683252334594727 38.06660461425781 
v 24.751354217529297 20.683252334594727 38.14278793334961 
v 24.851179122924805 20.47344398498535 37.88797378540039 
v 24.92736053466797 20.47344398498535 37.96678161621094 
v 25.103364944458008 19.941429138183594 37.63578414916992 
v 25.182174682617188 19.941429138183594 37.714595794677734 
v 25.171667098999023 19.63420867919922 37.57011032104492 
v 25.247848510742188 19.63420867919922 37.648921966552734 
v 23.275009155273438 20.47344398498535 39.6138801574707 
v 23.130525588989258 20.22616958618164 39.75836181640625 
v 23.0228214263916 19.941429138183594 39.866065979003906 
v 22.9571475982666 19.63420867919922 39.93436813354492 
v 22.933504104614258 19.31200408935547 39.95538330078125 
v 22.9571475982666 18.989797592163086 39.93436813354492 
v 23.0228214263916 18.675085067749023 39.866065979003906 
v 23.130525588989258 18.390344619750977 39.75836181640625 
v 23.275009155273438 18.143070220947266 39.6138801574707 
v 23.453641891479492 17.94075584411621 39.43787384033203 
v 23.655916213989258 17.78339958190918 39.235599517822266 
v 23.873952865600586 17.6934814453125 39.01756286621094 
v 24.102497100830078 17.66350746154785 38.79164505004883 
v 24.102497100830078 20.960498809814453 38.79164505004883 
v 24.252233505249023 20.930526733398438 38.48691940307617 
v 24.02368927001953 20.960498809814453 38.712833404541016 
v 24.102497100830078 20.960498809814453 38.79164505004883 
v 24.331043243408203 20.930526733398438 38.5630989074707 
v 24.252233505249023 20.930526733398438 38.48691940307617 
v 24.02368927001953 19.31200408935547 38.712833404541016 
v 22.944013595581055 18.675085067749023 39.789886474609375 
v 22.878339767456055 18.989797592163086 39.855560302734375 
vn 0.9542446732521057 0 0.2990269064903259 
vn 0.9542446732521057 0 0.2990269064903259 
vn 0.9542446732521057 0 0.2990269064903259 
vn 0.9542446732521057 0 0.2990269064903259 
vn 0.29823657870292664 0.09690293669700623 -0.949560284614563 
vn 0.29823657870292664 0.09690293669700623 -0.949560284614563 
vn 0.29823657870292664 0.09690293669700623 -0.949560284614563 
vn 0.29823657870292664 0.09690293669700623 -0.949560284614563 
vn -0.9542446732521057 -1.9693608180847144e-13 -0.2990269064903259 
vn -0.9542446732521057 -1.9693608180847144e-13 -0.2990269064903259 
vn -0.9542446732521057 -1.9693608180847144e-13 -0.2990269064903259 
vn -0.9542446732521057 -1.9693608180847144e-13 -0.2990269064903259 
vn -0.9542446732521057 -1.9693608180847144e-13 -0.2990269064903259 
vn -0.9542446732521057 -1.9693608180847144e-13 -0.2990269064903259 
vn -0.9542446732521057 -1.9693608180847144e-13 -0.2990269064903259 
vn -0.9542446732521057 -1.9693608180847144e-13 -0.2990269064903259 
vn -0.9542446732521057 -1.9693608180847144e-13 -0.2990269064903259 
vn -0.9542446732521057 -1.9693608180847144e-13 -0.2990269064903259 
vn -0.9542446732521057 -1.9693608180847144e-13 -0.2990269064903259 
vn -0.9542446732521057 -1.9693608180847144e-13 -0.2990269064903259 
vn -0.9542446732521057 -1.9693608180847144e-13 -0.2990269064903259 
vn -0.9542446732521057 -1.9693608180847144e-13 -0.2990269064903259 
vn -0.9542446732521057 -1.9693608180847144e-13 -0.2990269064903259 
vn -0.9542446732521057 -1.9693608180847144e-13 -0.2990269064903259 
vn -0.7078686952590942 0.0037756471429020166 -0.7063339352607727 
vn -0.7078686952590942 0.0037756471429020166 -0.7063339352607727 
vn -0.7078686952590942 0.0037756471429020166 -0.7063339352607727 
vn -0.7078686952590942 0.0037756471429020166 -0.7063339352607727 
vn 0.7078787684440613 0 -0.7063339352607727 
vn 0.7078787684440613 0 -0.7063339352607727 
vn 0.7078787684440613 0 -0.7063339352607727 
vn 0.7078787684440613 0 -0.7063339352607727 
vn -0.7078787684440613 -1.4640568759497624e-13 0.7063339352607727 
vn -0.7078787684440613 -1.4640568759497624e-13 0.7063339352607727 
vn -0.7078787684440613 -1.4640568759497624e-13 0.7063339352607727 
vn -0.7078787684440613 -1.4640568759497624e-13 0.7063339352607727 
vn -0.9542446732521057 -1.9693608180847144e-13 -0.2990269064903259 
vn -0.9542446732521057 -1.9693608180847144e-13 -0.2990269064903259 
vn -0.9542446732521057 -1.9693608180847144e-13 -0.2990269064903259 
vn -0.9542446732521057 -1.9693608180847144e-13 -0.2990269064903259 
vn 0.29823657870292664 -0.09690293669700623 -0.949560284614563 
vn 0.29823657870292664 -0.09690293669700623 -0.949560284614563 
vn 0.29823657870292664 -0.09690293669700623 -0.949560284614563 
vn 0.29823657870292664 -0.09690293669700623 -0.949560284614563 
vn 0.2839396297931671 -0.2919694483280182 -0.913308322429657 
vn 0.2839396297931671 -0.2919694483280182 -0.913308322429657 
vn 0.2839396297931671 -0.2919694483280182 -0.913308322429657 
vn 0.2839396297931671 -0.2919694483280182 -0.913308322429657 
vn 0.2642457187175751 -0.47281205654144287 -0.8406086564064026 
vn 0.2642457187175751 -0.47281205654144287 -0.8406086564064026 
vn 0.2642457187175751 -0.47281205654144287 -0.8406086564064026 
vn 0.2642457187175751 -0.47281205654144287 -0.8406086564064026 
vn 0.9542446732521057 0 0.2990269064903259 
vn 0.9542446732521057 0 0.2990269064903259 
vn 0.9542446732521057 0 0.2990269064903259 
vn 0.9542446732521057 0 0.2990269064903259 
vn 0.9542446732521057 0 0.2990269064903259 
vn 0.9542446732521057 0 0.2990269064903259 
vn 0.9542446732521057 0 0.2990269064903259 
vn 0.9542446732521057 0 0.2990269064903259 
vn 0.9542446732521057 0 0.2990269064903259 
vn 0.9542446732521057 0 0.2990269064903259 
vn -0.29846811294555664 0.09618744254112244 0.949560284614563 
vn -0.29846811294555664 0.09618744254112244 0.949560284614563 
vn -0.29846811294555664 0.09618744254112244 0.949560284614563 
vn -0.29846811294555664 0.09618744254112244 0.949560284614563 
vn 0.2332981526851654 -0.6348400712013245 -0.736579954624176 
vn 0.2332981526851654 -0.6348400712013245 -0.736579954624176 
vn 0.2332981526851654 -0.6348400712013245 -0.736579954624176 
vn 0.2332981526851654 -0.6348400712013245 -0.736579954624176 
vn 0.19251342117786407 -0.7731695771217346 -0.6042742133140564 
vn 0.19251342117786407 -0.7731695771217346 -0.6042742133140564 
vn 0.19251342117786407 -0.7731695771217346 -0.6042742133140564 
vn 0.19251342117786407 -0.7731695771217346 -0.6042742133140564 
vn -0.26646286249160767 -0.4715661108493805 0.8406086564064026 
vn -0.26646286249160767 -0.4715661108493805 0.8406086564064026 
vn -0.26646286249160767 -0.4715661108493805 0.8406086564064026 
vn -0.26646286249160767 -0.4715661108493805 0.8406086564064026 
vn -0.22896376252174377 -0.6364161968231201 0.736579954624176 
vn -0.22896376252174377 -0.6364161968231201 0.736579954624176 
vn -0.22896376252174377 -0.6364161968231201 0.736579954624176 
vn -0.22896376252174377 -0.6364161968231201 0.736579954624176 
vn -0.1867368072271347 -0.7745850682258606 0.6042742133140564 
vn -0.1867368072271347 -0.7745850682258606 0.6042742133140564 
vn -0.1867368072271347 -0.7745850682258606 0.6042742133140564 
vn -0.1867368072271347 -0.7745850682258606 0.6042742133140564 
vn -0.14278151094913483 -0.8821890950202942 0.4487268626689911 
vn -0.14278151094913483 -0.8821890950202942 0.4487268626689911 
vn -0.14278151094913483 -0.8821890950202942 0.4487268626689911 
vn -0.14278151094913483 -0.8821890950202942 0.4487268626689911 
vn -0.09039567410945892 -0.9562863111495972 0.2781098484992981 
vn -0.09039567410945892 -0.9562863111495972 0.2781098484992981 
vn -0.09039567410945892 -0.9562863111495972 0.2781098484992981 
vn -0.09039567410945892 -0.9562863111495972 0.2781098484992981 
vn -0.29846811294555664 -0.09618744254112244 0.949560284614563 
vn -0.29846811294555664 -0.09618744254112244 0.949560284614563 
vn -0.29846811294555664 -0.09618744254112244 0.949560284614563 
vn -0.29846811294555664 -0.09618744254112244 0.949560284614563 
vn -0.028292996808886528 -0.9951885938644409 0.09380380809307098 
vn -0.028292996808886528 -0.9951885938644409 0.09380380809307098 
vn -0.028292996808886528 -0.9951885938644409 0.09380380809307098 
vn -0.028292996808886528 -0.9951885938644409 0.09380380809307098 
vn 0.03206416964530945 -0.9950742125511169 -0.09380380809307098 
vn 0.03206416964530945 -0.9950742125511169 -0.09380380809307098 
vn 0.03206416964530945 -0.9950742125511169 -0.09380380809307098 
vn 0.03206416964530945 -0.9950742125511169 -0.09380380809307098 
vn 0.08862830698490143 -0.9564517140388489 -0.2781098484992981 
vn 0.08862830698490143 -0.9564517140388489 -0.2781098484992981 
vn 0.08862830698490143 -0.9564517140388489 -0.2781098484992981 
vn 0.08862830698490143 -0.9564517140388489 -0.2781098484992981 
vn 0.1411067247390747 -0.8824585676193237 -0.4487268626689911 
vn 0.1411067247390747 -0.8824585676193237 -0.4487268626689911 
vn 0.1411067247390747 -0.8824585676193237 -0.4487268626689911 
vn 0.1411067247390747 -0.8824585676193237 -0.4487268626689911 
vn -0.2853093147277832 0.29063114523887634 0.913308322429657 
vn -0.2853093147277832 0.29063114523887634 0.913308322429657 
vn -0.2853093147277832 0.29063114523887634 0.913308322429657 
vn -0.2853093147277832 0.29063114523887634 0.913308322429657 
vn -0.2853093147277832 -0.29063114523887634 0.913308322429657 
vn -0.2853093147277832 -0.29063114523887634 0.913308322429657 
vn -0.2853093147277832 -0.29063114523887634 0.913308322429657 
vn -0.2853093147277832 -0.29063114523887634 0.913308322429657 
vn 0.9542446732521057 0 0.2990269064903259 
vn 0.9542446732521057 0 0.2990269064903259 
vn 0.9542446732521057 0 0.2990269064903259 
vn 0.9542446732521057 0 0.2990269064903259 
vn -0.26646286249160767 0.4715661108493805 0.8406086564064026 
vn -0.26646286249160767 0.4715661108493805 0.8406086564064026 
vn -0.26646286249160767 0.4715661108493805 0.8406086564064026 
vn -0.26646286249160767 0.4715661108493805 0.8406086564064026 
vn -0.9542446732521057 -1.9693608180847144e-13 -0.2990269064903259 
vn -0.9542446732521057 -1.9693608180847144e-13 -0.2990269064903259 
vn -0.9542446732521057 -1.9693608180847144e-13 -0.2990269064903259 
vn -0.9542446732521057 -1.9693608180847144e-13 -0.2990269064903259 
vn -0.9542446732521057 -1.9693608180847144e-13 -0.2990269064903259 
vn -0.9542446732521057 -1.9693608180847144e-13 -0.2990269064903259 
vn -0.9542446732521057 -1.9693608180847144e-13 -0.2990269064903259 
vn -0.9542446732521057 -1.9693608180847144e-13 -0.2990269064903259 
vn -0.9542446732521057 -1.9693608180847144e-13 -0.2990269064903259 
vn -0.9542446732521057 -1.9693608180847144e-13 -0.2990269064903259 
vn -0.9542446732521057 -1.9693608180847144e-13 -0.2990269064903259 
vn -0.9542446732521057 -1.9693608180847144e-13 -0.2990269064903259 
vn -0.9542446732521057 -1.9693608180847144e-13 -0.2990269064903259 
vn -0.9542446732521057 -1.9693608180847144e-13 -0.2990269064903259 
vn -0.9542446732521057 -1.9693608180847144e-13 -0.2990269064903259 
vn -0.9542446732521057 -1.9693608180847144e-13 -0.2990269064903259 
vn -0.22896376252174377 0.6364161968231201 0.736579954624176 
vn -0.22896376252174377 0.6364161968231201 0.736579954624176 
vn -0.22896376252174377 0.6364161968231201 0.736579954624176 
vn -0.22896376252174377 0.6364161968231201 0.736579954624176 
vn 0.08862830698490143 0.9564517140388489 -0.2781098484992981 
vn 0.08862830698490143 0.9564517140388489 -0.2781098484992981 
vn 0.08862830698490143 0.9564517140388489 -0.2781098484992981 
vn 0.08862830698490143 0.9564517140388489 -0.2781098484992981 
vn -0.028292996808886528 0.9951885938644409 0.09380380809307098 
vn -0.028292996808886528 0.9951885938644409 0.09380380809307098 
vn -0.028292996808886528 0.9951885938644409 0.09380380809307098 
vn -0.028292996808886528 0.9951885938644409 0.09380380809307098 
vn -0.14278151094913483 0.8821890950202942 0.4487268626689911 
vn -0.14278151094913483 0.8821890950202942 0.4487268626689911 
vn -0.14278151094913483 0.8821890950202942 0.4487268626689911 
vn -0.14278151094913483 0.8821890950202942 0.4487268626689911 
vn 0.1411067247390747 0.8824585676193237 -0.4487268626689911 
vn 0.1411067247390747 0.8824585676193237 -0.4487268626689911 
vn 0.1411067247390747 0.8824585676193237 -0.4487268626689911 
vn 0.1411067247390747 0.8824585676193237 -0.4487268626689911 
vn -0.09039567410945892 0.9562863111495972 0.2781098484992981 
vn -0.09039567410945892 0.9562863111495972 0.2781098484992981 
vn -0.09039567410945892 0.9562863111495972 0.2781098484992981 
vn -0.09039567410945892 0.9562863111495972 0.2781098484992981 
vn -0.1867368072271347 0.7745850682258606 0.6042742133140564 
vn -0.1867368072271347 0.7745850682258606 0.6042742133140564 
vn -0.1867368072271347 0.7745850682258606 0.6042742133140564 
vn -0.1867368072271347 0.7745850682258606 0.6042742133140564 
vn 0.2642457187175751 0.47281205654144287 -0.8406086564064026 
vn 0.2642457187175751 0.47281205654144287 -0.8406086564064026 
vn 0.2642457187175751 0.47281205654144287 -0.8406086564064026 
vn 0.2642457187175751 0.47281205654144287 -0.8406086564064026 
vn 0.2332981526851654 0.6348400712013245 -0.736579954624176 
vn 0.2332981526851654 0.6348400712013245 -0.736579954624176 
vn 0.2332981526851654 0.6348400712013245 -0.736579954624176 
vn 0.2332981526851654 0.6348400712013245 -0.736579954624176 
vn 0.9542446732521057 0 0.2990269064903259 
vn 0.9542446732521057 0 0.2990269064903259 
vn 0.9542446732521057 0 0.2990269064903259 
vn 0.9542446732521057 0 0.2990269064903259 
vn 0.9542446732521057 0 0.2990269064903259 
vn 0.9542446732521057 0 0.2990269064903259 
vn 0.9542446732521057 0 0.2990269064903259 
vn 0.9542446732521057 0 0.2990269064903259 
vn 0.9542446732521057 0 0.2990269064903259 
vn 0.9542446732521057 0 0.2990269064903259 
vn 0.9542446732521057 0 0.2990269064903259 
vn 0.9542446732521057 0 0.2990269064903259 
vn 0.9542446732521057 0 0.2990269064903259 
vn 0.9542446732521057 0 0.2990269064903259 
vn 0.9542446732521057 0 0.2990269064903259 
vn 0.19251342117786407 0.7731695771217346 -0.6042742133140564 
vn 0.19251342117786407 0.7731695771217346 -0.6042742133140564 
vn 0.19251342117786407 0.7731695771217346 -0.6042742133140564 
vn 0.19251342117786407 0.7731695771217346 -0.6042742133140564 
vn 0.2839396297931671 0.2919694483280182 -0.913308322429657 
vn 0.2839396297931671 0.2919694483280182 -0.913308322429657 
vn 0.2839396297931671 0.2919694483280182 -0.913308322429657 
vn 0.2839396297931671 0.2919694483280182 -0.913308322429657 
vn 0.9542446732521057 0 0.2990269064903259 
vn 0.9542446732521057 0 0.2990269064903259 
vn 0.9542446732521057 0 0.2990269064903259 
vn 0.9542446732521057 0 0.2990269064903259 
vn 0.9542446732521057 0 0.2990269064903259 
vn 0.9542446732521057 0 0.2990269064903259 
vn 0.9542446732521057 0 0.2990269064903259 
vn 0.9542446732521057 0 0.2990269064903259 
vn 0.9542446732521057 0 0.2990269064903259 
vn 0.9542446732521057 0 0.2990269064903259 
vn 0.9542446732521057 0 0.2990269064903259 
vn 0.9542446732521057 0 0.2990269064903259 
vn 0.9542446732521057 0 0.2990269064903259 
vn 0.03206416964530945 0.9950742125511169 -0.09380380809307098 
vn 0.03206416964530945 0.9950742125511169 -0.09380380809307098 
vn 0.03206416964530945 0.9950742125511169 -0.09380380809307098 
vn 0.03206416964530945 0.9950742125511169 -0.09380380809307098 
vn 0.03206416964530945 0.9950742125511169 -0.09380380809307098 
vn 0.03206416964530945 0.9950742125511169 -0.09380380809307098 
vn -0.9542446732521057 -1.9693608180847144e-13 -0.2990269064903259 
vn -0.9542446732521057 -1.9693608180847144e-13 -0.2990269064903259 
vn -0.9542446732521057 -1.9693608180847144e-13 -0.2990269064903259 
s on 
f 1//1 2//2 3//3 
f 2//2 4//4 3//3 
f 3//3 4//4 4//4 
f 4//4 5//5 4//4 
f 4//4 5//5 5//5 
f 5//5 6//6 5//5 
f 5//5 6//6 7//7 
f 6//6 8//8 7//7 
f 7//7 8//8 8//8 
f 8//8 9//9 8//8 
f 8//8 9//9 9//9 
f 9//9 10//10 9//9 
f 9//9 10//10 11//11 
f 10//10 12//12 11//11 
f 11//11 12//12 12//12 
f 12//12 10//10 12//12 
f 12//12 10//10 13//13 
f 10//10 14//14 13//13 
f 13//13 14//14 14//14 
f 14//14 10//10 14//14 
f 14//14 10//10 15//15 
f 10//10 16//16 15//15 
f 15//15 16//16 16//16 
f 16//16 10//10 16//16 
f 16//16 10//10 17//17 
f 10//10 18//18 17//17 
f 17//17 18//18 18//18 
f 18//18 10//10 18//18 
f 18//18 10//10 19//19 
f 10//10 20//20 19//19 
f 19//19 20//20 20//20 
f 20//20 10//10 20//20 
f 20//20 10//10 21//21 
f 10//10 22//22 21//21 
f 21//21 22//22 22//22 
f 22//22 10//10 22//22 
f 22//22 10//10 23//23 
f 10//10 24//24 23//23 
f 23//23 24//24 24//24 
f 24//24 25//25 24//24 
f 24//24 25//25 25//25 
f 25//25 26//26 25//25 
f 25//25 26//26 27//27 
f 26//26 28//28 27//27 
f 27//27 28//28 28//28 
f 28//28 29//29 28//28 
f 28//28 29//29 29//29 
f 29//29 30//30 29//29 
f 29//29 30//30 31//31 
f 30//30 32//32 31//31 
f 31//31 32//32 32//32 
f 32//32 33//33 32//32 
f 32//32 33//33 33//33 
f 33//33 34//34 33//33 
f 33//33 34//34 35//35 
f 34//34 36//36 35//35 
f 35//35 36//36 36//36 
f 36//36 37//37 36//36 
f 36//36 37//37 37//37 
f 37//37 38//38 37//37 
f 37//37 38//38 39//39 
f 38//38 40//40 39//39 
f 39//39 40//40 40//40 
f 40//40 41//41 40//40 
f 40//40 41//41 41//41 
f 41//41 42//42 41//41 
f 41//41 42//42 43//43 
f 42//42 44//44 43//43 
f 43//43 44//44 44//44 
f 44//44 45//45 44//44 
f 44//44 45//45 45//45 
f 45//45 46//46 45//45 
f 45//45 46//46 47//47 
f 46//46 48//48 47//47 
f 47//47 48//48 48//48 
f 48//48 49//49 48//48 
f 48//48 49//49 49//49 
f 49//49 50//50 49//49 
f 49//49 50//50 51//51 
f 50//50 52//52 51//51 
f 51//51 52//52 52//52 
f 52//52 53//53 52//52 
f 52//52 53//53 53//53 
f 53//53 54//54 53//53 
f 53//53 54//54 55//55 
f 54//54 56//56 55//55 
f 55//55 56//56 56//56 
f 56//56 57//57 56//56 
f 56//56 57//57 57//57 
f 57//57 58//58 57//57 
f 57//57 58//58 59//59 
f 58//58 60//60 59//59 
f 59//59 60//60 60//60 
f 60//60 58//58 60//60 
f 60//60 58//58 61//61 
f 58//58 62//62 61//61 
f 61//61 62//62 62//62 
f 62//62 63//63 62//62 
f 62//62 63//63 63//63 
f 63//63 64//64 63//63 
f 63//63 64//64 65//65 
f 64//64 66//66 65//65 
f 65//65 66//66 66//66 
f 66//66 67//67 66//66 
f 66//66 67//67 67//67 
f 67//67 68//68 67//67 
f 67//67 68//68 69//69 
f 68//68 70//70 69//69 
f 69//69 70//70 70//70 
f 70//70 71//71 70//70 
f 70//70 71//71 71//71 
f 71//71 72//72 71//71 
f 71//71 72//72 73//73 
f 72//72 74//74 73//73 
f 73//73 74//74 74//74 
f 74//74 75//75 74//74 
f 74//74 75//75 75//75 
f 75//75 76//76 75//75 
f 75//75 76//76 77//77 
f 76//76 78//78 77//77 
f 77//77 78//78 78//78 
f 78//78 79//79 78//78 
f 78//78 79//79 79//79 
f 79//79 80//80 79//79 
f 79//79 80//80 81//81 
f 80//80 82//82 81//81 
f 81//81 82//82 82//82 
f 82//82 83//83 82//82 
f 82//82 83//83 83//83 
f 83//83 84//84 83//83 
f 83//83 84//84 85//85 
f 84//84 86//86 85//85 
f 85//85 86//86 86//86 
f 86//86 87//87 86//86 
f 86//86 87//87 87//87 
f 87//87 88//88 87//87 
f 87//87 88//88 89//89 
f 88//88 90//90 89//89 
f 89//89 90//90 90//90 
f 90//90 91//91 90//90 
f 90//90 91//91 91//91 
f 91//91 92//92 91//91 
f 91//91 92//92 93//93 
f 92//92 94//94 93//93 
f 93//93 94//94 94//94 
f 94//94 95//95 94//94 
f 94//94 95//95 95//95 
f 95//95 96//96 95//95 
f 95//95 96//96 97//97 
f 96//96 98//98 97//97 
f 97//97 98//98 98//98 
f 98//98 99//99 98//98 
f 98//98 99//99 99//99 
f 99//99 100//100 99//99 
f 99//99 100//100 101//101 
f 100//100 102//102 101//101 
f 101//101 102//102 102//102 
f 102//102 103//103 102//102 
f 102//102 103//103 103//103 
f 103//103 104//104 103//103 
f 103//103 104//104 105//105 
f 104//104 106//106 105//105 
f 105//105 106//106 106//106 
f 106//106 107//107 106//106 
f 106//106 107//107 107//107 
f 107//107 108//108 107//107 
f 107//107 108//108 109//109 
f 108//108 110//110 109//109 
f 109//109 110//110 110//110 
f 110//110 111//111 110//110 
f 110//110 111//111 111//111 
f 111//111 112//112 111//111 
f 111//111 112//112 113//113 
f 112//112 114//114 113//113 
f 113//113 114//114 114//114 
f 114//114 115//115 114//114 
f 114//114 115//115 115//115 
f 115//115 116//116 115//115 
f 115//115 116//116 117//117 
f 116//116 118//118 117//117 
f 117//117 118//118 118//118 
f 118//118 119//119 118//118 
f 118//118 119//119 119//119 
f 119//119 120//120 119//119 
f 119//119 120//120 121//121 
f 120//120 122//122 121//121 
f 121//121 122//122 122//122 
f 122//122 123//123 122//122 
f 122//122 123//123 123//123 
f 123//123 124//124 123//123 
f 123//123 124//124 125//125 
f 124//124 126//126 125//125 
f 125//125 126//126 126//126 
f 126//126 127//127 126//126 
f 126//126 127//127 127//127 
f 127//127 128//128 127//127 
f 127//127 128//128 129//129 
f 128//128 130//130 129//129 
f 129//129 130//130 130//130 
f 130//130 131//131 130//130 
f 130//130 131//131 131//131 
f 131//131 132//132 131//131 
f 131//131 132//132 10//10 
f 132//132 133//133 10//10 
f 10//10 133//133 134//134 
f 133//133 134//134 134//134 
f 134//134 134//134 134//134 
f 134//134 135//135 134//134 
f 134//134 135//135 10//10 
f 135//135 136//136 10//10 
f 10//10 136//136 137//137 
f 136//136 137//137 137//137 
f 137//137 137//137 137//137 
f 137//137 138//138 137//137 
f 137//137 138//138 10//10 
f 138//138 139//139 10//10 
f 10//10 139//139 140//140 
f 139//139 140//140 140//140 
f 140//140 140//140 140//140 
f 140//140 141//141 140//140 
f 140//140 141//141 10//10 
f 141//141 142//142 10//10 
f 10//10 142//142 143//143 
f 142//142 143//143 143//143 
f 143//143 143//143 143//143 
f 143//143 144//144 143//143 
f 143//143 144//144 10//10 
f 144//144 145//145 10//10 
f 10//10 145//145 146//146 
f 145//145 146//146 146//146 
f 146//146 146//146 147//147 
f 146//146 147//147 147//147 
f 147//147 147//147 147//147 
f 147//147 148//148 147//147 
f 147//147 148//148 149//149 
f 148//148 150//150 149//149 
f 149//149 150//150 150//150 
f 150//150 151//151 150//150 
f 150//150 151//151 151//151 
f 151//151 152//152 151//151 
f 151//151 152//152 153//153 
f 152//152 154//154 153//153 
f 153//153 154//154 154//154 
f 154//154 155//155 154//154 
f 154//154 155//155 155//155 
f 155//155 156//156 155//155 
f 155//155 156//156 157//157 
f 156//156 158//158 157//157 
f 157//157 158//158 158//158 
f 158//158 159//159 158//158 
f 158//158 159//159 159//159 
f 159//159 160//160 159//159 
f 159//159 160//160 161//161 
f 160//160 162//162 161//161 
f 161//161 162//162 162//162 
f 162//162 163//163 162//162 
f 162//162 163//163 163//163 
f 163//163 164//164 163//163 
f 163//163 164//164 165//165 
f 164//164 166//166 165//165 
f 165//165 166//166 166//166 
f 166//166 167//167 166//166 
f 166//166 167//167 167//167 
f 167//167 168//168 167//167 
f 167//167 168//168 169//169 
f 168//168 170//170 169//169 
f 169//169 170//170 170//170 
f 170//170 171//171 170//170 
f 170//170 171//171 171//171 
f 171//171 172//172 171//171 
f 171//171 172//172 173//173 
f 172//172 174//174 173//173 
f 173//173 174//174 174//174 
f 174//174 175//175 174//174 
f 174//174 175//175 175//175 
f 175//175 176//176 175//175 
f 175//175 176//176 177//177 
f 176//176 178//178 177//177 
f 177//177 178//178 178//178 
f 178//178 179//179 178//178 
f 178//178 179//179 179//179 
f 179//179 180//180 179//179 
f 179//179 180//180 181//181 
f 180//180 182//182 181//181 
f 181//181 182//182 182//182 
f 182//182 183//183 182//182 
f 182//182 183//183 183//183 
f 183//183 184//184 183//183 
f 183//183 184//184 185//185 
f 184//184 186//186 185//185 
f 185//185 186//186 186//186 
f 186//186 187//187 186//186 
f 186//186 187//187 187//187 
f 187//187 55//55 187//187 
f 187//187 55//55 188//188 
f 55//55 189//189 188//188 
f 188//188 189//189 189//189 
f 189//189 190//190 189//189 
f 189//189 190//190 190//190 
f 190//190 2//2 190//190 
f 190//190 2//2 191//191 
f 2//2 192//192 191//191 
f 191//191 192//192 192//192 
f 192//192 193//193 192//192 
f 192//192 193//193 193//193 
f 193//193 58//58 193//193 
f 193//193 58//58 194//194 
f 58//58 195//195 194//194 
f 194//194 195//195 195//195 
f 195//195 58//58 195//195 
f 195//195 58//58 196//196 
f 58//58 197//197 196//196 
f 196//196 197//197 197//197 
f 197//197 198//198 197//197 
f 197//197 198//198 198//198 
f 198//198 199//199 198//198 
f 198//198 199//199 200//200 
f 199//199 201//201 200//200 
f 200//200 201//201 201//201 
f 201//201 202//202 201//201 
f 201//201 202//202 202//202 
f 202//202 203//203 202//202 
f 202//202 203//203 204//204 
f 203//203 205//205 204//204 
f 204//204 205//205 205//205 
f 205//205 206//206 205//205 
f 205//205 206//206 206//206 
f 206//206 207//207 206//206 
f 206//206 207//207 58//58 
f 207//207 208//208 58//58 
f 58//58 208//208 209//209 
f 208//208 209//209 209//209 
f 209//209 209//209 209//209 
f 209//209 210//210 209//209 
f 209//209 210//210 58//58 
f 210//210 211//211 58//58 
f 58//58 211//211 212//212 
f 211//211 212//212 212//212 
f 212//212 212//212 212//212 
f 212//212 213//213 212//212 
f 212//212 213//213 58//58 
f 213//213 214//214 58//58 
f 58//58 214//214 215//215 
f 214//214 215//215 215//215 
f 215//215 215//215 215//215 
f 215//215 216//216 215//215 
f 215//215 216//216 58//58 
f 216//216 217//217 58//58 
f 58//58 217//217 218//218 
f 219//219 220//220 221//221 
f 222//222 223//223 224//224 
f 225//225 226//226 227//227 

