mtllib model_15.mtl
o model_15
v 29.400001525878906 0 -44.10000228881836 
v 29.400001525878906 0 -29.971399307250977 
v 29.400001525878906 11.02500057220459 -44.10000228881836 
v 29.400001525878906 11.02500057220459 -29.971399307250977 
v 29.400001525878906 33.344932556152344 -29.971399307250977 
v 29.400001525878906 33.344932556152344 6.867830276489258 
v 29.400001525878906 36.75 6.867830276489258 
v 29.400001525878906 36.75 19.671382904052734 
v 29.400001525878906 37.75493621826172 6.867830276489258 
v 29.400001525878906 37.75493621826172 19.671382904052734 
v 29.400001525878906 0 6.867830276489258 
v 29.400001525878906 11.02500057220459 6.867830276489258 
v 29.400001525878906 33.344932556152344 19.671382904052734 
v 29.400001525878906 36.75 29.400001525878906 
v 29.400001525878906 37.75493621826172 29.400001525878906 
v 29.400001525878906 0 19.671382904052734 
v 29.400001525878906 11.02500057220459 19.671382904052734 
v 29.400001525878906 33.344932556152344 29.400001525878906 
v 29.400001525878906 36.75 44.10000228881836 
v 29.400001525878906 37.75493621826172 44.10000228881836 
v 29.400001525878906 0 29.400001525878906 
v 29.400001525878906 11.02500057220459 29.400001525878906 
v 29.400001525878906 33.344932556152344 44.10000228881836 
v 29.400001525878906 0 44.10000228881836 
v 29.400001525878906 11.02500057220459 44.10000228881836 
v 29.400001525878906 33.344932556152344 -44.10000228881836 
v 29.400001525878906 36.75 -29.971399307250977 
v 29.400001525878906 36.75 -44.10000228881836 
v 29.400001525878906 37.75493621826172 -44.10000228881836 
v 29.400001525878906 37.75493621826172 -29.971397399902344 
v -29.400001525878906 0 44.10000228881836 
v -29.400001525878906 11.02500057220459 44.10000228881836 
v -10.625791549682617 0 44.10000228881836 
v -10.625791549682617 11.024998664855957 44.10000228881836 
v 19.69776725769043 11.024998664855957 44.10000228881836 
v 19.69776725769043 0 44.10000228881836 
v 29.400001525878906 11.02500057220459 44.10000228881836 
v 29.400001525878906 0 44.10000228881836 
v 29.400001525878906 33.344932556152344 44.10000228881836 
v 19.69776725769043 33.344932556152344 44.10000228881836 
v 29.400001525878906 37.75493621826172 44.10000228881836 
v 19.69776725769043 37.75493621826172 44.10000228881836 
v -10.625791549682617 37.75493621826172 44.10000228881836 
v -10.625791549682617 33.344932556152344 44.10000228881836 
v -29.400001525878906 37.75493621826172 44.10000228881836 
v -29.400001525878906 33.344932556152344 44.10000228881836 
v 19.69776725769043 11.024998664855957 44.53603744506836 
v 19.69776725769043 11.024998664855957 44.10000228881836 
v -10.625791549682617 11.024998664855957 44.53603744506836 
v -10.625791549682617 11.024998664855957 44.10000228881836 
v -10.625791549682617 33.344932556152344 44.10000228881836 
v -10.625791549682617 33.34492874145508 44.53603744506836 
v -10.625791549682617 11.024998664855957 44.10000228881836 
v -10.625791549682617 11.024998664855957 44.53603744506836 
v -10.625791549682617 33.34492874145508 44.53603744506836 
v -10.625791549682617 33.344932556152344 44.10000228881836 
v 19.69776725769043 33.34492874145508 44.53603744506836 
v 19.69776725769043 33.344932556152344 44.10000228881836 
v 19.69776725769043 11.024998664855957 44.10000228881836 
v 19.69776725769043 11.024998664855957 44.53603744506836 
v 19.69776725769043 33.344932556152344 44.10000228881836 
v 19.69776725769043 33.34492874145508 44.53603744506836 
vn -0.999997615814209 -2.0682260971124217e-13 0.002184694167226553 
vn -0.999997615814209 -2.0682260971124217e-13 0.002184694167226553 
vn -0.999997615814209 -2.0682260971124217e-13 0.002184694167226553 
vn -0.999997615814209 -2.0682260971124217e-13 0.002184694167226553 
vn -0.999997615814209 -2.0682260971124217e-13 0.002184694167226553 
vn -0.999997615814209 -2.0682260971124217e-13 0.002184694167226553 
vn -0.999997615814209 -2.0682260971124217e-13 0.002184694167226553 
vn -0.999997615814209 -2.0682260971124217e-13 0.002184694167226553 
vn -0.999997615814209 -2.0682260971124217e-13 0.002184694167226553 
vn -0.999997615814209 -2.0682260971124217e-13 0.002184694167226553 
vn -0.999997615814209 -2.0682260971124217e-13 0.002184694167226553 
vn -0.999997615814209 -2.0682260971124217e-13 0.002184694167226553 
vn -0.999997615814209 -2.0682260971124217e-13 0.002184694167226553 
vn -0.999997615814209 -2.0682260971124217e-13 0.002184694167226553 
vn -0.999997615814209 -2.0682260971124217e-13 0.002184694167226553 
vn -0.999997615814209 -2.0682260971124217e-13 0.002184694167226553 
vn -0.999997615814209 -2.0682260971124217e-13 0.002184694167226553 
vn -0.999997615814209 -2.0682260971124217e-13 0.002184694167226553 
vn -0.999997615814209 -2.0682260971124217e-13 0.002184694167226553 
vn -0.999997615814209 -2.0682260971124217e-13 0.002184694167226553 
vn -0.999997615814209 -2.0682260971124217e-13 0.002184694167226553 
vn -0.999997615814209 -2.0682260971124217e-13 0.002184694167226553 
vn -0.999997615814209 -2.0682260971124217e-13 0.002184694167226553 
vn -0.999997615814209 -2.0682260971124217e-13 0.002184694167226553 
vn -0.999997615814209 -2.0682260971124217e-13 0.002184694167226553 
vn -0.999997615814209 -2.0682260971124217e-13 0.002184694167226553 
vn -0.999997615814209 -2.0682260971124217e-13 0.002184694167226553 
vn -0.999997615814209 -2.0682260971124217e-13 0.002184694167226553 
vn -0.999997615814209 -2.0682260971124217e-13 0.002184694167226553 
vn -0.999997615814209 -2.0682260971124217e-13 0.002184694167226553 
vn -2.0682311115474694e-13 0 -1 
vn -2.0682311115474694e-13 0 -1 
vn -2.0682311115474694e-13 0 -1 
vn -2.0682311115474694e-13 0 -1 
vn 2.0682311115474694e-13 4.2775797696334704e-26 -1 
vn -2.0682311115474694e-13 0 -1 
vn 2.0682311115474694e-13 4.2775797696334704e-26 -1 
vn -2.0682311115474694e-13 0 -1 
vn 2.0682311115474694e-13 4.2775797696334704e-26 -1 
vn 2.0682311115474694e-13 4.2775797696334704e-26 -1 
vn -2.0682311115474694e-13 0 -1 
vn -2.0682311115474694e-13 0 -1 
vn -2.0682311115474694e-13 0 -1 
vn -2.0682311115474694e-13 0 -1 
vn -2.0682311115474694e-13 0 -1 
vn -2.0682311115474694e-13 0 -1 
vn -1.0341130485562108e-13 0.999997615814209 0.002184694167226553 
vn -1.0341130485562108e-13 0.999997615814209 0.002184694167226553 
vn -1.0341130485562108e-13 0.999997615814209 0.002184694167226553 
vn -1.0341130485562108e-13 0.999997615814209 0.002184694167226553 
vn 0.999997615814209 0 0.002184694167226553 
vn 0.999997615814209 0 0.002184694167226553 
vn 0.999997615814209 0 0.002184694167226553 
vn 0.999997615814209 0 0.002184694167226553 
vn 3.097898456858039e-13 -0.999997615814209 -0.002184694167226553 
vn 3.097898456858039e-13 -0.999997615814209 -0.002184694167226553 
vn 3.097898456858039e-13 -0.999997615814209 -0.002184694167226553 
vn 3.097898456858039e-13 -0.999997615814209 -0.002184694167226553 
vn -0.999997615814209 -2.0682260971124217e-13 0.002184694167226553 
vn -0.999997615814209 -2.0682260971124217e-13 0.002184694167226553 
vn -0.999997615814209 -2.0682260971124217e-13 0.002184694167226553 
vn -0.999997615814209 -2.0682260971124217e-13 0.002184694167226553 
vt 0.6956719756126404 0.7251660227775574 
vt 0.7429371476173401 0.7251660227775574 
vt 0.6956719756126404 0.7620516419410706 
vt 0.7429371476173401 0.7620516419410706 
vt 0.7429371476173401 0.8366864919662476 
vt 0.8661434650421143 0.8366864919662476 
vt 0.8661434650421143 0.8480976223945618 
vt 0.9089415073394775 0.8480976223945618 
vt 0.8661434650421143 0.8514284491539001 
vt 0.9089415073394775 0.8514284491539001 
vt 0.8661434650421143 0.7251660227775574 
vt 0.8661434650421143 0.7620516419410706 
vt 0.9089415073394775 0.8366864919662476 
vt 0.9415082931518555 0.8480976223945618 
vt 0.9415082931518555 0.8514284491539001 
vt 0.9089415073394775 0.7251660227775574 
vt 0.9089415073394775 0.7620516419410706 
vt 0.9415082931518555 0.8366864919662476 
vt 0.9906467199325562 0.8480976223945618 
vt 0.9906467199325562 0.8514284491539001 
vt 0.9415082931518555 0.7251660227775574 
vt 0.9415082931518555 0.7620516419410706 
vt 0.9906467199325562 0.8366864919662476 
vt 0.9906467199325562 0.7251660227775574 
vt 0.9906467199325562 0.7620516419410706 
vt 0.6956719756126404 0.8366864919662476 
vt 0.7429371476173401 0.8480976223945618 
vt 0.6956719756126404 0.8480976223945618 
vt 0.6956719756126404 0.8514284491539001 
vt 0.7429371476173401 0.8514284491539001 
vt 0.20407024025917053 0.7251660227775574 
vt 0.20407024025917053 0.7620394229888916 
vt 0.14125019311904907 0.7251660227775574 
vt 0.14125019311904907 0.7620394229888916 
vt 0.03986435756087303 0.7620394229888916 
vt 0.03986435756087303 0.7251660227775574 
vt 0.007399799767881632 0.7620394229888916 
vt 0.007399799767881632 0.7251660227775574 
vt 0.007399799767881632 0.8366802930831909 
vt 0.03986435756087303 0.8366802930831909 
vt 0.007399799767881632 0.851432740688324 
vt 0.03986435756087303 0.851432740688324 
vt 0.14125019311904907 0.851432740688324 
vt 0.14125019311904907 0.8366802930831909 
vt 0.20407024025917053 0.851432740688324 
vt 0.20407024025917053 0.8366802930831909 
vt 0.6185771226882935 0.7268462777137756 
vt 0.6200082898139954 0.7268462777137756 
vt 0.6185771226882935 0.8282327055931091 
vt 0.6200082898139954 0.8282327055931091 
vt 0.6243770718574524 0.8014717102050781 
vt 0.6229459047317505 0.8014717102050781 
vt 0.6243770718574524 0.7268462777137756 
vt 0.6229459047317505 0.7268462777137756 
vt 0.6178238987922668 0.8282327055931091 
vt 0.6163927316665649 0.8282327055931091 
vt 0.6178238987922668 0.7268462777137756 
vt 0.6163927316665649 0.7268462777137756 
vt 0.620761513710022 0.7268462777137756 
vt 0.6221926808357239 0.7268462777137756 
vt 0.620761513710022 0.8014717102050781 
vt 0.6221926808357239 0.8014717102050781 
s on 
f 1/1/1 2/2/2 3/3/3 
f 2/2/2 4/4/4 3/3/3 
f 3/3/3 4/4/4 5/5/5 
f 4/4/4 6/6/6 5/5/5 
f 5/5/5 6/6/6 7/7/7 
f 6/6/6 8/8/8 7/7/7 
f 7/7/7 8/8/8 9/9/9 
f 8/8/8 10/10/10 9/9/9 
f 9/9/9 10/10/10 10/10/10 
f 10/10/10 2/2/2 10/10/10 
f 10/10/10 2/2/2 2/2/2 
f 2/2/2 11/11/11 2/2/2 
f 2/2/2 11/11/11 4/4/4 
f 11/11/11 12/12/12 4/4/4 
f 4/4/4 12/12/12 6/6/6 
f 12/12/12 13/13/13 6/6/6 
f 6/6/6 13/13/13 8/8/8 
f 13/13/13 14/14/14 8/8/8 
f 8/8/8 14/14/14 10/10/10 
f 14/14/14 15/15/15 10/10/10 
f 10/10/10 15/15/15 15/15/15 
f 15/15/15 11/11/11 15/15/15 
f 15/15/15 11/11/11 11/11/11 
f 11/11/11 16/16/16 11/11/11 
f 11/11/11 16/16/16 12/12/12 
f 16/16/16 17/17/17 12/12/12 
f 12/12/12 17/17/17 13/13/13 
f 17/17/17 18/18/18 13/13/13 
f 13/13/13 18/18/18 14/14/14 
f 18/18/18 19/19/19 14/14/14 
f 14/14/14 19/19/19 15/15/15 
f 19/19/19 20/20/20 15/15/15 
f 15/15/15 20/20/20 20/20/20 
f 20/20/20 16/16/16 20/20/20 
f 20/20/20 16/16/16 16/16/16 
f 16/16/16 21/21/21 16/16/16 
f 16/16/16 21/21/21 17/17/17 
f 21/21/21 22/22/22 17/17/17 
f 17/17/17 22/22/22 18/18/18 
f 22/22/22 23/23/23 18/18/18 
f 18/18/18 23/23/23 19/19/19 
f 23/23/23 19/19/19 19/19/19 
f 19/19/19 19/19/19 21/21/21 
f 19/19/19 21/21/21 21/21/21 
f 21/21/21 21/21/21 21/21/21 
f 21/21/21 24/24/24 21/21/21 
f 21/21/21 24/24/24 22/22/22 
f 24/24/24 25/25/25 22/22/22 
f 22/22/22 25/25/25 23/23/23 
f 25/25/25 23/23/23 23/23/23 
f 23/23/23 23/23/23 3/3/3 
f 23/23/23 3/3/3 3/3/3 
f 3/3/3 3/3/3 3/3/3 
f 3/3/3 5/5/5 3/3/3 
f 3/3/3 5/5/5 26/26/26 
f 5/5/5 27/27/27 26/26/26 
f 26/26/26 27/27/27 28/28/28 
f 27/27/27 29/29/29 28/28/28 
f 28/28/28 29/29/29 29/29/29 
f 29/29/29 5/5/5 29/29/29 
f 29/29/29 5/5/5 5/5/5 
f 5/5/5 7/7/7 5/5/5 
f 5/5/5 7/7/7 27/27/27 
f 7/7/7 9/9/9 27/27/27 
f 27/27/27 9/9/9 30/30/30 
f 9/9/9 30/30/30 30/30/30 
f 30/30/30 30/30/30 31/31/31 
f 30/30/30 31/31/31 31/31/31 
f 31/31/31 31/31/31 31/31/31 
f 31/31/31 32/32/32 31/31/31 
f 31/31/31 32/32/32 33/33/33 
f 32/32/32 34/34/34 33/33/33 
f 33/33/33 34/34/34 35/35/35 
f 34/34/34 35/35/35 35/35/35 
f 35/35/35 35/35/35 33/33/33 
f 35/35/35 33/33/33 33/33/33 
f 33/33/33 33/33/33 33/33/33 
f 33/33/33 35/35/35 33/33/33 
f 33/33/33 35/35/35 36/36/36 
f 35/35/35 37/37/37 36/36/36 
f 36/36/36 37/37/37 38/38/38 
f 37/37/37 38/38/38 38/38/38 
f 38/38/38 38/38/38 37/37/37 
f 38/38/38 37/37/37 37/37/37 
f 37/37/37 37/37/37 37/37/37 
f 37/37/37 35/35/35 37/37/37 
f 37/37/37 35/35/35 39/39/39 
f 35/35/35 40/40/40 39/39/39 
f 39/39/39 40/40/40 41/41/41 
f 40/40/40 42/42/42 41/41/41 
f 41/41/41 42/42/42 42/42/42 
f 42/42/42 40/40/40 42/42/42 
f 42/42/42 40/40/40 43/43/43 
f 40/40/40 44/44/44 43/43/43 
f 43/43/43 44/44/44 45/45/45 
f 44/44/44 46/46/46 45/45/45 
f 45/45/45 46/46/46 46/46/46 
f 46/46/46 44/44/44 46/46/46 
f 46/46/46 44/44/44 44/44/44 
f 44/44/44 34/34/34 44/44/44 
f 44/44/44 34/34/34 46/46/46 
f 34/34/34 32/32/32 46/46/46 
f 46/46/46 32/32/32 32/32/32 
f 32/32/32 47/47/47 32/32/32 
f 32/32/32 47/47/47 47/47/47 
f 47/47/47 48/48/48 47/47/47 
f 47/47/47 48/48/48 49/49/49 
f 48/48/48 50/50/50 49/49/49 
f 49/49/49 50/50/50 50/50/50 
f 50/50/50 51/51/51 50/50/50 
f 50/50/50 51/51/51 51/51/51 
f 51/51/51 52/52/52 51/51/51 
f 51/51/51 52/52/52 53/53/53 
f 52/52/52 54/54/54 53/53/53 
f 53/53/53 54/54/54 54/54/54 
f 54/54/54 55/55/55 54/54/54 
f 54/54/54 55/55/55 55/55/55 
f 55/55/55 56/56/56 55/55/55 
f 55/55/55 56/56/56 57/57/57 
f 56/56/56 58/58/58 57/57/57 
f 57/57/57 58/58/58 58/58/58 
f 58/58/58 59/59/59 58/58/58 
f 58/58/58 59/59/59 59/59/59 
f 59/59/59 60/60/60 59/59/59 
f 59/59/59 60/60/60 61/61/61 
f 60/60/60 62/62/62 61/61/61 
f 27/27/27 30/30/30 29/29/29 

