mtllib model_17.mtl
o model_17
v 25.410079956054688 19.947021484375 37.94851303100586 
v 24.323686599731445 19.32332420349121 39.03047180175781 
v 25.29982566833496 20.232881546020508 38.05876922607422 
v 25.15060043334961 20.466768264770508 38.203556060791016 
v 24.985218048095703 20.674667358398438 38.36893844604492 
v 24.783082962036133 20.83059310913086 38.571075439453125 
v 24.562572479248047 20.934541702270508 38.791587829589844 
v 24.323686599731445 20.960529327392578 39.03047180175781 
v 24.10317611694336 20.934541702270508 39.25098419189453 
v 23.882665634155273 20.83059310913086 39.471492767333984 
v 23.678316116333008 20.674667358398438 39.67141342163086 
v 23.5129337310791 20.466768264770508 39.836795806884766 
v 23.36592674255371 20.232881546020508 39.983802795410156 
v 23.255672454833984 19.947021484375 40.094058990478516 
v 23.182167053222656 19.63517189025879 40.16756057739258 
v 23.16379165649414 19.32332420349121 40.18593978881836 
v 23.255672454833984 18.67363929748535 40.094058990478516 
v 23.36592674255371 18.38777732849121 39.983802795410156 
v 23.5129337310791 18.15389060974121 39.836795806884766 
v 23.678316116333008 17.94599151611328 39.67141342163086 
v 23.882665634155273 17.790067672729492 39.471492767333984 
v 24.10317611694336 17.68611717224121 39.25098419189453 
v 24.323686599731445 17.66012954711914 39.03047180175781 
v 24.562572479248047 17.68611717224121 38.791587829589844 
v 24.783082962036133 17.790067672729492 38.571075439453125 
v 24.985218048095703 17.94599151611328 38.36893844604492 
v 25.15060043334961 18.15389060974121 38.203556060791016 
v 25.29982566833496 18.38777732849121 38.05876922607422 
v 25.410079956054688 18.67363929748535 37.94851303100586 
v 25.483583450317383 18.98548698425293 37.8750114440918 
v 25.5019588470459 19.32332420349121 37.856632232666016 
v 25.5019588470459 19.32332420349121 37.856632232666016 
v 24.323686599731445 19.32332420349121 39.03047180175781 
v 25.483583450317383 19.63517189025879 37.8750114440918 
v 25.410079956054688 19.947021484375 37.94851303100586 
v 24.323686599731445 19.32332420349121 39.03047180175781 
v 23.255672454833984 18.67363929748535 40.094058990478516 
v 23.182167053222656 18.98548698425293 40.16756057739258 
v 23.182167053222656 18.98548698425293 40.16756057739258 
vn -0.9539172053337097 -9.582804927181499e-14 -0.30006900429725647 
vn -0.9539172053337097 -9.582804927181499e-14 -0.30006900429725647 
vn -0.9539172053337097 -9.582804927181499e-14 -0.30006900429725647 
vn -0.9539172053337097 -9.582804927181499e-14 -0.30006900429725647 
vn -0.9539172053337097 -9.582804927181499e-14 -0.30006900429725647 
vn -0.9539172053337097 -9.582804927181499e-14 -0.30006900429725647 
vn -0.9539172053337097 -9.582804927181499e-14 -0.30006900429725647 
vn -0.9539172053337097 -9.582804927181499e-14 -0.30006900429725647 
vn -0.9539172053337097 -9.582804927181499e-14 -0.30006900429725647 
vn -0.9539172053337097 -9.582804927181499e-14 -0.30006900429725647 
vn -0.9539172053337097 -9.582804927181499e-14 -0.30006900429725647 
vn -0.9539172053337097 -9.582804927181499e-14 -0.30006900429725647 
vn -0.9539172053337097 -9.582804927181499e-14 -0.30006900429725647 
vn -0.9539172053337097 -9.582804927181499e-14 -0.30006900429725647 
vn -0.9539172053337097 -9.582804927181499e-14 -0.30006900429725647 
vn -0.9539172053337097 -9.582804927181499e-14 -0.30006900429725647 
vn -0.9539172053337097 -9.582804927181499e-14 -0.30006900429725647 
vn -0.9539172053337097 -9.582804927181499e-14 -0.30006900429725647 
vn -0.9539172053337097 -9.582804927181499e-14 -0.30006900429725647 
vn -0.9539172053337097 -9.582804927181499e-14 -0.30006900429725647 
vn -0.9539172053337097 -9.582804927181499e-14 -0.30006900429725647 
vn -0.9539172053337097 -9.582804927181499e-14 -0.30006900429725647 
vn -0.9539172053337097 -9.582804927181499e-14 -0.30006900429725647 
vn -0.9539172053337097 -9.582804927181499e-14 -0.30006900429725647 
vn -0.9539172053337097 -9.582804927181499e-14 -0.30006900429725647 
vn -0.9539172053337097 -9.582804927181499e-14 -0.30006900429725647 
vn -0.9539172053337097 -9.582804927181499e-14 -0.30006900429725647 
vn -0.9539172053337097 -9.582804927181499e-14 -0.30006900429725647 
vn -0.9539172053337097 -9.582804927181499e-14 -0.30006900429725647 
vn -0.9539172053337097 -9.582804927181499e-14 -0.30006900429725647 
vn -0.9539172053337097 -9.582804927181499e-14 -0.30006900429725647 
vn -0.9539172053337097 -9.582804927181499e-14 -0.30006900429725647 
vn -0.9539172053337097 -9.582804927181499e-14 -0.30006900429725647 
vn -0.9539172053337097 -9.582804927181499e-14 -0.30006900429725647 
vn -0.9539172053337097 -9.582804927181499e-14 -0.30006900429725647 
vn -0.9539172053337097 -9.582804927181499e-14 -0.30006900429725647 
vn -0.9539172053337097 -9.582804927181499e-14 -0.30006900429725647 
vn -0.9539172053337097 -9.582804927181499e-14 -0.30006900429725647 
vn -0.9539172053337097 -9.582804927181499e-14 -0.30006900429725647 
vt 0.44519639015197754 0.23271571099758148 
vt 0.5839963555335999 0.17519597709178925 
vt 0.4591350853443146 0.2586876153945923 
vt 0.4777688980102539 0.2814314067363739 
vt 0.5005109906196594 0.30006662011146545 
vt 0.5264809131622314 0.31400635838508606 
vt 0.5546517372131348 0.32251691818237305 
vt 0.5839963555335999 0.3254516124725342 
vt 0.6131942272186279 0.32251691818237305 
vt 0.6413650512695312 0.31400635838508606 
vt 0.667335033416748 0.30006662011146545 
vt 0.6900770664215088 0.2814314067363739 
vt 0.7088575959205627 0.2586876153945923 
vt 0.7226495742797852 0.23271571099758148 
vt 0.731159508228302 0.20454278588294983 
vt 0.734093964099884 0.17519597709178925 
vt 0.7226495742797852 0.11782298982143402 
vt 0.7088575959205627 0.09185107052326202 
vt 0.6900770664215088 0.0691073015332222 
vt 0.667335033416748 0.05047208070755005 
vt 0.6413650512695312 0.03653235360980034 
vt 0.6131942272186279 0.028021780773997307 
vt 0.5839963555335999 0.02508709952235222 
vt 0.5546517372131348 0.028021780773997307 
vt 0.5264809131622314 0.03653235360980034 
vt 0.5005109906196594 0.05047208070755005 
vt 0.4777688980102539 0.0691073015332222 
vt 0.4591350853443146 0.09185107052326202 
vt 0.44519639015197754 0.11782298982143402 
vt 0.4366864562034607 0.14599591493606567 
vt 0.43375200033187866 0.17519597709178925 
vt 0.43375200033187866 0.17519597709178925 
vt 0.5839963555335999 0.17519597709178925 
vt 0.4366864562034607 0.20454278588294983 
vt 0.44519639015197754 0.23271571099758148 
vt 0.5839963555335999 0.17519597709178925 
vt 0.7226495742797852 0.11782298982143402 
vt 0.731159508228302 0.14599591493606567 
vt 0.731159508228302 0.14599591493606567 
s on 
f 1/1/1 2/2/2 3/3/3 
f 2/2/2 4/4/4 3/3/3 
f 3/3/3 4/4/4 4/4/4 
f 4/4/4 2/2/2 4/4/4 
f 4/4/4 2/2/2 5/5/5 
f 2/2/2 6/6/6 5/5/5 
f 5/5/5 6/6/6 6/6/6 
f 6/6/6 2/2/2 6/6/6 
f 6/6/6 2/2/2 7/7/7 
f 2/2/2 8/8/8 7/7/7 
f 7/7/7 8/8/8 8/8/8 
f 8/8/8 2/2/2 8/8/8 
f 8/8/8 2/2/2 9/9/9 
f 2/2/2 10/10/10 9/9/9 
f 9/9/9 10/10/10 10/10/10 
f 10/10/10 2/2/2 10/10/10 
f 10/10/10 2/2/2 11/11/11 
f 2/2/2 12/12/12 11/11/11 
f 11/11/11 12/12/12 12/12/12 
f 12/12/12 2/2/2 12/12/12 
f 12/12/12 2/2/2 13/13/13 
f 2/2/2 14/14/14 13/13/13 
f 13/13/13 14/14/14 14/14/14 
f 14/14/14 2/2/2 14/14/14 
f 14/14/14 2/2/2 15/15/15 
f 2/2/2 16/16/16 15/15/15 
f 15/15/15 16/16/16 16/16/16 
f 16/16/16 17/17/17 16/16/16 
f 16/16/16 17/17/17 17/17/17 
f 17/17/17 2/2/2 17/17/17 
f 17/17/17 2/2/2 18/18/18 
f 2/2/2 19/19/19 18/18/18 
f 18/18/18 19/19/19 19/19/19 
f 19/19/19 2/2/2 19/19/19 
f 19/19/19 2/2/2 20/20/20 
f 2/2/2 21/21/21 20/20/20 
f 20/20/20 21/21/21 21/21/21 
f 21/21/21 2/2/2 21/21/21 
f 21/21/21 2/2/2 22/22/22 
f 2/2/2 23/23/23 22/22/22 
f 22/22/22 23/23/23 23/23/23 
f 23/23/23 2/2/2 23/23/23 
f 23/23/23 2/2/2 24/24/24 
f 2/2/2 25/25/25 24/24/24 
f 24/24/24 25/25/25 25/25/25 
f 25/25/25 2/2/2 25/25/25 
f 25/25/25 2/2/2 26/26/26 
f 2/2/2 27/27/27 26/26/26 
f 26/26/26 27/27/27 27/27/27 
f 27/27/27 2/2/2 27/27/27 
f 27/27/27 2/2/2 28/28/28 
f 2/2/2 29/29/29 28/28/28 
f 28/28/28 29/29/29 29/29/29 
f 29/29/29 2/2/2 29/29/29 
f 29/29/29 2/2/2 30/30/30 
f 2/2/2 31/31/31 30/30/30 
f 30/30/30 31/31/31 31/31/31 
f 31/31/31 32/32/32 31/31/31 
f 31/31/31 32/32/32 32/32/32 
f 32/32/32 33/33/33 32/32/32 
f 32/32/32 33/33/33 34/34/34 
f 33/33/33 35/35/35 34/34/34 
f 36/36/36 37/37/37 38/38/38 
f 2/2/2 39/39/39 16/16/16 

