mtllib model_12.mtl
o model_12
v 15.193717956542969 28.005542755126953 -44.68086242675781 
v 15.193717956542969 27.981243133544922 -44.67448425292969 
v 14.777389526367188 28.03341293334961 -44.660888671875 
v 14.777389526367188 28.00909423828125 -44.65448760986328 
v 14.638618469238281 28.117027282714844 -44.60096740722656 
v 14.638618469238281 28.09264373779297 -44.59449768066406 
v 14.63861083984375 28.273887634277344 -44.4884147644043 
v 14.638618469238281 28.25250244140625 -44.482696533203125 
v 14.638618469238281 28.52151107788086 -44.310543060302734 
v 14.638618469238281 28.50927734375 -44.3072624206543 
v 14.638618469238281 28.81451416015625 -44.100013732910156 
v 14.638618469238281 28.21733856201172 -44.3072624206543 
v 14.638618469238281 28.494613647460938 -44.100013732910156 
v 14.638618469238281 0.00012969970703125 -44.3072624206543 
v 14.638618469238281 0.00012969970703125 -44.100013732910156 
v 15.193717956542969 27.745254516601562 -44.67448425292969 
v 14.777397155761719 27.769603729248047 -44.65448760986328 
v 14.638618469238281 27.84265899658203 -44.59449768066406 
v 14.63861083984375 27.985031127929688 -44.482696533203125 
v 14.638618469238281 0.00012969970703125 -44.59449768066406 
v 14.777389526367188 0.00012969970703125 -44.65448760986328 
v 15.193717956542969 0.00012969970703125 -44.67448425292969 
v 14.638618469238281 0.00012969970703125 -44.482696533203125 
v 14.638618469238281 0.00012969970703125 -58.800010681152344 
v 14.638618469238281 0.00012969970703125 -58.547752380371094 
v 14.638618469238281 28.49449920654297 -58.800010681152344 
v 14.638618469238281 28.22219467163086 -58.54774856567383 
v 14.638618469238281 28.512481689453125 -58.54774856567383 
v 14.638618469238281 28.258201599121094 -58.300453186035156 
v 14.63861083984375 28.275279998779297 -58.29563903808594 
v 14.638618469238281 28.09917449951172 -58.142852783203125 
v 14.638618469238281 28.11864471435547 -58.137413024902344 
v 14.777389526367188 28.015625 -58.05828857421875 
v 14.777389526367188 28.03504180908203 -58.05290222167969 
v 15.193717956542969 27.987773895263672 -58.03010177612305 
v 15.193717956542969 28.00717544555664 -58.02473449707031 
v 14.63861083984375 27.993614196777344 -58.300453186035156 
v 14.638618469238281 27.85247039794922 -58.142852783203125 
v 14.777397155761719 27.779403686523438 -58.05828857421875 
v 15.193717956542969 27.755050659179688 -58.03010177612305 
v 14.638618469238281 0.00012969970703125 -58.142852783203125 
v 14.638618469238281 0.00012969970703125 -58.30045700073242 
v 14.777389526367188 0.00012969970703125 -58.05828857421875 
v -0.49371337890625 28.005413055419922 -44.68086242675781 
v -0.49371337890625 28.013511657714844 -44.69999694824219 
v -0.07738494873046875 28.033283233642578 -44.660888671875 
v -0.07738494873046875 28.04138946533203 -44.680091857910156 
v 0.0613861083984375 28.116897583007812 -44.60096740722656 
v 0.0613861083984375 28.125022888183594 -44.62037658691406 
v 0.06139373779296875 28.273757934570312 -44.4884147644043 
v 0.0613861083984375 28.280887603759766 -44.50556945800781 
v 0.0613861083984375 28.52545928955078 -44.32038497924805 
v 0.0613861083984375 28.525447845458984 -44.61566925048828 
v 0.0613861083984375 28.814369201660156 -44.4090461730957 
v 0.0613861083984375 28.525386810302734 -58.22044372558594 
v 0.0613861083984375 28.81427001953125 -58.530860900878906 
v 0.0613861083984375 28.814254760742188 -58.800010681152344 
v -0.49371337890625 28.013511657714844 -44.96388244628906 
v -0.07738494873046875 28.04138946533203 -44.94618606567383 
v 0.0613861083984375 28.125022888183594 -44.893089294433594 
v 0.06139373779296875 28.2808837890625 -44.78833770751953 
v -0.077392578125 28.041385650634766 -57.71266174316406 
v 0.0613861083984375 28.12500762939453 -57.797245025634766 
v 0.06139373779296875 28.28084945678711 -57.95943069458008 
v 0.0613861083984375 28.525375366210938 -58.536705017089844 
v 0.0613861083984375 28.522117614746094 -58.54499053955078 
v 0.0613861083984375 28.280845642089844 -58.28120803833008 
v 0.0613861083984375 28.125003814697266 -58.12107849121094 
v -0.07738494873046875 28.041385650634766 -58.03675079345703 
v -0.49371337890625 28.013511657714844 -58.008636474609375 
v -0.49371337890625 28.00704574584961 -58.02473449707031 
v -0.07738494873046875 28.034912109375 -58.05290222167969 
v 0.0613861083984375 28.118515014648438 -58.137413024902344 
v 0.06139373779296875 28.275150299072266 -58.29563903808594 
v 0.0613861083984375 0 -44.100013732910156 
v 0.0613861083984375 0 -44.3072624206543 
v 0.0613861083984375 28.494483947753906 -44.100013732910156 
v 0.0613861083984375 28.217208862304688 -44.3072624206543 
v 0.0613861083984375 28.81438446044922 -44.100013732910156 
v 0.0613861083984375 28.50914764404297 -44.3072624206543 
v 0.0613861083984375 28.521381378173828 -44.310543060302734 
v 0.0613861083984375 28.25237274169922 -44.482696533203125 
v 0.06139373779296875 28.273757934570312 -44.4884147644043 
v 0.0613861083984375 28.092514038085938 -44.59449768066406 
v 0.0613861083984375 28.116897583007812 -44.60096740722656 
v -0.07738494873046875 28.00896453857422 -44.65448760986328 
v -0.07738494873046875 28.033283233642578 -44.660888671875 
v -0.49371337890625 27.98111343383789 -44.67448425292969 
v -0.49371337890625 28.005413055419922 -44.68086242675781 
v 0.06139373779296875 27.984901428222656 -44.482696533203125 
v 0.0613861083984375 27.842529296875 -44.59449768066406 
v -0.077392578125 27.769474029541016 -44.65448760986328 
v -0.49371337890625 27.74512481689453 -44.67448425292969 
v 0.0613861083984375 0 -44.482696533203125 
v 0.0613861083984375 0 -44.59449768066406 
v -0.07738494873046875 0 -44.65448760986328 
v -0.49371337890625 0 -44.67448425292969 
v 0.580848217010498 28.005413055419922 -82.81372833251953 
v 0.5608744621276855 28.033283233642578 -82.39739990234375 
v 0.574470043182373 27.98111343383789 -82.81372833251953 
v 0.554473876953125 28.00896453857422 -82.39739990234375 
v 0.574470043182373 27.74512481689453 -82.81372833251953 
v 0.5544729232788086 27.769474029541016 -82.39740753173828 
v 0.5744714736938477 0 -82.81372833251953 
v 0.554473876953125 0 -82.39739990234375 
v 0.5009527206420898 28.116897583007812 -82.25862884521484 
v 0.49448347091674805 28.092514038085938 -82.25862884521484 
v 0.49448347091674805 27.842529296875 -82.25862884521484 
v 0.49448347091674805 0 -82.25862884521484 
v 0.38268041610717773 27.984901428222656 -82.25862121582031 
v 0.38268136978149414 0 -82.25862884521484 
v 0.20724725723266602 0 -82.25862884521484 
v 0.3883991241455078 28.273757934570312 -82.25862121582031 
v 0.38268136978149414 28.25237274169922 -82.25862884521484 
v 0.2105274200439453 28.521381378173828 -82.25862884521484 
v 0.20724725723266602 28.50914764404297 -82.25862884521484 
v 0.20724725723266602 28.217208862304688 -82.25862884521484 
v -9.5367431640625e-7 28.494483947753906 -82.25862884521484 
v -9.5367431640625e-7 0 -82.25862884521484 
v -9.5367431640625e-7 28.81438446044922 -82.25862884521484 
v 0.0613861083984375 28.81427001953125 -58.530860900878906 
v 0 28.81427001953125 -58.530860900878906 
v 0.0613861083984375 28.814369201660156 -44.4090461730957 
v 0 28.814369201660156 -44.4090461730957 
v 0.580848217010498 28.005413055419922 -82.81372833251953 
v 0.5999822616577148 28.013511657714844 -82.81372833251953 
v 0.5608744621276855 28.033283233642578 -82.39739990234375 
v 0.5800766944885254 28.04138946533203 -82.39739990234375 
v 0.5009527206420898 28.116897583007812 -82.25862884521484 
v 0.5203633308410645 28.125022888183594 -82.25862884521484 
v 0.3883991241455078 28.273757934570312 -82.25862121582031 
v 0.40555524826049805 28.280887603759766 -82.25862884521484 
v 0.22037172317504883 28.52545928955078 -82.25862884521484 
v 0.5156564712524414 28.525447845458984 -82.25862884521484 
v 0.3090333938598633 28.814369201660156 -82.25862884521484 
v 14.120426177978516 28.525386810302734 -82.25862884521484 
v 14.430843353271484 28.81427001953125 -82.25862884521484 
v 14.699996948242188 28.814254760742188 -82.25862884521484 
v 0.8638687133789062 28.013511657714844 -82.81372833251953 
v 0.8461709022521973 28.04138946533203 -82.39739990234375 
v 0.7930731773376465 28.125022888183594 -82.25862884521484 
v 0.6883220672607422 28.2808837890625 -82.25862121582031 
v 13.612646102905273 28.041385650634766 -82.39740753173828 
v 13.69723129272461 28.12500762939453 -82.25862884521484 
v 13.859415054321289 28.28084945678711 -82.25862121582031 
v 14.436691284179688 28.525375366210938 -82.25862884521484 
v 14.44497299194336 28.522117614746094 -82.25862884521484 
v 14.181192398071289 28.280845642089844 -82.25862884521484 
v 14.021062850952148 28.125003814697266 -82.25862884521484 
v 13.936735153198242 28.041385650634766 -82.39739990234375 
v 13.908620834350586 28.013511657714844 -82.81372833251953 
v 13.924720764160156 28.00704574584961 -82.81372833251953 
v 13.952886581420898 28.034912109375 -82.39739990234375 
v 14.037397384643555 28.118515014648438 -82.25862884521484 
v 14.195625305175781 28.275150299072266 -82.25862121582031 
v 0 28.81427001953125 -58.530860900878906 
v 0.0613861083984375 28.81427001953125 -58.530860900878906 
v 0 28.814254760742188 -58.800010681152344 
v 0.0613861083984375 28.814254760742188 -58.800010681152344 
v -9.5367431640625e-7 28.81438446044922 -82.25862884521484 
v 0.2105274200439453 28.521381378173828 -82.25862884521484 
v 0.0613861083984375 28.81438446044922 -44.100013732910156 
v 0.000003814697265625 28.81438446044922 -44.100013732910156 
v 0.0613861083984375 28.494483947753906 -44.100013732910156 
v 0.000003814697265625 28.494483947753906 -44.100013732910156 
v 0.0613861083984375 0 -44.100013732910156 
v 0.000003814697265625 0 -44.100013732910156 
v 13.584451675415039 28.013511657714844 -82.81372833251953 
v 0.0613861083984375 28.814369201660156 -44.4090461730957 
v 0 28.814369201660156 -44.4090461730957 
v 0.0613861083984375 28.81438446044922 -44.100013732910156 
v 0 28.81438446044922 -44.100013732910156 
v 14.430843353271484 28.81427001953125 -82.25862884521484 
v 14.430843353271484 28.81427001953125 -82.32001495361328 
v 0.3090333938598633 28.814369201660156 -82.25862884521484 
v 0.3090333938598633 28.814369201660156 -82.32001495361328 
v 15.193717956542969 28.005542755126953 -44.68086242675781 
v 14.777389526367188 28.03341293334961 -44.660888671875 
v 15.193717956542969 28.013641357421875 -44.69999694824219 
v 14.777389526367188 28.041519165039062 -44.680091857910156 
v 15.193717956542969 28.013641357421875 -44.96388244628906 
v 14.777389526367188 28.041519165039062 -44.94618606567383 
v 14.777397155761719 28.041515350341797 -57.71266174316406 
v 14.638618469238281 28.125152587890625 -44.893089294433594 
v 14.638618469238281 28.125137329101562 -57.797245025634766 
v 14.63861083984375 28.28101348876953 -44.78833770751953 
v 14.63861083984375 28.28097915649414 -57.95943069458008 
v 14.638618469238281 28.525516510009766 -58.22044372558594 
v 14.638618469238281 28.52550506591797 -58.536705017089844 
v 14.638618469238281 28.81438446044922 -58.800010681152344 
v 14.638618469238281 28.522247314453125 -58.54499053955078 
v 14.638618469238281 28.117027282714844 -44.60096740722656 
v 14.638618469238281 28.125152587890625 -44.62037658691406 
v 14.63861083984375 28.273887634277344 -44.4884147644043 
v 14.638618469238281 28.281017303466797 -44.50556945800781 
v 14.638618469238281 28.525588989257812 -44.32038497924805 
v 14.638618469238281 28.525577545166016 -44.61566925048828 
v 14.638618469238281 28.814498901367188 -44.4090461730957 
v 14.638618469238281 28.81451416015625 -44.100013732910156 
v 14.638618469238281 28.52151107788086 -44.310543060302734 
v 14.638618469238281 28.81439971923828 -58.530860900878906 
v 0.000003814697265625 28.814254760742188 -58.800010681152344 
v 0.0613861083984375 28.814254760742188 -58.800010681152344 
v 0.000003814697265625 28.494369506835938 -58.800010681152344 
v 0.0613861083984375 28.494369506835938 -58.800010681152344 
v 0.000003814697265625 0 -58.800010681152344 
v 0.0613861083984375 0 -58.800010681152344 
v -9.5367431640625e-7 28.81438446044922 -82.32001495361328 
v -9.5367431640625e-7 28.81438446044922 -82.25862884521484 
v 0.3090333938598633 28.814369201660156 -82.32001495361328 
v 0.3090333938598633 28.814369201660156 -82.25862884521484 
v 15.193717956542969 28.013641357421875 -57.68446731567383 
v 15.193717956542969 28.013641357421875 -58.008636474609375 
v 14.777389526367188 28.041515350341797 -58.03675079345703 
v 14.638618469238281 28.125133514404297 -58.12107849121094 
v 14.638618469238281 28.11864471435547 -58.137413024902344 
v 14.63861083984375 28.275279998779297 -58.29563903808594 
v 14.638618469238281 28.280975341796875 -58.28120803833008 
v 14.700004577636719 28.814498901367188 -44.4090461730957 
v 14.700004577636719 28.81439971923828 -58.530860900878906 
v 14.638618469238281 28.814498901367188 -44.4090461730957 
v 14.638618469238281 28.81439971923828 -58.530860900878906 
v 14.777389526367188 28.03504180908203 -58.05290222167969 
v 15.193717956542969 28.00717544555664 -58.02473449707031 
v 14.430843353271484 28.81427001953125 -82.32001495361328 
v 14.430843353271484 28.81427001953125 -82.25862884521484 
v 14.699996948242188 28.814254760742188 -82.32001495361328 
v 14.699996948242188 28.814254760742188 -82.25862884521484 
v 14.638618469238281 28.814498901367188 -44.4090461730957 
v 14.638618469238281 28.81451416015625 -44.100013732910156 
v 14.700004577636719 28.814498901367188 -44.4090461730957 
v 14.700004577636719 28.81451416015625 -44.100013732910156 
v -0.49371337890625 28.013511657714844 -57.68446731567383 
v 0.0613861083984375 28.81438446044922 -44.100013732910156 
v 0.0613861083984375 28.521381378173828 -44.310543060302734 
v 14.638618469238281 28.81438446044922 -58.800010681152344 
v 14.638618469238281 28.522247314453125 -58.54499053955078 
v -0.49371337890625 0 -58.03010177612305 
v -0.07738494873046875 0 -58.05828857421875 
v -0.49371337890625 27.754920959472656 -58.03010177612305 
v -0.077392578125 27.779273986816406 -58.05828857421875 
v -0.07738494873046875 28.01549530029297 -58.05828857421875 
v 0.0613861083984375 28.099044799804688 -58.142852783203125 
v 0.0613861083984375 28.118515014648438 -58.137413024902344 
v 0.06139373779296875 28.275150299072266 -58.29563903808594 
v 0.0613861083984375 0 -58.142852783203125 
v 0.0613861083984375 27.852340698242188 -58.142852783203125 
v 0.0613861083984375 28.258071899414062 -58.300453186035156 
v 0.0613861083984375 28.512351989746094 -58.54774856567383 
v 0.0613861083984375 28.522117614746094 -58.54499053955078 
v 0.0613861083984375 28.814254760742188 -58.800010681152344 
v 0.06139373779296875 27.993484497070312 -58.300453186035156 
v 0.0613861083984375 28.222064971923828 -58.54774856567383 
v 0.0613861083984375 28.494369506835938 -58.800010681152344 
v 0.0613861083984375 0 -58.547752380371094 
v 0.0613861083984375 0 -58.30045700073242 
v 14.638618469238281 0.00012969970703125 -58.800010681152344 
v 14.638618469238281 28.49449920654297 -58.800010681152344 
v 14.700000762939453 0.00012969970703125 -58.800010681152344 
v 14.700000762939453 28.49449920654297 -58.800010681152344 
v 14.638618469238281 28.81438446044922 -58.800010681152344 
v 14.700000762939453 28.81438446044922 -58.800010681152344 
v 14.700000762939453 0.00012969970703125 -44.100013732910156 
v 14.700000762939453 28.494613647460938 -44.100013732910156 
v 14.638618469238281 0.00012969970703125 -44.100013732910156 
v 14.638618469238281 28.494613647460938 -44.100013732910156 
v 14.700000762939453 28.81451416015625 -44.100013732910156 
v 14.638618469238281 28.81451416015625 -44.100013732910156 
v -0.49371337890625 27.98764419555664 -58.03010177612305 
v -0.07738494873046875 28.034912109375 -58.05290222167969 
v -0.49371337890625 28.00704574584961 -58.02473449707031 
v 13.924720764160156 28.00704574584961 -82.81372833251953 
v 13.930086135864258 27.98764419555664 -82.81372833251953 
v 13.952886581420898 28.034912109375 -82.39739990234375 
v 13.958274841308594 28.01549530029297 -82.39739990234375 
v 14.037397384643555 28.118515014648438 -82.25862884521484 
v 14.042839050292969 28.099044799804688 -82.25862884521484 
v 14.195625305175781 28.275150299072266 -82.25862121582031 
v 14.200439453125 28.258071899414062 -82.25862884521484 
v 14.447732925415039 28.512351989746094 -82.25862884521484 
v 14.447734832763672 28.222064971923828 -82.25862884521484 
v 14.699996948242188 28.494369506835938 -82.25862884521484 
v 14.447736740112305 0 -82.25862884521484 
v 14.699996948242188 0 -82.25862884521484 
v 13.930086135864258 27.754920959472656 -82.81372833251953 
v 13.958272933959961 27.779273986816406 -82.39740753173828 
v 14.042839050292969 27.852340698242188 -82.25862884521484 
v 14.200437545776367 27.993484497070312 -82.25862121582031 
v 14.042839050292969 0 -82.25862884521484 
v 13.958274841308594 0 -82.39739990234375 
v 13.930086135864258 0 -82.81372833251953 
v 14.200441360473633 0 -82.25862884521484 
v 14.700004577636719 28.81439971923828 -58.530860900878906 
v 14.700004577636719 28.81438446044922 -58.800010681152344 
v 14.638618469238281 28.81439971923828 -58.530860900878906 
v 14.638618469238281 28.81438446044922 -58.800010681152344 
v 14.699996948242188 28.814254760742188 -82.25862884521484 
v 14.44497299194336 28.522117614746094 -82.25862884521484 
v 15.193717956542969 0.00012969970703125 -58.03010177612305 
v 0.0613861083984375 0 -58.800010681152344 
vn -0.03779737278819084 -0.6152281165122986 -0.7874425053596497 
vn -0.019493045285344124 -0.023563046008348465 -0.9995322823524475 
vn -0.2536402940750122 -0.5950685739517212 -0.762600839138031 
vn -0.16853150725364685 -0.018853142857551575 -0.9855159521102905 
vn -0.9379051923751831 -0.22818098962306976 -0.2612801790237427 
vn -0.9122210144996643 -0.0188816599547863 -0.40926313400268555 
vn -0.999997615814209 -2.0682260971124217e-13 -0.002184694167226553 
vn -0.999997615814209 -2.0682260971124217e-13 0.002184694167226553 
vn -0.999997615814209 -2.0682260971124217e-13 -0.002184694167226553 
vn -0.999997615814209 -2.0682260971124217e-13 -0.002184694167226553 
vn -0.999997615814209 -2.0682260971124217e-13 -0.002184694167226553 
vn -0.999997615814209 -2.0682260971124217e-13 0.002184694167226553 
vn -0.999997615814209 -2.0682260971124217e-13 -0.002184694167226553 
vn -0.999997615814209 -2.0682260971124217e-13 0.002184694167226553 
vn -0.999997615814209 -2.0682260971124217e-13 0.002184694167226553 
vn -0.021845221519470215 -4.518096610544014e-15 -0.9997613430023193 
vn -0.1652315855026245 -0.0037896449211984873 -0.9862475395202637 
vn -0.9106194972991943 -1.883371524057445e-13 -0.41324591636657715 
vn -0.999997615814209 -2.0682260971124217e-13 0.002184694167226553 
vn -0.7779152989387512 -0.0037772986106574535 -0.6283578276634216 
vn -0.14364074170589447 -0.0037929879035800695 -0.9896226525306702 
vn -0.021845221519470215 -4.518096610544014e-15 -0.9997613430023193 
vn -0.999997615814209 -2.0682260971124217e-13 0.002184694167226553 
vn -0.999997615814209 -2.0682260971124217e-13 0.002184694167226553 
vn -0.999997615814209 -2.0682260971124217e-13 0.002184694167226553 
vn -0.999997615814209 -2.0682260971124217e-13 -0.002184694167226553 
vn -0.999997615814209 -2.0682260971124217e-13 0.002184694167226553 
vn -0.999997615814209 -2.0682260971124217e-13 -0.002184694167226553 
vn -0.999997615814209 -2.0682260971124217e-13 0.002184694167226553 
vn -0.999997615814209 -2.0682260971124217e-13 -0.002184694167226553 
vn -0.9488429427146912 -0.007546685636043549 0.31565824151039124 
vn -0.9551276564598083 -0.19479331374168396 0.22312943637371063 
vn -0.23268380761146545 -0.022446727380156517 0.9722933769226074 
vn -0.30211231112480164 -0.6087144017219543 0.7336177229881287 
vn -0.02827353961765766 -0.020541928708553314 0.999389111995697 
vn -0.04140002653002739 -0.6388404965400696 0.7682244777679443 
vn -0.999997615814209 -2.0682260971124217e-13 0.002184694167226553 
vn -0.9446462988853455 0.0037709143944084644 0.3280687630176544 
vn -0.22522740066051483 0.0037441160529851913 0.9742990136146545 
vn -0.0303741954267025 0.0035502342507243156 0.9995322823524475 
vn -0.8689236044883728 -1.79327608535243e-13 0.4949462115764618 
vn -0.999997615814209 -2.0682260971124217e-13 0.002184694167226553 
vn -0.19960615038871765 0.003755420446395874 0.97986900806427 
vn 0.03779737278819084 -0.6152281165122986 -0.7874425053596497 
vn 0.0301908478140831 -0.9991406798362732 -0.028397228568792343 
vn 0.2536402940750122 -0.5950685739517212 -0.762600839138031 
vn 0.22453342378139496 -0.9740525484085083 -0.028397228568792343 
vn 0.9370052814483643 -0.23184862732887268 -0.2612801790237427 
vn 0.9349068999290466 -0.3545634150505066 -0.0152922747656703 
vn 0.999997615814209 0 -0.002184694167226553 
vn 0.999997615814209 0 -0.002184694167226553 
vn 0.999997615814209 0 -0.002184694167226553 
vn 0.999997615814209 0 0.002184694167226553 
vn 0.999997615814209 0 0.002184694167226553 
vn 0.999997615814209 0 0.002184694167226553 
vn 0.999997615814209 0 -0.002184694167226553 
vn 0.999997615814209 0 -0.002184694167226553 
vn 0.0302029550075531 -0.9995414018630981 0.002184694167226553 
vn 0.21725822985172272 -0.9761117100715637 0.002184694167226553 
vn 0.9295517206192017 -0.3686853349208832 0.002184694167226553 
vn 0.999997615814209 0 0.002184694167226553 
vn 0.22462347149848938 -0.9744431972503662 0.002184694167226553 
vn 0.947733998298645 -0.31905397772789 0.002184694167226553 
vn 0.999997615814209 0 0.002184694167226553 
vn 0.999997615814209 0 -0.002184694167226553 
vn 0.999997615814209 0 0.002184694167226553 
vn 0.999997615814209 0 -0.002184694167226553 
vn 0.9452434182167053 -0.3261833190917969 0.010923261754214764 
vn 0.2319493293762207 -0.9726076722145081 0.0152922747656703 
vn 0.03019719012081623 -0.9993505477905273 0.01966099627315998 
vn 0.04140002653002739 -0.6388404965400696 0.7682244777679443 
vn 0.30211231112480164 -0.6087144017219543 0.7336177229881287 
vn 0.9551276564598083 -0.19479331374168396 0.22312943637371063 
vn 0.999997615814209 0 -0.002184694167226553 
vn 0.999997615814209 0 0.002184694167226553 
vn 0.999997615814209 0 0.002184694167226553 
vn 0.999997615814209 0 -0.002184694167226553 
vn 0.999997615814209 0 0.002184694167226553 
vn 0.999997615814209 0 -0.002184694167226553 
vn 0.999997615814209 0 -0.002184694167226553 
vn 0.999997615814209 0 -0.002184694167226553 
vn 0.999997615814209 0 0.002184694167226553 
vn 0.999997615814209 0 -0.002184694167226553 
vn 0.9122913479804993 -0.0151057168841362 -0.40926313400268555 
vn 0.9370052814483643 -0.23184862732887268 -0.2612801790237427 
vn 0.16806964576244354 -0.022603169083595276 -0.9855159521102905 
vn 0.2536402940750122 -0.5950685739517212 -0.762600839138031 
vn 0.022292571142315865 -0.02093411609530449 -0.9995322823524475 
vn 0.03779737278819084 -0.6152281165122986 -0.7874425053596497 
vn 0.999997615814209 0 0.002184694167226553 
vn 0.9106194972991943 0 -0.41324591636657715 
vn 0.16527505218982697 0 -0.9862475395202637 
vn 0.021845221519470215 0 -0.9997613430023193 
vn 0.999997615814209 0 0.002184694167226553 
vn 0.7779244780540466 0 -0.6283578276634216 
vn 0.1436908096075058 0 -0.9896226525306702 
vn 0.021845221519470215 0 -0.9997613430023193 
vn 0.7867608666419983 -0.6163877248764038 0.03276457265019417 
vn 0.7622786164283752 -0.5958235263824463 0.25283506512641907 
vn 0.99945467710495 -0.02264723740518093 0.024029340595006943 
vn 0.9856242537498474 -0.022633183747529984 0.16742929816246033 
vn 0.9998067021369934 0 0.01966099627315998 
vn 0.986606240272522 0 0.16312000155448914 
vn 0.9998067021369934 0 0.01966099627315998 
vn 0.9899342060089111 0 0.1415284425020218 
vn 0.2615216374397278 -0.23361998796463013 0.9364978075027466 
vn 0.406990647315979 -0.015049192123115063 0.913308322429657 
vn 0.41523435711860657 0 0.9097144603729248 
vn 0.6266567707061768 0 0.7792953848838806 
vn 0 0 1 
vn 0 0 1 
vn 0 0 1 
vn 0 0 1 
vn 0 0 1 
vn 0 0 1 
vn 0 0 1 
vn 0 0 1 
vn 0 0 1 
vn 0 0 1 
vn 0 0 1 
vn -1.0341130485562108e-13 0.999997615814209 -0.002184694167226553 
vn -1.0341130485562108e-13 0.999997615814209 -0.002184694167226553 
vn -1.0341130485562108e-13 0.999997615814209 -0.002184694167226553 
vn -1.0341130485562108e-13 0.999997615814209 -0.002184694167226553 
vn 0.7867608666419983 -0.6163877248764038 0.03276457265019417 
vn 0.0301908478140831 -0.9991406798362732 0.028397228568792343 
vn 0.7622786164283752 -0.5958235263824463 0.25283506512641907 
vn 0.03016650676727295 -0.9743219614028931 0.22312943637371063 
vn 0.2615216374397278 -0.23361998796463013 0.9364978075027466 
vn 0.015026818960905075 -0.3585290312767029 0.933397650718689 
vn 0 0 1 
vn 0 0 1 
vn 0 0 1 
vn 0 0 1 
vn 0 0 1 
vn 0 0 1 
vn 0 0 1 
vn 0 0 1 
vn 3.096656503269457e-13 -0.9995967149734497 0.028397228568792343 
vn 3.022795230268882e-13 -0.97575443983078 0.21886809170246124 
vn 0.0037601967342197895 -0.37102872133255005 0.9286137819290161 
vn 0 0 1 
vn -0.0018861254211515188 -0.9738027453422546 0.22738653421401978 
vn -0.0037524683866649866 -0.3177083432674408 0.9481810927391052 
vn 0 0 1 
vn 0 0 1 
vn 0 0 1 
vn 0 0 1 
vn -0.013153028674423695 -0.3216015696525574 0.946783721446991 
vn -0.016974279657006264 -0.9736566543579102 0.22738653421401978 
vn -0.015097145922482014 -0.9994826912879944 0.028397228568792343 
vn -0.7675358653068542 -0.6396613717079163 0.04149730131030083 
vn -0.7320713400840759 -0.6120902299880981 0.2990269064903259 
vn -0.22292572259902954 -0.18977943062782288 0.9561840295791626 
vn 0 0 1 
vn -1.0341130485562108e-13 0.999997615814209 -0.002184694167226553 
vn -1.0341130485562108e-13 0.999997615814209 -0.002184694167226553 
vn -1.0341130485562108e-13 0.999997615814209 -0.002184694167226553 
vn -1.0341130485562108e-13 0.999997615814209 -0.002184694167226553 
vn 0 0 1 
vn 0 0 1 
vn 0 0 1 
vn 0 0 1 
vn 0 0 1 
vn 0 0 1 
vn 0 0 1 
vn 0 0 1 
vn 3.096656503269457e-13 -0.9995967149734497 0.028397228568792343 
vn -1.0341130485562108e-13 0.999997615814209 -0.002184694167226553 
vn -1.0341130485562108e-13 0.999997615814209 -0.002184694167226553 
vn -1.0341130485562108e-13 0.999997615814209 -0.002184694167226553 
vn -1.0341130485562108e-13 0.999997615814209 -0.002184694167226553 
vn -1.0341130485562108e-13 0.999997615814209 0.002184694167226553 
vn -1.0341130485562108e-13 0.999997615814209 0.002184694167226553 
vn -1.0341130485562108e-13 0.999997615814209 0.002184694167226553 
vn -1.0341130485562108e-13 0.999997615814209 0.002184694167226553 
vn -0.03779737278819084 -0.6152281165122986 -0.7874425053596497 
vn -0.2536402940750122 -0.5950685739517212 -0.762600839138031 
vn -0.0301908478140831 -0.9991406798362732 -0.028397228568792343 
vn -0.22453342378139496 -0.9740525484085083 -0.028397228568792343 
vn -0.0302029550075531 -0.9995414018630981 0.002184694167226553 
vn -0.21725822985172272 -0.9761117100715637 0.002184694167226553 
vn -0.22462347149848938 -0.9744431972503662 0.002184694167226553 
vn -0.9295517206192017 -0.3686853349208832 0.002184694167226553 
vn -0.947733998298645 -0.31905397772789 0.002184694167226553 
vn -0.999997615814209 -2.0682260971124217e-13 0.002184694167226553 
vn -0.999997615814209 -2.0682260971124217e-13 0.002184694167226553 
vn -0.999997615814209 -2.0682260971124217e-13 0.002184694167226553 
vn -0.999997615814209 -2.0682260971124217e-13 -0.002184694167226553 
vn -0.999997615814209 -2.0682260971124217e-13 -0.002184694167226553 
vn -0.999997615814209 -2.0682260971124217e-13 0.002184694167226553 
vn -0.9379051923751831 -0.22818098962306976 -0.2612801790237427 
vn -0.9349068999290466 -0.3545634150505066 -0.0152922747656703 
vn -0.999997615814209 -2.0682260971124217e-13 -0.002184694167226553 
vn -0.999997615814209 -2.0682260971124217e-13 -0.002184694167226553 
vn -0.999997615814209 -2.0682260971124217e-13 -0.002184694167226553 
vn -0.999997615814209 -2.0682260971124217e-13 0.002184694167226553 
vn -0.999997615814209 -2.0682260971124217e-13 0.002184694167226553 
vn -0.999997615814209 -2.0682260971124217e-13 -0.002184694167226553 
vn -0.999997615814209 -2.0682260971124217e-13 -0.002184694167226553 
vn -0.999997615814209 -2.0682260971124217e-13 -0.002184694167226553 
vn -2.0682311115474694e-13 0 -1 
vn -2.0682311115474694e-13 0 -1 
vn -2.0682311115474694e-13 0 -1 
vn -2.0682311115474694e-13 0 -1 
vn -2.0682311115474694e-13 0 -1 
vn -2.0682311115474694e-13 0 -1 
vn -1.0341130485562108e-13 0.999997615814209 0.002184694167226553 
vn -1.0341130485562108e-13 0.999997615814209 0.002184694167226553 
vn -1.0341130485562108e-13 0.999997615814209 0.002184694167226553 
vn -1.0341130485562108e-13 0.999997615814209 0.002184694167226553 
vn -0.0302029550075531 -0.9995414018630981 0.002184694167226553 
vn -0.03019719012081623 -0.9993505477905273 0.01966099627315998 
vn -0.2319493293762207 -0.9726076722145081 0.0152922747656703 
vn -0.9452434182167053 -0.3261833190917969 0.010923261754214764 
vn -0.9551276564598083 -0.19479331374168396 0.22312943637371063 
vn -0.999997615814209 -2.0682260971124217e-13 -0.002184694167226553 
vn -0.999997615814209 -2.0682260971124217e-13 -0.002184694167226553 
vn -1.0341130485562108e-13 0.999997615814209 -0.002184694167226553 
vn -1.0341130485562108e-13 0.999997615814209 -0.002184694167226553 
vn -1.0341130485562108e-13 0.999997615814209 -0.002184694167226553 
vn -1.0341130485562108e-13 0.999997615814209 -0.002184694167226553 
vn -0.30211231112480164 -0.6087144017219543 0.7336177229881287 
vn -0.04140002653002739 -0.6388404965400696 0.7682244777679443 
vn -1.0341130485562108e-13 0.999997615814209 0.002184694167226553 
vn -1.0341130485562108e-13 0.999997615814209 0.002184694167226553 
vn -1.0341130485562108e-13 0.999997615814209 0.002184694167226553 
vn -1.0341130485562108e-13 0.999997615814209 0.002184694167226553 
vn -1.0341130485562108e-13 0.999997615814209 -0.002184694167226553 
vn -1.0341130485562108e-13 0.999997615814209 -0.002184694167226553 
vn -1.0341130485562108e-13 0.999997615814209 -0.002184694167226553 
vn -1.0341130485562108e-13 0.999997615814209 -0.002184694167226553 
vn 0.0302029550075531 -0.9995414018630981 0.002184694167226553 
vn 0.999997615814209 0 -0.002184694167226553 
vn 0.999997615814209 0 -0.002184694167226553 
vn -0.999997615814209 -2.0682260971124217e-13 -0.002184694167226553 
vn -0.999997615814209 -2.0682260971124217e-13 0.002184694167226553 
vn 0.030580973252654076 0 0.9995322823524475 
vn 0.19964148104190826 0 0.97986900806427 
vn 0.030580973252654076 0 0.9995322823524475 
vn 0.22525852918624878 0 0.9742990136146545 
vn 0.23268380761146545 -0.022446727380156517 0.9722933769226074 
vn 0.9488429427146912 -0.007546685636043549 0.31565824151039124 
vn 0.9551276564598083 -0.19479331374168396 0.22312943637371063 
vn 0.999997615814209 0 -0.002184694167226553 
vn 0.8689236044883728 0 0.4949462115764618 
vn 0.9446538686752319 0 0.3280687630176544 
vn 0.999997615814209 0 0.002184694167226553 
vn 0.999997615814209 0 -0.002184694167226553 
vn 0.999997615814209 0 0.002184694167226553 
vn 0.999997615814209 0 -0.002184694167226553 
vn 0.999997615814209 0 0.002184694167226553 
vn 0.999997615814209 0 0.002184694167226553 
vn 0.999997615814209 0 -0.002184694167226553 
vn 0.999997615814209 0 0.002184694167226553 
vn 0.999997615814209 0 0.002184694167226553 
vn -2.0682311115474694e-13 0 -1 
vn -2.0682311115474694e-13 0 -1 
vn -2.0682311115474694e-13 0 -1 
vn -2.0682311115474694e-13 0 -1 
vn -2.0682311115474694e-13 0 -1 
vn -2.0682311115474694e-13 0 -1 
vn 0 0 1 
vn 0 0 1 
vn 0 0 1 
vn 0 0 1 
vn 0 0 1 
vn 0 0 1 
vn 0.02827353961765766 -0.020541928708553314 0.999389111995697 
vn 0.30211231112480164 -0.6087144017219543 0.7336177229881287 
vn 0.04140002653002739 -0.6388404965400696 0.7682244777679443 
vn -0.7675358653068542 -0.6396613717079163 0.04149730131030083 
vn -0.9993401765823364 -0.022644642740488052 0.028397228568792343 
vn -0.7320713400840759 -0.6120902299880981 0.2990269064903259 
vn -0.9725383520126343 -0.022636082023382187 0.23163928091526031 
vn -0.22292572259902954 -0.18977943062782288 0.9561840295791626 
vn -0.31764185428619385 -0.007504413370043039 0.9481810927391052 
vn 0 0 1 
vn 0 0 1 
vn 0 0 1 
vn 0 0 1 
vn 0 0 1 
vn 0 0 1 
vn 0 0 1 
vn -0.9995967149734497 -2.0673969535010134e-13 0.028397228568792343 
vn -0.9737972617149353 0.0037722436245530844 0.22738653421401978 
vn -0.33013176918029785 -6.8278878644773e-14 0.9439348578453064 
vn 0 0 1 
vn -0.4968291223049164 0.00376111944206059 0.8678402304649353 
vn -0.9803028106689453 -2.0231394142443404e-13 0.1975002884864807 
vn -0.9995967149734497 -2.0673969535010134e-13 0.028397228568792343 
vn 0 0 1 
vn -1.0341130485562108e-13 0.999997615814209 -0.002184694167226553 
vn -1.0341130485562108e-13 0.999997615814209 -0.002184694167226553 
vn -1.0341130485562108e-13 0.999997615814209 -0.002184694167226553 
vn -1.0341130485562108e-13 0.999997615814209 -0.002184694167226553 
vn 0 0 1 
vn 0 0 1 
vn -0.0303741954267025 0.0035502342507243156 0.9995322823524475 
vn 0.999997615814209 0 0.002184694167226553 
vt 0.2541584074497223 0.17127066850662231 
vt 0.2541584074497223 0.1711023896932602 
vt 0.2565470039844513 0.17143893241882324 
vt 0.2565470039844513 0.17127066850662231 
vt 0.2573830187320709 0.1719437539577484 
vt 0.2575024366378784 0.1717754751443863 
vt 0.25809958577156067 0.1728692501783371 
vt 0.25809958577156067 0.17278511822223663 
vt 0.2590550482273102 0.17429956793785095 
vt 0.2591744661331177 0.17429956793785095 
vt 0.2603687644004822 0.17606641352176666 
vt 0.2591744661331177 0.17253270745277405 
vt 0.2603687644004822 0.1742154210805893 
vt 0.26096591353416443 0.00737373810261488 
vt 0.26216021180152893 0.00737373810261488 
vt 0.2541584074497223 0.169756218791008 
vt 0.2566664516925812 0.16992448270320892 
vt 0.2575024366378784 0.17034517228603363 
vt 0.25809958577156067 0.17118653655052185 
vt 0.25929391384124756 0.00737373810261488 
vt 0.25833845138549805 0.00728960195556283 
vt 0.25594985485076904 0.00728960195556283 
vt 0.2598910629749298 0.00737373810261488 
vt 0.018403589725494385 0.008046826347708702 
vt 0.019836749881505966 0.008046826347708702 
vt 0.020195040851831436 0.1748885214328766 
vt 0.02162819914519787 0.1732899248600006 
vt 0.02162819914519787 0.17497265338897705 
vt 0.02306135930120945 0.17345820367336273 
vt 0.02306135930120945 0.1735423356294632 
vt 0.02401679940521717 0.17253270745277405 
vt 0.02401679940521717 0.1726168394088745 
vt 0.02497223950922489 0.17202788591384888 
vt 0.02497223950922489 0.17211203277111053 
vt 0.027360839769244194 0.17185962200164795 
vt 0.027360839769244194 0.1719437539577484 
vt 0.02306135930120945 0.1719437539577484 
vt 0.02401679940521717 0.1711023896932602 
vt 0.0248528104275465 0.17068171501159668 
vt 0.027360839769244194 0.17051343619823456 
vt 0.02222535014152527 0.008046826347708702 
vt 0.021269910037517548 0.008046826347708702 
vt 0.02318079024553299 0.007962689734995365 
vt 0.13257867097854614 0.139467254281044 
vt 0.13269810378551483 0.139467254281044 
vt 0.13257867097854614 0.141907200217247 
vt 0.13269810378551483 0.141907200217247 
vt 0.13222037255764008 0.1428326964378357 
vt 0.13233980536460876 0.14291682839393616 
vt 0.13162322342395782 0.14375819265842438 
vt 0.13162322342395782 0.14384232461452484 
vt 0.130548357963562 0.1452726423740387 
vt 0.13233980536460876 0.14518851041793823 
vt 0.13114550709724426 0.14695535600185394 
vt 0.21188019216060638 0.1439264714717865 
vt 0.21367163956165314 0.14560918509960175 
vt 0.2152242362499237 0.14560918509960175 
vt 0.1342506855726242 0.139467254281044 
vt 0.1342506855726242 0.141907200217247 
vt 0.13389240205287933 0.1428326964378357 
vt 0.13329525291919708 0.14375819265842438 
vt 0.20877501368522644 0.14072929322719574 
vt 0.2093721628189087 0.14165478944778442 
vt 0.21032759547233582 0.1425802856683731 
vt 0.21367163956165314 0.1439264714717865 
vt 0.21379107236862183 0.1439264714717865 
vt 0.21223847568035126 0.14249615371227264 
vt 0.21128304302692413 0.14157065749168396 
vt 0.21068589389324188 0.14064516127109528 
vt 0.2105664610862732 0.13820521533489227 
vt 0.2105664610862732 0.13820521533489227 
vt 0.21080532670021057 0.14064516127109528 
vt 0.21128304302692413 0.14157065749168396 
vt 0.21223847568035126 0.14249615371227264 
vt 0.0400204211473465 0.007037193980067968 
vt 0.041214719414711 0.007037193980067968 
vt 0.04085642844438553 0.17387887835502625 
vt 0.04205073043704033 0.17228029668331146 
vt 0.04085642844438553 0.17581400275230408 
vt 0.04205073043704033 0.1739630252122879 
vt 0.04205073043704033 0.17404715716838837 
vt 0.04300617054104805 0.17244857549667358 
vt 0.04312559962272644 0.1726168394088745 
vt 0.04372274875640869 0.1715230792760849 
vt 0.04372274875640869 0.17169134318828583 
vt 0.04455875977873802 0.17101825773715973 
vt 0.04455875977873802 0.17118653655052185 
vt 0.047066789120435715 0.1708499789237976 
vt 0.047066789120435715 0.17101825773715973 
vt 0.04300617054104805 0.17093412578105927 
vt 0.04372274875640869 0.17009276151657104 
vt 0.04455875977873802 0.16967208683490753 
vt 0.047066789120435715 0.1695038080215454 
vt 0.04228958860039711 0.007037193980067968 
vt 0.04288674145936966 0.007037193980067968 
vt 0.04372274875640869 0.007037193980067968 
vt 0.04623078182339668 0.007037193980067968 
vt 0.06868361681699753 0.1728692501783371 
vt 0.06629502028226852 0.17303752899169922 
vt 0.06868361681699753 0.17270097136497498 
vt 0.06629502028226852 0.1728692501783371 
vt 0.06868361681699753 0.17135480046272278 
vt 0.06629502028226852 0.17143893241882324 
vt 0.06868361681699753 0.006700649857521057 
vt 0.06629502028226852 0.006700649857521057 
vt 0.0653395801782608 0.1735423356294632 
vt 0.0653395801782608 0.17337407171726227 
vt 0.0653395801782608 0.17185962200164795 
vt 0.0653395801782608 0.006700649857521057 
vt 0.06462299823760986 0.17278511822223663 
vt 0.06474243104457855 0.006700649857521057 
vt 0.06366755813360214 0.006700649857521057 
vt 0.06474243104457855 0.17446783185005188 
vt 0.06462299823760986 0.17429956793785095 
vt 0.06366755813360214 0.17589814960956573 
vt 0.06366755813360214 0.17589814960956573 
vt 0.06366755813360214 0.17413128912448883 
vt 0.06235383078455925 0.1757298707962036 
vt 0.06247325986623764 0.006700649857521057 
vt 0.06235383078455925 0.17766499519348145 
vt 0.21367163956165314 0.14560918509960175 
vt 0.21367163956165314 0.1459457278251648 
vt 0.13114550709724426 0.14695535600185394 
vt 0.13114550709724426 0.147291898727417 
vt 0.13007064163684845 0.11220719665288925 
vt 0.13019007444381714 0.11220719665288925 
vt 0.12995120882987976 0.11464713513851166 
vt 0.13007064163684845 0.11464713513851166 
vt 0.1295929253101349 0.11557263135910034 
vt 0.12971234321594238 0.11557263135910034 
vt 0.12899577617645264 0.11649812757968903 
vt 0.12899577617645264 0.11658226698637009 
vt 0.12792089581489563 0.11801257729530334 
vt 0.12971234321594238 0.11801257729530334 
vt 0.12851804494857788 0.11969529837369919 
vt 0.21032759547233582 0.1170029491186142 
vt 0.21211904287338257 0.11868566274642944 
vt 0.21379107236862183 0.11868566274642944 
vt 0.1317426562309265 0.11212305724620819 
vt 0.13162322342395782 0.11464713513851166 
vt 0.13138437271118164 0.11557263135910034 
vt 0.1306677907705307 0.11649812757968903 
vt 0.20722241699695587 0.11363750696182251 
vt 0.20781956613063812 0.11464713513851166 
vt 0.20877501368522644 0.11557263135910034 
vt 0.21223847568035126 0.11691880971193314 
vt 0.21223847568035126 0.11691880971193314 
vt 0.21068589389324188 0.11548849940299988 
vt 0.20973044633865356 0.11464713513851166 
vt 0.2091332972049713 0.11363750696182251 
vt 0.20901386439800262 0.1111975610256195 
vt 0.2091332972049713 0.1111975610256195 
vt 0.20925273001194 0.11363750696182251 
vt 0.20973044633865356 0.1145630031824112 
vt 0.21068589389324188 0.11548849940299988 
vt 0.21367163956165314 0.1459457278251648 
vt 0.21367163956165314 0.14560918509960175 
vt 0.2152242362499237 0.1459457278251648 
vt 0.2152242362499237 0.14560918509960175 
vt 0.12672659754753113 0.11977943032979965 
vt 0.12792089581489563 0.11801257729530334 
vt 0.04085642844438553 0.17581400275230408 
vt 0.04049814119935036 0.17581400275230408 
vt 0.04085642844438553 0.17387887835502625 
vt 0.04049814119935036 0.17387887835502625 
vt 0.0400204211473465 0.007037193980067968 
vt 0.03966213017702103 0.007037193980067968 
vt 0.20710298418998718 0.1111975610256195 
vt 0.13114550709724426 0.14695535600185394 
vt 0.13114550709724426 0.147291898727417 
vt 0.1293540596961975 0.14695535600185394 
vt 0.1293540596961975 0.147291898727417 
vt 0.21211904287338257 0.11868566274642944 
vt 0.21211904287338257 0.11902221292257309 
vt 0.12851804494857788 0.11969529837369919 
vt 0.12851804494857788 0.1201159805059433 
vt 0.20925273001194 0.12407036870718002 
vt 0.20949159562587738 0.12651030719280243 
vt 0.2091332972049713 0.12407036870718002 
vt 0.2093721628189087 0.12651030719280243 
vt 0.20758071541786194 0.12415450811386108 
vt 0.20781956613063812 0.1265944540500641 
vt 0.1331758201122284 0.12794062495231628 
vt 0.2080584317445755 0.12751995027065277 
vt 0.13269810378551483 0.12895025312900543 
vt 0.20877501368522644 0.1283612996339798 
vt 0.1317426562309265 0.12987574934959412 
vt 0.13030950725078583 0.13130606710910797 
vt 0.12839862704277039 0.13139019906520844 
vt 0.12684603035449982 0.13307292759418488 
vt 0.12839862704277039 0.13130606710910797 
vt 0.20984987914562225 0.1274358034133911 
vt 0.20973044633865356 0.1274358034133911 
vt 0.2104470282793045 0.1283612996339798 
vt 0.21032759547233582 0.1283612996339798 
vt 0.21152189373970032 0.12979161739349365 
vt 0.20973044633865356 0.12979161739349365 
vt 0.21104417741298676 0.1314743310213089 
vt 0.2128356248140335 0.1314743310213089 
vt 0.21152189373970032 0.1297074854373932 
vt 0.12851804494857788 0.13307292759418488 
vt 0.24508172273635864 0.174636110663414 
vt 0.24472343921661377 0.174636110663414 
vt 0.24508172273635864 0.17278511822223663 
vt 0.24472343921661377 0.17278511822223663 
vt 0.24508172273635864 0.005943425931036472 
vt 0.24472343921661377 0.005943425931036472 
vt 0.12672659754753113 0.1201159805059433 
vt 0.12672659754753113 0.11977943032979965 
vt 0.12851804494857788 0.1201159805059433 
vt 0.12851804494857788 0.11969529837369919 
vt 0.13329525291919708 0.12550067901611328 
vt 0.13138437271118164 0.12558481097221375 
vt 0.13126493990421295 0.12802475690841675 
vt 0.1307872235774994 0.12895025312900543 
vt 0.1306677907705307 0.12895025312900543 
vt 0.12983177602291107 0.12987574934959412 
vt 0.12983177602291107 0.12987574934959412 
vt 0.21104417741298676 0.13181088864803314 
vt 0.12851804494857788 0.13340947031974792 
vt 0.21104417741298676 0.1314743310213089 
vt 0.12851804494857788 0.13307292759418488 
vt 0.13114550709724426 0.12802475690841675 
vt 0.13126493990421295 0.12558481097221375 
vt 0.21211904287338257 0.11902221292257309 
vt 0.21211904287338257 0.11868566274642944 
vt 0.21379107236862183 0.11902221292257309 
vt 0.21379107236862183 0.11868566274642944 
vt 0.21104417741298676 0.1314743310213089 
vt 0.2128356248140335 0.1314743310213089 
vt 0.21104417741298676 0.13181088864803314 
vt 0.2128356248140335 0.13181088864803314 
vt 0.20865558087825775 0.13828934729099274 
vt 0.1293540596961975 0.14695535600185394 
vt 0.130548357963562 0.14518851041793823 
vt 0.020195040851831436 0.17673949897289276 
vt 0.02162819914519787 0.17505678534507751 
vt 0.23755763471126556 0.005943425931036472 
vt 0.23994624614715576 0.005943425931036472 
vt 0.23743821680545807 0.16849417984485626 
vt 0.23994624614715576 0.16857831180095673 
vt 0.23982681334018707 0.17000862956047058 
vt 0.2407822459936142 0.17051343619823456 
vt 0.2407822459936142 0.17059758305549622 
vt 0.24173769354820251 0.1715230792760849 
vt 0.24090167880058289 0.005943425931036472 
vt 0.2407822459936142 0.1690831333398819 
vt 0.24173769354820251 0.17143893241882324 
vt 0.2431708574295044 0.1728692501783371 
vt 0.2431708574295044 0.17295338213443756 
vt 0.24472343921661377 0.174636110663414 
vt 0.24173769354820251 0.16984035074710846 
vt 0.2431708574295044 0.17118653655052185 
vt 0.24472343921661377 0.17278511822223663 
vt 0.2432902753353119 0.005943425931036472 
vt 0.2418571263551712 0.005943425931036472 
vt 0.018403589725494385 0.008046826347708702 
vt 0.020195040851831436 0.1748885214328766 
vt 0.018045300617814064 0.008046826347708702 
vt 0.019836749881505966 0.1748885214328766 
vt 0.020195040851831436 0.17673949897289276 
vt 0.019836749881505966 0.17673949897289276 
vt 0.2625184953212738 0.00737373810261488 
vt 0.26072704792022705 0.1742154210805893 
vt 0.26216021180152893 0.00737373810261488 
vt 0.2603687644004822 0.1742154210805893 
vt 0.26072704792022705 0.17606641352176666 
vt 0.2603687644004822 0.17606641352176666 
vt 0.23743821680545807 0.16984035074710846 
vt 0.23982681334018707 0.17009276151657104 
vt 0.23743821680545807 0.16992448270320892 
vt 0.21940428018569946 0.17160721123218536 
vt 0.21940428018569946 0.1715230792760849 
vt 0.22179287672042847 0.1717754751443863 
vt 0.22179287672042847 0.17169134318828583 
vt 0.22274832427501678 0.17228029668331146 
vt 0.22286775708198547 0.172196164727211 
vt 0.2237037569284439 0.17320579290390015 
vt 0.2237037569284439 0.17312166094779968 
vt 0.22525635361671448 0.174636110663414 
vt 0.22525635361671448 0.1728692501783371 
vt 0.22668950259685516 0.17455196380615234 
vt 0.22537578642368317 0.005438609980046749 
vt 0.22692836821079254 0.005438609980046749 
vt 0.21940428018569946 0.17009276151657104 
vt 0.22179287672042847 0.17026104032993317 
vt 0.22286775708198547 0.17068171501159668 
vt 0.2237037569284439 0.1715230792760849 
vt 0.22298717498779297 0.005438609980046749 
vt 0.22203174233436584 0.005438609980046749 
vt 0.21952371299266815 0.005438609980046749 
vt 0.2239426225423813 0.005438609980046749 
vt 0.12851804494857788 0.13340947031974792 
vt 0.1269654631614685 0.13340947031974792 
vt 0.12851804494857788 0.13307292759418488 
vt 0.12684603035449982 0.13307292759418488 
vt 0.22668950259685516 0.1764029562473297 
vt 0.22525635361671448 0.17472024261951447 
vt 0.025688819587230682 0.007962689734995365 
vt 0.24472343921661377 0.005943425931036472 
s on 
f 1/1/1 2/2/2 3/3/3 
f 2/2/2 4/4/4 3/3/3 
f 3/3/3 4/4/4 5/5/5 
f 4/4/4 6/6/6 5/5/5 
f 5/5/5 6/6/6 7/7/7 
f 6/6/6 8/8/8 7/7/7 
f 7/7/7 8/8/8 9/9/9 
f 8/8/8 10/10/10 9/9/9 
f 9/9/9 10/10/10 11/11/11 
f 10/10/10 12/12/12 11/11/11 
f 11/11/11 12/12/12 13/13/13 
f 12/12/12 14/14/14 13/13/13 
f 13/13/13 14/14/14 15/15/15 
f 14/14/14 15/15/15 15/15/15 
f 15/15/15 15/15/15 2/2/2 
f 15/15/15 2/2/2 2/2/2 
f 2/2/2 2/2/2 2/2/2 
f 2/2/2 16/16/16 2/2/2 
f 2/2/2 16/16/16 4/4/4 
f 16/16/16 17/17/17 4/4/4 
f 4/4/4 17/17/17 6/6/6 
f 17/17/17 18/18/18 6/6/6 
f 6/6/6 18/18/18 8/8/8 
f 18/18/18 19/19/19 8/8/8 
f 8/8/8 19/19/19 10/10/10 
f 19/19/19 12/12/12 10/10/10 
f 10/10/10 12/12/12 12/12/12 
f 12/12/12 19/19/19 12/12/12 
f 12/12/12 19/19/19 19/19/19 
f 19/19/19 18/18/18 19/19/19 
f 19/19/19 18/18/18 20/20/20 
f 18/18/18 17/17/17 20/20/20 
f 20/20/20 17/17/17 21/21/21 
f 17/17/17 22/22/22 21/21/21 
f 21/21/21 22/22/22 22/22/22 
f 22/22/22 20/20/20 22/22/22 
f 22/22/22 20/20/20 20/20/20 
f 20/20/20 23/23/23 20/20/20 
f 20/20/20 23/23/23 19/19/19 
f 23/23/23 14/14/14 19/19/19 
f 19/19/19 14/14/14 12/12/12 
f 14/14/14 12/12/12 12/12/12 
f 12/12/12 12/12/12 24/24/24 
f 12/12/12 24/24/24 24/24/24 
f 24/24/24 24/24/24 24/24/24 
f 24/24/24 25/25/25 24/24/24 
f 24/24/24 25/25/25 26/26/26 
f 25/25/25 27/27/27 26/26/26 
f 26/26/26 27/27/27 28/28/28 
f 27/27/27 29/29/29 28/28/28 
f 28/28/28 29/29/29 30/30/30 
f 29/29/29 31/31/31 30/30/30 
f 30/30/30 31/31/31 32/32/32 
f 31/31/31 33/33/33 32/32/32 
f 32/32/32 33/33/33 34/34/34 
f 33/33/33 35/35/35 34/34/34 
f 34/34/34 35/35/35 36/36/36 
f 35/35/35 36/36/36 36/36/36 
f 36/36/36 36/36/36 27/27/27 
f 36/36/36 27/27/27 27/27/27 
f 27/27/27 27/27/27 27/27/27 
f 27/27/27 37/37/37 27/27/27 
f 27/27/27 37/37/37 29/29/29 
f 37/37/37 38/38/38 29/29/29 
f 29/29/29 38/38/38 31/31/31 
f 38/38/38 39/39/39 31/31/31 
f 31/31/31 39/39/39 33/33/33 
f 39/39/39 40/40/40 33/33/33 
f 33/33/33 40/40/40 35/35/35 
f 40/40/40 35/35/35 35/35/35 
f 35/35/35 35/35/35 39/39/39 
f 35/35/35 39/39/39 39/39/39 
f 39/39/39 39/39/39 39/39/39 
f 39/39/39 38/38/38 39/39/39 
f 39/39/39 38/38/38 41/41/41 
f 38/38/38 37/37/37 41/41/41 
f 41/41/41 37/37/37 42/42/42 
f 37/37/37 25/25/25 42/42/42 
f 42/42/42 25/25/25 25/25/25 
f 25/25/25 41/41/41 25/25/25 
f 25/25/25 41/41/41 41/41/41 
f 41/41/41 43/43/43 41/41/41 
f 41/41/41 43/43/43 39/39/39 
f 43/43/43 40/40/40 39/39/39 
f 39/39/39 40/40/40 40/40/40 
f 40/40/40 44/44/44 40/40/40 
f 40/40/40 44/44/44 44/44/44 
f 44/44/44 45/45/45 44/44/44 
f 44/44/44 45/45/45 46/46/46 
f 45/45/45 47/47/47 46/46/46 
f 46/46/46 47/47/47 48/48/48 
f 47/47/47 49/49/49 48/48/48 
f 48/48/48 49/49/49 50/50/50 
f 49/49/49 51/51/51 50/50/50 
f 50/50/50 51/51/51 52/52/52 
f 51/51/51 53/53/53 52/52/52 
f 52/52/52 53/53/53 54/54/54 
f 53/53/53 55/55/55 54/54/54 
f 54/54/54 55/55/55 56/56/56 
f 55/55/55 57/57/57 56/56/56 
f 56/56/56 57/57/57 57/57/57 
f 57/57/57 45/45/45 57/57/57 
f 57/57/57 45/45/45 45/45/45 
f 45/45/45 58/58/58 45/45/45 
f 45/45/45 58/58/58 47/47/47 
f 58/58/58 59/59/59 47/47/47 
f 47/47/47 59/59/59 49/49/49 
f 59/59/59 60/60/60 49/49/49 
f 49/49/49 60/60/60 51/51/51 
f 60/60/60 61/61/61 51/51/51 
f 51/51/51 61/61/61 53/53/53 
f 61/61/61 55/55/55 53/53/53 
f 53/53/53 55/55/55 55/55/55 
f 55/55/55 59/59/59 55/55/55 
f 55/55/55 59/59/59 59/59/59 
f 59/59/59 62/62/62 59/59/59 
f 59/59/59 62/62/62 60/60/60 
f 62/62/62 63/63/63 60/60/60 
f 60/60/60 63/63/63 61/61/61 
f 63/63/63 64/64/64 61/61/61 
f 61/61/61 64/64/64 55/55/55 
f 64/64/64 65/65/65 55/55/55 
f 55/55/55 65/65/65 57/57/57 
f 65/65/65 66/66/66 57/57/57 
f 57/57/57 66/66/66 66/66/66 
f 66/66/66 65/65/65 66/66/66 
f 66/66/66 65/65/65 65/65/65 
f 65/65/65 64/64/64 65/65/65 
f 65/65/65 64/64/64 67/67/67 
f 64/64/64 63/63/63 67/67/67 
f 67/67/67 63/63/63 68/68/68 
f 63/63/63 62/62/62 68/68/68 
f 68/68/68 62/62/62 69/69/69 
f 62/62/62 70/70/70 69/69/69 
f 69/69/69 70/70/70 71/71/71 
f 70/70/70 71/71/71 71/71/71 
f 71/71/71 71/71/71 71/71/71 
f 71/71/71 72/72/72 71/71/71 
f 71/71/71 72/72/72 69/69/69 
f 72/72/72 73/73/73 69/69/69 
f 69/69/69 73/73/73 68/68/68 
f 73/73/73 74/74/74 68/68/68 
f 68/68/68 74/74/74 67/67/67 
f 74/74/74 66/66/66 67/67/67 
f 67/67/67 66/66/66 65/65/65 
f 66/66/66 65/65/65 65/65/65 
f 65/65/65 65/65/65 75/75/75 
f 65/65/65 75/75/75 75/75/75 
f 75/75/75 75/75/75 75/75/75 
f 75/75/75 76/76/76 75/75/75 
f 75/75/75 76/76/76 77/77/77 
f 76/76/76 78/78/78 77/77/77 
f 77/77/77 78/78/78 79/79/79 
f 78/78/78 80/80/80 79/79/79 
f 79/79/79 80/80/80 81/81/81 
f 80/80/80 82/82/82 81/81/81 
f 81/81/81 82/82/82 83/83/83 
f 82/82/82 84/84/84 83/83/83 
f 83/83/83 84/84/84 85/85/85 
f 84/84/84 86/86/86 85/85/85 
f 85/85/85 86/86/86 87/87/87 
f 86/86/86 88/88/88 87/87/87 
f 87/87/87 88/88/88 89/89/89 
f 88/88/88 89/89/89 89/89/89 
f 89/89/89 89/89/89 80/80/80 
f 89/89/89 80/80/80 80/80/80 
f 80/80/80 80/80/80 80/80/80 
f 80/80/80 90/90/90 80/80/80 
f 80/80/80 90/90/90 82/82/82 
f 90/90/90 91/91/91 82/82/82 
f 82/82/82 91/91/91 84/84/84 
f 91/91/91 92/92/92 84/84/84 
f 84/84/84 92/92/92 86/86/86 
f 92/92/92 93/93/93 86/86/86 
f 86/86/86 93/93/93 88/88/88 
f 93/93/93 88/88/88 88/88/88 
f 88/88/88 88/88/88 80/80/80 
f 88/88/88 80/80/80 80/80/80 
f 80/80/80 80/80/80 80/80/80 
f 80/80/80 78/78/78 80/80/80 
f 80/80/80 78/78/78 90/90/90 
f 78/78/78 76/76/76 90/90/90 
f 90/90/90 76/76/76 94/94/94 
f 76/76/76 94/94/94 94/94/94 
f 94/94/94 94/94/94 94/94/94 
f 94/94/94 95/95/95 94/94/94 
f 94/94/94 95/95/95 90/90/90 
f 95/95/95 91/91/91 90/90/90 
f 90/90/90 91/91/91 91/91/91 
f 91/91/91 95/95/95 91/91/91 
f 91/91/91 95/95/95 92/92/92 
f 95/95/95 96/96/96 92/92/92 
f 92/92/92 96/96/96 97/97/97 
f 96/96/96 97/97/97 97/97/97 
f 97/97/97 97/97/97 98/98/98 
f 97/97/97 98/98/98 98/98/98 
f 98/98/98 98/98/98 98/98/98 
f 98/98/98 99/99/99 98/98/98 
f 98/98/98 99/99/99 100/100/100 
f 99/99/99 101/101/101 100/100/100 
f 100/100/100 101/101/101 102/102/102 
f 101/101/101 103/103/103 102/102/102 
f 102/102/102 103/103/103 104/104/104 
f 103/103/103 105/105/105 104/104/104 
f 104/104/104 105/105/105 105/105/105 
f 105/105/105 99/99/99 105/105/105 
f 105/105/105 99/99/99 99/99/99 
f 99/99/99 106/106/106 99/99/99 
f 99/99/99 106/106/106 101/101/101 
f 106/106/106 107/107/107 101/101/101 
f 101/101/101 107/107/107 103/103/103 
f 107/107/107 108/108/108 103/103/103 
f 103/103/103 108/108/108 109/109/109 
f 108/108/108 110/110/110 109/109/109 
f 109/109/109 110/110/110 111/111/111 
f 110/110/110 112/112/112 111/111/111 
f 111/111/111 112/112/112 112/112/112 
f 112/112/112 106/106/106 112/112/112 
f 112/112/112 106/106/106 106/106/106 
f 106/106/106 113/113/113 106/106/106 
f 106/106/106 113/113/113 107/107/107 
f 113/113/113 114/114/114 107/107/107 
f 107/107/107 114/114/114 108/108/108 
f 114/114/114 110/110/110 108/108/108 
f 108/108/108 110/110/110 110/110/110 
f 110/110/110 113/113/113 110/110/110 
f 110/110/110 113/113/113 113/113/113 
f 113/113/113 115/115/115 113/113/113 
f 113/113/113 115/115/115 114/114/114 
f 115/115/115 116/116/116 114/114/114 
f 114/114/114 116/116/116 110/110/110 
f 116/116/116 117/117/117 110/110/110 
f 110/110/110 117/117/117 112/112/112 
f 117/117/117 118/118/118 112/112/112 
f 112/112/112 118/118/118 119/119/119 
f 118/118/118 119/119/119 119/119/119 
f 119/119/119 119/119/119 118/118/118 
f 119/119/119 118/118/118 118/118/118 
f 118/118/118 118/118/118 118/118/118 
f 118/118/118 117/117/117 118/118/118 
f 118/118/118 117/117/117 120/120/120 
f 117/117/117 116/116/116 120/120/120 
f 120/120/120 116/116/116 115/115/115 
f 116/116/116 115/115/115 115/115/115 
f 115/115/115 115/115/115 121/121/121 
f 115/115/115 121/121/121 121/121/121 
f 121/121/121 121/121/121 121/121/121 
f 121/121/121 122/122/122 121/121/121 
f 121/121/121 122/122/122 123/123/123 
f 122/122/122 124/124/124 123/123/123 
f 123/123/123 124/124/124 124/124/124 
f 124/124/124 125/125/125 124/124/124 
f 124/124/124 125/125/125 125/125/125 
f 125/125/125 126/126/126 125/125/125 
f 125/125/125 126/126/126 127/127/127 
f 126/126/126 128/128/128 127/127/127 
f 127/127/127 128/128/128 129/129/129 
f 128/128/128 130/130/130 129/129/129 
f 129/129/129 130/130/130 131/131/131 
f 130/130/130 132/132/132 131/131/131 
f 131/131/131 132/132/132 133/133/133 
f 132/132/132 134/134/134 133/133/133 
f 133/133/133 134/134/134 135/135/135 
f 134/134/134 136/136/136 135/135/135 
f 135/135/135 136/136/136 137/137/137 
f 136/136/136 138/138/138 137/137/137 
f 137/137/137 138/138/138 138/138/138 
f 138/138/138 126/126/126 138/138/138 
f 138/138/138 126/126/126 126/126/126 
f 126/126/126 139/139/139 126/126/126 
f 126/126/126 139/139/139 128/128/128 
f 139/139/139 140/140/140 128/128/128 
f 128/128/128 140/140/140 130/130/130 
f 140/140/140 141/141/141 130/130/130 
f 130/130/130 141/141/141 132/132/132 
f 141/141/141 142/142/142 132/132/132 
f 132/132/132 142/142/142 134/134/134 
f 142/142/142 136/136/136 134/134/134 
f 134/134/134 136/136/136 136/136/136 
f 136/136/136 140/140/140 136/136/136 
f 136/136/136 140/140/140 140/140/140 
f 140/140/140 143/143/143 140/140/140 
f 140/140/140 143/143/143 141/141/141 
f 143/143/143 144/144/144 141/141/141 
f 141/141/141 144/144/144 142/142/142 
f 144/144/144 145/145/145 142/142/142 
f 142/142/142 145/145/145 136/136/136 
f 145/145/145 146/146/146 136/136/136 
f 136/136/136 146/146/146 138/138/138 
f 146/146/146 147/147/147 138/138/138 
f 138/138/138 147/147/147 147/147/147 
f 147/147/147 146/146/146 147/147/147 
f 147/147/147 146/146/146 146/146/146 
f 146/146/146 145/145/145 146/146/146 
f 146/146/146 145/145/145 148/148/148 
f 145/145/145 144/144/144 148/148/148 
f 148/148/148 144/144/144 149/149/149 
f 144/144/144 143/143/143 149/149/149 
f 149/149/149 143/143/143 150/150/150 
f 143/143/143 151/151/151 150/150/150 
f 150/150/150 151/151/151 152/152/152 
f 151/151/151 152/152/152 152/152/152 
f 152/152/152 152/152/152 152/152/152 
f 152/152/152 153/153/153 152/152/152 
f 152/152/152 153/153/153 150/150/150 
f 153/153/153 154/154/154 150/150/150 
f 150/150/150 154/154/154 149/149/149 
f 154/154/154 155/155/155 149/149/149 
f 149/149/149 155/155/155 148/148/148 
f 155/155/155 147/147/147 148/148/148 
f 148/148/148 147/147/147 146/146/146 
f 147/147/147 146/146/146 146/146/146 
f 146/146/146 146/146/146 156/156/156 
f 146/146/146 156/156/156 156/156/156 
f 156/156/156 156/156/156 156/156/156 
f 156/156/156 157/157/157 156/156/156 
f 156/156/156 157/157/157 158/158/158 
f 157/157/157 159/159/159 158/158/158 
f 158/158/158 159/159/159 159/159/159 
f 159/159/159 135/135/135 159/159/159 
f 159/159/159 135/135/135 135/135/135 
f 135/135/135 160/160/160 135/135/135 
f 135/135/135 160/160/160 133/133/133 
f 160/160/160 161/161/161 133/133/133 
f 133/133/133 161/161/161 131/131/131 
f 161/161/161 131/131/131 131/131/131 
f 131/131/131 131/131/131 162/162/162 
f 131/131/131 162/162/162 162/162/162 
f 162/162/162 162/162/162 162/162/162 
f 162/162/162 163/163/163 162/162/162 
f 162/162/162 163/163/163 164/164/164 
f 163/163/163 165/165/165 164/164/164 
f 164/164/164 165/165/165 166/166/166 
f 165/165/165 167/167/167 166/166/166 
f 166/166/166 167/167/167 167/167/167 
f 167/167/167 151/151/151 167/167/167 
f 167/167/167 151/151/151 151/151/151 
f 151/151/151 143/143/143 151/151/151 
f 151/151/151 143/143/143 168/168/168 
f 143/143/143 139/139/139 168/168/168 
f 168/168/168 139/139/139 139/139/139 
f 139/139/139 169/169/169 139/139/139 
f 139/139/139 169/169/169 169/169/169 
f 169/169/169 170/170/170 169/169/169 
f 169/169/169 170/170/170 171/171/171 
f 170/170/170 172/172/172 171/171/171 
f 171/171/171 172/172/172 172/172/172 
f 172/172/172 173/173/173 172/172/172 
f 172/172/172 173/173/173 173/173/173 
f 173/173/173 174/174/174 173/173/173 
f 173/173/173 174/174/174 175/175/175 
f 174/174/174 176/176/176 175/175/175 
f 175/175/175 176/176/176 176/176/176 
f 176/176/176 177/177/177 176/176/176 
f 176/176/176 177/177/177 177/177/177 
f 177/177/177 178/178/178 177/177/177 
f 177/177/177 178/178/178 179/179/179 
f 178/178/178 180/180/180 179/179/179 
f 179/179/179 180/180/180 181/181/181 
f 180/180/180 182/182/182 181/181/181 
f 181/181/181 182/182/182 183/183/183 
f 182/182/182 184/184/184 183/183/183 
f 183/183/183 184/184/184 185/185/185 
f 184/184/184 186/186/186 185/185/185 
f 185/185/185 186/186/186 187/187/187 
f 186/186/186 188/188/188 187/187/187 
f 187/187/187 188/188/188 189/189/189 
f 188/188/188 190/190/190 189/189/189 
f 189/189/189 190/190/190 191/191/191 
f 190/190/190 191/191/191 191/191/191 
f 191/191/191 191/191/191 178/178/178 
f 191/191/191 178/178/178 178/178/178 
f 178/178/178 178/178/178 178/178/178 
f 178/178/178 192/192/192 178/178/178 
f 178/178/178 192/192/192 180/180/180 
f 192/192/192 193/193/193 180/180/180 
f 180/180/180 193/193/193 182/182/182 
f 193/193/193 184/184/184 182/182/182 
f 182/182/182 184/184/184 184/184/184 
f 184/184/184 192/192/192 184/184/184 
f 184/184/184 192/192/192 192/192/192 
f 192/192/192 194/194/194 192/192/192 
f 192/192/192 194/194/194 193/193/193 
f 194/194/194 195/195/195 193/193/193 
f 193/193/193 195/195/195 184/184/184 
f 195/195/195 186/186/186 184/184/184 
f 184/184/184 186/186/186 186/186/186 
f 186/186/186 194/194/194 186/186/186 
f 186/186/186 194/194/194 194/194/194 
f 194/194/194 196/196/196 194/194/194 
f 194/194/194 196/196/196 195/195/195 
f 196/196/196 197/197/197 195/195/195 
f 195/195/195 197/197/197 186/186/186 
f 197/197/197 188/188/188 186/186/186 
f 186/186/186 188/188/188 188/188/188 
f 188/188/188 197/197/197 188/188/188 
f 188/188/188 197/197/197 198/198/198 
f 197/197/197 196/196/196 198/198/198 
f 198/198/198 196/196/196 199/199/199 
f 196/196/196 200/200/200 199/199/199 
f 199/199/199 200/200/200 200/200/200 
f 200/200/200 198/198/198 200/200/200 
f 200/200/200 198/198/198 198/198/198 
f 198/198/198 201/201/201 198/198/198 
f 198/198/198 201/201/201 188/188/188 
f 201/201/201 190/190/190 188/188/188 
f 188/188/188 190/190/190 190/190/190 
f 190/190/190 202/202/202 190/190/190 
f 190/190/190 202/202/202 202/202/202 
f 202/202/202 203/203/203 202/202/202 
f 202/202/202 203/203/203 204/204/204 
f 203/203/203 205/205/205 204/204/204 
f 204/204/204 205/205/205 206/206/206 
f 205/205/205 207/207/207 206/206/206 
f 206/206/206 207/207/207 207/207/207 
f 207/207/207 208/208/208 207/207/207 
f 207/207/207 208/208/208 208/208/208 
f 208/208/208 209/209/209 208/208/208 
f 208/208/208 209/209/209 210/210/210 
f 209/209/209 211/211/211 210/210/210 
f 210/210/210 211/211/211 211/211/211 
f 211/211/211 181/181/181 211/211/211 
f 211/211/211 181/181/181 181/181/181 
f 181/181/181 183/183/183 181/181/181 
f 181/181/181 183/183/183 212/212/212 
f 183/183/183 213/213/213 212/212/212 
f 212/212/212 213/213/213 213/213/213 
f 213/213/213 183/183/183 213/213/213 
f 213/213/213 183/183/183 214/214/214 
f 183/183/183 215/215/215 214/214/214 
f 214/214/214 215/215/215 216/216/216 
f 215/215/215 217/217/217 216/216/216 
f 216/216/216 217/217/217 217/217/217 
f 217/217/217 183/183/183 217/217/217 
f 217/217/217 183/183/183 183/183/183 
f 183/183/183 185/185/185 183/183/183 
f 183/183/183 185/185/185 215/215/215 
f 185/185/185 218/218/218 215/215/215 
f 215/215/215 218/218/218 217/217/217 
f 218/218/218 191/191/191 217/217/217 
f 217/217/217 191/191/191 191/191/191 
f 191/191/191 185/185/185 191/191/191 
f 191/191/191 185/185/185 185/185/185 
f 185/185/185 187/187/187 185/185/185 
f 185/185/185 187/187/187 218/218/218 
f 187/187/187 189/189/189 218/218/218 
f 218/218/218 189/189/189 191/191/191 
f 189/189/189 191/191/191 191/191/191 
f 191/191/191 191/191/191 219/219/219 
f 191/191/191 219/219/219 219/219/219 
f 219/219/219 219/219/219 219/219/219 
f 219/219/219 220/220/220 219/219/219 
f 219/219/219 220/220/220 221/221/221 
f 220/220/220 222/222/222 221/221/221 
f 221/221/221 222/222/222 222/222/222 
f 222/222/222 216/216/216 222/222/222 
f 222/222/222 216/216/216 216/216/216 
f 216/216/216 223/223/223 216/216/216 
f 216/216/216 223/223/223 214/214/214 
f 223/223/223 224/224/224 214/214/214 
f 214/214/214 224/224/224 213/213/213 
f 224/224/224 213/213/213 213/213/213 
f 213/213/213 213/213/213 225/225/225 
f 213/213/213 225/225/225 225/225/225 
f 225/225/225 225/225/225 225/225/225 
f 225/225/225 226/226/226 225/225/225 
f 225/225/225 226/226/226 227/227/227 
f 226/226/226 228/228/228 227/227/227 
f 227/227/227 228/228/228 228/228/228 
f 228/228/228 229/229/229 228/228/228 
f 228/228/228 229/229/229 229/229/229 
f 229/229/229 230/230/230 229/229/229 
f 229/229/229 230/230/230 231/231/231 
f 230/230/230 232/232/232 231/231/231 
f 231/231/231 232/232/232 232/232/232 
f 232/232/232 59/59/59 232/232/232 
f 232/232/232 59/59/59 59/59/59 
f 59/59/59 58/58/58 59/59/59 
f 59/59/59 58/58/58 62/62/62 
f 58/58/58 233/233/233 62/62/62 
f 62/62/62 233/233/233 70/70/70 
f 233/233/233 70/70/70 70/70/70 
f 70/70/70 70/70/70 54/54/54 
f 70/70/70 54/54/54 54/54/54 
f 54/54/54 54/54/54 54/54/54 
f 54/54/54 234/234/234 54/54/54 
f 54/54/54 234/234/234 52/52/52 
f 234/234/234 235/235/235 52/52/52 
f 52/52/52 235/235/235 50/50/50 
f 235/235/235 50/50/50 50/50/50 
f 50/50/50 50/50/50 26/26/26 
f 50/50/50 26/26/26 26/26/26 
f 26/26/26 26/26/26 26/26/26 
f 26/26/26 28/28/28 26/26/26 
f 26/26/26 28/28/28 236/236/236 
f 28/28/28 237/237/237 236/236/236 
f 236/236/236 237/237/237 237/237/237 
f 237/237/237 238/238/238 237/237/237 
f 237/237/237 238/238/238 238/238/238 
f 238/238/238 239/239/239 238/238/238 
f 238/238/238 239/239/239 240/240/240 
f 239/239/239 241/241/241 240/240/240 
f 240/240/240 241/241/241 242/242/242 
f 241/241/241 243/243/243 242/242/242 
f 242/242/242 243/243/243 244/244/244 
f 243/243/243 245/245/245 244/244/244 
f 244/244/244 245/245/245 245/245/245 
f 245/245/245 239/239/239 245/245/245 
f 245/245/245 239/239/239 239/239/239 
f 239/239/239 246/246/246 239/239/239 
f 239/239/239 246/246/246 241/241/241 
f 246/246/246 247/247/247 241/241/241 
f 241/241/241 247/247/247 243/243/243 
f 247/247/247 248/248/248 243/243/243 
f 243/243/243 248/248/248 245/245/245 
f 248/248/248 249/249/249 245/245/245 
f 245/245/245 249/249/249 250/250/250 
f 249/249/249 251/251/251 250/250/250 
f 250/250/250 251/251/251 251/251/251 
f 251/251/251 247/247/247 251/251/251 
f 251/251/251 247/247/247 247/247/247 
f 247/247/247 252/252/252 247/247/247 
f 247/247/247 252/252/252 248/248/248 
f 252/252/252 253/253/253 248/248/248 
f 248/248/248 253/253/253 249/249/249 
f 253/253/253 254/254/254 249/249/249 
f 249/249/249 254/254/254 251/251/251 
f 254/254/254 251/251/251 251/251/251 
f 251/251/251 251/251/251 254/254/254 
f 251/251/251 254/254/254 254/254/254 
f 254/254/254 254/254/254 254/254/254 
f 254/254/254 253/253/253 254/254/254 
f 254/254/254 253/253/253 255/255/255 
f 253/253/253 252/252/252 255/255/255 
f 255/255/255 252/252/252 256/256/256 
f 252/252/252 246/246/246 256/256/256 
f 256/256/256 246/246/246 246/246/246 
f 246/246/246 257/257/257 246/246/246 
f 246/246/246 257/257/257 257/257/257 
f 257/257/257 258/258/258 257/257/257 
f 257/257/257 258/258/258 259/259/259 
f 258/258/258 260/260/260 259/259/259 
f 259/259/259 260/260/260 260/260/260 
f 260/260/260 258/258/258 260/260/260 
f 260/260/260 258/258/258 258/258/258 
f 258/258/258 261/261/261 258/258/258 
f 258/258/258 261/261/261 260/260/260 
f 261/261/261 262/262/262 260/260/260 
f 260/260/260 262/262/262 262/262/262 
f 262/262/262 263/263/263 262/262/262 
f 262/262/262 263/263/263 263/263/263 
f 263/263/263 264/264/264 263/263/263 
f 263/263/263 264/264/264 265/265/265 
f 264/264/264 266/266/266 265/265/265 
f 265/265/265 266/266/266 266/266/266 
f 266/266/266 264/264/264 266/266/266 
f 266/266/266 264/264/264 264/264/264 
f 264/264/264 267/267/267 264/264/264 
f 264/264/264 267/267/267 266/266/266 
f 267/267/267 268/268/268 266/266/266 
f 266/266/266 268/268/268 268/268/268 
f 268/268/268 240/240/240 268/268/268 
f 268/268/268 240/240/240 240/240/240 
f 240/240/240 242/242/242 240/240/240 
f 240/240/240 242/242/242 269/269/269 
f 242/242/242 270/270/270 269/269/269 
f 269/269/269 270/270/270 271/271/271 
f 270/270/270 271/271/271 271/271/271 
f 271/271/271 271/271/271 272/272/272 
f 271/271/271 272/272/272 272/272/272 
f 272/272/272 272/272/272 272/272/272 
f 272/272/272 273/273/273 272/272/272 
f 272/272/272 273/273/273 274/274/274 
f 273/273/273 275/275/275 274/274/274 
f 274/274/274 275/275/275 276/276/276 
f 275/275/275 277/277/277 276/276/276 
f 276/276/276 277/277/277 278/278/278 
f 277/277/277 279/279/279 278/278/278 
f 278/278/278 279/279/279 280/280/280 
f 279/279/279 281/281/281 280/280/280 
f 280/280/280 281/281/281 282/282/282 
f 281/281/281 283/283/283 282/282/282 
f 282/282/282 283/283/283 284/284/284 
f 283/283/283 284/284/284 284/284/284 
f 284/284/284 284/284/284 273/273/273 
f 284/284/284 273/273/273 273/273/273 
f 273/273/273 273/273/273 273/273/273 
f 273/273/273 285/285/285 273/273/273 
f 273/273/273 285/285/285 275/275/275 
f 285/285/285 286/286/286 275/275/275 
f 275/275/275 286/286/286 277/277/277 
f 286/286/286 287/287/287 277/277/277 
f 277/277/277 287/287/287 279/279/279 
f 287/287/287 288/288/288 279/279/279 
f 279/279/279 288/288/288 281/281/281 
f 288/288/288 283/283/283 281/281/281 
f 281/281/281 283/283/283 283/283/283 
f 283/283/283 288/288/288 283/283/283 
f 283/283/283 288/288/288 288/288/288 
f 288/288/288 287/287/287 288/288/288 
f 288/288/288 287/287/287 289/289/289 
f 287/287/287 286/286/286 289/289/289 
f 289/289/289 286/286/286 290/290/290 
f 286/286/286 285/285/285 290/290/290 
f 290/290/290 285/285/285 291/291/291 
f 285/285/285 291/291/291 291/291/291 
f 291/291/291 291/291/291 289/289/289 
f 291/291/291 289/289/289 289/289/289 
f 289/289/289 289/289/289 289/289/289 
f 289/289/289 292/292/292 289/289/289 
f 289/289/289 292/292/292 288/288/288 
f 292/292/292 283/283/283 288/288/288 
f 288/288/288 283/283/283 283/283/283 
f 283/283/283 293/293/293 283/283/283 
f 283/283/283 293/293/293 293/293/293 
f 293/293/293 294/294/294 293/293/293 
f 293/293/293 294/294/294 295/295/295 
f 294/294/294 296/296/296 295/295/295 
f 295/295/295 296/296/296 296/296/296 
f 296/296/296 282/282/282 296/296/296 
f 296/296/296 282/282/282 282/282/282 
f 282/282/282 297/297/297 282/282/282 
f 282/282/282 297/297/297 280/280/280 
f 297/297/297 298/298/298 280/280/280 
f 280/280/280 298/298/298 278/278/278 
f 43/43/43 299/299/299 40/40/40 
f 25/25/25 37/37/37 27/27/27 
f 196/196/196 194/194/194 200/200/200 
f 22/22/22 17/17/17 16/16/16 
f 28/28/28 30/30/30 237/237/237 
f 109/109/109 105/105/105 103/103/103 
f 143/143/143 140/140/140 139/139/139 
f 246/246/246 252/252/252 247/247/247 
f 255/255/255 300/300/300 254/254/254 
f 97/97/97 93/93/93 92/92/92 
f 242/242/242 244/244/244 270/270/270 

