mtllib model_8.mtl
o model_8
v 7.015149116516113 36.602901458740234 -73.48486328125 
v 7.530638217926025 36.602901458740234 -73.7113037109375 
v 6.79810094833374 36.602901458740234 -72.91876220703125 
v 8.127519607543945 36.602901458740234 -73.48486328125 
v 8.344568252563477 36.602901458740234 -72.97537231445312 
v 7.015149116516113 36.602901458740234 -72.40927124023438 
v 7.612030982971191 36.602901458740234 -72.1828384399414 
v -15.0966157913208 37.61003875732422 40.86693572998047 
v -14.553996086120605 37.61003875732422 40.64049530029297 
v -15.28653335571289 37.61003875732422 41.43303298950195 
v -13.984245300292969 37.61003875732422 40.86693572998047 
v -13.767196655273438 37.61003875732422 41.37642288208008 
v -15.06948471069336 37.61003875732422 41.94252014160156 
v -14.499733924865723 37.61003875732422 42.16896057128906 
v 26.5223388671875 37.61003875732422 -27.913970947265625 
v 27.037826538085938 37.61003875732422 -28.140411376953125 
v 26.30529022216797 37.61003875732422 -27.34787368774414 
v 27.634708404541016 37.61003875732422 -27.913970947265625 
v 27.851757049560547 37.61003875732422 -27.404483795166016 
v 26.5223388671875 37.61003875732422 -26.83838653564453 
v 27.119220733642578 37.61003875732422 -26.61194610595703 
v -13.957114219665527 37.61003875732422 20.260967254638672 
v -14.499733924865723 37.61003875732422 20.487407684326172 
v -13.767196655273438 37.61003875732422 19.694869995117188 
v -15.06948471069336 37.61003875732422 20.260967254638672 
v -15.28653335571289 37.61003875732422 19.694869995117188 
v -13.984245300292969 37.61003875732422 19.128772735595703 
v -14.553996086120605 37.61003875732422 18.902332305908203 
v -27.468351364135742 37.61003875732422 -27.913970947265625 
v -26.952863693237305 37.61003875732422 -28.140411376953125 
v -27.685400009155273 37.61003875732422 -27.34787368774414 
v -26.355981826782227 37.61003875732422 -27.913970947265625 
v -26.138933181762695 37.61003875732422 -27.404483795166016 
v -27.468351364135742 37.61003875732422 -26.83838653564453 
v -26.871469497680664 37.61003875732422 -26.61194610595703 
v -27.468351364135742 37.61003875732422 -12.402886390686035 
v -26.952863693237305 37.61003875732422 -12.629325866699219 
v -27.685400009155273 37.61003875732422 -11.836788177490234 
v -26.355981826782227 37.61003875732422 -12.346277236938477 
v -26.138933181762695 37.61003875732422 -11.836788177490234 
v -27.468351364135742 37.61003875732422 -11.27069091796875 
v -26.871469497680664 37.61003875732422 -11.044251441955566 
v 27.634708404541016 37.61003875732422 20.260967254638672 
v 27.119220733642578 37.61003875732422 20.487407684326172 
v 27.851757049560547 37.61003875732422 19.694869995117188 
v 26.5223388671875 37.61003875732422 20.260967254638672 
v 26.30529022216797 37.61003875732422 19.751480102539062 
v 27.634708404541016 37.61003875732422 19.185380935668945 
v 27.037826538085938 37.61003875732422 18.958942413330078 
v 9.728248596191406 37.61003875732422 -41.72676467895508 
v 10.270869255065918 37.61003875732422 -41.89659118652344 
v 9.511200904846191 37.61003875732422 -41.10405349731445 
v 10.840620040893555 37.61003875732422 -41.6701545715332 
v 11.05766773223877 37.61003875732422 -41.16066360473633 
v 9.728248596191406 37.61003875732422 -40.594566345214844 
v 10.3251314163208 37.61003875732422 -40.368125915527344 
v -27.468351364135742 37.61003875732422 3.164808511734009 
v -26.952863693237305 37.61003875732422 2.9383692741394043 
v -27.685400009155273 37.61003875732422 3.7309064865112305 
v -26.355981826782227 37.61003875732422 3.164808511734009 
v -26.138933181762695 37.61003875732422 3.6742966175079346 
v -27.468351364135742 37.61003875732422 4.240394592285156 
v -26.871469497680664 37.61003875732422 4.466833591461182 
v -27.468351364135742 37.61003875732422 19.185380935668945 
v -26.952863693237305 37.61003875732422 18.958942413330078 
v -27.685400009155273 37.61003875732422 19.751480102539062 
v -26.355981826782227 37.61003875732422 19.185380935668945 
v -26.138933181762695 37.61003875732422 19.694869995117188 
v -27.468351364135742 37.61003875732422 20.260967254638672 
v -26.871469497680664 37.61003875732422 20.487407684326172 
v -13.957114219665527 37.61003875732422 -40.594566345214844 
v -14.499733924865723 37.61003875732422 -40.368125915527344 
v -13.767196655273438 37.61003875732422 -41.16066360473633 
v -15.06948471069336 37.61003875732422 -40.594566345214844 
v -15.28653335571289 37.61003875732422 -41.10405349731445 
v -13.984245300292969 37.61003875732422 -41.6701545715332 
v -14.553996086120605 37.61003875732422 -41.89659118652344 
v 26.5223388671875 37.61003875732422 -12.402886390686035 
v 27.037826538085938 37.61003875732422 -12.629325866699219 
v 26.30529022216797 37.61003875732422 -11.836788177490234 
v 27.634708404541016 37.61003875732422 -12.346277236938477 
v 27.851757049560547 37.61003875732422 -11.836788177490234 
v 26.5223388671875 37.61003875732422 -11.27069091796875 
v 27.119220733642578 37.61003875732422 -11.044251441955566 
v 8.127519607543945 36.602901458740234 -51.690086364746094 
v 7.612030982971191 36.602901458740234 -51.46364974975586 
v 8.344568252563477 36.602901458740234 -52.256187438964844 
v 7.015149116516113 36.602901458740234 -51.690086364746094 
v 6.79810094833374 36.602901458740234 -52.19957733154297 
v 8.127519607543945 36.602901458740234 -52.76567459106445 
v 7.530638217926025 36.602901458740234 -52.99211502075195 
v 27.634708404541016 37.61003875732422 4.240394592285156 
v 27.119220733642578 37.61003875732422 4.466833591461182 
v 27.851757049560547 37.61003875732422 3.6742966175079346 
v 26.5223388671875 37.61003875732422 4.240394592285156 
v 26.30529022216797 37.61003875732422 3.7309064865112305 
v 27.634708404541016 37.61003875732422 3.164808511734009 
v 27.037826538085938 37.61003875732422 2.9383692741394043 
v 9.728248596191406 37.61003875732422 19.128772735595703 
v 10.270869255065918 37.61003875732422 18.902332305908203 
v 9.511200904846191 37.61003875732422 19.694869995117188 
v 10.840620040893555 37.61003875732422 19.128772735595703 
v 11.05766773223877 37.61003875732422 19.694869995117188 
v 9.728248596191406 37.61003875732422 20.260967254638672 
v 10.3251314163208 37.61003875732422 20.487407684326172 
v 9.728248596191406 37.61003875732422 40.86693572998047 
v 10.270869255065918 37.61003875732422 40.64049530029297 
v 9.511200904846191 37.61003875732422 41.43303298950195 
v 10.840620040893555 37.61003875732422 40.86693572998047 
v 11.05766773223877 37.61003875732422 41.37642288208008 
v 9.728248596191406 37.61003875732422 41.94252014160156 
v 10.3251314163208 37.61003875732422 42.16896057128906 
v 8.127519607543945 36.602901458740234 -72.40927124023438 
v 7.015149116516113 36.602901458740234 -52.76567459106445 
v 10.867751121520996 37.61003875732422 41.94252014160156 
v -13.957114219665527 37.61003875732422 41.94252014160156 
v 10.867751121520996 37.61003875732422 20.260967254638672 
v -15.0966157913208 37.61003875732422 19.128772735595703 
v 26.5223388671875 37.61003875732422 19.185380935668945 
v 26.5223388671875 37.61003875732422 3.164808511734009 
v 27.634708404541016 37.61003875732422 -11.27069091796875 
v -26.355981826782227 37.61003875732422 20.260967254638672 
v -26.355981826782227 37.61003875732422 4.240394592285156 
v 27.634708404541016 37.61003875732422 -26.83838653564453 
v -26.355981826782227 37.61003875732422 -26.83838653564453 
v -26.355981826782227 37.61003875732422 -11.27069091796875 
v 10.867751121520996 37.61003875732422 -40.594566345214844 
v -15.0966157913208 37.61003875732422 -41.72676467895508 
vn 3.097898456858039e-13 -0.999997615814209 0.002184694167226553 
vn 3.097898456858039e-13 -0.999997615814209 -0.002184694167226553 
vn 3.097898456858039e-13 -0.999997615814209 -0.002184694167226553 
vn 3.097898456858039e-13 -0.999997615814209 -0.002184694167226553 
vn 3.097898456858039e-13 -0.999997615814209 0.002184694167226553 
vn 3.097898456858039e-13 -0.999997615814209 0.002184694167226553 
vn 3.097898456858039e-13 -0.999997615814209 0.002184694167226553 
vn 3.097898456858039e-13 -0.999997615814209 0.002184694167226553 
vn 3.097898456858039e-13 -0.999997615814209 -0.002184694167226553 
vn 3.097898456858039e-13 -0.999997615814209 -0.002184694167226553 
vn 3.097898456858039e-13 -0.999997615814209 -0.002184694167226553 
vn 3.097898456858039e-13 -0.999997615814209 0.002184694167226553 
vn 3.097898456858039e-13 -0.999997615814209 0.002184694167226553 
vn 3.097898456858039e-13 -0.999997615814209 0.002184694167226553 
vn 3.097898456858039e-13 -0.999997615814209 0.002184694167226553 
vn 3.097898456858039e-13 -0.999997615814209 -0.002184694167226553 
vn 3.097898456858039e-13 -0.999997615814209 -0.002184694167226553 
vn 3.097898456858039e-13 -0.999997615814209 -0.002184694167226553 
vn 3.097898456858039e-13 -0.999997615814209 0.002184694167226553 
vn 3.097898456858039e-13 -0.999997615814209 0.002184694167226553 
vn 3.097898456858039e-13 -0.999997615814209 0.002184694167226553 
vn 3.097898456858039e-13 -0.999997615814209 0.002184694167226553 
vn 3.097898456858039e-13 -0.999997615814209 0.002184694167226553 
vn 3.097898456858039e-13 -0.999997615814209 0.002184694167226553 
vn 3.097898456858039e-13 -0.999997615814209 0.002184694167226553 
vn 3.097898456858039e-13 -0.999997615814209 -0.002184694167226553 
vn 3.097898456858039e-13 -0.999997615814209 -0.002184694167226553 
vn 3.097898456858039e-13 -0.999997615814209 -0.002184694167226553 
vn 3.097898456858039e-13 -0.999997615814209 0.002184694167226553 
vn 3.097898456858039e-13 -0.999997615814209 -0.002184694167226553 
vn 3.097898456858039e-13 -0.999997615814209 -0.002184694167226553 
vn 3.097898456858039e-13 -0.999997615814209 -0.002184694167226553 
vn 3.097898456858039e-13 -0.999997615814209 0.002184694167226553 
vn 3.097898456858039e-13 -0.999997615814209 0.002184694167226553 
vn 3.097898456858039e-13 -0.999997615814209 0.002184694167226553 
vn 3.097898456858039e-13 -0.999997615814209 0.002184694167226553 
vn 3.097898456858039e-13 -0.999997615814209 -0.002184694167226553 
vn 3.097898456858039e-13 -0.999997615814209 -0.002184694167226553 
vn 3.097898456858039e-13 -0.999997615814209 -0.002184694167226553 
vn 3.097898456858039e-13 -0.999997615814209 0.002184694167226553 
vn 3.097898456858039e-13 -0.999997615814209 0.002184694167226553 
vn 3.097898456858039e-13 -0.999997615814209 0.002184694167226553 
vn 3.097898456858039e-13 -0.999997615814209 0.002184694167226553 
vn 3.097898456858039e-13 -0.999997615814209 0.002184694167226553 
vn 3.097898456858039e-13 -0.999997615814209 0.002184694167226553 
vn 3.097898456858039e-13 -0.999997615814209 0.002184694167226553 
vn 3.097898456858039e-13 -0.999997615814209 -0.002184694167226553 
vn 3.097898456858039e-13 -0.999997615814209 -0.002184694167226553 
vn 3.097898456858039e-13 -0.999997615814209 -0.002184694167226553 
vn 3.097898456858039e-13 -0.999997615814209 0.002184694167226553 
vn 3.097898456858039e-13 -0.999997615814209 -0.002184694167226553 
vn 3.097898456858039e-13 -0.999997615814209 -0.002184694167226553 
vn 3.097898456858039e-13 -0.999997615814209 -0.002184694167226553 
vn 3.097898456858039e-13 -0.999997615814209 0.002184694167226553 
vn 3.097898456858039e-13 -0.999997615814209 0.002184694167226553 
vn 3.097898456858039e-13 -0.999997615814209 0.002184694167226553 
vn 3.097898456858039e-13 -0.999997615814209 0.002184694167226553 
vn 3.097898456858039e-13 -0.999997615814209 -0.002184694167226553 
vn 3.097898456858039e-13 -0.999997615814209 -0.002184694167226553 
vn 3.097898456858039e-13 -0.999997615814209 -0.002184694167226553 
vn 3.097898456858039e-13 -0.999997615814209 0.002184694167226553 
vn 3.097898456858039e-13 -0.999997615814209 0.002184694167226553 
vn 3.097898456858039e-13 -0.999997615814209 0.002184694167226553 
vn 3.097898456858039e-13 -0.999997615814209 0.002184694167226553 
vn 3.097898456858039e-13 -0.999997615814209 -0.002184694167226553 
vn 3.097898456858039e-13 -0.999997615814209 -0.002184694167226553 
vn 3.097898456858039e-13 -0.999997615814209 -0.002184694167226553 
vn 3.097898456858039e-13 -0.999997615814209 0.002184694167226553 
vn 3.097898456858039e-13 -0.999997615814209 0.002184694167226553 
vn 3.097898456858039e-13 -0.999997615814209 0.002184694167226553 
vn 3.097898456858039e-13 -0.999997615814209 0.002184694167226553 
vn 3.097898456858039e-13 -0.999997615814209 0.002184694167226553 
vn 3.097898456858039e-13 -0.999997615814209 0.002184694167226553 
vn 3.097898456858039e-13 -0.999997615814209 0.002184694167226553 
vn 3.097898456858039e-13 -0.999997615814209 -0.002184694167226553 
vn 3.097898456858039e-13 -0.999997615814209 -0.002184694167226553 
vn 3.097898456858039e-13 -0.999997615814209 -0.002184694167226553 
vn 3.097898456858039e-13 -0.999997615814209 0.002184694167226553 
vn 3.097898456858039e-13 -0.999997615814209 -0.002184694167226553 
vn 3.097898456858039e-13 -0.999997615814209 -0.002184694167226553 
vn 3.097898456858039e-13 -0.999997615814209 -0.002184694167226553 
vn 3.097898456858039e-13 -0.999997615814209 0.002184694167226553 
vn 3.097898456858039e-13 -0.999997615814209 0.002184694167226553 
vn 3.097898456858039e-13 -0.999997615814209 0.002184694167226553 
vn 3.097898456858039e-13 -0.999997615814209 0.002184694167226553 
vn 3.097898456858039e-13 -0.999997615814209 0.002184694167226553 
vn 3.097898456858039e-13 -0.999997615814209 0.002184694167226553 
vn 3.097898456858039e-13 -0.999997615814209 0.002184694167226553 
vn 3.097898456858039e-13 -0.999997615814209 -0.002184694167226553 
vn 3.097898456858039e-13 -0.999997615814209 -0.002184694167226553 
vn 3.097898456858039e-13 -0.999997615814209 -0.002184694167226553 
vn 3.097898456858039e-13 -0.999997615814209 0.002184694167226553 
vn 3.097898456858039e-13 -0.999997615814209 0.002184694167226553 
vn 3.097898456858039e-13 -0.999997615814209 0.002184694167226553 
vn 3.097898456858039e-13 -0.999997615814209 0.002184694167226553 
vn 3.097898456858039e-13 -0.999997615814209 -0.002184694167226553 
vn 3.097898456858039e-13 -0.999997615814209 -0.002184694167226553 
vn 3.097898456858039e-13 -0.999997615814209 -0.002184694167226553 
vn 3.097898456858039e-13 -0.999997615814209 0.002184694167226553 
vn 3.097898456858039e-13 -0.999997615814209 -0.002184694167226553 
vn 3.097898456858039e-13 -0.999997615814209 -0.002184694167226553 
vn 3.097898456858039e-13 -0.999997615814209 -0.002184694167226553 
vn 3.097898456858039e-13 -0.999997615814209 0.002184694167226553 
vn 3.097898456858039e-13 -0.999997615814209 0.002184694167226553 
vn 3.097898456858039e-13 -0.999997615814209 0.002184694167226553 
vn 3.097898456858039e-13 -0.999997615814209 0.002184694167226553 
vn 3.097898456858039e-13 -0.999997615814209 -0.002184694167226553 
vn 3.097898456858039e-13 -0.999997615814209 -0.002184694167226553 
vn 3.097898456858039e-13 -0.999997615814209 -0.002184694167226553 
vn 3.097898456858039e-13 -0.999997615814209 0.002184694167226553 
vn 3.097898456858039e-13 -0.999997615814209 0.002184694167226553 
vn 3.097898456858039e-13 -0.999997615814209 0.002184694167226553 
vn 3.097898456858039e-13 -0.999997615814209 0.002184694167226553 
vn 3.097898456858039e-13 -0.999997615814209 0.002184694167226553 
vn 3.097898456858039e-13 -0.999997615814209 0.002184694167226553 
vn 3.097898456858039e-13 -0.999997615814209 0.002184694167226553 
vn 3.097898456858039e-13 -0.999997615814209 0.002184694167226553 
vn 3.097898456858039e-13 -0.999997615814209 0.002184694167226553 
vn 3.097898456858039e-13 -0.999997615814209 0.002184694167226553 
vn 3.097898456858039e-13 -0.999997615814209 0.002184694167226553 
vn 3.097898456858039e-13 -0.999997615814209 0.002184694167226553 
vn 3.097898456858039e-13 -0.999997615814209 0.002184694167226553 
vn 3.097898456858039e-13 -0.999997615814209 0.002184694167226553 
vn 3.097898456858039e-13 -0.999997615814209 0.002184694167226553 
vn 3.097898456858039e-13 -0.999997615814209 0.002184694167226553 
vn 3.097898456858039e-13 -0.999997615814209 0.002184694167226553 
vn 3.097898456858039e-13 -0.999997615814209 0.002184694167226553 
vn 3.097898456858039e-13 -0.999997615814209 0.002184694167226553 
s on 
f 1//1 2//2 3//3 
f 2//2 4//4 3//3 
f 3//3 4//4 5//5 
f 4//4 5//5 5//5 
f 5//5 5//5 3//3 
f 5//5 3//3 3//3 
f 3//3 3//3 3//3 
f 3//3 5//5 3//3 
f 3//3 5//5 6//6 
f 5//5 7//7 6//6 
f 6//6 7//7 7//7 
f 7//7 8//8 7//7 
f 7//7 8//8 8//8 
f 8//8 9//9 8//8 
f 8//8 9//9 10//10 
f 9//9 11//11 10//10 
f 10//10 11//11 12//12 
f 11//11 12//12 12//12 
f 12//12 12//12 10//10 
f 12//12 10//10 10//10 
f 10//10 10//10 10//10 
f 10//10 12//12 10//10 
f 10//10 12//12 13//13 
f 12//12 14//14 13//13 
f 13//13 14//14 14//14 
f 14//14 15//15 14//14 
f 14//14 15//15 15//15 
f 15//15 16//16 15//15 
f 15//15 16//16 17//17 
f 16//16 18//18 17//17 
f 17//17 18//18 19//19 
f 18//18 19//19 19//19 
f 19//19 19//19 17//17 
f 19//19 17//17 17//17 
f 17//17 17//17 17//17 
f 17//17 19//19 17//17 
f 17//17 19//19 20//20 
f 19//19 21//21 20//20 
f 20//20 21//21 21//21 
f 21//21 22//22 21//21 
f 21//21 22//22 22//22 
f 22//22 23//23 22//22 
f 22//22 23//23 24//24 
f 23//23 25//25 24//24 
f 24//24 25//25 26//26 
f 25//25 26//26 26//26 
f 26//26 26//26 24//24 
f 26//26 24//24 24//24 
f 24//24 24//24 24//24 
f 24//24 26//26 24//24 
f 24//24 26//26 27//27 
f 26//26 28//28 27//27 
f 27//27 28//28 28//28 
f 28//28 29//29 28//28 
f 28//28 29//29 29//29 
f 29//29 30//30 29//29 
f 29//29 30//30 31//31 
f 30//30 32//32 31//31 
f 31//31 32//32 33//33 
f 32//32 33//33 33//33 
f 33//33 33//33 31//31 
f 33//33 31//31 31//31 
f 31//31 31//31 31//31 
f 31//31 33//33 31//31 
f 31//31 33//33 34//34 
f 33//33 35//35 34//34 
f 34//34 35//35 35//35 
f 35//35 36//36 35//35 
f 35//35 36//36 36//36 
f 36//36 37//37 36//36 
f 36//36 37//37 38//38 
f 37//37 39//39 38//38 
f 38//38 39//39 40//40 
f 39//39 40//40 40//40 
f 40//40 40//40 38//38 
f 40//40 38//38 38//38 
f 38//38 38//38 38//38 
f 38//38 40//40 38//38 
f 38//38 40//40 41//41 
f 40//40 42//42 41//41 
f 41//41 42//42 42//42 
f 42//42 43//43 42//42 
f 42//42 43//43 43//43 
f 43//43 44//44 43//43 
f 43//43 44//44 45//45 
f 44//44 46//46 45//45 
f 45//45 46//46 47//47 
f 46//46 47//47 47//47 
f 47//47 47//47 45//45 
f 47//47 45//45 45//45 
f 45//45 45//45 45//45 
f 45//45 47//47 45//45 
f 45//45 47//47 48//48 
f 47//47 49//49 48//48 
f 48//48 49//49 49//49 
f 49//49 50//50 49//49 
f 49//49 50//50 50//50 
f 50//50 51//51 50//50 
f 50//50 51//51 52//52 
f 51//51 53//53 52//52 
f 52//52 53//53 54//54 
f 53//53 54//54 54//54 
f 54//54 54//54 52//52 
f 54//54 52//52 52//52 
f 52//52 52//52 52//52 
f 52//52 54//54 52//52 
f 52//52 54//54 55//55 
f 54//54 56//56 55//55 
f 55//55 56//56 56//56 
f 56//56 57//57 56//56 
f 56//56 57//57 57//57 
f 57//57 58//58 57//57 
f 57//57 58//58 59//59 
f 58//58 60//60 59//59 
f 59//59 60//60 61//61 
f 60//60 61//61 61//61 
f 61//61 61//61 59//59 
f 61//61 59//59 59//59 
f 59//59 59//59 59//59 
f 59//59 61//61 59//59 
f 59//59 61//61 62//62 
f 61//61 63//63 62//62 
f 62//62 63//63 63//63 
f 63//63 64//64 63//63 
f 63//63 64//64 64//64 
f 64//64 65//65 64//64 
f 64//64 65//65 66//66 
f 65//65 67//67 66//66 
f 66//66 67//67 68//68 
f 67//67 68//68 68//68 
f 68//68 68//68 66//66 
f 68//68 66//66 66//66 
f 66//66 66//66 66//66 
f 66//66 68//68 66//66 
f 66//66 68//68 69//69 
f 68//68 70//70 69//69 
f 69//69 70//70 70//70 
f 70//70 71//71 70//70 
f 70//70 71//71 71//71 
f 71//71 72//72 71//71 
f 71//71 72//72 73//73 
f 72//72 74//74 73//73 
f 73//73 74//74 75//75 
f 74//74 75//75 75//75 
f 75//75 75//75 73//73 
f 75//75 73//73 73//73 
f 73//73 73//73 73//73 
f 73//73 75//75 73//73 
f 73//73 75//75 76//76 
f 75//75 77//77 76//76 
f 76//76 77//77 77//77 
f 77//77 78//78 77//77 
f 77//77 78//78 78//78 
f 78//78 79//79 78//78 
f 78//78 79//79 80//80 
f 79//79 81//81 80//80 
f 80//80 81//81 82//82 
f 81//81 82//82 82//82 
f 82//82 82//82 80//80 
f 82//82 80//80 80//80 
f 80//80 80//80 80//80 
f 80//80 82//82 80//80 
f 80//80 82//82 83//83 
f 82//82 84//84 83//83 
f 83//83 84//84 84//84 
f 84//84 85//85 84//84 
f 84//84 85//85 85//85 
f 85//85 86//86 85//85 
f 85//85 86//86 87//87 
f 86//86 88//88 87//87 
f 87//87 88//88 89//89 
f 88//88 89//89 89//89 
f 89//89 89//89 87//87 
f 89//89 87//87 87//87 
f 87//87 87//87 87//87 
f 87//87 89//89 87//87 
f 87//87 89//89 90//90 
f 89//89 91//91 90//90 
f 90//90 91//91 91//91 
f 91//91 92//92 91//91 
f 91//91 92//92 92//92 
f 92//92 93//93 92//92 
f 92//92 93//93 94//94 
f 93//93 95//95 94//94 
f 94//94 95//95 96//96 
f 95//95 96//96 96//96 
f 96//96 96//96 94//94 
f 96//96 94//94 94//94 
f 94//94 94//94 94//94 
f 94//94 96//96 94//94 
f 94//94 96//96 97//97 
f 96//96 98//98 97//97 
f 97//97 98//98 98//98 
f 98//98 99//99 98//98 
f 98//98 99//99 99//99 
f 99//99 100//100 99//99 
f 99//99 100//100 101//101 
f 100//100 102//102 101//101 
f 101//101 102//102 103//103 
f 102//102 103//103 103//103 
f 103//103 103//103 101//101 
f 103//103 101//101 101//101 
f 101//101 101//101 101//101 
f 101//101 103//103 101//101 
f 101//101 103//103 104//104 
f 103//103 105//105 104//104 
f 104//104 105//105 105//105 
f 105//105 106//106 105//105 
f 105//105 106//106 106//106 
f 106//106 107//107 106//106 
f 106//106 107//107 108//108 
f 107//107 109//109 108//108 
f 108//108 109//109 110//110 
f 109//109 110//110 110//110 
f 110//110 110//110 108//108 
f 110//110 108//108 108//108 
f 108//108 108//108 108//108 
f 108//108 110//110 108//108 
f 108//108 110//110 111//111 
f 110//110 112//112 111//111 
f 5//5 113//113 7//7 
f 114//114 91//91 89//89 
f 110//110 115//115 112//112 
f 12//12 116//116 14//14 
f 103//103 117//117 105//105 
f 118//118 28//28 26//26 
f 119//119 49//49 47//47 
f 120//120 98//98 96//96 
f 82//82 121//121 84//84 
f 68//68 122//122 70//70 
f 61//61 123//123 63//63 
f 19//19 124//124 21//21 
f 33//33 125//125 35//35 
f 40//40 126//126 42//42 
f 54//54 127//127 56//56 
f 128//128 77//77 75//75 

