mtllib model_0.mtl
o model_0
v -0.22859999537467957 -0.22859999537467957 0.0006750000175088644 
v -0.22859999537467957 -0.22859999537467957 -0.009525000117719173 
v 0.22859999537467957 -0.22859999537467957 0.0006750000175088644 
v 0.22859999537467957 -0.22859999537467957 -0.009525000117719173 
v -0.22139999270439148 -0.22139999270439148 0.009525000117719173 
v -0.22859999537467957 -0.22859999537467957 0.0006750000175088644 
v 0.22139999270439148 -0.22139999270439148 0.009525000117719173 
v 0.22859999537467957 -0.22859999537467957 0.0006750000175088644 
v 0.22139999270439148 0.22139999270439148 0.009525000117719173 
v 0.22859999537467957 0.22859999537467957 0.0006750000175088644 
v -0.22139999270439148 0.22139999270439148 0.009525000117719173 
v -0.22859999537467957 0.22859999537467957 0.0006750000175088644 
v 0.22859999537467957 0.22859999537467957 0.0006750000175088644 
v 0.22859999537467957 0.22859999537467957 -0.009525000117719173 
v -0.22859999537467957 0.22859999537467957 0.0006750000175088644 
v -0.22859999537467957 0.22859999537467957 -0.009525000117719173 
v 0.22139999270439148 -0.22139999270439148 0.009525000117719173 
v 0.22859999537467957 -0.22859999537467957 0.0006750000175088644 
v 0.22139999270439148 0.22139999270439148 0.009525000117719173 
v 0.22859999537467957 0.22859999537467957 0.0006750000175088644 
v -0.22139999270439148 0.22139999270439148 0.009525000117719173 
v -0.22859999537467957 0.22859999537467957 0.0006750000175088644 
v -0.22139999270439148 -0.22139999270439148 0.009525000117719173 
v -0.22859999537467957 -0.22859999537467957 0.0006750000175088644 
v 0.22859999537467957 -0.22859999537467957 -0.009525000117719173 
v -0.22859999537467957 -0.22859999537467957 -0.009525000117719173 
v 0.22859999537467957 0.22859999537467957 -0.009525000117719173 
v -0.22859999537467957 0.22859999537467957 -0.009525000117719173 
v -0.22859999537467957 0.22859999537467957 0.0006750000175088644 
v -0.22859999537467957 0.22859999537467957 -0.009525000117719173 
v -0.22859999537467957 -0.22859999537467957 0.0006750000175088644 
v -0.22859999537467957 -0.22859999537467957 -0.009525000117719173 
v 0.22859999537467957 -0.22859999537467957 0.0006750000175088644 
v 0.22859999537467957 -0.22859999537467957 -0.009525000117719173 
v 0.22859999537467957 0.22859999537467957 0.0006750000175088644 
v 0.22859999537467957 0.22859999537467957 -0.009525000117719173 
v -0.22139999270439148 0.22139999270439148 0.009525000117719173 
v -0.22139999270439148 -0.22139999270439148 0.009525000117719173 
v 0.22139999270439148 0.22139999270439148 0.009525000117719173 
v 0.22139999270439148 -0.22139999270439148 0.009525000117719173 
vn 3.097898456858039e-13 -0.999997615814209 0.002184694167226553 
vn 3.097898456858039e-13 -0.999997615814209 0.002184694167226553 
vn 3.097898456858039e-13 -0.999997615814209 0.002184694167226553 
vn 3.097898456858039e-13 -0.999997615814209 0.002184694167226553 
vn 0.00376924779266119 -0.707868754863739 0.7063339352607727 
vn 0.00376924779266119 -0.707868754863739 0.7063339352607727 
vn 0.00376924779266119 -0.707868754863739 0.7063339352607727 
vn 0.00376924779266119 -0.707868754863739 0.7063339352607727 
vn 0.00376924779266119 0.707868754863739 0.7063339352607727 
vn 0.00376924779266119 0.707868754863739 0.7063339352607727 
vn 0.00376924779266119 0.707868754863739 0.7063339352607727 
vn 0.00376924779266119 0.707868754863739 0.7063339352607727 
vn -1.0341130485562108e-13 0.999997615814209 0.002184694167226553 
vn -1.0341130485562108e-13 0.999997615814209 0.002184694167226553 
vn -1.0341130485562108e-13 0.999997615814209 0.002184694167226553 
vn -1.0341130485562108e-13 0.999997615814209 0.002184694167226553 
vn 0.7078787684440613 0 0.7063339352607727 
vn 0.7078787684440613 0 0.7063339352607727 
vn 0.7078787684440613 0 0.7063339352607727 
vn 0.7078787684440613 0 0.7063339352607727 
vn -0.7078787684440613 -1.4640568759497624e-13 0.7063339352607727 
vn -0.7078787684440613 -1.4640568759497624e-13 0.7063339352607727 
vn -0.7078787684440613 -1.4640568759497624e-13 0.7063339352607727 
vn -0.7078787684440613 -1.4640568759497624e-13 0.7063339352607727 
vn -2.0682311115474694e-13 0 -1 
vn -2.0682311115474694e-13 0 -1 
vn -2.0682311115474694e-13 0 -1 
vn -2.0682311115474694e-13 0 -1 
vn -0.999997615814209 -2.0682260971124217e-13 0.002184694167226553 
vn -0.999997615814209 -2.0682260971124217e-13 0.002184694167226553 
vn -0.999997615814209 -2.0682260971124217e-13 0.002184694167226553 
vn -0.999997615814209 -2.0682260971124217e-13 0.002184694167226553 
vn 0.999997615814209 0 0.002184694167226553 
vn 0.999997615814209 0 0.002184694167226553 
vn 0.999997615814209 0 0.002184694167226553 
vn 0.999997615814209 0 0.002184694167226553 
vn 0 0 1 
vn 0 0 1 
vn 0 0 1 
vn 0 0 1 
vt 0.014617400243878365 0.5151861310005188 
vt 0.014617400243878365 0.5048477649688721 
vt 0.4775771200656891 0.5151861310005188 
vt 0.4775771200656891 0.5048477649688721 
vt 0.023547949269413948 0.5278145670890808 
vt 0.014617400243878365 0.5151861310005188 
vt 0.4686465561389923 0.5278145670890808 
vt 0.4775771200656891 0.5151861310005188 
vt 0.4686465561389923 0.018880600109696388 
vt 0.4775771200656891 0.031509071588516235 
vt 0.023547949269413948 0.018880600109696388 
vt 0.014617400243878365 0.031509071588516235 
vt 0.4775771200656891 0.031509071588516235 
vt 0.4775771200656891 0.041847407817840576 
vt 0.014617400243878365 0.031509071588516235 
vt 0.014617400243878365 0.041847407817840576 
vt 0.49448561668395996 0.03275229036808014 
vt 0.4846024811267853 0.018880600109696388 
vt 0.9801884889602661 0.03275229036808014 
vt 0.9899525046348572 0.018880600109696388 
vt 0.9801884889602661 0.5184577107429504 
vt 0.9899525046348572 0.5323294401168823 
vt 0.49448561668395996 0.5184577107429504 
vt 0.4846024811267853 0.5323294401168823 
vt 0.4775771200656891 0.5048477649688721 
vt 0.014617400243878365 0.5048477649688721 
vt 0.4775771200656891 0.041847407817840576 
vt 0.014617400243878365 0.041847407817840576 
vt 0.9899525046348572 0.5323294401168823 
vt 0.9899525046348572 0.5435838103294373 
vt 0.4846024811267853 0.5323294401168823 
vt 0.4846024811267853 0.5435838103294373 
vt 0.4846024811267853 0.018880600109696388 
vt 0.4846024811267853 0.007626209873706102 
vt 0.9899525046348572 0.018880600109696388 
vt 0.9899525046348572 0.007626209873706102 
vt 0.9801884889602661 0.5184577107429504 
vt 0.49448561668395996 0.5184577107429504 
vt 0.9801884889602661 0.03275229036808014 
vt 0.49448561668395996 0.03275229036808014 
s on 
f 1/1/1 2/2/2 3/3/3 
f 2/2/2 4/4/4 3/3/3 
f 3/3/3 4/4/4 4/4/4 
f 4/4/4 5/5/5 4/4/4 
f 4/4/4 5/5/5 5/5/5 
f 5/5/5 6/6/6 5/5/5 
f 5/5/5 6/6/6 7/7/7 
f 6/6/6 8/8/8 7/7/7 
f 7/7/7 8/8/8 8/8/8 
f 8/8/8 9/9/9 8/8/8 
f 8/8/8 9/9/9 9/9/9 
f 9/9/9 10/10/10 9/9/9 
f 9/9/9 10/10/10 11/11/11 
f 10/10/10 12/12/12 11/11/11 
f 11/11/11 12/12/12 12/12/12 
f 12/12/12 13/13/13 12/12/12 
f 12/12/12 13/13/13 13/13/13 
f 13/13/13 14/14/14 13/13/13 
f 13/13/13 14/14/14 15/15/15 
f 14/14/14 16/16/16 15/15/15 
f 15/15/15 16/16/16 16/16/16 
f 16/16/16 17/17/17 16/16/16 
f 16/16/16 17/17/17 17/17/17 
f 17/17/17 18/18/18 17/17/17 
f 17/17/17 18/18/18 19/19/19 
f 18/18/18 20/20/20 19/19/19 
f 19/19/19 20/20/20 20/20/20 
f 20/20/20 21/21/21 20/20/20 
f 20/20/20 21/21/21 21/21/21 
f 21/21/21 22/22/22 21/21/21 
f 21/21/21 22/22/22 23/23/23 
f 22/22/22 24/24/24 23/23/23 
f 23/23/23 24/24/24 24/24/24 
f 24/24/24 25/25/25 24/24/24 
f 24/24/24 25/25/25 25/25/25 
f 25/25/25 26/26/26 25/25/25 
f 25/25/25 26/26/26 27/27/27 
f 26/26/26 28/28/28 27/27/27 
f 27/27/27 28/28/28 28/28/28 
f 28/28/28 29/29/29 28/28/28 
f 28/28/28 29/29/29 29/29/29 
f 29/29/29 30/30/30 29/29/29 
f 29/29/29 30/30/30 31/31/31 
f 30/30/30 32/32/32 31/31/31 
f 31/31/31 32/32/32 32/32/32 
f 32/32/32 33/33/33 32/32/32 
f 32/32/32 33/33/33 33/33/33 
f 33/33/33 34/34/34 33/33/33 
f 33/33/33 34/34/34 35/35/35 
f 34/34/34 36/36/36 35/35/35 
f 35/35/35 36/36/36 36/36/36 
f 36/36/36 37/37/37 36/36/36 
f 36/36/36 37/37/37 37/37/37 
f 37/37/37 38/38/38 37/37/37 
f 37/37/37 38/38/38 39/39/39 
f 38/38/38 40/40/40 39/39/39 

